<?xml version="1.0" encoding="UTF-8"?>
<svg width="250px" height="180px" viewBox="0 0 250 180" version="1.1" xmlns="http://www.w3.org/2000/svg" xmlns:xlink="http://www.w3.org/1999/xlink">
    <!-- Generator: Sketch 51.2 (57519) - http://www.bohemiancoding.com/sketch -->
    <title>1</title>
    <desc>Created with Sketch.</desc>
    <defs>
        <polygon id="path-1" points="0.165424176 0.15685771 247.876908 0.15685771 247.876908 171.839376 0.165424176 171.839376"></polygon>
    </defs>
    <g id="1" stroke="none" stroke-width="1" fill="none" fill-rule="evenodd">
        <g id="Group-16" transform="translate(0.000000, 7.000000)">
            <g id="Group-136">
                <mask id="mask-2" fill="white">
                    <use xlink:href="#path-1"></use>
                </mask>
                <g id="Clip-2"></g>
                <path d="M-0.662968498,50.1946963 C-0.662968498,50.1946963 19.0941832,50.5816508 33.6324337,55.9976487 C48.1707751,61.4137376 83.5845392,66.8297354 95.8861568,67.2164169 C108.187774,67.6030984 129.436105,60.2530561 149.193257,50.9683323 C168.9505,41.6835175 180.133664,28.5305228 207.346441,23.5014794 C234.559218,18.472345 252.82519,28.9174772 252.82519,28.9174772 L252.82519,191.366199 L-10.9755897,191.366199 L-0.662968498,50.1946963 Z" id="Fill-1" fill="#FEFEFE" mask="url(#mask-2)"></path>
                <path d="M252.82519,28.923099 C252.82519,28.923099 234.559218,18.4779889 207.346441,23.5070461 C180.133664,28.5361034 168.9505,41.6891456 149.193257,50.9739289 C129.436105,60.2586179 108.187774,67.6087059 95.8861568,67.2219932 C83.5845392,66.8352804 48.1707751,61.4192275 33.6324337,56.003269 C19.0941832,50.5872161 -0.662968498,50.2002205 -0.662968498,50.2002205" id="Stroke-3" stroke="#151616" stroke-width="0.644506159" stroke-linejoin="round" mask="url(#mask-2)"></path>
                <path d="M253.570916,36.2733756 C253.570916,36.2733756 228.967681,27.7624893 211.819889,30.8573228 C194.672006,33.9521562 167.832138,48.6529923 152.548343,54.8426593 C137.264548,61.0323262 115.643581,71.8643377 98.4956982,73.7985614 C81.3479062,75.7328795 52.6438593,68.38232 36.614611,62.5795544 C20.5853626,56.7768831 14.6210081,55.2292778 7.91092747,53.295054 C1.20084689,51.3608302 -3.64514579,51.7478258 -3.64514579,51.7478258" id="Stroke-4" stroke="#151616" stroke-width="0.644506159" stroke-linejoin="round" mask="url(#mask-2)"></path>
                <path d="M253.570916,45.557876 C253.570916,45.557876 224.494324,39.3682091 200.263725,45.9447774 C176.033216,52.5214399 143.974719,72.638046 120.489574,76.8933949 C97.0045187,81.1488381 60.4723018,85.0176627 35.4963399,73.7985614 C10.5202872,62.5795544 7.91092747,61.0320434 0.828210989,60.6453306 C-6.25450549,60.2586179 -3.27232821,60.6453306 -3.27232821,60.6453306" id="Stroke-5" stroke="#151616" stroke-width="0.644506159" stroke-linejoin="round" mask="url(#mask-2)"></path>
                <path d="M254.316369,67.6088945 C254.316369,67.6088945 222.257327,61.4192275 199.890907,65.6746707 C177.524396,69.9301139 140.619634,85.7907112 115.270673,88.4991147 C89.9218022,91.2073297 50.034863,94.3021631 32.8869802,86.9518865 C15.7390974,79.6013271 5.30165861,76.5067764 -0.290150916,75.3461667 C-5.8818696,74.185557 -4.01805421,74.9591711 -4.01805421,74.9591711" id="Stroke-6" stroke="#151616" stroke-width="0.644506159" stroke-linejoin="round" mask="url(#mask-2)"></path>
                <path d="M253.570916,95.8496742 C253.570916,95.8496742 218.529697,84.6306671 192.80819,88.1124962 C167.086593,91.594231 160.376513,91.594231 160.376513,91.594231 C160.376513,91.594231 137.264275,89.2728231 118.998394,93.1415535 C100.732422,97.0102838 89.5491663,110.163232 67.5552908,111.323842 C45.5614154,112.484451 26.1768996,106.681497 13.8752821,102.812955 C1.57366447,98.9445076 -3.27232821,96.2363869 -3.27232821,96.2363869" id="Stroke-7" stroke="#151616" stroke-width="0.644506159" stroke-linejoin="round" mask="url(#mask-2)"></path>
                <path d="M253.570916,103.973565 C253.570916,103.973565 221.884782,109.776613 193.926552,101.265727 C165.968322,92.7548407 145.029673,90.4333385 133.473873,90.8203341 C121.917981,91.2073297 119.05299,93.4633113 119.05299,93.4633113" id="Stroke-8" stroke="#151616" stroke-width="0.644506159" stroke-linejoin="round" mask="url(#mask-2)"></path>
                <path d="M253.198007,130.280121 C253.198007,130.280121 192.807918,129.119511 173.796492,123.703458 C154.785067,118.287405 129.808741,112.484734 108.560592,116.353182 C87.3124425,120.221723 41.4606945,131.44073 23.1947223,127.958901 C4.92875018,124.477072 -2.52678388,119.448015 -2.52678388,119.448015" id="Stroke-9" stroke="#151616" stroke-width="0.644506159" stroke-linejoin="round" mask="url(#mask-2)"></path>
                <path d="M254.316369,161.615734 C254.316369,161.615734 193.181008,164.710567 159.631059,156.973295 C126.081111,149.236117 109.678954,146.915181 88.8034403,148.849404 C67.9279267,150.783628 36.614611,155.812685 21.330907,156.973295 C6.04711209,158.133905 -2.1539663,156.199681 -2.1539663,156.199681" id="Stroke-10" stroke="#151616" stroke-width="0.644506159" stroke-linejoin="round" mask="url(#mask-2)"></path>
                <path d="M251.7071,26.9885924 C251.7071,26.9885924 246.861017,31.2442241 247.233653,63.3534513 C247.606289,95.4626786 246.860835,104.747273 246.860835,104.747273 C247.485286,126.771612 234.511071,160.440417 226.508484,180.704186" id="Stroke-11" stroke="#151616" stroke-width="0.644506159" stroke-linejoin="round" mask="url(#mask-2)"></path>
                <path d="M241.269298,24.2806602 C232.268442,35.4892971 227.952607,87.8781305 226.358139,105.134175 C226.358139,105.134175 216.665609,114.805953 209.210256,128.345897 C201.754995,141.885841 196.535821,151.944238 192.80819,159.294515 C189.080469,166.644791 184.607112,174.381969 184.607112,174.381969" id="Stroke-12" stroke="#151616" stroke-width="0.644506159" stroke-linejoin="round" mask="url(#mask-2)"></path>
                <path d="M226.731048,23.5070461 C226.731048,23.5070461 217.038699,28.5363862 212.565342,46.331773 C208.091895,64.1271597 204.364264,87.3387878 202.500448,94.6890645 C200.636633,102.039341 198.772545,103.586664 198.772545,103.586664 C198.772545,103.586664 187.961925,100.492113 171.932677,120.608625 C155.903429,140.725231 143.601538,158.520618 138.755546,164.323572 C133.909553,170.126526 131.299921,173.221359 131.299921,173.221359" id="Stroke-13" stroke="#F17E00" stroke-width="2.50054203" stroke-linejoin="round" mask="url(#mask-2)"></path>
                <path d="M214.429158,23.1200505 C214.429158,23.1200505 202.873084,26.214884 196.90873,47.8790011 C190.944375,69.5432125 189.826013,82.6961605 187.589289,87.7255006 C185.352566,92.7548407 180.879481,97.7838979 180.879481,97.7838979" id="Stroke-14" stroke="#151616" stroke-width="0.644506159" stroke-linejoin="round" mask="url(#mask-2)"></path>
                <path d="M196.163185,26.214884 C196.163185,26.214884 186.843563,32.7912637 183.115842,44.3972663 C177.377322,62.2637358 173.507068,79.7229408 158.885606,92.3678451" id="Stroke-15" stroke="#151616" stroke-width="0.644506159" stroke-linejoin="round" mask="url(#mask-2)"></path>
                <path d="M176.778942,34.7257703 C176.778942,34.7257703 170.068589,40.9154373 164.477052,52.1344443 C155.123909,70.900761 148.593788,81.2480145 129.436105,90.8203341" id="Stroke-16" stroke="#151616" stroke-width="0.644506159" stroke-linejoin="round" mask="url(#mask-2)"></path>
                <path d="M157.02179,47.105387 C135.720589,60.7592139 133.979865,80.5991252 108.6111,88.3775953 C96.6192557,92.0543834 55.9199121,92.8889929 38.7215209,89.0164915" id="Stroke-17" stroke="#151616" stroke-width="0.644506159" stroke-linejoin="round" mask="url(#mask-2)"></path>
                <path d="M142.937934,82.0101272 C142.937934,82.0101272 137.22594,86.9093688 132.543464,89.2730116 C127.860988,91.6367487 127.57229,90.8203341 119.371212,95.0757772 C111.170224,99.3312204 96.2590652,109.002622 88.8034403,115.96628 C81.3479062,122.929844 69.4191062,132.214345 69.4191062,132.214345 C69.4191062,132.214345 30.6502564,155.038789 24.6859018,158.907519 C18.7215473,162.776249 1.573937,172.448028 -1.0356044,173.608355 C-3.64514579,174.768682 -3.27232821,175.155677 -3.27232821,175.155677" id="Stroke-18" stroke="#151616" stroke-width="0.644506159" stroke-linejoin="round" mask="url(#mask-2)"></path>
                <path d="M130.927376,58.3241112 C130.927376,58.3241112 124.58984,62.5795544 115.643308,69.5432125 C91.1220132,88.6293074 38.3863121,95.4626786 9.02928938,95.4626786 C0.455393407,95.4626786 -4.01805421,95.8496742 -4.01805421,95.8496742" id="Stroke-19" stroke="#151616" stroke-width="0.644506159" stroke-linejoin="round" mask="url(#mask-2)"></path>
                <path d="M160.346626,91.5012766 C160.346626,91.5012766 152.270274,96.9722913 135.214869,113.829178 C118.159373,130.686065 112.474177,139.957462 102.72805,147.543141 C83.8536147,162.233513 61.2490051,173.756648 41.1133128,189.178494" id="Stroke-20" stroke="#151616" stroke-width="0.644506159" stroke-linejoin="round" mask="url(#mask-2)"></path>
                <polygon id="Stroke-21" stroke="#151616" stroke-width="1.93342754" stroke-linejoin="round" mask="url(#mask-2)" points="68.4944205 151.195714 62.2390974 151.195714 62.2390974 189.738587 68.4944205 189.738587"></polygon>
                <polygon id="Fill-22" fill="#FEFEFE" mask="url(#mask-2)" points="68.4944205 151.192368 62.2390974 151.192368 62.2390974 189.735384 68.4944205 189.735384"></polygon>
                <polygon id="Stroke-23" stroke="#151616" stroke-width="1.93342754" stroke-linejoin="round" mask="url(#mask-2)" points="44.5380747 149.858516 38.2827516 149.858516 38.2827516 190.062515 44.5380747 190.062515"></polygon>
                <polygon id="Fill-24" fill="#FEFEFE" mask="url(#mask-2)" points="44.5380747 149.858959 38.2827516 149.858959 38.2827516 190.063003 44.5380747 190.063003"></polygon>
                <path d="M105.205597,66.4482848 C81.3476337,79.6018927 48.2016615,76.1342048 21.7037245,77.2803905 C12.7569201,77.6673861 -2.52678388,79.2146143 -2.52678388,79.2146143" id="Stroke-25" stroke="#151616" stroke-width="0.644506159" stroke-linejoin="round" mask="url(#mask-2)"></path>
                <path d="M77.6201846,64.9007738 C77.6201846,64.9007738 30.2777114,66.4482848 19.4670007,67.6088945 C8.65638095,68.7695042 -2.52678388,69.9301139 -2.52678388,69.9301139" id="Stroke-26" stroke="#151616" stroke-width="0.644506159" stroke-linejoin="round" mask="url(#mask-2)"></path>
                <path d="M53.3896762,61.8059403 C53.3896762,61.8059403 24.6856293,62.5798372 16.8574593,63.3534513 C9.02928938,64.1271597 -2.52678388,64.9007738 -2.52678388,64.9007738" id="Stroke-27" stroke="#151616" stroke-width="0.644506159" stroke-linejoin="round" mask="url(#mask-2)"></path>
                <path d="M32.5140718,56.003269 C32.5140718,56.003269 16.8574593,56.3898875 13.1298286,56.3898875 C9.4021978,56.3898875 -2.1539663,56.003269 -2.1539663,56.003269" id="Stroke-28" stroke="#151616" stroke-width="0.644506159" stroke-linejoin="round" mask="url(#mask-2)"></path>
                <path d="M74.2803765,140.570739 C75.557457,139.622972 77.268408,140.11236 78.1016162,141.664689 C78.9351402,143.216913 78.5751783,145.243337 77.298203,146.19142 C76.0212278,147.139503 74.3102768,146.649694 73.4769633,145.098102 C72.6434393,143.545773 73.0034012,141.518716 74.2803765,140.570739 Z" id="Stroke-29" stroke="#151616" stroke-width="1.11213007" stroke-linejoin="round" mask="url(#mask-2)"></path>
                <path d="M74.2795429,140.57833 C75.5567883,139.63051 77.2677158,140.119937 78.1009231,141.672123 C78.9344938,143.224309 78.574485,145.250906 77.2975121,146.198908 C76.0205392,147.147001 74.30943,146.657302 73.4761319,145.105661 C72.6425612,143.553202 73.00257,141.526332 74.2795429,140.57833" id="Fill-30" fill="#FEFEFE" mask="url(#mask-2)"></path>
                <path d="M78.8205925,142.459311 C78.9927299,142.880564 79.082852,143.311099 79.082852,143.749439 C79.082852,148.547653 68.4034899,152.438813 55.2297673,152.438813 C42.0552025,152.438813 31.376472,148.547653 31.376472,143.749439 C31.376472,143.311099 31.4665941,142.880564 31.6387315,142.459311 L31.6387315,132.906442 L78.8205925,132.906442 L78.8205925,142.459311 Z" id="Stroke-31" stroke="#151616" stroke-width="1.66814964" stroke-linejoin="round" mask="url(#mask-2)"></path>
                <path d="M78.8199414,142.466872 C78.9919062,142.887953 79.082022,143.318499 79.082022,143.756781 C79.082022,148.555217 68.4027604,152.446148 55.2292366,152.446148 C42.0547136,152.446148 31.3759062,148.555217 31.3759062,143.756781 C31.3759062,143.318499 31.466022,142.887953 31.6380777,142.466872 L31.6380777,132.914138 L78.8199414,132.914138 L78.8199414,142.466872 Z" id="Fill-32" fill="#FEFEFE" mask="url(#mask-2)"></path>
                <path d="M67.0650294,151.295185 C63.5769046,152.022939 59.5368872,152.438813 55.2297673,152.438813 C48.2278285,152.438813 41.931074,151.339483 37.5669961,149.58929 L37.5669961,142.029093 C43.4658869,144.842756 57.1601277,146.513741 67.0650294,143.488397 L67.0650294,151.295185 Z" id="Stroke-33" stroke="#151616" stroke-width="1.66814964" stroke-linejoin="round" mask="url(#mask-2)"></path>
                <path d="M67.0642872,151.302576 C63.5762989,152.030254 59.5363516,152.446148 55.2292366,152.446148 C48.2271883,152.446148 41.9303502,151.346895 37.5663678,149.59659 L37.5663678,142.036599 C43.4653158,144.850301 57.1595487,146.521158 67.0642872,143.49596 L67.0642872,151.302576 Z" id="Fill-34" fill="#FEFEFE" mask="url(#mask-2)"></path>
                <path d="M55.2297673,124.479902 C68.4034899,124.479902 79.082852,128.370113 79.082852,133.169593 C79.082852,137.967808 68.4034899,141.858967 55.2297673,141.858967 C42.0552025,141.858967 31.376472,137.967808 31.376472,133.169593 C31.376472,128.370113 42.0552025,124.479902 55.2297673,124.479902 Z" id="Stroke-35" stroke="#151616" stroke-width="1.66814964" stroke-linejoin="round" mask="url(#mask-2)"></path>
                <path d="M55.2292366,124.487321 C68.4027604,124.487321 79.082022,128.377706 79.082022,133.176961 C79.082022,137.975397 68.4027604,141.866328 55.2292366,141.866328 C42.0547136,141.866328 31.3759062,137.975397 31.3759062,133.176961 C31.3759062,128.377706 42.0547136,124.487321 55.2292366,124.487321" id="Fill-36" fill="#FEFEFE" mask="url(#mask-2)"></path>
                <path d="M45.4424664,129.22728 C45.4875275,129.337919 45.5117425,129.450668 45.5117425,129.565421 C45.5117425,130.822325 42.7141676,131.841496 39.2633128,131.841496 C35.8124581,131.841496 33.015199,130.822325 33.015199,129.565421 C33.015199,129.450668 33.0389929,129.337919 33.0843698,129.22728 L33.0843698,126.72518 L45.4424664,126.72518 L45.4424664,129.22728 Z" id="Stroke-37" stroke="#151616" stroke-width="1.11213007" stroke-linejoin="round" mask="url(#mask-2)"></path>
                <path d="M45.4419575,129.234703 C45.4870154,129.345365 45.5109978,129.458121 45.5109978,129.572878 C45.5109978,130.829752 42.713685,131.848921 39.2628513,131.848921 C35.8117451,131.848921 33.0147048,130.829752 33.0147048,129.572878 C33.0147048,129.458121 33.0384147,129.345365 33.0837451,129.234703 L33.0837451,126.732694 L45.4419575,126.732694 L45.4419575,129.234703 Z" id="Fill-38" fill="#FEFEFE" mask="url(#mask-2)"></path>
                <path d="M39.2633128,124.517556 C42.7141676,124.517556 45.5117425,125.537043 45.5117425,126.793631 C45.5117425,128.051167 42.7141676,129.070338 39.2633128,129.070338 C35.8124581,129.070338 33.015199,128.051167 33.015199,126.793631 C33.015199,125.537043 35.8124581,124.517556 39.2633128,124.517556 Z" id="Stroke-39" stroke="#151616" stroke-width="1.11213007" stroke-linejoin="round" mask="url(#mask-2)"></path>
                <path d="M39.2628513,124.52527 C42.713685,124.52527 45.5109978,125.544438 45.5109978,126.801312 C45.5109978,128.058641 42.713685,129.077901 39.2628513,129.077901 C35.8117451,129.077901 33.0147048,128.058641 33.0147048,126.801312 C33.0147048,125.544438 35.8117451,124.52527 39.2628513,124.52527" id="Fill-40" fill="#FEFEFE" mask="url(#mask-2)"></path>
                <path d="M78.9461949,132.328247 C78.991256,132.43857 79.015471,132.551319 79.015471,132.666072 C79.015471,133.923292 76.2181067,134.942463 72.7672519,134.942463 C69.3161866,134.942463 66.5188222,133.923292 66.5188222,132.666072 C66.5188222,132.551319 66.5424056,132.43857 66.5880983,132.328247 L66.5880983,129.82583 L78.9461949,129.82583 L78.9461949,132.328247 Z" id="Stroke-41" stroke="#151616" stroke-width="1.11213007" stroke-linejoin="round" mask="url(#mask-2)"></path>
                <path d="M78.9455766,132.335708 C78.9906344,132.446188 79.0146168,132.558853 79.0146168,132.673702 C79.0146168,133.930758 76.217304,134.950017 72.7664703,134.950017 C69.3153641,134.950017 66.5183238,133.930758 66.5183238,132.673702 C66.5183238,132.558853 66.5417612,132.446188 66.5873641,132.335708 L66.5873641,129.833426 L78.9455766,129.833426 L78.9455766,132.335708 Z" id="Fill-42" fill="#FEFEFE" mask="url(#mask-2)"></path>
                <path d="M72.7672519,127.618839 C76.2181067,127.618839 79.015471,128.63801 79.015471,129.894914 C79.015471,131.151818 76.2181067,132.170989 72.7672519,132.170989 C69.3161866,132.170989 66.5188222,131.151818 66.5188222,129.894914 C66.5188222,128.63801 69.3161866,127.618839 72.7672519,127.618839 Z" id="Stroke-43" stroke="#151616" stroke-width="1.11213007" stroke-linejoin="round" mask="url(#mask-2)"></path>
                <path d="M72.7664703,127.626275 C76.217304,127.626275 79.0146168,128.645534 79.0146168,129.902317 C79.0146168,131.159374 76.217304,132.178633 72.7664703,132.178633 C69.3153641,132.178633 66.5183238,131.159374 66.5183238,129.902317 C66.5183238,128.645534 69.3153641,127.626275 72.7664703,127.626275" id="Fill-44" fill="#FEFEFE" mask="url(#mask-2)"></path>
                <path d="M56.0033854,137.982785 C56.0484464,138.093741 56.0725562,138.206384 56.0725562,138.321243 C56.0725562,139.57783 53.2749813,140.597001 49.8241265,140.597001 C46.3732718,140.597001 43.5760127,139.57783 43.5760127,138.321243 C43.5760127,138.206384 43.5999119,138.093741 43.6452888,137.982785 L43.6452888,135.481001 L56.0033854,135.481001 L56.0033854,137.982785 Z" id="Stroke-45" stroke="#151616" stroke-width="1.11213007" stroke-linejoin="round" mask="url(#mask-2)"></path>
                <path d="M56.0028513,137.990413 C56.0479092,138.101075 56.0718007,138.213831 56.0718007,138.328588 C56.0718007,139.585371 53.2744879,140.604631 49.8236542,140.604631 C46.372548,140.604631 43.5755985,139.585371 43.5755985,138.328588 C43.5755985,138.213831 43.5992176,138.101075 43.644548,137.990413 L43.644548,135.488404 L56.0028513,135.488404 L56.0028513,137.990413 Z" id="Fill-46" fill="#FEFEFE" mask="url(#mask-2)"></path>
                <path d="M49.8241265,133.273377 C53.2749813,133.273377 56.0725562,134.292548 56.0725562,135.549452 C56.0725562,136.806883 53.2749813,137.82616 49.8241265,137.82616 C46.3732718,137.82616 43.5760127,136.806883 43.5760127,135.549452 C43.5760127,134.292548 46.3732718,133.273377 49.8241265,133.273377 Z" id="Stroke-47" stroke="#151616" stroke-width="1.11213007" stroke-linejoin="round" mask="url(#mask-2)"></path>
                <path d="M49.8236542,133.280889 C53.2744879,133.280889 56.0718007,134.300148 56.0718007,135.557022 C56.0718007,136.814351 53.2744879,137.83352 49.8236542,137.83352 C46.372548,137.83352 43.5755985,136.814351 43.5755985,135.557022 C43.5755985,134.300148 46.372548,133.280889 49.8236542,133.280889" id="Fill-48" fill="#FEFEFE" mask="url(#mask-2)"></path>
                <path d="M71.6171424,127.999381 L71.6171424,117.40382 L38.8415499,117.40382 L38.8415499,127.999381 C38.7222644,128.292169 38.6595159,128.591392 38.6595159,128.895783 C38.6595159,132.228998 46.078164,134.932022 55.2294514,134.932022 C64.3805283,134.932022 71.7991764,132.228998 71.7991764,128.895783 C71.7991764,128.591392 71.7367437,128.292169 71.6171424,127.999381 Z" id="Stroke-49" stroke="#151616" stroke-width="1.66814964" stroke-linejoin="round" mask="url(#mask-2)"></path>
                <path d="M71.6164044,128.007041 L71.6164044,117.411295 L38.8410696,117.411295 L38.8410696,128.007041 C38.7215209,128.299532 38.6590212,128.598849 38.6590212,128.903261 C38.6590212,132.236694 46.0774916,134.939369 55.2289641,134.939369 C64.3799824,134.939369 71.7985436,132.236694 71.7985436,128.903261 C71.7985436,128.598849 71.7362256,128.299532 71.6164044,128.007041" id="Fill-50" fill="#FEFEFE" mask="url(#mask-2)"></path>
                <path d="M55.5100301,112.705698 C68.4348641,112.705698 78.912715,116.002737 78.912715,120.069717 C78.912715,124.137015 68.4348641,127.434053 55.5100301,127.434053 C43.6532903,127.434053 33.8576721,124.658993 32.3186479,121.060833 L29.1894321,121.060833 C28.5693164,121.060833 28.0619585,120.552882 28.0619585,119.93155 L28.0619585,114.947705 C28.0619585,114.326689 28.5693164,113.818422 29.1894321,113.818422 L34.8938655,113.818422 C35.5139813,113.818422 36.0210233,114.326689 36.0210233,114.947705 L36.0210233,115.991979 C40.2155959,114.011329 47.3778804,112.705698 55.5100301,112.705698 Z" id="Stroke-51" stroke="#151616" stroke-width="1.66814964" stroke-linejoin="round" mask="url(#mask-2)"></path>
                <path d="M55.5093949,112.71342 C68.4341919,112.71342 78.9121465,116.010542 78.9121465,120.077386 C78.9121465,124.144504 68.4341919,127.441534 55.5093949,127.441534 C43.6528147,127.441534 33.8569963,124.666601 32.3181245,121.068525 L29.1889641,121.068525 C28.5688733,121.068525 28.0616088,120.56026 28.0616088,119.939058 L28.0616088,114.955426 C28.0616088,114.334224 28.5688733,113.826051 29.1889641,113.826051 L34.8932366,113.826051 C35.5133275,113.826051 36.0205919,114.334224 36.0205919,114.955426 L36.0205919,115.999712 C40.2150623,114.018982 47.3773568,112.71342 55.5093949,112.71342" id="Fill-52" fill="#FEFEFE" mask="url(#mask-2)"></path>
                <path d="M55.4156967,108.558875 C42.4908627,108.558875 32.0130119,111.856019 32.0130119,115.923211 C32.0130119,119.990192 42.4908627,123.287336 55.4156967,123.287336 C67.2724366,123.287336 77.0686865,120.512487 78.6071843,116.914327 L81.7362948,116.914327 C82.3564105,116.914327 82.8640842,116.405743 82.8640842,115.784833 L82.8640842,110.800883 C82.8640842,110.179656 82.3564105,109.671705 81.7362948,109.671705 L76.0321772,109.671705 C75.4123773,109.671705 74.9047036,110.179656 74.9047036,110.800883 L74.9047036,111.845578 C70.710131,109.864823 63.5481624,108.558875 55.4156967,108.558875 Z" id="Stroke-53" stroke="#151616" stroke-width="1.66814964" stroke-linejoin="round" mask="url(#mask-2)"></path>
                <path d="M55.4151912,108.566582 C42.4903941,108.566582 32.0125304,111.863704 32.0125304,115.930821 C32.0125304,119.997666 42.4903941,123.294787 55.4151912,123.294787 C67.2717714,123.294787 77.0678623,120.520036 78.6064615,116.921869 L81.735622,116.921869 C82.3557128,116.921869 82.8632498,116.413422 82.8632498,115.792311 L82.8632498,110.808588 C82.8632498,110.187386 82.3557128,109.679213 81.735622,109.679213 L76.031622,109.679213 C75.4115311,109.679213 74.9039941,110.187386 74.9039941,110.808588 L74.9039941,111.853056 C70.7095238,109.872417 63.5475018,108.566582 55.4151912,108.566582" id="Fill-54" fill="#FEFEFE" mask="url(#mask-2)"></path>
                <path d="M20.2920869,109.711784 C20.2920869,109.711784 18.5682914,109.280617 18.7121077,106.833783 C18.8553976,104.386739 19.286636,102.227843 19.286636,102.227843 L25.176683,89.7067952 L26.9004785,88.1239845 L27.4752174,84.3817505 L33.7965027,83.0863497 L38.250071,81.6472966 L58.2192728,82.6548658 L59.2250395,86.6845096 L72.4423491,89.5632485 L69.5686547,111.582743 L67.8669686,113.962285 L51.8153404,115.15464 L20.2920869,109.711784 Z" id="Stroke-55" stroke="#151616" stroke-width="1.11213007" stroke-linejoin="round" mask="url(#mask-2)"></path>
                <path d="M20.291578,109.719437 C20.291578,109.719437 18.5678418,109.288163 18.7115546,106.841304 C18.8549949,104.394444 19.2860425,102.235526 19.2860425,102.235526 L25.1761788,89.714563 L26.9000059,88.1317079 L27.4746755,84.3895704 L33.7959502,83.0941101 L38.2495941,81.6551344 L58.2186813,82.662472 L59.2244894,86.6921862 L72.4415267,89.5708656 L69.5679971,111.590506 L67.8661538,113.969748 L51.8147399,115.162281 L20.291578,109.719437 Z" id="Fill-56" fill="#FEFEFE" mask="url(#mask-2)"></path>
                <polygon id="Stroke-57" stroke="#151616" stroke-width="1.11213007" stroke-linejoin="round" mask="url(#mask-2)" points="52.9873487 27.574594 60.948835 28.1084907 60.2307009 83.5185718 53.0475704 83.2307401 48.4501858 76.8978099 48.4501858 34.7290417"></polygon>
                <polygon id="Fill-58" fill="#FEFEFE" mask="url(#mask-2)" points="52.9866081 27.5825206 60.9482256 28.1165397 60.2300249 83.5262032 53.0469275 83.2382624 48.4496615 76.9056593 48.4496615 34.7369926"></polygon>
                <path d="M39.1120214,5.94460584 C39.1120214,5.94460584 32.6469197,4.9376695 31.7852852,6.5207966 C30.9234401,8.10350181 26.3259502,19.9052344 26.3259502,19.9052344 C26.3259502,19.9052344 26.1823444,22.4958252 26.1823444,24.5106471 C26.1823444,26.5257854 27.0446107,84.6696877 27.0446107,84.6696877 L36.2386429,84.5258246 L49.0246088,26.6692267 L48.3068959,17.4587177 C48.3068959,17.4587177 39.1120214,6.08910178 39.1120214,5.94460584 Z" id="Stroke-59" stroke="#151616" stroke-width="1.66814964" stroke-linejoin="round" mask="url(#mask-2)"></path>
                <path d="M39.1114168,5.95265608 C39.1114168,5.95265608 32.6464293,4.94559153 31.7846066,6.52871958 C30.922693,8.11166561 26.3254271,19.9131407 26.3254271,19.9131407 C26.3254271,19.9131407 26.1818051,22.5038794 26.1818051,24.5186455 C26.1818051,26.5335937 27.0439004,84.6775111 27.0439004,84.6775111 L36.2381597,84.5335407 L49.0241495,26.677291 L48.3062212,17.4665545 C48.3062212,17.4665545 39.1114168,6.09689947 39.1114168,5.95265608" id="Fill-60" fill="#FEFEFE" mask="url(#mask-2)"></path>
                <path d="M77.534563,0.768486892 C77.534563,0.768486892 74.4797821,0.462619565 70.508725,0.462619565 C66.537352,0.462619565 65.0093825,-0.761060686 63.1769352,4.13492598 C61.3442772,9.03122905 59.5108823,12.7041683 59.5108823,16.682342 C59.5108823,20.6605158 60.1221543,34.7383232 60.1221543,34.7383232 L58.9000314,41.7767522 C58.9000314,41.7767522 53.4012154,46.6730553 54.0124874,54.9364303 C54.6230224,63.1993834 58.2893911,69.0136049 58.2893911,69.0136049 L57.9837551,87.9877154 L68.0537403,89.208126 L67.4538389,114.000571 C67.4538389,114.000571 70.814361,113.38852 74.4797821,112.164207 C78.1457297,110.940211 81.505936,107.879955 81.505936,107.879955 L82.1171027,68.0956865 C82.1171027,68.0956865 84.8660369,56.1601106 84.2553966,51.8760695 C83.6442299,47.5918175 82.727743,38.1047623 82.727743,38.1047623 C82.727743,38.1047623 83.0332737,20.6605158 82.1171027,14.5398996 C81.2006158,8.41928345 79.3673262,5.35923906 78.75637,3.82884771 C78.1457297,2.29898371 77.534563,0.768486892 77.534563,0.768486892 Z" id="Stroke-61" stroke="#151616" stroke-width="1.66814964" stroke-linejoin="round" mask="url(#mask-2)"></path>
                <path d="M77.5339751,0.776548148 C77.5339751,0.776548148 74.4791238,0.47058836 70.5078535,0.47058836 C66.5365832,0.47058836 65.0087941,-0.753159788 63.1761377,4.14301587 C61.3434813,9.03928254 59.5102799,12.7122561 59.5102799,16.6903704 C59.5102799,20.6684847 60.1213773,34.7460021 60.1213773,34.7460021 L58.8994549,41.7847153 C58.8994549,41.7847153 53.4006681,46.680891 54.0117656,54.9440804 C54.6225905,63.2070878 58.2887209,69.0214159 58.2887209,69.0214159 L57.9830359,87.995473 L68.0531077,89.215945 L67.453093,114.008152 C67.453093,114.008152 70.8135385,113.39596 74.4791238,112.171939 C78.1449817,110.947917 81.5051546,107.887592 81.5051546,107.887592 L82.116252,68.1035365 C82.116252,68.1035365 84.8654183,56.1679196 84.2545934,51.8838455 C83.643496,47.5994984 82.7270769,38.1124698 82.7270769,38.1124698 C82.7270769,38.1124698 83.0327619,20.6684847 82.116252,14.5479238 C81.199833,8.42736296 79.3666315,5.36712804 78.7558066,3.83687407 C78.1449817,2.30680212 77.5339751,0.776548148 77.5339751,0.776548148" id="Fill-62" fill="#FEFEFE" mask="url(#mask-2)"></path>
                <path d="M64.1098462,2.3467623 L38.9684157,5.51322743 C38.9684157,5.51322743 38.5374931,9.68694532 38.9684157,12.4216102 C39.3993382,15.1560641 40.5489213,16.3073909 41.2670553,17.170886 C41.9856105,18.0342756 44.140118,18.3222128 44.140118,18.3222128 L59.0811179,17.0267065 C59.0811179,17.0267065 64.2531361,2.20300466 64.1098462,2.3467623 Z" id="Stroke-63" stroke="#151616" stroke-width="1.66814964" stroke-linejoin="round" mask="url(#mask-2)"></path>
                <path d="M64.1090901,2.35485291 L38.9679766,5.52110899 C38.9679766,5.52110899 38.5369289,9.69506667 38.9679766,12.4295026 C39.3988425,15.1639386 40.5482725,16.3152466 41.2664733,17.1787048 C41.9849465,18.042072 44.1394579,18.3300127 44.1394579,18.3300127 L59.080504,17.0347344 C59.080504,17.0347344 64.2525304,2.21088254 64.1090901,2.35485291" id="Fill-64" fill="#FEFEFE" mask="url(#mask-2)"></path>
                <path d="M38.8245993,5.36915338 C38.8245993,5.36915338 35.9515366,8.96731333 34.9457699,12.853094 C33.9403191,16.7388747 33.2216586,19.1856024 33.2216586,21.4883615 C33.2216586,23.7913315 33.652897,32.1386618 33.652897,32.1386618" id="Stroke-65" stroke="#151616" stroke-width="0.667423551" stroke-linejoin="round" mask="url(#mask-2)"></path>
                <path d="M75.090633,0.15685771 C75.090633,0.15685771 71.1193653,1.99248356 70.2027731,5.35923906 C69.2862862,8.72567814 67.7588432,13.6216648 67.7588432,15.1521616 C67.7588432,16.682342 67.4538389,31.6779624 67.4538389,31.6779624 L67.1479923,40.5527556 C67.1479923,40.5527556 63.4825712,48.2034467 63.4825712,53.4059335 C63.4825712,58.6086313 65.3152291,61.0572574 66.2318213,64.4233801 C67.1479923,67.7896082 68.0644792,69.3196832 68.0644792,69.3196832 L67.2838071,113.082442" id="Stroke-66" stroke="#151616" stroke-width="0.667423551" stroke-linejoin="round" mask="url(#mask-2)"></path>
                <polyline id="Stroke-67" stroke="#151616" stroke-width="0.556019565" stroke-linejoin="round" mask="url(#mask-2)" points="82.4647465 32.6738242 67.5356436 31.2244349 59.9705471 31.9075738"></polyline>
                <polyline id="Stroke-68" stroke="#151616" stroke-width="0.556019565" stroke-linejoin="round" mask="url(#mask-2)" points="82.7199521 39.2585149 67.3825624 37.5028364 59.8176764 38.1507478"></polyline>
                <polygon id="Stroke-69" stroke="#151616" stroke-width="1.66814964" stroke-linejoin="round" mask="url(#mask-2)" points="36.6701971 27.6771122 30.9685011 35.0479875 48.0194738 35.1610529 52.9037541 27.5330382"></polygon>
                <polygon id="Fill-70" fill="#FEFEFE" mask="url(#mask-2)" points="36.6694799 27.6849016 30.9677509 35.0558751 48.0187956 35.1688127 52.9032147 27.5410222"></polygon>
                <polygon id="Stroke-71" stroke="#151616" stroke-width="1.66814964" stroke-linejoin="round" mask="url(#mask-2)" points="30.9234401 35.0168734 48.3068959 35.0168734 48.3068959 76.4664315 30.9234401 76.4664315"></polygon>
                <polygon id="Fill-72" fill="#FEFEFE" mask="url(#mask-2)" points="30.922693 35.0248423 48.3062212 35.0248423 48.3062212 76.4741122 30.922693 76.4741122"></polygon>
                <polygon id="Stroke-73" stroke="#151616" stroke-width="1.66814964" stroke-linejoin="round" mask="url(#mask-2)" points="30.7795185 76.1674198 37.2446202 82.7987289 53.2806666 83.2630144 48.4501858 76.4664315"></polygon>
                <polygon id="Fill-74" fill="#FEFEFE" mask="url(#mask-2)" points="30.7790711 76.1751598 37.2439678 82.8064423 53.2799385 83.2707513 48.4496615 76.4741122"></polygon>
                <path d="M51.1796427,115.180903 L67.6579823,113.807453 C67.6579823,113.807453 63.5354231,114.317408 59.9437,114.605345 C56.3519768,114.893282 51.3237749,114.893282 51.3237749,114.893282 L52.12603,111.89304 L58.6168207,97.7662938 C58.6168207,97.7662938 59.7804063,94.3881474 57.4421803,93.6434132 C55.1041649,92.898679 29.9173575,89.7067952 29.9173575,89.7067952 C29.9173575,89.7067952 28.0502721,89.5630376 27.0446107,91.2901333 C26.0385281,93.017018 21.0104315,105.970077 21.0104315,105.970077 L20.7230094,109.711784 L51.1796427,115.180903 Z" id="Stroke-75" stroke="#151616" stroke-width="1.11213007" stroke-linejoin="round" mask="url(#mask-2)"></path>
                <path d="M51.1792059,115.188582 L67.657307,113.814948 C67.657307,113.814948 63.5346022,114.324942 59.9428718,114.612883 C56.3512322,114.900732 51.3231912,114.900732 51.3231912,114.900732 L52.1252396,111.900834 L58.6162081,97.7739915 C58.6162081,97.7739915 59.7796278,94.3958751 57.4415238,93.6511788 C55.1036015,92.9063915 29.916885,89.714563 29.916885,89.714563 C29.916885,89.714563 28.0497084,89.5705926 27.0439004,91.297691 C26.0380923,93.0247894 21.0100513,105.977663 21.0100513,105.977663 L20.7226256,109.719437 L51.1792059,115.188582 Z" id="Fill-76" fill="#FEFEFE" mask="url(#mask-2)"></path>
                <path d="M38.9460835,44.0643069 C44.2810813,44.0643069 48.6054564,49.0898011 48.6054564,55.2892635 C48.6054564,61.4887259 44.2810813,66.5142201 38.9460835,66.5142201 C33.6119033,66.5142201 29.2875282,61.4887259 29.2875282,55.2892635 C29.2875282,49.0898011 33.6119033,44.0643069 38.9460835,44.0643069" id="Fill-77" fill="#151616" mask="url(#mask-2)"></path>
                <path d="M38.9466221,45.8517488 C43.4283009,45.8517488 47.0611897,50.0732453 47.0611897,55.2814276 C47.0611897,60.4895044 43.4283009,64.7116337 38.9466221,64.7116337 C34.4658909,64.7116337 30.8330021,60.4895044 30.8330021,55.2814276 C30.8330021,50.0732453 34.4658909,45.8517488 38.9466221,45.8517488 Z" id="Stroke-78" stroke="#FEFEFE" stroke-width="1.11213007" stroke-linejoin="round" mask="url(#mask-2)"></path>
                <path d="M38.946356,37.0287788 C40.7818286,37.0287788 42.2694652,38.7576974 42.2694652,40.8905884 C42.2694652,43.0233884 40.7818286,44.7523069 38.946356,44.7523069 C37.111156,44.7523069 35.6235194,43.0233884 35.6235194,40.8905884 C35.6235194,38.7576974 37.111156,37.0287788 38.946356,37.0287788" id="Fill-79" fill="#151616" mask="url(#mask-2)"></path>
                <path d="M38.946938,38.6371823 C40.0141898,38.6371823 40.8792987,39.6423257 40.8792987,40.8827759 C40.8792987,42.1225933 40.0141898,43.1283694 38.946938,43.1283694 C37.8800019,43.1283694 37.0148931,42.1225933 37.0148931,40.8827759 C37.0148931,39.6423257 37.8800019,38.6371823 38.946938,38.6371823 Z" id="Stroke-80" stroke="#FEFEFE" stroke-width="1.11213007" stroke-linejoin="round" mask="url(#mask-2)"></path>
                <path d="M38.946356,38.6449418 C40.0134828,38.6449418 40.8786667,39.6502772 40.8786667,40.8905884 C40.8786667,42.1306265 40.0134828,43.1361439 38.946356,43.1361439 C37.8795018,43.1361439 37.0143179,42.1306265 37.0143179,40.8905884 C37.0143179,39.6502772 37.8795018,38.6449418 38.946356,38.6449418" id="Fill-81" fill="#FEFEFE" mask="url(#mask-2)"></path>
                <path d="M32.1828331,92.1975045 L52.2206792,95.2138837 C53.2622421,95.3705089 53.8172931,96.3272408 53.4535409,97.340189 L52.1310835,101.02146 C51.7673314,102.033776 50.6171167,102.733368 49.5758697,102.57706 L29.5377077,99.5603639 C28.4956184,99.4040551 27.9404621,98.4470068 28.3043195,97.4350079 L29.6269875,93.7537364 C29.9907396,92.7407882 31.1406385,92.0408793 32.1828331,92.1975045 Z" id="Stroke-82" stroke="#151616" stroke-width="1.11213007" stroke-linejoin="round" mask="url(#mask-2)"></path>
                <path d="M32.1822242,92.2052868 L52.2200791,95.2216571 C53.2616791,95.3782772 53.8165451,96.3348339 53.4527209,97.3478138 L52.1304176,101.029069 C51.7665934,102.041321 50.6165275,102.741151 49.5752,102.584531 L29.5370725,99.5681608 C28.4949275,99.4115407 27.9400615,98.4548021 28.3038857,97.4424593 L29.6264615,93.7612952 C29.9902857,92.7484974 31.1400791,92.0486667 32.1822242,92.2052868" id="Fill-83" fill="#FEFEFE" mask="url(#mask-2)"></path>
                <path d="M55.7385905,96.0509884 C56.421726,96.0509884 56.7992674,96.6943958 56.5824264,97.4878709 C56.3651311,98.2817101 55.6358476,98.9250265 54.9527121,98.9250265 C54.2697582,98.9250265 53.8923077,98.2817101 54.1093304,97.4878709 C54.3261714,96.6943958 55.056,96.0509884 55.7385905,96.0509884" id="Fill-84" fill="#151616" mask="url(#mask-2)"></path>
                <path d="M54.1932689,100.540916 C54.8764952,100.540916 55.2539458,101.184324 55.0371956,101.977799 C54.8198095,102.771638 54.090526,103.414954 53.4073905,103.414954 C52.7245275,103.414954 52.3469861,102.771638 52.5638271,101.977799 C52.7808498,101.184324 53.5106784,100.540916 54.1932689,100.540916" id="Fill-85" fill="#151616" mask="url(#mask-2)"></path>
                <path d="M28.1450022,92.4270667 C28.6870593,92.4270667 28.960041,93.0276106 28.7552821,93.7677566 C28.5510681,94.5083577 27.9456938,95.1086286 27.4041817,95.1086286 C26.8621245,95.1086286 26.5885978,94.5083577 26.7930842,93.7677566 C26.9978432,93.0276106 27.6034901,92.4270667 28.1450022,92.4270667" id="Fill-86" fill="#151616" mask="url(#mask-2)"></path>
                <path d="M26.7351267,96.6164952 C27.2771839,96.6164952 27.5504381,97.2167661 27.3459516,97.9569122 C27.1412835,98.6975132 26.5358183,99.2977841 25.9943062,99.2977841 C25.4522491,99.2977841 25.1790857,98.6975132 25.3837538,97.9569122 C25.5879678,97.2167661 26.1936147,96.6164952 26.7351267,96.6164952" id="Fill-87" fill="#151616" mask="url(#mask-2)"></path>
                <path d="M79.1470745,98.8649903 C78.943247,98.966032 78.7303652,99.0201389 78.5120086,99.0201389 C77.0179402,99.0201389 75.8071878,96.5245779 75.8071878,93.446076 C75.8071878,90.5286291 76.8947593,88.1347426 78.2800706,87.8928965 L78.2800706,87.7177083 L82.2982944,87.7177083 L82.2982944,98.8649903 L79.1470745,98.8649903 Z" id="Stroke-88" stroke="#151616" stroke-width="1.11213007" stroke-linejoin="round" mask="url(#mask-2)"></path>
                <path d="M79.1461568,98.8726984 C78.9424879,98.9738053 78.7298256,99.0276804 78.5111678,99.0276804 C77.0173538,99.0276804 75.8066051,96.5321333 75.8066051,93.4537884 C75.8066051,90.5364317 76.8939897,88.1425376 78.2794286,87.9005545 L78.2794286,87.7253693 L82.2975736,87.7253693 L82.2975736,98.8726984 L79.1461568,98.8726984 Z" id="Fill-89" fill="#FEFEFE" mask="url(#mask-2)"></path>
                <path d="M82.5301272,87.8725405 C84.0235639,87.8725405 85.2343162,90.3681015 85.2343162,93.446076 C85.2343162,96.5245779 84.0235639,99.0201389 82.5301272,99.0201389 C81.036164,99.0201389 79.8254117,96.5245779 79.8254117,93.446076 C79.8254117,90.3681015 81.036164,87.8725405 82.5301272,87.8725405 Z" id="Stroke-90" stroke="#151616" stroke-width="1.11213007" stroke-linejoin="round" mask="url(#mask-2)"></path>
                <path d="M82.5293128,87.8801693 C84.0228542,87.8801693 85.2336029,90.3757164 85.2336029,93.4537884 C85.2336029,96.5321333 84.0228542,99.0276804 82.5293128,99.0276804 C81.0354989,99.0276804 79.8247502,96.5321333 79.8247502,93.4537884 C79.8247502,90.3757164 81.0354989,87.8801693 82.5293128,87.8801693" id="Fill-91" fill="#FEFEFE" mask="url(#mask-2)"></path>
                <path d="M83.8405823,96.1622834 C83.7372999,96.2139644 83.6289639,96.241176 83.5176799,96.241176 C82.7588014,96.241176 82.1434234,94.9728813 82.1434234,93.4081063 C82.1434234,91.9254935 82.695737,90.7086689 83.400079,90.5851618 L83.400079,90.4963548 L85.4423551,90.4963548 L85.4423551,96.1622834 L83.8405823,96.1622834 Z" id="Stroke-92" stroke="#151616" stroke-width="0.556019565" stroke-linejoin="round" mask="url(#mask-2)"></path>
                <path d="M85.5604824,90.575353 C86.3194662,90.575353 86.9348442,91.8432258 86.9348442,93.4081063 C86.9348442,94.9728813 86.3194662,96.241176 85.5604824,96.241176 C84.8009722,96.241176 84.18591,94.9728813 84.18591,93.4081063 C84.18591,91.8432258 84.8009722,90.575353 85.5604824,90.575353 Z" id="Stroke-93" stroke="#151616" stroke-width="1.11213007" stroke-linejoin="round" mask="url(#mask-2)"></path>
                <path d="M85.5596366,90.5828444 C86.3188073,90.5828444 86.9341744,91.8510942 86.9341744,93.4159302 C86.9341744,94.9804931 86.3188073,96.2489249 85.5596366,96.2489249 C84.8002842,96.2489249 84.1850989,94.9804931 84.1850989,93.4159302 C84.1850989,91.8510942 84.8002842,90.5828444 85.5596366,90.5828444" id="Fill-94" fill="#FEFEFE" mask="url(#mask-2)"></path>
                <polygon id="Stroke-95" stroke="#151616" stroke-width="1.11213007" stroke-linejoin="round" mask="url(#mask-2)" points="59.9344351 33.2808126 60.0872004 34.770281 59.7302917 36.7124331 67.3816149 36.0989054 82.7871225 37.8362318 82.8381847 34.0040306 67.330658 32.6242526"></polygon>
                <polygon id="Fill-96" fill="#151616" mask="url(#mask-2)" points="59.9338784 33.2887344 60.0865846 34.778309 59.7296645 36.7202709 67.3809641 36.1068042 82.7863062 37.8441862 82.8372689 34.0118624 67.3300015 32.6319492"></polygon>
                <path d="M27.321515,100.532999 L30.3253128,101.042174 C30.7378286,101.112066 30.9497641,101.52796 30.7957861,101.966241 L30.2359238,103.560745 C30.0816733,103.999299 29.6181949,104.300345 29.2051341,104.230453 L26.2016088,103.721187 C25.788548,103.651295 25.5766125,103.235401 25.7311355,102.796847 L26.2909978,101.202343 C26.4449758,100.764061 26.9087267,100.463016 27.321515,100.532999 Z M44.8860015,108.958997 L47.8895267,109.468444 C48.3025875,109.538337 48.5145231,109.954231 48.3605451,110.392512 L47.8002286,111.987016 C47.6462505,112.42557 47.1826813,112.726616 46.7696205,112.656633 L43.7658227,112.147185 C43.353307,112.077293 43.1413714,111.661672 43.2953495,111.223117 L43.8554842,109.628614 C44.0094623,109.190332 44.4729407,108.889014 44.8860015,108.958997 Z M46.6918593,103.817107 L49.695748,104.326646 C50.1087179,104.396538 50.3201993,104.812341 50.1666755,105.250713 L49.606359,106.845126 C49.452381,107.28368 48.98863,107.584726 48.5758418,107.514834 L45.572044,107.005386 C45.1589832,106.935494 44.9475927,106.519873 45.1015707,106.081319 L45.6616147,104.486815 C45.8153201,104.048533 46.2790711,103.747215 46.6918593,103.817107 Z M38.3960322,107.858743 L41.3999209,108.367917 C41.8127092,108.437901 42.0245538,108.853704 41.8705758,109.291985 L41.3105319,110.886489 C41.1565538,111.325043 40.6929846,111.626089 40.2800147,111.556197 L37.2763985,111.046931 C36.8634286,110.977039 36.651493,110.561236 36.8054711,110.122681 L37.365515,108.528178 C37.5197656,108.089896 37.9830623,107.788851 38.3960322,107.858743 Z M40.2022535,102.716944 L43.2057788,103.226119 C43.6188396,103.296011 43.8307751,103.711905 43.6767971,104.150186 L43.1166623,105.74469 C42.9626842,106.183244 42.4989333,106.48429 42.0861451,106.414398 L39.0823473,105.905132 C38.669559,105.83524 38.4576234,105.419346 38.6116015,104.980883 L39.1716454,103.386379 C39.325896,102.948006 39.7891927,102.646961 40.2022535,102.716944 Z M31.9066989,106.758216 L34.9104967,107.267754 C35.323285,107.337647 35.534948,107.75345 35.38097,108.191731 L34.8211077,109.786235 C34.6668571,110.224789 34.2033788,110.525835 33.7903179,110.455943 L30.7867927,109.946495 C30.3737319,109.876512 30.1620689,109.460982 30.3163194,109.022428 L30.8760908,107.427924 C31.0300689,106.989642 31.4936381,106.688324 31.9066989,106.758216 Z M33.7128293,101.616417 L36.7163546,102.125865 C37.1294154,102.195848 37.3410784,102.611651 37.1871004,103.049932 L36.6269656,104.644436 C36.4729875,105.08299 36.0092366,105.384036 35.5964484,105.314144 L32.5926505,104.804605 C32.1798623,104.734713 31.9681993,104.319183 32.1221773,103.880629 L32.6823121,102.286125 C32.8362901,101.847843 33.2997685,101.546525 33.7128293,101.616417 Z M25.5155663,105.674798 L28.5191824,106.183699 C28.9322432,106.253865 29.1436337,106.669759 28.9899282,107.10804 L28.4297934,108.702544 C28.2758154,109.141098 27.8120645,109.442144 27.3992762,109.372252 L24.3954784,108.862986 C23.9824176,108.793094 23.7710271,108.3772 23.9250051,107.938463 L24.4850491,106.344233 C24.6388454,105.905951 25.1025963,105.604906 25.5155663,105.674798 Z" id="Fill-97" fill="#151616" mask="url(#mask-2)"></path>
                <path d="M81.6948133,109.514447 C82.6649944,109.514447 83.4511412,111.135227 83.4511412,113.134439 C83.4511412,115.133335 82.6649944,116.753799 81.6948133,116.753799 C80.7248428,116.753799 79.9388013,115.133335 79.9388013,113.134439 C79.9388013,111.135227 80.7248428,109.514447 81.6948133,109.514447 Z" id="Stroke-98" stroke="#151616" stroke-width="1.11213007" stroke-linejoin="round" mask="url(#mask-2)"></path>
                <path d="M81.6941978,109.522138 C82.6642139,109.522138 83.4503648,111.142942 83.4503648,113.141873 C83.4503648,115.140895 82.6642139,116.761426 81.6941978,116.761426 C80.7241817,116.761426 79.9380308,115.140895 79.9380308,113.141873 C79.9380308,111.142942 80.7241817,109.522138 81.6941978,109.522138" id="Fill-99" fill="#FEFEFE" mask="url(#mask-2)"></path>
                <path d="M58.3251873,93.690348 C58.3251873,93.690348 60.5098057,94.9669749 60.3277717,97.5207562 C60.1457377,100.074326 59.7813539,102.080711 59.7813539,102.080711 L55.2294514,112.478512 L54.3189657,114.849933" id="Stroke-100" stroke="#151616" stroke-width="0.556019565" stroke-linejoin="round" mask="url(#mask-2)"></path>
                <path d="M76.2629571,123.191568 C76.1461985,123.249894 76.0244916,123.280375 75.8987839,123.280375 C75.0437822,123.280375 74.3504948,121.851869 74.3504948,120.089757 C74.3504948,118.419405 74.973348,117.048592 75.7663381,116.909897 L75.7663381,116.809699 L78.0669781,116.809699 L78.0669781,123.191568 L76.2629571,123.191568 Z" id="Stroke-101" stroke="#151616" stroke-width="1.11213007" stroke-linejoin="round" mask="url(#mask-2)"></path>
                <path d="M76.2620894,123.199323 C76.1454476,123.257293 76.0236278,123.288053 75.8982652,123.288053 C75.043074,123.288053 74.3498549,121.859452 74.3498549,120.097225 C74.3498549,118.426914 74.9724894,117.056284 75.7656352,116.917501 L75.7656352,116.817213 L78.0662212,116.817213 L78.0662212,123.199323 L76.2620894,123.199323 Z" id="Fill-102" fill="#FEFEFE" mask="url(#mask-2)"></path>
                <path d="M78.1995292,116.89819 C79.0548468,116.89819 79.7478183,118.327328 79.7478183,120.089757 C79.7478183,121.851869 79.0548468,123.280375 78.1995292,123.280375 C77.3444222,123.280375 76.6509243,121.851869 76.6509243,120.089757 C76.6509243,118.327328 77.3444222,116.89819 78.1995292,116.89819 Z" id="Stroke-103" stroke="#151616" stroke-width="1.11213007" stroke-linejoin="round" mask="url(#mask-2)"></path>
                <path d="M78.1988513,116.905943 C79.0539516,116.905943 79.7471707,118.334817 79.7471707,120.097225 C79.7471707,121.859452 79.0539516,123.288053 78.1988513,123.288053 C77.3436601,123.288053 76.6501685,121.859452 76.6501685,120.097225 C76.6501685,118.334817 77.3436601,116.905943 78.1988513,116.905943" id="Fill-104" fill="#FEFEFE" mask="url(#mask-2)"></path>
                <path d="M78.9497745,121.644723 C78.890395,121.673728 78.828594,121.689865 78.765319,121.689865 C78.3301852,121.689865 77.9780142,120.963377 77.9780142,120.067608 C77.9780142,119.218879 78.2947049,118.521923 78.697938,118.451679 L78.697938,118.400526 L79.8668931,118.400526 L79.8668931,121.644723 L78.9497745,121.644723 Z" id="Stroke-105" stroke="#151616" stroke-width="0.556019565" stroke-linejoin="round" mask="url(#mask-2)"></path>
                <path d="M79.9342741,118.445984 C80.3691974,118.445984 80.7212631,119.171944 80.7212631,120.067608 C80.7212631,120.963377 80.3691974,121.689865 79.9342741,121.689865 C79.4997719,121.689865 79.1472851,120.963377 79.1472851,120.067608 C79.1472851,119.171944 79.4997719,118.445984 79.9342741,118.445984 Z" id="Stroke-106" stroke="#151616" stroke-width="1.11213007" stroke-linejoin="round" mask="url(#mask-2)"></path>
                <path d="M79.9336703,118.453488 C80.3683516,118.453488 80.720548,119.179346 80.720548,120.075293 C80.720548,120.970967 80.3683516,121.697371 79.9336703,121.697371 C79.498989,121.697371 79.1467018,120.970967 79.1467018,120.075293 C79.1467018,119.179346 79.498989,118.453488 79.9336703,118.453488" id="Fill-107" fill="#FEFEFE" mask="url(#mask-2)"></path>
                <path d="M45.6698773,118.680658 C47.2285893,118.680658 48.4925095,120.191748 48.4925095,122.055218 C48.4925095,123.919005 47.2285893,125.429779 45.6698773,125.429779 C44.1111652,125.429779 42.8475609,123.919005 42.8475609,122.055218 C42.8475609,120.191748 44.1111652,118.680658 45.6698773,118.680658 Z" id="Stroke-108" stroke="#151616" stroke-width="1.11213007" stroke-linejoin="round" mask="url(#mask-2)"></path>
                <path d="M45.6693363,118.68819 C47.2280117,118.68819 48.4919033,120.199151 48.4919033,122.062667 C48.4919033,123.926546 47.2280117,125.437416 45.6693363,125.437416 C44.1106608,125.437416 42.8470418,123.926546 42.8470418,122.062667 C42.8470418,120.199151 44.1106608,118.68819 45.6693363,118.68819" id="Fill-109" fill="#FEFEFE" mask="url(#mask-2)"></path>
                <path d="M45.5039516,120.204826 C46.3586374,120.204826 47.0517142,121.032989 47.0517142,122.055218 C47.0517142,123.077132 46.3586374,123.906137 45.5039516,123.906137 C44.6494763,123.906137 43.9565048,123.077132 43.9565048,122.055218 C43.9565048,121.032989 44.6494763,120.204826 45.5039516,120.204826 Z" id="Stroke-110" stroke="#151616" stroke-width="1.11213007" stroke-linejoin="round" mask="url(#mask-2)"></path>
                <path d="M45.5035487,120.212256 C46.3581949,120.212256 47.0511414,121.040586 47.0511414,122.062667 C47.0511414,123.084747 46.3581949,123.913623 45.5035487,123.913623 C44.6488117,123.913623 43.9558652,123.084747 43.9558652,122.062667 C43.9558652,121.040586 44.6488117,120.212256 45.5035487,120.212256" id="Fill-111" fill="#FEFEFE" mask="url(#mask-2)"></path>
                <polygon id="Stroke-112" stroke="#151616" stroke-width="1.11213007" stroke-linejoin="round" mask="url(#mask-2)" points="37.8399945 83.9906622 37.2249323 86.3589191 56.4128303 87.9440502 56.5948642 84.8427664"></polygon>
                <polygon id="Fill-113" fill="#FEFEFE" mask="url(#mask-2)" points="37.839622 83.9985206 37.2244366 86.3666603 56.4122784 87.9516085 56.5943267 84.8506032"></polygon>
                <path d="M71.8217084,172.268921 C71.8217084,172.268921 78.0770315,189.60197 78.3432908,189.735384 C78.6095502,189.868707 86.5950593,189.735384 86.5950593,189.735384 L79.2749714,169.735606 L71.8217084,172.268921 Z" id="Stroke-114" stroke="#151616" stroke-width="1.93342754" stroke-linejoin="round" mask="url(#mask-2)"></path>
                <path d="M71.8217084,172.268921 C71.8217084,172.268921 78.0770315,189.60197 78.3432908,189.735384 C78.6095502,189.868707 86.5950593,189.735384 86.5950593,189.735384 L79.2749714,169.735606 L71.8217084,172.268921 Z" id="Fill-115" fill="#FEFEFE" mask="url(#mask-2)"></path>
                <polygon id="Stroke-116" stroke="#151616" stroke-width="1.93342754" stroke-linejoin="round" mask="url(#mask-2)" points="84.9980484 167.335797 93.9152381 189.868707 102.033832 189.868707 92.4510388 164.535746"></polygon>
                <polygon id="Fill-117" fill="#FEFEFE" mask="url(#mask-2)" points="84.9980484 167.335797 93.9152381 189.868707 102.033832 189.868707 92.4510388 164.535746"></polygon>
                <polygon id="Stroke-118" stroke="#151616" stroke-width="1.93342754" stroke-linejoin="round" mask="url(#mask-2)" points="78.9419429 140.069611 66.1650374 143.002984 73.6183004 152.069477 85.5964278 148.336167"></polygon>
                <polygon id="Fill-119" fill="#FEFEFE" mask="url(#mask-2)" points="78.9419429 140.069611 66.1650374 143.002984 73.6183004 152.069477 85.5964278 148.336167"></polygon>
                <polygon id="Stroke-120" stroke="#151616" stroke-width="1.93342754" stroke-linejoin="round" mask="url(#mask-2)" points="73.4189919 151.869357 79.5412308 169.33582 92.7172982 164.402423 86.5950593 148.002906"></polygon>
                <polygon id="Fill-121" fill="#FEFEFE" mask="url(#mask-2)" points="73.4189919 151.869357 79.5412308 169.33582 92.7172982 164.402423 86.5950593 148.002906"></polygon>
                <path d="M73.0195575,151.469479 L66.2319883,143.336246 L65.8325538,154.802639 L73.2858168,151.869357 C73.2858168,151.869357 69.8254447,153.602825 67.9621744,154.269439 C66.0988132,154.936053 64.9009641,155.469253 64.9009641,155.469253 L71.2893714,172.268921 L79.5412308,169.33582 L73.0195575,151.469479 Z" id="Stroke-122" stroke="#151616" stroke-width="1.93342754" stroke-linejoin="round" mask="url(#mask-2)"></path>
                <path d="M73.0195575,151.469479 L66.2319883,143.336246 L65.8325538,154.802639 L73.2858168,151.869357 C73.2858168,151.869357 69.8254447,153.602825 67.9621744,154.269439 C66.0988132,154.936053 64.9009641,155.469253 64.9009641,155.469253 L71.2893714,172.268921 L79.5412308,169.33582 L73.0195575,151.469479 Z" id="Fill-123" fill="#FEFEFE" mask="url(#mask-2)"></path>
                <polygon id="Stroke-124" stroke="#151616" stroke-width="1.93342754" stroke-linejoin="round" mask="url(#mask-2)" points="13.3942711 163.796692 2.61381099 189.929589 10.7324044 189.929589 20.0490286 167.129943"></polygon>
                <polygon id="Fill-125" fill="#FEFEFE" mask="url(#mask-2)" points="13.3942711 163.796692 2.61381099 189.929589 10.7324044 189.929589 20.0490286 167.129943"></polygon>
                <polygon id="Stroke-126" stroke="#151616" stroke-width="1.93342754" stroke-linejoin="round" mask="url(#mask-2)" points="24.1747311 169.530025 16.0561377 190.063003 24.5741656 190.063003 31.7608967 172.196662"></polygon>
                <polygon id="Fill-127" fill="#FEFEFE" mask="url(#mask-2)" points="24.1747311 169.530025 16.0561377 190.063003 24.5741656 190.063003 31.7608967 172.196662"></polygon>
                <polygon id="Stroke-128" stroke="#151616" stroke-width="1.93342754" stroke-linejoin="round" mask="url(#mask-2)" points="37.4839736 145.130415 29.8978081 152.330298 38.2824791 154.996935 39.480419 151.130212 37.750233 150.597012"></polygon>
                <polygon id="Fill-129" fill="#FEFEFE" mask="url(#mask-2)" points="37.4839736 145.130415 29.8978081 152.330298 38.2824791 154.996935 39.480419 151.130212 37.750233 150.597012"></polygon>
                <polygon id="Stroke-130" stroke="#151616" stroke-width="1.93342754" stroke-linejoin="round" mask="url(#mask-2)" points="28.5667839 140.463754 20.1818403 148.330525 29.7647238 152.463712 37.4839736 144.863678 37.750233 142.730514"></polygon>
                <polygon id="Fill-131" fill="#FEFEFE" mask="url(#mask-2)" points="28.5667839 140.463754 20.1818403 148.330525 29.7647238 152.463712 37.4839736 144.863678 37.750233 142.730514"></polygon>
                <path d="M18.9842637,148.330525 L12.8620249,163.530229 L24.4410813,169.396703 L32.4265905,172.329985 L38.8149978,155.396995 L30.8294886,152.996912 C30.8294886,152.996912 18.7180044,148.330525 18.9842637,148.330525 Z" id="Stroke-132" stroke="#151616" stroke-width="1.93342754" stroke-linejoin="round" mask="url(#mask-2)"></path>
                <path d="M18.9842637,148.330525 L12.8620249,163.530229 L24.4410813,169.396703 L32.4265905,172.329985 L38.8149978,155.396995 L30.8294886,152.996912 C30.8294886,152.996912 18.7180044,148.330525 18.9842637,148.330525" id="Fill-133" fill="#FEFEFE" mask="url(#mask-2)"></path>
                <path d="M30.6964044,152.996912 L24.4410813,169.129966" id="Stroke-134" stroke="#151616" stroke-width="1.28892138" stroke-linejoin="round" mask="url(#mask-2)"></path>
                <path d="M42.2739801,63.3782631 C41.6809221,63.3782631 42.034567,64.6371708 41.4777262,64.4973156 C37.8269394,63.5772878 35.0916919,59.8006701 35.0916919,55.2814276 C35.0916919,51.3014608 37.2135617,47.8973684 40.2134902,46.5136879 C40.5483948,46.3593831 40.8942489,46.2299696 41.2488414,46.1279787" id="Stroke-135" stroke="#FEFEFE" stroke-width="0.556019565" stroke-linejoin="round" mask="url(#mask-2)"></path>
            </g>
        </g>
    </g>
</svg>