<?xml version="1.0" encoding="UTF-8"?>
<svg width="250px" height="180px" viewBox="0 0 250 180" version="1.1" xmlns="http://www.w3.org/2000/svg" xmlns:xlink="http://www.w3.org/1999/xlink">
    <!-- Generator: Sketch 51.2 (57519) - http://www.bohemiancoding.com/sketch -->
    <title>Artboard</title>
    <desc>Created with Sketch.</desc>
    <defs>
        <polyline id="path-1" points="0.870534307 178.74413 247.677962 178.74413 247.677962 0.125572589 0.870534307 0.125572589"></polyline>
    </defs>
    <g id="Artboard" stroke="none" stroke-width="1" fill="none" fill-rule="evenodd">
        <g id="3-2">
            <path d="M122.64133,23.3297129 C122.64133,23.3297129 127.23044,22.5701911 128.440905,22.4689239 C129.651097,22.3677254 131.113835,22.165294 132.424833,22.4689239 C133.736173,22.7726569 135.249127,23.177726 135.702944,23.4813559 C136.156865,23.785089 136.409035,24.1901925 135.350002,24.6965633 C134.2909,25.2027277 130.912188,27.0759489 130.912188,27.0759489 L124.204567,25.5066671 C124.204567,25.5066671 123.902011,25.253413 123.548965,24.7470422 C123.195954,24.2409809 122.64133,23.3801918 122.64133,23.3297129 Z" id="Stroke-2470" stroke="#151616" stroke-width="3.39357437" stroke-linejoin="round"></path>
            <mask id="mask-2" fill="white">
                <use xlink:href="#path-1"></use>
            </mask>
            <g id="Clip-2473"></g>
            <path d="M122.645685,23.3157041 C122.645685,23.3157041 127.234861,22.5560898 128.445355,22.4548685 C129.655577,22.3536472 131.118324,22.1512046 132.429375,22.4548685 C133.740698,22.7585325 135.253588,23.1636904 135.707501,23.4673543 C136.161323,23.7710183 136.413577,24.1761761 135.354508,24.6825553 C134.295349,25.1886619 130.916666,27.0618924 130.916666,27.0618924 L124.20899,25.4925985 C124.20899,25.4925985 123.906502,25.2393635 123.553419,24.7330751 C123.200426,24.2268777 122.645685,23.366133 122.645685,23.3157041" id="Fill-2472" fill="#676766" mask="url(#mask-2)"></path>
            <polyline id="Stroke-2474" stroke="#151616" stroke-width="1.14608231" stroke-linejoin="round" mask="url(#mask-2)" points="128.8194 28.1479722 134.215646 25.5151261 134.618975 25.0090648"></polyline>
            <path d="M123.070314,26.578381 C123.070314,26.578381 125.54146,25.6670786 126.852527,25.5658113 C128.163799,25.4646472 128.8194,25.4138588 128.668036,25.1102289 C128.516844,24.806599 126.398709,24.198961 126.398709,24.198961" id="Stroke-2475" stroke="#151616" stroke-width="1.14608231" stroke-linejoin="round" mask="url(#mask-2)"></path>
            <polygon id="Fill-2476" fill="#C9E6F6" mask="url(#mask-2)" points="215.820914 111.663562 155.676026 57.2525594 130.149766 44.6151594 119.309542 47.774464 77.3483942 107.100061"></polygon>
            <polygon id="Stroke-2477" stroke="#151616" stroke-width="0.51368917" mask="url(#mask-2)" points="215.820914 111.663562 155.676026 57.2525594 130.149766 44.6151594 119.309542 47.774464 77.3483942 107.100061"></polygon>
            <polygon id="Fill-2478" fill="#9BD4ED" mask="url(#mask-2)" points="151.829582 57.9547482 200.784601 110.961464 215.820914 111.312468 156.025761 57.6036538"></polygon>
            <polygon id="Fill-2479" fill="#92BF58" mask="url(#mask-2)" points="4.96479708 88.4951467 -8.32275328 93.0583746 -6.2248 184.328385 272.818193 189.944805 266.873796 128.513368 252.886505 124.300962 249.73953 120.790381 244.843974 121.843483 241.696908 118.333175 235.053133 118.333175 234.00402 113.769674 225.26202 112.365387 224.562642 108.153163 216.869755 111.663562 212.673577 108.503985 208.827133 110.259275 202.183358 108.153163 180.853185 106.046869 96.5806131 90.6012589 81.5443007 82.176265"></polygon>
            <path d="M77.1664672,106.484738 L40.9218102,143.298405 L200.39821,150.575618 L215.322651,111.193528 C215.322651,111.193528 77.1664672,106.912793 77.1664672,106.484738" id="Fill-2480" fill="#ADCF7C" mask="url(#mask-2)"></path>
            <path d="M269.571565,156.394208 L266.873796,128.513368 L252.886505,124.300962 L249.73953,120.790381 L244.843974,121.843483 L241.696908,118.333175 L235.053133,118.333175 L234.00402,113.769674 L225.26202,112.365387 L224.562642,108.153163 L216.869755,111.663562 L212.673577,108.503985 L208.827133,110.259275 L202.183358,108.153163 L182.126493,106.172532 L181.552292,106.748967 C183.300873,106.748967 189.24518,113.769674 193.791092,113.41858 C198.336914,113.067485 202.882736,113.769674 202.882736,113.769674 C202.882736,113.769674 202.53282,119.035273 204.980689,119.737371 C207.428558,120.439559 211.624736,121.843483 211.624736,121.843483 L242.046642,138.342285 C242.046642,138.342285 239.598955,140.097394 243.095664,141.852684 C246.592464,143.607975 252.536861,147.118283 252.536861,147.118283 C252.536861,147.118283 255.684108,152.032605 259.180908,153.436892 C261.252885,154.269015 266.025799,155.717097 269.571565,156.394208 Z" id="Stroke-2481" stroke="#151616" stroke-width="1.28426823" mask="url(#mask-2)"></path>
            <path d="M269.571565,156.394208 L266.873796,128.513368 L252.886505,124.300962 L249.73953,120.790381 L244.843974,121.843483 L241.696908,118.333175 L235.053133,118.333175 L234.00402,113.769674 L225.26202,112.365387 L224.562642,108.153163 L216.869755,111.663562 L212.673577,108.503985 L208.827133,110.259275 L202.183358,108.153163 L182.126493,106.172532 L181.552292,106.748967 C183.300873,106.748967 189.24518,113.769674 193.791092,113.41858 C198.336914,113.067485 202.882736,113.769674 202.882736,113.769674 C202.882736,113.769674 202.53282,119.035273 204.980689,119.737371 C207.428558,120.439559 211.624736,121.843483 211.624736,121.843483 L242.046642,138.342285 C242.046642,138.342285 239.598955,140.097394 243.095664,141.852684 C246.592464,143.607975 252.536861,147.118283 252.536861,147.118283 C252.536861,147.118283 255.684108,152.032605 259.180908,153.436892 C261.252885,154.269015 266.025799,155.717097 269.571565,156.394208" id="Fill-2482" fill="#899F72" mask="url(#mask-2)"></path>
            <path d="M186.731419,110.296892 C188.978896,111.979311 191.554295,113.591401 193.791092,113.41858 C198.336914,113.067485 202.882736,113.769674 202.882736,113.769674 C202.882736,113.769674 202.53282,119.035273 204.980689,119.737371 C207.035559,120.326708 210.322374,121.410793 211.324601,121.743624 L215.322651,111.193528 C215.322651,111.193528 203.476488,110.826442 186.731419,110.296892 Z" id="Stroke-2483" stroke="#151616" stroke-width="1.28426823" mask="url(#mask-2)"></path>
            <path d="M186.731419,110.296892 C188.978896,111.979311 191.554295,113.591401 193.791092,113.41858 C198.336914,113.067485 202.882736,113.769674 202.882736,113.769674 C202.882736,113.769674 202.53282,119.035273 204.980689,119.737371 C207.035559,120.326708 210.322374,121.410793 211.324601,121.743624 L215.322651,111.193528 C215.322651,111.193528 203.476488,110.826442 186.731419,110.296892" id="Fill-2484" fill="#AAB896" mask="url(#mask-2)"></path>
            <path d="M81.3305139,94.7678701 C81.3305139,94.7678701 80.4951883,92.1482005 76.2153781,91.833633 C71.9355679,91.5191563 37.3830131,92.7768812 37.3830131,92.7768812 C37.3830131,92.7768812 23.4994482,93.5104178 22.4554949,95.8158832 C21.4115416,98.1213487 22.1424175,100.007482 26.0047912,100.217103 C29.867165,100.426814 50.2228964,100.007482 50.2228964,100.007482 C50.2228964,100.007482 53.2501255,103.465544 57.9475533,105.456805 C62.6450715,107.447976 65.3590423,106.399962 67.8643854,104.199353 C70.3697285,101.998743 72.875162,99.6932777 72.875162,99.6932777 C72.875162,99.6932777 81.435235,100.007482 82.3745577,99.378801 C83.3137898,98.7500294 83.0005314,97.1781005 82.6875445,96.444564 C82.3745577,95.7110274 81.3305139,94.7678701 81.3305139,94.7678701 Z" id="Stroke-2485" stroke="#151616" stroke-width="1.28426823" stroke-linejoin="round" mask="url(#mask-2)"></path>
            <path d="M81.3305139,94.7678701 C81.3305139,94.7678701 80.4951883,92.1482005 76.2153781,91.833633 C71.9355679,91.5191563 37.3830131,92.7768812 37.3830131,92.7768812 C37.3830131,92.7768812 23.4994482,93.5104178 22.4554949,95.8158832 C21.4115416,98.1213487 22.1424175,100.007482 26.0047912,100.217103 C29.867165,100.426814 50.2228964,100.007482 50.2228964,100.007482 C50.2228964,100.007482 53.2501255,103.465544 57.9475533,105.456805 C62.6450715,107.447976 65.3590423,106.399962 67.8643854,104.199353 C70.3697285,101.998743 72.875162,99.6932777 72.875162,99.6932777 C72.875162,99.6932777 81.435235,100.007482 82.3745577,99.378801 C83.3137898,98.7500294 83.0005314,97.1781005 82.6875445,96.444564 C82.3745577,95.7110274 81.3305139,94.7678701 81.3305139,94.7678701" id="Fill-2486" fill="#6BA6D1" mask="url(#mask-2)"></path>
            <polygon id="Stroke-2487" stroke="#151616" stroke-width="1.28426823" stroke-linejoin="round" mask="url(#mask-2)" points="9.79418978 131.740638 20.8806949 129.600361 27.7033197 136.449428 15.3372613 139.017942"></polygon>
            <polygon id="Fill-2488" fill="#899F72" mask="url(#mask-2)" points="9.79418978 131.740638 20.8806949 129.600361 27.7033197 136.449428 15.3372613 139.017942"></polygon>
            <polygon id="Stroke-2489" stroke="#151616" stroke-width="1.28426823" stroke-linejoin="round" mask="url(#mask-2)" points="5.10364088 145.438681 22.5862832 144.154515 27.7033197 152.715985 7.66211387 155.712463"></polygon>
            <polygon id="Fill-2490" fill="#CAE8BA" mask="url(#mask-2)" points="5.10364088 145.438681 22.5862832 144.154515 27.7033197 152.715985 7.66211387 155.712463"></polygon>
            <path d="M208.772736,110.063284 C210.904812,109.635228 209.779308,108.625105 212.764178,108.625105 C215.749048,108.625105 215.748777,112.905749 217.880853,111.193528 C220.012928,109.481216 225.129874,107.768904 225.129874,107.768904 L225.556272,112.477694 L234.084575,113.761951 L234.937369,118.470741 L241.759723,118.470741 L244.744683,121.895275 L249.435232,120.611109 L252.846499,124.03537 L266.873796,129.215284" id="Stroke-2491" stroke="#151616" stroke-width="0.642179422" stroke-linejoin="round" mask="url(#mask-2)"></path>
            <path d="M99.3397489,95.7831726 C99.3397489,95.7831726 91.2378423,100.49169 94.2227124,104.772425 C97.207673,109.05316 103.177413,108.196959 104.030298,110.765382 C104.883092,113.333895 98.9132613,114.190006 101.471825,116.330374 C104.030298,118.470741 109.147244,119.75518 104.883092,122.32333 C100.61894,124.891571 87.4001781,128.316105 92.5171241,132.59684 C97.6340701,136.877575 107.867691,137.30563 107.867691,137.30563 C107.867691,137.30563 104.456695,139.874053 101.898222,140.302108 C99.3397489,140.730163 95.5019942,140.729891 97.207673,143.72646 C98.9132613,146.722938 104.456695,151.859784 100.61894,153.144041 C96.7812759,154.428207 91.6642394,152.287839 92.5171241,154.856262 C93.3699182,157.424685 98.0604672,158.280614 95.5019942,160.420981 C92.9435212,162.561349 87.8265752,162.561349 88.2529723,165.557827 C88.6793693,168.554305 94.6492,171.978929 91.6642394,173.263095 C88.6793693,174.547352 78.4457489,171.978929 77.5928642,175.403463 C76.7400701,178.828087 87.4001781,177.971886 95.5019942,176.259664 C103.60381,174.547352 111.279048,176.259392 111.279048,179.683925 C111.279048,183.10855 110.852651,185.248917 110.852651,185.248917" id="Stroke-2492" stroke="#151616" stroke-width="0.642179422" stroke-linejoin="round" mask="url(#mask-2)"></path>
            <path d="M120.233749,127.031848 C120.233749,127.031848 114.690044,124.891571 109.573369,125.319626 C104.456695,125.747682 99.3397489,126.603792 98.9132613,128.74416 C98.4868642,130.884527 98.9135328,131.740638 103.60381,132.59684 C108.294178,133.45295 112.558239,133.45295 113.837521,136.021373 C115.116712,138.589796 115.116712,142.014148 111.279048,144.582571 C107.441293,147.150993 105.309489,149.291361 105.309489,153.144041 C105.309489,156.996629 102.751016,156.996357 101.045337,160.420981 C99.3397489,163.845515 95.9286628,166.842084 101.045337,168.554305 C106.162102,170.266617 114.263918,170.694673 118.101673,168.554305 C121.939337,166.413938 123.644745,165.557827 126.629705,166.413938 C129.614575,167.270139 133.878727,171.122546 135.157918,164.273661 C136.4372,157.424685 136.010803,155.712463 135.157918,151.003673 C134.305124,146.294883 131.320254,146.29461 132.599445,142.870258 C133.878727,139.445997 139.42207,139.874053 133.025842,136.877575 C126.629705,133.881006 122.792222,135.593318 120.660146,133.881006 C118.52807,132.168784 114.690315,130.884527 116.822391,130.456472 C118.954467,130.028417 118.954467,126.603792 120.233749,127.031848 Z" id="Stroke-2493" stroke="#151616" stroke-width="1.28426823" stroke-linejoin="round" mask="url(#mask-2)"></path>
            <path d="M120.233749,127.031848 C120.233749,127.031848 114.690044,124.891571 109.573369,125.319626 C104.456695,125.747682 99.3397489,126.603792 98.9132613,128.74416 C98.4868642,130.884527 98.9135328,131.740638 103.60381,132.59684 C108.294178,133.45295 112.558239,133.45295 113.837521,136.021373 C115.116712,138.589796 115.116712,142.014148 111.279048,144.582571 C107.441293,147.150993 105.309489,149.291361 105.309489,153.144041 C105.309489,156.996629 102.751016,156.996357 101.045337,160.420981 C99.3397489,163.845515 95.9286628,166.842084 101.045337,168.554305 C106.162102,170.266617 114.263918,170.694673 118.101673,168.554305 C121.939337,166.413938 123.644745,165.557827 126.629705,166.413938 C129.614575,167.270139 133.878727,171.122546 135.157918,164.273661 C136.4372,157.424685 136.010803,155.712463 135.157918,151.003673 C134.305124,146.294883 131.320254,146.29461 132.599445,142.870258 C133.878727,139.445997 139.42207,139.874053 133.025842,136.877575 C126.629705,133.881006 122.792222,135.593318 120.660146,133.881006 C118.52807,132.168784 114.690315,130.884527 116.822391,130.456472 C118.954467,130.028417 118.954467,126.603792 120.233749,127.031848" id="Fill-2494" fill="#BBE4AE" mask="url(#mask-2)"></path>
            <path d="M120.233749,127.031848 C120.233749,127.031848 114.690044,124.891571 109.573369,125.319626 C104.456695,125.747682 99.3397489,126.603792 98.9132613,128.74416 C98.4868642,130.884527 98.9135328,131.740638 103.60381,132.59684 C108.294178,133.45295 112.558239,133.45295 113.837521,136.021373 C115.116712,138.589796 115.116712,142.014148 111.279048,144.582571 C110.353574,145.201983 109.52748,145.796499 108.80647,146.396104 L133.814555,147.537343 C132.777752,145.906444 131.751267,145.141014 132.599445,142.870258 C133.878727,139.445997 139.42207,139.874053 133.025842,136.877575 C126.629705,133.881006 122.792222,135.593318 120.660146,133.881006 C118.52807,132.168784 114.690315,130.884527 116.822391,130.456472 C118.954467,130.028417 118.954467,126.603792 120.233749,127.031848 Z" id="Stroke-2495" stroke="#151616" stroke-width="1.28426823" stroke-linejoin="round" mask="url(#mask-2)"></path>
            <path d="M120.233749,127.031848 C120.233749,127.031848 114.690044,124.891571 109.573369,125.319626 C104.456695,125.747682 99.3397489,126.603792 98.9132613,128.74416 C98.4868642,130.884527 98.9135328,131.740638 103.60381,132.59684 C108.294178,133.45295 112.558239,133.45295 113.837521,136.021373 C115.116712,138.589796 115.116712,142.014148 111.279048,144.582571 C110.353574,145.201983 109.52748,145.796499 108.80647,146.396104 L133.814555,147.537343 C132.777752,145.906444 131.751267,145.141014 132.599445,142.870258 C133.878727,139.445997 139.42207,139.874053 133.025842,136.877575 C126.629705,133.881006 122.792222,135.593318 120.660146,133.881006 C118.52807,132.168784 114.690315,130.884527 116.822391,130.456472 C118.954467,130.028417 118.954467,126.603792 120.233749,127.031848" id="Fill-2496" fill="#D7EBCC" mask="url(#mask-2)"></path>
            <polygon id="Stroke-2497" stroke="#151616" stroke-width="1.92644765" stroke-linejoin="round" mask="url(#mask-2)" points="61.6595883 31.2746619 67.559092 38.152169 72.697308 47.8954934 69.2716496 47.7044086 63.182073 41.9731376 62.4207854 37.005933 61.4692438 34.1402975"></polygon>
            <polygon id="Fill-2498" fill="#979898" mask="url(#mask-2)" points="61.6595883 31.2746619 67.559092 38.152169 72.697308 47.8954934 69.2716496 47.7044086 63.182073 41.9731376 62.4207854 37.005933 61.4692438 34.1402975"></polygon>
            <path d="M66.6074599,37.196836 C66.6074599,37.196836 99.910873,34.9042731 107.332771,35.0953579 C108.202762,35.117801 109.030485,35.1242523 109.814853,35.1185279 C106.510207,32.5910843 102.91294,29.3735365 102.026747,28.5828472 C99.8559328,26.6454675 100.775705,21.6271071 103.339337,20.1082421 C104.210596,19.5920497 106.109968,20.5952675 108.734695,21.0602132 C111.359331,21.525068 138.596701,27.7434553 141.105393,28.3159827 L161.759991,15.4177152 L162.711623,9.6863533 L173.749162,18.8566959 C173.749162,18.8566959 176.413533,22.1043193 174.129851,23.8238096 C171.846169,25.5433 155.289635,38.9163264 155.289635,38.9163264 C155.289635,38.9163264 159.666473,42.9283797 161.379302,46.5582635 C163.092131,50.1881472 164.043764,55.1549883 158.905457,56.8744787 C153.767241,58.593969 147.486958,56.8744787 143.300283,54.7730005 C139.113699,52.6715223 129.788809,46.9402513 129.788809,46.9402513 L72.697308,47.7044086 C72.697308,47.7044086 66.4171153,37.196836 66.6074599,37.196836 Z" id="Stroke-2499" stroke="#151616" stroke-width="1.92644765" stroke-linejoin="round" mask="url(#mask-2)"></path>
            <path d="M66.6074599,37.196836 C66.6074599,37.196836 99.910873,34.9042731 107.332771,35.0953579 C108.202762,35.117801 109.030485,35.1242523 109.814853,35.1185279 C106.510207,32.5910843 102.91294,29.3735365 102.026747,28.5828472 C99.8559328,26.6454675 100.775705,21.6271071 103.339337,20.1082421 C104.210596,19.5920497 106.109968,20.5952675 108.734695,21.0602132 C111.359331,21.525068 138.596701,27.7434553 141.105393,28.3159827 L161.759991,15.4177152 L162.711623,9.6863533 L173.749162,18.8566959 C173.749162,18.8566959 176.413533,22.1043193 174.129851,23.8238096 C171.846169,25.5433 155.289635,38.9163264 155.289635,38.9163264 C155.289635,38.9163264 159.666473,42.9283797 161.379302,46.5582635 C163.092131,50.1881472 164.043764,55.1549883 158.905457,56.8744787 C153.767241,58.593969 147.486958,56.8744787 143.300283,54.7730005 C139.113699,52.6715223 129.788809,46.9402513 129.788809,46.9402513 L72.697308,47.7044086 C72.697308,47.7044086 66.4171153,37.196836 66.6074599,37.196836" id="Fill-2500" fill="#676766" mask="url(#mask-2)"></path>
            <path d="M160.921317,15.9413584 L161.759991,15.4177152 L162.711623,9.6863533 L173.749162,18.8566959 C173.749162,18.8566959 175.867571,21.4390208 174.70713,23.2175721 C172.263063,21.7377782 162.449956,15.8741198 160.921317,16.1811457 L160.921317,15.9413584 Z" id="Stroke-2501" stroke="#151616" stroke-width="1.92644765" stroke-linejoin="round" mask="url(#mask-2)"></path>
            <path d="M160.921317,15.9413584 L161.759991,15.4177152 L162.711623,9.6863533 L173.749162,18.8566959 C173.749162,18.8566959 175.867571,21.4390208 174.70713,23.2175721 C172.263063,21.7377782 162.449956,15.8741198 160.921317,16.1811457 L160.921317,15.9413584 Z" id="Fill-2502" fill="#313130" mask="url(#mask-2)"></path>
            <path d="M162.668812,50.6633604 C163.011848,53.2664929 162.245673,55.7566827 158.905457,56.8744787 C153.767241,58.593969 147.486958,56.8744787 143.300283,54.7730005 C139.113699,52.6715223 129.788809,46.9402513 129.788809,46.9402513 L72.697308,47.7044086 C72.697308,47.7044086 72.287565,47.0190294 71.6813226,45.9993655 L125.603945,44.2641558 L120.708388,37.5945431 C120.708388,37.5945431 129.100654,44.9662538 136.443807,48.4765619 C143.787051,51.9869609 151.829582,55.4975416 156.375495,54.0933457 C160.870812,52.7047782 162.630345,53.0324299 162.668812,50.6633604" id="Fill-2503" fill="#313130" mask="url(#mask-2)"></path>
            <path d="M148.43859,34.7133701 C148.43859,34.7133701 144.632423,33.1849645 140.636184,33.7581279 C136.639854,34.3312005 132.262835,37.3879208 132.262835,37.3879208 L132.262835,39.8716594 L145.203547,48.2774812 C145.203547,48.2774812 145.584055,46.176003 149.199787,44.8387731 C154.58718,42.8462396 154.989772,43.9805726 159.476309,42.9124787 C159.476309,42.9124787 148.248426,34.9045457 148.43859,34.7133701 Z" id="Stroke-2504" stroke="#151616" stroke-width="1.92644765" stroke-linejoin="round" mask="url(#mask-2)"></path>
            <path d="M148.43859,34.7133701 C148.43859,34.7133701 144.632423,33.1849645 140.636184,33.7581279 C136.639854,34.3312005 132.262835,37.3879208 132.262835,37.3879208 L132.262835,39.8716594 L145.203547,48.2774812 C145.203547,48.2774812 145.584055,46.176003 149.199787,44.8387731 C154.58718,42.8462396 154.989772,43.9805726 159.476309,42.9124787 C159.476309,42.9124787 148.248426,34.9045457 148.43859,34.7133701" id="Fill-2505" fill="#D8D8D9" mask="url(#mask-2)"></path>
            <path d="M126.934184,26.8806208 C126.934184,26.8806208 124.840847,26.689536 123.889305,27.2626086 C122.937673,27.8356812 121.986041,29.1731838 122.937673,29.7462563 C123.889305,30.3193289 125.982642,30.7015893 126.934184,31.2746619 C127.885816,31.8477345 131.120858,33.7583096 132.452908,34.1402975 C133.785048,34.5222853 135.878657,35.0953579 135.878657,35.0953579 L138.542847,33.7581279 L139.874896,32.9938797 L138.162067,30.5105046" id="Stroke-2506" stroke="#151616" stroke-width="0.642179422" stroke-linejoin="round" mask="url(#mask-2)"></path>
            <path d="M129.788809,24.7791426 C130.944815,24.7791426 131.882055,25.9765345 131.882055,27.4536934 C131.882055,28.9308523 130.944815,30.1282442 129.788809,30.1282442 C128.632712,30.1282442 127.695472,28.9308523 127.695472,27.4536934 C127.695472,25.9765345 128.632712,24.7791426 129.788809,24.7791426 Z" id="Stroke-2507" stroke="#151616" stroke-width="1.28426823" stroke-linejoin="round" mask="url(#mask-2)"></path>
            <path d="M129.788809,24.7791426 C130.944815,24.7791426 131.882055,25.9765345 131.882055,27.4536934 C131.882055,28.9308523 130.944815,30.1282442 129.788809,30.1282442 C128.632712,30.1282442 127.695472,28.9308523 127.695472,27.4536934 C127.695472,25.9765345 128.632712,24.7791426 129.788809,24.7791426" id="Fill-2508" fill="#C3C3C4" mask="url(#mask-2)"></path>
            <path d="M135.688222,20.0028411 L136.830018,20.0028411 C137.248721,20.0028411 137.591215,20.3467574 137.591215,20.7670893 L137.591215,31.6566497 C137.591215,32.0769817 137.248721,32.4208071 136.830018,32.4208071 L135.688222,32.4208071 C135.269518,32.4208071 134.927025,32.0769817 134.927025,31.6566497 L134.927025,20.7670893 C134.927025,20.3467574 135.269518,20.0028411 135.688222,20.0028411 Z" id="Stroke-2509" stroke="#151616" stroke-width="1.92644765" stroke-linejoin="round" mask="url(#mask-2)"></path>
            <path d="M135.688222,20.0028411 L136.830018,20.0028411 C137.248721,20.0028411 137.591215,20.3467574 137.591215,20.7670893 L137.591215,31.6566497 C137.591215,32.0769817 137.248721,32.4208071 136.830018,32.4208071 L135.688222,32.4208071 C135.269518,32.4208071 134.927025,32.0769817 134.927025,31.6566497 L134.927025,20.7670893 C134.927025,20.3467574 135.269518,20.0028411 135.688222,20.0028411" id="Fill-2510" fill="#4E4E4D" mask="url(#mask-2)"></path>
            <path d="M101.827895,35.1095325 L102.765407,37.7701812 L104.668581,38.9163264 L104.858745,41.2088893 C104.858745,41.2088893 103.716768,41.0178046 103.33626,41.9731376 C102.955752,42.9283797 104.185705,47.6621574 104.185705,47.6621574 L113.174076,47.4710726 L108.284403,41.7819619 L106.000721,41.2088893 L105.049089,37.7701812 C104.692747,36.4815629 104.331971,34.7414467 104.331971,34.7414467" id="Stroke-2511" stroke="#151616" stroke-width="0.642179422" stroke-linejoin="round" mask="url(#mask-2)"></path>
            <path d="M146.779322,24.6903633 L150.107802,26.7396169 L151.857804,26.8995119 L154.319284,28.2905262 C154.319284,28.2905262 153.453697,28.809225 154.030407,29.8070189 C154.607127,30.8049215 160.66882,34.8590122 160.66882,34.8590122 L166.691159,29.9013988 L156.917332,26.7348177 L155.023022,27.617385 L151.514985,25.3930848 C150.190732,24.5533647 148.597182,23.2335191 148.597182,23.2335191" id="Stroke-2512" stroke="#151616" stroke-width="0.75617148" stroke-linejoin="round" mask="url(#mask-2)"></path>
            <path d="M132.162549,26.8458203 C132.162549,26.8458203 131.149098,26.1820665 130.267793,26.314999 C129.386488,26.4479315 129.122196,26.890434 128.813825,27.2883228 C128.505454,27.6863025 127.403755,27.5536426 127.403755,27.5536426" id="Stroke-2513" stroke="#151616" stroke-width="0.642179422" mask="url(#mask-2)"></path>
            <path d="M129.606882,26.5805005 C129.606882,26.5805005 129.298692,27.1111401 129.518815,27.6419614 C129.739028,28.1727827 130.091477,28.084464 130.576164,28.084464 C131.06085,28.084464 132.030131,27.9518041 132.030131,27.9518041" id="Stroke-2514" stroke="#151616" stroke-width="0.642179422" mask="url(#mask-2)"></path>
            <path d="M81.5447533,84.2823772 C81.5447533,84.2823772 80.1462686,92.7073711 85.3911971,94.111567 C90.6362161,95.5158538 107.071104,95.8665848 110.917547,97.9729695 C114.763991,100.079354 117.21186,103.940757 125.604126,107.451065 C133.996482,110.961464 141.339907,113.418852 142.388747,115.524964 C143.437588,117.631077 146.584926,121.141385 140.989901,121.492479 C135.394966,121.843483 131.898257,120.088465 131.898257,120.088465 C131.898257,120.088465 134.346126,125.705158 136.444079,128.162364 C138.542032,130.61948 140.989901,132.725592 145.186079,134.480883 C149.382257,136.236173 153.578345,135.534075 156.72541,139.395478 C159.872476,143.25688 158.473629,144.660894 163.71892,145.714087 C168.96412,146.767279 197.987451,149.575489 200.784782,150.979685 C203.582114,152.383972 207.078914,154.841088 199.386026,158.351487 C191.693139,161.861795 186.448391,164.670278 182.95141,167.127393 C179.454429,169.5846 180.853185,169.935876 177.006742,172.393083 C173.160298,174.850198 170.712429,172.743905 167.215629,173.446003 C163.71892,174.148101 157.774251,173.797279 156.026032,176.60558 C154.277813,179.41379 154.627185,188.540791 154.627185,188.540791 L279.812155,194.157211 C279.812155,194.157211 273.16838,178.36087 267.223711,176.956583 C261.279042,175.552387 253.586155,173.797097 253.586155,173.797097 C253.586155,173.797097 241.697451,169.233778 239.249492,171.33989 C236.801623,173.446003 234.703399,182.573276 231.556333,180.115888 C228.409358,177.658499 225.262564,174.850198 223.164339,174.499195 C221.066114,174.148101 214.422339,174.148101 208.827404,171.33989 C203.23247,168.53168 200.784782,163.617085 200.784782,163.617085 C200.784782,163.617085 203.931848,161.159697 208.47767,161.159697 C213.023582,161.159697 220.017273,161.15997 219.317895,156.947473 C218.618517,152.734976 208.128298,146.767279 202.883007,143.607975 C197.637807,140.44867 194.840204,137.289093 191.343404,137.289093 C187.846695,137.289093 186.098204,138.342013 184.349895,137.289093 C182.601676,136.236173 174.20941,133.42769 170.013232,130.268477 C165.817145,127.109172 159.522742,123.949595 160.571854,121.492479 C161.620966,119.035273 162.320345,119.386094 161.620966,116.928888 C160.921588,114.471772 155.676026,108.504257 159.173098,107.451065 C162.670079,106.397873 165.817326,106.748967 170.362966,107.100061 C174.908517,107.451065 181.552564,106.046869 181.552564,106.046869 L175.258251,96.9197772 L109.868707,82.8784538 L82.2439504,82.5273594 L81.5447533,84.2823772 Z" id="Fill-2515" fill="#6BA6D1" mask="url(#mask-2)"></path>
            <path d="M81.5447533,84.2823772 C81.5447533,84.2823772 80.1462686,92.7073711 85.3911971,94.111567 C90.6362161,95.5158538 107.071104,95.8665848 110.917547,97.9729695 C114.763991,100.079354 117.21186,103.940757 125.604126,107.451065 C133.996482,110.961464 141.339907,113.418852 142.388747,115.524964 C143.437588,117.631077 146.584926,121.141385 140.989901,121.492479 C135.394966,121.843483 131.898257,120.088465 131.898257,120.088465 C131.898257,120.088465 134.346126,125.705158 136.444079,128.162364 C138.542032,130.61948 140.989901,132.725592 145.186079,134.480883 C149.382257,136.236173 153.578345,135.534075 156.72541,139.395478 C159.872476,143.25688 158.473629,144.660894 163.71892,145.714087 C168.96412,146.767279 197.987451,149.575489 200.784782,150.979685 C203.582114,152.383972 207.078914,154.841088 199.386026,158.351487 C191.693139,161.861795 186.448391,164.670278 182.95141,167.127393 C179.454429,169.5846 180.853185,169.935876 177.006742,172.393083 C173.160298,174.850198 170.712429,172.743905 167.215629,173.446003 C163.71892,174.148101 157.774251,173.797279 156.026032,176.60558 C154.277813,179.41379 154.627185,188.540791 154.627185,188.540791 L279.812155,194.157211 C279.812155,194.157211 273.16838,178.36087 267.223711,176.956583 C261.279042,175.552387 253.586155,173.797097 253.586155,173.797097 C253.586155,173.797097 241.697451,169.233778 239.249492,171.33989 C236.801623,173.446003 234.703399,182.573276 231.556333,180.115888 C228.409358,177.658499 225.262564,174.850198 223.164339,174.499195 C221.066114,174.148101 214.422339,174.148101 208.827404,171.33989 C203.23247,168.53168 200.784782,163.617085 200.784782,163.617085 C200.784782,163.617085 203.931848,161.159697 208.47767,161.159697 C213.023582,161.159697 220.017273,161.15997 219.317895,156.947473 C218.618517,152.734976 208.128298,146.767279 202.883007,143.607975 C197.637807,140.44867 194.840204,137.289093 191.343404,137.289093 C187.846695,137.289093 186.098204,138.342013 184.349895,137.289093 C182.601676,136.236173 174.20941,133.42769 170.013232,130.268477 C165.817145,127.109172 159.522742,123.949595 160.571854,121.492479 C161.620966,119.035273 162.320345,119.386094 161.620966,116.928888 C160.921588,114.471772 155.676026,108.504257 159.173098,107.451065 C162.670079,106.397873 165.817326,106.748967 170.362966,107.100061 C174.908517,107.451065 181.552564,106.046869 181.552564,106.046869 L175.258251,96.9197772 L109.868707,82.8784538 L82.2439504,82.5273594 L81.5447533,84.2823772 Z" id="Stroke-2516" stroke="#151616" stroke-width="0.51368917" mask="url(#mask-2)"></path>
            <path d="M127.89713,108.396857 C135.298301,111.412144 141.436663,113.613299 142.388747,115.524964 C143.437588,117.631077 146.584926,121.141385 140.989901,121.492479 C135.394966,121.843483 131.898257,120.088465 131.898257,120.088465 C131.898257,120.088465 134.346126,125.705158 136.444079,128.162364 C138.542032,130.61948 140.989901,132.725592 145.186079,134.480883 C149.382257,136.236173 153.578345,135.534075 156.72541,139.395478 C159.872476,143.25688 158.473629,144.660894 163.71892,145.714087 C168.442324,146.662423 192.442841,149.033764 199.216137,150.521736 L200.39821,150.575618 L203.009723,143.684209 L202.883007,143.607975 C197.637807,140.44867 194.840204,137.289093 191.343404,137.289093 C187.846695,137.289093 186.098204,138.342013 184.349895,137.289093 C182.601676,136.236173 174.20941,133.42769 170.013232,130.268477 C165.817145,127.109172 159.522742,123.949595 160.571854,121.492479 C161.620966,119.035273 162.320345,119.386094 161.620966,116.928888 C161.122704,115.178777 158.319218,111.648388 158.010304,109.38054 C148.019343,109.058521 137.695393,108.722147 127.89713,108.396857 Z" id="Fill-2517" fill="#99BEE0" mask="url(#mask-2)"></path>
            <path d="M127.89713,108.396857 C135.298301,111.412144 141.436663,113.613299 142.388747,115.524964 C143.437588,117.631077 146.584926,121.141385 140.989901,121.492479 C135.394966,121.843483 131.898257,120.088465 131.898257,120.088465 C131.898257,120.088465 134.346126,125.705158 136.444079,128.162364 C138.542032,130.61948 140.989901,132.725592 145.186079,134.480883 C149.382257,136.236173 153.578345,135.534075 156.72541,139.395478 C159.872476,143.25688 158.473629,144.660894 163.71892,145.714087 C168.442324,146.662423 192.442841,149.033764 199.216137,150.521736 L200.39821,150.575618 L203.009723,143.684209 L202.883007,143.607975 C197.637807,140.44867 194.840204,137.289093 191.343404,137.289093 C187.846695,137.289093 186.098204,138.342013 184.349895,137.289093 C182.601676,136.236173 174.20941,133.42769 170.013232,130.268477 C165.817145,127.109172 159.522742,123.949595 160.571854,121.492479 C161.620966,119.035273 162.320345,119.386094 161.620966,116.928888 C161.122704,115.178777 158.319218,111.648388 158.010304,109.38054 C148.019343,109.058521 137.695393,108.722147 127.89713,108.396857 Z" id="Stroke-2518" stroke="#151616" stroke-width="0.51368917" mask="url(#mask-2)"></path>
            <path d="M77.1664672,106.484738 L40.9218102,143.298405 L200.39821,150.575618 L215.322651,111.193528 C215.322651,111.193528 77.1664672,106.912793 77.1664672,106.484738 Z" id="Stroke-2519" stroke="#151616" stroke-width="1.28426823" stroke-linejoin="round" stroke-dasharray="2.564368161914151,1.286714762556854" mask="url(#mask-2)"></path>
            <path d="M139.42207,52.9764584 L199.545326,150.147472" id="Stroke-2520" stroke="#151616" stroke-width="1.28426823" stroke-linejoin="round" stroke-dasharray="2.564368161914151,1.286714762556854" mask="url(#mask-2)"></path>
            <path d="M153.919842,56.8291381 L215.322651,111.193528" id="Stroke-2521" stroke="#151616" stroke-width="1.28426823" stroke-linejoin="round" stroke-dasharray="2.564368161914151,1.286714762556854" mask="url(#mask-2)"></path>
            <path d="M77.1664672,107.340848 L120.233749,47.4118299 L40.9218102,143.298405" id="Stroke-2522" stroke="#151616" stroke-width="1.28426823" stroke-linejoin="round" stroke-dasharray="2.564368161914151,1.286714762556854" mask="url(#mask-2)"></path>
            <path d="M10.2205869,70.5271812 L8.51490803,78.2324497 L4.6772438,84.6535523 L6.38283212,90.2182716 L12.7790599,91.9304929 L20.4542073,91.5024376 L33.6727883,87.6497579 L46.0387562,87.2217025 L53.2875971,87.6497579 L58.4045431,83.7974416 L64.3742832,87.6497579 L69.4910482,88.0779041 L83.989092,85.5096629 L76.313673,74.8079162 L65.2271679,73.5236594 L56.6988642,69.2430152 L49.4501139,74.3798609 L40.9218102,68.814869 L29.408908,76.0920822 L20.4542073,69.6710706 L16.6165431,73.0956041 C16.6165431,73.0956041 10.6469839,70.5271812 10.2205869,70.5271812 Z" id="Stroke-2523" stroke="#151616" stroke-width="1.28426823" stroke-linejoin="round" mask="url(#mask-2)"></path>
            <path d="M10.2205869,70.5271812 L8.51490803,78.2324497 L4.6772438,84.6535523 L6.38283212,90.2182716 L12.7790599,91.9304929 L20.4542073,91.5024376 L33.6727883,87.6497579 L46.0387562,87.2217025 L53.2875971,87.6497579 L58.4045431,83.7974416 L64.3742832,87.6497579 L69.4910482,88.0779041 L83.989092,85.5096629 L76.313673,74.8079162 L65.2271679,73.5236594 L56.6988642,69.2430152 L49.4501139,74.3798609 L40.9218102,68.814869 L29.408908,76.0920822 L20.4542073,69.6710706 L16.6165431,73.0956041 C16.6165431,73.0956041 10.6469839,70.5271812 10.2205869,70.5271812" id="Fill-2524" fill="#979898" mask="url(#mask-2)"></path>
            <polyline id="Stroke-2525" stroke="#151616" stroke-width="0.642179422" stroke-linejoin="round" mask="url(#mask-2)" points="12.329854 91.6240122 12.329854 80.4112523 16.6098453 73.0755234 26.1089693 85.3363873"></polyline>
            <path d="M12.2254044,80.5157447 L20.9941051,85.2315315" id="Stroke-2526" stroke="#151616" stroke-width="0.642179422" stroke-linejoin="round" mask="url(#mask-2)"></path>
            <polyline id="Stroke-2527" stroke="#151616" stroke-width="0.642179422" stroke-linejoin="round" mask="url(#mask-2)" points="20.5763971 91.6240122 20.6807562 85.1266756 25.5870832 85.1266756 26.1089693 79.5728599 29.1110365 75.4386868 39.0533022 81.5638487 34.0425255 87.8947244"></polyline>
            <polyline id="Stroke-2528" stroke="#151616" stroke-width="0.642179422" stroke-linejoin="round" mask="url(#mask-2)" points="44.4814248 71.0845345 41.2453869 78.8393234 39.0533022 81.6686137 47.2644555 87.6889198"></polyline>
            <polyline id="Stroke-2529" stroke="#151616" stroke-width="0.642179422" stroke-linejoin="round" mask="url(#mask-2)" points="41.3498365 78.9439066 46.4647007 79.2583832 58.0520029 80.0966848 64.1064613 81.4589929 73.7103066 81.7734695 83.9403066 85.5460081"></polyline>
            <polyline id="Stroke-2530" stroke="#151616" stroke-width="0.642179422" stroke-linejoin="round" mask="url(#mask-2)" points="76.4241869 74.2281198 73.2925985 81.4589929 69.3257752 87.9563294"></polyline>
            <path d="M65.5678511,73.4945832 L60.3485372,78.6296117" id="Stroke-2531" stroke="#151616" stroke-width="0.642179422" stroke-linejoin="round" mask="url(#mask-2)"></path>
            <polyline id="Stroke-2532" stroke="#151616" stroke-width="0.642179422" stroke-linejoin="round" mask="url(#mask-2)" points="56.6947912 69.1981289 56.0684555 73.9139157 60.2440876 78.5248467"></polyline>
            <path d="M49.5963796,74.1235365 L46.1517139,79.0486716" id="Stroke-2533" stroke="#151616" stroke-width="0.642179422" stroke-linejoin="round" mask="url(#mask-2)"></path>
            <path d="M26.0948496,85.1995477 L31.3934511,88.7982655" id="Stroke-2534" stroke="#151616" stroke-width="0.642179422" stroke-linejoin="round" mask="url(#mask-2)"></path>
            <path d="M12.3898628,80.5523624 L4.19898394,84.8537234" id="Stroke-2535" stroke="#151616" stroke-width="0.642179422" mask="url(#mask-2)"></path>
            <polyline id="Stroke-2536" stroke="#151616" stroke-width="0.642179422" mask="url(#mask-2)" points="60.2751328 78.5283904 58.6369752 80.1730096 58.2588204 84.2211355"></polyline>
            <path d="M46.1613985,79.1609782 L46.7915358,87.5101924" id="Stroke-2537" stroke="#151616" stroke-width="0.642179422" mask="url(#mask-2)"></path>
            <path d="M16.7309489,72.9375025 L12.3082219,80.6605802 L20.7005781,85.3355695 L25.8303766,84.8850711 C25.8303766,84.8850711 16.7309489,73.2885061 16.7309489,72.9375025 Z" id="Stroke-2538" stroke="#151616" stroke-width="1.28426823" stroke-linejoin="round" mask="url(#mask-2)"></path>
            <path d="M16.7309489,72.9375025 L12.3082219,80.6605802 L20.7005781,85.3355695 L25.8303766,84.8850711 C25.8303766,84.8850711 16.7309489,73.2885061 16.7309489,72.9375025" id="Fill-2539" fill="#C3C3C4" mask="url(#mask-2)"></path>
            <polygon id="Stroke-2540" stroke="#151616" stroke-width="1.28426823" stroke-linejoin="round" mask="url(#mask-2)" points="40.9819095 68.4491457 29.4522628 75.6418563 38.9231474 81.842798 41.3936438 79.0316802 44.5232409 71.0122076"></polygon>
            <polygon id="Fill-2541" fill="#D8D8D9" mask="url(#mask-2)" points="40.9819095 68.4491457 29.4522628 75.6418563 38.9231474 81.842798 41.3936438 79.0316802 44.5232409 71.0122076"></polygon>
            <path d="M49.5470511,74.2366609 C50.1236058,74.3190736 56.1354336,73.9886051 56.1354336,73.9886051 L56.6296234,68.7798868 L49.5470511,74.2366609 Z" id="Stroke-2542" stroke="#151616" stroke-width="1.28426823" stroke-linejoin="round" mask="url(#mask-2)"></path>
            <path d="M49.5470511,74.2366609 C50.1236058,74.3190736 56.1354336,73.9886051 56.1354336,73.9886051 L56.6296234,68.7798868 L49.5470511,74.2366609 Z" id="Fill-2543" fill="#D8D8D9" mask="url(#mask-2)"></path>
            <polygon id="Stroke-2544" stroke="#151616" stroke-width="1.28426823" stroke-linejoin="round" mask="url(#mask-2)" points="56.5472584 73.9886051 53.2529314 79.6104772 58.6062015 80.1891832 60.3356847 78.2876036"></polygon>
            <polygon id="Fill-2545" fill="#D8D8D9" mask="url(#mask-2)" points="56.5472584 73.9886051 53.2529314 79.6104772 58.6062015 80.1891832 60.3356847 78.2876036"></polygon>
            <path d="M5.66417518,88.8459685 L-8.32275328,93.7604726" id="Stroke-2546" stroke="#151616" stroke-width="0.51368917" mask="url(#mask-2)"></path>
            <path d="M105.360162,2.58487886 C105.360162,2.58487886 104.452424,16.1532843 104.250777,18.7858209 C104.048787,21.4183575 104.250777,23.0383589 104.250777,23.0383589 L115.850029,26.0761021 C115.850029,26.0761021 118.068834,26.8860684 119.581787,27.0888437 C121.095015,27.2912751 122.10325,27.1898015 121.195581,26.2785335 C120.287843,25.3672656 116.455005,19.2918822 115.648177,14.4317062 C114.841485,9.57153018 114.538758,5.31888906 112.924929,4.61008688 C111.311135,3.90125032 107.074763,2.68635245 107.074763,2.68635245 L105.360162,2.58487886 Z" id="Stroke-2547" stroke="#151616" stroke-width="3.39357437" stroke-linejoin="round" mask="url(#mask-2)"></path>
            <path d="M105.364429,2.57069442 C105.364429,2.57069442 104.456695,16.139167 104.255036,18.7717391 C104.053107,21.4043112 104.255036,23.0243975 104.255036,23.0243975 L115.854377,26.0620365 C115.854377,26.0620365 118.073162,26.8720797 119.586143,27.0747949 C121.099396,27.2772376 122.107688,27.1757437 121.199953,26.2644792 C120.292219,25.3532147 116.459352,19.2778457 115.652447,14.4175868 C114.845813,9.55732792 114.543054,5.30466954 112.929244,4.59584772 C111.315434,3.88711675 107.079069,2.67218832 107.079069,2.67218832 L105.364429,2.57069442 Z" id="Fill-2548" fill="#676766" mask="url(#mask-2)"></path>
            <path d="M105.259287,2.48361158 C105.259287,2.48361158 108.688591,3.59762041 109.798182,4.30645698 C110.907601,5.01498406 111.714464,5.21762178 112.319748,8.55899494 C112.924929,11.9003681 114.337076,19.7985625 114.841485,22.0258924 C115.34562,24.2535318 116.051677,26.0761021 116.051677,26.0761021" id="Stroke-2549" stroke="#151616" stroke-width="1.14608231" stroke-linejoin="round" mask="url(#mask-2)"></path>
            <path d="M81.7959729,29.2193766 L100.45572,26.5865649 C100.45572,26.5865649 103.582468,26.7889963 107.213316,28.0042036 C110.844473,29.2193766 112.357426,30.2316367 113.063482,30.6367402 C113.769573,31.0419125 113.567892,31.7506459 113.567892,31.7506459 C113.567892,31.7506459 102.700043,32.5352008 96.5474227,32.5859892 C90.3947341,32.6366744 87.0158163,32.6366744 87.0158163,32.6366744 L81.7959729,29.2193766 Z" id="Stroke-2550" stroke="#151616" stroke-width="3.39357437" stroke-linejoin="round" mask="url(#mask-2)"></path>
            <path d="M81.8000847,29.2053492 L100.459912,26.5725954 C100.459912,26.5725954 103.586704,26.7750381 107.21755,27.9902391 C110.848759,29.2053492 112.36174,30.2176533 113.067816,30.6227203 C113.773892,31.0278782 113.572234,31.7367 113.572234,31.7367 C113.572234,31.7367 102.704312,32.5213015 96.5516496,32.572003 C90.3988964,32.6227046 87.0199416,32.6227046 87.0199416,32.6227046 L81.8000847,29.2053492 Z" id="Fill-2551" fill="#676766" mask="url(#mask-2)"></path>
            <path d="M82.7796495,29.0926635 L87.1671801,31.7758853 C87.1671801,31.7758853 101.338487,31.4722554 105.675426,31.3203029 C110.012365,31.1683504 113.341103,30.8647205 113.341103,30.8647205" id="Stroke-2552" stroke="#151616" stroke-width="1.14608231" stroke-linejoin="round" mask="url(#mask-2)"></path>
            <path d="M92.5591789,34.7801021 L92.5088613,35.69137" id="Stroke-2553" stroke="#151616" stroke-width="1.14608231" stroke-linejoin="round" mask="url(#mask-2)"></path>
            <path d="M85.7550332,28.7382452 L88.0749179,29.5990343 C88.0749179,29.5990343 94.328413,29.244616 97.6062503,28.940711 C100.884396,28.636978 101.489577,28.5358138 101.489577,28.5358138 L97.9090122,27.0169766" id="Stroke-2554" stroke="#151616" stroke-width="1.14608231" stroke-linejoin="round" mask="url(#mask-2)"></path>
        </g>
    </g>
</svg>