<?xml version="1.0" encoding="UTF-8"?>
<svg width="250px" height="180px" viewBox="0 0 250 180" version="1.1" xmlns="http://www.w3.org/2000/svg" xmlns:xlink="http://www.w3.org/1999/xlink">
    <!-- Generator: Sketch 51.2 (57519) - http://www.bohemiancoding.com/sketch -->
    <title>5-2</title>
    <desc>Created with Sketch.</desc>
    <defs>
        <polygon id="path-1" points="0.823106569 0.202624365 247.630534 0.202624365 247.630534 178.821091 0.823106569 178.821091"></polygon>
    </defs>
    <g id="5-2" stroke="none" stroke-width="1" fill="none" fill-rule="evenodd">
        <g id="Group-1346">
            <mask id="mask-2" fill="white">
                <use xlink:href="#path-1"></use>
            </mask>
            <g id="Clip-1138"></g>
            <polygon id="Fill-1137" fill="#818181" mask="url(#mask-2)" points="-28.1599474 143.379 -28.1599474 165.913555 -23.8843007 187.37511 248.68915 187.911565 249.757994 146.061728 220.362844 142.305999 22.613527 136.404179"></polygon>
            <path d="M245.892272,60.7652299 C245.892272,60.7652299 236.954768,49.549835 235.358698,48.5885959 C233.762628,47.6274477 226.420923,48.5885959 224.505892,48.5885959 C222.590952,48.5885959 213.014531,54.9973411 213.014531,54.9973411 L207.588219,55.6381975 L202.480958,60.4448472 L190.032082,61.0856127 L168.964934,55.6381975 L159.069644,65.5718797 L149.812999,69.737764 L144.067182,71.0193858 L139.279425,81.5939244 L135.129679,84.4779142 L55.2153898,121.381172 C55.2153898,121.381172 35.9747533,120.844717 19.4067241,121.381172 C2.83869489,121.917718 -29.7632584,124.063719 -29.7632584,124.063719 L-28.6944146,144.452273 C-28.6944146,144.452273 30.6304438,141.769454 45.0607854,141.769454 C59.491127,141.769454 68.5768876,142.305999 78.1971153,141.769454 C87.8173431,141.232908 103.850905,143.915727 112.402289,143.915727 C120.953673,143.915727 149.814266,143.915455 162.641296,141.769454 C175.468418,139.623453 185.62275,140.696181 195.777626,142.305999 C205.932593,143.915727 232.121031,147.13482 238.000079,147.13482 C243.879036,147.13482 250.292371,146.598274 250.292371,146.598274 L252.43033,70.4102406 L245.892272,60.7652299 Z" id="Stroke-1139" stroke="#151616" stroke-width="0.642179422" stroke-linejoin="round" mask="url(#mask-2)"></path>
            <path d="M245.892272,60.7652299 C245.892272,60.7652299 236.954768,49.549835 235.358698,48.5885959 C233.762628,47.6274477 226.420923,48.5885959 224.505892,48.5885959 C222.590952,48.5885959 213.014531,54.9973411 213.014531,54.9973411 L207.588219,55.6381975 L202.480958,60.4448472 L190.032082,61.0856127 L168.964934,55.6381975 L159.069644,65.5718797 L149.812999,69.737764 L144.067182,71.0193858 L139.279425,81.5939244 L135.129679,84.4779142 L55.2153898,121.381172 C55.2153898,121.381172 35.9747533,120.844717 19.4067241,121.381172 C2.83869489,121.917718 -29.7632584,124.063719 -29.7632584,124.063719 L-28.6944146,144.452273 C-28.6944146,144.452273 30.6304438,141.769454 45.0607854,141.769454 C59.491127,141.769454 68.5768876,142.305999 78.1971153,141.769454 C87.8173431,141.232908 103.850905,143.915727 112.402289,143.915727 C120.953673,143.915727 149.814266,143.915455 162.641296,141.769454 C175.468418,139.623453 185.62275,140.696181 195.777626,142.305999 C205.932593,143.915727 232.121031,147.13482 238.000079,147.13482 C243.879036,147.13482 250.292371,146.598274 250.292371,146.598274 L252.43033,70.4102406 L245.892272,60.7652299 Z" id="Fill-1140" fill="#AEAFB0" mask="url(#mask-2)"></path>
            <polygon id="Fill-1141" fill="#FED132" mask="url(#mask-2)" points="139.476739 81.4331878 140.233048 89.0266949 137.207358 92.0641523 137.585603 101.935866 104.681434 107.631155 91.4441168 106.112563 91.4441168 99.278034 89.9311358 88.6470695 97.1170715 82.9518711 96.7389168 88.6470695 103.925034 87.1284772 109.976234 81.0535624"></polygon>
            <polyline id="Stroke-1142" stroke="#151616" stroke-width="0.642179422" stroke-linejoin="round" mask="url(#mask-2)" points="134.810537 88.0029421 148.855212 88.3233249 171.837661 76.1465091 203.119331 82.555436 211.418733 88.3233249 225.144266 98.8978635 242.700312 103.063748"></polyline>
            <path d="M207.268987,55.3177239 C209.184289,56.2792355 210.780088,63.9696025 210.780088,63.9696025 L210.460946,70.0581467 L219.07958,73.9033756 L226.740336,74.5444137" id="Stroke-1143" stroke="#151616" stroke-width="0.642179422" stroke-linejoin="round" mask="url(#mask-2)"></path>
            <path d="M234.720324,47.9475579 C234.401182,49.549835 232.48588,59.8039909 232.48588,59.8039909 L230.251436,68.1354868 L227.059568,71.9808975 L226.420923,75.1852701 L224.505892,82.2350533 L229.294012,90.5664584 L235.996981,101.140997" id="Stroke-1144" stroke="#151616" stroke-width="0.642179422" stroke-linejoin="round" mask="url(#mask-2)"></path>
            <path d="M153.643331,96.0139645 C155.239401,95.6934909 169.92245,93.1299746 169.92245,93.1299746 L182.690467,93.1299746 L199.608231,98.8978635 L209.184289,97.9366244 L215.248975,104.34537 L220.675378,102.102236 L231.208952,104.986226 L241.742616,108.19078" id="Stroke-1145" stroke="#151616" stroke-width="0.642179422" stroke-linejoin="round" mask="url(#mask-2)"></path>
            <path d="M-30.2160847,124.329311 C-30.2160847,124.329311 44.7957693,118.56115 74.1623182,121.765704 C103.528958,124.970349 86.4895474,118.046502 117.892774,123.047598 C149.296,128.048786 182.306339,119.806972 197.054555,120.163699 C211.802771,120.520427 221.314023,124.329493 231.847597,124.970349 C242.381171,125.611206 250.361159,126.892827 250.361159,126.892827" id="Stroke-1146" stroke="#151616" stroke-width="0.642179422" stroke-linejoin="round" mask="url(#mask-2)"></path>
            <path d="M-29.3116993,134.63644 C-29.0455971,134.63644 38.1988788,129.402553 64.6927007,132.126533 C90.1756964,134.823709 79.6204905,129.000484 109.533635,133.087954 C139.446961,137.175242 170.79941,130.20042 184.499238,130.417583 C199.609226,130.554604 212.802102,133.835665 225.410277,134.957186 C238.018724,136.078617 250.361159,136.612527 250.361159,136.612527" id="Stroke-1147" stroke="#151616" stroke-width="0.642179422" stroke-linejoin="round" mask="url(#mask-2)"></path>
            <path d="M-27.5029285,155.251697 C-26.7049839,155.251697 25.0054599,151.085541 45.7534657,152.848373 C63.4691737,154.5307 65.8821956,150.90863 92.8154482,153.169028 C126.162216,158.940733 156.303358,149.475994 164.815188,147.720977 C180.648178,147.418857 195.778169,152.848554 212.536091,154.931224 C229.294012,157.014166 250.361159,156.052654 250.361159,156.052654" id="Stroke-1148" stroke="#151616" stroke-width="0.642179422" stroke-linejoin="round" mask="url(#mask-2)"></path>
            <path d="M250.361159,165.773172 C250.361159,165.773172 225.569667,171.00715 206.737145,168.443816 C187.904441,165.880299 165.581816,165.144219 149.387145,165.666045 C138.359924,162.55308 110.478298,165.41281 85.4140964,166.734684 C59.970654,165.387822 50.1159124,164.384605 36.2838482,163.209656 C18.4086599,161.927489 -25.5344964,165.559372 -26.5985431,165.559372 C-27.6624993,165.559372 -25.3808088,176.166621 -25.3808088,176.166621 C-25.3808088,176.166621 17.2777255,172.099686 24.4271854,173.295806 C31.5766453,174.491926 46.3521051,173.774381 46.3521051,173.774381 L95.6836496,173.535139 C95.6836496,173.535139 141.201877,171.381869 144.538292,171.381869 C147.874616,171.381869 176.234502,171.860172 180.523997,172.817322 C184.813582,173.774381 207.215133,175.448804 215.079629,176.405954 C222.944216,177.363013 241.294134,176.405954 244.63073,176.166621 C247.967416,175.927379 250.350388,175.688318 250.350388,175.688318 C250.350388,175.688318 250.350388,165.8793 250.361159,165.773172 Z" id="Stroke-1149" stroke="#151616" stroke-width="1.28426823" stroke-linejoin="round" mask="url(#mask-2)"></path>
            <path d="M250.361159,165.773172 C250.361159,165.773172 225.569667,171.00715 206.737145,168.443816 C187.904441,165.880299 165.581816,165.144219 149.387145,165.666045 C138.359924,162.55308 110.478298,165.41281 85.4140964,166.734684 C59.970654,165.387822 50.1159124,164.384605 36.2838482,163.209656 C18.4086599,161.927489 -25.5344964,165.559372 -26.5985431,165.559372 C-27.6624993,165.559372 -25.3808088,176.166621 -25.3808088,176.166621 C-25.3808088,176.166621 17.2777255,172.099686 24.4271854,173.295806 C31.5766453,174.491926 46.3521051,173.774381 46.3521051,173.774381 L95.6836496,173.535139 C95.6836496,173.535139 141.201877,171.381869 144.538292,171.381869 C147.874616,171.381869 176.234502,171.860172 180.523997,172.817322 C184.813582,173.774381 207.215133,175.448804 215.079629,176.405954 C222.944216,177.363013 241.294134,176.405954 244.63073,176.166621 C247.967416,175.927379 250.350388,175.688318 250.350388,175.688318 C250.350388,175.688318 250.350388,165.8793 250.361159,165.773172" id="Fill-1150" fill="#BECDDB" mask="url(#mask-2)"></path>
            <path d="M235.607331,48.7709579 C235.511842,48.6924523 235.427939,48.6303929 235.358698,48.5885959 C233.762628,47.6274477 226.420923,48.5885959 224.505892,48.5885959 C222.590952,48.5885959 213.014531,54.9973411 213.014531,54.9973411 L207.588219,55.6381975 L207.50866,55.7131594 L210.707045,64.2756289 L210.421936,70.2848497 L219.543448,74.0047787 L226.241892,74.7026061 L226.776269,71.4832411 L229.983072,68.8005127 L231.586382,62.8986919 L235.607331,48.7709579 Z" id="Stroke-1151" stroke="#151616" stroke-width="1.28426823" stroke-linejoin="round" mask="url(#mask-2)"></path>
            <path d="M235.607331,48.7709579 C235.511842,48.6924523 235.427939,48.6303929 235.358698,48.5885959 C233.762628,47.6274477 226.420923,48.5885959 224.505892,48.5885959 C222.590952,48.5885959 213.014531,54.9973411 213.014531,54.9973411 L207.588219,55.6381975 L207.50866,55.7131594 L210.707045,64.2756289 L210.421936,70.2848497 L219.543448,74.0047787 L226.241892,74.7026061 L226.776269,71.4832411 L229.983072,68.8005127 L231.586382,62.8986919 L235.607331,48.7709579 Z" id="Fill-1152" fill="#D8D8D9" mask="url(#mask-2)"></path>
            <path d="M252.43033,103.675437 L242.275454,108.504257 L220.897311,102.065709 L215.018353,104.748438 L104.385644,109.577258 L79.2659591,111.723531 L79.8004263,123.527173 C79.8004263,123.527173 91.5583416,123.527173 94.2306774,122.990718 C96.9031036,122.454173 100.109907,118.161625 105.454488,120.307899 C110.798978,122.454173 136.453039,125.136719 142.332088,125.136719 C148.211045,125.136719 177.071638,121.917718 177.071638,121.917718 L196.846742,120.307899 C196.846742,120.307899 221.431778,124.063719 226.241892,124.600264 C231.051915,125.136719 250.826838,126.746538 250.826838,126.746538 C250.826838,126.746538 252.43033,102.065709 252.43033,103.675437 Z" id="Stroke-1153" stroke="#151616" stroke-width="1.28426823" stroke-linejoin="round" mask="url(#mask-2)"></path>
            <path d="M252.43033,103.675437 L242.275454,108.504257 L220.897311,102.065709 L215.018353,104.748438 L104.385644,109.577258 L79.2659591,111.723531 L79.8004263,123.527173 C79.8004263,123.527173 91.5583416,123.527173 94.2306774,122.990718 C96.9031036,122.454173 100.109907,118.161625 105.454488,120.307899 C110.798978,122.454173 136.453039,125.136719 142.332088,125.136719 C148.211045,125.136719 177.071638,121.917718 177.071638,121.917718 L196.846742,120.307899 C196.846742,120.307899 221.431778,124.063719 226.241892,124.600264 C231.051915,125.136719 250.826838,126.746538 250.826838,126.746538 C250.826838,126.746538 252.43033,102.065709 252.43033,103.675437" id="Fill-1154" fill="#D8D8D9" mask="url(#mask-2)"></path>
            <path d="M169.603308,55.9585802 L174.072105,77.1079299" id="Stroke-1155" stroke="#151616" stroke-width="0.642179422" stroke-linejoin="round" mask="url(#mask-2)"></path>
            <polygon id="Stroke-1156" stroke="#151616" stroke-width="3.47195523" mask="url(#mask-2)" points="111.651278 73.7904746 115.977767 73.7904746 115.977767 69.8928294 111.651278 69.8928294"></polygon>
            <polygon id="Fill-1157" fill="#FED132" mask="url(#mask-2)" points="111.647428 73.793068 115.973942 73.793068 115.973942 69.8954112 111.647428 69.8954112"></polygon>
            <polygon id="Stroke-1158" stroke="#151616" stroke-width="5.14278159" mask="url(#mask-2)" points="125.407381 74.1193576 128.180898 74.1193576 128.180898 66.992065 125.407381 66.992065"></polygon>
            <polygon id="Fill-1159" fill="#FED132" mask="url(#mask-2)" points="125.403282 74.1271711 128.176718 74.1271711 128.176718 66.9998817 125.403282 66.9998817"></polygon>
            <path d="M126.839036,64.4299412 C128.160385,64.4299412 129.231315,65.505308 129.231315,66.8315232 C129.231315,66.9587633 129.221305,67.0834005 129.202492,67.2052533 L124.475761,67.2052533 C124.456797,67.0834005 124.446788,66.9587633 124.446788,66.8315232 C124.446788,65.505308 125.517718,64.4299412 126.839036,64.4299412 Z" id="Stroke-1160" stroke="#151616" stroke-width="5.78342058" mask="url(#mask-2)"></path>
            <path d="M126.834893,64.4383645 C128.156263,64.4383645 129.227098,65.5137274 129.227098,66.8398721 C129.227098,66.9671711 129.217142,67.091835 129.198406,67.2135914 L124.471653,67.2135914 C124.452736,67.091835 124.442689,66.9671711 124.442689,66.8398721 C124.442689,65.5137274 125.513615,64.4383645 126.834893,64.4383645" id="Fill-1161" fill="#FED132" mask="url(#mask-2)"></path>
            <polygon id="Stroke-1162" stroke="#151616" stroke-width="1.92644765" mask="url(#mask-2)" points="109.872508 68.5589081 117.748861 68.5589081 117.748861 69.8954112 109.872508 69.8954112"></polygon>
            <polygon id="Fill-1163" fill="#FED132" mask="url(#mask-2)" points="109.872508 68.5589081 117.748861 68.5589081 117.748861 69.8954112 109.872508 69.8954112"></polygon>
            <path d="M172.316621,72.8926651 L154.727068,101.377962 L158.013163,101.121446 L173.568472,76.2287087 C173.568472,76.2287087 172.135858,73.4057414 172.316621,72.8926651 Z" id="Stroke-1164" stroke="#151616" stroke-width="2.36311516" stroke-linejoin="round" mask="url(#mask-2)"></path>
            <path d="M172.321623,72.8908898 L154.731907,101.37615 L158.017997,101.119644 L173.57339,76.226832 C173.57339,76.226832 172.140692,73.403902 172.321623,72.8908898" id="Fill-1165" fill="#A49769" mask="url(#mask-2)"></path>
            <polygon id="Stroke-1166" stroke="#151616" stroke-width="0.759524188" stroke-linejoin="round" mask="url(#mask-2)" points="175.188796 26.6407512 177.742218 26.6407512 177.742218 86.3181124 175.188796 86.3181124"></polygon>
            <polygon id="Fill-1167" fill="#A49769" mask="url(#mask-2)" points="175.189191 26.6384711 177.742867 26.6384711 177.742867 86.3158898 175.189191 86.3158898"></polygon>
            <polygon id="Fill-1168" fill="#151616" mask="url(#mask-2)" points="161.280736 54.6532431 162.967136 54.6532431 162.967136 81.4004772 161.280736 81.4004772"></polygon>
            <path d="M172.747477,63.7946914 L144.080307,101.37615 L148.464747,101.037777 L173.75939,68.1960015 C173.75939,68.1960015 172.410324,64.4718929 172.747477,63.7946914 Z" id="Stroke-1169" stroke="#151616" stroke-width="1.92644765" stroke-linejoin="round" mask="url(#mask-2)"></path>
            <path d="M172.747477,63.7946914 L144.080307,101.37615 L148.464747,101.037777 L173.75939,68.1960015 C173.75939,68.1960015 172.410324,64.4718929 172.747477,63.7946914" id="Fill-1170" fill="#FED132" mask="url(#mask-2)"></path>
            <polygon id="Stroke-1171" stroke="#151616" stroke-width="0.759524188" stroke-linejoin="round" mask="url(#mask-2)" points="172.95423 26.6407512 175.507652 26.6407512 175.507652 86.3181124 172.95423 86.3181124"></polygon>
            <polygon id="Fill-1172" fill="#FED132" mask="url(#mask-2)" points="172.954747 26.6384711 175.508423 26.6384711 175.508423 86.3158898 172.954747 86.3158898"></polygon>
            <polygon id="Stroke-1173" stroke="#151616" stroke-width="2.05076968" stroke-linejoin="round" mask="url(#mask-2)" points="185.425741 37.518551 174.748884 27.1155206 174.748739 28.8208065 185.42583 39.2238902"></polygon>
            <polygon id="Fill-1174" fill="#151616" mask="url(#mask-2)" points="185.421364 37.5233975 174.74433 27.1204081 174.74433 28.8257239 185.421364 39.2287132"></polygon>
            <polygon id="Stroke-1175" stroke="#151616" stroke-width="2.05076968" stroke-linejoin="round" mask="url(#mask-2)" points="185.42562 62.6097669 174.748781 52.2066583 174.748619 53.9120224 185.42562 64.3149622"></polygon>
            <polygon id="Fill-1176" fill="#151616" mask="url(#mask-2)" points="185.421364 62.6145635 174.74433 52.2115741 174.74433 53.9168898 185.421364 64.3198792"></polygon>
            <polygon id="Stroke-1177" stroke="#151616" stroke-width="2.05076968" stroke-linejoin="round" mask="url(#mask-2)" points="185.425558 75.2773238 174.748701 64.8742933 174.748556 66.5795793 185.425558 76.9825191"></polygon>
            <polygon id="Fill-1178" fill="#151616" mask="url(#mask-2)" points="185.421364 75.2820391 174.74433 64.8790497 174.74433 66.5843655 185.421364 76.9874457"></polygon>
            <polygon id="Fill-1179" fill="#151616" mask="url(#mask-2)" points="164.125585 95.9649893 161.560143 95.9649893 161.560143 106.730704 164.125585 106.730704"></polygon>
            <polyline id="Stroke-1180" stroke="#151616" stroke-width="0.770579061" stroke-linejoin="round" mask="url(#mask-2)" points="102.597328 96.9290452 106.438613 97.0897817 111.560447 97.5717188 112.040788 103.19559 104.03772 103.356326"></polyline>
            <polygon id="Stroke-1181" stroke="#151616" stroke-width="1.28426823" mask="url(#mask-2)" points="195.671457 105.364852 99.6360818 105.364852 99.6360818 101.829738 195.671457 101.829738"></polygon>
            <polygon id="Fill-1182" fill="#FED132" mask="url(#mask-2)" points="195.671457 105.364852 99.6360818 105.364852 99.6360818 101.829738 195.671457 101.829738"></polygon>
            <polygon id="Stroke-1183" stroke="#151616" stroke-width="3.41976173" stroke-linejoin="round" mask="url(#mask-2)" points="91.4783578 105.427951 99.553064 105.427951 99.553064 98.8592133 91.4783578 98.8592133"></polygon>
            <polygon id="Fill-1184" fill="#FFDC64" mask="url(#mask-2)" points="91.4738949 105.434907 99.5485577 105.434907 99.5485577 98.8662431 91.4738949 98.8662431"></polygon>
            <polyline id="Stroke-1185" stroke="#151616" stroke-width="0.642179422" stroke-linejoin="round" mask="url(#mask-2)" points="86.4621226 95.6517848 88.6894161 95.6517848 88.6894161 100.12415 90.9168905 100.12415"></polyline>
            <path d="M41.3564438,111.025068 C41.3564438,111.025068 41.9134482,113.540972 43.8623299,114.379274 C45.8112117,115.217666 47.6213401,114.798334 48.4563942,114.099597 C49.2915387,113.400861 50.9622803,111.025068 50.9622803,111.025068 L41.3564438,111.025068 Z" id="Stroke-1186" stroke="#151616" stroke-width="1.28426823" stroke-linejoin="round" mask="url(#mask-2)"></path>
            <path d="M41.3564438,111.025068 C41.3564438,111.025068 41.9134482,113.540972 43.8623299,114.379274 C45.8112117,115.217666 47.6213401,114.798334 48.4563942,114.099597 C49.2915387,113.400861 50.9622803,111.025068 50.9622803,111.025068 L41.3564438,111.025068 Z" id="Fill-1187" fill="#151616" mask="url(#mask-2)"></path>
            <path d="M41.9131766,102.919276 L42.3308847,102.919276 C43.020035,102.919276 43.5837372,103.485079 43.5837372,104.17691 L43.5837372,105.155413 C43.5837372,105.847243 43.020035,106.413138 42.3308847,106.413138 L41.9131766,106.413138 C41.2241168,106.413138 40.6604146,105.847243 40.6604146,105.155413 L40.6604146,104.17691 C40.6604146,103.485079 41.2241168,102.919276 41.9131766,102.919276 Z" id="Stroke-1188" stroke="#151616" stroke-width="1.28426823" stroke-linejoin="round" mask="url(#mask-2)"></path>
            <path d="M41.9131766,102.919276 L42.3308847,102.919276 C43.020035,102.919276 43.5837372,103.485079 43.5837372,104.17691 L43.5837372,105.155413 C43.5837372,105.847243 43.020035,106.413138 42.3308847,106.413138 L41.9131766,106.413138 C41.2241168,106.413138 40.6604146,105.847243 40.6604146,105.155413 L40.6604146,104.17691 C40.6604146,103.485079 41.2241168,102.919276 41.9131766,102.919276" id="Fill-1189" fill="#151616" mask="url(#mask-2)"></path>
            <path d="M88.0628088,68.6088827 L57.9924467,68.6088827 L58.656254,71.0956198 L53.815819,84.8207401 C53.815819,84.8207401 45.4632876,84.8204675 45.1846949,89.572236 C44.9061022,94.3240954 45.1846949,106.622486 45.1846949,106.622486 L52.4236701,106.902253 L87.2274832,105.784093 L86.6707504,89.8517305 L88.3412204,88.4541675 L88.0628088,68.6088827 Z" id="Stroke-1190" stroke="#151616" stroke-width="1.92644765" stroke-linejoin="round" mask="url(#mask-2)"></path>
            <path d="M88.0628088,68.6088827 L57.9924467,68.6088827 L58.656254,71.0956198 L53.815819,84.8207401 C53.815819,84.8207401 45.4632876,84.8204675 45.1846949,89.572236 C44.9061022,94.3240954 45.1846949,106.622486 45.1846949,106.622486 L52.4236701,106.902253 L87.2274832,105.784093 L86.6707504,89.8517305 L88.3412204,88.4541675 L88.0628088,68.6088827 Z" id="Fill-1191" fill="#FED132" mask="url(#mask-2)"></path>
            <path d="M79.2228759,68.6789381 L79.2228759,98.7265868" id="Stroke-1192" stroke="#151616" stroke-width="0.642179422" stroke-linejoin="round" mask="url(#mask-2)"></path>
            <polyline id="Stroke-1193" stroke="#151616" stroke-width="0.642179422" stroke-linejoin="round" mask="url(#mask-2)" points="65.579708 68.5390091 59.5934949 82.7942239 59.5934949 98.5867487 79.5011971 98.8662431"></polyline>
            <path d="M45.1151825,89.2229589 L59.5934949,89.2229589" id="Stroke-1194" stroke="#151616" stroke-width="1.28426823" stroke-linejoin="round" mask="url(#mask-2)"></path>
            <path d="M45.1151825,94.9530487 L59.4543796,94.9530487" id="Stroke-1195" stroke="#151616" stroke-width="1.28426823" stroke-linejoin="round" mask="url(#mask-2)"></path>
            <path d="M56.6701723,68.9583416 L89.664038,68.9583416 C89.664038,68.9583416 89.9421781,66.5825482 87.5755883,65.1850761 C85.2090891,63.7875132 84.0952613,64.0669168 84.0952613,64.0669168 L63.2131182,64.0669168 C63.2131182,64.0669168 59.8718161,64.4862492 58.4796672,65.8838122 C57.0876088,67.2813751 56.6701723,68.9583416 56.6701723,68.9583416 Z" id="Stroke-1196" stroke="#151616" stroke-width="1.92644765" stroke-linejoin="round" mask="url(#mask-2)"></path>
            <path d="M56.6701723,68.9583416 L89.664038,68.9583416 C89.664038,68.9583416 89.9421781,66.5825482 87.5755883,65.1850761 C85.2090891,63.7875132 84.0952613,64.0669168 84.0952613,64.0669168 L63.2131182,64.0669168 C63.2131182,64.0669168 59.8718161,64.4862492 58.4796672,65.8838122 C57.0876088,67.2813751 56.6701723,68.9583416 56.6701723,68.9583416" id="Fill-1197" fill="#FED132" mask="url(#mask-2)"></path>
            <path d="M49.5702219,106.692541 C49.5702219,106.692541 54.1640146,102.359832 55.973781,101.241946 C57.783638,100.12415 59.1757869,99.0058086 61.681673,98.8662431 C64.1875591,98.7265868 73.5149839,98.8662431 73.5149839,98.8662431 C73.5149839,98.8662431 78.9441927,98.4469107 80.1973168,99.8444736 C81.4503504,101.241946 86.1835299,106.972036 86.1835299,106.972036 C86.1835299,106.972036 49.1525139,106.832379 49.5702219,106.692541 Z" id="Stroke-1198" stroke="#151616" stroke-width="1.92644765" stroke-linejoin="round" mask="url(#mask-2)"></path>
            <path d="M49.5702219,106.692541 C49.5702219,106.692541 54.1640146,102.359832 55.973781,101.241946 C57.783638,100.12415 59.1757869,99.0058086 61.681673,98.8662431 C64.1875591,98.7265868 73.5149839,98.8662431 73.5149839,98.8662431 C73.5149839,98.8662431 78.9441927,98.4469107 80.1973168,99.8444736 C81.4503504,101.241946 86.1835299,106.972036 86.1835299,106.972036 C86.1835299,106.972036 49.1525139,106.832379 49.5702219,106.692541" id="Fill-1199" fill="#979898" mask="url(#mask-2)"></path>
            <path d="M39.8252996,105.574473 L194.795025,105.574473 C195.101448,105.574473 195.351499,105.82589 195.351499,106.133371 L195.351499,110.745574 C195.351499,111.053145 195.101448,111.304472 194.795025,111.304472 L39.8252996,111.304472 C39.5188769,111.304472 39.2684237,111.053145 39.2684237,110.745574 L39.2684237,106.133371 C39.2684237,105.82589 39.5188769,105.574473 39.8252996,105.574473 Z" id="Stroke-1200" stroke="#151616" stroke-width="1.73380289" stroke-linejoin="round" mask="url(#mask-2)"></path>
            <path d="M39.8249985,105.574473 L194.794496,105.574473 C195.101057,105.574473 195.351229,105.82589 195.351229,106.133371 L195.351229,110.745574 C195.351229,111.053145 195.101057,111.304472 194.794496,111.304472 L39.8249985,111.304472 C39.518438,111.304472 39.2682657,111.053145 39.2682657,110.745574 L39.2682657,106.133371 C39.2682657,105.82589 39.518438,105.574473 39.8249985,105.574473" id="Fill-1201" fill="#818181" mask="url(#mask-2)"></path>
            <polygon id="Stroke-1202" stroke="#151616" stroke-width="2.09027726" stroke-linejoin="round" mask="url(#mask-2)" points="59.4544628 88.8086463 44.9758789 88.8086463 44.9758789 95.3772648 59.4544628 95.3772648"></polygon>
            <polygon id="Fill-1203" fill="#FED132" mask="url(#mask-2)" points="59.4543796 88.8037173 44.9758861 88.8037173 44.9758861 95.3723812 59.4543796 95.3723812"></polygon>
            <polygon id="Stroke-1204" stroke="#151616" stroke-width="1.35367834" stroke-linejoin="round" mask="url(#mask-2)" points="59.4551409 84.6110775 80.0590346 84.6110775 80.0590346 98.8661886 59.4551409 98.8661886"></polygon>
            <polygon id="Fill-1205" fill="#FED132" mask="url(#mask-2)" points="59.4543796 84.6110284 80.0582015 84.6110284 80.0582015 98.8662431 59.4543796 98.8662431"></polygon>
            <path d="M87.7149752,84.7509574 L80.0582015,84.7509574" id="Stroke-1206" stroke="#151616" stroke-width="0.642179422" stroke-linejoin="round" mask="url(#mask-2)"></path>
            <path d="M68.7121109,101.10238 C76.7467679,101.10238 83.2599358,107.640878 83.2599358,115.706781 C83.2599358,123.772685 76.7467679,130.311182 68.7121109,130.311182 C60.677454,130.311182 54.1642861,123.772685 54.1642861,115.706781 C54.1642861,107.640878 60.677454,101.10238 68.7121109,101.10238 Z" id="Stroke-1207" stroke="#151616" stroke-width="1.92644765" stroke-linejoin="round" mask="url(#mask-2)"></path>
            <path d="M68.7121109,101.10238 C76.7467679,101.10238 83.2599358,107.640878 83.2599358,115.706781 C83.2599358,123.772685 76.7467679,130.311182 68.7121109,130.311182 C60.677454,130.311182 54.1642861,123.772685 54.1642861,115.706781 C54.1642861,107.640878 60.677454,101.10238 68.7121109,101.10238" id="Fill-1208" fill="#4E4E4D" mask="url(#mask-2)"></path>
            <path d="M68.7158694,107.103559 C73.4444257,107.103559 77.2775553,110.951596 77.2775553,115.698541 C77.2775553,120.445487 73.4444257,124.293523 68.7158694,124.293523 C63.9873664,124.293523 60.1541835,120.445487 60.1541835,115.698541 C60.1541835,110.951596 63.9873664,107.103559 68.7158694,107.103559 Z" id="Stroke-1209" stroke="#151616" stroke-width="3.27342058" stroke-linejoin="round" mask="url(#mask-2)"></path>
            <path d="M68.7121109,107.111874 C73.4405839,107.111874 77.2737226,110.959919 77.2737226,115.706781 C77.2737226,120.453734 73.4405839,124.301689 68.7121109,124.301689 C63.9835474,124.301689 60.1504993,120.453734 60.1504993,115.706781 C60.1504993,110.959919 63.9835474,107.111874 68.7121109,107.111874" id="Fill-1210" fill="#818181" mask="url(#mask-2)"></path>
            <polygon id="Stroke-1211" stroke="#151616" stroke-width="5.34285668" stroke-linejoin="round" mask="url(#mask-2)" points="90.7825093 87.838724 96.0028565 87.838724 96.0028565 98.8793006 90.7825093 98.8793006"></polygon>
            <polygon id="Fill-1212" fill="#FFDC64" mask="url(#mask-2)" points="90.7778657 87.8254868 95.9981752 87.8254868 95.9981752 98.8662431 90.7778657 98.8662431"></polygon>
            <polygon id="Stroke-1213" stroke="#151616" stroke-width="5.34285668" stroke-linejoin="round" mask="url(#mask-2)" points="101.223595 87.838724 96.0031502 87.838724 96.0031502 98.8793006 101.223595 98.8793006"></polygon>
            <polygon id="Fill-1214" fill="#FFDC64" mask="url(#mask-2)" points="101.218847 87.8254868 95.9984467 87.8254868 95.9984467 98.8662431 101.218847 98.8662431"></polygon>
            <polygon id="Stroke-1215" stroke="#151616" stroke-width="1.92644765" stroke-linejoin="round" mask="url(#mask-2)" points="96.4853956 88.1048904 96.4853956 83.632798 90.9168905 88.5242228"></polygon>
            <polygon id="Fill-1216" fill="#FFDC64" mask="url(#mask-2)" points="96.4853956 88.1048904 96.4853956 83.632798 90.9168905 88.5242228"></polygon>
            <polygon id="Stroke-1217" stroke="#151616" stroke-width="1.81082455" mask="url(#mask-2)" points="101.636736 74.1151549 103.077399 74.1151549 103.077399 104.796377 101.636736 104.796377"></polygon>
            <polygon id="Fill-1218" fill="#FED132" mask="url(#mask-2)" points="101.636736 74.1122695 103.077399 74.1122695 103.077399 104.793506 101.636736 104.793506"></polygon>
            <path d="M109.159553,82.3069259 L103.397536,74.1122695 L138.770663,74.7548523 C138.770663,74.7548523 140.691305,75.0760528 140.851419,75.8796447 C141.011533,76.6832365 140.371077,81.6642523 140.371077,81.6642523 L139.57087,82.1461893 L109.159553,82.3069259 Z" id="Stroke-1219" stroke="#151616" stroke-width="1.28426823" mask="url(#mask-2)"></path>
            <path d="M109.159553,82.3069259 L103.397536,74.1122695 L138.770663,74.7548523 C138.770663,74.7548523 140.691305,75.0760528 140.851419,75.8796447 C141.011533,76.6832365 140.371077,81.6642523 140.371077,81.6642523 L139.57087,82.1461893 L109.159553,82.3069259 Z" id="Fill-1220" fill="#FED132" mask="url(#mask-2)"></path>
            <polyline id="Stroke-1221" stroke="#151616" stroke-width="0.770579061" stroke-linejoin="round" mask="url(#mask-2)" points="109.056914 74.3821325 108.736958 82.7890447 106.015836 86.3241584 102.814645 87.4488599"></polyline>
            <polyline id="Stroke-1222" stroke="#151616" stroke-width="0.770579061" stroke-linejoin="round" mask="url(#mask-2)" points="113.161223 82.4675716 112.680882 87.1274777 111.720561 89.2163259 111.560447 96.1254533 105.478292 95.8042528 103.717764 91.9477569"></polyline>
            <polyline id="Stroke-1223" stroke="#151616" stroke-width="0.770579061" stroke-linejoin="round" mask="url(#mask-2)" points="111.880674 98.2143015 116.202301 98.3750381 117.962829 97.4109822 118.603194 92.7513487 117.802715 88.4130066 116.522528 87.1274777 112.680882 87.1274777"></polyline>
            <path d="M112.840996,87.2882142 L134.929288,87.2882142" id="Stroke-1224" stroke="#151616" stroke-width="0.642179422" stroke-linejoin="round" mask="url(#mask-2)"></path>
            <polygon id="Stroke-1225" stroke="#151616" stroke-width="0.770579061" stroke-linejoin="round" mask="url(#mask-2)" points="134.60915 81.9857254 134.60915 101.370789 137.33 101.370789 137.33 91.3051741 140.051212 88.5734706 140.051212 82.1461893"></polygon>
            <polygon id="Stroke-1226" stroke="#151616" stroke-width="1.28426823" stroke-linejoin="round" mask="url(#mask-2)" points="141.10666 81.2583675 141.455127 76.8156239 145.653296 76.6832365 144.212634 81.5035157"></polygon>
            <polygon id="Fill-1227" fill="#FED132" mask="url(#mask-2)" points="141.10666 81.2583675 141.455127 76.8156239 145.653296 76.6832365 144.212634 81.5035157"></polygon>
            <path d="M139.730984,85.5204756 L142.932175,85.5204756" id="Stroke-1228" stroke="#151616" stroke-width="0.642179422" stroke-linejoin="round" mask="url(#mask-2)"></path>
            <polygon id="Fill-1229" fill="#151616" mask="url(#mask-2)" points="147.776412 95.9649893 145.210969 95.9649893 145.210969 106.730704 147.776412 106.730704"></polygon>
            <path d="M102.27869,71.0558255 C103.339563,71.0558255 104.199652,71.9192585 104.199652,72.9843357 C104.199652,74.0491014 103.339563,74.9123786 102.27869,74.9123786 C101.217971,74.9123786 100.358116,74.0491014 100.358116,72.9843357 C100.358116,71.9192585 101.217971,71.0558255 102.27869,71.0558255 Z" id="Stroke-1230" stroke="#151616" stroke-width="2.24749206" mask="url(#mask-2)"></path>
            <path d="M102.277101,71.0592746 C103.33807,71.0592746 104.198015,71.9226543 104.198015,72.9876589 C104.198015,74.0524817 103.33807,74.9158614 102.277101,74.9158614 C101.216493,74.9158614 100.356458,74.0524817 100.356458,72.9876589 C100.356458,71.9226543 101.216493,71.0592746 102.277101,71.0592746" id="Fill-1231" fill="#FED132" mask="url(#mask-2)"></path>
            <polygon id="Stroke-1232" stroke="#151616" stroke-width="1.92644765" stroke-linejoin="round" mask="url(#mask-2)" points="115.562117 83.5941921 129.967296 83.5941921 129.967296 88.2347383 115.562117 88.2347383"></polygon>
            <polygon id="Fill-1233" fill="#FFDC64" mask="url(#mask-2)" points="115.562117 83.592364 129.967296 83.592364 129.967296 88.2329162 115.562117 88.2329162"></polygon>
            <path d="M116.039647,88.2501747 L130.766299,88.2501747 C131.470118,88.2501747 132.046207,88.8285233 132.046207,89.5354301 L132.046207,92.1073583 C132.046207,92.8142652 131.470118,93.3921776 130.766299,93.3921776 L116.039647,93.3921776 C115.335828,93.3921776 114.759847,92.8142652 114.759847,92.1073583 L114.759847,89.5354301 C114.759847,88.8285233 115.335828,88.2501747 116.039647,88.2501747 Z" id="Stroke-1234" stroke="#151616" stroke-width="1.60540325" stroke-linejoin="round" mask="url(#mask-2)"></path>
            <path d="M116.041463,88.2519975 L130.768318,88.2519975 C131.472131,88.2519975 132.048053,88.8302492 132.048053,89.5369812 L132.048053,92.1090386 C132.048053,92.8157706 131.472131,93.3940223 130.768318,93.3940223 L116.041463,93.3940223 C115.33765,93.3940223 114.761638,92.8157706 114.761638,92.1090386 L114.761638,89.5369812 C114.761638,88.8302492 115.33765,88.2519975 116.041463,88.2519975" id="Fill-1235" fill="#FFDC64" mask="url(#mask-2)"></path>
            <path d="M103.477095,115.957654 L127.486301,115.957654 C128.36661,115.957654 129.086806,116.68065 129.086806,117.564383 L129.086806,117.564565 C129.086806,118.448298 128.36661,119.171294 127.486301,119.171294 L103.477095,119.171294 C102.596785,119.171294 101.87668,118.448298 101.87668,117.564565 L101.87668,117.564383 C101.87668,116.68065 102.596785,115.957654 103.477095,115.957654 Z" id="Stroke-1236" stroke="#151616" stroke-width="1.28426823" stroke-linejoin="round" mask="url(#mask-2)"></path>
            <path d="M103.477095,115.957654 L127.486301,115.957654 C128.36661,115.957654 129.086806,116.68065 129.086806,117.564383 L129.086806,117.564565 C129.086806,118.448298 128.36661,119.171294 127.486301,119.171294 L103.477095,119.171294 C102.596785,119.171294 101.87668,118.448298 101.87668,117.564565 L101.87668,117.564383 C101.87668,116.68065 102.596785,115.957654 103.477095,115.957654" id="Fill-1237" fill="#676766" mask="url(#mask-2)"></path>
            <path d="M93.8735212,107.293236 L116.282041,107.293236 C117.866616,107.293236 119.163095,108.594666 119.163095,110.185404 L119.163095,115.005955 C119.163095,116.596693 117.866616,117.898123 116.282041,117.898123 L93.8735212,117.898123 C92.2890365,117.898123 90.9925577,116.596693 90.9925577,115.005955 L90.9925577,110.185404 C90.9925577,108.594666 92.2890365,107.293236 93.8735212,107.293236 Z" id="Stroke-1238" stroke="#151616" stroke-width="1.92644765" mask="url(#mask-2)"></path>
            <path d="M93.8735212,107.293236 L116.282041,107.293236 C117.866616,107.293236 119.163095,108.594666 119.163095,110.185404 L119.163095,115.005955 C119.163095,116.596693 117.866616,117.898123 116.282041,117.898123 L93.8735212,117.898123 C92.2890365,117.898123 90.9925577,116.596693 90.9925577,115.005955 L90.9925577,110.185404 C90.9925577,108.594666 92.2890365,107.293236 93.8735212,107.293236" id="Fill-1239" fill="#AEAFB0" mask="url(#mask-2)"></path>
            <path d="M126.52598,108.436292 C129.001092,108.436292 131.00772,110.450632 131.00772,112.935371 C131.00772,115.420109 129.001092,117.43454 126.52598,117.43454 C124.050958,117.43454 122.04433,115.420109 122.04433,112.935371 C122.04433,110.450632 124.050958,108.436292 126.52598,108.436292 Z" id="Stroke-1240" stroke="#151616" stroke-width="1.92644765" mask="url(#mask-2)"></path>
            <path d="M126.52598,108.436292 C129.001092,108.436292 131.00772,110.450632 131.00772,112.935371 C131.00772,115.420109 129.001092,117.43454 126.52598,117.43454 C124.050958,117.43454 122.04433,115.420109 122.04433,112.935371 C122.04433,110.450632 124.050958,108.436292 126.52598,108.436292" id="Fill-1241" fill="#818181" mask="url(#mask-2)"></path>
            <path d="M90.6720762,112.434988 L131.326918,112.434988" id="Stroke-1242" stroke="#151616" stroke-width="0.642179422" mask="url(#mask-2)"></path>
            <polygon id="Fill-1243" fill="#151616" mask="url(#mask-2)" points="130.973054 95.9649893 128.407702 95.9649893 128.407702 106.730704 130.973054 106.730704"></polygon>
            <polygon id="Fill-1244" fill="#FED132" mask="url(#mask-2)" points="99.7961051 103.838263 153.802902 103.838263 153.411352 106.730704 99.6004204 106.730704"></polygon>
            <polygon id="Stroke-1245" stroke="#151616" stroke-width="0.51368917" mask="url(#mask-2)" points="99.7961051 103.838263 153.802902 103.838263 153.411352 106.730704 99.6004204 106.730704"></polygon>
            <path d="M162.821413,101.10238 C170.85607,101.10238 177.369238,107.640878 177.369238,115.706781 C177.369238,123.772685 170.85607,130.311182 162.821413,130.311182 C154.786847,130.311182 148.273588,123.772685 148.273588,115.706781 C148.273588,107.640878 154.786847,101.10238 162.821413,101.10238 Z" id="Stroke-1246" stroke="#151616" stroke-width="1.92644765" stroke-linejoin="round" mask="url(#mask-2)"></path>
            <path d="M162.821413,101.10238 C170.85607,101.10238 177.369238,107.640878 177.369238,115.706781 C177.369238,123.772685 170.85607,130.311182 162.821413,130.311182 C154.786847,130.311182 148.273588,123.772685 148.273588,115.706781 C148.273588,107.640878 154.786847,101.10238 162.821413,101.10238" id="Fill-1247" fill="#4E4E4D" mask="url(#mask-2)"></path>
            <path d="M162.825912,107.103559 C167.554468,107.103559 171.387598,110.951596 171.387598,115.698541 C171.387598,120.445487 167.554468,124.293523 162.825912,124.293523 C158.097356,124.293523 154.264226,120.445487 154.264226,115.698541 C154.264226,110.951596 158.097356,107.103559 162.825912,107.103559 Z" id="Stroke-1248" stroke="#151616" stroke-width="3.27342058" stroke-linejoin="round" mask="url(#mask-2)"></path>
            <path d="M162.821413,107.111874 C167.549977,107.111874 171.383025,110.959919 171.383025,115.706781 C171.383025,120.453734 167.549977,124.301689 162.821413,124.301689 C158.09294,124.301689 154.259801,120.453734 154.259801,115.706781 C154.259801,110.959919 158.09294,107.111874 162.821413,107.111874" id="Fill-1249" fill="#818181" mask="url(#mask-2)"></path>
            <polygon id="Stroke-1250" stroke="#151616" stroke-width="1.44229856" mask="url(#mask-2)" points="194.894723 97.7589118 194.894723 95.1835523 126.683212 95.1835523 126.683212 97.7589118"></polygon>
            <polygon id="Fill-1251" fill="#FAE016" mask="url(#mask-2)" points="194.896593 97.7563523 194.896593 95.1810239 126.684826 95.1810239 126.684826 97.7563523"></polygon>
            <polyline id="Stroke-1252" stroke="#151616" stroke-width="0.642179422" stroke-linejoin="round" mask="url(#mask-2)" points="59.6927854 83.620168 61.9936642 80.9255365 62.7605635 81.6954183 60.6515679 84.1013782"></polyline>
            <polygon id="Stroke-1253" stroke="#151616" stroke-width="0.759524188" stroke-linejoin="round" mask="url(#mask-2)" points="194.338122 3.86843153 196.015426 3.86843153 196.015426 91.0679884 194.338122 91.0679884"></polygon>
            <polygon id="Fill-1254" fill="#151616" mask="url(#mask-2)" points="194.341127 3.86721777 196.018566 3.86721777 196.018566 91.0669315 194.341127 91.0669315"></polygon>
            <polygon id="Stroke-1255" stroke="#151616" stroke-width="1.28426823" stroke-linejoin="round" mask="url(#mask-2)" points="195.613439 3.73455787 175.472762 27.8511279 173.046164 27.3640117 194.40014 1.29852234"></polygon>
            <polygon id="Fill-1256" fill="#A49769" mask="url(#mask-2)" points="195.613439 3.73455787 175.472762 27.8511279 173.046164 27.3640117 194.40014 1.29852234"></polygon>
            <polygon id="Stroke-1257" stroke="#151616" stroke-width="1.28426823" stroke-linejoin="round" mask="url(#mask-2)" points="180.083209 0.567620812 173.531574 27.1204081 175.715422 27.3640117 182.509807 0.0805045685"></polygon>
            <polygon id="Fill-1258" fill="#FED132" mask="url(#mask-2)" points="180.083209 0.567620812 173.531574 27.1204081 175.715422 27.3640117 182.509807 0.0805045685"></polygon>
            <polygon id="Stroke-1259" stroke="#151616" stroke-width="1.26832022" stroke-linejoin="round" mask="url(#mask-2)" points="185.217635 12.2600217 188.2528 12.2600217 188.2528 86.3158252 185.217635 86.3158252"></polygon>
            <polygon id="Fill-1260" fill="#FED132" mask="url(#mask-2)" points="185.218166 12.2605005 188.253361 12.2605005 188.253361 86.3158898 185.218166 86.3158898"></polygon>
            <path d="M196.446017,79.9906635 L184.573379,79.9906635 C183.973496,79.9906635 183.483203,80.4830469 183.483203,81.0850529 L183.483203,82.909988 C183.483203,83.5117899 183.973496,84.0042413 184.573379,84.0042413 L196.446017,84.0042413 C197.045512,84.0042413 197.536193,83.5117899 197.536193,82.909988 L197.536193,81.0850529 C197.536193,80.4830469 197.045512,79.9906635 196.446017,79.9906635 Z" id="Stroke-1261" stroke="#151616" stroke-width="1.8005852" stroke-linejoin="round" mask="url(#mask-2)"></path>
            <path d="M196.443153,79.9839239 L184.570561,79.9839239 C183.971016,79.9839239 183.480447,80.476401 183.480447,81.0782772 L183.480447,82.9031685 C183.480447,83.5050447 183.971016,83.9975218 184.570561,83.9975218 L196.443153,83.9975218 C197.042788,83.9975218 197.533358,83.5050447 197.533358,82.9031685 L197.533358,81.0782772 C197.533358,80.476401 197.042788,79.9839239 196.443153,79.9839239" id="Fill-1262" fill="#FED132" mask="url(#mask-2)"></path>
            <polygon id="Stroke-1263" stroke="#151616" stroke-width="1.92644765" stroke-linejoin="round" mask="url(#mask-2)" points="186.877594 76.8153513 176.200651 76.8153513 176.200651 78.520667 186.877594 78.520667"></polygon>
            <polygon id="Fill-1264" fill="#FED132" mask="url(#mask-2)" points="186.877594 76.8153513 176.200651 76.8153513 176.200651 78.520667 186.877594 78.520667"></polygon>
            <polygon id="Stroke-1265" stroke="#151616" stroke-width="1.28426823" stroke-linejoin="round" mask="url(#mask-2)" points="195.855918 22.4914057 185.178885 22.4914057 185.178885 27.1199266 195.855918 27.1199266"></polygon>
            <polygon id="Fill-1266" fill="#151616" mask="url(#mask-2)" points="195.855918 22.491668 185.178885 22.491668 185.178885 27.1204081 195.855918 27.1204081"></polygon>
            <polygon id="Stroke-1267" stroke="#151616" stroke-width="1.28426823" stroke-linejoin="round" mask="url(#mask-2)" points="195.855918 11.5306034 185.178885 11.5306034 185.178885 14.4538702 195.855918 14.4538702"></polygon>
            <polygon id="Fill-1268" fill="#151616" mask="url(#mask-2)" points="195.855918 11.5297807 185.178885 11.5297807 185.178885 14.4531142 195.855918 14.4531142"></polygon>
            <polygon id="Stroke-1269" stroke="#151616" stroke-width="2.05076968" stroke-linejoin="round" mask="url(#mask-2)" points="185.425725 50.9168285 174.748772 40.5138585 174.748724 42.2190841 185.425581 52.6221145"></polygon>
            <polygon id="Fill-1270" fill="#151616" mask="url(#mask-2)" points="185.421364 50.9216838 174.74433 40.5186036 174.74433 42.2240102 185.421364 52.6269995"></polygon>
            <polygon id="Stroke-1271" stroke="#151616" stroke-width="1.28426823" stroke-linejoin="round" mask="url(#mask-2)" points="186.87532 40.0313056 173.59096 40.0313056 173.59096 41.7366213 186.87532 41.7366213"></polygon>
            <polygon id="Fill-1272" fill="#FED132" mask="url(#mask-2)" points="186.877594 40.0313056 173.593121 40.0313056 173.593121 41.7366213 186.877594 41.7366213"></polygon>
            <polygon id="Stroke-1273" stroke="#151616" stroke-width="1.28426823" stroke-linejoin="round" mask="url(#mask-2)" points="186.87532 51.7241853 173.59096 51.7241853 173.59096 53.4295919 186.87532 53.4295919"></polygon>
            <polygon id="Fill-1274" fill="#FED132" mask="url(#mask-2)" points="186.877594 51.7241853 173.593121 51.7241853 173.593121 53.4295919 186.877594 53.4295919"></polygon>
            <polygon id="Stroke-1275" stroke="#151616" stroke-width="1.28426823" stroke-linejoin="round" mask="url(#mask-2)" points="186.87532 63.6607594 173.59096 63.6607594 173.59096 65.3660751 186.87532 65.3660751"></polygon>
            <polygon id="Fill-1276" fill="#FED132" mask="url(#mask-2)" points="186.877594 63.6607594 173.593121 63.6607594 173.593121 65.3660751 186.877594 65.3660751"></polygon>
            <polygon id="Stroke-1277" stroke="#151616" stroke-width="1.28426823" stroke-linejoin="round" mask="url(#mask-2)" points="186.87532 25.9023904 173.59096 25.9023904 173.59096 27.6077061 186.87532 27.6077061"></polygon>
            <polygon id="Fill-1278" fill="#FED132" mask="url(#mask-2)" points="186.877594 25.9023904 173.593121 25.9023904 173.593121 27.6077061 186.877594 27.6077061"></polygon>
            <polygon id="Stroke-1279" stroke="#151616" stroke-width="1.28426823" stroke-linejoin="round" mask="url(#mask-2)" points="191.469137 8.05968388 176.466751 8.05968388 176.466751 10.6142953 191.469137 10.6142953"></polygon>
            <polygon id="Fill-1280" fill="#FED132" mask="url(#mask-2)" points="191.4684 8.05291015 176.465939 8.05291015 176.465939 10.6077036 191.4684 10.6077036"></polygon>
            <polygon id="Stroke-1281" stroke="#151616" stroke-width="1.28426823" stroke-linejoin="round" mask="url(#mask-2)" points="180.151168 0.323926396 193.46731 0.323926396 194.883593 3.00365635 192.050394 3.49095431 179.017571 3.9779797"></polygon>
            <polygon id="Fill-1282" fill="#FED132" mask="url(#mask-2)" points="180.152721 0.323926396 193.469054 0.323926396 194.88555 3.00365635 192.052286 3.49095431 179.019524 3.9779797"></polygon>
            <path d="M178.062703,8.21465205 C178.611271,8.21465205 179.055619,8.66068763 179.055619,9.2113886 C179.055619,9.76176752 178.611271,10.2079239 178.062703,10.2079239 C177.514496,10.2079239 177.070028,9.76176752 177.070028,9.2113886 C177.070028,8.66068763 177.514496,8.21465205 178.062703,8.21465205 Z" id="Stroke-1283" stroke="#151616" stroke-width="1.49820722" mask="url(#mask-2)"></path>
            <path d="M178.061013,8.21800812 C178.609509,8.21800812 179.053918,8.66414518 179.053918,9.21477462 C179.053918,9.76522234 178.609509,10.2112685 178.061013,10.2112685 C177.512698,10.2112685 177.068289,9.76522234 177.068289,9.21477462 C177.068289,8.66414518 177.512698,8.21800812 178.061013,8.21800812" id="Fill-1284" fill="#EBEBEB" mask="url(#mask-2)"></path>
            <path d="M190.189055,8.21465205 C190.737622,8.21465205 191.18209,8.66068763 191.18209,9.2113886 C191.18209,9.76176752 190.737622,10.2079239 190.189055,10.2079239 C189.640848,10.2079239 189.1965,9.76176752 189.1965,9.2113886 C189.1965,8.66068763 189.640848,8.21465205 190.189055,8.21465205 Z" id="Stroke-1285" stroke="#151616" stroke-width="1.49820722" mask="url(#mask-2)"></path>
            <path d="M190.187308,8.21800812 C190.735895,8.21800812 191.180213,8.66414518 191.180213,9.21477462 C191.180213,9.76522234 190.735895,10.2112685 190.187308,10.2112685 C189.639083,10.2112685 189.194674,9.76522234 189.194674,9.21477462 C189.194674,8.66414518 189.639083,8.21800812 190.187308,8.21800812" id="Fill-1286" fill="#EBEBEB" mask="url(#mask-2)"></path>
            <path d="M186.630543,29.1212012 C187.179111,29.1212012 187.623418,29.5672367 187.623418,30.1179377 C187.623418,30.6683166 187.179111,31.114473 186.630543,31.114473 C186.082176,31.114473 185.637868,30.6683166 185.637868,30.1179377 C185.637868,29.5672367 186.082176,29.1212012 186.630543,29.1212012 Z" id="Stroke-1287" stroke="#151616" stroke-width="1.49820722" mask="url(#mask-2)"></path>
            <path d="M186.62878,29.1244812 C187.177276,29.1244812 187.621685,29.5706183 187.621685,30.1212477 C187.621685,30.6716954 187.177276,31.1178325 186.62878,31.1178325 C186.080464,31.1178325 185.636146,30.6716954 185.636146,30.1212477 C185.636146,29.5706183 186.080464,29.1244812 186.62878,29.1244812" id="Fill-1288" fill="#EBEBEB" mask="url(#mask-2)"></path>
            <path d="M186.630543,43.1470476 C187.179111,43.1470476 187.623418,43.5932442 187.623418,44.1438244 C187.623418,44.6942839 187.179111,45.1403597 186.630543,45.1403597 C186.082176,45.1403597 185.637868,44.6942839 185.637868,44.1438244 C185.637868,43.5932442 186.082176,43.1470476 186.630543,43.1470476 Z" id="Stroke-1289" stroke="#151616" stroke-width="1.49820722" mask="url(#mask-2)"></path>
            <path d="M186.62878,43.1504487 C187.177276,43.1504487 187.621685,43.5964949 187.621685,44.1472152 C187.621685,44.6975721 187.177276,45.1437091 186.62878,45.1437091 C186.080464,45.1437091 185.636146,44.6975721 185.636146,44.1472152 C185.636146,43.5964949 186.080464,43.1504487 186.62878,43.1504487" id="Fill-1290" fill="#EBEBEB" mask="url(#mask-2)"></path>
            <path d="M186.630543,55.0558353 C187.179111,55.0558353 187.623418,55.5019917 187.623418,56.0526926 C187.623418,56.6030715 187.179111,57.0491071 186.630543,57.0491071 C186.082176,57.0491071 185.637868,56.6030715 185.637868,56.0526926 C185.637868,55.5019917 186.082176,55.0558353 186.630543,55.0558353 Z" id="Stroke-1291" stroke="#151616" stroke-width="1.49820722" mask="url(#mask-2)"></path>
            <path d="M186.62878,55.0591279 C187.177276,55.0591279 187.621685,55.505265 187.621685,56.0559853 C187.621685,56.6063421 187.177276,57.0524792 186.62878,57.0524792 C186.080464,57.0524792 185.636146,56.6063421 185.636146,56.0559853 C185.636146,55.505265 186.080464,55.0591279 186.62878,55.0591279" id="Fill-1292" fill="#EBEBEB" mask="url(#mask-2)"></path>
            <path d="M186.630543,67.0020207 C187.179111,67.0020207 187.623418,67.4480966 187.623418,67.9987975 C187.623418,68.5491362 187.179111,68.9953328 186.630543,68.9953328 C186.082176,68.9953328 185.637868,68.5491362 185.637868,67.9987975 C185.637868,67.4480966 186.082176,67.0020207 186.630543,67.0020207 Z" id="Stroke-1293" stroke="#151616" stroke-width="1.49820722" mask="url(#mask-2)"></path>
            <path d="M186.62878,67.0052426 C187.177276,67.0052426 187.621685,67.4513797 187.621685,68.0020091 C187.621685,68.5524569 187.177276,68.998503 186.62878,68.998503 C186.080464,68.998503 185.636146,68.5524569 185.636146,68.0020091 C185.636146,67.4513797 186.080464,67.0052426 186.62878,67.0052426" id="Fill-1294" fill="#EBEBEB" mask="url(#mask-2)"></path>
            <path d="M186.630543,15.8889599 C187.179111,15.8889599 187.623418,16.3351565 187.623418,16.8857367 C187.623418,17.4361961 187.179111,17.882272 186.630543,17.882272 C186.082176,17.882272 185.637868,17.4361961 185.637868,16.8857367 C185.637868,16.3351565 186.082176,15.8889599 186.630543,15.8889599 Z" id="Stroke-1295" stroke="#151616" stroke-width="1.49820722" mask="url(#mask-2)"></path>
            <path d="M186.62878,15.8923832 C187.177276,15.8923832 187.621685,16.3385203 187.621685,16.8891497 C187.621685,17.4395975 187.177276,17.8857345 186.62878,17.8857345 C186.080464,17.8857345 185.636146,17.4395975 185.636146,16.8891497 C185.636146,16.3385203 186.080464,15.8923832 186.62878,15.8923832" id="Fill-1296" fill="#EBEBEB" mask="url(#mask-2)"></path>
            <polygon id="Stroke-1297" stroke="#151616" stroke-width="1.92644765" mask="url(#mask-2)" points="166.945726 76.0969888 168.839486 76.0969888 168.839486 94.6311213 166.945726 94.6311213"></polygon>
            <polygon id="Fill-1298" fill="#FFDC64" mask="url(#mask-2)" points="166.945726 76.0969888 168.839486 76.0969888 168.839486 94.6311213 166.945726 94.6311213"></polygon>
            <polygon id="Stroke-1299" stroke="#151616" stroke-width="1.92644765" mask="url(#mask-2)" points="177.360277 76.0969888 179.254038 76.0969888 179.254038 94.6311213 177.360277 94.6311213"></polygon>
            <polygon id="Fill-1300" fill="#FFDC64" mask="url(#mask-2)" points="177.360277 76.0969888 179.254038 76.0969888 179.254038 94.6311213 177.360277 94.6311213"></polygon>
            <polygon id="Stroke-1301" stroke="#151616" stroke-width="1.92644765" mask="url(#mask-2)" points="170.632811 76.0969888 171.81641 76.0969888 171.81641 94.6311213 170.632811 94.6311213"></polygon>
            <polygon id="Fill-1302" fill="#FFDC64" mask="url(#mask-2)" points="170.635947 76.0969888 171.819469 76.0969888 171.819469 94.6311213 170.635947 94.6311213"></polygon>
            <polygon id="Stroke-1303" stroke="#151616" stroke-width="1.92644765" mask="url(#mask-2)" points="174.893375 76.0969888 176.076973 76.0969888 176.076973 94.6311213 174.893375 94.6311213"></polygon>
            <polygon id="Fill-1304" fill="#FFDC64" mask="url(#mask-2)" points="174.896479 76.0969888 176.08 76.0969888 176.08 94.6311213 174.896479 94.6311213"></polygon>
            <path d="M174.821758,72.8841523 L197.855862,92.5777874 L194.569658,92.3212414 L174.279985,75.0320442 C174.279985,75.0320442 175.002769,73.3971753 174.821758,72.8841523 Z" id="Stroke-1305" stroke="#151616" stroke-width="1.28426823" stroke-linejoin="round" mask="url(#mask-2)"></path>
            <path d="M174.825156,72.8908898 L197.858926,92.5842518 L194.572835,92.3276548 L174.283267,75.0387081 C174.283267,75.0387081 175.005997,73.403902 174.825156,72.8908898" id="Fill-1306" fill="#FED132" mask="url(#mask-2)"></path>
            <path d="M173.114137,67.6550944 C177.080599,67.6550944 180.295909,70.8829096 180.295909,74.8647964 C180.295909,75.2462391 180.266131,75.6210487 180.2092,75.9864995 L166.019074,75.9864995 C165.962053,75.6210487 165.932274,75.2462391 165.932274,74.8647964 C165.932274,70.8829096 169.147585,67.6550944 173.114137,67.6550944 Z" id="Stroke-1307" stroke="#151616" stroke-width="1.28426823" mask="url(#mask-2)"></path>
            <path d="M173.114137,67.6550944 C177.080599,67.6550944 180.295909,70.8829096 180.295909,74.8647964 C180.295909,75.2462391 180.266131,75.6210487 180.2092,75.9864995 L166.019074,75.9864995 C165.962053,75.6210487 165.932274,75.2462391 165.932274,74.8647964 C165.932274,70.8829096 169.147585,67.6550944 173.114137,67.6550944" id="Fill-1308" fill="#FED132" mask="url(#mask-2)"></path>
            <polygon id="Stroke-1309" stroke="#151616" stroke-width="1.92644765" mask="url(#mask-2)" points="197.71628 92.4924802 194.63927 92.4924802 194.63927 123.620489 197.71628 123.620489"></polygon>
            <polygon id="Fill-1310" fill="#FED132" mask="url(#mask-2)" points="197.71628 92.4924802 194.63927 92.4924802 194.63927 123.620489 197.71628 123.620489"></polygon>
            <polygon id="Stroke-1311" stroke="#151616" stroke-width="1.92644765" mask="url(#mask-2)" points="191.447244 124.095703 201.388484 124.095703 201.388484 131.699477 191.447244 131.699477"></polygon>
            <polygon id="Fill-1312" fill="#FED132" mask="url(#mask-2)" points="191.445048 124.095703 201.386228 124.095703 201.386228 131.699477 191.445048 131.699477"></polygon>
            <polygon id="Stroke-1313" stroke="#151616" stroke-width="6.84958159" mask="url(#mask-2)" points="191.43998 124.087769 201.381132 124.087769 201.381132 126.226331 191.43998 126.226331"></polygon>
            <polygon id="Fill-1314" fill="#FAE016" mask="url(#mask-2)" points="191.445048 124.095703 201.386228 124.095703 201.386228 126.234253 191.445048 126.234253"></polygon>
            <polygon id="Fill-1315" fill="#151616" mask="url(#mask-2)" points="186.877594 51.7241853 197.71628 51.7241853 197.71628 53.4295919 186.877594 53.4295919"></polygon>
            <polygon id="Fill-1316" fill="#151616" mask="url(#mask-2)" points="186.877594 50.8986954 197.71628 50.8986954 197.71628 51.567901 186.877594 51.567901"></polygon>
            <polygon id="Fill-1317" fill="#151616" mask="url(#mask-2)" points="186.877594 53.5916005 197.71628 53.5916005 197.71628 54.2607152 186.877594 54.2607152"></polygon>
            <polygon id="Fill-1318" fill="#151616" mask="url(#mask-2)" points="186.877594 63.6486746 197.71628 63.6486746 197.71628 65.3539904 186.877594 65.3539904"></polygon>
            <polygon id="Fill-1319" fill="#151616" mask="url(#mask-2)" points="186.877594 62.8231848 197.71628 62.8231848 197.71628 63.4922995 186.877594 63.4922995"></polygon>
            <polygon id="Fill-1320" fill="#151616" mask="url(#mask-2)" points="186.877594 65.515999 197.71628 65.515999 197.71628 66.1852046 186.877594 66.1852046"></polygon>
            <polygon id="Fill-1321" fill="#151616" mask="url(#mask-2)" points="184.973606 20.7363777 197.71628 20.7363777 197.71628 21.4055832 184.973606 21.4055832"></polygon>
            <polygon id="Stroke-1322" stroke="#151616" stroke-width="1.28426823" mask="url(#mask-2)" points="197.71628 141.853684 194.63927 141.853684 194.63927 167.882646 196.074774 172.981602 197.71628 167.986684"></polygon>
            <polygon id="Fill-1323" fill="#151616" mask="url(#mask-2)" points="197.71628 141.853684 194.63927 141.853684 194.63927 167.882646 196.074774 172.981602 197.71628 167.986684"></polygon>
            <path d="M79.0384146,69.6764315 L65.1175591,69.6764315 L59.7248263,82.770236 L59.5993781,84.4067685 L78.9128759,84.029233 C78.9128759,84.029233 79.0384146,69.5504954 79.0384146,69.6764315 Z" id="Fill-1324" fill="#FEFEFE" mask="url(#mask-2)"></path>
            <path d="M79.0384146,69.6764315 L65.1175591,69.6764315 L59.7248263,82.770236 L59.5993781,84.4067685 L78.9128759,84.029233 C78.9128759,84.029233 79.0384146,69.5504954 79.0384146,69.6764315 Z" id="Stroke-1325" stroke="#151616" stroke-width="0.51368917" mask="url(#mask-2)"></path>
            <polygon id="Stroke-1326" stroke="#151616" stroke-width="0.642179422" stroke-linejoin="round" mask="url(#mask-2)" points="61.6100788 78.4236254 61.0348818 79.4821787 65.5404263 84.293735 66.4989372 84.293735"></polygon>
            <polygon id="Fill-1327" fill="#4E4E4D" mask="url(#mask-2)" points="61.6100788 78.4236254 61.0348818 79.4821787 65.5404263 84.293735 66.4989372 84.293735"></polygon>
            <polyline id="Stroke-1328" stroke="#151616" stroke-width="0.642179422" stroke-linejoin="round" mask="url(#mask-2)" points="79.2484905 77.7500584 78.0023358 76.2101132 76.1809839 77.4612959 75.0305898 78.0385482 73.4008496 79.0010594 70.1416409 82.1765376 65.8280701 83.3314964"></polyline>
            <path d="M75.0305898,82.1765376 L76.3726861,83.2351817" id="Stroke-1329" stroke="#151616" stroke-width="0.642179422" stroke-linejoin="round" mask="url(#mask-2)"></path>
            <path d="M78.1603679,76.3491335 L74.7742628,78.2376289 L71.5135153,80.8815589 L69.8833226,82.3924279 L65.9956058,83.3997345 L66.1207825,84.155169 L79.0384146,84.029233 L79.0384146,77.6081305 C79.0384146,77.6081305 77.7842949,76.3491335 78.1603679,76.3491335 Z" id="Fill-1330" fill="#7D6E67" mask="url(#mask-2)"></path>
            <path d="M78.1603679,76.3491335 L74.7742628,78.2376289 L71.5135153,80.8815589 L69.8833226,82.3924279 L65.9956058,83.3997345 L66.1207825,84.155169 L79.0384146,84.029233 L79.0384146,77.6081305 C79.0384146,77.6081305 77.7842949,76.3491335 78.1603679,76.3491335 Z" id="Stroke-1331" stroke="#151616" stroke-width="0.51368917" mask="url(#mask-2)"></path>
            <path d="M74.2726511,74.8385371 L73.8964876,76.2231975 L75.4013226,77.8600025 L76.5301752,77.6081305 L78.1603679,76.4751604 L78.4113547,73.5793584 C78.4113547,73.5793584 74.1472029,74.586665 74.2726511,74.8385371" id="Fill-1332" fill="#DDB9A0" mask="url(#mask-2)"></path>
            <path d="M78.4357314,71.8681828 C78.4357314,71.8681828 77.7030646,71.0147153 76.8567637,70.7595295 C76.0103145,70.504052 74.9032208,70.3229886 74.4549273,70.7325266 C74.0062832,71.1417633 72.9956578,72.5591019 72.9956578,72.5591019 L72.9821692,73.7646683 L72.7376003,74.3993959 C72.7376003,74.3993959 75.5581314,74.66199 76.6954808,74.1986061 C77.8330228,73.7354346 78.3551515,73.5877036 78.3551515,73.5877036 C78.3551515,73.5877036 78.352031,71.821107 78.4357314,71.8681828 Z" id="Stroke-1333" stroke="#151616" stroke-width="0.642179422" stroke-linejoin="round" mask="url(#mask-2)"></path>
            <path d="M78.4310861,71.8629574 C78.4310861,71.8629574 77.6983095,71.0095726 76.8522131,70.7543386 C76.0057547,70.498832 74.8987153,70.317833 74.4502336,70.7273523 C74.0017518,71.136599 72.9911066,72.5539701 72.9911066,72.5539701 L72.9775299,73.7596305 L72.7329693,74.3942173 C72.7329693,74.3942173 75.5534715,74.6567203 76.6908321,74.1933193 C77.8283737,73.7302817 78.3505314,73.5824477 78.3505314,73.5824477 C78.3505314,73.5824477 78.347454,71.8157995 78.4310861,71.8629574" id="Fill-1334" fill="#FAB700" mask="url(#mask-2)"></path>
            <polyline id="Stroke-1335" stroke="#151616" stroke-width="0.642179422" stroke-linejoin="round" mask="url(#mask-2)" points="74.01248 74.6750358 74.3534539 75.6391953 74.2026718 76.1058711 74.88842 77.0430379 76.0223923 77.5704193 76.7688131 77.2178448 77.9730673 76.2410264 78.0103772 73.6146963"></polyline>
            <polyline id="Stroke-1336" stroke="#151616" stroke-width="0.642179422" stroke-linejoin="round" mask="url(#mask-2)" points="74.3596321 71.2061091 75.0305898 71.3985569 76.1809839 71.5909137 77.0435533 71.8796761 78.2899796 73.0345442"></polyline>
            <polygon id="Fill-1337" fill="#FAB700" mask="url(#mask-2)" points="199.184639 99.3679883 210.714196 99.3679883 210.714196 116.247416 199.184639 116.247416"></polygon>
            <polygon id="Fill-1338" fill="#151616" mask="url(#mask-2)" points="211.87518 98.2779056 209.474196 98.2779056 209.474196 118.041595 211.87518 118.041595"></polygon>
            <polygon id="Fill-1339" fill="#151616" mask="url(#mask-2)" points="199.710599 98.2779056 197.309615 98.2779056 197.309615 118.041595 199.710599 118.041595"></polygon>
            <polygon id="Fill-1340" fill="#151616" mask="url(#mask-2)" points="210.914858 100.366754 210.914858 98.7598426 199.550756 98.7598426 199.550756 100.366754"></polygon>
            <polygon id="Fill-1341" fill="#151616" mask="url(#mask-2)" points="210.914858 104.223068 210.914858 102.616066 199.550756 102.616066 199.550756 104.223068"></polygon>
            <polygon id="Fill-1342" fill="#151616" mask="url(#mask-2)" points="210.914858 108.882883 210.914858 107.275972 199.550756 107.275972 199.550756 108.882883"></polygon>
            <polygon id="Fill-1343" fill="#151616" mask="url(#mask-2)" points="210.914858 113.382053 210.914858 111.775051 199.550756 111.775051 199.550756 113.382053"></polygon>
            <polygon id="Fill-1344" fill="#151616" mask="url(#mask-2)" points="210.914858 117.559749 210.914858 115.952747 199.550756 115.952747 199.550756 117.559749"></polygon>
            <polyline id="Stroke-1345" stroke="#151616" stroke-width="0.642179422" stroke-linejoin="round" mask="url(#mask-2)" points="242.062029 113.958669 234.081769 110.433641 227.697851 111.07477 222.271448 112.676775 217.164277 112.997248"></polyline>
        </g>
    </g>
</svg>