<?xml version="1.0" encoding="UTF-8"?>
<svg width="250px" height="180px" viewBox="0 0 250 180" version="1.1" xmlns="http://www.w3.org/2000/svg" xmlns:xlink="http://www.w3.org/1999/xlink">
    <!-- Generator: Sketch 51.2 (57519) - http://www.bohemiancoding.com/sketch -->
    <title>2-2</title>
    <desc>Created with Sketch.</desc>
    <defs>
        <polygon id="path-1" points="0.617827737 0.320746193 247.425346 0.320746193 247.425346 178.939213 0.617827737 178.939213"></polygon>
    </defs>
    <g id="2-2" stroke="none" stroke-width="1" fill="none" fill-rule="evenodd">
        <g id="Group-2468">
            <mask id="mask-2" fill="white">
                <use xlink:href="#path-1"></use>
            </mask>
            <g id="Clip-2323"></g>
            <path d="M0.253249635,45.4117548 C0.253249635,45.4117548 17.0434832,54.654697 27.3341255,56.8297741 C37.6247679,59.0049421 13.7935971,56.8300467 37.6247679,59.0049421 C61.4559387,61.1798376 61.4559387,61.1798376 61.4559387,61.1798376 C61.4559387,61.1798376 70.6636175,62.2672853 76.0797022,63.3546421 C81.4957869,64.4420898 92.3283182,69.3356046 92.3283182,69.3356046 L108.035045,72.054133 L120.492429,69.8793284 C120.492429,69.8793284 129.700018,63.898366 138.365807,64.9858137 C147.031597,66.0732614 155.697387,68.2481569 155.697387,68.2481569 L202.818201,85.6474112 L247.230838,86.191135 L247.230838,137.844811 L0.794867153,146.000578 L0.253249635,45.4117548 Z" id="Fill-2322" fill="#94B752" mask="url(#mask-2)"></path>
            <polygon id="Stroke-2324" stroke="#151616" stroke-width="0.642179422" stroke-linejoin="round" mask="url(#mask-2)" points="235.150432 101.798481 217.386753 79.3929513 214.425959 79.3929513 214.425959 101.798481"></polygon>
            <polygon id="Fill-2325" fill="#F3D53E" mask="url(#mask-2)" points="235.150432 101.798481 217.386753 79.3929513 214.425959 79.3929513 214.425959 101.798481"></polygon>
            <polygon id="Fill-2326" fill="#676766" mask="url(#mask-2)" points="192.144245 92.823403 192.144245 85.5978909 168.152689 85.0627081 163.620987 83.7246604 151.624937 85.5978909 150.558628 87.2036208 158.822368 93.0909944 163.087787 100.048824 185.213369 98.4431853"></polygon>
            <polygon id="Stroke-2327" stroke="#151616" stroke-width="1.92644765" mask="url(#mask-2)" points="192.144245 92.823403 192.144245 85.5978909 168.152689 85.0627081 163.620987 83.7246604 151.624937 85.5978909 150.558628 87.2036208 158.822368 93.0909944 163.087787 100.048824 185.213369 98.4431853"></polygon>
            <path d="M-5.34783942,175.764734 C-5.34783942,175.764734 33.757054,175.765007 44.0140263,177.05208 C54.2710891,178.339063 61.9965606,178.330613 69.3686774,177.365285 C76.7408847,176.399866 88.2860993,178.093097 88.2860993,178.093097 C88.2860993,178.093097 104.990619,174.457852 117.170858,174.135925 C129.351098,173.813907 160.442333,174.457307 169.417308,176.066308 C178.392283,177.675309 184.979308,179.70755 190.107568,179.70755 C195.235828,179.70755 213.725314,180.999439 217.892166,181.964585 C222.059109,182.929641 227.781574,181.552249 232.268926,182.517577 C236.756277,183.482905 249.041691,183.774757 249.041691,183.774757 L246.589387,167.077055 L246.268978,158.71085 L171.264818,148.735643 L60.6816175,150.988045 L-5.34783942,159.997923 L-5.34783942,175.764734 Z" id="Fill-2328" fill="#7DADD5" mask="url(#mask-2)"></path>
            <path d="M-5.98901898,172.547277 C-5.98901898,172.547277 31.5131066,171.581858 40.4880818,171.260204 C49.4629664,170.938458 57.7970336,171.260204 65.8101489,173.190859 C73.8231737,175.121606 78.3110686,173.834532 81.1956526,172.225531 C84.0802365,170.61653 105.876359,166.755128 126.390304,167.398801 C146.904339,168.042474 165.495469,168.042202 172.226496,169.651203 C178.957434,171.260204 182.803968,175.121606 189.214496,174.477933 C195.625025,173.83426 218.062327,171.581858 219.985504,171.581858 C221.908771,171.581858 225.434263,171.903604 229.921886,173.512605 C234.409419,175.121606 234.088739,175.443079 237.935182,174.799679 C241.781626,174.156278 248.512654,173.512605 248.512654,173.512605 C248.512654,173.512605 255.243953,177.05208 255.564362,178.982736 C255.884861,180.913483 260.051985,192.819073 257.16713,193.462746 C254.282274,194.106419 237.935454,199.254622 231.204155,196.680475 C224.472855,194.106419 8.11421606,184.774885 6.51171971,184.774885 C4.90922336,184.774885 -7.27101606,181.235138 -7.27101606,181.235138 C-7.27101606,181.235138 -6.6298365,172.547277 -5.98901898,172.547277" id="Fill-2329" fill="#A2867D" mask="url(#mask-2)"></path>
            <path d="M247.230566,159.35425 C247.230566,159.35425 236.653366,163.537126 230.242566,162.572071 C223.831766,161.606924 220.306003,160.319669 215.177472,159.997923 C210.04894,159.676269 192.09908,159.676269 185.368053,158.71085 C178.637025,157.745522 165.815606,152.918791 154.276546,153.884119 C142.737486,154.849447 118.697688,153.884119 115.812923,153.884119 C112.928067,153.884119 99.4654686,154.52752 92.4140321,155.171193 C85.3625051,155.814866 76.7080292,158.06754 72.2206774,158.71085 C67.7333255,159.35425 61.9639766,159.35425 54.2710891,159.35425 C46.5782015,159.35425 41.4496701,159.032595 41.4496701,159.032595 C41.4496701,159.032595 11.3197518,158.71085 5.87081168,159.676269 C0.421871533,160.641596 -5.66824818,161.284997 -5.66824818,161.284997 L-4.70665985,148.092334 L36.0007299,141.334856 C36.0007299,141.334856 131.198426,135.864453 133.442102,135.542707 C135.685778,135.221052 196.586975,141.335129 199.15106,141.978529 C201.715145,142.621839 246.910158,145.839659 246.910158,145.839659 C246.910158,145.839659 246.589387,159.676269 247.230566,159.35425" id="Fill-2330" fill="#B6715D" mask="url(#mask-2)"></path>
            <path d="M-5.64417226,137.555049 C-4.47187445,137.790475 90.6963153,126.730728 106.401504,125.318718 C122.106692,123.906708 148.103066,121.929712 159.588996,125.459374 C171.075016,128.989036 168.75332,128.612681 173.207092,130.966031 C177.660774,133.319473 192.896753,137.08447 203.210747,137.08447 C213.524651,137.08447 223.604403,138.496207 228.057904,137.319623 C232.511404,136.143129 238.137112,134.731119 238.137112,134.731119 L247.513323,131.436883 L247.27908,145.791229 C247.27908,145.791229 236.027574,150.732811 225.244914,150.026896 C214.462164,149.320891 193.131448,147.203149 183.052058,145.085224 C172.972578,142.9673 150.704079,138.966786 138.749393,139.202212 C126.794707,139.437638 101.479066,138.966786 89.0555328,141.084711 C76.6320905,143.202726 63.0366219,145.320378 52.4883854,146.026383 C41.9402394,146.732388 16.8587504,146.73257 9.59235036,147.673728 C2.32585985,148.614886 -4.94090219,148.614886 -4.94090219,148.614886 L-5.64417226,137.555049 Z" id="Fill-2331" fill="#5D4B36" mask="url(#mask-2)"></path>
            <polygon id="Stroke-2332" stroke="#151616" stroke-width="1.28426823" mask="url(#mask-2)" points="183.511311 79.5386954 185.071448 78.1960137 186.631676 78.1960137 187.634809 79.426934 187.300552 80.9932294 184.84852 81.1049909 183.511311 80.9932294"></polygon>
            <polygon id="Fill-2333" fill="#C3C3C4" mask="url(#mask-2)" points="183.511311 79.5386954 185.071448 78.1960137 186.631676 78.1960137 187.634809 79.426934 187.300552 80.9932294 184.84852 81.1049909 183.511311 80.9932294"></polygon>
            <path d="M161.417191,65.4239685 L162.432197,65.4239685 C162.804506,65.4239685 163.108813,65.7294042 163.108813,66.1031644 L163.108813,67.3049949 C163.108813,67.6786734 162.804506,67.9841909 162.432197,67.9841909 L161.417191,67.9841909 C161.045004,67.9841909 160.740697,67.6786734 160.740697,67.3049949 L160.740697,66.1031644 C160.740697,65.7294042 161.045004,65.4239685 161.417191,65.4239685 Z" id="Stroke-2334" stroke="#151616" stroke-width="2.86502455" mask="url(#mask-2)"></path>
            <path d="M161.411886,65.4239548 L162.426876,65.4239548 C162.799147,65.4239548 163.103445,65.729436 163.103445,66.1031553 L163.103445,67.3049086 C163.103445,67.6786279 162.799147,67.9841091 162.426876,67.9841091 L161.411886,67.9841091 C161.039615,67.9841091 160.735317,67.6786279 160.735317,67.3049086 L160.735317,66.1031553 C160.735317,65.729436 161.039615,65.4239548 161.411886,65.4239548" id="Fill-2335" fill="#FEFEFE" mask="url(#mask-2)"></path>
            <path d="M151.991597,93.9751817 C154.63859,94.3069223 156.727764,98.2224792 156.727764,103.004142 C156.727764,115.533596 142.336704,116.619227 142.336704,103.004142 C142.336704,93.9077614 145.377328,93.7691954 151.991597,93.7691954 L151.991597,93.9751817 Z" id="Stroke-2336" stroke="#151616" stroke-width="1.92644765" stroke-linejoin="round" mask="url(#mask-2)"></path>
            <path d="M151.991597,93.9751817 C154.63859,94.3069223 156.727764,98.2224792 156.727764,103.004142 C156.727764,115.533596 142.336704,116.619227 142.336704,103.004142 C142.336704,93.9077614 145.377328,93.7691954 151.991597,93.7691954 L151.991597,93.9751817 Z" id="Fill-2337" fill="#818181" mask="url(#mask-2)"></path>
            <path d="M147.71052,99.2553183 C149.169375,99.2553183 150.351901,101.138362 150.351901,103.461273 C150.351901,105.784275 149.169375,107.667319 147.71052,107.667319 C146.251664,107.667319 145.069139,105.784275 145.069139,103.461273 C145.069139,101.138362 146.251664,99.2553183 147.71052,99.2553183 Z" id="Stroke-2338" stroke="#151616" stroke-width="1.92644765" stroke-linejoin="round" mask="url(#mask-2)"></path>
            <path d="M147.71052,99.2553183 C149.169375,99.2553183 150.351901,101.138362 150.351901,103.461273 C150.351901,105.784275 149.169375,107.667319 147.71052,107.667319 C146.251664,107.667319 145.069139,105.784275 145.069139,103.461273 C145.069139,101.138362 146.251664,99.2553183 147.71052,99.2553183" id="Fill-2339" fill="#818181" mask="url(#mask-2)"></path>
            <path d="M92.5122365,67.1233645 C92.5122365,67.1233645 85.2584175,73.1915553 82.840508,82.5975964 C80.4225985,92.0035467 78.0046891,105.267356 78.0046891,105.267356" id="Stroke-2340" stroke="#151616" stroke-width="0.770579061" stroke-linejoin="round" mask="url(#mask-2)"></path>
            <path d="M119.411728,70.1574599 C119.411728,70.1574599 128.176537,63.7858777 137.848356,64.9994431 C147.520175,66.2130995 157.796426,69.2474675 163.236587,71.3713888 C168.676838,73.4952193 191.949194,85.0250909 200.109842,86.2387472 C208.270491,87.4524036 248.166269,85.6319645 248.166269,85.6319645" id="Stroke-2341" stroke="#151616" stroke-width="0.770579061" mask="url(#mask-2)"></path>
            <path d="M-7.22720876,40.4227431 C-7.22720876,40.4227431 10.6047153,53.7733264 27.8326599,57.7175959 C45.0606044,61.6619563 61.6840263,60.7517822 73.7733927,62.5722213 C85.8628496,64.3926604 115.864695,82.4005147 115.864695,82.4005147" id="Stroke-2342" stroke="#151616" stroke-width="0.770579061" stroke-linejoin="round" mask="url(#mask-2)"></path>
            <path d="M-5.11151533,54.9867102 C-5.11151533,54.9867102 6.97812263,64.9992614 24.8103182,68.6404122 C42.6424234,72.2815629 60.4745285,68.943531 69.8441314,70.1574599 C79.2136438,71.3713888 89.4898949,75.012267 94.0234978,77.7429711 C98.5570102,80.4736751 102.184055,81.6873315 102.184055,81.6873315" id="Stroke-2343" stroke="#151616" stroke-width="0.770579061" stroke-linejoin="round" mask="url(#mask-2)"></path>
            <path d="M-5.11151533,73.1918279 C-5.11151533,73.1918279 11.2096905,82.5973239 30.2507504,83.8111619 C49.2919007,85.0250909 58.9639007,82.2941142 72.5645285,82.9009878 C86.1650657,83.5077706 108.706727,92.0738746 108.706727,92.0738746" id="Stroke-2344" stroke="#151616" stroke-width="0.770579061" stroke-linejoin="round" mask="url(#mask-2)"></path>
            <path d="M-4.80929927,88.6660599 C-4.80929927,88.6660599 10.3027708,95.9479071 24.5080117,97.1615635 C38.7133431,98.3752198 52.6164584,94.7342508 62.5904934,95.0376421 C72.5645285,95.3410335 92.1774365,101.956128 92.1774365,101.956128" id="Stroke-2345" stroke="#151616" stroke-width="0.770579061" stroke-linejoin="round" mask="url(#mask-2)"></path>
            <path d="M-5.11151533,102.926636 C-5.11151533,102.926636 12.4183737,108.994826 26.9259212,109.601609 C41.4334686,110.208483 53.6129839,109.410797 53.6129839,109.410797" id="Stroke-2346" stroke="#151616" stroke-width="0.770579061" stroke-linejoin="round" mask="url(#mask-2)"></path>
            <path d="M6.07147445,48.9184284 C6.07147445,48.9184284 2.44461022,50.1320848 2.44461022,66.8199731 C2.44461022,83.5077706 4.25799708,91.6998827 2.74682628,99.2853939 C1.23565547,106.870905 -0.577731387,112.635705 -0.577731387,112.635705" id="Stroke-2347" stroke="#151616" stroke-width="0.770579061" stroke-linejoin="round" mask="url(#mask-2)"></path>
            <path d="M20.2768058,54.6832279 C20.2768058,54.6832279 14.8365547,58.0212599 15.1387708,71.3713888 C15.4409869,84.7214269 16.9524292,92.610602 15.1387708,101.106106 C13.3251124,109.601609 10.7432876,115.60983 10.7432876,115.60983" id="Stroke-2348" stroke="#151616" stroke-width="0.770579061" stroke-linejoin="round" mask="url(#mask-2)"></path>
            <path d="M33.273092,58.3244695 C33.273092,58.3244695 29.0418861,61.9656203 29.3441022,71.0679975 C29.6463182,80.1702838 28.1348759,86.8453482 26.9259212,93.8239858 C25.7169664,100.802714 22.2282219,115.081008 22.2282219,115.081008" id="Stroke-2349" stroke="#151616" stroke-width="0.770579061" stroke-linejoin="round" mask="url(#mask-2)"></path>
            <path d="M44.7582978,61.358565 C44.7582978,61.358565 41.4334686,65.9099807 40.8290365,74.4054843 C40.2245139,82.9009878 39.9222978,90.182835 39.9222978,95.3410335 C39.9222978,100.499323 39.0156496,113.01742 39.0156496,113.01742" id="Stroke-2350" stroke="#151616" stroke-width="0.770579061" stroke-linejoin="round" mask="url(#mask-2)"></path>
            <path d="M59.8703679,61.6619563 C59.8703679,61.6619563 53.5231971,74.4052117 52.9186745,84.4180355 C52.3142423,94.4308594 52.6164584,109.525103 52.6164584,109.525103" id="Stroke-2351" stroke="#151616" stroke-width="0.770579061" stroke-linejoin="round" mask="url(#mask-2)"></path>
            <path d="M76.7958248,62.8756127 C76.7958248,62.8756127 70.1463474,70.1574599 68.6351766,81.3839401 C67.1240058,92.6103294 66.9857051,106.507272 66.9857051,106.507272" id="Stroke-2352" stroke="#151616" stroke-width="0.770579061" stroke-linejoin="round" mask="url(#mask-2)"></path>
            <path d="M80.1203825,69.2470132 C80.1203825,69.2470132 79.5161314,66.8197005 73.4711766,67.4264832 C67.4262219,68.0333569 66.5197547,67.4264832 61.9859708,67.7299655 C57.4521869,68.0333569 55.0343679,67.4264832 51.7097197,67.4264832 C48.385162,67.4264832 45.966981,68.9438036 42.6424234,70.1574599 C39.3178657,71.3711162 33.5753985,72.2813812 32.3664438,75.9222594 C31.1574891,79.5632284 27.5306248,83.2043792 33.273092,86.2384746 C39.0156496,89.2725701 42.0381723,88.0589137 45.9672526,89.5760523 C49.8963328,91.0931 49.5938453,95.0371878 54.1276292,97.4646822 C58.6614131,99.8922675 67.1242774,99.2851213 74.9823474,98.6783386 C82.840508,98.071465 83.1424526,97.4646822 85.2584175,95.6442431 C87.374292,93.8238041 87.0720759,94.1271954 91.0010657,93.5203218 C94.930146,92.9135391 97.9522161,92.3066655 99.765965,89.8794437 C101.579623,87.452131 103.997714,84.1143716 101.881839,80.1700112 C99.765965,76.2256508 99.765965,72.888164 94.3257139,73.1915553 C88.8854628,73.4949467 85.2584175,72.888164 83.4449401,71.977899 C81.6315533,71.0677249 79.8181664,69.2470132 80.1203825,69.2470132 Z" id="Stroke-2353" stroke="#151616" stroke-width="1.28426823" stroke-linejoin="round" mask="url(#mask-2)"></path>
            <path d="M80.1203825,69.2470132 C80.1203825,69.2470132 79.5161314,66.8197005 73.4711766,67.4264832 C67.4262219,68.0333569 66.5197547,67.4264832 61.9859708,67.7299655 C57.4521869,68.0333569 55.0343679,67.4264832 51.7097197,67.4264832 C48.385162,67.4264832 45.966981,68.9438036 42.6424234,70.1574599 C39.3178657,71.3711162 33.5753985,72.2813812 32.3664438,75.9222594 C31.1574891,79.5632284 27.5306248,83.2043792 33.273092,86.2384746 C39.0156496,89.2725701 42.0381723,88.0589137 45.9672526,89.5760523 C49.8963328,91.0931 49.5938453,95.0371878 54.1276292,97.4646822 C58.6614131,99.8922675 67.1242774,99.2851213 74.9823474,98.6783386 C82.840508,98.071465 83.1424526,97.4646822 85.2584175,95.6442431 C87.374292,93.8238041 87.0720759,94.1271954 91.0010657,93.5203218 C94.930146,92.9135391 97.9522161,92.3066655 99.765965,89.8794437 C101.579623,87.452131 103.997714,84.1143716 101.881839,80.1700112 C99.765965,76.2256508 99.765965,72.888164 94.3257139,73.1915553 C88.8854628,73.4949467 85.2584175,72.888164 83.4449401,71.977899 C81.6315533,71.0677249 79.8181664,69.2470132 80.1203825,69.2470132" id="Fill-2354" fill="#5D4B36" mask="url(#mask-2)"></path>
            <path d="M78.669725,71.7429356 C78.669725,71.7429356 78.1294824,69.7465028 72.7249714,70.2456484 C67.321056,70.7446445 66.5105059,70.2456484 62.4571599,70.4952212 C58.4040373,70.7446445 56.2423222,70.2456484 53.2702804,70.2456484 C50.2980153,70.2456484 48.1360769,71.4938112 45.1638118,72.4919529 C42.19177,73.4903187 37.0577898,74.2392613 35.9771556,77.2343588 C34.8962981,80.2291574 31.6537255,83.2247034 36.7877057,85.7205806 C41.9214626,88.2164579 44.6237925,87.2178678 48.1363003,88.4660306 C51.6490314,89.7139693 51.3786495,92.9581911 55.4317722,94.9553713 C59.4851181,96.9522524 67.0509719,96.4528827 74.0761364,95.9537371 C81.1015242,95.4545168 81.3714594,94.9553713 83.2630159,93.4576356 C85.1546468,91.9602737 84.8845627,92.2098465 88.396996,91.7107009 C91.9097272,91.2115554 94.6114615,90.7123351 96.2329339,88.7156034 C97.8542574,86.7187222 100.016196,83.9732722 98.1245649,80.7286019 C96.2329339,77.4839316 96.2329339,74.7384816 91.3692612,74.9880543 C86.5058118,75.2376271 83.2630159,74.7384816 81.6417668,73.9896885 C80.0204433,73.2407459 78.3993431,71.7429356 78.669725,71.7429356 Z" id="Stroke-2355" stroke="#151616" stroke-width="1.56118375" stroke-linejoin="round" mask="url(#mask-2)"></path>
            <path d="M78.6676818,71.7352949 C78.6676818,71.7352949 78.1273314,69.7386726 72.7230131,70.2378736 C67.3189664,70.7369838 66.5085314,70.2378736 62.4552701,70.4873832 C58.4020088,70.7369838 56.2404263,70.2378736 53.2684088,70.2378736 C50.2960292,70.2378736 48.1342657,71.485967 45.1618861,72.4842782 C42.1898686,73.4825893 37.0559971,74.2316635 35.9752964,77.226597 C34.8944146,80.2215305 31.6518599,83.2170091 36.7858219,85.7128325 C41.9196934,88.2088376 44.6218073,87.2102538 48.1345372,88.4584381 C51.6471766,89.7063497 51.3767299,92.9506112 55.4299912,94.9477787 C59.483162,96.9446736 67.0490628,96.4452909 74.0741606,95.9460898 C81.0994394,95.4468888 81.3693431,94.9477787 83.2610219,93.4499939 C85.1527007,91.9525726 84.8825255,92.2021731 88.3948934,91.7029721 C91.9075328,91.2037711 94.6094657,90.7046609 96.2309693,88.7080386 C97.8522015,86.7111437 100.014055,83.9654472 98.1223766,80.7209132 C96.2309693,77.4761975 96.2309693,74.7307736 91.3671825,74.9803741 C86.5037577,75.2299746 83.2610219,74.7307736 81.6397898,73.9820629 C80.0185577,73.2330797 78.397235,71.7352949 78.6676818,71.7352949" id="Fill-2356" fill="#7DADD5" mask="url(#mask-2)"></path>
            <path d="M78.6676818,71.7352949 C78.6676818,71.7352949 78.5815153,71.4185467 78.1365635,71.0687244 C74.1000467,71.3412223 71.9409985,70.7903203 68.9754073,70.7903203 C66.0030277,70.7903203 63.8412642,72.1739812 60.8688847,73.2806919 C57.8968672,74.3872208 52.7629956,75.2176173 51.6822949,78.5375675 C50.6014131,81.8576086 47.3588584,85.1783766 52.4928204,87.9448807 C57.626692,90.7118391 60.3288058,89.6048558 63.8415358,90.9885168 C66.4600175,92.0198112 66.9767445,94.2809355 68.7491299,96.2821919 C70.5152701,96.1961447 72.3118219,96.071299 74.0741606,95.9460898 C81.0994394,95.4468888 81.3693431,94.9477787 83.2610219,93.4499939 C85.1527007,91.9525726 84.8825255,92.2021731 88.3948934,91.7029721 C91.9075328,91.2037711 94.6094657,90.7046609 96.2309693,88.7080386 C97.8522015,86.7111437 100.014055,83.9654472 98.1223766,80.7209132 C96.2309693,77.4761975 96.2309693,74.7307736 91.3671825,74.9803741 C86.5037577,75.2299746 83.2610219,74.7307736 81.6397898,73.9820629 C80.0185577,73.2330797 78.397235,71.7352949 78.6676818,71.7352949" id="Fill-2357" fill="#91C6E3" mask="url(#mask-2)"></path>
            <path d="M-6.01825401,137.515887 C-6.01825401,137.515887 66.8217898,129.020202 97.6502715,126.289497 C128.478753,123.558793 153.262823,122.951738 162.934371,126.592889 C172.605918,130.23404 182.277918,135.392056 191.042818,136.302321 C199.807626,137.212495 220.057641,137.819369 227.31155,137.212495 C234.56546,136.605713 247.561836,131.751087 247.561836,131.751087" id="Stroke-2358" stroke="#151616" stroke-width="0.770579061" stroke-linejoin="round" mask="url(#mask-2)"></path>
            <path d="M-5.81677664,143.331206 C-5.81677664,143.331206 17.4178365,141.055362 38.5745898,139.456447 C50.5382365,138.884374 60.5848613,137.381501 71.5000292,136.043725 C82.4153781,134.706132 94.5019387,133.634404 104.249153,133.166732 C120.419025,132.129986 134.120663,131.535833 144.762035,131.858306 C155.403679,132.180506 162.531597,133.014991 167.820695,134.532039 C177.139431,137.566407 188.624908,141.409546 196.986943,142.269291 C205.348707,143.128763 221.568812,143.93808 228.57101,143.432155 C235.572937,142.926593 247.561836,138.729271 247.561836,138.729271" id="Stroke-2359" stroke="#151616" stroke-width="0.770579061" stroke-linejoin="round" mask="url(#mask-2)"></path>
            <path d="M-5.61511825,149.146525 C-5.61511825,149.146525 22.6441197,146.71894 42.8941343,145.985949 C55.7899533,146.074268 63.8874248,144.386488 74.5538686,142.89152 C85.2204029,141.396643 99.0606131,140.296838 110.848035,140.043966 C127.773492,139.335872 141.273743,138.98196 151.298102,139.664795 C161.322371,140.347358 166.96428,141.257532 172.706747,142.471188 C181.673215,144.898774 194.971807,147.427035 202.930797,148.235988 C210.889696,149.045304 223.080254,150.056699 229.830289,149.652087 C236.580234,149.247474 247.561836,145.707726 247.561836,145.707726" id="Stroke-2360" stroke="#151616" stroke-width="0.770579061" stroke-linejoin="round" mask="url(#mask-2)"></path>
            <path d="M-5.41373139,154.962026 C-5.41373139,154.962026 27.8705839,152.382791 47.2139504,152.515723 C61.041308,153.264979 67.1901693,151.392203 77.6080701,149.739951 C88.0256993,148.087881 103.619559,146.959545 117.447188,146.921383 C135.128231,146.542303 148.426823,146.428451 157.834079,147.471558 C167.241334,148.514483 171.397235,149.500618 177.593072,150.410883 C186.206727,152.231322 201.319069,153.444706 208.874923,154.203503 C216.431048,154.962026 224.591425,156.175683 231.089749,155.872291 C237.587801,155.5689 247.561836,152.686455 247.561836,152.686455" id="Stroke-2361" stroke="#151616" stroke-width="0.770579061" stroke-linejoin="round" mask="url(#mask-2)"></path>
            <path d="M-5.21234453,160.7778 C-5.21234453,160.7778 33.0968672,158.046914 51.5334949,159.04568 C66.2927533,160.4556 70.4930044,158.397918 80.662,156.588564 C90.8309956,154.77921 108.178505,153.622161 124.04607,153.799162 C142.482698,153.748643 155.579904,153.874851 164.369874,155.27832 C173.160117,156.681789 175.83019,157.743705 182.479396,158.350578 C190.74033,159.564235 207.665968,159.462741 214.819048,160.171017 C221.972128,160.879112 226.102596,162.294939 232.348937,162.092678 C238.595369,161.890508 247.561836,159.665456 247.561836,159.665456" id="Stroke-2362" stroke="#151616" stroke-width="0.770579061" stroke-linejoin="round" mask="url(#mask-2)"></path>
            <path d="M-5.01068613,166.593119 C-5.01068613,166.593119 38.3231504,163.71022 55.8530394,165.575273 C71.5443796,167.645494 73.7954774,165.402906 83.7159299,163.43645 C93.6360204,161.46963 112.73718,160.284596 130.644952,160.676397 C149.837165,160.954528 162.732984,161.32107 170.905942,163.08481 C179.07908,164.848369 180.262873,165.986337 187.365448,166.289728 C195.274114,166.896511 214.012958,165.48023 220.762902,166.137714 C227.513209,166.795289 227.614038,168.413558 233.608488,168.312337 C239.602575,168.211388 247.561836,166.643639 247.561836,166.643639" id="Stroke-2363" stroke="#151616" stroke-width="0.770579061" stroke-linejoin="round" mask="url(#mask-2)"></path>
            <path d="M146.890762,68.5327396 C146.890762,68.5327396 145.615644,67.9841091 144.704832,69.2642772 C143.79402,70.5443543 143.065407,71.0929848 143.247515,72.0073386 C143.429714,72.9216924 143.247515,74.3845858 143.247515,75.2989396 C143.247515,76.2132934 142.154596,80.0536157 142.154596,80.0536157 L140.879387,80.6022462 C140.879387,80.6022462 140.697279,84.0764817 140.697279,85.9054619 C140.697279,87.7344421 140.51508,88.4658888 140.51508,89.5631497 C140.51508,90.6603198 140.879387,92.8548416 140.879387,92.8548416 L141.972397,93.9520117 L143.79402,92.6719345 C143.79402,92.6719345 143.429714,89.9288731 145.615644,89.1974264 C147.801574,88.4658888 148.348079,87.3687188 148.348079,87.3687188 L150.352082,87.0029046 L150.716479,76.0304772 L150.53428,70.7271706 L147.801574,70.178631 C147.801574,70.178631 146.708654,68.5327396 146.890762,68.5327396 Z" id="Stroke-2364" stroke="#151616" stroke-width="1.92644765" mask="url(#mask-2)"></path>
            <path d="M146.890762,68.5327396 C146.890762,68.5327396 145.615644,67.9841091 144.704832,69.2642772 C143.79402,70.5443543 143.065407,71.0929848 143.247515,72.0073386 C143.429714,72.9216924 143.247515,74.3845858 143.247515,75.2989396 C143.247515,76.2132934 142.154596,80.0536157 142.154596,80.0536157 L140.879387,80.6022462 C140.879387,80.6022462 140.697279,84.0764817 140.697279,85.9054619 C140.697279,87.7344421 140.51508,88.4658888 140.51508,89.5631497 C140.51508,90.6603198 140.879387,92.8548416 140.879387,92.8548416 L141.972397,93.9520117 L143.79402,92.6719345 C143.79402,92.6719345 143.429714,89.9288731 145.615644,89.1974264 C147.801574,88.4658888 148.348079,87.3687188 148.348079,87.3687188 L150.352082,87.0029046 L150.716479,76.0304772 L150.53428,70.7271706 L147.801574,70.178631 C147.801574,70.178631 146.708654,68.5327396 146.890762,68.5327396" id="Fill-2365" fill="#F3D53E" mask="url(#mask-2)"></path>
            <path d="M150.352082,75.8475701 C150.352082,75.8475701 150.534009,76.944831 148.348079,78.042001 C146.162149,79.1392619 146.162149,79.3220782 144.704832,79.5049853 C143.247515,79.6878924 141.243784,80.236432 141.243784,80.236432" id="Stroke-2366" stroke="#151616" stroke-width="0.770579061" mask="url(#mask-2)"></path>
            <path d="M143.065407,71.275801 C143.065407,71.275801 145.615644,71.8244315 146.708654,71.4587081 C147.801574,71.0929848 150.716479,70.7271706 150.716479,70.7271706" id="Stroke-2367" stroke="#151616" stroke-width="0.770579061" mask="url(#mask-2)"></path>
            <path d="M147.255069,68.1670162 C147.255069,68.1670162 148.166152,66.704032 150.53428,66.8869391 C152.902409,67.0697553 172.575869,67.4355695 172.575869,67.4355695 C172.575869,67.4355695 177.858902,67.9841091 178.769714,69.0813701 C179.680526,70.178631 180.22694,71.8244315 179.316128,71.6415244 C178.405317,71.4587081 176.76562,71.275801 174.579691,71.275801 C172.393761,71.275801 170.572137,71.275801 170.572137,71.275801 L169.843434,72.7387853 L164.560762,73.470232 L164.014257,84.0767543 C164.014257,84.0767543 160.735317,84.0767543 158.002882,84.6253848 C155.270537,85.1740152 154.724032,85.3568315 153.81322,85.5397386 C152.902409,85.7225548 149.987775,86.6369086 149.987775,86.6369086 L150.53428,71.6415244 L147.255069,70.3614472 C147.255069,70.3614472 146.890762,68.1670162 147.255069,68.1670162 Z" id="Stroke-2368" stroke="#151616" stroke-width="1.28426823" mask="url(#mask-2)"></path>
            <path d="M147.255069,68.1670162 C147.255069,68.1670162 148.166152,66.704032 150.53428,66.8869391 C152.902409,67.0697553 172.575869,67.4355695 172.575869,67.4355695 C172.575869,67.4355695 177.858902,67.9841091 178.769714,69.0813701 C179.680526,70.178631 180.22694,71.8244315 179.316128,71.6415244 C178.405317,71.4587081 176.76562,71.275801 174.579691,71.275801 C172.393761,71.275801 170.572137,71.275801 170.572137,71.275801 L169.843434,72.7387853 L164.560762,73.470232 L164.014257,84.0767543 C164.014257,84.0767543 160.735317,84.0767543 158.002882,84.6253848 C155.270537,85.1740152 154.724032,85.3568315 153.81322,85.5397386 C152.902409,85.7225548 149.987775,86.6369086 149.987775,86.6369086 L150.53428,71.6415244 L147.255069,70.3614472 C147.255069,70.3614472 146.890762,68.1670162 147.255069,68.1670162" id="Fill-2369" fill="#F3D53E" mask="url(#mask-2)"></path>
            <path d="M153.266715,71.275801 L158.913693,71.275801 C159.514867,71.275801 160.006704,71.7695503 160.006704,72.3730619 L160.006704,75.1161234 C160.006704,75.7195442 159.514867,76.2132934 158.913693,76.2132934 L153.266715,76.2132934 C152.665542,76.2132934 152.173705,75.7195442 152.173705,75.1161234 L152.173705,72.3730619 C152.173705,71.7695503 152.665542,71.275801 153.266715,71.275801 Z" id="Stroke-2370" stroke="#151616" stroke-width="1.92644765" mask="url(#mask-2)"></path>
            <path d="M153.266715,71.275801 L158.913693,71.275801 C159.514867,71.275801 160.006704,71.7695503 160.006704,72.3730619 L160.006704,75.1161234 C160.006704,75.7195442 159.514867,76.2132934 158.913693,76.2132934 L153.266715,76.2132934 C152.665542,76.2132934 152.173705,75.7195442 152.173705,75.1161234 L152.173705,72.3730619 C152.173705,71.7695503 152.665542,71.275801 153.266715,71.275801" id="Fill-2371" fill="#F3D53E" mask="url(#mask-2)"></path>
            <path d="M146.708654,87.7344421 C146.708654,87.7344421 148.894855,86.8200883 151.809399,87.0029046 C154.724032,87.1858117 156.545655,87.0029046 157.274269,88.1001655 C158.002882,89.1974264 158.731585,90.8432269 158.731585,90.8432269 L164.014257,102.181196 L162.921337,105.838611 L153.266715,105.472888 C153.266715,105.472888 150.53428,104.558534 150.716479,101.815473 C150.898587,99.0724112 150.352082,96.5122569 150.352082,95.0492726 C150.352082,93.5862883 148.894584,91.2089503 148.712385,90.1117802 C148.530277,89.0145193 146.890762,87.7344421 146.708654,87.7344421 Z" id="Stroke-2372" stroke="#151616" stroke-width="1.92644765" mask="url(#mask-2)"></path>
            <path d="M146.708654,87.7344421 C146.708654,87.7344421 148.894855,86.8200883 151.809399,87.0029046 C154.724032,87.1858117 156.545655,87.0029046 157.274269,88.1001655 C158.002882,89.1974264 158.731585,90.8432269 158.731585,90.8432269 L164.014257,102.181196 L162.921337,105.838611 L153.266715,105.472888 C153.266715,105.472888 150.53428,104.558534 150.716479,101.815473 C150.898587,99.0724112 150.352082,96.5122569 150.352082,95.0492726 C150.352082,93.5862883 148.894584,91.2089503 148.712385,90.1117802 C148.530277,89.0145193 146.890762,87.7344421 146.708654,87.7344421" id="Fill-2373" fill="#AEAFB0" mask="url(#mask-2)"></path>
            <path d="M150.53428,89.9288731 L156.363457,89.9288731" id="Stroke-2374" stroke="#151616" stroke-width="0.770579061" mask="url(#mask-2)"></path>
            <path d="M157.638575,88.6487959 C157.638575,88.6487959 171.118642,89.5631497 172.940266,89.9288731 C174.761889,90.2945964 181.684257,91.5746736 181.684257,91.5746736 L184.598891,96.1464426 L179.498327,95.7807193 L174.579691,93.9520117 C174.579691,93.9520117 166.382385,92.4890274 164.560762,92.1233041 C162.739139,91.7575807 158.524496,92.1235766 159.095892,92.1233041 C159.667288,92.1230315 157.835165,89.0145193 157.638575,88.6487959 Z" id="Stroke-2375" stroke="#151616" stroke-width="0.642179422" mask="url(#mask-2)"></path>
            <polygon id="Stroke-2376" stroke="#151616" stroke-width="1.92644765" mask="url(#mask-2)" points="167.475396 76.3961215 176.037007 76.3961215 176.037007 85.1741334 167.475396 85.1741334"></polygon>
            <polygon id="Fill-2377" fill="#F3D53E" mask="url(#mask-2)" points="167.475396 76.3962005 176.037007 76.3962005 176.037007 85.1740152 167.475396 85.1740152"></polygon>
            <polygon id="Stroke-2378" stroke="#151616" stroke-width="1.92644765" mask="url(#mask-2)" points="167.475396 76.3962005 163.832149 75.9436122 163.832149 85.6888447 167.475396 85.1337629"></polygon>
            <polygon id="Fill-2379" fill="#F3D53E" mask="url(#mask-2)" points="167.475396 76.3962005 163.832149 75.9436122 163.832149 85.6888447 167.475396 85.1337629"></polygon>
            <path d="M160.006704,63.0466168 L163.832149,63.0466168 C164.232841,63.0466168 164.560762,63.3758132 164.560762,63.7781543 L164.560762,64.8753244 C164.560762,65.2776655 164.232841,65.6068619 163.832149,65.6068619 L160.006704,65.6068619 C159.605921,65.6068619 159.278091,65.2776655 159.278091,64.8753244 L159.278091,63.7781543 C159.278091,63.3758132 159.605921,63.0466168 160.006704,63.0466168 Z" id="Stroke-2380" stroke="#151616" stroke-width="1.92644765" mask="url(#mask-2)"></path>
            <path d="M160.006704,63.0466168 L163.832149,63.0466168 C164.232841,63.0466168 164.560762,63.3758132 164.560762,63.7781543 L164.560762,64.8753244 C164.560762,65.2776655 164.232841,65.6068619 163.832149,65.6068619 L160.006704,65.6068619 C159.605921,65.6068619 159.278091,65.2776655 159.278091,64.8753244 L159.278091,63.7781543 C159.278091,63.3758132 159.605921,63.0466168 160.006704,63.0466168" id="Fill-2381" fill="#F3D53E" mask="url(#mask-2)"></path>
            <polygon id="Stroke-2382" stroke="#151616" stroke-width="2.63178484" mask="url(#mask-2)" points="167.473257 73.4728396 163.283556 74.0335278 163.283531 76.9594144 167.47323 76.3987707"></polygon>
            <polygon id="Fill-2383" fill="#F3D53E" mask="url(#mask-2)" points="167.475396 73.470232 163.285644 74.0309472 163.285644 76.9569157 167.475396 76.3962005"></polygon>
            <polygon id="Stroke-2384" stroke="#151616" stroke-width="1.92644765" mask="url(#mask-2)" points="167.475396 73.470232 176.037007 73.470232 176.037007 76.3962005 167.475396 76.3962005"></polygon>
            <polygon id="Fill-2385" fill="#F3D53E" mask="url(#mask-2)" points="167.475396 73.470232 176.037007 73.470232 176.037007 76.3962005 167.475396 76.3962005"></polygon>
            <path d="M203.467856,83.728747 L206.524988,82.7697655 L208.244499,84.4958076 L207.48041,86.2220055 L203.276523,85.8383194 C203.276523,85.8383194 203.658878,83.728747 203.467856,83.728747 Z" id="Stroke-2386" stroke="#151616" stroke-width="0.749012996" stroke-linejoin="round" mask="url(#mask-2)"></path>
            <path d="M203.46807,83.7285675 L206.525077,82.7693274 L208.244514,84.4955416 L207.480511,86.2217558 L203.276639,85.8382234 C203.276639,85.8382234 203.658958,83.7285675 203.46807,83.7285675" id="Fill-2387" fill="#FEFEFE" mask="url(#mask-2)"></path>
            <path d="M179.133832,104.822129 C179.133832,119.80853 162.738673,121.10673 162.738673,104.822129 C162.738673,88.8717303 179.133832,89.9215238 179.133832,104.822129 Z" id="Stroke-2388" stroke="#151616" stroke-width="1.69085199" stroke-linejoin="round" mask="url(#mask-2)"></path>
            <path d="M179.133749,104.814768 C179.133749,119.801156 162.738596,121.099588 162.738596,104.814768 C162.738596,88.8643228 179.133749,89.9139716 179.133749,104.814768" id="Fill-2389" fill="#818181" mask="url(#mask-2)"></path>
            <path d="M168.860847,100.338205 C170.522862,100.338205 171.870066,102.590595 171.870066,105.36912 C171.870066,108.147645 170.522862,110.399724 168.860847,110.399724 C167.198831,110.399724 165.851627,108.147645 165.851627,105.36912 C165.851627,102.590595 167.198831,100.338205 168.860847,100.338205 Z" id="Stroke-2390" stroke="#151616" stroke-width="1.69085199" stroke-linejoin="round" mask="url(#mask-2)"></path>
            <path d="M168.860847,100.330863 C170.522899,100.330863 171.869793,102.583264 171.869793,105.361581 C171.869793,108.14017 170.522899,110.392389 168.860847,110.392389 C167.198794,110.392389 165.851539,108.14017 165.851539,105.361581 C165.851539,102.583264 167.198794,100.330863 168.860847,100.330863" id="Fill-2391" fill="#818181" mask="url(#mask-2)"></path>
            <path d="M191.340783,106.625596 C191.340783,123.086038 174.39934,124.512434 174.39934,106.625596 C174.39934,89.1061806 191.340783,90.2588359 191.340783,106.625596 Z" id="Stroke-2392" stroke="#151616" stroke-width="1.63648375" stroke-linejoin="round" mask="url(#mask-2)"></path>
            <path d="M191.338879,106.632935 C191.338879,123.093393 174.397492,124.51976 174.397492,106.632935 C174.397492,89.113469 191.338879,90.2662472 191.338879,106.632935" id="Fill-2393" fill="#818181" mask="url(#mask-2)"></path>
            <path d="M180.725717,101.700946 C182.442791,101.700946 183.834884,104.17439 183.834884,107.226365 C183.834884,110.278124 182.442791,112.75189 180.725717,112.75189 C179.00811,112.75189 177.616017,110.278124 177.616017,107.226365 C177.616017,104.17439 179.00811,101.700946 180.725717,101.700946 Z" id="Stroke-2394" stroke="#151616" stroke-width="1.63648375" stroke-linejoin="round" mask="url(#mask-2)"></path>
            <path d="M180.723664,101.708073 C182.440838,101.708073 183.832987,104.181725 183.832987,107.23363 C183.832987,110.285444 182.440838,112.759096 180.723664,112.759096 C179.006219,112.759096 177.61407,110.285444 177.61407,107.23363 C177.61407,104.181725 179.006219,101.708073 180.723664,101.708073" id="Fill-2395" fill="#818181" mask="url(#mask-2)"></path>
            <path d="M178.849726,91.2721 C178.849726,91.2721 181.502149,91.5746736 183.688079,95.2320888 C185.874009,98.8895041 186.420514,100.718212 186.602622,102.181196 C186.78482,103.64418 187.149127,105.838611 187.149127,106.752965 C187.149127,107.667319 186.78482,111.141827 186.78482,111.141827 L196.803749,110.41038 C196.803749,110.41038 197.168055,112.604811 199.353985,113.519165 C201.539915,114.433519 208.462374,113.336349 208.462374,113.336349 C208.462374,113.336349 209.555384,115.531052 213.927244,116.445406 C218.299104,117.35976 223.946172,112.421995 226.132102,110.41038 C228.318032,108.398765 230.686161,103.64418 230.686161,103.64418 L231.050467,94.5006421 L230.686161,87.3687188 L227.771527,84.2596614 L210.101799,85.9054619 L203.179431,89.9288731 L198.078867,89.745966 L192.041877,92.6632117 L184.416692,91.7575807 L178.849726,91.2721 Z" id="Stroke-2396" stroke="#151616" stroke-width="1.92644765" stroke-linejoin="round" mask="url(#mask-2)"></path>
            <path d="M178.849726,91.2721 C178.849726,91.2721 181.502149,91.5746736 183.688079,95.2320888 C185.874009,98.8895041 186.420514,100.718212 186.602622,102.181196 C186.78482,103.64418 187.149127,105.838611 187.149127,106.752965 C187.149127,107.667319 186.78482,111.141827 186.78482,111.141827 L196.803749,110.41038 C196.803749,110.41038 197.168055,112.604811 199.353985,113.519165 C201.539915,114.433519 208.462374,113.336349 208.462374,113.336349 C208.462374,113.336349 209.555384,115.531052 213.927244,116.445406 C218.299104,117.35976 223.946172,112.421995 226.132102,110.41038 C228.318032,108.398765 230.686161,103.64418 230.686161,103.64418 L231.050467,94.5006421 L230.686161,87.3687188 L227.771527,84.2596614 L210.101799,85.9054619 L203.179431,89.9288731 L198.078867,89.745966 L192.041877,92.6632117 L184.416692,91.7575807 L178.849726,91.2721 Z" id="Fill-2397" fill="#AEAFB0" mask="url(#mask-2)"></path>
            <polygon id="Stroke-2398" stroke="#151616" stroke-width="1.92644765" mask="url(#mask-2)" points="211.01958 90.0682569 205.78153 90.0682569 205.78153 92.1939046 192.184975 92.1939046 192.184975 90.0682569 192.184975 88.166132 192.184975 85.4810411 211.01958 85.4810411"></polygon>
            <polygon id="Fill-2399" fill="#F3D53E" mask="url(#mask-2)" points="211.01958 90.0682569 205.78153 90.0682569 205.78153 92.1939046 192.184975 92.1939046 192.184975 90.0682569 192.184975 88.166132 192.184975 85.4810411 211.01958 85.4810411"></polygon>
            <polygon id="Stroke-2400" stroke="#151616" stroke-width="0.5" stroke-linejoin="round" mask="url(#mask-2)" points="176.596155 77.1690521 208.602068 77.1690521 208.602068 84.579066 176.596155 84.579066"></polygon>
            <polygon id="Fill-2401" fill="#F3D53E" mask="url(#mask-2)" points="176.596003 77.1707162 208.601942 77.1707162 208.601942 84.5805893 176.596003 84.5805893"></polygon>
            <path d="M214.198415,2.11747005 L219.664099,2.57469239 C219.664099,2.57469239 220.119731,-2.22659645 225.813142,-2.22659645 C231.506642,-2.22659645 231.278555,-1.31197005 232.417454,0.745712183 C233.556353,2.80339442 232.644999,3.48904619 233.783898,4.1748797 C234.922797,4.86080406 237.655504,4.86080406 237.655504,4.86080406 L237.655504,22.0079137 L240.388482,22.0079137 L240.388482,90.3670142 L243.12146,90.3670142 L243.12146,96.7684904 L240.843842,96.7684904 L240.843842,100.655153 L242.666009,100.655153 L242.666009,108.199957 L240.616298,108.199957 L240.616298,115.515787 L244.715448,115.515787 L244.715448,119.631152 L235.150432,119.631152 L235.150432,115.058656 L237.814079,115.775201 L237.814079,104.770517 L211.920888,104.770517 L211.920888,117.34504 L216.703577,117.34504 L216.703577,121.23143 L205.999571,121.23143 L205.999571,117.116338 L208.45106,117.77573 L208.45106,108.428387 L206.956815,108.026591 L206.956815,96.9971924 L201.90042,94.9395102 L201.44506,91.9674741 L204.177676,91.9674741 L203.57786,89.7199792 L208.960365,89.7199792 L208.960365,22.9222675 L205.772026,22.9222675 C205.772026,22.9222675 204.633127,21.7792117 204.860943,20.636065 C205.088759,19.4930091 205.999571,19.2643071 205.999571,19.2643071 L216.020309,19.2643071 L216.020309,3.94645025 C216.020309,3.94645025 214.198415,2.34599036 214.198415,2.11747005 Z" id="Stroke-2402" stroke="#151616" stroke-width="1.28426823" stroke-linejoin="round" mask="url(#mask-2)"></path>
            <path d="M214.198415,2.11747005 L219.664099,2.57469239 C219.664099,2.57469239 220.119731,-2.22659645 225.813142,-2.22659645 C231.506642,-2.22659645 231.278555,-1.31197005 232.417454,0.745712183 C233.556353,2.80339442 232.644999,3.48904619 233.783898,4.1748797 C234.922797,4.86080406 237.655504,4.86080406 237.655504,4.86080406 L237.655504,22.0079137 L240.388482,22.0079137 L240.388482,90.3670142 L243.12146,90.3670142 L243.12146,96.7684904 L240.843842,96.7684904 L240.843842,100.655153 L242.666009,100.655153 L242.666009,108.199957 L240.616298,108.199957 L240.616298,115.515787 L244.715448,115.515787 L244.715448,119.631152 L235.150432,119.631152 L235.150432,115.058656 L237.814079,115.775201 L237.814079,104.770517 L211.920888,104.770517 L211.920888,117.34504 L216.703577,117.34504 L216.703577,121.23143 L205.999571,121.23143 L205.999571,117.116338 L208.45106,117.77573 L208.45106,108.428387 L206.956815,108.026591 L206.956815,96.9971924 L201.90042,94.9395102 L201.44506,91.9674741 L204.177676,91.9674741 L203.57786,89.7199792 L208.960365,89.7199792 L208.960365,22.9222675 L205.772026,22.9222675 C205.772026,22.9222675 204.633127,21.7792117 204.860943,20.636065 C205.088759,19.4930091 205.999571,19.2643071 205.999571,19.2643071 L216.020309,19.2643071 L216.020309,3.94645025 C216.020309,3.94645025 214.198415,2.34599036 214.198415,2.11747005" id="Fill-2403" fill="#F3D53E" mask="url(#mask-2)"></path>
            <path d="M218.07002,5.77543046 L218.07002,19.2643071 L221.258359,19.2643071 L221.801244,17.2300675 L224.218882,17.2300675 L224.218882,2.34599036 C224.218882,2.34599036 223.30807,3.48931878 222.624803,4.63237462 C221.941626,5.77543046 220.119731,6.00413249 220.119731,6.00413249 C220.119731,6.00413249 217.842204,5.77543046 218.07002,5.77543046 Z" id="Stroke-2404" stroke="#151616" stroke-width="1.28426823" stroke-linejoin="round" mask="url(#mask-2)"></path>
            <path d="M218.07002,5.77543046 L218.07002,19.2643071 L221.258359,19.2643071 L221.801244,17.2300675 L224.218882,17.2300675 L224.218882,2.34599036 C224.218882,2.34599036 223.30807,3.48931878 222.624803,4.63237462 C221.941626,5.77543046 220.119731,6.00413249 220.119731,6.00413249 C220.119731,6.00413249 217.842204,5.77543046 218.07002,5.77543046" id="Fill-2405" fill="#FEFEFE" mask="url(#mask-2)"></path>
            <path d="M227.40722,3.26052589 L227.40722,16.2922711 L229.43358,16.837267 L229.43358,22.4650452 L234.011804,22.4650452 L234.011804,9.43339086 C234.011804,9.43339086 232.417726,8.74773909 231.506642,7.14718832 C230.595559,5.54672843 227.40722,3.26052589 227.40722,3.26052589 Z" id="Stroke-2406" stroke="#151616" stroke-width="1.28426823" stroke-linejoin="round" mask="url(#mask-2)"></path>
            <path d="M227.40722,3.26052589 L227.40722,16.2922711 L229.43358,16.837267 L229.43358,22.4650452 L234.011804,22.4650452 L234.011804,9.43339086 C234.011804,9.43339086 232.417726,8.74773909 231.506642,7.14718832 C230.595559,5.54672843 227.40722,3.26052589 227.40722,3.26052589" id="Fill-2407" fill="#FEFEFE" mask="url(#mask-2)"></path>
            <path d="M229.229115,24.5227274 L232.64527,24.5227274 L232.64527,47.8426112 L228.012467,46.5965168 L228.012467,28.6380919 L229.204496,28.9587472 C229.204496,28.9587472 229.001571,24.5227274 229.229115,24.5227274 Z" id="Stroke-2408" stroke="#151616" stroke-width="1.28426823" stroke-linejoin="round" mask="url(#mask-2)"></path>
            <path d="M229.229115,24.5227274 L232.64527,24.5227274 L232.64527,47.8426112 L228.012467,46.5965168 L228.012467,28.6380919 L229.204496,28.9587472 C229.204496,28.9587472 229.001571,24.5227274 229.229115,24.5227274" id="Fill-2409" fill="#FEFEFE" mask="url(#mask-2)"></path>
            <polygon id="Stroke-2410" stroke="#151616" stroke-width="1.28426823" stroke-linejoin="round" mask="url(#mask-2)" points="228.090488 50.1287228 231.962093 50.1287228 231.962093 66.5899081 229.912382 66.5899081 229.912382 68.8761107 227.886204 68.3311147"></polygon>
            <polygon id="Fill-2411" fill="#FEFEFE" mask="url(#mask-2)" points="228.090488 50.1287228 231.962093 50.1287228 231.962093 66.5899081 229.912382 66.5899081 229.912382 68.8761107 227.886204 68.3311147"></polygon>
            <polygon id="Stroke-2412" stroke="#151616" stroke-width="1.28426823" stroke-linejoin="round" mask="url(#mask-2)" points="211.465436 22.2366157 213.515147 22.2366157 213.515147 30.0099406 211.465436 30.0099406"></polygon>
            <polygon id="Fill-2413" fill="#818181" mask="url(#mask-2)" points="211.465436 22.2366157 213.515147 22.2366157 213.515147 30.0099406 211.465436 30.0099406"></polygon>
            <polygon id="Stroke-2414" stroke="#151616" stroke-width="1.28426823" stroke-linejoin="round" mask="url(#mask-2)" points="211.465436 38.0116041 213.515147 38.0116041 213.515147 45.7849289 211.465436 45.7849289"></polygon>
            <polygon id="Fill-2415" fill="#818181" mask="url(#mask-2)" points="211.465436 38.0116041 213.515147 38.0116041 213.515147 45.7849289 211.465436 45.7849289"></polygon>
            <polygon id="Stroke-2416" stroke="#151616" stroke-width="1.28426823" stroke-linejoin="round" mask="url(#mask-2)" points="211.465436 48.2998335 213.515147 48.2998335 213.515147 56.0730675 211.465436 56.0730675"></polygon>
            <polygon id="Fill-2417" fill="#818181" mask="url(#mask-2)" points="211.465436 48.2998335 213.515147 48.2998335 213.515147 56.0730675 211.465436 56.0730675"></polygon>
            <polygon id="Stroke-2418" stroke="#151616" stroke-width="1.50572816" stroke-linejoin="round" mask="url(#mask-2)" points="211.465504 62.9227753 213.515265 62.9227753 213.515265 69.5527221 211.465504 69.5527221"></polygon>
            <polygon id="Fill-2419" fill="#818181" mask="url(#mask-2)" points="211.465436 62.9320386 213.515147 62.9320386 213.515147 69.5619442 211.465436 69.5619442"></polygon>
            <polygon id="Stroke-2420" stroke="#151616" stroke-width="1.67934404" stroke-linejoin="round" mask="url(#mask-2)" points="211.465509 72.0810769 213.515195 72.0810769 213.515195 78.0254162 211.465509 78.0254162"></polygon>
            <polygon id="Fill-2421" fill="#818181" mask="url(#mask-2)" points="211.465436 72.0768487 213.515147 72.0768487 213.515147 78.0211934 211.465436 78.0211934"></polygon>
            <polygon id="Stroke-2422" stroke="#151616" stroke-width="2.88939964" stroke-linejoin="round" mask="url(#mask-2)" points="215.11463 26.5701656 216.025706 26.5701656 216.025706 43.9457974 215.11463 43.9457974"></polygon>
            <polygon id="Fill-2423" fill="#818181" mask="url(#mask-2)" points="215.109226 26.5804096 216.020309 26.5804096 216.020309 43.9559487 215.109226 43.9559487"></polygon>
            <polygon id="Stroke-2424" stroke="#151616" stroke-width="2.88939964" stroke-linejoin="round" mask="url(#mask-2)" points="215.11463 50.1189181 216.025706 50.1189181 216.025706 67.49455 215.11463 67.49455"></polygon>
            <polygon id="Fill-2425" fill="#818181" mask="url(#mask-2)" points="215.109226 50.1289954 216.020309 50.1289954 216.020309 67.5045345 215.109226 67.5045345"></polygon>
            <polygon id="Stroke-2426" stroke="#151616" stroke-width="0.963223827" stroke-linejoin="round" mask="url(#mask-2)" points="218.693863 26.3580878 221.426805 26.3580878 221.426805 46.019798 218.693863 46.019798"></polygon>
            <polygon id="Fill-2427" fill="#C3C3C4" mask="url(#mask-2)" points="218.695542 26.3517076 221.428429 26.3517076 221.428429 46.013631 218.695542 46.013631"></polygon>
            <polygon id="Stroke-2428" stroke="#151616" stroke-width="0.963223827" stroke-linejoin="round" mask="url(#mask-2)" points="222.793034 26.3580878 225.525975 26.3580878 225.525975 46.019798 222.793034 46.019798"></polygon>
            <polygon id="Fill-2429" fill="#C3C3C4" mask="url(#mask-2)" points="222.794692 26.3517076 225.52767 26.3517076 225.52767 46.013631 222.794692 46.013631"></polygon>
            <polygon id="Stroke-2430" stroke="#151616" stroke-width="0.963223827" stroke-linejoin="round" mask="url(#mask-2)" points="218.693863 50.1350255 221.426805 50.1350255 221.426805 69.797101 218.693863 69.797101"></polygon>
            <polygon id="Fill-2431" fill="#C3C3C4" mask="url(#mask-2)" points="218.695542 50.1287228 221.428429 50.1287228 221.428429 69.7907371 218.695542 69.7907371"></polygon>
            <polygon id="Stroke-2432" stroke="#151616" stroke-width="0.963223827" stroke-linejoin="round" mask="url(#mask-2)" points="222.793034 50.1350255 225.525975 50.1350255 225.525975 69.797101 222.793034 69.797101"></polygon>
            <polygon id="Fill-2433" fill="#C3C3C4" mask="url(#mask-2)" points="222.794692 50.1287228 225.52767 50.1287228 225.52767 69.7907371 222.794692 69.7907371"></polygon>
            <polygon id="Fill-2434" fill="#151616" mask="url(#mask-2)" points="235.150432 23.6083736 237.200143 23.6083736 237.200143 34.1250325 235.150432 34.1250325"></polygon>
            <polygon id="Fill-2435" fill="#151616" mask="url(#mask-2)" points="235.150432 38.0116041 237.200143 38.0116041 237.200143 48.5282629 235.150432 48.5282629"></polygon>
            <polygon id="Fill-2436" fill="#151616" mask="url(#mask-2)" points="235.150432 50.3575157 237.200143 50.3575157 237.200143 57.4448254 235.150432 57.4448254"></polygon>
            <polygon id="Fill-2437" fill="#151616" mask="url(#mask-2)" points="235.150432 61.7887102 237.200143 61.7887102 237.200143 68.8761107 235.150432 68.8761107"></polygon>
            <polygon id="Stroke-2438" stroke="#151616" stroke-width="1.45561877" stroke-linejoin="round" mask="url(#mask-2)" points="216.474472 72.7678446 220.801617 72.7678446 220.801617 79.6267933 216.474472 79.6267933"></polygon>
            <polygon id="Fill-2439" fill="#FEFEFE" mask="url(#mask-2)" points="216.47567 72.7627731 220.802727 72.7627731 220.802727 79.6216533 216.47567 79.6216533"></polygon>
            <polygon id="Stroke-2440" stroke="#151616" stroke-width="0.614904693" stroke-linejoin="round" mask="url(#mask-2)" points="218.753872 85.108318 234.468081 85.108318 234.468081 101.341119 218.753872 101.341119"></polygon>
            <polygon id="Fill-2441" fill="#F3D53E" mask="url(#mask-2)" points="218.753016 85.1083213 234.467165 85.1083213 234.467165 101.340986 218.753016 101.340986"></polygon>
            <polygon id="Stroke-2442" stroke="#151616" stroke-width="1.45561877" stroke-linejoin="round" mask="url(#mask-2)" points="232.416239 74.368453 236.743385 74.368453 236.743385 81.2274017 232.416239 81.2274017"></polygon>
            <polygon id="Fill-2443" fill="#FEFEFE" mask="url(#mask-2)" points="232.417454 74.363233 236.74442 74.363233 236.74442 81.2222041 232.417454 81.2222041"></polygon>
            <polygon id="Stroke-2444" stroke="#151616" stroke-width="0.839626715" stroke-linejoin="round" mask="url(#mask-2)" points="226.496307 85.3415742 231.961952 85.3415742 231.961952 97.2301137 226.496307 97.2301137"></polygon>
            <polygon id="Fill-2445" fill="#F3D53E" mask="url(#mask-2)" points="226.496137 85.3372959 231.962093 85.3372959 231.962093 97.2258944 226.496137 97.2258944"></polygon>
            <polygon id="Fill-2446" fill="#151616" mask="url(#mask-2)" points="226.701145 104.971415 229.495942 104.971415 229.495942 119.579178 226.701145 119.579178"></polygon>
            <polygon id="Fill-2447" fill="#151616" mask="url(#mask-2)" points="226.701145 156.250917 229.495942 156.250917 229.495942 178.955205 226.701145 178.955205"></polygon>
            <polyline id="Stroke-2448" stroke="#151616" stroke-width="0.642179422" mask="url(#mask-2)" points="192.236114 85.7406365 181.389191 85.7406365 176.321483 85.5620909 167.875364 85.2051812 163.518891 86.0978188 157.295358 87.2579569"></polyline>
            <path d="M157.117504,87.6151391 L156.406269,86.9009563 L167.786572,83.2417239 L192.05826,83.063269 L208.95059,82.8844508 L208.95059,85.4730452 L192.147051,85.4730452 L167.608537,85.2051812 C167.608537,85.2051812 157.028712,87.7042756 157.117504,87.6151391 Z" id="Stroke-2449" stroke="#151616" stroke-width="0.770579061" stroke-linejoin="round" mask="url(#mask-2)"></path>
            <path d="M157.117504,87.6151391 L156.406269,86.9009563 L167.786572,83.2417239 L192.05826,83.063269 L208.95059,82.8844508 L208.95059,85.4730452 L192.147051,85.4730452 L167.608537,85.2051812 C167.608537,85.2051812 157.028712,87.7042756 157.117504,87.6151391" id="Fill-2450" fill="#F3D53E" mask="url(#mask-2)"></path>
            <path d="M180.541032,103.291777 C181.767737,103.291777 182.762146,105.059088 182.762146,107.239045 C182.762146,109.419003 181.767737,111.186237 180.541032,111.186237 C179.314251,111.186237 178.32007,109.419003 178.32007,107.239045 C178.32007,105.059088 179.314251,103.291777 180.541032,103.291777 Z" id="Stroke-2451" stroke="#151616" stroke-width="2.29089603" stroke-linejoin="round" mask="url(#mask-2)"></path>
            <path d="M180.544091,103.286453 C181.770695,103.286453 182.765139,105.053555 182.765139,107.23363 C182.765139,109.413614 181.770695,111.180716 180.544091,111.180716 C179.317215,111.180716 178.322952,109.413614 178.322952,107.23363 C178.322952,105.053555 179.317215,103.286453 180.544091,103.286453" id="Fill-2452" fill="#818181" mask="url(#mask-2)"></path>
            <path d="M168.667563,101.323477 C169.894116,101.323477 170.888677,103.090788 170.888677,105.270745 C170.888677,107.450702 169.894116,109.218013 168.667563,109.218013 C167.440554,109.218013 166.446373,107.450702 166.446373,105.270745 C166.446373,103.090788 167.440554,101.323477 168.667563,101.323477 Z" id="Stroke-2453" stroke="#151616" stroke-width="2.29089603" stroke-linejoin="round" mask="url(#mask-2)"></path>
            <path d="M168.670412,101.318089 C169.897107,101.318089 170.89155,103.085282 170.89155,105.265266 C170.89155,107.445341 169.897107,109.212443 168.670412,109.212443 C167.443536,109.212443 166.449364,107.445341 166.449364,105.265266 C166.449364,103.085282 167.443536,101.318089 168.670412,101.318089" id="Fill-2454" fill="#818181" mask="url(#mask-2)"></path>
            <path d="M147.550643,100.097318 C148.543517,100.097318 149.348041,101.647729 149.348041,103.560392 C149.348041,105.473056 148.543517,107.023669 147.550643,107.023669 C146.557892,107.023669 145.753368,105.473056 145.753368,103.560392 C145.753368,101.647729 146.557892,100.097318 147.550643,100.097318 Z" id="Stroke-2455" stroke="#151616" stroke-width="2.60451011" stroke-linejoin="round" mask="url(#mask-2)"></path>
            <path d="M147.55122,100.098799 C148.544126,100.098799 149.348677,101.649375 149.348677,103.56204 C149.348677,105.474705 148.544126,107.02519 147.55122,107.02519 C146.558496,107.02519 145.753945,105.474705 145.753945,103.56204 C145.753945,101.649375 146.558496,100.098799 147.55122,100.098799" id="Fill-2456" fill="#818181" mask="url(#mask-2)"></path>
            <path d="M-3.3612146,111.765147 C-3.3612146,111.765147 2.44976934,115.355142 10.4956496,115.355142 C18.5416204,115.355142 31.0576555,114.906188 38.2097401,113.11119 C45.3617343,111.316193 69.4998277,105.03402 77.098765,105.482701 C84.6977927,105.931382 103.472026,97.405167 109.729953,90.6742218 C115.98788,83.9433675 120.01082,71.378567 120.01082,71.378567" id="Stroke-2457" stroke="#151616" stroke-width="0.642179422" mask="url(#mask-2)"></path>
            <path d="M-4.70050511,114.334387 C-4.70050511,114.334387 -0.269089051,117.794448 7.28061022,118.288743 C14.8304,118.783037 29.2735036,119.112415 40.5981431,116.476299 C51.922692,113.840093 62.7552234,108.896967 74.0797723,108.732323 C85.4043212,108.567771 91.4770628,106.096208 94.595346,105.107619 C97.7136292,104.119121 107.397215,100.823885 112.32101,95.2218213 C117.244806,89.6197574 120.034896,75.7796046 120.034896,75.7796046" id="Stroke-2458" stroke="#151616" stroke-width="0.51368917" mask="url(#mask-2)"></path>
            <path d="M-4.80929927,172.408893 C-4.80929927,172.408893 43.5494336,169.374343 60.1725839,172.105229 C76.7958248,174.836206 77.0983124,172.408711 86.7697693,170.28479 C96.4413168,168.160959 117.296126,166.947303 137.243834,167.554086 C157.191632,168.160959 169.886064,168.76747 177.441918,170.891663 C184.997863,173.015766 184.695828,174.229423 192.251682,174.229423 C199.807626,174.229423 220.359857,171.498174 226.707028,172.105229 C233.054289,172.712375 229.125209,174.532814 234.867676,174.532814 C240.610143,174.532814 247.561836,173.622549 247.561836,173.622549" id="Stroke-2459" stroke="#151616" stroke-width="0.770579061" stroke-linejoin="round" mask="url(#mask-2)"></path>
            <polygon id="Stroke-2460" stroke="#151616" stroke-width="1.28426823" stroke-linejoin="round" mask="url(#mask-2)" points="96.7127855 86.1088853 98.2541064 87.8944321 99.6770894 88.9654426 101.45564 89.6796613 104.182952 95.9888318 104.419944 98.9646638 104.775828 100.988125 104.538598 103.131019 104.064376 104.440261 103.589917 105.987815 102.404401 107.059302 106.672796 106.820911 109.28169 106.820911 107.740132 102.77383 107.740132 100.869247 106.791609 98.3694816 107.028443 96.5840141 108.332771 94.5603149 109.755754 92.7746092 111.06032 90.8702641 111.890347 89.5608631 112.957525 87.5374022 109.39987 84.5613319 109.874567 86.7040675 110.467206 89.5608631 106.316912 93.8463344 104.182952 90.9891418 104.538598 88.1325844 105.012821 87.0610975 107.028443 83.7282355 106.198811 83.2519309 104.538598 85.7516965 103.115615 83.2519309 102.167171 84.4420572 103.945485 87.0610975 103.115615 90.1560454 101.69287 87.4183657 100.388541 82.7756262 99.6770894 82.8949009 100.625613 87.8944321 98.846983 87.1802134 96.4755557 84.2041431"></polygon>
            <polygon id="Fill-2461" fill="#4E4D42" mask="url(#mask-2)" points="96.7104964 86.1169 98.2518978 87.9023569 99.6748204 88.9735401 101.453361 89.6878137 104.180636 95.9967914 104.417775 98.9727345 104.773574 100.996161 104.536254 103.139073 104.062158 104.448317 103.587699 105.995713 102.402187 107.067169 106.670683 106.828926 109.27939 106.828926 107.737988 102.7818 107.737988 100.877131 106.789434 98.3774914 107.02621 96.5920345 108.330654 94.568335 109.753577 92.7826964 111.05793 90.8783 111.888187 89.5687832 112.95522 87.5453563 109.397688 84.5695041 109.872327 86.7121431 110.464993 89.5687832 106.314794 93.8544249 104.180636 90.9972396 104.536254 88.1405995 105.010622 87.0691437 107.02621 83.7362909 106.196496 83.2599873 104.536254 85.7597178 103.113331 83.2599873 102.164867 84.450201 103.943317 87.0691437 103.113331 90.1640264 101.69068 87.4264168 100.386327 82.7837746 99.6748204 82.9030777 100.623375 87.9023569 98.844835 87.1881741 96.4734482 84.212231"></polygon>
            <path d="M99.4396223,82.4185963 L98.846983,84.7994842 L97.8985387,85.5135442 L97.068195,84.0852655 L96.238326,85.9898488 L95.2898025,86.2277629 L95.0523355,88.1325844 L93.7482443,87.5374022 L91.8510391,88.0134686 L91.0211701,86.3468788 L91.6138094,85.2756301 L91.7324638,84.2041431 L90.0724884,84.3234178 L90.3097182,82.7756262 L88.0566289,80.9903176 L89.7168416,80.5142512 L88.4125131,78.3715155 L89.0053897,77.1812304 L90.5464733,78.2524791 L91.0211701,76.9428398 L92.9183752,76.2285416 L94.6967677,75.2764088 L94.4596962,74.5621107 L92.6809082,74.0862825 L91.376817,74.4433124 C91.376817,74.4433124 90.5464733,75.2764088 90.0724884,74.5621107 C89.598029,73.8478919 89.123965,71.9435468 89.123965,71.9435468 L90.1910638,70.2771158 L88.4125131,68.9677148 L89.0053897,67.5391979 L89.4796118,66.9438568 L90.9023575,67.1822473 L90.7839404,65.3964623 L92.7997999,65.5155781 L94.2227038,64.5632071 L95.1712272,65.8727669 L96.238326,64.5632071 L96.9497779,65.6344558 L97.6613089,64.6824817 L100.506958,64.5632071 L102.997277,64.0870612 L103.115615,63.0158125 L102.167171,62.5395079 L100.744188,63.4917201 L99.3212052,62.3015938 L98.017114,63.2537266 L95.5268741,63.2537266 L94.1041284,62.5395079 L92.9183752,61.2303451 L93.0367923,59.920944 L94.8155804,59.0873712 L96.5941311,60.7541992 L97.1870077,59.5639141 L98.7284077,59.2066459 L98.3727609,58.1353972 L98.1352938,56.2308139 L99.9143191,56.7067215 L101.69287,55.5165951 L103.4715,54.3262305 L104.657016,56.3496915 L107.147255,54.9211746 L107.147255,56.3496915 L108.332771,56.4689662 L108.688814,57.5402149 L110.82309,56.3496915 L111.41573,58.4924271 L112.957525,57.1830261 L113.90597,57.7782084 L115.565945,57.6593308 L116.040405,58.7303412 L115.210061,59.4446394 L116.751856,59.5639141 L117.70038,60.2778946 L119.004471,59.4446394 C119.834815,58.9687318 120.783259,59.0873712 120.783259,59.0873712 L122.443235,60.5160469 L123.629225,60.7541992 L122.799119,62.3015938 L122.087429,63.1349284 L124.814741,61.4682592 L126.474637,62.7778984 L126.949334,63.968263 L125.645005,64.3252135 L126.474637,65.3964623 L126.356536,66.5870651 L127.660865,65.9916445 L128.135087,67.0631315 C128.609072,67.6580755 129.795063,68.0151055 129.795063,68.0151055 L128.846539,68.9677148 C128.846539,68.9677148 129.083611,68.9672383 129.795063,69.3247448 C130.506514,69.6819335 130.032292,70.3959935 130.032292,70.3959935 L128.964956,71.109974 L129.676408,72.1814609 L128.253504,73.4908619 L127.779203,74.4433124 L129.083611,74.9193788 L130.743744,74.8005012 L130.624932,75.9908658 L129.91348,76.4669322 L130.862399,78.0143267 L128.964956,78.6096679 L127.779203,78.6096679 L126.593529,78.2524791 L124.933554,78.3715155 L123.391758,78.3715155 L122.799119,79.3234895 L123.747642,80.0377083 L125.407776,80.1570624 L127.541973,80.1570624 L128.964956,81.3473476 L127.660865,82.299798 L128.490734,83.7282355 L127.304981,84.3234178 L127.660865,85.9898488 L127.423635,87.1802134 L126.119307,87.0610975 L124.577669,87.4183657 L123.273578,86.4659152 L121.139143,86.7040675 L119.479168,86.2277629 L117.463387,86.7040675 L115.684758,86.1088853 L113.90597,86.8231834 L112.127182,87.5374022 L111.41573,86.4659152 L110.704436,84.5613319 L108.570238,84.9186001 L107.621478,84.5613319 L106.080157,84.5613319 L105.012821,83.3710467 L103.234033,84.4420572 L102.167171,84.4420572 L101.100072,83.7282355 L100.032736,83.3710467 L99.4396223,82.4185963 Z" id="Stroke-2462" stroke="#151616" stroke-width="1.28426823" stroke-linejoin="round" mask="url(#mask-2)"></path>
            <path d="M99.4375007,82.4267741 L98.844835,84.8074741 L97.8963708,85.5216569 L97.0661139,84.0932005 L96.2361285,85.9979604 L95.2875737,86.2359305 L95.050254,88.1405995 L93.7460818,87.5453563 L91.8487912,88.021569 L91.0190774,86.3548701 L91.6117431,85.2836868 L91.7302219,84.212231 L90.0702511,84.3314431 L90.3075708,82.7837746 L88.0544818,80.9983178 L89.7147241,80.5223777 L88.4102803,78.3796477 L89.0032175,77.1892523 L90.544438,78.2604355 L91.0190774,76.9510096 L92.9160964,76.236736 L94.6946365,75.2845832 L94.4575883,74.5703096 L92.6787766,74.0943695 L91.3746949,74.4512792 C91.3746949,74.4512792 90.544438,75.2845832 90.0702511,74.5703096 C89.5958832,73.8561269 89.1217869,71.9516396 89.1217869,71.9516396 L90.1888204,70.2852132 L88.4102803,68.9757873 L89.0032175,67.547331 L89.4773139,66.9520878 L90.9002365,67.1903305 L90.7817577,65.404601 L92.7976175,65.5236315 L94.2205401,64.5713878 L95.1690044,65.8809046 L96.2361285,64.5713878 L96.9475445,65.6426619 L97.6589606,64.6906909 L100.504806,64.5713878 L102.995034,64.0951751 L103.113331,63.0239919 L102.164867,62.5476883 L100.741945,63.499932 L99.3190219,62.3097183 L98.0148496,63.2619619 L95.5246219,63.2619619 L94.1019708,62.5476883 L92.9160964,61.238535 L93.0346657,59.9291091 L94.8133869,59.0956234 L96.591927,60.7623223 L97.1848642,59.5721086 L98.7260847,59.2148355 L98.3704672,58.1436523 L98.1331474,56.2389832 L99.9121401,56.7149234 L101.69068,55.5247096 L103.46922,54.3344959 L104.654823,56.3579228 L107.145051,54.9294665 L107.145051,56.3579228 L108.330654,56.4772259 L108.686453,57.5484091 L110.820882,56.3579228 L111.413547,58.5006528 L112.95522,57.191136 L113.903775,57.7863792 L115.563746,57.6674396 L116.038114,58.7386228 L115.207857,59.4528056 L116.74962,59.5721086 L117.698085,60.2860188 L119.002257,59.4528056 C119.832514,58.9768655 120.781069,59.0956234 120.781069,59.0956234 L122.441039,60.5243523 L123.626823,60.7623223 L122.796838,62.3097183 L122.08515,63.1429315 L124.812426,61.4765051 L126.472488,62.7860218 L126.947127,63.9764173 L125.642683,64.3334178 L126.472488,65.404601 L126.35419,66.5950873 L127.658543,65.9998442 L128.13273,67.0713 C128.606826,67.6662706 129.792701,68.0232711 129.792701,68.0232711 L128.844146,68.9757873 C128.844146,68.9757873 129.081194,68.9755147 129.792701,69.3327878 C130.504117,69.6899701 130.03002,70.4042437 130.03002,70.4042437 L128.962715,71.1181538 L129.674131,72.1896096 L128.251209,73.4991264 L127.776841,74.4512792 L129.081194,74.9275827 L130.741436,74.8085523 L130.622686,75.9990386 L129.91118,76.4749787 L130.860006,78.0224655 L128.962715,78.6177086 L127.776841,78.6177086 L126.591238,78.2604355 L124.931267,78.3796477 L123.389504,78.3796477 L122.796838,79.3316188 L123.745393,80.0458924 L125.405364,80.1651046 L127.539793,80.1651046 L128.962715,81.3553183 L127.658543,82.3078345 L128.488257,83.7362909 L127.302654,84.3314431 L127.658543,85.9979604 L127.421223,87.1881741 L126.11687,87.0691437 L124.575378,87.4264168 L123.271296,86.4739005 L121.136867,86.7121431 L119.476896,86.2359305 L117.461036,86.7121431 L115.682587,86.1169 L113.903775,86.8311736 L112.124964,87.5453563 L111.413547,86.4739005 L110.702041,84.5695041 L108.567974,84.9266863 L107.619147,84.5695041 L106.078018,84.5695041 L105.010622,83.3790178 L103.231901,84.450201 L102.164867,84.450201 L101.097743,83.7362909 L100.030438,83.3790178 L99.4375007,82.4267741 Z" id="Fill-2463" fill="#84C802" mask="url(#mask-2)"></path>
            <polygon id="Stroke-2464" stroke="#151616" stroke-width="1.28426823" stroke-linejoin="round" mask="url(#mask-2)" points="45.869335 100.720577 44.1196616 102.74776 42.5040536 103.963548 40.4853517 104.774313 37.3893682 111.936073 37.1200703 115.314171 36.7163478 117.61134 36.9856458 120.043725 37.5240621 121.530128 38.0623886 123.286967 39.4081599 124.503025 34.5626827 124.232679 31.6013931 124.232679 33.3510664 119.638253 33.3510664 117.476212 34.4280786 114.638534 34.1587807 112.611891 32.6781359 110.314723 31.0627972 108.287629 29.5821524 106.125588 28.6401035 104.639185 27.4287566 102.342197 31.4669686 98.9638284 30.9283727 101.396214 30.2551727 104.639185 34.9664051 109.504138 37.3893682 106.260716 36.9856458 103.017835 36.4470499 101.801777 34.1587807 98.0183863 35.101099 97.4774254 36.9856458 100.315374 38.6007151 97.4774254 39.6776374 98.8288812 37.6586661 101.801777 38.6007151 105.314733 40.2157843 102.20698 41.6964291 96.9370054 42.5040536 97.0721329 41.42767 102.74776 43.4466413 101.936905 46.1386329 98.5585359"></polygon>
            <polygon id="Fill-2465" fill="#4E4D42" mask="url(#mask-2)" points="45.8697723 100.718757 44.1200146 102.745818 42.5046657 103.961746 40.4857285 104.772516 37.3897109 111.934152 37.1206219 115.312345 36.716762 117.609542 36.9861226 120.042034 37.5244818 121.52837 38.0627504 123.285023 39.4086482 124.501224 34.5631445 124.230725 31.6018978 124.230725 33.3516555 119.636331 33.3516555 117.474338 34.4284642 114.636779 34.1592847 112.60999 32.6787066 110.312793 31.0633577 108.285732 29.5826891 106.123739 28.6405606 104.637312 27.4290715 102.340388 31.4673985 98.9619218 30.9288584 101.394323 30.255638 104.637312 34.9670044 109.502205 37.3897109 106.258943 36.9861226 103.015954 36.447673 101.799753 34.1592847 98.016402 35.1014131 97.4754949 36.9861226 100.313326 38.6012905 97.4754949 39.6780993 98.8269904 37.659162 101.799753 38.6012905 105.312969 40.2163679 102.205184 41.696946 96.935133 42.5046657 97.0703371 41.4281285 102.745818 43.4470657 101.934957 46.1391328 98.556764"></polygon>
            <path d="M42.7736209,96.5319833 L43.4466413,99.2341737 L44.523384,100.045029 L45.465433,98.4234084 L46.4079309,100.585449 L47.4846736,100.855794 L47.7537022,103.017835 L49.2346164,102.342197 L51.3882815,102.882617 L52.3300611,100.990742 L51.6570407,99.7745937 L51.522706,98.5585359 L53.4072528,98.6937536 L53.1377753,96.9370054 L55.6956119,94.9103626 L53.8107059,94.3696722 L55.2916201,91.9375567 L54.6184201,90.5860108 L52.8689263,91.8021587 L52.3300611,90.315936 L50.1763959,89.5049003 L48.157694,88.42397 L48.426992,87.6132048 L50.4459632,87.0727847 L51.926608,87.4782575 C51.926608,87.4782575 52.8689263,88.42397 53.4072528,87.6132048 C53.9453997,86.8024395 54.4839956,84.6403988 54.4839956,84.6403988 L53.2726488,82.7489737 L55.2916201,81.2625707 L54.6184201,79.64095 L54.0802732,78.9653123 L52.4650243,79.2353871 L52.5996284,77.2082936 L50.3113592,77.3437818 L48.6960205,76.2625811 L47.6192777,77.7489841 L46.4079309,76.2625811 L45.600037,77.4789093 L44.7924126,76.3977988 L41.5620047,76.2625811 L38.7351395,75.7218906 L38.6007151,74.5061033 L39.6776374,73.9654128 L41.2929761,75.0462529 L42.9083148,73.695338 L44.3886902,74.7761781 L47.2156451,74.7761781 L48.8307144,73.9654128 L50.1763959,72.4790098 L50.0420612,70.9925167 L48.0230001,70.0466239 L46.0040288,71.9384997 L45.3310085,70.5875848 L43.5813351,70.1817514 L43.9847882,68.9659641 L44.2542657,66.8039234 L42.235025,67.344073 L40.2157843,65.9931581 L38.1969926,64.6416122 L36.8510417,66.9388706 L34.0243562,65.3175204 L34.0243562,66.9388706 L32.6781359,67.0739982 L32.2744134,68.2903264 L29.8517197,66.9388706 L29.1786994,69.3709862 L27.4287566,67.8845832 L26.3520138,68.5601307 L24.4673772,68.4252736 L23.9290507,69.6413314 L24.871369,70.4520967 L23.1214263,70.5875848 L22.0444141,71.3980796 L20.5640387,70.4520967 C19.621451,69.9119471 18.5450674,70.0466239 18.5450674,70.0466239 L16.6601614,71.6681544 L15.3143901,71.9384997 L16.2567084,73.695338 L17.0644226,74.6410506 L13.9684391,72.7493551 L12.0838025,74.2357581 L11.545476,75.5869434 L13.0261208,75.9925063 L12.0838025,77.2082936 L12.2184964,78.5598395 L10.7377618,77.8839314 L10.1994353,79.10053 C9.66110881,79.7761677 8.31479869,80.1810996 8.31479869,80.1810996 L9.39181087,81.2625707 C9.39181087,81.2625707 9.12251293,81.2623003 8.31479869,81.6675928 C7.50717426,82.073336 8.04577014,82.8841013 8.04577014,82.8841013 L9.257117,83.6944158 L8.44976195,84.910744 L10.0648312,86.397147 L10.6031577,87.4782575 L9.12251293,88.0184973 L7.2381457,87.88355 L7.37274978,89.2348255 L8.18046401,89.7755159 L7.10345184,91.5319937 L9.257117,92.2076315 L10.6031577,92.2076315 L11.949378,91.8021587 L13.8337453,91.9375567 L15.583688,91.9375567 L16.2567084,93.0182164 L15.1795166,93.8289817 L13.2954188,93.9641092 L10.8724557,93.9641092 L9.257117,95.3153847 L10.7377618,96.3964952 L9.79553329,98.0183863 L11.1417536,98.6937536 L10.7377618,100.585449 L11.0071495,101.936905 L12.4877943,101.801777 L14.2377371,102.20698 L15.7181125,101.12614 L18.1408062,101.396214 L20.0254428,100.855794 L22.3137121,101.396214 L24.3325038,100.720577 L26.3520138,101.531432 L28.3710749,102.342197 L29.1786994,101.12614 L29.9863238,98.9638284 L32.4090175,99.3693913 L33.4860297,98.9638284 L35.235703,98.9638284 L36.4470499,97.6126431 L38.4662906,98.8288812 L39.6776374,98.8288812 L40.8888047,98.0183863 L42.1006005,97.6126431 L42.7736209,96.5319833 Z" id="Stroke-2466" stroke="#151616" stroke-width="1.28426823" stroke-linejoin="round" mask="url(#mask-2)"></path>
            <path d="M42.7740263,96.5299751 L43.4470657,99.2323299 L44.5238745,100.043191 L45.4659124,98.4215599 L46.4083124,100.583553 L47.4851212,100.853961 L47.7543007,103.015954 L49.2351504,102.340388 L51.3887679,102.88075 L52.3306248,100.988983 L51.6576759,99.7726919 L51.5232672,98.556764 L53.4077051,98.691968 L53.1383445,96.935133 L55.6960029,94.9083442 L53.8112934,94.3677096 L55.2921431,91.9355812 L54.6189226,90.5840858 L52.8694365,91.8003772 L52.3306248,90.3139503 L50.1770073,89.5030893 L48.1580701,88.4220929 L48.4275212,87.6113228 L50.4463679,87.0709609 L51.9270365,87.4763914 C51.9270365,87.4763914 52.8694365,88.4220929 53.4077051,87.6113228 C53.9459737,86.8004619 54.4845139,84.638469 54.4845139,84.638469 L53.2730248,82.7469751 L55.2921431,81.2605482 L54.6189226,79.6389173 L54.080654,78.9633513 L52.4653051,79.2334868 L52.6000759,77.2065162 L50.3116876,77.3417203 L48.6963387,76.2607239 L47.6198015,77.7471508 L46.4083124,76.2607239 L45.6006832,77.4769244 L44.7929635,76.3959279 L41.5625372,76.2607239 L38.7356993,75.7200893 L38.6012905,74.5041614 L39.6780993,73.9635269 L41.2934482,75.0445234 L42.9087066,73.6933005 L44.3891036,74.774297 L47.2159416,74.774297 L48.8311095,73.9635269 L50.1770073,72.4771 L50.0425985,70.9906731 L48.0233898,70.044699 L46.0044526,71.9367381 L45.3315036,70.5855152 L43.581746,70.179903 L43.9853343,68.9638843 L44.2546949,66.8018914 L42.2354861,67.3422533 L40.2163679,65.9911213 L38.1974307,64.6396259 L36.8514423,66.9369137 L34.0248759,65.3155553 L34.0248759,66.9369137 L32.6787066,67.0721178 L32.2748467,68.2883183 L29.8520496,66.9369137 L29.1791007,69.3690421 L27.4290715,67.8827061 L26.3525343,68.5582721 L24.4677343,68.4232497 L23.9294657,69.6395411 L24.8718657,70.4503112 L23.1218365,70.5855152 L22.0450277,71.3961036 L20.5643591,70.4503112 C19.6219591,69.9099492 18.5454219,70.044699 18.5454219,70.044699 L16.6607124,71.6662391 L15.3147241,71.9367381 L16.2571241,73.6933005 L17.0648438,74.6390929 L13.9688263,72.7475081 L12.0842978,74.233935 L11.5458482,75.5851579 L13.0264263,75.9904975 L12.0842978,77.2065162 L12.2187971,78.5579208 L10.7381285,77.8820822 L10.1998599,79.0985553 C9.66159124,79.7741213 8.31533139,80.1792792 8.31533139,80.1792792 L9.39223066,81.2605482 C9.39223066,81.2605482 9.12305109,81.2602756 8.31533139,81.6657061 C7.50770219,82.0713183 8.04624234,82.8821792 8.04624234,82.8821792 L9.25745985,83.6924949 L8.45010219,84.908968 L10.0651796,86.3953041 L10.6037197,87.4763914 L9.12305109,88.0167533 L7.23852263,87.881731 L7.37329343,89.2329538 L8.18092263,89.7735883 L7.10384234,91.5301508 L9.25745985,92.2057168 L10.6037197,92.2057168 L11.9498891,91.8003772 L13.834146,91.9355812 L15.5841752,91.9355812 L16.2571241,93.0163051 L15.1800438,93.8270751 L13.2958774,93.9623701 L10.8728088,93.9623701 L9.25745985,95.313502 L10.7381285,96.3947711 L9.796,98.016402 L11.1422599,98.691968 L10.7381285,100.583553 L11.0074891,101.934957 L12.4881577,101.799753 L14.2381869,102.205184 L15.7185839,101.124187 L18.141381,101.394323 L20.025819,100.853961 L22.3141168,101.394323 L24.333054,100.718757 L26.3525343,101.529527 L28.3714715,102.340388 L29.1791007,101.124187 L29.9868204,98.9619218 L32.409527,99.367534 L33.4863358,98.9619218 L35.2360934,98.9619218 L36.447673,97.610699 L38.4667912,98.8269904 L39.6780993,98.8269904 L40.8893168,98.016402 L42.1010774,97.610699 L42.7740263,96.5299751 Z" id="Fill-2467" fill="#84C802" mask="url(#mask-2)"></path>
        </g>
    </g>
</svg>