<?xml version="1.0" encoding="UTF-8"?>
<svg width="250px" height="180px" viewBox="0 0 250 180" version="1.1" xmlns="http://www.w3.org/2000/svg" xmlns:xlink="http://www.w3.org/1999/xlink">
    <!-- Generator: Sketch 51.2 (57519) - http://www.bohemiancoding.com/sketch -->
    <title>8</title>
    <desc>Created with Sketch.</desc>
    <defs>
        <polygon id="path-1" points="0.394946715 0.47101085 248.197657 0.47101085 248.197657 151.925092 0.394946715 151.925092"></polygon>
    </defs>
    <g id="8" stroke="none" stroke-width="1" fill="none" fill-rule="evenodd">
        <g id="Group-946" transform="translate(0.000000, 14.000000)">
            <mask id="mask-2" fill="white">
                <use xlink:href="#path-1"></use>
            </mask>
            <g id="Clip-737"></g>
            <path d="M-8.93328394,67.315612 L-0.72609854,62.4581653 L6.36204088,62.4581653 L12.3306799,57.2274539 L19.791865,55.3592192 L28.3720051,56.4800144 L39.1906916,58.3481581 L53.3667887,57.6009916 L57.4703814,53.4909844 L60.0817007,51.6228407 L64.9314755,51.249212 C64.9314755,51.249212 66.7970672,55.3594922 68.6621135,53.1174467 C70.5271599,50.8754012 75.3769347,47.5128335 75.3769347,47.5128335 L83.5841201,44.8971593 C83.5841201,44.8971593 101.86381,45.2710611 104.102084,45.2710611 C106.340357,45.2710611 117.159044,44.8971593 117.159044,44.8971593 L121.262636,47.8863713 C125.739275,49.3809772 129.469822,49.754606 131.335141,49.754606 C133.20046,49.754606 135.438734,50.8754012 135.438734,50.8754012 L144.018874,51.6228407 L148.495512,49.0071665 C148.495512,49.0071665 155.956606,48.6335377 158.194971,48.6335377 C160.433245,48.6335377 170.505658,47.5128335 170.505658,47.5128335 L183.189664,48.6335377 L194.008168,56.1063856 L202.215354,57.2274539 C202.215354,57.2274539 199.604034,62.0846275 201.469353,62.0846275 C203.334581,62.0846275 207.064947,62.8320671 208.930175,63.2056048 C210.795494,63.5792335 220.121998,64.3264 220.121998,64.3264 L226.836819,67.315612 L232.805731,66.9418012 C232.805731,66.9418012 232.432412,69.1838467 235.044004,69.9310132 C237.655596,70.6781796 238.774551,70.3046419 240.63987,71.7992479 C242.505189,73.2938539 247.355055,75.5356263 247.355055,75.5356263" id="Stroke-736" stroke="#151616" stroke-width="0.515550362" mask="url(#mask-2)"></path>
            <path d="M35.8329175,25.4681916 L37.6981456,25.0946539 L30.2370515,36.6771449 L28.3717325,49.0071665 L29.4910511,58.3481581 L45.5323763,60.5900216 L55.9778354,57.9746204 L63.4389296,50.8754012 L70.5268872,44.8971593 L73.1382066,40.7871521 L72.3921153,32.9407665 L63.8119752,26.9625246 C63.8119752,26.9625246 59.7083825,25.8420934 55.9778354,25.0946539 C52.2471974,24.3472144 50.0086511,24.3472144 46.6513314,24.3472144 C43.2941026,24.3472144 35.8329175,25.4681916 35.8329175,25.4681916 Z" id="Stroke-738" stroke="#151616" stroke-width="1.28892138" mask="url(#mask-2)"></path>
            <path d="M35.8329175,25.4681916 L37.6981456,25.0946539 L30.2370515,36.6771449 L28.3717325,49.0071665 L29.4910511,58.3481581 L45.5323763,60.5900216 L55.9778354,57.9746204 L63.4389296,50.8754012 L70.5268872,44.8971593 L73.1382066,40.7871521 L72.3921153,32.9407665 L63.8119752,26.9625246 C63.8119752,26.9625246 59.7083825,25.8420934 55.9778354,25.0946539 C52.2471974,24.3472144 50.0086511,24.3472144 46.6513314,24.3472144 C43.2941026,24.3472144 35.8329175,25.4681916 35.8329175,25.4681916" id="Fill-739" fill="#FEFEFE" mask="url(#mask-2)"></path>
            <path d="M35.8329175,25.8418204 C37.6296252,29.8183952 46.6725055,44.3992 50.7551967,42.4097293 C58.0303588,38.8650347 64.1224073,34.8860934 63.4389296,26.2153581" id="Stroke-740" stroke="#151616" stroke-width="0.515550362" mask="url(#mask-2)"></path>
            <path d="M50.382242,41.5345916 C57.1040606,52.9182084 45.5323763,56.9183569 45.5323763,60.9635593" id="Stroke-741" stroke="#151616" stroke-width="0.515550362" mask="url(#mask-2)"></path>
            <path d="M71.646115,42.2817581 C71.646115,42.2817581 87.6874401,37.7979401 93.2833062,36.6771449 C98.8791723,35.5564407 104.101811,35.5564407 104.101811,35.5564407 L122.754728,40.7871521 L131.334868,42.2817581" id="Stroke-742" stroke="#151616" stroke-width="0.515550362" mask="url(#mask-2)"></path>
            <polyline id="Stroke-743" stroke="#151616" stroke-width="0.515550362" mask="url(#mask-2)" points="104.101811 35.5564407 105.221039 29.2045701 105.96713 24.3472144"></polyline>
            <path d="M130.961823,38.1717509 C130.961823,38.1717509 141.034054,31.8199713 144.018601,30.3253653 C147.003239,28.8307593 153.71806,26.5887138 155.956334,28.8307593 C158.194698,31.0728048 162.298291,34.8090012 162.298291,34.8090012 C162.298291,34.8090012 164.536837,33.3143952 167.148066,32.9407665 C169.759385,32.5671377 170.505658,33.3145772 171.251658,35.5564407 C171.99775,37.7982132 174.608978,39.6661749 176.474297,40.4136144 C178.339616,41.1610539 180.57789,41.1610539 182.443209,39.2928192 C184.308437,37.4245844 184.308437,37.0507737 186.173756,36.6771449 C188.039075,36.3036072 195.873215,41.1610539 197.738443,41.1610539 C199.603762,41.1610539 209.30322,41.1610539 209.30322,41.1610539 L221.613999,29.2045701 C221.613999,29.2045701 224.598273,28.8307593 225.717591,32.1936 C226.836819,35.5564407 227.955592,42.2820311 230.567184,45.6445988 C233.178685,49.0071665 235.790005,50.5014994 237.655324,50.8754012 C239.520643,51.249212 242.131871,51.9963784 242.131871,51.9963784 L256.680923,56.4800144" id="Stroke-744" stroke="#151616" stroke-width="0.515550362" mask="url(#mask-2)"></path>
            <path d="M162.298291,34.4353725 C159.66507,38.8957078 155.210333,42.1262084 155.210333,47.1392048" id="Stroke-745" stroke="#151616" stroke-width="0.515550362" mask="url(#mask-2)"></path>
            <path d="M172.370704,36.6771449 C172.210763,41.3196982 176.526369,42.0173509 174.982296,45.2710611" id="Stroke-746" stroke="#151616" stroke-width="0.515550362" mask="url(#mask-2)"></path>
            <path d="M187.292984,50.8754012 C189.289164,45.5630467 199.102763,47.7168958 207.16073,43.1252216 C208.558492,42.3287234 209.164362,43.0023473 210.422266,41.1610539" id="Stroke-747" stroke="#151616" stroke-width="0.515550362" mask="url(#mask-2)"></path>
            <path d="M207.810947,62.4581653 C213.201252,55.6905246 218.566838,52.5294707 207.437901,44.8971593" id="Stroke-748" stroke="#151616" stroke-width="0.515550362" mask="url(#mask-2)"></path>
            <path d="M228.701865,42.6553868 C223.643076,55.0581317 229.888341,48.5378778 218.597464,50.8433629 C218.513494,50.8603832 214.309938,52.662812 214.152814,53.1174467" id="Stroke-749" stroke="#151616" stroke-width="0.515550362" mask="url(#mask-2)"></path>
            <path d="M225.344546,50.5017725 C242.52909,62.3490347 223.774482,59.2878275 249.902216,61.6790515 C251.597688,61.8340551 251.512174,61.818582 252.204376,63.2056048" id="Stroke-750" stroke="#151616" stroke-width="0.515550362" mask="url(#mask-2)"></path>
            <path d="M36.5791905,63.2056048 C32.3624573,62.3521293 32.1077321,65.5393054 25.0144128,62.1486132 C24.475246,61.8908503 19.5942099,63.9765269 18.5445022,64.230376 C15.5504135,64.9541509 16.745977,64.417509 13.8226807,65.821006" id="Stroke-751" stroke="#151616" stroke-width="0.515550362" mask="url(#mask-2)"></path>
            <path d="M223.960233,121.984005 L240.362426,121.562683 C240.362426,121.562683 241.624147,123.66902 241.624147,125.775085 C241.624147,127.881241 241.203755,129.987032 238.680313,130.829677 C236.156871,131.672321 224.801562,134.620757 224.801562,134.620757" id="Stroke-752" stroke="#151616" stroke-width="0.515550362" mask="url(#mask-2)"></path>
            <polygon id="Stroke-753" stroke="#151616" stroke-width="3.12340399" mask="url(#mask-2)" points="180.431422 66.1713642 169.496766 66.1713642 169.496766 96.9207985 180.431422 96.9207985"></polygon>
            <polygon id="Fill-754" fill="#FEFEFE" mask="url(#mask-2)" points="180.431034 66.1713341 169.49639 66.1713341 169.49639 96.9207521 180.431034 96.9207521"></polygon>
            <polygon id="Stroke-755" stroke="#151616" stroke-width="1.28892138" mask="url(#mask-2)" points="143.000336 66.1713341 169.49639 66.1713341 169.49639 96.9207521 143.000336 96.9207521"></polygon>
            <polygon id="Fill-756" fill="#FEFEFE" mask="url(#mask-2)" points="143.000336 66.1713341 169.49639 66.1713341 169.49639 96.9207521 143.000336 96.9207521"></polygon>
            <polygon id="Stroke-757" stroke="#151616" stroke-width="3.12340399" mask="url(#mask-2)" points="178.751987 68.7011392 171.181535 68.7011392 171.181535 96.5013241 178.751987 96.5013241"></polygon>
            <polygon id="Fill-758" fill="#FEFEFE" mask="url(#mask-2)" points="178.748921 68.699085 171.178503 68.699085 171.178503 96.4994299 178.748921 96.4994299"></polygon>
            <polygon id="Stroke-759" stroke="#151616" stroke-width="3.12340399" mask="url(#mask-2)" points="165.71025 68.7011392 145.522907 68.7011392 145.522907 96.5013241 165.71025 96.5013241"></polygon>
            <polygon id="Fill-760" fill="#FEFEFE" mask="url(#mask-2)" points="165.711227 68.699085 145.523779 68.699085 145.523779 96.4994299 165.711227 96.4994299"></polygon>
            <path d="M140.056502,106.188019 L167.814004,108.294084 L181.272364,106.609068 L184.216198,104.503004 L184.216198,97.7633964 L167.814004,93.550994 L140.056502,92.2873006 C140.056502,92.2873006 139.215446,107.03039 140.056502,106.188019 Z" id="Stroke-761" stroke="#151616" stroke-width="1.28892138" mask="url(#mask-2)"></path>
            <path d="M140.056502,106.188019 L167.814004,108.294084 L181.272364,106.609068 L184.216198,104.503004 L184.216198,97.7633964 L167.814004,93.550994 L140.056502,92.2873006 C140.056502,92.2873006 139.215446,107.03039 140.056502,106.188019" id="Fill-762" fill="#FEFEFE" mask="url(#mask-2)"></path>
            <path d="M167.922692,114.554026 C174.488749,115.581164 179.589978,123.23714 179.589978,132.53144 C179.589978,141.648527 174.681134,149.189729 168.29601,150.443138 L168.297737,150.627358 L166.415788,150.627358 L155.123274,150.627358 L155.123001,150.627358 C147.847112,150.627358 141.948811,142.525485 141.948811,132.53144 C141.948811,122.537212 147.847112,114.435339 155.123001,114.435339 L155.123274,114.435339 L166.415788,114.435339 L167.92142,114.435339 L167.922692,114.554026 Z" id="Stroke-763" stroke="#151616" stroke-width="1.15596413" mask="url(#mask-2)"></path>
            <path d="M167.922692,114.554026 C174.488749,115.581164 179.589978,123.23714 179.589978,132.53144 C179.589978,141.648527 174.681134,149.189729 168.29601,150.443138 L168.297737,150.627358 L166.415788,150.627358 L155.123274,150.627358 L155.123001,150.627358 C147.847112,150.627358 141.948811,142.525485 141.948811,132.53144 C141.948811,122.537212 147.847112,114.435339 155.123001,114.435339 L155.123274,114.435339 L166.415788,114.435339 L167.92142,114.435339 L167.922692,114.554026 Z" id="Fill-764" fill="#FEFEFE" mask="url(#mask-2)"></path>
            <path d="M92.3214755,110.189624 L92.3217482,110.189624 L106.621164,110.189624 L107.041556,150.627358 L92.3217482,150.627358 L92.3214755,150.627358 C84.1918073,150.627358 77.601577,141.574984 77.601577,130.408628 C77.601577,119.241998 84.1918073,110.189624 92.3214755,110.189624 Z" id="Stroke-765" stroke="#151616" stroke-width="1.28892138" mask="url(#mask-2)"></path>
            <path d="M92.3214755,110.189624 L92.3217482,110.189624 L106.621164,110.189624 L107.041556,150.627358 L92.3217482,150.627358 L92.3214755,150.627358 C84.1918073,150.627358 77.601577,141.574984 77.601577,130.408628 C77.601577,119.241998 84.1918073,110.189624 92.3214755,110.189624" id="Fill-766" fill="#FEFEFE" mask="url(#mask-2)"></path>
            <path d="M104.93804,110.190178 C113.06761,110.190178 119.65787,119.242666 119.65787,130.40916 C119.65787,141.575477 113.06761,150.6277 104.93804,150.6277 C96.808381,150.6277 90.2183862,141.575477 90.2183862,130.40916 C90.2183862,119.242666 96.808381,110.190178 104.93804,110.190178 Z" id="Stroke-767" stroke="#151616" stroke-width="1.32911775" mask="url(#mask-2)"></path>
            <path d="M104.938778,110.189624 C113.068355,110.189624 119.658586,119.241998 119.658586,130.408628 C119.658586,141.574984 113.068355,150.627358 104.938778,150.627358 C96.8091099,150.627358 90.2188796,141.574984 90.2188796,130.408628 C90.2188796,119.241998 96.8091099,110.189624 104.938778,110.189624" id="Fill-768" fill="#FEFEFE" mask="url(#mask-2)"></path>
            <path d="M105.56823,120.447878 C109.400892,120.447878 112.507738,124.906503 112.507738,130.406609 C112.507738,135.906888 109.400892,140.365731 105.56823,140.365731 C101.735699,140.365731 98.628809,135.906888 98.628809,130.406609 C98.628809,124.906503 101.735699,120.447878 105.56823,120.447878 Z" id="Stroke-769" stroke="#151616" stroke-width="2.69852283" mask="url(#mask-2)"></path>
            <path d="M105.569639,120.449715 C109.402239,120.449715 112.509105,124.90823 112.509105,130.408354 C112.509105,135.908479 109.402239,140.367267 105.569639,140.367267 C101.737038,140.367267 98.6300814,135.908479 98.6300814,130.408354 C98.6300814,124.90823 101.737038,120.449715 105.569639,120.449715" id="Fill-770" fill="#FEFEFE" mask="url(#mask-2)"></path>
            <path d="M105.778469,123.515267 C107.86916,123.515267 109.563912,126.602254 109.563912,130.41006 C109.563912,134.217963 107.86916,137.30495 105.778469,137.30495 C103.687852,137.30495 101.993051,134.217963 101.993051,130.41006 C101.993051,126.602254 103.687852,123.515267 105.778469,123.515267 Z" id="Stroke-771" stroke="#151616" stroke-width="4.79719203" mask="url(#mask-2)"></path>
            <path d="M105.779835,123.513471 C107.870526,123.513471 109.565271,126.600527 109.565271,130.408354 C109.565271,134.216273 107.870526,137.303238 105.779835,137.303238 C103.689143,137.303238 101.994399,134.216273 101.994399,130.408354 C101.994399,126.600527 103.689143,123.513471 105.779835,123.513471" id="Fill-772" fill="#FEFEFE" mask="url(#mask-2)"></path>
            <path d="M131.014167,100.92263 L138.584494,98.3952431 L149.519138,92.076776 L144.051862,105.977222 L134.799331,113.980795 C134.799331,113.980795 131.014167,102.186414 131.014167,100.92263 Z" id="Stroke-773" stroke="#151616" stroke-width="1.28892138" mask="url(#mask-2)"></path>
            <path d="M131.014167,100.92263 L138.584494,98.3952431 L149.519138,92.076776 L144.051862,105.977222 L134.799331,113.980795 C134.799331,113.980795 131.014167,102.186414 131.014167,100.92263" id="Fill-774" fill="#FEFEFE" mask="url(#mask-2)"></path>
            <path d="M47.3211777,111.453317 C47.3211777,111.453317 54.8912321,101.765274 62.0409854,98.8165653 C69.1906478,95.8678563 75.0786799,93.7615186 77.6021223,93.3404695 C80.1255646,92.9194204 93.1630774,91.2341317 96.9482409,92.076776 C100.733404,92.9194204 109.985935,95.025485 109.985935,95.025485 L126.388129,103.871157 L109.565271,114.823166 L62.8823146,113.980795 L47.3211777,111.453317 Z" id="Stroke-775" stroke="#151616" stroke-width="1.28892138" stroke-linejoin="round" mask="url(#mask-2)"></path>
            <path d="M47.3211777,111.453317 C47.3211777,111.453317 54.8912321,101.765274 62.0409854,98.8165653 C69.1906478,95.8678563 75.0786799,93.7615186 77.6021223,93.3404695 C80.1255646,92.9194204 93.1630774,91.2341317 96.9482409,92.076776 C100.733404,92.9194204 109.985935,95.025485 109.985935,95.025485 L126.388129,103.871157 L109.565271,114.823166 L62.8823146,113.980795 L47.3211777,111.453317 Z" id="Fill-776" fill="#FEFEFE" mask="url(#mask-2)"></path>
            <path d="M47.7417515,110.189624 C47.7417515,110.189624 43.956588,109.347253 46.4800303,112.717011 C49.0035635,116.08686 51.9473978,119.877667 51.9473978,119.877667 C51.9473978,119.877667 59.0971511,129.987305 62.46165,130.829677 C65.8261489,131.672048 70.8731245,131.250999 70.8731245,131.250999 L117.976745,131.672048 C117.976745,131.672048 123.864686,132.514692 126.388129,127.459919 C128.911662,122.405054 135.219995,113.138151 135.219995,113.138151 L134.378939,105.977222 C134.378939,105.977222 132.276161,103.450108 127.64985,106.819866 C123.02363,110.189624 108.303822,117.771602 108.303822,117.771602 L104.097903,109.768302 C104.097903,109.768302 94.0041339,108.925931 87.6957099,109.768302 C81.3872858,110.610673 47.7417515,110.189624 47.7417515,110.189624 Z" id="Stroke-777" stroke="#151616" stroke-width="1.28892138" stroke-linejoin="round" mask="url(#mask-2)"></path>
            <path d="M47.7417515,110.189624 C47.7417515,110.189624 43.956588,109.347253 46.4800303,112.717011 C49.0035635,116.08686 51.9473978,119.877667 51.9473978,119.877667 C51.9473978,119.877667 59.0971511,129.987305 62.46165,130.829677 C65.8261489,131.672048 70.8731245,131.250999 70.8731245,131.250999 L117.976745,131.672048 C117.976745,131.672048 123.864686,132.514692 126.388129,127.459919 C128.911662,122.405054 135.219995,113.138151 135.219995,113.138151 L134.378939,105.977222 C134.378939,105.977222 132.276161,103.450108 127.64985,106.819866 C123.02363,110.189624 108.303822,117.771602 108.303822,117.771602 L104.097903,109.768302 C104.097903,109.768302 94.0041339,108.925931 87.6957099,109.768302 C81.3872858,110.610673 47.7417515,110.189624 47.7417515,110.189624" id="Fill-778" fill="#FEFEFE" mask="url(#mask-2)"></path>
            <polyline id="Stroke-779" stroke="#151616" stroke-width="0.644506159" stroke-linejoin="round" mask="url(#mask-2)" points="51.9473978 119.877667 62.0409854 119.456618 61.6205934 116.929231 93.583742 116.929231 94.0044066 119.035296 109.144879 118.192925"></polyline>
            <path d="M107.883158,116.08686 C107.883158,116.08686 111.668321,123.668747 115.03282,127.038596 C118.39741,130.408354 118.397592,132.514692 120.920852,132.514692 C123.444022,132.514692 124.705743,130.408354 124.705743,130.408354" id="Stroke-780" stroke="#151616" stroke-width="0.644506159" stroke-linejoin="round" mask="url(#mask-2)"></path>
            <path d="M81.8077686,129.144934 L76.7610657,128.723612 L72.5552376,128.723612 C72.5552376,128.723612 71.2935164,130.408628 72.9759022,132.514692 C74.658288,134.620757 76.7610657,136.726913 76.7610657,136.726913 L84.7518755,136.726913 L91.4808734,133.357063 C91.4808734,133.357063 80.9666212,129.565983 81.8077686,129.144934 Z" id="Stroke-781" stroke="#151616" stroke-width="1.28892138" stroke-linejoin="round" mask="url(#mask-2)"></path>
            <path d="M81.8077686,129.144934 L76.7610657,128.723612 L72.5552376,128.723612 C72.5552376,128.723612 71.2935164,130.408628 72.9759022,132.514692 C74.658288,134.620757 76.7610657,136.726913 76.7610657,136.726913 L84.7518755,136.726913 L91.4808734,133.357063 C91.4808734,133.357063 80.9666212,129.565983 81.8077686,129.144934" id="Fill-782" fill="#FEFEFE" mask="url(#mask-2)"></path>
            <path d="M81.8077686,129.144934 L84.3312109,136.726913" id="Stroke-783" stroke="#151616" stroke-width="0.515550362" mask="url(#mask-2)"></path>
            <path d="M104.097903,129.144934 L99.0512912,128.723612 L94.8454631,128.723612 C94.8454631,128.723612 93.583742,130.408628 95.2661277,132.514692 C96.9485135,134.620757 99.0512912,136.726913 99.0512912,136.726913 L107.042101,136.726913 L113.771099,133.357063 C113.771099,133.357063 103.256847,129.565983 104.097903,129.144934 Z" id="Stroke-784" stroke="#151616" stroke-width="1.28892138" stroke-linejoin="round" mask="url(#mask-2)"></path>
            <path d="M104.097903,129.144934 L99.0512912,128.723612 L94.8454631,128.723612 C94.8454631,128.723612 93.583742,130.408628 95.2661277,132.514692 C96.9485135,134.620757 99.0512912,136.726913 99.0512912,136.726913 L107.042101,136.726913 L113.771099,133.357063 C113.771099,133.357063 103.256847,129.565983 104.097903,129.144934" id="Fill-785" fill="#FEFEFE" mask="url(#mask-2)"></path>
            <path d="M104.097903,129.144934 L106.621436,136.726913" id="Stroke-786" stroke="#151616" stroke-width="0.515550362" mask="url(#mask-2)"></path>
            <path d="M104.939051,109.768302 C104.939051,109.768302 107.042101,106.398544 113.350434,105.556172 C119.658858,104.713801 121.761909,103.87143 125.967464,103.450108 C130.173111,103.028786 132.69628,101.343952 133.537609,103.450108 C134.378939,105.556172 131.435104,104.292206 125.126408,108.504608 C118.817802,112.717011 112.088713,115.665538 112.088713,115.665538 L108.30355,117.771602 C108.30355,117.771602 104.518386,110.189624 104.939051,109.768302 Z" id="Stroke-787" stroke="#151616" stroke-width="1.28892138" stroke-linejoin="round" mask="url(#mask-2)"></path>
            <path d="M104.939051,109.768302 C104.939051,109.768302 107.042101,106.398544 113.350434,105.556172 C119.658858,104.713801 121.761909,103.87143 125.967464,103.450108 C130.173111,103.028786 132.69628,101.343952 133.537609,103.450108 C134.378939,105.556172 131.435104,104.292206 125.126408,108.504608 C118.817802,112.717011 112.088713,115.665538 112.088713,115.665538 L108.30355,117.771602 C108.30355,117.771602 104.518386,110.189624 104.939051,109.768302" id="Fill-788" fill="#FEFEFE" mask="url(#mask-2)"></path>
            <path d="M203.339985,115.730461 L203.34021,115.730461 L215.116494,115.730461 L215.462708,151.521252 L203.34021,151.521252 L203.339985,151.521252 C196.644797,151.521252 191.217413,143.509016 191.217413,133.626139 C191.217413,123.742697 196.644797,115.730461 203.339985,115.730461 Z" id="Stroke-789" stroke="#151616" stroke-width="1.28892138" mask="url(#mask-2)"></path>
            <path d="M203.339034,115.731526 L203.339216,115.731526 L215.115462,115.731526 L215.461699,151.522065 L203.339216,151.522065 L203.339034,151.522065 C196.643933,151.522065 191.216551,143.510026 191.216551,133.626932 C191.216551,123.743564 196.643933,115.731526 203.339034,115.731526" id="Fill-790" fill="#FEFEFE" mask="url(#mask-2)"></path>
            <path d="M213.728283,115.731681 C220.423356,115.731681 225.85081,123.743602 225.85081,133.627053 C225.85081,143.510114 220.423356,151.522113 213.728283,151.522113 C207.033428,151.522113 201.605975,143.510114 201.605975,133.627053 C201.605975,123.743602 207.033428,115.731681 213.728283,115.731681 Z" id="Stroke-791" stroke="#151616" stroke-width="1.32911775" mask="url(#mask-2)"></path>
            <path d="M213.730059,115.731526 C220.42516,115.731526 225.852542,123.743564 225.852542,133.626932 C225.852542,143.510026 220.42516,151.522065 213.730059,151.522065 C207.035049,151.522065 201.607666,143.510026 201.607666,133.626932 C201.607666,123.743564 207.035049,115.731526 213.730059,115.731526" id="Fill-792" fill="#FEFEFE" mask="url(#mask-2)"></path>
            <path d="M214.250804,124.810235 C217.406891,124.810235 219.965694,128.75643 219.965694,133.624493 C219.965694,138.492556 217.406891,142.438981 214.250804,142.438981 C211.094396,142.438981 208.535593,138.492556 208.535593,133.624493 C208.535593,128.75643 211.094396,124.810235 214.250804,124.810235 Z" id="Stroke-793" stroke="#151616" stroke-width="2.69852283" mask="url(#mask-2)"></path>
            <path d="M214.249687,124.812479 C217.405808,124.812479 219.964601,128.758654 219.964601,133.626659 C219.964601,138.494754 217.405808,142.441111 214.249687,142.441111 C211.093294,142.441111 208.534501,138.494754 208.534501,133.626659 C208.534501,128.758654 211.093294,124.812479 214.249687,124.812479" id="Fill-794" fill="#FEFEFE" mask="url(#mask-2)"></path>
            <path d="M214.419699,127.523699 C216.141195,127.523699 217.5371,130.255944 217.5371,133.626262 C217.5371,136.996558 216.141195,139.728869 214.419699,139.728869 C212.697861,139.728869 211.302217,136.996558 211.302217,133.626262 C211.302217,130.255944 212.697861,127.523699 214.419699,127.523699 Z" id="Stroke-795" stroke="#151616" stroke-width="4.79719203" mask="url(#mask-2)"></path>
            <path d="M214.422806,127.524177 C216.144359,127.524177 217.540304,130.256354 217.540304,133.626659 C217.540304,136.996963 216.144359,139.729231 214.422806,139.729231 C212.70098,139.729231 211.305308,136.996963 211.305308,133.626659 C211.305308,130.256354 212.70098,127.524177 214.422806,127.524177" id="Fill-796" fill="#FEFEFE" mask="url(#mask-2)"></path>
            <polyline id="Stroke-797" stroke="#151616" stroke-width="0.515550362" mask="url(#mask-2)" points="206.574607 118.279322 204.096926 117.048554 195.329694 119.920534"></polyline>
            <polyline id="Stroke-798" stroke="#151616" stroke-width="0.515550362" mask="url(#mask-2)" points="203.144127 123.407978 201.23823 121.97227 192.661318 124.434209"></polyline>
            <polyline id="Stroke-799" stroke="#151616" stroke-width="0.515550362" mask="url(#mask-2)" points="201.809714 128.126674 198.379309 127.100926 191.136809 129.562784"></polyline>
            <polyline id="Stroke-800" stroke="#151616" stroke-width="0.515550362" mask="url(#mask-2)" points="201.23823 133.05039 197.617055 132.229743 190.946115 134.896702"></polyline>
            <polyline id="Stroke-801" stroke="#151616" stroke-width="0.515550362" mask="url(#mask-2)" points="201.4287 139.204793 197.807375 137.153459 191.708369 139.409813"></polyline>
            <polyline id="Stroke-802" stroke="#151616" stroke-width="0.515550362" mask="url(#mask-2)" points="203.715687 145.154095 200.094512 143.102761 193.805036 144.948994"></polyline>
            <polyline id="Stroke-803" stroke="#151616" stroke-width="0.515550362" mask="url(#mask-2)" points="197.426136 149.66777 200.856766 147.410932 206.955772 149.052064"></polyline>
            <polyline id="Stroke-804" stroke="#151616" stroke-width="0.515550362" mask="url(#mask-2)" points="202.572193 151.924365 206.193592 150.693275 211.148881 151.719023"></polyline>
            <path d="M203.906381,116.843212 L201.4287,121.97227" id="Stroke-805" stroke="#151616" stroke-width="0.515550362" mask="url(#mask-2)"></path>
            <path d="M209.624372,115.612444 L203.525142,116.843212" id="Stroke-806" stroke="#151616" stroke-width="0.515550362" mask="url(#mask-2)"></path>
            <polyline id="Stroke-807" stroke="#151616" stroke-width="0.515550362" mask="url(#mask-2)" points="201.23823 122.177371 198.379309 127.100926 197.99807 132.434764 197.617055 137.153459 200.094512 142.897741 200.856766 147.205831 206.193592 150.283154"></polyline>
            <path d="M198.950868,116.638191 L198.760548,118.689444" id="Stroke-808" stroke="#151616" stroke-width="0.515550362" mask="url(#mask-2)"></path>
            <path d="M195.710933,119.920534 L194.758209,124.228624" id="Stroke-809" stroke="#151616" stroke-width="0.515550362" mask="url(#mask-2)"></path>
            <path d="M193.042557,124.228624 L193.042557,128.9474" id="Stroke-810" stroke="#151616" stroke-width="0.515550362" mask="url(#mask-2)"></path>
            <path d="M191.517824,129.768046 L192.852237,134.075976" id="Stroke-811" stroke="#151616" stroke-width="0.515550362" mask="url(#mask-2)"></path>
            <path d="M190.946115,134.691601 L193.423796,138.58957" id="Stroke-812" stroke="#151616" stroke-width="0.515550362" mask="url(#mask-2)"></path>
            <path d="M191.708369,139.409813 L195.710933,144.33361" id="Stroke-813" stroke="#151616" stroke-width="0.515550362" mask="url(#mask-2)"></path>
            <path d="M193.99573,145.154095 L199.141563,148.43668" id="Stroke-814" stroke="#151616" stroke-width="0.515550362" mask="url(#mask-2)"></path>
            <path d="M197.617055,149.462669 L204.28762,151.308901" id="Stroke-815" stroke="#151616" stroke-width="0.515550362" mask="url(#mask-2)"></path>
            <path d="M134.16847,110.821471 L140.897559,105.766697 L154.355918,105.766697 L167.393612,120.509514 C167.393612,120.509514 168.655061,120.930836 167.814004,126.40675 C166.972948,131.882572 164.449505,131.882572 164.449505,131.882572 L154.355918,116.297384 L134.16847,110.821471 Z" id="Stroke-816" stroke="#151616" stroke-width="1.28892138" mask="url(#mask-2)"></path>
            <path d="M134.16847,110.821471 L140.897559,105.766697 L154.355918,105.766697 L167.393612,120.509514 C167.393612,120.509514 168.655061,120.930836 167.814004,126.40675 C166.972948,131.882572 164.449505,131.882572 164.449505,131.882572 L154.355918,116.297384 L134.16847,110.821471 Z" id="Fill-817" fill="#FEFEFE" mask="url(#mask-2)"></path>
            <path d="M138.163648,111.031995 L138.16383,111.031995 L152.463336,111.031995 L152.883728,151.469729 L138.16383,151.469729 L138.163648,151.469729 C130.03398,151.469729 123.443749,142.417356 123.443749,131.250999 C123.443749,120.084369 130.03398,111.031995 138.163648,111.031995 Z" id="Stroke-818" stroke="#151616" stroke-width="1.28892138" mask="url(#mask-2)"></path>
            <path d="M138.163648,111.031995 L138.16383,111.031995 L152.463336,111.031995 L152.883728,151.469729 L138.16383,151.469729 L138.163648,151.469729 C130.03398,151.469729 123.443749,142.417356 123.443749,131.250999 C123.443749,120.084369 130.03398,111.031995 138.163648,111.031995" id="Fill-819" fill="#FEFEFE" mask="url(#mask-2)"></path>
            <path d="M150.780149,111.032533 C158.90972,111.032533 165.499979,120.08502 165.499979,131.251602 C165.499979,142.417831 158.90972,151.470142 150.780149,151.470142 C142.650491,151.470142 136.060231,142.417831 136.060231,131.251602 C136.060231,120.08502 142.650491,111.032533 150.780149,111.032533 Z" id="Stroke-820" stroke="#151616" stroke-width="1.32911775" mask="url(#mask-2)"></path>
            <path d="M150.78095,111.031995 C158.910528,111.031995 165.500758,120.084369 165.500758,131.250999 C165.500758,142.417356 158.910528,151.469729 150.78095,151.469729 C142.651282,151.469729 136.061052,142.417356 136.061052,131.250999 C136.061052,120.084369 142.651282,111.031995 150.78095,111.031995" id="Fill-821" fill="#FEFEFE" mask="url(#mask-2)"></path>
            <path d="M151.410117,121.290296 C155.242735,121.290296 158.349624,125.748878 158.349624,131.249027 C158.349624,136.749263 155.242735,141.208105 151.410117,141.208105 C147.577585,141.208105 144.470695,136.749263 144.470695,131.249027 C144.470695,125.748878 147.577585,121.290296 151.410117,121.290296 Z" id="Stroke-822" stroke="#151616" stroke-width="2.69852283" mask="url(#mask-2)"></path>
            <path d="M151.411811,121.292086 C155.244321,121.292086 158.351277,125.750601 158.351277,131.250726 C158.351277,136.75085 155.244321,141.209729 151.411811,141.209729 C147.57921,141.209729 144.472254,136.75085 144.472254,131.250726 C144.472254,125.750601 147.57921,121.292086 151.411811,121.292086" id="Fill-823" fill="#FEFEFE" mask="url(#mask-2)"></path>
            <path d="M151.620377,124.357591 C153.711068,124.357591 155.405795,127.444652 155.405795,131.252482 C155.405795,135.060312 153.711068,138.147274 151.620377,138.147274 C149.52976,138.147274 147.834959,135.060312 147.834959,131.252482 C147.834959,127.444652 149.52976,124.357591 151.620377,124.357591 Z" id="Stroke-824" stroke="#151616" stroke-width="4.79719203" mask="url(#mask-2)"></path>
            <path d="M151.622007,124.355842 C153.712698,124.355842 155.407443,127.442898 155.407443,131.250726 C155.407443,135.058644 153.712698,138.14561 151.622007,138.14561 C149.531316,138.14561 147.836571,135.058644 147.836571,131.250726 C147.836571,127.442898 149.531316,124.355842 151.622007,124.355842" id="Fill-825" fill="#FEFEFE" mask="url(#mask-2)"></path>
            <polyline id="Stroke-826" stroke="#151616" stroke-width="0.515550362" mask="url(#mask-2)" points="142.091214 113.911622 139.082767 112.520958 128.437108 115.766113"></polyline>
            <polyline id="Stroke-827" stroke="#151616" stroke-width="0.515550362" mask="url(#mask-2)" points="137.925553 119.706371 135.611307 118.084067 125.197018 120.865576"></polyline>
            <polyline id="Stroke-828" stroke="#151616" stroke-width="0.515550362" mask="url(#mask-2)" points="136.305508 125.037475 132.139847 123.878544 123.345603 126.660053"></polyline>
            <polyline id="Stroke-829" stroke="#151616" stroke-width="0.515550362" mask="url(#mask-2)" points="135.611307 130.600584 131.214276 129.673293 123.114324 132.686807"></polyline>
            <polyline id="Stroke-830" stroke="#151616" stroke-width="0.515550362" mask="url(#mask-2)" points="135.842859 137.554266 131.445646 135.236402 124.039895 137.785998"></polyline>
            <polyline id="Stroke-831" stroke="#151616" stroke-width="0.515550362" mask="url(#mask-2)" points="138.619845 144.276034 134.222814 141.95817 126.585693 144.044393"></polyline>
            <polyline id="Stroke-832" stroke="#151616" stroke-width="0.515550362" mask="url(#mask-2)" points="130.982724 149.375497 135.148385 146.825902 142.554136 148.680211"></polyline>
            <polyline id="Stroke-833" stroke="#151616" stroke-width="0.515550362" mask="url(#mask-2)" points="137.231352 151.925092 141.628565 150.534429 147.645641 151.69336"></polyline>
            <path d="M138.851397,112.289317 L135.842859,118.084067" id="Stroke-834" stroke="#151616" stroke-width="0.515550362" mask="url(#mask-2)"></path>
            <path d="M145.794316,110.898381 L138.388475,112.289317" id="Stroke-835" stroke="#151616" stroke-width="0.515550362" mask="url(#mask-2)"></path>
            <polyline id="Stroke-836" stroke="#151616" stroke-width="0.515550362" mask="url(#mask-2)" points="135.611307 118.315708 132.139847 123.878544 131.676925 129.905298 131.214276 135.236402 134.222814 141.726438 135.148385 146.593988 141.628565 150.070783"></polyline>
            <path d="M132.834139,112.057313 L132.602769,114.375267" id="Stroke-837" stroke="#151616" stroke-width="0.515550362" mask="url(#mask-2)"></path>
            <path d="M128.90003,115.766113 L127.742907,120.633662" id="Stroke-838" stroke="#151616" stroke-width="0.515550362" mask="url(#mask-2)"></path>
            <path d="M125.65994,120.633662 L125.65994,125.964766" id="Stroke-839" stroke="#151616" stroke-width="0.515550362" mask="url(#mask-2)"></path>
            <path d="M123.808525,126.892057 L125.42857,131.759516" id="Stroke-840" stroke="#151616" stroke-width="0.515550362" mask="url(#mask-2)"></path>
            <path d="M123.114324,132.454802 L126.122862,136.85898" id="Stroke-841" stroke="#151616" stroke-width="0.515550362" mask="url(#mask-2)"></path>
            <path d="M124.039895,137.785998 L128.90003,143.349016" id="Stroke-842" stroke="#151616" stroke-width="0.515550362" mask="url(#mask-2)"></path>
            <path d="M126.817063,144.276034 L133.065691,147.984834" id="Stroke-843" stroke="#151616" stroke-width="0.515550362" mask="url(#mask-2)"></path>
            <path d="M131.214276,149.143856 L139.314319,151.229806" id="Stroke-844" stroke="#151616" stroke-width="0.515550362" mask="url(#mask-2)"></path>
            <polyline id="Stroke-845" stroke="#151616" stroke-width="0.515550362" mask="url(#mask-2)" points="142.579945 65.750103 139.713082 63.2778731 167.393612 62.801576 169.917055 66.5926563"></polyline>
            <polyline id="Stroke-846" stroke="#151616" stroke-width="0.515550362" mask="url(#mask-2)" points="167.416059 62.7567042 182.534085 63.1008431 180.851699 66.1713341"></polyline>
            <polyline id="Stroke-847" stroke="#151616" stroke-width="0.515550362" mask="url(#mask-2)" points="139.525514 63.0182898 139.326405 61.722103 167.499483 61.423109 182.631231 61.8219497 182.53154 63.1181365"></polyline>
            <path d="M167.300374,61.423109 L167.200683,63.0182898" id="Stroke-848" stroke="#151616" stroke-width="0.515550362" mask="url(#mask-2)"></path>
            <path d="M154.986778,80.7037174 C159.399985,80.7037174 162.977588,84.4754108 162.977588,89.1282491 C162.977588,90.465303 162.681605,91.7291784 162.155797,92.8520671 L147.576393,92.284479 C147.202348,91.3096766 146.995969,90.2444024 146.995969,89.1282491 C146.995969,84.4754108 150.573572,80.7037174 154.986778,80.7037174 Z" id="Stroke-849" stroke="#151616" stroke-width="0.515550362" stroke-linejoin="round" mask="url(#mask-2)"></path>
            <path d="M154.986778,83.3642635 C158.006403,83.3642635 160.454055,85.9448048 160.454055,89.1282491 C160.454055,90.4951569 160.002493,91.7506587 159.248223,92.7387497 L150.483877,92.3977054 C149.875917,91.468594 149.519411,90.3424287 149.519411,89.1282491 C149.519411,85.9448048 151.967154,83.3642635 154.986778,83.3642635 Z" id="Stroke-850" stroke="#151616" stroke-width="0.515550362" stroke-linejoin="round" mask="url(#mask-2)"></path>
            <path d="M138.654378,77.2655138 L137.390566,77.0354204 C137.390566,77.0354204 137.160741,77.8406563 137.620301,78.8765317 C138.07986,79.9124072 142.446266,81.178194 142.446266,81.178194 L142.446266,79.1066251 C142.446266,79.1066251 140.95263,78.8765317 140.033329,78.3012072 C139.113937,77.7257916 138.654378,77.2655138 138.654378,77.2655138 Z" id="Stroke-851" stroke="#151616" stroke-width="1.28892138" mask="url(#mask-2)"></path>
            <path d="M138.654378,77.2655138 L137.390566,77.0354204 C137.390566,77.0354204 137.160741,77.8406563 137.620301,78.8765317 C138.07986,79.9124072 142.446266,81.178194 142.446266,81.178194 L142.446266,79.1066251 C142.446266,79.1066251 140.95263,78.8765317 140.033329,78.3012072 C139.113937,77.7257916 138.654378,77.2655138 138.654378,77.2655138" id="Fill-852" fill="#FEFEFE" mask="url(#mask-2)"></path>
            <path d="M165.885618,77.2655138 L164.621806,77.0354204 C164.621806,77.0354204 164.392072,77.8406563 164.851631,78.8765317 C165.311191,79.9124072 169.677506,81.178194 169.677506,81.178194 L169.677506,79.1066251 C169.677506,79.1066251 168.18396,78.8765317 167.264569,78.3012072 C166.345177,77.7257916 165.885618,77.2655138 165.885618,77.2655138 Z" id="Stroke-853" stroke="#151616" stroke-width="1.28892138" mask="url(#mask-2)"></path>
            <path d="M165.885618,77.2655138 L164.621806,77.0354204 C164.621806,77.0354204 164.392072,77.8406563 164.851631,78.8765317 C165.311191,79.9124072 169.677506,81.178194 169.677506,81.178194 L169.677506,79.1066251 C169.677506,79.1066251 168.18396,78.8765317 167.264569,78.3012072 C166.345177,77.7257916 165.885618,77.2655138 165.885618,77.2655138" id="Fill-854" fill="#FEFEFE" mask="url(#mask-2)"></path>
            <path d="M162.401983,64.8380645 L166.268753,64.8380645 C166.754645,64.8380645 167.152176,65.2361127 167.152176,65.7228234 L167.152176,76.2218118 C167.152176,76.7089152 166.754645,77.1068652 166.268753,77.1068652 L162.401983,77.1068652 C161.916189,77.1068652 161.518658,76.7089152 161.518658,76.2218118 L161.518658,65.7228234 C161.518658,65.2361127 161.916189,64.8380645 162.401983,64.8380645 Z" id="Stroke-855" stroke="#151616" stroke-width="1.19488732" mask="url(#mask-2)"></path>
            <path d="M162.403071,64.8370108 L166.269659,64.8370108 C166.755754,64.8370108 167.153246,65.2351234 167.153246,65.7219784 L167.153246,76.2209006 C167.153246,76.7077557 166.755754,77.1058683 166.269659,77.1058683 L162.403071,77.1058683 C161.916976,77.1058683 161.519484,76.7077557 161.519484,76.2209006 L161.519484,65.7219784 C161.519484,65.2351234 161.916976,64.8370108 162.403071,64.8370108" id="Fill-856" fill="#FEFEFE" mask="url(#mask-2)"></path>
            <path d="M135.66665,65.7328096 L139.130386,65.7328096 C139.565954,65.7328096 139.922006,66.0893269 139.922006,66.525576 L139.922006,76.3130108 C139.922006,76.7492599 139.565954,77.1058683 139.130386,77.1058683 L135.66665,77.1058683 C135.231082,77.1058683 134.875121,76.7492599 134.875121,76.3130108 L134.875121,66.525576 C134.875121,66.0893269 135.231082,65.7328096 135.66665,65.7328096 Z" id="Stroke-857" stroke="#151616" stroke-width="1.28892138" mask="url(#mask-2)"></path>
            <path d="M135.66665,65.7328096 L139.130386,65.7328096 C139.565954,65.7328096 139.922006,66.0893269 139.922006,66.525576 L139.922006,76.3130108 C139.922006,76.7492599 139.565954,77.1058683 139.130386,77.1058683 L135.66665,77.1058683 C135.231082,77.1058683 134.875121,76.7492599 134.875121,76.3130108 L134.875121,66.525576 C134.875121,66.0893269 135.231082,65.7328096 135.66665,65.7328096" id="Fill-858" fill="#FEFEFE" mask="url(#mask-2)"></path>
            <path d="M167.603808,93.7617916 L168.024473,108.504881" id="Stroke-859" stroke="#151616" stroke-width="0.515550362" mask="url(#mask-2)"></path>
            <path d="M169.582722,96.1073246 L169.582722,106.12194 L180.331343,105.49601 C180.331343,105.49601 181.706387,104.994956 181.956296,103.868517 C182.206204,102.742079 181.831341,99.4870946 181.831341,99.4870946 C181.831341,99.4870946 182.206204,98.2355976 178.956573,97.6096671 C175.706941,96.9837365 169.582722,96.2323832 169.582722,96.1073246 Z" id="Stroke-860" stroke="#151616" stroke-width="0.515550362" mask="url(#mask-2)"></path>
            <path d="M225.511212,128.060546 L237.738021,128.060546" id="Stroke-861" stroke="#151616" stroke-width="0.515550362" mask="url(#mask-2)"></path>
            <polyline id="Stroke-862" stroke="#151616" stroke-width="0.515550362" mask="url(#mask-2)" points="238.457213 121.433164 237.450217 127.916283 237.450217 131.229883"></polyline>
            <path d="M230.545738,121.145001 C230.545738,121.145001 230.114259,103.568522 229.826546,102.415962 C229.538832,101.263492 227.812917,94.9243641 223.20978,94.7803737 C218.606733,94.6363832 202.208356,91.899018 202.208356,91.899018 L185.459199,87.6849772" id="Stroke-863" stroke="#151616" stroke-width="0.515550362" mask="url(#mask-2)"></path>
            <path d="M228.675875,99.1024527 L224.504307,103.712695" id="Stroke-864" stroke="#151616" stroke-width="0.515550362" mask="url(#mask-2)"></path>
            <path d="M224.072737,99.8227689 L224.072737,121.721418" id="Stroke-865" stroke="#151616" stroke-width="0.515550362" mask="url(#mask-2)"></path>
            <path d="M220.476686,98.0938826 L220.476686,117.399339" id="Stroke-866" stroke="#151616" stroke-width="0.515550362" mask="url(#mask-2)"></path>
            <path d="M213.572207,93.4839138 L213.572207,114.085739" id="Stroke-867" stroke="#151616" stroke-width="0.515550362" mask="url(#mask-2)"></path>
            <path d="M185.864142,99.3906156 C185.864142,99.3906156 210.263779,98.526309 210.263779,99.3906156 C210.263779,100.254922 209.832118,101.263492 209.832118,101.263492 L202.927639,101.119502 L195.447643,117.975665" id="Stroke-868" stroke="#151616" stroke-width="0.515550362" mask="url(#mask-2)"></path>
            <polyline id="Stroke-869" stroke="#151616" stroke-width="0.515550362" mask="url(#mask-2)" points="203.503065 101.119502 198.037061 101.695646 191.707826 116.678932"></polyline>
            <path d="M191.132309,89.593988 L190.988543,77.7802204 L195.303877,71.7292551 C195.303877,71.7292551 196.167107,70.2883497 197.749348,71.1529293 C199.331497,72.017509 199.763249,72.8820886 199.187732,74.1785485 C198.612305,75.4750084 195.879394,78.3566371 195.879394,78.3566371 L195.879394,90.7464575" id="Stroke-870" stroke="#151616" stroke-width="0.515550362" mask="url(#mask-2)"></path>
            <path d="M197.317869,90.3143042 C197.317869,90.3143042 196.598586,88.0090922 198.46854,87.288685 C200.338493,86.5683689 200.7697,85.9922251 201.920643,86.4243784 C203.071586,86.8565317 203.646558,87.2889581 204.07831,88.1532647 C204.510061,89.0175713 204.510061,92.3311713 204.510061,92.3311713" id="Stroke-871" stroke="#151616" stroke-width="0.515550362" mask="url(#mask-2)"></path>
            <path d="M200.91392,87.0007952 L200.91392,77.6360479 C200.91392,77.6360479 200.194728,76.339588 202.064681,76.0513341 C203.934544,75.7631713 205.085306,76.6277509 205.085306,76.6277509 L204.653827,92.1871808" id="Stroke-872" stroke="#151616" stroke-width="0.515550362" mask="url(#mask-2)"></path>
            <path d="M204.797502,98.8142898 L204.797502,77.2038946 C204.797502,77.2038946 204.797502,75.7631713 205.373019,74.8988647 C205.948445,74.0345581 207.818399,74.6107018 207.818399,74.6107018 C207.818399,74.6107018 209.400639,75.4750084 209.400639,78.2123737 C209.400639,80.9498299 208.969161,98.9584623 208.969161,98.9584623" id="Stroke-873" stroke="#151616" stroke-width="0.515550362" mask="url(#mask-2)"></path>
            <path d="M204.510061,87.7211114 L209.400639,87.7211114" id="Stroke-874" stroke="#151616" stroke-width="0.515550362" mask="url(#mask-2)"></path>
            <polygon id="Stroke-875" stroke="#151616" stroke-width="1.28892138" mask="url(#mask-2)" points="183.652585 112.212953 190.70083 112.212953 190.70083 117.111085 183.652585 117.111085"></polygon>
            <polygon id="Fill-876" fill="#FEFEFE" mask="url(#mask-2)" points="183.652585 112.212953 190.70083 112.212953 190.70083 117.111085 183.652585 117.111085"></polygon>
            <polygon id="Stroke-877" stroke="#151616" stroke-width="1.28892138" mask="url(#mask-2)" points="176.460393 107.746884 183.508638 107.746884 183.508638 112.212953 176.460393 112.212953"></polygon>
            <polygon id="Fill-878" fill="#FEFEFE" mask="url(#mask-2)" points="176.460393 107.746884 183.508638 107.746884 183.508638 112.212953 176.460393 112.212953"></polygon>
            <polygon id="Stroke-879" stroke="#151616" stroke-width="1.28892138" mask="url(#mask-2)" points="183.652585 118.407818 190.70083 118.407818 190.70083 117.111085 183.652585 117.111085"></polygon>
            <polygon id="Fill-880" fill="#FEFEFE" mask="url(#mask-2)" points="183.652585 118.407818 190.70083 118.407818 190.70083 117.111085 183.652585 117.111085"></polygon>
            <polygon id="Stroke-881" stroke="#151616" stroke-width="1.28892138" mask="url(#mask-2)" points="184.659581 118.407818 191.707826 118.407818 191.707826 124.891483 184.659581 124.891483"></polygon>
            <polygon id="Fill-882" fill="#FEFEFE" mask="url(#mask-2)" points="184.659581 118.407818 191.707826 118.407818 191.707826 124.891483 184.659581 124.891483"></polygon>
            <polygon id="Stroke-883" stroke="#151616" stroke-width="1.28892138" mask="url(#mask-2)" points="184.659581 126.187396 191.707826 126.187396 191.707826 124.891483 184.659581 124.891483"></polygon>
            <polygon id="Fill-884" fill="#FEFEFE" mask="url(#mask-2)" points="184.659581 126.187396 191.707826 126.187396 191.707826 124.891483 184.659581 124.891483"></polygon>
            <polygon id="Stroke-885" stroke="#151616" stroke-width="1.28892138" mask="url(#mask-2)" points="186.241731 126.187396 193.289976 126.187396 193.289976 132.667147 186.241731 132.667147"></polygon>
            <polygon id="Fill-886" fill="#FEFEFE" mask="url(#mask-2)" points="186.241731 126.187396 193.289976 126.187396 193.289976 132.667147 186.241731 132.667147"></polygon>
            <polygon id="Stroke-887" stroke="#151616" stroke-width="1.28892138" mask="url(#mask-2)" points="186.241731 133.679085 193.289976 133.679085 193.289976 132.667147 186.241731 132.667147"></polygon>
            <polygon id="Fill-888" fill="#FEFEFE" mask="url(#mask-2)" points="186.241731 133.679085 193.289976 133.679085 193.289976 132.667147 186.241731 132.667147"></polygon>
            <polygon id="Stroke-889" stroke="#151616" stroke-width="1.28892138" mask="url(#mask-2)" points="187.967919 133.679085 195.016164 133.679085 195.016164 139.750438 187.967919 139.750438"></polygon>
            <polygon id="Fill-890" fill="#FEFEFE" mask="url(#mask-2)" points="187.967919 133.679085 195.016164 133.679085 195.016164 139.750438 187.967919 139.750438"></polygon>
            <polyline id="Stroke-891" stroke="#151616" stroke-width="0.515550362" mask="url(#mask-2)" points="174.230298 108.356249 174.527099 114.893796 181.054443 115.785226 184.911489 139.558208 188.471826 140.152374"></polyline>
            <path d="M182.241192,61.701988 C182.241192,61.701988 184.911217,63.7820216 185.208018,65.5650635 C185.504727,67.3481054 185.208018,90.2294754 185.208018,90.2294754 L200.042965,93.7952862" id="Stroke-892" stroke="#151616" stroke-width="0.515550362" mask="url(#mask-2)"></path>
            <path d="M55.5517182,106.276216 C56.4000449,105.877648 56.5164569,105.629715 57.3317956,105.681777" id="Stroke-893" stroke="#151616" stroke-width="0.515550362" mask="url(#mask-2)"></path>
            <path d="M59.7052927,107.46491 L60.2988033,103.007305" id="Stroke-894" stroke="#151616" stroke-width="0.515550362" mask="url(#mask-2)"></path>
            <path d="" id="Stroke-895" stroke="#151616" stroke-width="0.515550362" mask="url(#mask-2)"></path>
            <path d="M65.0458883,105.384604 C65.2656263,107.437514 66.7282741,106.599784 66.8261474,105.979042" id="Stroke-896" stroke="#151616" stroke-width="0.515550362" mask="url(#mask-2)"></path>
            <path d="M68.6064066,101.818702 C70.0065318,103.130908 69.4830865,103.006031 70.9799945,102.115966" id="Stroke-897" stroke="#151616" stroke-width="0.515550362" mask="url(#mask-2)"></path>
            <path d="M71.7380814,99.1442299 C73.0704131,98.7652311 74.5418759,98.2907545 74.7049073,100.035933" id="Stroke-898" stroke="#151616" stroke-width="0.515550362" mask="url(#mask-2)"></path>
            <path d="M73.0567818,104.196 C72.6224858,105.590941 72.8589449,106.420479 74.540331,106.276216" id="Stroke-899" stroke="#151616" stroke-width="0.515550362" mask="url(#mask-2)"></path>
            <path d="M78.842215,106.127674 C78.0057931,107.040949 78.0580467,107.008182 79.0542285,106.832244 L78.842215,106.127674 Z" id="Stroke-900" stroke="#151616" stroke-width="0.515550362" mask="url(#mask-2)"></path>
            <path d="M79.2873252,98.252891 C79.4239117,96.3405126 81.920273,96.165121 82.2544237,97.6583617" id="Stroke-901" stroke="#151616" stroke-width="0.515550362" mask="url(#mask-2)"></path>
            <path d="M80.1773639,100.927272 C80.7708745,100.927272 81.3641124,100.927272 81.957623,100.927272" id="Stroke-902" stroke="#151616" stroke-width="0.515550362" mask="url(#mask-2)"></path>
            <path d="M84.0344102,103.30457 L85.8146693,103.30457" id="Stroke-903" stroke="#151616" stroke-width="0.515550362" mask="url(#mask-2)"></path>
            <path d="M87.8914566,98.8473293 C89.7482332,99.8003784 88.8353847,99.4371257 90.2653172,99.1442299" id="Stroke-904" stroke="#151616" stroke-width="0.515550362" mask="url(#mask-2)"></path>
            <path d="" id="Stroke-905" stroke="#151616" stroke-width="0.515550362" mask="url(#mask-2)"></path>
            <path d="" id="Stroke-906" stroke="#151616" stroke-width="0.515550362" mask="url(#mask-2)"></path>
            <path d="" id="Stroke-907" stroke="#151616" stroke-width="0.515550362" mask="url(#mask-2)"></path>
            <path d="" id="Stroke-908" stroke="#151616" stroke-width="0.515550362" mask="url(#mask-2)"></path>
            <path d="" id="Stroke-909" stroke="#151616" stroke-width="0.515550362" mask="url(#mask-2)"></path>
            <path d="M80.5755821,104.559708 C81.4239088,104.16114 81.5403208,103.913207 82.3556595,103.965269" id="Stroke-910" stroke="#151616" stroke-width="0.515550362" mask="url(#mask-2)"></path>
            <path d="M84.689262,107.134606 C85.5374978,106.736038 85.6540007,106.488105 86.4692485,106.540168" id="Stroke-911" stroke="#151616" stroke-width="0.515550362" mask="url(#mask-2)"></path>
            <path d="M96.6012766,98.465691 C97.4495124,98.0671234 97.5659245,97.8190994 98.3812631,97.8712527" id="Stroke-912" stroke="#151616" stroke-width="0.515550362" mask="url(#mask-2)"></path>
            <path d="M74.1376599,97.1699593 C75.4699916,96.7909605 76.9413635,96.3164838 77.1044858,98.0616623" id="Stroke-913" stroke="#151616" stroke-width="0.515550362" mask="url(#mask-2)"></path>
            <path d="M87.5065971,105.324168 C88.8389288,104.945169 90.3103916,104.470692 90.473423,106.215871" id="Stroke-914" stroke="#151616" stroke-width="0.515550362" mask="url(#mask-2)"></path>
            <path d="M90.6774394,94.766721 C92.0097712,94.3877222 93.4811431,93.9132455 93.6442653,95.6583329" id="Stroke-915" stroke="#151616" stroke-width="0.515550362" mask="url(#mask-2)"></path>
            <path d="M104.646339,102.66344 C105.978671,102.284441 107.450134,101.809964 107.613165,103.555051" id="Stroke-916" stroke="#151616" stroke-width="0.515550362" mask="url(#mask-2)"></path>
            <path d="M61.7506369,106.796929 C63.1506712,108.109135 62.6272259,107.984259 64.1242248,107.094103" id="Stroke-917" stroke="#151616" stroke-width="0.515550362" mask="url(#mask-2)"></path>
            <path d="M94.4873212,100.273763 C95.8874464,101.585969 95.3640011,101.461092 96.8609091,100.571028" id="Stroke-918" stroke="#151616" stroke-width="0.515550362" mask="url(#mask-2)"></path>
            <path d="M98.3439131,95.0381365 C99.7439474,96.3503425 99.2205022,96.2254659 100.71741,95.3353102" id="Stroke-919" stroke="#151616" stroke-width="0.515550362" mask="url(#mask-2)"></path>
            <path d="M100.571918,103.192072 C101.971952,104.504278 101.448507,104.379401 102.945415,103.489246" id="Stroke-920" stroke="#151616" stroke-width="0.515550362" mask="url(#mask-2)"></path>
            <path d="M96.2014226,105.50948 C97.6015478,106.821686 97.0781026,106.69681 98.5750106,105.806654" id="Stroke-921" stroke="#151616" stroke-width="0.515550362" mask="url(#mask-2)"></path>
            <path d="" id="Stroke-922" stroke="#151616" stroke-width="0.515550362" mask="url(#mask-2)"></path>
            <path d="" id="Stroke-923" stroke="#151616" stroke-width="0.515550362" mask="url(#mask-2)"></path>
            <path d="M93.6017354,98.551612 C94.4499712,98.1529533 94.5664741,97.9050204 95.3817219,97.9571737" id="Stroke-924" stroke="#151616" stroke-width="0.515550362" mask="url(#mask-2)"></path>
            <path d="M110.141515,99.3240814 C110.989842,98.9254228 111.106254,98.6774898 111.921501,98.7296431" id="Stroke-925" stroke="#151616" stroke-width="0.515550362" mask="url(#mask-2)"></path>
            <path d="M100.104361,98.972388 C101.436693,98.5933892 102.908065,98.1189126 103.071187,99.864091" id="Stroke-926" stroke="#151616" stroke-width="0.515550362" mask="url(#mask-2)"></path>
            <path d="M100.57419,106.952206 L102.35454,106.952206" id="Stroke-927" stroke="#151616" stroke-width="0.515550362" mask="url(#mask-2)"></path>
            <path d="M110.85789,102.05999 L112.638149,102.05999" id="Stroke-928" stroke="#151616" stroke-width="0.515550362" mask="url(#mask-2)"></path>
            <path d="M91.4544525,10.4675501 C113.727701,11.3882841 129.859707,45.970085 131.783844,48.1370415 C133.708396,50.3034157 131.670146,49.3739477 130.853916,52.195458 L130.141085,55.7131959 L125.541195,67.5602118 L124.821222,68.0753537 C117.564182,77.2969178 105.327873,83.0451627 91.4544525,82.4719602 C69.1810378,81.5509767 51.124895,64.685715 51.124895,44.8022193 C51.124895,41.8876291 51.5156523,39.0706938 52.2483326,36.3866822 L55.2287186,30.7034851 L54.6498497,30.2083067 C60.9581922,17.9349865 75.0644058,9.79012147 91.4544525,10.4675501 Z" id="Stroke-929" stroke="#151616" stroke-width="2.11567536" mask="url(#mask-2)"></path>
            <path d="M91.4538832,10.4686132 C113.727024,11.3894419 129.858862,45.9709892 131.783068,48.1379449 C133.707638,50.3044455 131.669201,49.374788 130.853135,52.1963449 L130.140395,55.7141892 L125.540438,67.5609964 L124.820428,68.0762491 C117.56326,77.2978251 105.327182,83.0460647 91.4538832,82.4728335 C69.1803788,81.5517317 51.1243347,64.6865581 51.1243347,44.8032287 C51.1243347,41.8885605 51.5151011,39.0717365 52.2477427,36.3877078 L55.2282,30.7043641 L54.6494113,30.2093174 C60.9574719,17.936 75.0637763,9.79116647 91.4538832,10.4686132" id="Fill-930" fill="#FEFEFE" mask="url(#mask-2)"></path>
            <path d="M94.0207185,0.512800255 C116.825286,1.45547675 135.312284,18.723102 135.312282,39.0805972 C135.312276,59.4383103 116.825143,75.1768125 94.0204665,74.2341349 C71.2158991,73.2914584 52.7291139,56.0242715 52.72923,35.6663414 C52.729235,15.3086282 71.2161511,-0.429876238 94.0207185,0.512800255 Z" id="Stroke-931" stroke="#151616" stroke-width="2.28346341" mask="url(#mask-2)"></path>
            <path d="M94.0195828,0.511247904 C116.824166,1.45401198 135.311235,18.7216671 135.311235,39.0792 C135.311235,59.437006 116.824166,75.1757413 94.0195828,74.2329772 C71.2149088,73.2902132 52.7282036,56.0228311 52.7282036,35.6650251 C52.7282036,15.3072192 71.2149088,-0.431516168 94.0195828,0.511247904" id="Fill-932" fill="#FEFEFE" mask="url(#mask-2)"></path>
            <path d="M94.0185826,2.23048879 C115.760624,3.12936687 133.386027,19.5918874 133.386032,39.0008342 C133.386139,58.409886 115.760794,73.4150048 94.0187518,72.5161267 C72.2770212,71.6172519 54.6513575,55.1548845 54.6513026,35.7457813 C54.6511952,16.3367295 72.2767483,1.33161289 94.0185826,2.23048879 Z" id="Stroke-933" stroke="#151616" stroke-width="2.39514022" mask="url(#mask-2)"></path>
            <path d="M94.0195828,2.22902994 C115.761645,3.12792335 133.386937,19.5906156 133.386937,38.9997413 C133.386937,58.4088671 115.761645,73.4140886 94.0195828,72.5151952 C72.2777934,71.6163018 54.6522285,55.1536096 54.6522285,35.7444838 C54.6522285,16.3353581 72.2777934,1.33013653 94.0195828,2.22902994" id="Fill-934" fill="#FEFEFE" mask="url(#mask-2)"></path>
            <path d="M55.9116821,27.5179618 C62.2449019,15.9436363 75.7804972,8.32499118 91.4548107,8.97310664 C113.196757,9.87187762 130.822436,26.3349197 130.822436,45.744037 C130.822436,47.7312555 130.637433,49.6725163 130.282588,51.5549905" id="Stroke-935" stroke="#151616" stroke-width="1.44488696" stroke-linejoin="round" mask="url(#mask-2)"></path>
            <path d="M63.7124527,64.02778 C66.0009156,66.851421 66.2396986,70.4548196 64.2454989,72.0757921 C63.9450701,72.3200409 63.6105781,72.5048677 63.2522024,72.6338138 L63.374264,72.7844206 L50.4254253,83.3118387 L42.138063,73.0864001 L55.0869017,62.5589821 L55.208861,62.7094628 C55.4084903,62.3846458 55.6576723,62.094945 55.9582899,61.8505427 C57.9525251,60.2292275 61.4241787,61.2039855 63.7124527,64.02778 Z" id="Stroke-936" stroke="#151616" stroke-width="2.16723949" stroke-linejoin="round" mask="url(#mask-2)"></path>
            <path d="M63.7122843,64.0286802 C66.0008124,66.8522395 66.2396343,70.4555497 64.2455442,72.0765796 C63.9449266,72.3208719 63.6105033,72.5056383 63.2519978,72.6346108 L63.3740442,72.7853365 L50.4252263,83.3126563 L42.1379792,73.0871521 L55.0867971,62.5598323 L55.2086617,62.710285 C55.4084978,62.3854419 55.6575887,62.0957317 55.9582062,61.8513485 C57.9522964,60.2300455 61.4240288,61.2048479 63.7122843,64.0286802" id="Fill-937" fill="#FEFEFE" mask="url(#mask-2)"></path>
            <path d="M51.0130861,74.3526908 C53.3012068,77.1762962 53.5399898,80.7796948 51.545979,82.4005138 C49.5517438,84.0218289 46.0800901,83.0470709 43.7916273,80.2234299 C41.5033533,77.3996354 41.2645347,73.7965795 43.2585811,72.1754179 C45.2527807,70.5544454 48.7244344,71.5292034 51.0130861,74.3526908 Z" id="Stroke-938" stroke="#151616" stroke-width="2.16723949" stroke-linejoin="round" mask="url(#mask-2)"></path>
            <path d="M51.0128299,74.353485 C53.3010854,77.1770443 53.5399073,80.7803545 51.5458172,82.4013844 C49.551727,84.0226874 46.0799945,83.047885 43.7914664,80.2240527 C41.5032109,77.4004934 41.2643891,73.7974563 43.2584792,72.1761533 C45.2525693,70.5551234 48.7243018,71.5298347 51.0128299,74.353485" id="Fill-939" fill="#FEFEFE" mask="url(#mask-2)"></path>
            <path d="M49.1047386,75.9042154 C50.611772,77.7636781 50.7689171,80.136462 49.4556754,81.2041313 C49.257695,81.3648833 49.0375343,81.4866449 48.801537,81.5715588 L48.882018,81.6708607 L40.3547937,88.6031741 L34.8973618,81.8694873 L43.4244178,74.9369663 L43.5047306,75.0360607 C43.636449,74.8222272 43.8004649,74.6314455 43.9983444,74.4705689 C45.3115861,73.4028997 47.5977389,74.0447942 49.1047386,75.9042154 Z" id="Stroke-940" stroke="#151616" stroke-width="3.29119203" stroke-linejoin="round" mask="url(#mask-2)"></path>
            <path d="M49.1057989,75.903794 C50.6127942,77.7632 50.7699186,80.1361293 49.4566708,81.203679 C49.2588339,81.3644168 49.0385507,81.4861988 48.8026369,81.5711186 L48.8829712,81.6704192 L40.3559026,88.6027114 L34.8983496,81.8691114 L43.4254182,74.9365461 L43.5058434,75.0355737 C43.6374318,74.8216814 43.8015536,74.6310898 43.9993905,74.470079 C45.3126383,73.4024383 47.5988036,74.044388 49.1057989,75.903794" id="Fill-941" fill="#FEFEFE" mask="url(#mask-2)"></path>
            <path d="M40.7416979,82.7033914 C42.2487313,84.5628541 42.4058764,86.935638 41.0926761,88.0032736 C39.7796417,89.0707744 37.4934295,88.4287216 35.986497,86.5693834 C34.4795801,84.7098949 34.3224116,82.3373366 35.6353452,81.2697113 C36.9485454,80.2020757 39.2345143,80.8439131 40.7416979,82.7033914 Z" id="Stroke-942" stroke="#151616" stroke-width="3.29119203" stroke-linejoin="round" mask="url(#mask-2)"></path>
            <path d="M40.7427613,82.7029269 C42.2497566,84.562424 42.406881,86.9352623 41.0936332,88.002903 C39.780658,89.0702707 37.4944018,88.428321 35.9874974,86.568915 C34.4805022,84.709418 34.3233777,82.3368527 35.6363529,81.269212 C36.9496007,80.2016623 39.2355843,80.843521 40.7427613,82.7029269" id="Fill-943" fill="#FEFEFE" mask="url(#mask-2)"></path>
            <path d="M40.8033901,82.6528695 C43.091853,85.4765105 43.3305456,89.0796688 41.3367784,90.7009172 C41.0360076,90.9451304 40.7015785,91.129906 40.3431398,91.2589033 L40.4652014,91.4095101 L-14.8157061,136.35294 L-23.103104,126.127844 L32.1776502,81.1842251 L32.2997985,81.3345523 C32.4996165,81.0095818 32.7487985,80.719881 33.0494435,80.4757701 C35.0434625,78.854317 38.5151161,79.829075 40.8033901,82.6528695 Z" id="Stroke-944" stroke="#151616" stroke-width="2.16723949" stroke-linejoin="round" mask="url(#mask-2)"></path>
            <path d="M40.8032847,82.6536862 C43.0918128,85.4772455 43.330362,89.0805557 41.3365445,90.7015856 C41.035927,90.9459689 40.7015945,91.1306443 40.3429982,91.2596168 L40.4650445,91.4103425 L-14.8158635,136.353557 L-23.1031106,126.128326 L32.1775248,81.1848383 L32.299662,81.335291 C32.4995891,81.0104479 32.7486799,80.7207377 33.0492974,80.4763545 C35.0433876,78.8551425 38.5150292,79.8298539 40.8032847,82.6536862" id="Fill-945" fill="#FEFEFE" mask="url(#mask-2)"></path>
        </g>
    </g>
</svg>