<?xml version="1.0" encoding="UTF-8"?>
<svg width="250px" height="180px" viewBox="0 0 250 180" version="1.1" xmlns="http://www.w3.org/2000/svg" xmlns:xlink="http://www.w3.org/1999/xlink">
    <!-- Generator: Sketch 51.2 (57519) - http://www.bohemiancoding.com/sketch -->
    <title>7</title>
    <desc>Created with Sketch.</desc>
    <defs>
        <polygon id="path-1" points="0.62050073 0.207443115 248.423211 0.207443115 248.423211 157.867425 0.62050073 157.867425"></polygon>
    </defs>
    <g id="7" stroke="none" stroke-width="1" fill="none" fill-rule="evenodd">
        <g id="Group-733" transform="translate(0.000000, 12.000000)">
            <mask id="mask-2" fill="white">
                <use xlink:href="#path-1"></use>
            </mask>
            <g id="Clip-581"></g>
            <path d="M-3.34959526,25.0771425 L7.84931606,23.1023241 L16.4132803,22.4441724 L24.9772445,16.5198989 L31.5648394,11.2540494 L42.7638416,13.228777 L41.4464135,25.7352943 L30.9061708,22.4441724 L19.0483182,30.342992 L9.16692591,31.6595678 L0.603052555,34.9506897 L-4.66702336,36.2672655 C-4.66702336,36.2672655 -4.00826387,25.0771425 -3.34959526,25.0771425 Z" id="Stroke-580" stroke="#151616" stroke-width="0.773371014" stroke-linejoin="round" mask="url(#mask-2)"></path>
            <path d="M-3.34959526,25.0771425 L7.84931606,23.1023241 L16.4132803,22.4441724 L24.9772445,16.5198989 L31.5648394,11.2540494 L42.7638416,13.228777 L41.4464135,25.7352943 L30.9061708,22.4441724 L19.0483182,30.342992 L9.16692591,31.6595678 L0.603052555,34.9506897 L-4.66702336,36.2672655 C-4.66702336,36.2672655 -4.00826387,25.0771425 -3.34959526,25.0771425" id="Fill-582" fill="#FEFEFE" mask="url(#mask-2)"></path>
            <path d="M7.73826569,23.1695195 L1.94919745,34.7388425" id="Stroke-583" stroke="#151616" stroke-width="0.773371014" stroke-linejoin="round" mask="url(#mask-2)"></path>
            <path d="M16.422277,22.1178207 L18.7904124,30.5316839" id="Stroke-584" stroke="#151616" stroke-width="0.773371014" stroke-linejoin="round" mask="url(#mask-2)"></path>
            <path d="M31.4213464,10.5484977 L31.4213464,23.1695195" id="Stroke-585" stroke="#151616" stroke-width="0.773371014" stroke-linejoin="round" mask="url(#mask-2)"></path>
            <path d="M130.677654,57.1559552 C130.677654,57.1559552 132.468727,62.0130931 129.398666,64.8251299 C126.328514,67.6372575 119.932577,70.7049092 119.932577,70.7049092 L114.559993,70.7049092 L113.025008,66.3590011 L115.83898,59.4568529 C115.83898,59.4568529 130.421838,56.9003402 130.677654,57.1559552 Z" id="Stroke-586" stroke="#151616" stroke-width="1.28892138" stroke-linejoin="round" mask="url(#mask-2)"></path>
            <path d="M130.677654,57.1559552 C130.677654,57.1559552 132.468727,62.0130931 129.398666,64.8251299 C126.328514,67.6372575 119.932577,70.7049092 119.932577,70.7049092 L114.559993,70.7049092 L113.025008,66.3590011 L115.83898,59.4568529 C115.83898,59.4568529 130.421838,56.9003402 130.677654,57.1559552" id="Fill-587" fill="#FEFEFE" mask="url(#mask-2)"></path>
            <path d="M60.9831898,136.921801 L71.0957704,136.921801 C71.0957704,136.921801 73.6829168,132.221937 72.2717047,127.28707 C70.8605836,122.352294 61.6887504,105.432674 61.6887504,105.432674 L42.8743467,95.0929356 L60.9831898,123.057301 C60.9831898,123.057301 60.5127252,136.687071 60.9831898,136.921801 Z" id="Stroke-588" stroke="#151616" stroke-width="1.93342754" stroke-linejoin="round" mask="url(#mask-2)"></path>
            <path d="M60.9831898,136.921801 L71.0957704,136.921801 C71.0957704,136.921801 73.6829168,132.221937 72.2717047,127.28707 C70.8605836,122.352294 61.6887504,105.432674 61.6887504,105.432674 L42.8743467,95.0929356 L60.9831898,123.057301 C60.9831898,123.057301 60.5127252,136.687071 60.9831898,136.921801" id="Fill-589" fill="#FEFEFE" mask="url(#mask-2)"></path>
            <path d="M63.7436365,134.632526 L71.7009131,134.632526 L71.7009131,134.870071 L71.5561478,135.147298 L63.6186821,135.147298 L63.7263701,135.059308 L63.7436365,134.632526 Z M62.5893307,135.988693 L71.1352106,135.988693 C71.0504234,136.168668 70.9737241,136.340561 70.9082934,136.503555 L62.538531,136.503555 L62.538531,136.030191 L62.5893307,135.988693 Z M63.803342,133.106374 L72.6024931,133.106374 C72.5213409,133.27754 72.4368263,133.449524 72.3503124,133.621145 L63.7838036,133.621145 L63.803342,133.106374 Z M63.8579584,131.556339 L72.9399153,131.556339 C72.9394609,131.735769 72.9311912,131.907934 72.9136522,132.07111 L63.840692,132.07111 L63.8579584,131.556339 Z M63.8958536,130.006305 L72.7985124,130.006305 C72.8265931,130.179015 72.8513113,130.35118 72.8719401,130.521076 L63.8878566,130.521076 C63.8927639,130.31386 63.8953084,130.138062 63.8958536,130.006305 Z M63.5475263,128.455998 L72.4734493,128.455998 C72.5154339,128.624531 72.5566007,128.796243 72.5957682,128.970769 L63.698562,128.970769 C63.653942,128.809137 63.6029606,128.636426 63.5475263,128.455998 Z M63.0320781,126.905872 L72.0357909,126.905872 C72.0852274,127.063963 72.1377536,127.236946 72.1916431,127.420734 L63.2103766,127.420734 C63.1518526,127.249295 63.0921471,127.077039 63.0320781,126.905872 Z M62.4679204,125.355838 L71.4543668,125.355838 L71.6861912,125.870609 L62.659396,125.870609 L62.4679204,125.355838 Z M61.7925307,123.805803 L70.756258,123.805803 L70.9880825,124.320575 L62.0733372,124.320575 L62.029535,124.20834 L61.7925307,123.805803 Z M60.8798639,122.255497 L70.0581493,122.255497 L70.2899737,122.770268 L61.1827533,122.770268 L60.8798639,122.255497 Z M59.9671971,120.705462 L69.3600405,120.705462 L69.5919558,121.220233 L60.2703591,121.220233 L59.9671971,120.705462 Z M59.054712,119.155337 L68.6619318,119.155337 L68.8938471,119.670199 L59.3576923,119.670199 L59.054712,119.155337 Z M58.1420453,117.605302 L67.9639139,117.605302 L68.1957383,118.120074 L58.4452982,118.120074 L58.1420453,117.605302 Z M57.2293785,116.054995 L67.2655325,116.054995 L67.4973569,116.569767 L57.5325405,116.569767 L57.2293785,116.054995 Z M56.2649124,114.504961 L66.5744212,114.504961 L66.8034285,115.019732 L56.593338,115.019732 L56.2649124,114.504961 Z M55.2762734,112.954926 L65.8847639,112.954926 L66.1137712,113.469698 L55.6046989,113.469698 L55.2762734,112.954926 Z M54.2875434,111.404801 L65.1954701,111.404801 L65.4244774,111.919663 L54.6160599,111.919663 L54.2875434,111.404801 Z M53.2986318,109.854494 L64.5058128,109.854494 L64.7348201,110.369356 L53.6270573,110.369356 L53.2986318,109.854494 Z M52.3099927,108.30446 L63.8162464,108.30446 L64.0452536,108.819231 L52.6384182,108.819231 L52.3099927,108.30446 Z M51.3212628,106.754425 L63.1268617,106.754425 L63.355869,107.269197 L51.6497792,107.269197 L51.3212628,106.754425 Z M50.3326237,105.204391 L62.4375679,105.204391 L62.6665752,105.719162 L50.6610493,105.719162 L50.3326237,105.204391 Z M49.343712,103.653993 L61.7480015,103.653993 L61.9770088,104.168855 L49.6721376,104.168855 L49.343712,103.653993 Z M48.355073,102.103959 L61.0583442,102.103959 L61.2873515,102.618821 L48.6834985,102.618821 L48.355073,102.103959 Z M47.3663431,100.553924 L60.3690504,100.553924 L60.5980577,101.068695 L47.6947686,101.068695 L47.3663431,100.553924 Z" id="Fill-590" fill="#151616" mask="url(#mask-2)"></path>
            <path d="M40.287473,94.1529264 C40.287473,94.1529264 37.9356044,92.9781874 37.7004175,96.972954 C37.4652307,100.967811 35.5839175,100.733082 41.2282204,108.722706 C46.8725234,116.712421 56.7502807,131.752205 58.1611292,134.337048 C59.5719777,136.921801 63.5702453,137.391806 63.8054321,133.631951 C64.040619,129.872186 63.8051595,126.817066 60.747912,121.647287 C57.6907555,116.477418 46.1669628,99.7930724 44.7558416,97.2079563 C43.3447204,94.622931 39.8170993,94.1529264 40.287473,94.1529264 Z" id="Stroke-591" stroke="#151616" stroke-width="1.93342754" stroke-linejoin="round" mask="url(#mask-2)"></path>
            <path d="M40.287473,94.1529264 C40.287473,94.1529264 37.9356044,92.9781874 37.7004175,96.972954 C37.4652307,100.967811 35.5839175,100.733082 41.2282204,108.722706 C46.8725234,116.712421 56.7502807,131.752205 58.1611292,134.337048 C59.5719777,136.921801 63.5702453,137.391806 63.8054321,133.631951 C64.040619,129.872186 63.8051595,126.817066 60.747912,121.647287 C57.6907555,116.477418 46.1669628,99.7930724 44.7558416,97.2079563 C43.3447204,94.622931 39.8170993,94.1529264 40.287473,94.1529264" id="Fill-592" fill="#FEFEFE" mask="url(#mask-2)"></path>
            <path d="M40.6554379,96.7087669 C40.6554379,96.7087669 38.8548718,95.8094337 38.6750309,98.8677367 C38.4951899,101.925831 39.0907174,104.120185 43.4117699,110.236791 C47.7328225,116.353328 55.2946296,127.867046 56.3747189,129.845829 C57.4548776,131.824682 60.5159305,132.184638 60.6959801,129.306104 C60.8760298,126.427918 60.6955627,124.088901 58.3551259,120.131056 C56.0148283,116.173419 45.1563314,101.026429 44.0761726,99.0476451 C42.9960834,97.0685836 40.2952691,96.7087669 40.6554379,96.7087669 Z" id="Stroke-593" stroke="#151616" stroke-width="2.52555109" stroke-linejoin="round" mask="url(#mask-2)"></path>
            <path d="M40.6556113,96.7083494 C40.6556113,96.7083494 38.854996,95.8090207 38.6751526,98.8672287 C38.4953091,101.925346 39.0909099,104.119639 43.4119686,110.236237 C47.7329365,116.352834 55.294812,127.866494 56.3749631,129.845399 C57.4550234,131.824303 60.5160876,132.184162 60.6962036,129.305656 C60.8762288,126.427423 60.6956584,124.088387 58.355331,120.130669 C56.0150945,116.17286 45.1564226,101.026017 44.0762715,99.0471126 C42.9961204,97.068208 40.2954701,96.7083494 40.6556113,96.7083494" id="Fill-594" fill="#FEFEFE" mask="url(#mask-2)"></path>
            <path d="M25.9267161,68.0686701 C25.9267161,68.0686701 24.0452212,68.0689425 24.0452212,69.4786839 C24.0452212,70.8884253 24.0452212,82.8731793 24.0452212,82.8731793 L67.5532456,104.492664 L68.4939931,88.5130529 C68.4939931,88.5130529 25.9267161,67.8336678 25.9267161,68.0686701 Z" id="Stroke-595" stroke="#151616" stroke-width="1.93342754" stroke-linejoin="round" mask="url(#mask-2)"></path>
            <path d="M25.9267161,68.0686701 C25.9267161,68.0686701 24.0452212,68.0689425 24.0452212,69.4786839 C24.0452212,70.8884253 24.0452212,82.8731793 24.0452212,82.8731793 L67.5532456,104.492664 L68.4939931,88.5130529 C68.4939931,88.5130529 25.9267161,67.8336678 25.9267161,68.0686701" id="Fill-596" fill="#FEFEFE" mask="url(#mask-2)"></path>
            <path d="M25.4563423,67.5986655 L25.6915292,65.2488241 C25.6915292,65.2488241 29.9247109,61.7240621 35.0986401,59.6089506 C40.2725693,57.4939299 49.6795894,54.9089046 51.796362,54.6739023 C53.9130438,54.4389 56.7350135,54.2040793 56.7350135,54.2040793 L74.6086697,60.7837805 L73.4327354,70.8884253 L48.5039277,79.5834195 L25.4563423,67.5986655 Z" id="Stroke-597" stroke="#151616" stroke-width="1.93342754" stroke-linejoin="round" mask="url(#mask-2)"></path>
            <path d="M25.4563423,67.5986655 L25.6915292,65.2488241 C25.6915292,65.2488241 29.9247109,61.7240621 35.0986401,59.6089506 C40.2725693,57.4939299 49.6795894,54.9089046 51.796362,54.6739023 C53.9130438,54.4389 56.7350135,54.2040793 56.7350135,54.2040793 L74.6086697,60.7837805 L73.4327354,70.8884253 L48.5039277,79.5834195 L25.4563423,67.5986655 Z" id="Fill-598" fill="#FEFEFE" mask="url(#mask-2)"></path>
            <polyline id="Stroke-599" stroke="#151616" stroke-width="1.28892138" mask="url(#mask-2)" points="26.3970898 64.5438172 42.3892511 71.8284345 73.6679223 60.5487782"></polyline>
            <path d="M42.1540642,71.5934322 L42.1540642,76.0585667" id="Stroke-600" stroke="#151616" stroke-width="1.28892138" mask="url(#mask-2)"></path>
            <path d="M40.7429431,74.8835552 C40.7429431,74.8835552 39.8021956,76.5282989 40.0373825,77.7033103 C40.2725693,78.8783218 39.5670088,90.6280736 39.5670088,90.6280736" id="Stroke-601" stroke="#151616" stroke-width="1.28892138" mask="url(#mask-2)"></path>
            <polygon id="Stroke-602" stroke="#151616" stroke-width="1.93342754" stroke-linejoin="round" mask="url(#mask-2)" points="24.0452212 82.8731793 19.5768526 85.2232023 63.3200639 107.547694 67.7884325 104.727667"></polygon>
            <polygon id="Fill-603" fill="#FEFEFE" mask="url(#mask-2)" points="24.0452212 82.8731793 19.5768526 85.2232023 63.3200639 107.547694 67.7884325 104.727667"></polygon>
            <polygon id="Stroke-604" stroke="#151616" stroke-width="1.93342754" stroke-linejoin="round" mask="url(#mask-2)" points="58.1462255 76.9983034 77.901104 86.6333069 68.7291799 89.4530621 49.2094883 79.3484172"></polygon>
            <polygon id="Fill-605" fill="#FEFEFE" mask="url(#mask-2)" points="58.1462255 76.9983034 77.901104 86.6333069 68.7291799 89.4530621 49.2094883 79.3484172"></polygon>
            <path d="M106.868801,127.975641 L116.981472,127.975641 C116.981472,127.975641 119.568528,123.275777 118.157407,118.341001 C116.835707,113.718866 108.706312,98.5838276 107.680777,96.6836506 L105.411333,95.2978816 L88.7600485,86.1467759 L106.868801,114.111141 C106.868801,114.111141 106.398427,127.740911 106.868801,127.975641 Z" id="Stroke-606" stroke="#151616" stroke-width="1.93342754" stroke-linejoin="round" mask="url(#mask-2)"></path>
            <path d="M106.868801,127.975641 L116.981472,127.975641 C116.981472,127.975641 119.568528,123.275777 118.157407,118.341001 C116.835707,113.718866 108.706312,98.5838276 107.680777,96.6836506 L105.411333,95.2978816 L88.7600485,86.1467759 L106.868801,114.111141 C106.868801,114.111141 106.398427,127.740911 106.868801,127.975641" id="Fill-607" fill="#FEFEFE" mask="url(#mask-2)"></path>
            <path d="M109.629338,125.686367 L117.586615,125.686367 L117.586615,125.923911 L117.44185,126.201138 L109.504384,126.201138 L109.612072,126.113148 L109.629338,125.686367 Z M108.474942,127.042624 L117.020912,127.042624 C116.936125,127.222508 116.859426,127.394401 116.793995,127.557395 L108.424233,127.557395 L108.424233,127.084031 L108.474942,127.042624 Z M109.689044,124.160214 L118.488195,124.160214 C118.407043,124.33138 118.322528,124.503364 118.236014,124.674985 L109.669505,124.674985 L109.689044,124.160214 Z M109.74366,122.610179 L118.825617,122.610179 C118.825163,122.789609 118.816893,122.961775 118.799354,123.124951 L109.726394,123.124951 L109.74366,122.610179 Z M109.781555,121.060145 L118.684214,121.060145 C118.712295,121.232855 118.737013,121.405021 118.757642,121.574916 L109.773558,121.574916 C109.778466,121.3677 109.78101,121.191902 109.781555,121.060145 Z M109.433228,119.509838 L118.359151,119.509838 C118.401136,119.678371 118.442303,119.850083 118.48147,120.024609 L109.584173,120.024609 C109.539644,119.862977 109.488662,119.690267 109.433228,119.509838 Z M108.91778,117.959713 L117.921493,117.959713 C117.970929,118.117803 118.023455,118.290786 118.077345,118.474575 L109.096078,118.474575 C109.037554,118.303136 108.977849,118.130879 108.91778,117.959713 Z M108.353622,116.409678 L117.340069,116.409678 L117.571893,116.924449 L108.545007,116.924449 L108.353622,116.409678 Z M107.678232,114.859644 L116.64196,114.859644 L116.873784,115.374415 L107.959039,115.374415 L107.915237,115.26218 L107.678232,114.859644 Z M106.765566,113.309337 L115.943851,113.309337 L116.175676,113.824108 L107.068455,113.824108 L106.765566,113.309337 Z M105.852899,111.759302 L115.245742,111.759302 L115.477567,112.274074 L106.156061,112.274074 L105.852899,111.759302 Z M104.940414,110.209177 L114.547634,110.209177 L114.779549,110.724039 L105.243394,110.724039 L104.940414,110.209177 Z M104.027747,108.659143 L113.849616,108.659143 L114.08144,109.173914 L104.331,109.173914 L104.027747,108.659143 Z M103.11508,107.108836 L113.151234,107.108836 L113.383059,107.623607 L103.418242,107.623607 L103.11508,107.108836 Z M102.150614,105.558801 L112.460032,105.558801 L112.689039,106.073572 L102.47904,106.073572 L102.150614,105.558801 Z M101.161975,104.008767 L111.770466,104.008767 L111.999473,104.523538 L101.490401,104.523538 L101.161975,104.008767 Z M100.173245,102.458641 L111.081172,102.458641 L111.310179,102.973503 L100.501762,102.973503 L100.173245,102.458641 Z M99.1843336,100.908334 L110.391515,100.908334 L110.620522,101.423197 L99.5127591,101.423197 L99.1843336,100.908334 Z M98.1956945,99.3583 L109.701948,99.3583 L109.930955,99.8730713 L98.5241201,99.8730713 L98.1956945,99.3583 Z M97.2069646,97.8082655 L109.012564,97.8082655 L109.241571,98.3230368 L97.535481,98.3230368 L97.2069646,97.8082655 Z M96.2183255,96.258231 L106.984213,96.258231 L107.827087,96.7730023 L96.5467511,96.7730023 L96.2183255,96.258231 Z M95.2294139,94.7079241 L104.445322,94.7079241 L105.288469,95.2226954 L95.5578394,95.2226954 L95.2294139,94.7079241 Z M94.2406839,93.1577989 L101.906976,93.1577989 L102.750032,93.6726609 L94.5692004,93.6726609 L94.2406839,93.1577989 Z M93.2520449,91.6077644 L99.8432748,91.6077644 L99.4656854,91.666969 L100.211686,92.1225356 L93.5804704,92.1225356 L93.2520449,91.6077644 Z" id="Fill-608" fill="#151616" mask="url(#mask-2)"></path>
            <path d="M86.1731748,85.2067667 C86.1731748,85.2067667 83.8213062,84.0320276 83.5861193,88.0267943 C83.3509325,92.0216517 81.4696193,91.7869218 87.1139223,99.776546 C92.7582252,107.766261 102.635982,122.806045 104.046831,125.390889 C105.45768,127.975641 109.455947,128.445646 109.691134,124.685882 C109.926321,120.926026 109.690861,117.870906 106.633614,112.701128 C103.576457,107.531259 92.0526646,90.8469126 90.6415434,88.2617966 C89.2304223,85.6767713 85.7028011,85.2067667 86.1731748,85.2067667 Z" id="Stroke-609" stroke="#151616" stroke-width="1.28892138" stroke-linejoin="round" mask="url(#mask-2)"></path>
            <path d="M86.1731748,85.2067667 C86.1731748,85.2067667 83.8213062,84.0320276 83.5861193,88.0267943 C83.3509325,92.0216517 81.4696193,91.7869218 87.1139223,99.776546 C92.7582252,107.766261 102.635982,122.806045 104.046831,125.390889 C105.45768,127.975641 109.455947,128.445646 109.691134,124.685882 C109.926321,120.926026 109.690861,117.870906 106.633614,112.701128 C103.576457,107.531259 92.0526646,90.8469126 90.6415434,88.2617966 C89.2304223,85.6767713 85.7028011,85.2067667 86.1731748,85.2067667" id="Fill-610" fill="#FEFEFE" mask="url(#mask-2)"></path>
            <path d="M86.5413131,87.7621897 C86.5413131,87.7621897 84.7406978,86.8628609 84.5608544,89.921069 C84.3810109,92.9791862 84.9766117,95.1734793 89.2975796,101.290077 C93.6186383,107.406675 101.180514,118.920334 102.260574,120.899239 C103.340725,122.878144 106.401789,123.238002 106.581905,120.359497 C106.761931,117.481263 106.58136,115.142228 104.241033,111.184509 C101.900705,107.2267 91.0421245,92.0798575 89.9619734,90.1009529 C88.8818223,88.1220483 86.1811719,87.7621897 86.5413131,87.7621897 Z" id="Stroke-611" stroke="#151616" stroke-width="1.93342754" stroke-linejoin="round" mask="url(#mask-2)"></path>
            <path d="M86.5413131,87.7621897 C86.5413131,87.7621897 84.7406978,86.8628609 84.5608544,89.921069 C84.3810109,92.9791862 84.9766117,95.1734793 89.2975796,101.290077 C93.6186383,107.406675 101.180514,118.920334 102.260574,120.899239 C103.340725,122.878144 106.401789,123.238002 106.581905,120.359497 C106.761931,117.481263 106.58136,115.142228 104.241033,111.184509 C101.900705,107.2267 91.0421245,92.0798575 89.9619734,90.1009529 C88.8818223,88.1220483 86.1811719,87.7621897 86.5413131,87.7621897" id="Fill-612" fill="#FEFEFE" mask="url(#mask-2)"></path>
            <path d="M37.5527442,60.8414414 L37.5527442,55.9843034 C37.5527442,54.9999816 36.7470383,54.1948172 35.7619434,54.1948172 C34.7768485,54.1948172 33.9711427,54.9999816 33.9711427,55.9843034 L33.9711427,60.8414414 L37.5527442,60.8414414 Z" id="Stroke-613" stroke="#151616" stroke-width="1.93342754" mask="url(#mask-2)"></path>
            <path d="M37.5527442,60.8414414 L37.5527442,55.9843034 C37.5527442,54.9999816 36.7470383,54.1948172 35.7619434,54.1948172 C34.7768485,54.1948172 33.9711427,54.9999816 33.9711427,55.9843034 L33.9711427,60.8414414 L37.5527442,60.8414414 Z" id="Fill-614" fill="#FEFEFE" mask="url(#mask-2)"></path>
            <path d="M62.829358,75.5620471 C62.829358,75.5620471 63.4025845,73.9702425 64.7058176,72.6070839 L63.1907814,70.4490218 L71.3854096,70.7049092 L71.815265,71.1224287 C75.6636597,72.3360322 78.9642508,75.9254471 80.0909454,79.6520678 C80.7232679,81.7440241 80.6563261,84.1180195 80.5803812,85.1972322 L81.3023367,83.4868368 L74.1387119,86.043077 L69.6548785,79.6562448 C66.0645308,77.6039701 62.9427986,75.7761644 62.829358,75.5620471 Z" id="Stroke-615" stroke="#151616" stroke-width="1.90532645" stroke-linejoin="round" mask="url(#mask-2)"></path>
            <path d="M62.8280617,75.5620471 C62.8280617,75.5620471 63.4012161,73.9702425 64.7047401,72.6070839 L63.1894752,70.4490218 L71.3840288,70.7049092 L71.8139628,71.1224287 C75.6625577,72.3360322 78.9631708,75.9254471 80.0896686,79.6520678 C80.7220741,81.7440241 80.6550985,84.1180195 80.5791263,85.1972322 L81.3011354,83.4868368 L74.137569,86.043077 L69.6537515,79.6562448 C66.063335,77.6039701 62.9416566,75.7761644 62.8280617,75.5620471" id="Fill-616" fill="#FEFEFE" mask="url(#mask-2)"></path>
            <path d="M78.1362909,85.4582954 C78.1362909,85.4582954 79.0773109,86.3983046 82.6049321,85.4582954 C86.1324624,84.5181954 109.180048,74.4135506 109.180048,74.4135506 C109.180048,74.4135506 112.472482,73.0037184 112.002018,70.6536954 C111.531644,68.3036724 107.063366,61.2537851 107.063366,61.2537851 L102.124624,59.6089506 C102.124624,59.6089506 77.6659172,85.4582954 78.1362909,85.4582954 Z" id="Fill-617" fill="#FEFEFE" mask="url(#mask-2)"></path>
            <path d="M78.1362909,85.4582954 C78.1362909,85.4582954 79.0773109,86.3983046 82.6049321,85.4582954 C86.1324624,84.5181954 109.180048,74.4135506 109.180048,74.4135506 C109.180048,74.4135506 112.472482,73.0037184 112.002018,70.6536954 C111.531644,68.3036724 107.063366,61.2537851 107.063366,61.2537851 L102.124624,59.6089506 C102.124624,59.6089506 77.6659172,85.4582954 78.1362909,85.4582954 Z" id="Stroke-618" stroke="#151616" stroke-width="0.515550362" mask="url(#mask-2)"></path>
            <path d="M104.711679,60.3136851 C104.711679,60.3136851 103.535472,57.2586552 99.7726642,59.8436805 C96.0099471,62.4287966 75.784604,77.7033103 75.784604,77.7033103 C75.784604,77.7033103 74.138296,79.8181494 74.138296,81.9331701 C74.138296,84.0481908 75.3140485,86.1633023 78.6066646,85.4582954 C81.8992807,84.7531977 107.53374,72.7684437 107.53374,72.7684437 C107.53374,72.7684437 111.531916,71.5937046 110.355982,68.5386747 C109.180048,65.483554 104.711679,60.0786828 104.711679,60.3136851 Z" id="Stroke-619" stroke="#151616" stroke-width="1.93342754" stroke-linejoin="round" mask="url(#mask-2)"></path>
            <path d="M104.711679,60.3136851 C104.711679,60.3136851 103.535472,57.2586552 99.7726642,59.8436805 C96.0099471,62.4287966 75.784604,77.7033103 75.784604,77.7033103 C75.784604,77.7033103 74.138296,79.8181494 74.138296,81.9331701 C74.138296,84.0481908 75.3140485,86.1633023 78.6066646,85.4582954 C81.8992807,84.7531977 107.53374,72.7684437 107.53374,72.7684437 C107.53374,72.7684437 111.531916,71.5937046 110.355982,68.5386747 C109.180048,65.483554 104.711679,60.0786828 104.711679,60.3136851" id="Fill-620" fill="#FEFEFE" mask="url(#mask-2)"></path>
            <path d="M87.4410755,69.4266529 C87.4410755,69.4266529 90.5109547,73.2614218 92.8136595,74.0281759 C95.1162734,74.7950207 97.4187055,74.5391333 99.2095971,73.7723793 C101.000398,73.0055345 102.023842,72.238508 102.023842,72.238508 C102.023842,72.238508 102.279931,71.2158667 101.256486,67.1257552 C100.233042,63.0357345 99.9772259,59.7124678 99.9772259,59.7124678" id="Stroke-621" stroke="#151616" stroke-width="1.28892138" mask="url(#mask-2)"></path>
            <polygon id="Stroke-622" stroke="#151616" stroke-width="1.93342754" mask="url(#mask-2)" points="111.745747 71.471754 110.466487 74.0281759 126.840146 121.576732 128.630946 120.298476"></polygon>
            <polygon id="Fill-623" fill="#FEFEFE" mask="url(#mask-2)" points="111.745747 71.471754 110.466487 74.0281759 126.840146 121.576732 128.630946 120.298476"></polygon>
            <polygon id="Stroke-624" stroke="#151616" stroke-width="1.93342754" mask="url(#mask-2)" points="111.745747 71.471754 119.676761 70.7049092 133.491899 113.396328 128.375222 119.787064"></polygon>
            <polygon id="Fill-625" fill="#FEFEFE" mask="url(#mask-2)" points="111.745747 71.471754 119.676761 70.7049092 133.491899 113.396328 128.375222 119.787064"></polygon>
            <path d="M104.07055,59.4568529 L110.466487,69.9378828 C110.466487,69.9378828 113.025008,71.2161391 116.6067,69.6822678 C120.188392,68.1483966 124.026082,63.5468736 124.281898,62.0130931 C124.537714,60.4792218 124.537441,58.4342115 122.490824,58.4342115 C120.444117,58.4342115 104.07055,59.2012379 104.07055,59.4568529 Z" id="Stroke-626" stroke="#151616" stroke-width="1.93342754" mask="url(#mask-2)"></path>
            <path d="M104.07055,59.4568529 L110.466487,69.9378828 C110.466487,69.9378828 113.025008,71.2161391 116.6067,69.6822678 C120.188392,68.1483966 124.026082,63.5468736 124.281898,62.0130931 C124.537714,60.4792218 124.537441,58.4342115 122.490824,58.4342115 C120.444117,58.4342115 104.07055,59.2012379 104.07055,59.4568529" id="Fill-627" fill="#FEFEFE" mask="url(#mask-2)"></path>
            <path d="M130.166022,58.4342115 C130.166022,58.4342115 128.886762,57.4118425 126.840146,58.1785966 C124.793529,58.9454414 124.537714,59.9680828 124.537714,59.9680828 C124.537714,59.9680828 137.585223,77.8626724 138.864392,81.697169 C140.143652,85.5315747 139.887927,89.6219586 140.143652,94.4790966 C140.399468,99.3361437 141.934544,109.05042 141.934544,109.05042 L146.539681,104.193282 C146.539681,104.193282 143.980888,91.4110816 144.236976,87.065446 C144.492973,82.7198103 140.911372,69.9376103 136.56196,65.8475897 C132.212639,61.7574782 130.166022,58.4342115 130.166022,58.4342115 Z" id="Stroke-628" stroke="#151616" stroke-width="1.93342754" mask="url(#mask-2)"></path>
            <path d="M130.166022,58.4342115 C130.166022,58.4342115 128.886762,57.4118425 126.840146,58.1785966 C124.793529,58.9454414 124.537714,59.9680828 124.537714,59.9680828 C124.537714,59.9680828 137.585223,77.8626724 138.864392,81.697169 C140.143652,85.5315747 139.887927,89.6219586 140.143652,94.4790966 C140.399468,99.3361437 141.934544,109.05042 141.934544,109.05042 L146.539681,104.193282 C146.539681,104.193282 143.980888,91.4110816 144.236976,87.065446 C144.492973,82.7198103 140.911372,69.9376103 136.56196,65.8475897 C132.212639,61.7574782 130.166022,58.4342115 130.166022,58.4342115" id="Fill-629" fill="#FEFEFE" mask="url(#mask-2)"></path>
            <path d="M123.258453,58.6898264 L104.326365,58.9454414 L113.025008,57.1559552 L129.910207,56.6447253 C129.910207,56.6447253 131.189467,56.9003402 131.445282,58.1785966 C131.701098,59.4568529 131.70128,56.9000678 129.398666,57.4115701 C127.095961,57.9229816 123.258453,58.6898264 123.258453,58.6898264 Z" id="Stroke-630" stroke="#151616" stroke-width="1.93342754" stroke-linejoin="round" mask="url(#mask-2)"></path>
            <path d="M123.258453,58.6898264 L104.326365,58.9454414 L113.025008,57.1559552 L129.910207,56.6447253 C129.910207,56.6447253 131.189467,56.9003402 131.445282,58.1785966 C131.701098,59.4568529 131.70128,56.9000678 129.398666,57.4115701 C127.095961,57.9229816 123.258453,58.6898264 123.258453,58.6898264" id="Fill-631" fill="#FEFEFE" mask="url(#mask-2)"></path>
            <polygon id="Stroke-632" stroke="#151616" stroke-width="1.93342754" stroke-linejoin="round" mask="url(#mask-2)" points="157.796843 97.2911333 133.747987 109.817174 135.282972 118.764605 138.353124 139.215525 160.866632 117.997578"></polygon>
            <polygon id="Fill-633" fill="#FEFEFE" mask="url(#mask-2)" points="157.796843 97.2911333 133.747987 109.817174 135.282972 118.764605 138.353124 139.215525 160.866632 117.997578"></polygon>
            <path d="M136.817776,108.027778 L135.538515,119.275834" id="Stroke-634" stroke="#151616" stroke-width="0.515550362" mask="url(#mask-2)"></path>
            <path d="M138.11303,107.324769 C137.686458,111.074363 137.260069,114.823594 136.83377,118.572916" id="Stroke-635" stroke="#151616" stroke-width="0.515550362" mask="url(#mask-2)"></path>
            <path d="M139.408193,106.621851 C138.981622,110.371354 138.555323,114.120676 138.129024,117.869907" id="Stroke-636" stroke="#151616" stroke-width="0.515550362" mask="url(#mask-2)"></path>
            <path d="M140.703175,105.91866 C140.276604,109.668163 139.850305,113.417394 139.423915,117.166716" id="Stroke-637" stroke="#151616" stroke-width="0.515550362" mask="url(#mask-2)"></path>
            <path d="M141.99843,105.215651 C141.571858,108.965245 141.145468,112.714476 140.719169,116.463707" id="Stroke-638" stroke="#151616" stroke-width="0.515550362" mask="url(#mask-2)"></path>
            <path d="M143.293593,104.512732 C142.867022,108.262236 142.440723,112.011557 142.014424,115.760789" id="Stroke-639" stroke="#151616" stroke-width="0.515550362" mask="url(#mask-2)"></path>
            <path d="M144.588847,103.809723 C144.162276,107.559317 143.735886,111.308548 143.309587,115.05787" id="Stroke-640" stroke="#151616" stroke-width="0.515550362" mask="url(#mask-2)"></path>
            <path d="M145.884102,103.106805 C145.457439,106.856308 145.031141,110.60563 144.604842,114.354861" id="Stroke-641" stroke="#151616" stroke-width="0.515550362" mask="url(#mask-2)"></path>
            <path d="M147.179265,102.403614 C146.752694,106.153117 146.326395,109.902348 145.900005,113.65167" id="Stroke-642" stroke="#151616" stroke-width="0.515550362" mask="url(#mask-2)"></path>
            <path d="M148.474247,101.700605 C148.047676,105.450199 147.621286,109.19943 147.194987,112.948752" id="Stroke-643" stroke="#151616" stroke-width="0.515550362" mask="url(#mask-2)"></path>
            <path d="M149.769501,100.997686 C149.342839,104.74719 148.91654,108.496511 148.490241,112.245743" id="Stroke-644" stroke="#151616" stroke-width="0.515550362" mask="url(#mask-2)"></path>
            <path d="M151.064665,100.294677 C150.638093,104.044271 150.211795,107.793502 149.785405,111.542824" id="Stroke-645" stroke="#151616" stroke-width="0.515550362" mask="url(#mask-2)"></path>
            <path d="M152.359919,99.5917586 C151.933348,103.341262 151.506958,107.090584 151.080659,110.839815" id="Stroke-646" stroke="#151616" stroke-width="0.515550362" mask="url(#mask-2)"></path>
            <path d="M153.655083,98.8888402 C153.228511,102.638344 152.802212,106.387575 152.375823,110.136897" id="Stroke-647" stroke="#151616" stroke-width="0.515550362" mask="url(#mask-2)"></path>
            <path d="M154.950065,98.1855586 C154.523493,101.935153 154.097194,105.684384 153.670804,109.433706" id="Stroke-648" stroke="#151616" stroke-width="0.515550362" mask="url(#mask-2)"></path>
            <path d="M156.245319,97.4826402 C155.818657,101.232144 155.392358,104.981466 154.966059,108.730697" id="Stroke-649" stroke="#151616" stroke-width="0.515550362" mask="url(#mask-2)"></path>
            <path d="M157.540482,96.7797218 L156.261222,108.027778" id="Stroke-650" stroke="#151616" stroke-width="0.515550362" mask="url(#mask-2)"></path>
            <path d="M134.259528,109.817174 L123.514542,123.877357 C123.514542,123.877357 122.235281,126.689394 122.235281,128.99002 C122.235281,131.290736 122.235281,135.125414 122.235281,135.125414 L134.515343,143.561433 L138.608849,139.982552 L141.423185,133.080131 L138.353124,120.042861 C138.353124,120.042861 134.003803,110.072789 134.259528,109.817174 Z" id="Stroke-651" stroke="#151616" stroke-width="1.93342754" stroke-linejoin="round" mask="url(#mask-2)"></path>
            <path d="M134.259528,109.817174 L123.514542,123.877357 C123.514542,123.877357 122.235281,126.689394 122.235281,128.99002 C122.235281,131.290736 122.235281,135.125414 122.235281,135.125414 L134.515343,143.561433 L138.608849,139.982552 L141.423185,133.080131 L138.353124,120.042861 C138.353124,120.042861 134.003803,110.072789 134.259528,109.817174" id="Fill-652" fill="#FEFEFE" mask="url(#mask-2)"></path>
            <polyline id="Stroke-653" stroke="#151616" stroke-width="1.28892138" mask="url(#mask-2)" points="138.608667 119.787064 130.677654 127.200624 125.816701 137.937269"></polyline>
            <path d="M89.2319672,94.7346207 C89.2319672,94.7346207 92.8136595,99.8473736 94.6044602,99.5917586 C96.3952609,99.3361437 100.488585,95.7572621 100.488585,95.7572621 L101.767845,91.1557391 L99.2093245,78.8853138 L89.2319672,83.2309494 L86.6734467,92.9452253 C86.6734467,92.9452253 89.7435077,96.012877 89.2319672,94.7346207 Z" id="Stroke-654" stroke="#151616" stroke-width="1.28892138" mask="url(#mask-2)"></path>
            <path d="M89.2319672,94.7346207 C89.2319672,94.7346207 92.8136595,99.8473736 94.6044602,99.5917586 C96.3952609,99.3361437 100.488585,95.7572621 100.488585,95.7572621 L101.767845,91.1557391 L99.2093245,78.8853138 L89.2319672,83.2309494 L86.6734467,92.9452253 C86.6734467,92.9452253 89.7435077,96.012877 89.2319672,94.7346207" id="Fill-655" fill="#FEFEFE" mask="url(#mask-2)"></path>
            <path d="M56.4333296,75.5620471 C56.4333296,75.5620471 58.089066,70.9607966 62.1751359,70.7049092 C67.3017284,70.3839149 72.2603676,74.9069828 73.6949169,79.6520678 C74.5450773,82.4641954 74.1311935,85.7874621 74.1311935,85.7874621 C74.1311935,85.7874621 56.7041821,76.073277 56.4333296,75.5620471 Z" id="Stroke-656" stroke="#151616" stroke-width="1.90532645" stroke-linejoin="round" mask="url(#mask-2)"></path>
            <path d="M56.4321241,75.5620471 C56.4321241,75.5620471 58.0879741,70.9607966 62.1737551,70.7049092 C67.3005197,70.3839149 72.259073,74.9069828 73.693731,79.6520678 C74.5437843,82.4641954 74.1301172,85.7874621 74.1301172,85.7874621 C74.1301172,85.7874621 56.7031161,76.073277 56.4321241,75.5620471" id="Fill-657" fill="#FEFEFE" mask="url(#mask-2)"></path>
            <path d="M94.3917197,99.9426276 L109.443315,95.5017379 C109.443315,95.5017379 110.210672,93.4566368 109.954947,92.1783805 C109.699131,90.9002149 100.488857,95.7572621 100.488857,95.7572621 C100.488857,95.7572621 94.135904,100.198243 94.3917197,99.9426276 Z" id="Stroke-658" stroke="#151616" stroke-width="1.28892138" mask="url(#mask-2)"></path>
            <path d="M94.3917197,99.9426276 L109.443315,95.5017379 C109.443315,95.5017379 110.210672,93.4566368 109.954947,92.1783805 C109.699131,90.9002149 100.488857,95.7572621 100.488857,95.7572621 C100.488857,95.7572621 94.135904,100.198243 94.3917197,99.9426276" id="Fill-659" fill="#FEFEFE" mask="url(#mask-2)"></path>
            <path d="M102.279658,90.9002149 L110.711216,87.8324724 L109.954947,92.1783805 L100.701598,95.5333379 C100.701598,95.5333379 102.279658,90.6446 102.279658,90.9002149 Z" id="Stroke-660" stroke="#151616" stroke-width="1.28892138" mask="url(#mask-2)"></path>
            <path d="M102.279658,90.9002149 L110.711216,87.8324724 L109.954947,92.1783805 L100.701598,95.5333379 C100.701598,95.5333379 102.279658,90.6446 102.279658,90.9002149" id="Fill-661" fill="#FEFEFE" mask="url(#mask-2)"></path>
            <polygon id="Stroke-662" stroke="#151616" stroke-width="1.28892138" mask="url(#mask-2)" points="110.978119 87.5768575 108.238755 74.6886885 98.9537814 78.8647011 101.768118 90.9002149"></polygon>
            <polygon id="Fill-663" fill="#FEFEFE" mask="url(#mask-2)" points="110.978119 87.5768575 108.238755 74.6886885 98.9537814 78.8647011 101.768118 90.9002149"></polygon>
            <polygon id="Stroke-664" stroke="#151616" stroke-width="1.93342754" mask="url(#mask-2)" points="105.514231 73.8446536 109.151229 71.9208867 87.7434506 101.825313 85.9963398 100.546999"></polygon>
            <polygon id="Fill-665" fill="#FEFEFE" mask="url(#mask-2)" points="105.512023 73.8433885 109.14915 71.9193299 87.7414204 101.823917 85.9944219 100.545661"></polygon>
            <polygon id="Stroke-666" stroke="#151616" stroke-width="1.93342754" stroke-linejoin="round" mask="url(#mask-2)" points="68.2588062 89.6880644 67.3180588 104.962669 79.0770383 99.7928 78.1362909 85.9283"></polygon>
            <polygon id="Fill-667" fill="#FEFEFE" mask="url(#mask-2)" points="68.2588062 89.6880644 67.3180588 104.962669 79.0770383 99.7928 78.1362909 85.9283"></polygon>
            <path d="M84.1151989,71.7272782 C84.1151989,71.7272782 86.162088,70.4488402 87.9529796,72.238508 C89.7437803,74.0281759 91.2788562,76.840031 91.2788562,76.840031 C91.2788562,76.840031 93.3252,79.1406563 91.0227679,80.4189126" id="Stroke-668" stroke="#151616" stroke-width="1.28892138" mask="url(#mask-2)"></path>
            <path d="M88.0288996,79.0265267 C89.0932413,80.5645913 91.1701347,81.8160232 93.0962134,82.0087064 L83.0105762,99.1195985 C80.8533945,99.1381573 79.1191211,98.241813 77.9431383,96.1373458 L88.0288996,79.0265267 Z" id="Stroke-669" stroke="#151616" stroke-width="2.43915616" stroke-linejoin="round" mask="url(#mask-2)"></path>
            <path d="M88.0292245,79.024608 C89.0935631,80.5625655 91.1703504,81.8140345 93.0964653,82.0068126 L83.0108748,99.1176678 C80.8537533,99.136192 79.1192956,98.2399506 77.9433613,96.1353724 L88.0292245,79.024608 Z" id="Fill-670" fill="#FEFEFE" mask="url(#mask-2)"></path>
            <path d="M91.2806194,79.2845317 C92.6616682,80.0974107 93.5506083,81.1470828 93.2664777,81.629133 C92.9823778,82.1113056 91.6325838,81.843334 90.251535,81.030455 C88.8705478,80.2178211 87.981562,79.1682265 88.2659826,78.6860338 C88.5501132,78.2039837 89.8996322,78.4718978 91.2806194,79.2845317 Z" id="Stroke-671" stroke="#151616" stroke-width="3.90295906" stroke-linejoin="round" mask="url(#mask-2)"></path>
            <path d="M91.2832182,79.2932989 C92.6641686,80.1061816 93.5532077,81.155792 93.2690387,81.6379644 C92.9849606,82.120046 91.6350898,81.8520816 90.2540485,81.0391989 C88.8730982,80.2265885 87.98415,79.1769782 88.2685007,78.6948057 C88.5526697,78.2127241 89.902177,78.4806885 91.2832182,79.2932989" id="Fill-672" fill="#FEFEFE" mask="url(#mask-2)"></path>
            <polygon id="Stroke-673" stroke="#151616" stroke-width="2.75527065" stroke-linejoin="round" mask="url(#mask-2)" points="93.5238649 73.0891782 95.6207413 74.3232208 91.9157149 80.6085236 89.8191701 79.3749227"></polygon>
            <polygon id="Fill-674" fill="#FEFEFE" mask="url(#mask-2)" points="93.5282168 73.0891655 95.6250876 74.3232 91.9199858 80.6086034 89.8233876 79.3749322"></polygon>
            <path d="M96.3259522,70.7400428 C97.4357945,71.3931993 97.7823937,72.8607067 97.1003562,74.0178052 C96.418096,75.1748562 94.9655118,75.583688 93.8557426,74.9304074 C92.7460865,74.2773605 92.399239,72.809707 93.0814992,71.652656 C93.7636464,70.4953714 95.2161099,70.0868862 96.3259522,70.7400428 Z" id="Stroke-675" stroke="#151616" stroke-width="1.62613442" stroke-linejoin="round" mask="url(#mask-2)"></path>
            <path d="M96.3262861,70.7378713 C97.4359719,71.3911195 97.7827544,72.8586126 97.1006398,74.0158264 C96.4185252,75.1728586 94.9658737,75.5815701 93.8560971,74.9283218 C92.7464113,74.275346 92.3996288,72.8075805 93.0817434,71.6506391 C93.7639489,70.4933345 95.2162369,70.0848046 96.3262861,70.7378713" id="Fill-676" fill="#FEFEFE" mask="url(#mask-2)"></path>
            <path d="M84.1151989,101.12563 C84.1151989,101.12563 85.1389161,99.3358713 87.9529796,100.102989 C88.3751891,100.218038 88.7506883,100.326913 89.0851117,100.437603 L103.939961,80.1632977 L105.19105,81.0783356 L90.5245861,101.095483 C91.2795832,101.624147 91.5346719,102.355941 91.5346719,103.682052 C91.5346719,105.982677 90.7669522,106.238564 88.9761515,107.260933 C87.1852599,108.283393 84.3710146,107.516548 84.3710146,107.516548 C84.3710146,107.516548 83.8593832,101.381245 84.1151989,101.12563 Z" id="Stroke-677" stroke="#151616" stroke-width="1.28892138" stroke-linejoin="round" mask="url(#mask-2)"></path>
            <path d="M84.1151989,101.12563 C84.1151989,101.12563 85.1389161,99.3358713 87.9529796,100.102989 C88.3751891,100.218038 88.7506883,100.326913 89.0851117,100.437603 L103.939961,80.1632977 L105.19105,81.0783356 L90.5245861,101.095483 C91.2795832,101.624147 91.5346719,102.355941 91.5346719,103.682052 C91.5346719,105.982677 90.7669522,106.238564 88.9761515,107.260933 C87.1852599,108.283393 84.3710146,107.516548 84.3710146,107.516548 C84.3710146,107.516548 83.8593832,101.381245 84.1151989,101.12563" id="Fill-678" fill="#FEFEFE" mask="url(#mask-2)"></path>
            <path d="M70.6107657,88.7480552 L70.6107657,103.552837" id="Stroke-679" stroke="#151616" stroke-width="0.515550362" mask="url(#mask-2)"></path>
            <polygon id="Stroke-680" stroke="#151616" stroke-width="1.93342754" stroke-linejoin="round" mask="url(#mask-2)" points="74.9051978 95.2458506 84.627012 99.3361437 84.627012 107.772163 73.1143062 113.14044 63.6483077 108.283393 63.9041234 98.5691172"></polygon>
            <polygon id="Fill-681" fill="#FEFEFE" mask="url(#mask-2)" points="74.9051978 95.2458506 84.627012 99.3361437 84.627012 107.772163 73.1143062 113.14044 63.6483077 108.283393 63.9041234 98.5691172"></polygon>
            <polyline id="Stroke-682" stroke="#151616" stroke-width="0.515550362" mask="url(#mask-2)" points="84.8828277 99.5917586 73.1143062 103.682052 63.1364036 98.5691172"></polyline>
            <path d="M72.8583088,103.426255 L73.1143062,113.651943" id="Stroke-683" stroke="#151616" stroke-width="0.515550362" mask="url(#mask-2)"></path>
            <path d="M63.1364036,105.471538 L73.1143062,109.561559" id="Stroke-684" stroke="#151616" stroke-width="1.28892138" mask="url(#mask-2)"></path>
            <path d="M70.5558766,96.7797218 L79.7661504,101.381245" id="Stroke-685" stroke="#151616" stroke-width="1.28892138" mask="url(#mask-2)"></path>
            <polygon id="Fill-686" fill="#151616" mask="url(#mask-2)" points="70.3000609 102.65941 72.3466774 102.65941 72.3466774 91.666969 70.3000609 91.666969"></polygon>
            <polygon id="Stroke-687" stroke="#151616" stroke-width="1.93342754" stroke-linejoin="round" mask="url(#mask-2)" points="137.693638 115.649553 141.79723 112.667621 145.154823 115.649553 147.020051 113.040374 150.750689 113.413036 152.242689 107.821833 160.823102 107.076146 165.672695 109.312663 167.164969 104.839629 171.641607 104.094214 175.7452 100.739256 188.055887 106.330731 187.309886 111.549271 185.817613 113.786061 188.428932 115.649553 186.190659 120.122951 183.206294 121.61378 180.221747 123.85057 175.7452 121.241028 170.149334 126.832502 166.792014 131.67838 157.838555 132.423977 154.108008 135.033247 150.750689 139.506372 145.154823 138.388205 148.139097 133.91517 143.662549 131.305628 141.424185 122.732221 139.185911 120.122951"></polygon>
            <polygon id="Fill-688" fill="#EBEBEB" mask="url(#mask-2)" points="137.693638 115.649553 141.79723 112.667621 145.154823 115.649553 147.020051 113.040374 150.750689 113.413036 152.242689 107.821833 160.823102 107.076146 165.672695 109.312663 167.164969 104.839629 171.641607 104.094214 175.7452 100.739256 188.055887 106.330731 187.309886 111.549271 185.817613 113.786061 188.428932 115.649553 186.190659 120.122951 183.206294 121.61378 180.221747 123.85057 175.7452 121.241028 170.149334 126.832502 166.792014 131.67838 157.838555 132.423977 154.108008 135.033247 150.750689 139.506372 145.154823 138.388205 148.139097 133.91517 143.662549 131.305628 141.424185 122.732221 139.185911 120.122951"></polygon>
            <polyline id="Stroke-689" stroke="#151616" stroke-width="0.515550362" stroke-linejoin="round" mask="url(#mask-2)" points="145.027324 115.307764 143.709896 120.134029 141.514334 122.766636"></polyline>
            <polyline id="Stroke-690" stroke="#151616" stroke-width="0.515550362" stroke-linejoin="round" mask="url(#mask-2)" points="143.49043 120.134029 140.416734 118.379048 141.953628 116.185209"></polyline>
            <polyline id="Stroke-691" stroke="#151616" stroke-width="0.515550362" stroke-linejoin="round" mask="url(#mask-2)" points="150.735694 113.552784 153.370187 115.746351 152.711518 119.475786 152.05285 123.205313 158.200514 121.889191 159.078648 117.94019 152.492053 119.695352"></polyline>
            <polyline id="Stroke-692" stroke="#151616" stroke-width="0.515550362" stroke-linejoin="round" mask="url(#mask-2)" points="152.05285 123.424878 156.443883 128.031759 159.298114 126.057303 157.980776 121.669625"></polyline>
            <polyline id="Stroke-693" stroke="#151616" stroke-width="0.515550362" stroke-linejoin="round" mask="url(#mask-2)" points="152.05285 108.068186 156.443883 108.287752 159.737317 110.042641 160.176247 106.971357"></polyline>
            <path d="M171.373432,103.680508 L170.714764,109.165197 L176.203669,108.287752 L177.301359,104.777609 C177.301359,104.777609 170.934501,103.241922 171.373432,103.680508 Z" id="Stroke-694" stroke="#151616" stroke-width="0.515550362" stroke-linejoin="round" mask="url(#mask-2)"></path>
            <polyline id="Stroke-695" stroke="#151616" stroke-width="0.515550362" stroke-linejoin="round" mask="url(#mask-2)" points="151.833384 123.424878 149.637822 122.547343 148.979154 126.276597 146.124923 126.715455"></polyline>
            <polyline id="Stroke-696" stroke="#151616" stroke-width="0.515550362" stroke-linejoin="round" mask="url(#mask-2)" points="158.200514 115.746351 160.395713 113.333218 161.932606 115.746351 164.347906 114.868906 165.884709 113.113925 168.519201 115.307764 168.958405 116.843452 172.032101 114.43032"></polyline>
            <path d="M161.932606,115.746351 L163.249943,111.13947" id="Stroke-697" stroke="#151616" stroke-width="0.515550362" stroke-linejoin="round" mask="url(#mask-2)"></path>
            <polyline id="Stroke-698" stroke="#151616" stroke-width="0.515550362" stroke-linejoin="round" mask="url(#mask-2)" points="168.738939 117.062745 168.299736 122.108484 164.786837 124.08303 165.22604 126.934748"></polyline>
            <path d="M168.080271,122.108484 L175.764465,121.231039" id="Stroke-699" stroke="#151616" stroke-width="0.515550362" stroke-linejoin="round" mask="url(#mask-2)"></path>
            <polyline id="Stroke-700" stroke="#151616" stroke-width="0.515550362" stroke-linejoin="round" mask="url(#mask-2)" points="188.278987 106.093913 181.692392 106.313206 181.253189 112.23648 185.863778 113.552784"></polyline>
            <path d="M180.59452,112.894632 L175.545,112.23648 L176.862155,117.94019 L182.790082,117.062745 C182.790082,117.062745 179.936124,113.113925 180.59452,112.894632 Z" id="Stroke-701" stroke="#151616" stroke-width="0.515550362" stroke-linejoin="round" mask="url(#mask-2)"></path>
            <polyline id="Stroke-702" stroke="#151616" stroke-width="0.515550362" stroke-linejoin="round" mask="url(#mask-2)" points="156.004952 128.251052 153.150722 128.031759 152.930984 130.883749 149.857288 130.883749 149.857288 135.051771"></polyline>
            <path d="M5.39230401,151.724585 C7.14866277,151.285908 18.1261095,150.408191 19.2239814,150.847049 C20.3218533,151.285908 29.9821445,156.331466 31.7385033,156.112172 C33.4947712,155.892879 43.8138219,155.673586 43.8138219,155.673586 L49.302727,154.357192 L55.0109157,157.867425 L64.4517416,156.331466 L68.6230369,153.918333 L79.6007562,154.795869 L96.5060387,154.137899 L100.458141,151.505292 L116.265824,148.434008 L126.804341,144.04633 L135.147295,147.556472 L144.368292,140.097601 L158.200242,139.658743 L165.006302,138.123055 L168.519201,133.296882 L171.373159,133.516175 L173.129791,131.541629 L179.277183,131.980487 L191.352411,131.103043 L193.328507,123.863464 L198.597765,119.695352 L205.184088,120.353594 L212.648817,114.43032" id="Stroke-703" stroke="#151616" stroke-width="0.773371014" mask="url(#mask-2)"></path>
            <path d="M68.1995551,141.18998 C63.7840763,135.657438 63.4141204,142.065882 57.8805953,141.847951 C57.0194551,141.813899 56.9442099,142.871863 56.5635307,143.603113 L68.1995551,141.18998 Z M95.6238153,140.316894 C95.7535861,144.207236 93.5846507,140.808238 96.138173,145.582017 C97.6618894,148.430103 91.8120252,148.150607 101.169154,148.634505 L101.771207,148.872867 L95.6238153,140.316894 Z M89.256958,142.730026 C90.7533208,139.569118 94.0387577,137.262591 97.0853726,140.830939 C97.5263934,141.347526 104.177692,139.644849 102.649614,145.582017 L89.256958,142.730026 Z M83.767962,133.955033 C83.767962,129.578706 77.5167898,133.516175 81.3529347,133.516175 L83.767962,133.955033 Z M85.9635241,136.368166 C89.5498511,131.161975 92.2888511,136.851064 90.5740226,137.24561 L85.9635241,136.368166 Z M88.1798967,142.216526 C87.0977464,138.347797 84.7079825,139.777424 81.4302701,142.072329 C80.6522814,142.616975 80.1556445,145.752639 84.2280668,144.190982 L88.1798967,142.216526 Z M75.425008,140.097601 C72.0929518,140.204932 70.8861197,134.324426 82.0116033,135.691217 C82.8990974,135.800364 83.6646361,138.064668 83.8055847,138.743705 C85.0822095,139.037911 85.0852993,139.03664 85.0852993,140.097601 L75.425008,140.097601 Z M108.577268,136.806752 C103.632073,138.405457 103.182874,140.666674 104.882708,132.456939 C105.994029,131.944529 121.034538,137.30763 111.375065,139.915901 C111.205308,139.961667 110.321722,140.432761 110.114343,140.536187 L108.577268,136.806752 Z M101.11272,125.399061 C100.326826,123.663967 98.8036544,124.513898 98.9172493,125.83792 L101.11272,125.399061 Z M94.3063872,122.98602 C94.9519697,122.139357 96.3432799,121.411195 96.2824839,122.766636 L94.3063872,122.98602 Z M95.40435,119.256493 C94.2159657,118.145862 92.9893226,118.092287 92.9893226,120.134029 L95.40435,119.256493 Z M84.6463686,121.669625 C88.279315,121.318302 86.7793172,121.512897 89.9156266,121.669625 L84.6463686,121.669625 Z M48.0008387,133.955033 C48.308181,133.955033 55.4153135,130.014749 54.0917967,133.735468 C53.7048471,134.823216 52.2344748,134.613185 51.2942726,134.613185 L48.0008387,133.955033 Z M64.2021055,142.683716 C47.3640712,142.683716 60.403765,147.603872 39.6445259,142.215255 C39.2377653,142.109468 32.9228891,144.142583 24.6263726,142.779697 C21.4666172,142.260476 19.9658923,142.763715 17.1974485,144.174818 L64.2021055,142.683716 Z M45.5858113,118.927599 C43.4225102,116.580391 35.2341361,121.002211 46.0250146,119.676555 C46.4872095,119.619711 45.6553314,119.002967 45.5858113,118.927599 Z M96.3921712,133.625776 C95.4630558,129.162003 91.2435055,137.170969 96.0910993,134.020957 L96.3921712,133.625776 Z M78.718442,122.108484 L77.6205701,122.98602 C79.2627887,119.047279 83.0072398,125.082789 78.9943412,122.710337 C78.7140799,122.544528 78.6962682,122.389615 78.718442,122.108484 Z M86.5124146,124.63149 C79.081673,125.630522 88.0088682,128.420947 87.0330427,124.073495 L86.5124146,124.63149 Z M94.0869219,127.702774 C93.6250905,126.123137 89.8014865,127.603706 90.3921799,129.31056 C94.3319234,130.674445 97.3569099,125.942163 94.1621672,127.248206 L94.0869219,127.702774 Z M35.4863168,106.532499 C30.2933036,108.640346 39.8974336,108.817233 36.6406226,106.23802 C36.406708,106.05296 35.819377,106.397382 35.4863168,106.532499 Z M37.2428573,124.521889 C36.7643047,124.542955 32.0831047,124.002486 33.5481153,126.000914 C34.6070923,127.445433 39.2722982,125.671656 37.3871682,124.101826 L37.2428573,124.521889 Z" id="Stroke-704" stroke="#151616" stroke-width="0.773371014" stroke-linejoin="round" mask="url(#mask-2)"></path>
            <path d="M133.455094,33.2310322 C131.468728,38.089623 133.248442,42.8499632 132.065783,44.1433839 L131.351771,44.825054 L133.455094,33.2310322 Z M188.056159,107.448899 C196.247078,104.204905 190.014172,103.542848 196.263345,105.861998 C199.712904,107.142343 201.346307,103.811811 208.16918,108.258422 C218.898535,104.026474 212.215521,110.732756 215.288944,101.857606 C216.479146,98.4205609 221.168434,99.248154 223.49613,99.248154 L188.056159,107.448899 Z M194.398026,114.531476 C197.112944,111.129663 199.458088,115.058597 207.359021,112.76342 C208.094662,112.549756 209.288408,112.667621 210.066396,112.667621 L194.398026,114.531476 Z M157.337557,83.4979149 C171.180503,79.2124828 163.625261,84.5946529 169.412784,84.5946529 L157.337557,83.4979149 Z M169.412784,53.0040966 C163.144346,58.7152517 170.799187,55.8622621 166.119623,62.7319931 C164.317735,65.3773126 163.632985,62.8761 158.654894,62.8761 L169.412784,53.0040966 Z M180.829434,76.4776299 C184.566706,76.3025586 186.357598,73.9489034 189.611592,75.1049368 C190.570332,75.445454 193.073237,74.6768839 193.783159,74.0644977 L180.829434,76.4776299 Z M209.43908,80.3563483 C207.682267,79.261154 206.585122,79.4595621 204.541141,79.4595621 L209.43908,80.3563483 Z M217.900536,80.6101471 C202.048324,80.6101471 215.906446,78.9584115 204.939359,88.5339379 C204.384743,89.0183805 204.47053,89.6926954 204.47053,90.3019943 L217.900536,80.6101471 Z M172.706218,94.0280701 C177.1625,95.191277 175.617882,92.8743977 176.915227,96.6229023 C178.476021,97.1621908 180.829434,95.5086391 180.829434,97.099354 L172.706218,94.0280701 Z M89.4807854,60.6823517 L95.408712,56.2946736 L101.995307,56.9529161 L106.386341,54.9786425 L122.633227,49.9328126 L134.269342,49.9328126 L142.832034,46.6419632 L150.077026,50.1521057 L160.615451,51.4685 L164.567644,54.5397839 L173.349438,52.3459448 L179.277365,54.9786425 L186.961923,60.0242 L198.158744,61.5597966 L206.282232,60.4630586 L212.429624,64.850646 L219.01622,64.6310805 L221.211782,72.5288103 L229.774383,85.4721885 L227.798377,91.3953724 L228.017842,96.2216368 L223.846456,99.2931931 L225.38335,106.093913 L221.211782,108.945631 L217.040396,115.746351 L213.308031,116.404502 L209.795132,119.0372 L89.4807854,60.6823517 Z M185.879227,60.0242 C181.254461,64.7991598 180.137505,63.6488471 186.098692,68.4169057 C187.023718,69.1569632 184.252185,70.7690172 184.342334,72.0899517 L185.879227,60.0242 Z M164.802286,63.7536356 C175.417501,63.7536356 168.780379,69.2178931 173.584443,68.8181713 C175.84798,68.6297517 179.118241,67.7337828 179.51237,64.850646 L164.802286,63.7536356 Z M160.191696,52.7848034 C150.625734,55.5451724 162.43824,58.040392 157.575833,58.9837609 C149.618738,60.5276207 154.217241,59.9453816 153.824657,69.8962034 C153.737326,72.1084759 159.544932,69.1182805 156.239866,77.1357816 L160.191696,52.7848034 Z M132.089047,50.3713989 C135.058418,54.6813483 143.663004,48.6471103 145.462892,57.2097115 C145.468799,57.2385874 145.394372,54.7132207 151.190165,53.2233897 C151.875096,53.0473195 153.758136,51.6399391 154.703064,51.2492069 L132.089047,50.3713989 Z M167.875982,67.2637782 C162.036205,76.2914805 165.443415,68.7160161 165.68042,74.7226494 C165.698231,75.1703161 160.489769,80.5277874 161.327009,82.1061529 L161.72859,81.7426621 L167.875982,67.2637782 Z M177.09707,67.4830713 C172.759562,73.5010552 180.82171,71.5785402 177.699304,74.8855529 C175.616883,77.0910149 174.682042,73.2794011 174.682042,78.8907621 L177.09707,67.4830713 Z M145.481703,55.8560874 C145.098934,61.4259506 144.12847,61.099054 149.728516,65.8722885 C150.248054,66.3149609 149.415994,72.5589575 149.433806,73.406346 L145.481703,55.8560874 Z M154.044304,70.115769 C162.561649,67.9443586 156.350099,68.3085759 160.850456,65.5087977 L154.044304,70.115769 Z M164.553649,37.7426586 C164.553649,39.2337609 164.553649,40.7246816 164.553649,42.2157839 L164.553649,37.7426586 Z M148.528318,37.0353816 C146.008965,45.8913724 151.481967,36.0855655 145.027051,43.2381529 C144.330487,44.0100828 144.928905,45.2504736 145.527777,45.9434034 L148.528318,37.0353816 Z M94.7924825,37.3697241 C95.0933726,46.996192 88.2999438,39.436346 97.5315734,47.3063805 C98.0308456,47.7320724 97.7768474,53.9230391 97.7768474,54.8895632 L94.7924825,37.3697241 Z M105.237942,35.9107667 C102.048833,44.4656494 105.627163,40.4950368 106.325272,49.2980885 L106.730215,50.0437759 L105.237942,35.9107667 Z M112.531915,34.3815264 C109.031647,39.9907989 112.699127,41.274231 112.699127,48.9253356 L112.531915,34.3815264 Z M122.668759,33.246923 C122.668759,42.8116437 124.912758,37.7756207 119.286267,42.8335276 C118.141958,43.8623437 118.29472,48.2391253 118.29472,49.671023 L122.668759,33.246923 Z M11.2282642,76.8825276 C12.5157942,72.7597264 5.50235474,64.6179138 11.6015825,63.8678678 C15.7009949,63.3639023 24.2329708,52.8128621 34.0166715,50.821154 C40.6813292,49.4643517 30.4994102,44.7799241 46.2955522,46.7207816 C47.9696682,46.926454 58.0423544,44.5284862 64.9800942,44.825054 C74.3588518,45.2257747 121.440026,27.6819632 136.574592,33.9192402 C139.328132,35.0539345 149.591476,37.1539724 149.503599,37.2417805 C146.384555,40.3589207 176.415409,35.9444552 169.030288,39.1056356 C164.207776,41.1699874 182.108149,37.616531 182.897225,41.033508 C192.189923,44.2476276 195.439555,36.8500494 205.589576,45.9753667 C205.662459,46.0409276 209.459254,47.0357828 214.073842,50.821154 C219.026489,54.8839333 220.840826,43.5112023 235.529736,56.2849575 C237.747926,58.2136471 255.622309,59.5275897 256.388757,65.6678874 C256.467546,66.2995241 255.585505,66.6197011 255.205825,66.8179276 L11.2282642,76.8825276 Z M83.7038036,41.0654713 C86.7195208,47.2340092 87.3313883,45.4381667 87.3313883,53.3984609 L83.7038036,41.0654713 Z M54.367696,45.9109862 C56.6415022,48.7601621 56.3679657,48.5111759 56.3679657,52.2802931 L54.367696,45.9109862 Z M65.9322011,44.7768368 C66.2425423,47.9809678 76.0540511,53.9856034 76.5128836,54.1441483 L65.9322011,44.7768368 Z M16.8241303,60.4810379 C16.8241303,64.8380241 16.6799102,73.1548172 22.4199964,73.1548172 L16.8241303,60.4810379 Z M159.957873,38.1697126 C159.433609,39.1722862 158.173433,46.4775161 158.211601,48.5526736 L159.957873,38.1697126 Z M179.848974,88.251808 C185.765359,84.049008 186.340331,93.8159506 179.507735,89.2314989 L179.848974,88.251808 Z M189.361683,87.3197897 C198.903745,81.6925379 186.225373,82.4932529 203.756155,79.8966046 C207.462074,79.3478724 202.055776,73.5275701 218.273582,73.5275701 C218.273582,94.2648885 217.745684,88.0935356 205.557588,89.897369 C203.07822,90.2644011 206.508877,97.881908 191.381582,88.9385632 C191.360953,88.9264862 189.440291,87.2733885 189.361683,87.3197897 Z M156.129907,87.7759011 C153.196614,92.158131 166.374893,87.2186333 158.07138,87.0077851 C157.276488,86.9877172 156.583286,87.098408 156.129907,87.7759011 Z M162.826189,91.7246299 C154.702246,93.5637862 167.017114,94.7776621 163.999306,91.7591356 C163.765937,91.5254046 163.183241,91.6438138 162.826189,91.7246299 Z" id="Stroke-705" stroke="#151616" stroke-width="0.773371014" stroke-linejoin="round" mask="url(#mask-2)"></path>
            <path d="M170.776832,39.779769 C167.933688,48.884746 173.461761,40.8536241 166.045741,46.7846172 C164.74458,47.8249655 165.299741,52.8406483 165.299741,54.5168103" id="Stroke-706" stroke="#151616" stroke-width="0.515550362" mask="url(#mask-2)"></path>
            <path d="M183.206294,40.7246816 C183.621597,54.8331736 176.208849,40.496308 176.4912,51.034 C176.529822,52.4852391 175.65087,52.4846943 175.7452,53.7713954" id="Stroke-707" stroke="#151616" stroke-width="0.773371014" stroke-linejoin="round" mask="url(#mask-2)"></path>
            <path d="M239.1645,57.8717678 C233.211037,67.4068862 243.128689,63.4030391 229.806099,67.5633425 C227.690689,68.2238552 230.896246,78.960954 229.465041,80.9829 M196.636391,41.843031 C193.96582,50.1184172 196.250986,47.6818575 186.190659,51.1619437 C186.190659,54.307869 186.107416,56.0001943 185.071613,58.9899356 M203.351212,44.0795483 C199.150564,63.2959805 192.532525,46.7282276 192.532525,61.2264529 M212.558396,49.4877793 C210.569485,57.2854425 213.979331,52.8633494 209.565307,56.6257471 C209.164271,56.967808 209.828847,58.8764299 209.320123,60.8537908 M220.511583,50.7891908 C214.165354,55.8476425 217.646265,52.3968862 216.376093,62.7175552 C216.374548,62.7299046 216.781308,65.5968782 216.781308,65.6997598" id="Stroke-708" stroke="#151616" stroke-width="0.773371014" stroke-linejoin="round" mask="url(#mask-2)"></path>
            <path d="M-1.82824161,43.7068862 L6.3789438,38.8608264 L13.4670832,38.8608264 L19.4357223,33.6422862 L26.8969073,31.7785218 L35.4770474,32.8965989 L46.2957339,34.760454 L60.471831,34.0150391 L64.5754237,29.9146667 L67.1866522,28.0508115 L72.0365179,27.6781494 C72.0365179,27.6781494 73.9021095,31.7787943 75.7671558,29.5419138 C77.6322022,27.3051241 82.481977,23.9504391 82.481977,23.9504391 L90.6891624,21.3409874 C90.6891624,21.3409874 108.968761,21.7139218 111.207126,21.7139218 C113.4454,21.7139218 124.264086,21.3409874 124.264086,21.3409874 L128.367679,24.323192 C132.844317,25.8142943 136.574864,26.1870471 138.440183,26.1870471 C140.305411,26.1870471 142.543776,27.3051241 142.543776,27.3051241 L151.123916,28.0508115 L155.600554,25.4413598 C155.600554,25.4413598 163.061649,25.0686069 165.299922,25.0686069 C167.538287,25.0686069 177.6107,23.9504391 177.6107,23.9504391 L190.294706,25.0686069 L201.113211,32.5239368 L209.320396,33.6422862 C209.320396,33.6422862 206.709077,38.4880736 208.574396,38.4880736 C210.439624,38.4880736 214.169989,39.2337609 216.035217,39.6065138 C217.900536,39.9791759 227.226949,40.7246816 227.226949,40.7246816 L233.941861,43.7068862 L239.910773,43.3338609 C239.910773,43.3338609 239.537455,45.5706506 242.149047,46.3161563 C244.760639,47.0615713 245.879594,46.6888184 247.744913,48.1799207 C249.610232,49.671023 254.460097,51.907631 254.460097,51.907631" id="Stroke-709" stroke="#151616" stroke-width="0.773371014" stroke-linejoin="round" mask="url(#mask-2)"></path>
            <path d="M42.9379599,1.95756552 L44.803188,1.58481264 L37.3420938,13.1402425 L35.4767748,25.4413598 L36.5960934,34.760454 L52.6374186,36.9969713 L63.0828777,34.3877011 L70.5439719,27.3051241 L77.6319296,21.3409874 L80.243158,17.2406149 L79.4971577,9.41262299 L70.9170175,3.4483954 C70.9170175,3.4483954 66.8134248,2.3305 63.0828777,1.58481264 C59.3522398,0.839125287 57.1136934,0.839125287 53.7563737,0.839125287 C50.399054,0.839125287 42.9379599,1.95756552 42.9379599,1.95756552 Z" id="Stroke-710" stroke="#151616" stroke-width="1.28892138" stroke-linejoin="round" mask="url(#mask-2)"></path>
            <path d="M42.9379599,1.95756552 L44.803188,1.58481264 L37.3420938,13.1402425 L35.4767748,25.4413598 L36.5960934,34.760454 L52.6374186,36.9969713 L63.0828777,34.3877011 L70.5439719,27.3051241 L77.6319296,21.3409874 L80.243158,17.2406149 L79.4971577,9.41262299 L70.9170175,3.4483954 C70.9170175,3.4483954 66.8134248,2.3305 63.0828777,1.58481264 C59.3522398,0.839125287 57.1136934,0.839125287 53.7563737,0.839125287 C50.399054,0.839125287 42.9379599,1.95756552 42.9379599,1.95756552" id="Fill-711" fill="#FEFEFE" mask="url(#mask-2)"></path>
            <path d="M42.9379599,2.33022759 C44.7346675,6.29757126 53.7775478,20.8441954 57.8602391,18.8593885 C65.1354011,15.3230034 71.2274496,11.3533897 70.5439719,2.70298046" id="Stroke-712" stroke="#151616" stroke-width="0.773371014" stroke-linejoin="round" mask="url(#mask-2)"></path>
            <path d="M57.8442449,19.0562529 C64.5661544,30.4132747 52.6374186,33.3339138 52.6374186,37.3697241" id="Stroke-713" stroke="#151616" stroke-width="0.773371014" stroke-linejoin="round" mask="url(#mask-2)"></path>
            <path d="M79.8704759,8.29445517 C81.735704,8.29445517 101.134622,3.82132989 105.61126,2.33022759 C110.087807,0.839125287 114.191673,-1.39711954 115.683673,1.95756552 C117.175674,5.31225057 119.787266,7.17601494 124.636859,9.03987011 C129.486452,10.9037253 138.812956,14.6313448 138.812956,14.6313448 L144.781777,19.1044701 L138.066865,26.5597092" id="Stroke-714" stroke="#151616" stroke-width="0.773371014" stroke-linejoin="round" mask="url(#mask-2)"></path>
            <path d="M78.7511573,18.7317172 C78.7511573,18.7317172 94.7924825,14.2584103 100.388349,13.1402425 C105.984215,12.0220747 111.206853,12.0220747 111.206853,12.0220747 L129.85977,17.2406149 L138.439911,18.7317172" id="Stroke-715" stroke="#151616" stroke-width="0.773371014" stroke-linejoin="round" mask="url(#mask-2)"></path>
            <polyline id="Stroke-716" stroke="#151616" stroke-width="0.773371014" stroke-linejoin="round" mask="url(#mask-2)" points="111.206853 12.0220747 112.326081 5.68518506 113.072172 0.839125287"></polyline>
            <path d="M138.066865,14.6313448 C138.066865,14.6313448 148.139097,8.29445517 151.123643,6.80335287 C154.10819,5.31225057 160.823102,3.07546092 163.061376,5.31225057 C165.299741,7.54904023 169.403333,11.2763874 169.403333,11.2763874 C169.403333,11.2763874 171.64188,9.78528506 174.253108,9.41262299 C176.864427,9.03987011 177.6107,9.78555747 178.356701,12.0220747 C179.102701,14.2586828 181.71402,16.1221747 183.579339,16.8678621 C185.444658,17.6135494 187.682932,17.6135494 189.54816,15.7497851 C191.413479,13.8859299 191.413479,13.5129954 193.278798,13.1402425 C195.144117,12.7674897 202.978257,17.6135494 204.843485,17.6135494 C206.708804,17.6135494 216.408263,17.6135494 216.408263,17.6135494 L228.719041,5.68518506 C228.719041,5.68518506 231.703315,5.31225057 232.822634,8.66720805 C233.941861,12.0220747 235.060635,18.7319897 237.672227,22.0866747 C240.283728,25.4413598 242.895047,26.9321897 244.760366,27.3051241 C246.625594,27.6781494 249.236914,28.4235644 249.236914,28.4235644 L263.785965,32.8965989" id="Stroke-717" stroke="#151616" stroke-width="0.773371014" stroke-linejoin="round" mask="url(#mask-2)"></path>
            <path d="M169.403333,10.9037253 C166.770113,15.3536046 162.315376,18.5765322 162.315376,23.577777" id="Stroke-718" stroke="#151616" stroke-width="0.773371014" stroke-linejoin="round" mask="url(#mask-2)"></path>
            <path d="M179.475747,13.1402425 C179.315805,17.7719126 183.631411,18.4678391 182.087339,21.7139218" id="Stroke-719" stroke="#151616" stroke-width="0.773371014" stroke-linejoin="round" mask="url(#mask-2)"></path>
            <path d="M194.398026,27.3051241 C196.394206,22.0053138 206.207805,24.1541138 214.265772,19.5731126 C215.663535,18.7785724 216.269404,19.4506172 217.527309,17.6135494" id="Stroke-720" stroke="#151616" stroke-width="0.773371014" stroke-linejoin="round" mask="url(#mask-2)"></path>
            <path d="M214.915989,38.8608264 C220.306294,32.1089598 225.671881,28.9553161 214.542944,21.3409874" id="Stroke-721" stroke="#151616" stroke-width="0.773371014" stroke-linejoin="round" mask="url(#mask-2)"></path>
            <path d="M235.806908,19.1044701 C230.748118,31.4781402 236.993384,24.9730805 225.702506,27.2732517 C225.618536,27.2902322 221.41498,29.0884356 221.257856,29.5419138" id="Stroke-722" stroke="#151616" stroke-width="0.773371014" stroke-linejoin="round" mask="url(#mask-2)"></path>
            <path d="M232.449588,26.9324621 C249.634132,38.7519517 230.879525,35.6979207 257.007168,38.0834483 C258.70273,38.2381793 258.617216,38.2227425 259.309418,39.6065138" id="Stroke-723" stroke="#151616" stroke-width="0.773371014" stroke-linejoin="round" mask="url(#mask-2)"></path>
            <path d="M167.911242,29.9146667 C165.75721,29.9146667 163.958139,30.2874195 162.688421,30.2874195" id="Stroke-724" stroke="#151616" stroke-width="0.773371014" stroke-linejoin="round" mask="url(#mask-2)"></path>
            <path d="M175.745472,31.0328345 C176.864427,31.0328345 177.983746,31.0328345 179.102701,31.0328345" id="Stroke-725" stroke="#151616" stroke-width="0.773371014" stroke-linejoin="round" mask="url(#mask-2)"></path>
            <path d="M174.999199,34.0150391 C175.914411,34.5852011 176.228659,35.0232425 177.237473,34.3877011" id="Stroke-726" stroke="#151616" stroke-width="0.773371014" stroke-linejoin="round" mask="url(#mask-2)"></path>
            <path d="" id="Stroke-727" stroke="#151616" stroke-width="0.773371014" stroke-linejoin="round" mask="url(#mask-2)"></path>
            <path d="" id="Stroke-728" stroke="#151616" stroke-width="0.773371014" stroke-linejoin="round" mask="url(#mask-2)"></path>
            <path d="M43.6842328,39.6065138 C39.4674996,38.7550391 39.2127745,41.9346529 32.1194551,38.5519092 C31.5802883,38.2948414 26.6992522,40.3756287 25.6495445,40.6288828 C22.6554558,41.3508701 23.8510193,40.8154862 20.927723,42.2157839" id="Stroke-729" stroke="#151616" stroke-width="0.773371014" stroke-linejoin="round" mask="url(#mask-2)"></path>
            <path d="M60.8445131,38.8608264 C62.9162113,38.9215747 68.3250547,36.6243092 72.0363361,36.6243092" id="Stroke-730" stroke="#151616" stroke-width="0.773371014" stroke-linejoin="round" mask="url(#mask-2)"></path>
            <path d="M124.706652,60.0156644 L123.18448,64.5780506 L121.358147,66.7072368 L137.795873,107.46479 L141.144196,104.727394 C141.144196,104.727394 139.317772,95.9065448 139.317772,91.3441586 C139.317772,86.7817724 139.318045,82.5234 135.96954,77.3528046 C132.620944,72.1821184 124.706652,60.0156644 124.706652,60.0156644 Z" id="Stroke-731" stroke="#151616" stroke-width="1.93342754" mask="url(#mask-2)"></path>
            <path d="M124.706652,60.0156644 L123.18448,64.5780506 L121.358147,66.7072368 L137.795873,107.46479 L141.144196,104.727394 C141.144196,104.727394 139.317772,95.9065448 139.317772,91.3441586 C139.317772,86.7817724 139.318045,82.5234 135.96954,77.3528046 C132.620944,72.1821184 124.706652,60.0156644 124.706652,60.0156644" id="Fill-732" fill="#FEFEFE" mask="url(#mask-2)"></path>
        </g>
    </g>
</svg>