<?xml version="1.0" encoding="UTF-8"?>
<svg width="250px" height="180px" viewBox="0 0 250 180" version="1.1" xmlns="http://www.w3.org/2000/svg" xmlns:xlink="http://www.w3.org/1999/xlink">
    <!-- Generator: Sketch 51.2 (57519) - http://www.bohemiancoding.com/sketch -->
    <title>2</title>
    <desc>Created with Sketch.</desc>
    <defs>
        <polyline id="path-1" points="0.767265328 178.939213 248.569884 178.939213 248.569884 0.320746193 0.767265328 0.320746193"></polyline>
    </defs>
    <g id="2" stroke="none" stroke-width="1" fill="none" fill-rule="evenodd">
        <g id="Group-2178">
            <path d="M161.636186,65.4239685 L162.655284,65.4239685 C163.029095,65.4239685 163.334629,65.7294042 163.334629,66.1031644 L163.334629,67.3049949 C163.334629,67.6786734 163.029095,67.9841909 162.655284,67.9841909 L161.636186,67.9841909 C161.262498,67.9841909 160.956964,67.6786734 160.956964,67.3049949 L160.956964,66.1031644 C160.956964,65.7294042 161.262498,65.4239685 161.636186,65.4239685 Z" id="Stroke-2042" stroke="#151616" stroke-width="4.31301667"></path>
            <mask id="mask-2" fill="white">
                <use xlink:href="#path-1"></use>
            </mask>
            <g id="Clip-2045"></g>
            <path d="M161.633624,65.4239548 L162.652707,65.4239548 C163.02648,65.4239548 163.332004,65.729436 163.332004,66.1031553 L163.332004,67.3049086 C163.332004,67.6786279 163.02648,67.9841091 162.652707,67.9841091 L161.633624,67.9841091 C161.259852,67.9841091 160.954327,67.6786279 160.954327,67.3049086 L160.954327,66.1031553 C160.954327,65.729436 161.259852,65.4239548 161.633624,65.4239548" id="Fill-2044" fill="#FEFEFE" mask="url(#mask-2)"></path>
            <path d="M152.17535,93.9751817 C154.833016,94.3069223 156.930614,98.2224792 156.930614,103.004142 C156.930614,115.533596 142.481526,116.619227 142.481526,103.004142 C142.481526,93.9077614 145.53432,93.7691954 152.17535,93.7691954 L152.17535,93.9751817 Z" id="Stroke-2046" stroke="#151616" stroke-width="1.93342754" mask="url(#mask-2)"></path>
            <path d="M152.17535,93.9751817 C154.833016,94.3069223 156.930614,98.2224792 156.930614,103.004142 C156.930614,115.533596 142.481526,116.619227 142.481526,103.004142 C142.481526,93.9077614 145.53432,93.7691954 152.17535,93.7691954 L152.17535,93.9751817 Z" id="Fill-2047" fill="#FEFEFE" mask="url(#mask-2)"></path>
            <path d="M147.877011,99.2553183 C149.341658,99.2553183 150.528951,101.138362 150.528951,103.461273 C150.528951,105.784275 149.341658,107.667319 147.877011,107.667319 C146.412273,107.667319 145.224979,105.784275 145.224979,103.461273 C145.224979,101.138362 146.412273,99.2553183 147.877011,99.2553183 Z" id="Stroke-2048" stroke="#151616" stroke-width="1.93342754" mask="url(#mask-2)"></path>
            <path d="M147.877011,99.2553183 C149.341658,99.2553183 150.528951,101.138362 150.528951,103.461273 C150.528951,105.784275 149.341658,107.667319 147.877011,107.667319 C146.412273,107.667319 145.224979,105.784275 145.224979,103.461273 C145.224979,101.138362 146.412273,99.2553183 147.877011,99.2553183" id="Fill-2049" fill="#FEFEFE" mask="url(#mask-2)"></path>
            <path d="M92.4561536,67.1233645 C92.4561536,67.1233645 85.1729945,73.1915553 82.7454263,82.5975964 C80.3177672,92.0035467 77.890108,105.267356 77.890108,105.267356" id="Stroke-2050" stroke="#151616" stroke-width="0.773371014" stroke-linejoin="round" mask="url(#mask-2)"></path>
            <path d="M119.464111,70.1574599 C119.464111,70.1574599 128.264262,63.7858777 137.97508,64.9994431 C147.685808,66.2130995 158.003495,69.2474675 163.465683,71.3713888 C168.92787,73.4952193 192.294067,85.0250909 200.487621,86.2387472 C208.681084,87.4524036 248.737823,85.6319645 248.737823,85.6319645" id="Stroke-2051" stroke="#151616" stroke-width="0.773371014" mask="url(#mask-2)"></path>
            <path d="M-7.68546679,40.4227431 C-7.68546679,40.4227431 10.2183602,53.7733264 27.5157723,57.7175959 C44.8130934,61.6619563 61.5036361,60.7517822 73.64175,62.5722213 C85.7799547,64.3926604 115.902775,82.4005147 115.902775,82.4005147" id="Stroke-2052" stroke="#151616" stroke-width="0.773371014" stroke-linejoin="round" mask="url(#mask-2)"></path>
            <path d="M-5.56124234,54.9867102 C-5.56124234,54.9867102 6.57714416,64.9992614 24.4811529,68.6404122 C42.3852526,72.2815629 60.2892613,68.943531 69.6966449,70.1574599 C79.1039376,71.3713888 89.4216252,75.012267 93.9734179,77.7429711 C98.5253015,80.4736751 102.166972,81.6873315 102.166972,81.6873315" id="Stroke-2053" stroke="#151616" stroke-width="0.773371014" stroke-linejoin="round" mask="url(#mask-2)"></path>
            <path d="M-5.56124234,73.1918279 C-5.56124234,73.1918279 10.8257748,82.5973239 29.9436131,83.8111619 C49.0614515,85.0250909 58.7725423,82.2941142 72.4279204,82.9009878 C86.0833894,83.5077706 108.715945,92.0738746 108.715945,92.0738746" id="Stroke-2054" stroke="#151616" stroke-width="0.773371014" stroke-linejoin="round" mask="url(#mask-2)"></path>
            <path d="M-5.25780766,88.6660599 C-5.25780766,88.6660599 9.9151073,95.9479071 24.1777182,97.1615635 C38.4403292,98.3752198 52.3995055,94.7342508 62.4137584,95.0376421 C72.4279204,95.3410335 92.1200036,101.956128 92.1200036,101.956128" id="Stroke-2055" stroke="#151616" stroke-width="0.773371014" stroke-linejoin="round" mask="url(#mask-2)"></path>
            <path d="M-5.56124234,102.926636 C-5.56124234,102.926636 12.0393318,108.994826 26.6053774,109.601609 C41.171423,110.208483 53.3999584,109.410797 53.3999584,109.410797" id="Stroke-2056" stroke="#151616" stroke-width="0.773371014" stroke-linejoin="round" mask="url(#mask-2)"></path>
            <path d="M5.66674927,48.9184284 C5.66674927,48.9184284 2.02535146,50.1320848 2.02535146,66.8199731 C2.02535146,83.5077706 3.84605036,91.6998827 2.32878613,99.2853939 C0.811521898,106.870905 -1.00917701,112.635705 -1.00917701,112.635705" id="Stroke-2057" stroke="#151616" stroke-width="0.773371014" stroke-linejoin="round" mask="url(#mask-2)"></path>
            <path d="M19.9293602,54.6832279 C19.9293602,54.6832279 14.4671726,58.0212599 14.7706982,71.3713888 C15.0741328,84.7214269 16.5916697,92.610602 14.7706982,101.106106 C12.9497266,109.601609 10.3574912,115.60983 10.3574912,115.60983" id="Stroke-2058" stroke="#151616" stroke-width="0.773371014" stroke-linejoin="round" mask="url(#mask-2)"></path>
            <path d="M32.9781416,58.3244695 C32.9781416,58.3244695 28.7297836,61.9656203 29.0333091,71.0679975 C29.3367438,80.1702838 27.8192069,86.8453482 26.6053774,93.8239858 C25.3915478,100.802714 21.8887358,115.081008 21.8887358,115.081008" id="Stroke-2059" stroke="#151616" stroke-width="0.773371014" stroke-linejoin="round" mask="url(#mask-2)"></path>
            <path d="M44.5096588,61.358565 C44.5096588,61.358565 41.171423,65.9099807 40.5645536,74.4054843 C39.9575934,82.9009878 39.6541588,90.182835 39.6541588,95.3410335 C39.6541588,100.499323 38.7437639,113.01742 38.7437639,113.01742" id="Stroke-2060" stroke="#151616" stroke-width="0.773371014" stroke-linejoin="round" mask="url(#mask-2)"></path>
            <path d="M59.6826646,61.6619563 C59.6826646,61.6619563 53.3098095,74.4052117 52.7029401,84.4180355 C52.0960708,94.4308594 52.3995055,109.525103 52.3995055,109.525103" id="Stroke-2061" stroke="#151616" stroke-width="0.773371014" stroke-linejoin="round" mask="url(#mask-2)"></path>
            <path d="M76.6762785,62.8756127 C76.6762785,62.8756127 70.0000796,70.1574599 68.4828153,81.3839401 C66.9655511,92.6103294 66.8266927,106.507272 66.8266927,106.507272" id="Stroke-2062" stroke="#151616" stroke-width="0.773371014" stroke-linejoin="round" mask="url(#mask-2)"></path>
            <path d="M80.0143325,69.2470132 C80.0143325,69.2470132 79.4076449,66.8197005 73.3383153,67.4264832 C67.2689858,68.0333569 66.3588635,67.4264832 61.8067982,67.7299655 C57.2547328,68.0333569 54.8270737,67.4264832 51.4891106,67.4264832 C48.1511474,67.4264832 45.7232157,68.9438036 42.3852526,70.1574599 C39.0472894,71.3711162 33.2815763,72.2813812 32.0678376,75.9222594 C30.854008,79.5632284 27.2125193,83.2043792 32.9781416,86.2384746 C38.7437639,89.2725701 41.778565,88.0589137 45.7234883,89.5760523 C49.6684117,91.0931 49.3647044,95.0371878 53.9167697,97.4646822 C58.468835,99.8922675 66.9658237,99.2851213 74.8555796,98.6783386 C82.7454263,98.071465 83.0485883,97.4646822 85.1729945,95.6442431 C87.2974916,93.8238041 86.9939661,94.1271954 90.9388894,93.5203218 C94.8838128,92.9135391 97.9180686,92.3066655 99.7390401,89.8794437 C101.560103,87.452131 103.987943,84.1143716 101.863537,80.1700112 C99.7390401,76.2256508 99.7390401,72.888164 94.2769434,73.1915553 C88.8147558,73.4949467 85.1729945,72.888164 83.3522956,71.977899 C81.5315967,71.0677249 79.7108978,69.2470132 80.0143325,69.2470132 Z" id="Stroke-2063" stroke="#151616" stroke-width="1.28892138" stroke-linejoin="round" mask="url(#mask-2)"></path>
            <path d="M80.0143325,69.2470132 C80.0143325,69.2470132 79.4076449,66.8197005 73.3383153,67.4264832 C67.2689858,68.0333569 66.3588635,67.4264832 61.8067982,67.7299655 C57.2547328,68.0333569 54.8270737,67.4264832 51.4891106,67.4264832 C48.1511474,67.4264832 45.7232157,68.9438036 42.3852526,70.1574599 C39.0472894,71.3711162 33.2815763,72.2813812 32.0678376,75.9222594 C30.854008,79.5632284 27.2125193,83.2043792 32.9781416,86.2384746 C38.7437639,89.2725701 41.778565,88.0589137 45.7234883,89.5760523 C49.6684117,91.0931 49.3647044,95.0371878 53.9167697,97.4646822 C58.468835,99.8922675 66.9658237,99.2851213 74.8555796,98.6783386 C82.7454263,98.071465 83.0485883,97.4646822 85.1729945,95.6442431 C87.2974916,93.8238041 86.9939661,94.1271954 90.9388894,93.5203218 C94.8838128,92.9135391 97.9180686,92.3066655 99.7390401,89.8794437 C101.560103,87.452131 103.987943,84.1143716 101.863537,80.1700112 C99.7390401,76.2256508 99.7390401,72.888164 94.2769434,73.1915553 C88.8147558,73.4949467 85.1729945,72.888164 83.3522956,71.977899 C81.5315967,71.0677249 79.7108978,69.2470132 80.0143325,69.2470132" id="Fill-2064" fill="#FEFEFE" mask="url(#mask-2)"></path>
            <path d="M78.5565948,71.7429356 C78.5565948,71.7429356 78.0140243,69.7465028 72.5879452,70.2456484 C67.1620156,70.7446445 66.3481971,70.2456484 62.2787312,70.4952212 C58.2090411,70.7446445 56.0388337,70.2456484 53.0548079,70.2456484 C50.0703336,70.2456484 47.8999019,71.4938112 44.9156518,72.4919529 C41.9314018,73.4903187 36.7769443,74.2392613 35.6919527,77.2343588 C34.6065127,80.2291574 31.3510147,83.2247034 36.5055469,85.7205806 C41.6602286,88.2164579 44.3732308,87.2178678 47.9001262,88.4660306 C51.4269468,89.7139693 51.1553251,92.9581911 55.2250153,94.9553713 C59.2947054,96.9522524 66.8910666,96.4528827 73.9445584,95.9537371 C80.9980501,95.4545168 81.2690738,94.9553713 83.1684817,93.4576356 C85.0677402,91.9602737 84.7965671,92.2098465 88.3229392,91.7107009 C91.8498346,91.2115554 94.5626873,90.7123351 96.1906979,88.7156034 C97.818559,86.7187222 99.9889906,83.9732722 98.0897321,80.7286019 C96.1906979,77.4839316 96.1906979,74.7384816 91.3074135,74.9880543 C86.4243534,75.2376271 83.1684817,74.7384816 81.5406954,73.9896885 C79.9128343,73.2407459 78.2849732,71.7429356 78.5565948,71.7429356 Z" id="Stroke-2065" stroke="#151616" stroke-width="1.56684022" stroke-linejoin="round" mask="url(#mask-2)"></path>
            <path d="M78.5557741,71.7352949 C78.5557741,71.7352949 78.0132449,69.7386726 72.587135,70.2378736 C67.1612978,70.7369838 66.347504,70.2378736 62.2779898,70.4873832 C58.2083847,70.7369838 56.0380861,70.2378736 53.0540847,70.2378736 C50.0697197,70.2378736 47.8991485,71.485967 44.9148745,72.4842782 C41.930873,73.4825893 36.7762095,74.2316635 35.691242,77.226597 C34.6059109,80.2215305 31.3503723,83.2170091 36.5049449,85.7128325 C41.6596084,88.2088376 44.3726179,87.2102538 47.8994212,88.4584381 C51.4262245,89.7063497 51.1547781,92.9506112 55.2242923,94.9477787 C59.2938974,96.9446736 66.8903058,96.4452909 73.9436398,95.9460898 C80.9973372,95.4468888 81.2683292,94.9477787 83.1676358,93.4499939 C85.0668515,91.9525726 84.7956777,92.2021731 88.3222084,91.7029721 C91.8490117,91.2037711 94.5618394,90.7046609 96.1898814,88.7080386 C97.8176507,86.7111437 99.988131,83.9654472 98.0889153,80.7209132 C96.1898814,77.4761975 96.1898814,74.7307736 91.3064825,74.9803741 C86.4234471,75.2299746 83.1676358,74.7307736 81.5398664,73.9820629 C79.9120062,73.2330797 78.2842369,71.7352949 78.5557741,71.7352949" id="Fill-2066" fill="#FEFEFE" mask="url(#mask-2)"></path>
            <path d="M-6.47163723,137.515887 C-6.47163723,137.515887 66.6621164,129.020202 97.6149066,126.289497 C128.567697,123.558793 153.451703,122.951738 163.162248,126.592889 C172.872794,130.23404 182.583794,135.392056 191.383945,136.302321 C200.184186,137.212495 220.515854,137.819369 227.799013,137.212495 C235.082172,136.605713 248.130954,131.751087 248.130954,131.751087" id="Stroke-2067" stroke="#151616" stroke-width="0.773371014" stroke-linejoin="round" mask="url(#mask-2)"></path>
            <path d="M-6.26943832,143.331206 C-6.26943832,143.331206 17.0589536,141.055362 38.3010164,139.456447 C50.3129036,138.884374 60.4000391,137.381501 71.3591288,136.043725 C82.3185821,134.706132 94.4538788,133.634404 104.240397,133.166732 C120.475469,132.129986 134.232356,131.535833 144.916637,131.858306 C155.6011,132.180506 162.75785,133.014991 168.068275,134.532039 C177.424586,137.566407 188.956376,141.409546 197.352129,142.269291 C205.747519,143.128763 222.033118,143.93808 229.063551,143.432155 C236.093712,142.926593 248.130954,138.729271 248.130954,138.729271" id="Stroke-2068" stroke="#151616" stroke-width="0.773371014" stroke-linejoin="round" mask="url(#mask-2)"></path>
            <path d="M-6.06696679,149.146525 C-6.06696679,149.146525 22.3063106,146.71894 42.6379785,145.985949 C55.5857058,146.074268 63.7159193,144.386488 74.425373,142.89152 C85.1349175,141.396643 99.030935,140.296838 110.865887,140.043966 C127.859592,139.335872 141.414279,138.98196 151.478968,139.664795 C161.543748,140.347358 167.208407,141.257532 172.97403,142.471188 C181.976652,144.898774 195.328868,147.427035 203.31995,148.235988 C211.310942,149.045304 223.550655,150.056699 230.327817,149.652087 C237.10507,149.247474 248.130954,145.707726 248.130954,145.707726" id="Stroke-2069" stroke="#151616" stroke-width="0.773371014" stroke-linejoin="round" mask="url(#mask-2)"></path>
            <path d="M-5.86467701,154.962026 C-5.86467701,154.962026 27.5538493,152.382791 46.9752131,152.515723 C60.8583263,153.264979 67.0319814,151.392203 77.4918898,149.739951 C87.9515255,148.087881 103.608264,146.959545 117.49165,146.921383 C135.243986,146.542303 148.596203,146.428451 158.041391,147.471558 C167.486578,148.514483 171.659237,149.500618 177.880057,150.410883 C186.528445,152.231322 201.701723,153.444706 209.288044,154.203503 C216.874638,154.962026 225.067919,156.175683 231.592446,155.872291 C238.116701,155.5689 248.130954,152.686455 248.130954,152.686455" id="Stroke-2070" stroke="#151616" stroke-width="0.773371014" stroke-linejoin="round" mask="url(#mask-2)"></path>
            <path d="M-5.6624781,160.7778 C-5.6624781,160.7778 32.8012062,158.046914 51.3121752,159.04568 C66.1309467,160.4556 70.3480434,158.397918 80.5581339,156.588564 C90.7681336,154.77921 108.185593,153.622161 124.11714,153.799162 C142.628109,153.748643 155.778126,153.874851 164.60354,155.27832 C173.429227,156.681789 176.110066,157.743705 182.785993,158.350578 C191.080237,159.564235 208.074215,159.462741 215.256138,160.171017 C222.438061,160.879112 226.585184,162.294939 232.856712,162.092678 C239.128241,161.890508 248.130954,159.665456 248.130954,159.665456" id="Stroke-2071" stroke="#151616" stroke-width="0.773371014" stroke-linejoin="round" mask="url(#mask-2)"></path>
            <path d="M-5.46000657,166.593119 C-5.46000657,166.593119 38.0485631,163.71022 55.6491372,165.575273 C71.4037489,167.645494 73.6639237,165.402906 83.6242872,163.43645 C93.584469,161.46963 112.762649,160.284596 130.74263,160.676397 C150.012231,160.954528 162.960049,161.32107 171.165872,163.08481 C179.372057,164.848369 180.560623,165.986337 187.691747,166.289728 C195.632303,166.896511 214.446706,165.48023 221.223959,166.137714 C228.001485,166.795289 228.10272,168.413558 234.12125,168.312337 C240.139599,168.211388 248.130954,166.643639 248.130954,166.643639" id="Stroke-2072" stroke="#151616" stroke-width="0.773371014" stroke-linejoin="round" mask="url(#mask-2)"></path>
            <path d="M-5.25780766,172.408893 C-5.25780766,172.408893 43.2958292,169.374343 59.9860993,172.105229 C76.6762785,174.836206 76.9799858,172.408711 86.6905314,170.28479 C96.401077,168.160959 117.339887,166.947303 137.36812,167.554086 C157.396353,168.160959 170.141973,168.76747 177.728294,170.891663 C185.314615,173.015766 185.011453,174.229423 192.597774,174.229423 C200.184186,174.229423 220.819289,171.498174 227.192053,172.105229 C233.564817,172.712375 229.619985,174.532814 235.385607,174.532814 C241.151229,174.532814 248.130954,173.622549 248.130954,173.622549" id="Stroke-2073" stroke="#151616" stroke-width="0.773371014" stroke-linejoin="round" mask="url(#mask-2)"></path>
            <path d="M147.053947,68.5327396 C147.053947,68.5327396 145.773688,67.9841091 144.859203,69.2642772 C143.944719,70.5443543 143.213077,71.0929848 143.39601,72.0073386 C143.578943,72.9216924 143.39601,74.3845858 143.39601,75.2989396 C143.39601,76.2132934 142.298593,80.0536157 142.298593,80.0536157 L141.018333,80.6022462 C141.018333,80.6022462 140.835491,84.0764817 140.835491,85.9054619 C140.835491,87.7344421 140.652557,88.4658888 140.652557,89.5631497 C140.652557,90.6603198 141.018333,92.8548416 141.018333,92.8548416 L142.11575,93.9520117 L143.944719,92.6719345 C143.944719,92.6719345 143.578943,89.9288731 145.773688,89.1974264 C147.968432,88.4658888 148.517141,87.3687188 148.517141,87.3687188 L150.529224,87.0029046 L150.895,76.0304772 L150.712157,70.7271706 L147.968432,70.178631 C147.968432,70.178631 146.871014,68.5327396 147.053947,68.5327396 Z" id="Stroke-2074" stroke="#151616" stroke-width="1.28892138" mask="url(#mask-2)"></path>
            <path d="M147.053947,68.5327396 C147.053947,68.5327396 145.773688,67.9841091 144.859203,69.2642772 C143.944719,70.5443543 143.213077,71.0929848 143.39601,72.0073386 C143.578943,72.9216924 143.39601,74.3845858 143.39601,75.2989396 C143.39601,76.2132934 142.298593,80.0536157 142.298593,80.0536157 L141.018333,80.6022462 C141.018333,80.6022462 140.835491,84.0764817 140.835491,85.9054619 C140.835491,87.7344421 140.652557,88.4658888 140.652557,89.5631497 C140.652557,90.6603198 141.018333,92.8548416 141.018333,92.8548416 L142.11575,93.9520117 L143.944719,92.6719345 C143.944719,92.6719345 143.578943,89.9288731 145.773688,89.1974264 C147.968432,88.4658888 148.517141,87.3687188 148.517141,87.3687188 L150.529224,87.0029046 L150.895,76.0304772 L150.712157,70.7271706 L147.968432,70.178631 C147.968432,70.178631 146.871014,68.5327396 147.053947,68.5327396" id="Fill-2075" fill="#FEFEFE" mask="url(#mask-2)"></path>
            <path d="M150.529224,75.8475701 C150.529224,75.8475701 150.711885,76.944831 148.517141,78.042001 C146.322396,79.1392619 146.322396,79.3220782 144.859203,79.5049853 C143.39601,79.6878924 141.384108,80.236432 141.384108,80.236432" id="Stroke-2076" stroke="#151616" stroke-width="0.773371014" mask="url(#mask-2)"></path>
            <path d="M143.213077,71.275801 C143.213077,71.275801 145.773688,71.8244315 146.871014,71.4587081 C147.968432,71.0929848 150.895,70.7271706 150.895,70.7271706" id="Stroke-2077" stroke="#151616" stroke-width="0.773371014" mask="url(#mask-2)"></path>
            <path d="M147.419723,68.1670162 C147.419723,68.1670162 148.33448,66.704032 150.712157,66.8869391 C153.089835,67.0697553 172.842623,67.4355695 172.842623,67.4355695 C172.842623,67.4355695 178.146868,67.9841091 179.061353,69.0813701 C179.975837,70.178631 180.524546,71.8244315 179.610061,71.6415244 C178.695577,71.4587081 177.342435,71.5689249 176.027642,72.0577675 C174.712849,72.5466102 175.52428,73.2312624 175.52428,73.2312624 L170.490482,72.9342315 L164.795197,73.470232 L164.246489,84.0767543 C164.246489,84.0767543 160.954327,84.0767543 158.210874,84.6253848 C155.467421,85.1740152 154.918803,85.3568315 154.004319,85.5397386 C153.089835,85.7225548 150.163449,86.6369086 150.163449,86.6369086 L150.712157,71.6415244 L147.419723,70.3614472 C147.419723,70.3614472 147.053947,68.1670162 147.419723,68.1670162 Z" id="Stroke-2078" stroke="#151616" stroke-width="1.93342754" mask="url(#mask-2)"></path>
            <path d="M147.419723,68.1670162 C147.419723,68.1670162 148.33448,66.704032 150.712157,66.8869391 C153.089835,67.0697553 172.842623,67.4355695 172.842623,67.4355695 C172.842623,67.4355695 178.146868,67.9841091 179.061353,69.0813701 C179.975837,70.178631 180.524546,71.8244315 179.610061,71.6415244 C178.695577,71.4587081 177.342435,71.5689249 176.027642,72.0577675 C174.712849,72.5466102 175.52428,73.2312624 175.52428,73.2312624 L170.490482,72.9342315 L164.795197,73.470232 L164.246489,84.0767543 C164.246489,84.0767543 160.954327,84.0767543 158.210874,84.6253848 C155.467421,85.1740152 154.918803,85.3568315 154.004319,85.5397386 C153.089835,85.7225548 150.163449,86.6369086 150.163449,86.6369086 L150.712157,71.6415244 L147.419723,70.3614472 C147.419723,70.3614472 147.053947,68.1670162 147.419723,68.1670162" id="Fill-2079" fill="#FEFEFE" mask="url(#mask-2)"></path>
            <path d="M153.45561,71.275801 L159.125358,71.275801 C159.728956,71.275801 160.222776,71.7695503 160.222776,72.3730619 L160.222776,75.1161234 C160.222776,75.7195442 159.728956,76.2132934 159.125358,76.2132934 L153.45561,76.2132934 C152.852012,76.2132934 152.358193,75.7195442 152.358193,75.1161234 L152.358193,72.3730619 C152.358193,71.7695503 152.852012,71.275801 153.45561,71.275801 Z" id="Stroke-2080" stroke="#151616" stroke-width="1.93342754" mask="url(#mask-2)"></path>
            <path d="M153.45561,71.275801 L159.125358,71.275801 C159.728956,71.275801 160.222776,71.7695503 160.222776,72.3730619 L160.222776,75.1161234 C160.222776,75.7195442 159.728956,76.2132934 159.125358,76.2132934 L153.45561,76.2132934 C152.852012,76.2132934 152.358193,75.7195442 152.358193,75.1161234 L152.358193,72.3730619 C152.358193,71.7695503 152.852012,71.275801 153.45561,71.275801" id="Fill-2081" fill="#FEFEFE" mask="url(#mask-2)"></path>
            <path d="M146.871014,87.7344421 C146.871014,87.7344421 149.066031,86.8200883 151.992417,87.0029046 C154.918803,87.1858117 156.747681,87.0029046 157.479323,88.1001655 C158.210874,89.1974264 158.942516,90.8432269 158.942516,90.8432269 L164.246489,102.181196 L163.149071,105.838611 L153.45561,105.472888 C153.45561,105.472888 150.712157,104.558534 150.895,101.815473 C151.077933,99.0724112 150.529224,96.5122569 150.529224,95.0492726 C150.529224,93.5862883 149.065849,91.2089503 148.882916,90.1117802 C148.699983,89.0145193 147.053947,87.7344421 146.871014,87.7344421 Z" id="Stroke-2082" stroke="#151616" stroke-width="1.28892138" mask="url(#mask-2)"></path>
            <path d="M146.871014,87.7344421 C146.871014,87.7344421 149.066031,86.8200883 151.992417,87.0029046 C154.918803,87.1858117 156.747681,87.0029046 157.479323,88.1001655 C158.210874,89.1974264 158.942516,90.8432269 158.942516,90.8432269 L164.246489,102.181196 L163.149071,105.838611 L153.45561,105.472888 C153.45561,105.472888 150.712157,104.558534 150.895,101.815473 C151.077933,99.0724112 150.529224,96.5122569 150.529224,95.0492726 C150.529224,93.5862883 149.065849,91.2089503 148.882916,90.1117802 C148.699983,89.0145193 147.053947,87.7344421 146.871014,87.7344421" id="Fill-2083" fill="#FEFEFE" mask="url(#mask-2)"></path>
            <path d="M150.712157,89.9288731 L156.564839,89.9288731" id="Stroke-2084" stroke="#151616" stroke-width="0.773371014" mask="url(#mask-2)"></path>
            <path d="M157.845099,88.6487959 C157.845099,88.6487959 171.37943,89.5631497 173.208399,89.9288731 C175.037367,90.2945964 181.987739,91.5746736 181.987739,91.5746736 L184.914034,96.1464426 L179.792995,95.7807193 L174.854525,93.9520117 C174.854525,93.9520117 166.624166,92.4890274 164.795197,92.1233041 C162.966229,91.7575807 158.734592,92.1235766 159.308292,92.1233041 C159.881991,92.1230315 158.04239,89.0145193 157.845099,88.6487959 Z" id="Stroke-2085" stroke="#151616" stroke-width="0.773371014" mask="url(#mask-2)"></path>
            <polygon id="Stroke-2086" stroke="#151616" stroke-width="1.93342754" mask="url(#mask-2)" points="167.721493 76.3961215 176.317718 76.3961215 176.317718 85.1741334 167.721493 85.1741334"></polygon>
            <polygon id="Fill-2087" fill="#FEFEFE" mask="url(#mask-2)" points="167.721493 76.3962005 176.317718 76.3962005 176.317718 85.1740152 167.721493 85.1740152"></polygon>
            <polygon id="Stroke-2088" stroke="#151616" stroke-width="1.93342754" mask="url(#mask-2)" points="167.721493 76.3962005 164.063555 75.9436122 164.063555 85.6888447 167.721493 85.1337629"></polygon>
            <polygon id="Fill-2089" fill="#FEFEFE" mask="url(#mask-2)" points="167.721493 76.3962005 164.063555 75.9436122 164.063555 85.6888447 167.721493 85.1337629"></polygon>
            <path d="M160.222776,63.0466168 L164.063555,63.0466168 C164.465954,63.0466168 164.795197,63.3758132 164.795197,63.7781543 L164.795197,64.8753244 C164.795197,65.2776655 164.465954,65.6068619 164.063555,65.6068619 L160.222776,65.6068619 C159.820377,65.6068619 159.491134,65.2776655 159.491134,64.8753244 L159.491134,63.7781543 C159.491134,63.3758132 159.820377,63.0466168 160.222776,63.0466168 Z" id="Stroke-2090" stroke="#151616" stroke-width="1.93342754" mask="url(#mask-2)"></path>
            <path d="M160.222776,63.0466168 L164.063555,63.0466168 C164.465954,63.0466168 164.795197,63.3758132 164.795197,63.7781543 L164.795197,64.8753244 C164.795197,65.2776655 164.465954,65.6068619 164.063555,65.6068619 L160.222776,65.6068619 C159.820377,65.6068619 159.491134,65.2776655 159.491134,64.8753244 L159.491134,63.7781543 C159.491134,63.3758132 159.820377,63.0466168 160.222776,63.0466168" id="Fill-2091" fill="#FEFEFE" mask="url(#mask-2)"></path>
            <polygon id="Stroke-2092" stroke="#151616" stroke-width="3.92223877" mask="url(#mask-2)" points="167.717477 73.4734718 163.510878 74.0342493 163.510851 76.9601804 167.717583 76.3994085"></polygon>
            <polygon id="Fill-2093" fill="#FEFEFE" mask="url(#mask-2)" points="167.721493 73.470232 163.514938 74.0309472 163.514938 76.9569157 167.721493 76.3962005"></polygon>
            <polygon id="Stroke-2094" stroke="#151616" stroke-width="1.93342754" mask="url(#mask-2)" points="167.721493 73.470232 176.317718 73.470232 176.317718 76.3962005 167.721493 76.3962005"></polygon>
            <polygon id="Fill-2095" fill="#FEFEFE" mask="url(#mask-2)" points="167.721493 73.470232 176.317718 73.470232 176.317718 76.3962005 167.721493 76.3962005"></polygon>
            <path d="M203.859366,83.728747 L206.928825,82.7697655 L208.655269,84.4958076 L207.888099,86.2220055 L203.667261,85.8383194 C203.667261,85.8383194 204.051158,83.728747 203.859366,83.728747 Z" id="Stroke-2096" stroke="#151616" stroke-width="0.751726812" stroke-linejoin="round" mask="url(#mask-2)"></path>
            <path d="M203.859299,83.7285675 L206.928633,82.7693274 L208.655093,84.4955416 L207.88801,86.2217558 L203.667187,85.8382234 C203.667187,85.8382234 204.050956,83.7285675 203.859299,83.7285675" id="Fill-2097" fill="#FEFEFE" mask="url(#mask-2)"></path>
            <path d="M179.426889,104.822129 C179.426889,119.80853 162.965828,121.10673 162.965828,104.822129 C162.965828,88.8717303 179.426889,89.9215238 179.426889,104.822129 Z" id="Stroke-2098" stroke="#151616" stroke-width="1.69697826" mask="url(#mask-2)"></path>
            <path d="M179.426946,104.814768 C179.426946,119.801156 162.965684,121.099588 162.965684,104.814768 C162.965684,88.8643228 179.426946,89.9139716 179.426946,104.814768" id="Fill-2099" fill="#FEFEFE" mask="url(#mask-2)"></path>
            <path d="M169.112688,100.338205 C170.781405,100.338205 172.133731,102.590595 172.133731,105.36912 C172.133731,108.147645 170.781405,110.399724 169.112688,110.399724 C167.44397,110.399724 166.091023,108.147645 166.091023,105.36912 C166.091023,102.590595 167.44397,100.338205 169.112688,100.338205 Z" id="Stroke-2100" stroke="#151616" stroke-width="1.69697826" mask="url(#mask-2)"></path>
            <path d="M169.11253,100.330863 C170.781285,100.330863 172.1337,102.583264 172.1337,105.361581 C172.1337,108.14017 170.781285,110.392389 169.11253,110.392389 C167.443867,110.392389 166.091179,108.14017 166.091179,105.361581 C166.091179,102.583264 167.443867,100.330863 169.11253,100.330863" id="Fill-2101" fill="#FEFEFE" mask="url(#mask-2)"></path>
            <path d="M191.682381,106.625596 C191.682381,123.086038 174.672625,124.512434 174.672625,106.625596 C174.672625,89.1061806 191.682381,90.2588359 191.682381,106.625596 Z" id="Stroke-2102" stroke="#151616" stroke-width="1.64241304" mask="url(#mask-2)"></path>
            <path d="M191.681291,106.632935 C191.681291,123.093393 174.671592,124.51976 174.671592,106.632935 C174.671592,89.113469 191.681291,90.2662472 191.681291,106.632935" id="Fill-2103" fill="#FEFEFE" mask="url(#mask-2)"></path>
            <path d="M181.024298,101.700946 C182.748296,101.700946 184.146322,104.17439 184.146322,107.226365 C184.146322,110.278124 182.748296,112.75189 181.024298,112.75189 C179.299979,112.75189 177.901952,110.278124 177.901952,107.226365 C177.901952,104.17439 179.299979,101.700946 181.024298,101.700946 Z" id="Stroke-2104" stroke="#151616" stroke-width="1.64241304" mask="url(#mask-2)"></path>
            <path d="M181.023273,101.708073 C182.74737,101.708073 184.145133,104.181725 184.145133,107.23363 C184.145133,110.285444 182.74737,112.759096 181.023273,112.759096 C179.298902,112.759096 177.90114,110.285444 177.90114,107.23363 C177.90114,104.181725 179.298902,101.708073 181.023273,101.708073" id="Fill-2105" fill="#FEFEFE" mask="url(#mask-2)"></path>
            <path d="M179.141778,91.2721 C179.141778,91.2721 181.804805,91.5746736 183.99955,95.2320888 C186.194385,98.8895041 186.743003,100.718212 186.925936,102.181196 C187.108869,103.64418 187.474645,105.838611 187.474645,106.752965 C187.474645,107.667319 187.108869,111.141827 187.108869,111.141827 L197.168196,110.41038 C197.168196,110.41038 197.533972,112.604811 199.728716,113.519165 C201.92346,114.433519 208.873832,113.336349 208.873832,113.336349 C208.873832,113.336349 209.971158,115.531052 214.360738,116.445406 C218.750226,117.35976 224.420065,112.421995 226.614809,110.41038 C228.809553,108.398765 231.187231,103.64418 231.187231,103.64418 L231.553006,94.5006421 L231.187231,87.3687188 L228.260845,84.2596614 L210.519867,85.9054619 L203.569586,89.9288731 L198.448456,89.745966 L192.387124,92.6632117 L184.731192,91.7575807 L179.141778,91.2721 Z" id="Stroke-2106" stroke="#151616" stroke-width="1.93342754" stroke-linejoin="round" mask="url(#mask-2)"></path>
            <path d="M179.141778,91.2721 C179.141778,91.2721 181.804805,91.5746736 183.99955,95.2320888 C186.194385,98.8895041 186.743003,100.718212 186.925936,102.181196 C187.108869,103.64418 187.474645,105.838611 187.474645,106.752965 C187.474645,107.667319 187.108869,111.141827 187.108869,111.141827 L197.168196,110.41038 C197.168196,110.41038 197.533972,112.604811 199.728716,113.519165 C201.92346,114.433519 208.873832,113.336349 208.873832,113.336349 C208.873832,113.336349 209.971158,115.531052 214.360738,116.445406 C218.750226,117.35976 224.420065,112.421995 226.614809,110.41038 C228.809553,108.398765 231.187231,103.64418 231.187231,103.64418 L231.553006,94.5006421 L231.187231,87.3687188 L228.260845,84.2596614 L210.519867,85.9054619 L203.569586,89.9288731 L198.448456,89.745966 L192.387124,92.6632117 L184.731192,91.7575807 L179.141778,91.2721 Z" id="Fill-2107" fill="#FEFEFE" mask="url(#mask-2)"></path>
            <polygon id="Stroke-2108" stroke="#151616" stroke-width="1.93342754" mask="url(#mask-2)" points="211.441349 90.0682569 206.182087 90.0682569 206.182087 92.1939046 192.530799 92.1939046 192.530799 90.0682569 192.530799 88.166132 192.530799 85.4810411 211.441349 85.4810411"></polygon>
            <polygon id="Fill-2109" fill="#FEFEFE" mask="url(#mask-2)" points="211.441349 90.0682569 206.182087 90.0682569 206.182087 92.1939046 192.530799 92.1939046 192.530799 90.0682569 192.530799 88.166132 192.530799 85.4810411 211.441349 85.4810411"></polygon>
            <path d="M214.633002,2.11747005 L220.120635,2.57469239 C220.120635,2.57469239 220.578195,-2.22659645 226.294562,-2.22659645 C232.011021,-2.22659645 231.782014,-1.31197005 232.925505,0.745712183 C234.068997,2.80339442 233.153967,3.48904619 234.297459,4.1748797 C235.44095,4.86080406 238.184676,4.86080406 238.184676,4.86080406 L238.184676,22.0079137 L240.928674,22.0079137 L240.928674,90.3670142 L243.672581,90.3670142 L243.672581,96.7684904 L241.385871,96.7684904 L241.385871,100.655153 L243.215385,100.655153 L243.215385,108.199957 L241.157409,108.199957 L241.157409,115.515787 L245.273088,115.515787 L245.273088,119.631152 L235.669503,119.631152 L235.669503,115.058656 L238.343891,115.775201 L238.343891,104.770517 L212.346291,104.770517 L212.346291,117.34504 L217.148174,117.34504 L217.148174,121.23143 L206.401098,121.23143 L206.401098,117.116338 L208.862472,117.77573 L208.862472,108.428387 L207.362202,108.026591 L207.362202,96.9971924 L202.285419,94.9395102 L201.828131,91.9674741 L204.571857,91.9674741 L203.969622,89.7199792 L209.373831,89.7199792 L209.373831,22.9222675 L206.172636,22.9222675 C206.172636,22.9222675 205.029145,21.7792117 205.257879,20.636065 C205.486614,19.4930091 206.401098,19.2643071 206.401098,19.2643071 L216.462243,19.2643071 L216.462243,3.94645025 C216.462243,3.94645025 214.633002,2.34599036 214.633002,2.11747005 Z" id="Stroke-2110" stroke="#151616" stroke-width="1.93342754" stroke-linejoin="round" mask="url(#mask-2)"></path>
            <path d="M214.633002,2.11747005 L220.120635,2.57469239 C220.120635,2.57469239 220.578195,-2.22659645 226.294562,-2.22659645 C232.011021,-2.22659645 231.782014,-1.31197005 232.925505,0.745712183 C234.068997,2.80339442 233.153967,3.48904619 234.297459,4.1748797 C235.44095,4.86080406 238.184676,4.86080406 238.184676,4.86080406 L238.184676,22.0079137 L240.928674,22.0079137 L240.928674,90.3670142 L243.672581,90.3670142 L243.672581,96.7684904 L241.385871,96.7684904 L241.385871,100.655153 L243.215385,100.655153 L243.215385,108.199957 L241.157409,108.199957 L241.157409,115.515787 L245.273088,115.515787 L245.273088,119.631152 L235.669503,119.631152 L235.669503,115.058656 L238.343891,115.775201 L238.343891,104.770517 L212.346291,104.770517 L212.346291,117.34504 L217.148174,117.34504 L217.148174,121.23143 L206.401098,121.23143 L206.401098,117.116338 L208.862472,117.77573 L208.862472,108.428387 L207.362202,108.026591 L207.362202,96.9971924 L202.285419,94.9395102 L201.828131,91.9674741 L204.571857,91.9674741 L203.969622,89.7199792 L209.373831,89.7199792 L209.373831,22.9222675 L206.172636,22.9222675 C206.172636,22.9222675 205.029145,21.7792117 205.257879,20.636065 C205.486614,19.4930091 206.401098,19.2643071 206.401098,19.2643071 L216.462243,19.2643071 L216.462243,3.94645025 C216.462243,3.94645025 214.633002,2.34599036 214.633002,2.11747005" id="Fill-2111" fill="#FEFEFE" mask="url(#mask-2)"></path>
            <path d="M218.520219,5.77543046 L218.520219,19.2643071 L221.721414,19.2643071 L222.266488,17.2300675 L224.693874,17.2300675 L224.693874,2.34599036 C224.693874,2.34599036 223.77939,3.48931878 223.093368,4.63237462 C222.407345,5.77543046 220.578195,6.00413249 220.578195,6.00413249 C220.578195,6.00413249 218.291484,5.77543046 218.520219,5.77543046 Z" id="Stroke-2112" stroke="#151616" stroke-width="1.28892138" stroke-linejoin="round" mask="url(#mask-2)"></path>
            <path d="M218.520219,5.77543046 L218.520219,19.2643071 L221.721414,19.2643071 L222.266488,17.2300675 L224.693874,17.2300675 L224.693874,2.34599036 C224.693874,2.34599036 223.77939,3.48931878 223.093368,4.63237462 C222.407345,5.77543046 220.578195,6.00413249 220.578195,6.00413249 C220.578195,6.00413249 218.291484,5.77543046 218.520219,5.77543046" id="Fill-2113" fill="#FEFEFE" mask="url(#mask-2)"></path>
            <path d="M227.895069,3.26052589 L227.895069,16.2922711 L229.929599,16.837267 L229.929599,22.4650452 L234.526193,22.4650452 L234.526193,9.43339086 C234.526193,9.43339086 232.925778,8.74773909 232.011021,7.14718832 C231.096264,5.54672843 227.895069,3.26052589 227.895069,3.26052589 Z" id="Stroke-2114" stroke="#151616" stroke-width="1.28892138" stroke-linejoin="round" mask="url(#mask-2)"></path>
            <path d="M227.895069,3.26052589 L227.895069,16.2922711 L229.929599,16.837267 L229.929599,22.4650452 L234.526193,22.4650452 L234.526193,9.43339086 C234.526193,9.43339086 232.925778,8.74773909 232.011021,7.14718832 C231.096264,5.54672843 227.895069,3.26052589 227.895069,3.26052589" id="Fill-2115" fill="#FEFEFE" mask="url(#mask-2)"></path>
            <path d="M229.72431,24.5227274 L233.15424,24.5227274 L233.15424,47.8426112 L228.502756,46.5965168 L228.502756,28.6380919 L229.699592,28.9587472 C229.699592,28.9587472 229.495757,24.5227274 229.72431,24.5227274 Z" id="Stroke-2116" stroke="#151616" stroke-width="1.28892138" stroke-linejoin="round" mask="url(#mask-2)"></path>
            <path d="M229.72431,24.5227274 L233.15424,24.5227274 L233.15424,47.8426112 L228.502756,46.5965168 L228.502756,28.6380919 L229.699592,28.9587472 C229.699592,28.9587472 229.495757,24.5227274 229.72431,24.5227274" id="Fill-2117" fill="#FEFEFE" mask="url(#mask-2)"></path>
            <polygon id="Stroke-2118" stroke="#151616" stroke-width="1.28892138" stroke-linejoin="round" mask="url(#mask-2)" points="228.581091 50.1287228 232.468218 50.1287228 232.468218 66.5899081 230.410242 66.5899081 230.410242 68.8761107 228.375984 68.3311147"></polygon>
            <polygon id="Fill-2119" fill="#FEFEFE" mask="url(#mask-2)" points="228.581091 50.1287228 232.468218 50.1287228 232.468218 66.5899081 230.410242 66.5899081 230.410242 68.8761107 228.375984 68.3311147"></polygon>
            <polygon id="Stroke-2120" stroke="#151616" stroke-width="1.28892138" stroke-linejoin="round" mask="url(#mask-2)" points="211.889004 22.2366157 213.94698 22.2366157 213.94698 30.0099406 211.889004 30.0099406"></polygon>
            <polygon id="Fill-2121" fill="#FEFEFE" mask="url(#mask-2)" points="211.889004 22.2366157 213.94698 22.2366157 213.94698 30.0099406 211.889004 30.0099406"></polygon>
            <polygon id="Stroke-2122" stroke="#151616" stroke-width="1.28892138" stroke-linejoin="round" mask="url(#mask-2)" points="211.889004 38.0116041 213.94698 38.0116041 213.94698 45.7849289 211.889004 45.7849289"></polygon>
            <polygon id="Fill-2123" fill="#FEFEFE" mask="url(#mask-2)" points="211.889004 38.0116041 213.94698 38.0116041 213.94698 45.7849289 211.889004 45.7849289"></polygon>
            <polygon id="Stroke-2124" stroke="#151616" stroke-width="1.28892138" stroke-linejoin="round" mask="url(#mask-2)" points="211.889004 48.2998335 213.94698 48.2998335 213.94698 56.0730675 211.889004 56.0730675"></polygon>
            <polygon id="Fill-2125" fill="#FEFEFE" mask="url(#mask-2)" points="211.889004 48.2998335 213.94698 48.2998335 213.94698 56.0730675 211.889004 56.0730675"></polygon>
            <polygon id="Stroke-2126" stroke="#151616" stroke-width="1.5111837" stroke-linejoin="round" mask="url(#mask-2)" points="211.889058 62.9227753 213.947084 62.9227753 213.947084 69.5527221 211.889058 69.5527221"></polygon>
            <polygon id="Fill-2127" fill="#FEFEFE" mask="url(#mask-2)" points="211.889004 62.9320386 213.94698 62.9320386 213.94698 69.5619442 211.889004 69.5619442"></polygon>
            <polygon id="Stroke-2128" stroke="#151616" stroke-width="1.68542862" stroke-linejoin="round" mask="url(#mask-2)" points="211.888913 72.0810769 213.946932 72.0810769 213.946932 78.0254162 211.888913 78.0254162"></polygon>
            <polygon id="Fill-2129" fill="#FEFEFE" mask="url(#mask-2)" points="211.889004 72.0768487 213.94698 72.0768487 213.94698 78.0211934 211.889004 78.0211934"></polygon>
            <polygon id="Stroke-2130" stroke="#151616" stroke-width="2.89986848" stroke-linejoin="round" mask="url(#mask-2)" points="215.550368 26.5701656 216.465118 26.5701656 216.465118 43.9457974 215.550368 43.9457974"></polygon>
            <polygon id="Fill-2131" fill="#FEFEFE" mask="url(#mask-2)" points="215.547486 26.5804096 216.462243 26.5804096 216.462243 43.9559487 215.547486 43.9559487"></polygon>
            <polygon id="Stroke-2132" stroke="#151616" stroke-width="2.89986848" stroke-linejoin="round" mask="url(#mask-2)" points="215.550368 50.1189181 216.465118 50.1189181 216.465118 67.49455 215.550368 67.49455"></polygon>
            <polygon id="Fill-2133" fill="#FEFEFE" mask="url(#mask-2)" points="215.547486 50.1289954 216.462243 50.1289954 216.462243 67.5045345 215.547486 67.5045345"></polygon>
            <polygon id="Stroke-2134" stroke="#151616" stroke-width="0.966713768" stroke-linejoin="round" mask="url(#mask-2)" points="219.147142 26.3580878 221.891103 26.3580878 221.891103 46.019798 219.147142 46.019798"></polygon>
            <polygon id="Fill-2135" fill="#FEFEFE" mask="url(#mask-2)" points="219.148262 26.3517076 221.89217 26.3517076 221.89217 46.013631 219.148262 46.013631"></polygon>
            <polygon id="Stroke-2136" stroke="#151616" stroke-width="0.966713768" stroke-linejoin="round" mask="url(#mask-2)" points="223.262962 26.3580878 226.006923 26.3580878 226.006923 46.019798 223.262962 46.019798"></polygon>
            <polygon id="Fill-2137" fill="#FEFEFE" mask="url(#mask-2)" points="223.263942 26.3517076 226.007849 26.3517076 226.007849 46.013631 223.263942 46.013631"></polygon>
            <polygon id="Stroke-2138" stroke="#151616" stroke-width="0.966713768" stroke-linejoin="round" mask="url(#mask-2)" points="219.147142 50.1350255 221.891103 50.1350255 221.891103 69.797101 219.147142 69.797101"></polygon>
            <polygon id="Fill-2139" fill="#FEFEFE" mask="url(#mask-2)" points="219.148262 50.1287228 221.89217 50.1287228 221.89217 69.7907371 219.148262 69.7907371"></polygon>
            <polygon id="Stroke-2140" stroke="#151616" stroke-width="0.966713768" stroke-linejoin="round" mask="url(#mask-2)" points="223.262962 50.1350255 226.006923 50.1350255 226.006923 69.797101 223.262962 69.797101"></polygon>
            <polygon id="Fill-2141" fill="#FEFEFE" mask="url(#mask-2)" points="223.263942 50.1287228 226.007849 50.1287228 226.007849 69.7907371 223.263942 69.7907371"></polygon>
            <polygon id="Fill-2142" fill="#151616" mask="url(#mask-2)" points="235.669503 23.6083736 237.727479 23.6083736 237.727479 34.1250325 235.669503 34.1250325"></polygon>
            <polygon id="Fill-2143" fill="#151616" mask="url(#mask-2)" points="235.669503 38.0116041 237.727479 38.0116041 237.727479 48.5282629 235.669503 48.5282629"></polygon>
            <polygon id="Fill-2144" fill="#151616" mask="url(#mask-2)" points="235.669503 50.3575157 237.727479 50.3575157 237.727479 57.4448254 235.669503 57.4448254"></polygon>
            <polygon id="Fill-2145" fill="#151616" mask="url(#mask-2)" points="235.669503 61.7887102 237.727479 61.7887102 237.727479 68.8761107 235.669503 68.8761107"></polygon>
            <polygon id="Stroke-2146" stroke="#151616" stroke-width="1.46089275" stroke-linejoin="round" mask="url(#mask-2)" points="216.918791 72.7678446 221.263304 72.7678446 221.263304 79.6267933 216.918791 79.6267933"></polygon>
            <polygon id="Fill-2147" fill="#FEFEFE" mask="url(#mask-2)" points="216.91944 72.7627731 221.263854 72.7627731 221.263854 79.6216533 216.91944 79.6216533"></polygon>
            <polygon id="Stroke-2148" stroke="#151616" stroke-width="0.925698913" stroke-linejoin="round" mask="url(#mask-2)" points="219.206681 85.108318 234.984254 85.108318 234.984254 101.341119 219.206681 101.341119"></polygon>
            <polygon id="Fill-2149" fill="#FEFEFE" mask="url(#mask-2)" points="219.205969 85.1083213 234.983481 85.1083213 234.983481 101.340986 219.205969 101.340986"></polygon>
            <polygon id="Stroke-2150" stroke="#151616" stroke-width="1.46089275" stroke-linejoin="round" mask="url(#mask-2)" points="232.924841 74.368453 237.269353 74.368453 237.269353 81.2274017 232.924841 81.2274017"></polygon>
            <polygon id="Fill-2151" fill="#FEFEFE" mask="url(#mask-2)" points="232.925505 74.363233 237.269919 74.363233 237.269919 81.2222041 232.925505 81.2222041"></polygon>
            <polygon id="Stroke-2152" stroke="#151616" stroke-width="1.26418514" stroke-linejoin="round" mask="url(#mask-2)" points="226.98025 85.3415742 232.46821 85.3415742 232.46821 97.2301137 226.98025 97.2301137"></polygon>
            <polygon id="Fill-2153" fill="#FEFEFE" mask="url(#mask-2)" points="226.980312 85.3372959 232.468218 85.3372959 232.468218 97.2258944 226.980312 97.2258944"></polygon>
            <polyline id="Stroke-2154" stroke="#151616" stroke-width="0.644506159" stroke-linejoin="round" mask="url(#mask-2)" points="217.834197 80.1152652 214.861464 80.1152652 214.861464 101.806731 235.669503 101.806731"></polyline>
            <polygon id="Fill-2155" fill="#151616" mask="url(#mask-2)" points="227.186146 104.971415 230.28247 104.971415 230.28247 119.579178 227.186146 119.579178"></polygon>
            <polygon id="Fill-2156" fill="#151616" mask="url(#mask-2)" points="227.186146 156.250917 230.28247 156.250917 230.28247 178.955205 227.186146 178.955205"></polygon>
            <polyline id="Stroke-2157" stroke="#151616" stroke-width="0.644506159" mask="url(#mask-2)" points="192.582053 85.7406365 181.691483 85.7406365 176.603341 85.5620909 168.123164 85.2051812 163.749034 86.0978188 157.500406 87.2579569"></polyline>
            <path d="M157.321926,87.6151391 L156.607823,86.9009563 L168.034015,83.2417239 L192.403572,83.063269 L209.364016,82.8844508 L209.364016,85.4730452 L192.492722,85.4730452 L167.855262,85.2051812 C167.855262,85.2051812 157.232777,87.7042756 157.321926,87.6151391 Z" id="Fill-2158" fill="#FEFEFE" mask="url(#mask-2)"></path>
            <path d="M157.321926,87.6151391 L156.607823,86.9009563 L168.034015,83.2417239 L192.403572,83.063269 L209.364016,82.8844508 L209.364016,85.4730452 L192.492722,85.4730452 L167.855262,85.2051812 C167.855262,85.2051812 157.232777,87.7042756 157.321926,87.6151391 Z" id="Stroke-2159" stroke="#151616" stroke-width="0.515550362" mask="url(#mask-2)"></path>
            <path d="M180.841449,103.291777 C182.0731,103.291777 183.071519,105.059088 183.071519,107.239045 C183.071519,109.419003 182.0731,111.186237 180.841449,111.186237 C179.609722,111.186237 178.611532,109.419003 178.611532,107.239045 C178.611532,105.059088 179.609722,103.291777 180.841449,103.291777 Z" id="Stroke-2160" stroke="#151616" stroke-width="2.29919638" mask="url(#mask-2)"></path>
            <path d="M180.842975,103.286453 C182.074525,103.286453 183.072979,105.053555 183.072979,107.23363 C183.072979,109.413614 182.074525,111.180716 180.842975,111.180716 C179.611061,111.180716 178.61288,109.413614 178.61288,107.23363 C178.61288,105.053555 179.611061,103.286453 180.842975,103.286453" id="Fill-2161" fill="#FEFEFE" mask="url(#mask-2)"></path>
            <path d="M168.920104,101.323477 C170.151602,101.323477 171.149944,103.090788 171.149944,105.270745 C171.149944,107.450702 170.151602,109.218013 168.920104,109.218013 C167.688147,109.218013 166.689957,107.450702 166.689957,105.270745 C166.689957,103.090788 167.688147,101.323477 168.920104,101.323477 Z" id="Stroke-2162" stroke="#151616" stroke-width="2.29919638" mask="url(#mask-2)"></path>
            <path d="M168.921418,101.318089 C170.153059,101.318089 171.151513,103.085282 171.151513,105.265266 C171.151513,107.445341 170.153059,109.212443 168.921418,109.212443 C167.689595,109.212443 166.691414,107.445341 166.691414,105.265266 C166.691414,103.085282 167.689595,101.318089 168.921418,101.318089" id="Fill-2163" fill="#FEFEFE" mask="url(#mask-2)"></path>
            <path d="M147.716756,100.097318 C148.713696,100.097318 149.521464,101.647729 149.521464,103.560392 C149.521464,105.473056 148.713696,107.023669 147.716756,107.023669 C146.720002,107.023669 145.912234,105.473056 145.912234,103.560392 C145.912234,101.647729 146.720002,100.097318 147.716756,100.097318 Z" id="Stroke-2164" stroke="#151616" stroke-width="2.61394674" mask="url(#mask-2)"></path>
            <path d="M147.716978,100.098799 C148.713887,100.098799 149.521774,101.649375 149.521774,103.56204 C149.521774,105.474705 148.713887,107.02519 147.716978,107.02519 C146.720342,107.02519 145.912546,105.474705 145.912546,103.56204 C145.912546,101.649375 146.720342,100.098799 147.716978,100.098799" id="Fill-2165" fill="#FEFEFE" mask="url(#mask-2)"></path>
            <path d="M-3.80388394,111.765147 C-3.80388394,111.765147 2.03053139,115.355142 10.1088547,115.355142 C18.187269,115.355142 30.7537719,114.906188 37.9346956,113.11119 C45.1155285,111.316193 69.3509529,105.03402 76.980531,105.482701 C84.6102,105.931382 103.460136,97.405167 109.743297,90.6742218 C116.026457,83.9433675 120.065619,71.378567 120.065619,71.378567" id="Stroke-2166" stroke="#151616" stroke-width="0.644506159" mask="url(#mask-2)"></path>
            <path d="M-5.14857482,114.334387 C-5.14857482,114.334387 -0.699290146,117.794448 6.88085146,118.288743 C14.4609931,118.783037 28.9624259,119.112415 40.3326383,116.476299 C51.7029416,113.840093 62.5790617,108.896967 73.949365,108.732323 C85.3195774,108.567771 91.416715,106.096208 94.5476628,105.107619 C97.6785197,104.119121 107.401152,100.823885 112.344801,95.2218213 C117.28836,89.6197574 120.089792,75.7796046 120.089792,75.7796046" id="Stroke-2167" stroke="#151616" stroke-width="0.515550362" mask="url(#mask-2)"></path>
            <polygon id="Stroke-2168" stroke="#151616" stroke-width="1.93342754" stroke-linejoin="round" mask="url(#mask-2)" points="176.599978 83.3334046 209.454983 83.3334046 209.454983 77.0761279 176.599978 77.0761279"></polygon>
            <polygon id="Fill-2169" fill="#FEFEFE" mask="url(#mask-2)" points="176.599978 83.3334046 209.454983 83.3334046 209.454983 77.0761279 176.599978 77.0761279"></polygon>
            <polygon id="Stroke-2170" stroke="#151616" stroke-width="1.28892138" stroke-linejoin="round" mask="url(#mask-2)" points="96.5744558 86.1088853 98.1219917 87.8944321 99.5507125 88.9654426 101.336435 89.6796613 104.074743 95.9888318 104.312692 98.9646638 104.670011 100.988125 104.431824 103.131019 103.95569 104.440261 103.479238 105.987815 102.289021 107.059302 106.574628 106.820911 109.194042 106.820911 107.646267 102.77383 107.646267 100.869247 106.693919 98.3694816 106.931709 96.5840141 108.241535 94.5603149 109.670017 92.7746092 110.979764 90.8702641 111.813218 89.5608631 112.884619 87.5374022 109.312698 84.5613319 109.789309 86.7040675 110.384338 89.5608631 106.217308 93.8463344 104.074743 90.9891418 104.431824 88.1325844 104.907959 87.0610975 106.931709 83.7282355 106.098732 83.2519309 104.431824 85.7516965 103.003104 83.2519309 102.050835 84.4420572 103.836319 87.0610975 103.003104 90.1560454 101.574621 87.4183657 100.265033 82.7756262 99.5507125 82.8949009 100.502981 87.8944321 98.717259 87.1802134 96.3362695 84.2041431"></polygon>
            <polygon id="Fill-2171" fill="#FEFEFE" mask="url(#mask-2)" points="96.5733777 86.1169 98.1210854 87.9023569 99.5497456 88.9735401 101.335457 89.6878137 104.07373 95.9967914 104.311734 98.9727345 104.669058 100.996161 104.430782 103.139073 103.954683 104.448317 103.478402 105.995713 102.288019 107.067169 106.573727 106.828926 109.193043 106.828926 107.645335 102.7818 107.645335 100.877131 106.693047 98.3774914 106.930778 96.5920345 108.240391 94.568335 109.669051 92.7826964 110.978755 90.8783 111.812359 89.5687832 112.883696 87.5453563 109.311818 84.5695041 109.788371 86.7121431 110.383427 89.5687832 106.216493 93.8544249 104.07373 90.9972396 104.430782 88.1405995 104.907062 87.0691437 106.930778 83.7362909 106.097719 83.2599873 104.430782 85.7597178 103.002122 83.2599873 102.049742 84.450201 103.835454 87.0691437 103.002122 90.1640264 101.573734 87.4264168 100.26403 82.7837746 99.5497456 82.9030777 100.502125 87.9023569 98.7164135 87.1881741 96.3353737 84.212231"></polygon>
            <path d="M99.3122879,82.4185963 L98.717259,84.7994842 L97.7649108,85.5135442 L96.9312984,84.0852655 L96.0980831,85.9898488 L95.145735,86.2277629 L94.9073104,88.1325844 L93.5979608,87.5374022 L91.6931056,88.0134686 L90.8598903,86.3468788 L91.4549193,85.2756301 L91.5740522,84.2041431 L89.9073833,84.3234178 L90.1455696,82.7756262 L87.8833953,80.9903176 L89.5503024,80.5142512 L88.2407145,78.3715155 L88.8359817,77.1812304 L90.3832794,78.2524791 L90.8598903,76.9428398 L92.7647455,76.2285416 L94.5503089,75.2764088 L94.3122814,74.5621107 L92.5263209,74.0862825 L91.2169712,74.4433124 C91.2169712,74.4433124 90.3832794,75.2764088 89.9073833,74.5621107 C89.4310107,73.8478919 88.9550352,71.9435468 88.9550352,71.9435468 L90.0264368,70.2771158 L88.2407145,68.9677148 L88.8359817,67.5391979 L89.3121161,66.9438568 L90.7405986,67.1822473 L90.621704,65.3964623 L92.6456126,65.5155781 L94.0743334,64.5632071 L95.0266815,65.8727669 L96.0980831,64.5632071 L96.8124038,65.6344558 L97.5267245,64.6824817 L100.383928,64.5632071 L102.884209,64.0870612 L103.003104,63.0158125 L102.050835,62.5395079 L100.622114,63.4917201 L99.1933933,62.3015938 L97.8840437,63.2537266 L95.383683,63.2537266 L93.9552799,62.5395079 L92.7647455,61.2303451 L92.8836401,59.920944 L94.6696006,59.0873712 L96.4553229,60.7541992 L97.0505901,59.5639141 L98.5981261,59.2066459 L98.2411246,58.1353972 L98.0027,56.2308139 L99.7888988,56.7067215 L101.574621,55.5165951 L103.360423,54.3262305 L104.550719,56.3496915 L107.051,54.9211746 L107.051,56.3496915 L108.241535,56.4689662 L108.598774,57.5402149 L110.741578,56.3496915 L111.336607,58.4924271 L112.884619,57.1830261 L113.836967,57.7782084 L115.503636,57.6593308 L115.980009,58.7303412 L115.146317,59.4446394 L116.694329,59.5639141 L117.646678,60.2778946 L118.956027,59.4446394 C119.789719,58.9687318 120.741988,59.0873712 120.741988,59.0873712 L122.408657,60.5160469 L123.599429,60.7541992 L122.765976,62.3015938 L122.051417,63.1349284 L124.789646,61.4682592 L126.456315,62.7778984 L126.932926,63.968263 L125.623338,64.3252135 L126.456315,65.3964623 L126.337738,66.5870651 L127.647326,65.9916445 L128.12346,67.0631315 C128.599356,67.6580755 129.790129,68.0151055 129.790129,68.0151055 L128.837781,68.9677148 C128.837781,68.9677148 129.075729,68.9672383 129.790129,69.3247448 C130.50445,69.6819335 130.028315,70.3959935 130.028315,70.3959935 L128.956676,71.109974 L129.670996,72.1814609 L128.242355,73.4908619 L127.766141,74.4433124 L129.075729,74.9193788 L130.742636,74.8005012 L130.623344,75.9908658 L129.909024,76.4669322 L130.861769,78.0143267 L128.956676,78.6096679 L127.766141,78.6096679 L126.575686,78.2524791 L124.909017,78.3715155 L123.361005,78.3715155 L122.765976,79.3234895 L123.718483,80.0377083 L125.385152,80.1570624 L127.527955,80.1570624 L128.956676,81.3473476 L127.647326,82.299798 L128.480541,83.7282355 L127.290007,84.3234178 L127.647326,85.9898488 L127.40914,87.1802134 L126.099472,87.0610975 L124.551698,87.4183657 L123.242348,86.4659152 L121.099307,86.7040675 L119.432638,86.2277629 L117.40873,86.7040675 L115.622928,86.1088853 L113.836967,86.8231834 L112.051007,87.5374022 L111.336607,86.4659152 L110.622524,84.5613319 L108.479721,84.9186001 L107.527135,84.5613319 L105.979599,84.5613319 L104.907959,83.3710467 L103.121998,84.4420572 L102.050835,84.4420572 L100.979433,83.7282355 L99.9077934,83.3710467 L99.3122879,82.4185963 Z" id="Stroke-2172" stroke="#151616" stroke-width="1.28892138" stroke-linejoin="round" mask="url(#mask-2)"></path>
            <path d="M99.311469,82.4267741 L98.7164135,84.8074741 L97.7640339,85.5216569 L96.9304292,84.0932005 L96.0970971,85.9979604 L95.1447175,86.2359305 L94.9064409,88.1405995 L93.5971007,87.5453563 L91.6921599,88.021569 L90.8590095,86.3548701 L91.4541558,85.2836868 L91.5731124,84.212231 L89.9064482,84.3314431 L90.1447248,82.7837746 L87.8824599,80.9983178 L89.5493967,80.5223777 L88.2397839,78.3796477 L88.835112,77.1892523 L90.3824562,78.2604355 L90.8590095,76.9510096 L92.7637686,76.236736 L94.5494803,75.2845832 L94.3113854,74.5703096 L92.525492,74.0943695 L91.2160609,74.4512792 C91.2160609,74.4512792 90.3824562,75.2845832 89.9064482,74.5703096 C89.4301675,73.8561269 88.9540686,71.9516396 88.9540686,71.9516396 L90.0254956,70.2852132 L88.2397839,68.9757873 L88.835112,67.547331 L89.3111201,66.9520878 L90.7397803,67.1903305 L90.6207328,65.404601 L92.6447212,65.5236315 L94.0733814,64.5713878 L95.0257609,65.8809046 L96.0970971,64.5713878 L96.8114726,65.6426619 L97.5257573,64.6906909 L100.383078,64.5713878 L102.883347,64.0951751 L103.002122,63.0239919 L102.049742,62.5476883 L100.621082,63.499932 L99.1924215,62.3097183 L97.8830814,63.2619619 L95.3828124,63.2619619 L93.9544248,62.5476883 L92.7637686,61.238535 L92.8827252,59.9291091 L94.6687095,59.0956234 L96.4544212,60.7623223 L97.0497493,59.5721086 L98.5970934,59.2148355 L98.2401328,58.1436523 L98.0018562,56.2389832 L99.7880223,56.7149234 L101.573734,55.5247096 L103.359446,54.3344959 L104.549738,56.3579228 L107.050007,54.9294665 L107.050007,56.3579228 L108.240391,56.4772259 L108.597715,57.5484091 L110.74066,56.3579228 L111.335715,58.5006528 L112.883696,57.191136 L113.836075,57.7863792 L115.502739,57.6674396 L115.97902,58.7386228 L115.145415,59.4528056 L116.693305,59.5721086 L117.645684,60.2860188 L118.955115,59.4528056 C119.78872,58.9768655 120.741009,59.0956234 120.741009,59.0956234 L122.407673,60.5243523 L123.598329,60.7623223 L122.764997,62.3097183 L122.05044,63.1429315 L124.788713,61.4765051 L126.455377,62.7860218 L126.93193,63.9764173 L125.622318,64.3334178 L126.455377,65.404601 L126.336602,66.5950873 L127.646306,65.9998442 L128.122314,67.0713 C128.598413,67.6662706 129.788978,68.0232711 129.788978,68.0232711 L128.836689,68.9757873 C128.836689,68.9757873 129.074693,68.9755147 129.788978,69.3327878 C130.503354,69.6899701 130.027255,70.4042437 130.027255,70.4042437 L128.955646,71.1181538 L129.670022,72.1896096 L128.241361,73.4991264 L127.765081,74.4512792 L129.074693,74.9275827 L130.74163,74.8085523 L130.62231,75.9990386 L129.908026,76.4749787 L130.860587,78.0224655 L128.955646,78.6177086 L127.765081,78.6177086 L126.574697,78.2604355 L124.907942,78.3796477 L123.360053,78.3796477 L122.764997,79.3316188 L123.717377,80.0458924 L125.384041,80.1651046 L127.526986,80.1651046 L128.955646,81.3553183 L127.646306,82.3078345 L128.479365,83.7362909 L127.288982,84.3314431 L127.646306,85.9979604 L127.408029,87.1881741 L126.098326,87.0691437 L124.550709,87.4264168 L123.241278,86.4739005 L121.098333,86.7121431 L119.431669,86.2359305 L117.40768,86.7121431 L115.621969,86.1169 L113.836075,86.8311736 L112.050091,87.5453563 L111.335715,86.4739005 L110.621431,84.5695041 L108.478668,84.9266863 L107.526106,84.5695041 L105.978671,84.5695041 L104.907062,83.3790178 L103.121078,84.450201 L102.049742,84.450201 L100.978406,83.7362909 L99.9067971,83.3790178 L99.311469,82.4267741 Z" id="Fill-2173" fill="#FEFEFE" mask="url(#mask-2)"></path>
            <polygon id="Stroke-2174" stroke="#151616" stroke-width="1.28892138" stroke-linejoin="round" mask="url(#mask-2)" points="45.5276192 100.720577 43.7706202 102.74776 42.1487681 103.963548 40.1219262 104.774313 37.013459 111.936073 36.7430751 115.314171 36.3377248 117.61134 36.6081086 120.043725 37.1486058 121.530128 37.6889227 123.286967 39.0403008 124.503025 34.1753755 124.232679 31.2021452 124.232679 32.9588737 119.638253 32.9588737 117.476212 34.0401385 114.638534 33.7697547 112.611891 32.2831396 110.314723 30.6613776 108.287629 29.1746723 106.125588 28.2288248 104.639185 27.0124132 102.342197 31.0671787 98.9638284 30.5264111 101.396214 29.8504064 104.639185 34.5807259 109.504138 37.013459 106.260716 36.6081086 103.017835 36.067341 101.801777 33.7697547 98.0183863 34.7158727 97.4774254 36.6081086 100.315374 38.2296903 97.4774254 39.3109551 98.8288812 37.2838428 101.801777 38.2296903 105.314733 39.8512719 102.20698 41.3378871 96.9370054 42.1487681 97.0721329 41.0679541 102.74776 43.0951565 101.936905 45.798003 98.5585359"></polygon>
            <polygon id="Fill-2175" fill="#FEFEFE" mask="url(#mask-2)" points="45.5277416 100.718757 43.7708376 102.745818 42.1490661 103.961746 40.121988 104.772516 37.0134865 111.934152 36.7432215 115.312345 36.3378241 117.609542 36.6082708 120.042034 37.1487099 121.52837 37.6891489 123.285023 39.0405646 124.501224 34.1755226 124.230725 31.2022445 124.230725 32.9591485 119.636331 32.9591485 117.474338 34.0402993 114.636779 33.7700343 112.60999 32.2833953 110.312793 30.6615328 108.285732 29.1749847 106.123739 28.2290573 104.637312 27.0126832 102.340388 31.0672938 98.9619218 30.5265821 101.394323 29.8506471 104.637312 34.5809201 109.502205 37.0134865 106.258943 36.6082708 103.015954 36.0675591 101.799753 33.7700343 98.016402 34.7159617 97.4754949 36.6082708 100.313326 38.2298606 97.4754949 39.3110113 98.8269904 37.2839332 101.799753 38.2298606 105.312969 39.8514504 102.205184 41.3380894 96.935133 42.1490661 97.0703371 41.0680971 102.745818 43.0951752 101.934957 45.7981883 98.556764"></polygon>
            <path d="M42.4194224,96.5319833 L43.0951565,99.2341737 L44.1761509,100.045029 L45.1219984,98.4234084 L46.0681163,100.585449 L47.1494713,100.855794 L47.4195846,103.017835 L48.9064703,102.342197 L51.0688196,102.882617 L52.0143966,100.990742 L51.3386624,99.7745937 L51.2036959,98.5585359 L53.0959319,98.6937536 L52.8252776,96.9370054 L55.3935182,94.9103626 L53.5010117,94.3696722 L54.9878973,91.9375567 L54.3118927,90.5860108 L52.5554347,91.8021587 L52.0143966,90.315936 L49.8520473,89.5049003 L47.8251153,88.42397 L48.0954991,87.6132048 L50.1227016,87.0727847 L51.6093167,87.4782575 C51.6093167,87.4782575 52.5554347,88.42397 53.0959319,87.6132048 C53.6362487,86.8024395 54.1770164,84.6403988 54.1770164,84.6403988 L52.9605146,82.7489737 L54.9878973,81.2625707 L54.3118927,79.64095 L53.771666,78.9653123 L52.1495434,79.2353871 L52.2850509,77.2082936 L49.9874646,77.3437818 L48.3654321,76.2625811 L47.2846181,77.7489841 L46.0681163,76.2625811 L45.2572353,77.4789093 L44.4463544,76.3977988 L41.2029206,76.2625811 L38.3645666,75.7218906 L38.2296903,74.5061033 L39.3109551,73.9654128 L40.9328072,75.0462529 L42.5545692,73.695338 L44.041004,74.7761781 L46.8792678,74.7761781 L48.5008495,73.9654128 L49.8520473,72.4790098 L49.7170808,70.9925167 L47.6899685,70.0466239 L45.662766,71.9384997 L44.987122,70.5875848 L43.2303034,70.1817514 L43.6353832,68.9659641 L43.9060375,66.8039234 L41.8786547,67.344073 L39.8512719,65.9931581 L37.82434,64.6416122 L36.4728716,66.9388706 L33.6348784,65.3175204 L33.6348784,66.9388706 L32.2831396,67.0739982 L31.8778794,68.2903264 L29.4453266,66.9388706 L28.7696826,69.3709862 L27.0124132,67.8845832 L25.9315991,68.5601307 L24.0393632,68.4252736 L23.498866,69.6413314 L24.444984,70.4520967 L22.6878949,70.5875848 L21.6066301,71.3980796 L20.1200149,70.4520967 C19.173897,69.9119471 18.0930829,70.0466239 18.0930829,70.0466239 L16.2006667,71.6681544 L14.8494688,71.9384997 L15.7955868,73.695338 L16.6064678,74.6410506 L13.4980005,72.7493551 L11.6058547,74.2357581 L11.0652674,75.5869434 L12.5519727,75.9925063 L11.6058547,77.2082936 L11.7407311,78.5598395 L10.2543864,77.8839314 L9.71388925,79.10053 C9.17339209,79.7761677 7.8216533,80.1810996 7.8216533,80.1810996 L8.90300827,81.2625707 C8.90300827,81.2625707 8.63253429,81.2623003 7.8216533,81.6675928 C7.01077232,82.073336 7.55153996,82.8841013 7.55153996,82.8841013 L8.76777128,83.6944158 L7.95716077,84.910744 L9.57865227,86.397147 L10.1192396,87.4782575 L8.63253429,88.0184973 L6.74065897,87.88355 L6.8758058,89.2348255 L7.68668679,89.7755159 L6.60542198,91.5319937 L8.76777128,92.2076315 L10.1192396,92.2076315 L11.4708882,91.8021587 L13.3628537,91.9375567 L15.1198527,91.9375567 L15.7955868,93.0182164 L14.7140515,93.8289817 L12.8223565,93.9641092 L10.3896234,93.9641092 L8.76777128,95.3153847 L10.2543864,96.3964952 L9.30826845,98.0183863 L10.6600072,98.6937536 L10.2543864,100.585449 L10.5247702,101.936905 L12.0113854,101.801777 L13.7684745,102.20698 L15.2548192,101.12614 L17.6872818,101.396214 L19.5795178,100.855794 L21.8770139,101.396214 L23.9039459,100.720577 L25.9315991,101.531432 L27.9587114,102.342197 L28.7696826,101.12614 L29.5805636,98.9638284 L32.0130262,99.3693913 L33.0941107,98.9638284 L34.8511097,98.9638284 L36.067341,97.6126431 L38.0947238,98.8288812 L39.3109551,98.8288812 L40.5269159,98.0183863 L41.7436882,97.6126431 L42.4194224,96.5319833 Z" id="Stroke-2176" stroke="#151616" stroke-width="1.28892138" stroke-linejoin="round" mask="url(#mask-2)"></path>
            <path d="M42.4195128,96.5299751 L43.0951752,99.2323299 L44.1763259,100.043191 L45.1222533,98.4215599 L46.0684533,100.583553 L47.149604,100.853961 L47.4197781,103.015954 L48.9066898,102.340388 L51.0689912,102.88075 L52.014646,100.988983 L51.3388927,99.7726919 L51.203942,98.556764 L53.0960693,98.691968 L52.8255318,96.935133 L55.3935942,94.9083442 L53.501285,94.3677096 L54.9881058,91.9355812 L54.3121708,90.5840858 L52.5556303,91.8003772 L52.014646,90.3139503 L49.8523445,89.5030893 L47.8252664,88.4220929 L48.0957131,87.6113228 L50.1227912,87.0709609 L51.6094303,87.4763914 C51.6094303,87.4763914 52.5556303,88.4220929 53.0960693,87.6113228 C53.6365084,86.8004619 54.1772201,84.638469 54.1772201,84.638469 L52.9607551,82.7469751 L54.9881058,81.2605482 L54.3121708,79.6389173 L53.7717318,78.9633513 L52.1498693,79.2334868 L52.2850927,77.2065162 L49.9875679,77.3417203 L48.3657055,76.2607239 L47.2848274,77.7471508 L46.0684533,76.2607239 L45.2574766,77.4769244 L44.4465909,76.3959279 L41.2031387,76.2607239 L38.3649022,75.7200893 L38.2298606,74.5041614 L39.3110113,73.9635269 L40.9328737,75.0445234 L42.5547361,73.6933005 L44.0411026,74.774297 L46.8793391,74.774297 L48.5009288,73.9635269 L49.8523445,72.4771 L49.7173029,70.9906731 L47.6900431,70.044699 L45.662965,71.9367381 L44.9873026,70.5855152 L43.2303985,70.179903 L43.6356142,68.9638843 L43.9061518,66.8018914 L41.8788011,67.3422533 L39.8514504,65.9911213 L37.8243723,64.6396259 L36.4730474,66.9369137 L33.6350836,65.3155553 L33.6350836,66.9369137 L32.2833953,67.0721178 L31.8779978,68.2883183 L29.4454314,66.9369137 L28.769769,69.3690421 L27.0126832,67.8827061 L25.9317142,68.5582721 L24.0394051,68.4232497 L23.4989661,69.6395411 L24.4451661,70.4503112 L22.6880803,70.5855152 L21.6069296,71.3961036 L20.1202905,70.4503112 C19.1740905,69.9099492 18.0932124,70.044699 18.0932124,70.044699 L16.2009033,71.6662391 L14.8494876,71.9367381 L15.7956876,73.6933005 L16.6065734,74.6390929 L13.4981628,72.7475081 L11.6060354,74.233935 L11.0653237,75.5851579 L12.5519628,75.9904975 L11.6060354,77.2065162 L11.7409861,78.5579208 L10.254438,77.8820822 L9.71399891,79.0985553 C9.17355985,79.7741213 7.82187153,80.1792792 7.82187153,80.1792792 L8.90302226,81.2605482 C8.90302226,81.2605482 8.63284818,81.2602756 7.82187153,81.6657061 C7.01098577,82.0713183 7.55169745,82.8821792 7.55169745,82.8821792 L8.76779891,83.6924949 L7.95709489,84.908968 L9.57868467,86.3953041 L10.1193964,87.4763914 L8.63284818,88.0167533 L6.7407208,87.881731 L6.87594416,89.2329538 L7.6869208,89.7735883 L6.60549745,91.5301508 L8.76779891,92.2057168 L10.1193964,92.2057168 L11.4710847,91.8003772 L13.3628485,91.9355812 L15.1199343,91.9355812 L15.7956876,93.0163051 L14.7142642,93.8270751 L12.8224095,93.9623701 L10.3896613,93.9623701 L8.76779891,95.313502 L10.254438,96.3947711 L9.30851058,98.016402 L10.660108,98.691968 L10.254438,100.583553 L10.5248847,101.934957 L12.0115237,101.799753 L13.7686095,102.205184 L15.2549759,101.124187 L17.6874515,101.394323 L19.5795788,100.853961 L21.8771036,101.394323 L23.9041818,100.718757 L25.9317142,101.529527 L27.9587923,102.340388 L28.769769,101.124187 L29.5806547,98.9619218 L32.0132212,99.367534 L33.0943719,98.9619218 L34.851185,98.9619218 L36.0675591,97.610699 L38.0949099,98.8269904 L39.3110113,98.8269904 L40.5272036,98.016402 L41.7438504,97.610699 L42.4195128,96.5299751 Z" id="Fill-2177" fill="#FEFEFE" mask="url(#mask-2)"></path>
        </g>
    </g>
</svg>