<?xml version="1.0" encoding="UTF-8"?>
<svg width="20px" height="20px" viewBox="0 0 20 20" version="1.1" xmlns="http://www.w3.org/2000/svg" xmlns:xlink="http://www.w3.org/1999/xlink">
    <!-- Generator: Sketch 51.2 (57519) - http://www.bohemiancoding.com/sketch -->
    <title>Shape</title>
    <desc>Created with Sketch.</desc>
    <defs></defs>
    <g id="margeo" stroke-width="1" fill-rule="evenodd">
        <g id="margeo-company" transform="translate(-414.000000, -1352.000000)" fill-rule="nonzero">
            <g id="Group-3" transform="translate(400.000000, 1338.000000)">
                <path d="M22.7270333,14 C17.9157355,14.0008572 14.0017528,17.8521026 14,22.5851282 C14,27.3147092 17.9157355,31.1634557 22.7252804,31.1634557 C24.7299871,31.1634557 26.5744835,30.4888844 28.0495653,29.3677822 L32.5054522,33.747767 C32.676151,33.9156354 32.9002595,34 33.1243585,34 C33.348467,34 33.5725755,33.9156354 33.7432838,33.747767 C34.0855721,33.4111704 34.0855721,32.8661573 33.7432838,32.5304206 L29.3215537,28.1840946 C30.6460612,26.679306 31.4540665,24.7247163 31.4540665,22.5834064 C31.4540665,17.8512417 27.5365782,14 22.7270333,14 Z M22.7270333,15.7217247 C26.5718685,15.7217247 29.7014761,18.7991386 29.7032289,22.5817703 C29.7032289,26.363542 26.5727307,29.4400949 22.7252804,29.4400949 C18.8795735,29.4400949 15.7525905,26.3651781 15.7508282,22.5851282 C15.7508282,18.8016356 18.8813264,15.7225857 22.7270333,15.7217247 Z M22.7270333,18.2320882 C22.2429255,18.2320882 21.8516145,18.6177545 21.8516145,19.0929519 L21.8516145,21.6217366 L19.2796489,21.6217366 C18.7955317,21.6217366 18.40423,22.007403 18.40423,22.4825985 C18.40423,22.957796 18.7955317,23.3434623 19.2796489,23.3434623 L21.8516145,23.3434623 L21.8516145,25.872248 C21.8516145,26.3474435 22.2429255,26.7331108 22.7270333,26.7331108 C23.2111315,26.7331108 23.6024521,26.3474435 23.6024521,25.872248 L23.6024521,23.3434623 L26.173546,23.3434623 C26.6576537,23.3434623 27.0489648,22.957796 27.0489648,22.4825985 C27.0489648,22.007403 26.6576537,21.6217366 26.173546,21.6217366 L23.6024521,21.6217366 L23.6024521,19.0929519 C23.6024521,18.6177545 23.2111315,18.2320882 22.7270333,18.2320882 Z" id="Shape"></path>
            </g>
        </g>
    </g>
</svg>
