<?xml version="1.0" encoding="UTF-8"?>
<svg width="250px" height="180px" viewBox="0 0 250 180" version="1.1" xmlns="http://www.w3.org/2000/svg" xmlns:xlink="http://www.w3.org/1999/xlink">
    <!-- Generator: Sketch 51.2 (57519) - http://www.bohemiancoding.com/sketch -->
    <title>1-2</title>
    <desc>Created with Sketch.</desc>
    <defs>
        <polygon id="path-1" points="0.327649635 0.156016677 247.135168 0.156016677 247.135168 170.918015 0.327649635 170.918015"></polygon>
    </defs>
    <g id="1-2" stroke="none" stroke-width="1" fill="none" fill-rule="evenodd">
        <g id="Group" transform="translate(0.000000, 6.000000)">
            <g id="Group-2320" transform="translate(0.000000, 0.922222)">
                <mask id="mask-2" fill="white">
                    <use xlink:href="#path-1"></use>
                </mask>
                <g id="Clip-2181"></g>
                <path d="M0.706347445,50.142082 C0.706347445,50.142082 20.3914832,50.5269618 34.8766745,55.9140109 C49.3618657,61.3009695 84.646473,66.6879281 96.9031942,67.0725363 C109.159825,67.457235 130.330698,60.1466018 150.015743,50.9115699 C169.700788,41.6766286 180.843229,28.594157 207.956689,23.5919876 C235.070149,18.5899087 253.269366,28.9790368 253.269366,28.9790368 L253.269366,190.556748 L-9.56854599,190.556748 L0.706347445,50.142082 Z" id="Fill-2180" fill="#94B752" mask="url(#mask-2)"></path>
                <path d="M253.269366,28.9846261 C253.269366,28.9846261 235.070149,18.5955201 207.956689,23.5976128 C180.843229,28.5997055 169.700788,41.6822243 150.015743,50.9169435 C130.330698,60.151944 109.159825,67.4625289 96.9031942,67.0778896 C84.646473,66.6932503 49.3618657,61.3063308 34.8766745,55.9193175 C20.3914832,50.5323042 0.706347445,50.1474774 0.706347445,50.1474774" id="Stroke-2182" stroke="#151616" stroke-width="0.640595064" stroke-linejoin="round" mask="url(#mask-2)"></path>
                <path d="M254.012371,36.2954923 C254.012371,36.2954923 229.499019,27.8302393 212.41372,30.9084791 C195.328511,33.9867188 168.586508,48.6084513 153.358584,54.7649307 C138.130569,60.9214102 116.588511,71.6954367 99.5032117,73.6192897 C82.4179124,75.5431426 53.8187153,68.2319951 37.8479679,62.4604363 C21.8772204,56.6887837 15.9346336,55.14957 9.24904234,53.2257171 C2.56345109,51.3017704 -2.26494599,51.686691 -2.26494599,51.686691" id="Stroke-2183" stroke="#151616" stroke-width="0.640595064" stroke-linejoin="round" mask="url(#mask-2)"></path>
                <path d="M254.012371,45.5302115 C254.012371,45.5302115 225.041988,39.3737321 200.899822,45.9148508 C176.757655,52.4561571 144.816161,72.4649029 121.416818,76.6975294 C98.0173839,80.9301559 61.6185869,84.7784244 36.7336876,73.6192897 C11.8487883,62.4604363 9.24904234,60.9211289 2.19217518,60.5365833 C-4.86469197,60.151944 -1.89339854,60.5365833 -1.89339854,60.5365833" id="Stroke-2184" stroke="#151616" stroke-width="0.640595064" stroke-linejoin="round" mask="url(#mask-2)"></path>
                <path d="M254.755194,67.4628102 C254.755194,67.4628102 222.813156,61.3063308 200.528274,65.5389573 C178.243483,69.77149 141.47341,85.547328 116.216964,88.2413035 C90.9606073,90.9349039 51.2191504,94.0131436 34.1339416,86.7022774 C17.0486423,79.3911298 6.64920584,76.3128901 1.07789489,75.1585033 C-4.49341606,74.0041165 -2.63640292,74.7736765 -2.63640292,74.7736765" id="Stroke-2185" stroke="#151616" stroke-width="0.640595064" stroke-linejoin="round" mask="url(#mask-2)"></path>
                <path d="M254.012371,95.5523572 C254.012371,95.5523572 219.09913,84.3935038 193.471407,87.8566642 C167.843775,91.3197307 161.158184,91.3197307 161.158184,91.3197307 C161.158184,91.3197307 138.130298,89.0107696 119.93099,92.8587568 C101.731772,96.706744 90.5893314,109.789263 68.6757255,110.943556 C46.7621197,112.097943 27.4483504,106.326103 15.1916292,102.478397 C2.93490803,98.630597 -1.89339854,95.9369966 -1.89339854,95.9369966" id="Stroke-2186" stroke="#151616" stroke-width="0.640595064" stroke-linejoin="round" mask="url(#mask-2)"></path>
                <path d="M254.012371,103.632783 C254.012371,103.632783 222.44188,109.404624 194.585688,100.939371 C166.729495,92.4741175 145.867355,90.1651564 134.353638,90.5499833 C122.840012,90.9349039 119.985387,93.1787895 119.985387,93.1787895" id="Stroke-2187" stroke="#151616" stroke-width="0.640595064" stroke-linejoin="round" mask="url(#mask-2)"></path>
                <path d="M253.640914,129.798196 C253.640914,129.798196 193.471226,128.643809 174.529185,123.256796 C155.587054,117.869877 130.701974,112.098224 109.531372,115.94593 C88.3607708,119.79373 42.6762745,130.952583 24.4769664,127.489423 C6.27774891,124.026356 -1.15066569,119.024263 -1.15066569,119.024263" id="Stroke-2188" stroke="#151616" stroke-width="0.640595064" stroke-linejoin="round" mask="url(#mask-2)"></path>
                <path d="M254.755194,160.965795 C254.755194,160.965795 193.842955,164.044035 160.415451,156.348248 C126.987857,148.652555 110.645653,146.344063 89.846327,148.267916 C69.0470015,150.191769 37.8479679,155.193861 22.6199533,156.348248 C7.3920292,157.502635 -0.779118248,155.578782 -0.779118248,155.578782" id="Stroke-2189" stroke="#151616" stroke-width="0.640595064" stroke-linejoin="round" mask="url(#mask-2)"></path>
                <path d="M252.155358,27.0604919 C252.155358,27.0604919 247.327051,31.2933997 247.698327,63.2301837 C248.069603,95.1675304 247.32678,104.40225 247.32678,104.40225 C247.948952,126.308218 235.022088,159.796781 227.048797,179.951899" id="Stroke-2190" stroke="#151616" stroke-width="0.640595064" stroke-linejoin="round" mask="url(#mask-2)"></path>
                <path d="M241.75574,24.367079 C232.787734,35.5156179 228.48765,87.6235551 226.899001,104.787076 C226.899001,104.787076 217.241845,114.406998 209.813702,127.874343 C202.385559,141.341689 197.185524,151.346156 193.471407,158.657022 C189.757381,165.967888 185.30035,173.663394 185.30035,173.663394" id="Stroke-2191" stroke="#151616" stroke-width="0.640595064" stroke-linejoin="round" mask="url(#mask-2)"></path>
                <path d="M227.270458,23.5976128 C227.270458,23.5976128 217.613574,28.5999868 213.156543,46.2996777 C208.699422,63.9996499 204.985396,87.0871042 203.128382,94.3979705 C201.271279,101.708837 199.413994,103.247863 199.413994,103.247863 C199.413994,103.247863 188.642829,100.169904 172.672082,120.178556 C156.701334,140.187302 144.444432,157.887274 139.616126,163.659114 C134.787728,169.431048 132.187711,172.509007 132.187711,172.509007" id="Stroke-2192" stroke="#F17E00" stroke-width="2.48536784" stroke-linejoin="round" mask="url(#mask-2)"></path>
                <path d="M215.013556,23.212786 C215.013556,23.212786 203.499568,26.2910257 197.556981,47.8387038 C191.614394,69.3866632 190.500114,82.4690883 188.271644,87.4717435 C186.043083,92.4741175 181.586234,97.4762102 181.586234,97.4762102" id="Stroke-2193" stroke="#151616" stroke-width="0.640595064" stroke-linejoin="round" mask="url(#mask-2)"></path>
                <path d="M196.814248,26.2910257 C196.814248,26.2910257 187.528639,32.8320507 183.814523,44.3758247 C178.096946,62.1464986 174.240727,79.5120915 159.672628,92.0892907" id="Stroke-2194" stroke="#151616" stroke-width="0.640595064" stroke-linejoin="round" mask="url(#mask-2)"></path>
                <path d="M177.50066,34.7561849 C177.50066,34.7561849 170.814797,40.9127582 165.243758,52.0713303 C155.92475,70.7372141 149.418461,81.0289882 130.330698,90.5499833" id="Stroke-2195" stroke="#151616" stroke-width="0.640595064" stroke-linejoin="round" mask="url(#mask-2)"></path>
                <path d="M157.815615,47.0692376 C136.592155,60.6500435 134.857784,80.3836718 109.581606,88.1203418 C97.6336175,91.7772283 57.0827212,92.6075504 39.9471883,88.7558125" id="Stroke-2196" stroke="#151616" stroke-width="0.640595064" stroke-linejoin="round" mask="url(#mask-2)"></path>
                <path d="M143.78325,81.786827 C143.78325,81.786827 138.092102,86.6599877 133.426715,89.0110509 C128.761238,91.3617391 128.473685,90.5499833 120.302537,94.7826098 C112.13139,99.0152363 97.2746511,108.634876 89.846327,115.561103 C82.4179124,122.48733 70.5327387,131.722049 70.5327387,131.722049 C70.5327387,131.722049 31.905381,154.424114 25.9627942,158.272101 C20.0202073,162.120182 2.93517956,171.739728 0.335162044,172.893834 C-2.26494599,174.047939 -1.89339854,174.43286 -1.89339854,174.43286" id="Stroke-2197" stroke="#151616" stroke-width="0.640595064" stroke-linejoin="round" mask="url(#mask-2)"></path>
                <path d="M131.816435,58.2278098 C131.816435,58.2278098 125.50212,62.4604363 116.588239,69.3866632 C92.156438,88.3707043 39.6131124,95.1675304 10.3633226,95.1675304 C1.82062774,95.1675304 -2.63640292,95.5523572 -2.63640292,95.5523572" id="Stroke-2198" stroke="#151616" stroke-width="0.640595064" stroke-linejoin="round" mask="url(#mask-2)"></path>
                <path d="M106.188531,66.3084235 C82.4176409,79.3916924 49.3927299,75.9424099 22.9915007,77.0823563 C14.0773489,77.4672769 -1.15066569,79.006303 -1.15066569,79.006303" id="Stroke-2199" stroke="#151616" stroke-width="0.640595064" stroke-linejoin="round" mask="url(#mask-2)"></path>
                <path d="M78.7038861,64.7691161 C78.7038861,64.7691161 31.5341051,66.3084235 20.7629401,67.4628102 C9.99177518,68.617197 -1.15066569,69.77149 -1.15066569,69.77149" id="Stroke-2200" stroke="#151616" stroke-width="0.640595064" stroke-linejoin="round" mask="url(#mask-2)"></path>
                <path d="M54.5617197,61.6908763 C54.5617197,61.6908763 25.9625226,62.4607176 18.1629226,63.2301837 C10.3633226,63.9996499 -1.15066569,64.7691161 -1.15066569,64.7691161" id="Stroke-2201" stroke="#151616" stroke-width="0.640595064" stroke-linejoin="round" mask="url(#mask-2)"></path>
                <path d="M33.7623942,55.9193175 C33.7623942,55.9193175 18.1629226,56.3039568 14.4488964,56.3039568 C10.7347796,56.3039568 -0.779118248,55.9193175 -0.779118248,55.9193175" id="Stroke-2202" stroke="#151616" stroke-width="0.640595064" stroke-linejoin="round" mask="url(#mask-2)"></path>
                <path d="M161.128406,91.2272748 C161.128406,91.2272748 153.081439,96.669049 136.08828,113.43546 C119.095121,130.201683 113.430674,139.42365 103.720117,146.968375 C84.9145664,161.580262 62.392365,173.041613 42.3301606,188.380489" id="Stroke-2203" stroke="#151616" stroke-width="0.640595064" stroke-linejoin="round" mask="url(#mask-2)"></path>
                <polygon id="Stroke-2204" stroke="#151616" stroke-width="1.9216948" stroke-linejoin="round" mask="url(#mask-2)" points="71.0595124 150.385039 64.8269285 150.385039 64.8269285 188.721255 71.0595124 188.721255"></polygon>
                <polygon id="Fill-2205" fill="#F3D53E" mask="url(#mask-2)" points="71.0595124 150.381711 64.8269285 150.381711 64.8269285 188.718069 71.0595124 188.718069"></polygon>
                <polygon id="Stroke-2206" stroke="#151616" stroke-width="1.9216948" stroke-linejoin="round" mask="url(#mask-2)" points="47.1905985 149.055011 40.9581051 149.055011 40.9581051 189.043446 47.1905985 189.043446"></polygon>
                <polygon id="Fill-2207" fill="#F3D53E" mask="url(#mask-2)" points="47.1905985 149.055451 40.9581051 149.055451 40.9581051 189.043932 47.1905985 189.043932"></polygon>
                <path d="M107.636616,66.0920052 C83.8657255,79.1750867 50.8407241,75.7259917 24.4395854,76.8660318 C15.5254336,77.2509524 0.297418978,78.7898848 0.297418978,78.7898848" id="Stroke-2208" stroke="#151616" stroke-width="0.640595064" stroke-linejoin="round" mask="url(#mask-2)"></path>
                <path d="M80.1519708,64.5527916 C80.1519708,64.5527916 32.9821898,66.0920052 22.2110248,67.246392 C11.4398599,68.4007788 0.297418978,69.5551656 0.297418978,69.5551656" id="Stroke-2209" stroke="#151616" stroke-width="0.640595064" stroke-linejoin="round" mask="url(#mask-2)"></path>
                <path d="M56.0098044,61.4745519 C56.0098044,61.4745519 27.4106073,62.2442993 19.6110073,63.0137655 C11.8113168,63.7833254 0.297418978,64.5527916 0.297418978,64.5527916" id="Stroke-2210" stroke="#151616" stroke-width="0.640595064" stroke-linejoin="round" mask="url(#mask-2)"></path>
                <path d="M35.2104788,55.702993 C35.2104788,55.702993 19.6110073,56.0875386 15.8968905,56.0875386 C12.1828642,56.0875386 0.668966423,55.702993 0.668966423,55.702993" id="Stroke-2211" stroke="#151616" stroke-width="0.640595064" stroke-linejoin="round" mask="url(#mask-2)"></path>
                <path d="M76.8253286,139.817033 C78.097958,138.874347 79.80235,139.361111 80.6328319,140.905117 C81.4633139,142.449019 81.1044559,144.464577 79.832351,145.407577 C78.5600362,146.350577 76.8550149,145.863394 76.0248476,144.320122 C75.1943656,142.776115 75.5529089,140.759927 76.8253286,139.817033 Z" id="Stroke-2212" stroke="#151616" stroke-width="1.10538127" stroke-linejoin="round" mask="url(#mask-2)"></path>
                <path d="M76.8235212,139.824583 C78.0961051,138.881845 79.8006978,139.368647 80.6309547,140.912511 C81.4614832,142.456375 81.1027883,144.472106 79.8304759,145.415025 C78.5581635,146.358035 76.8532993,145.870961 76.0230423,144.32764 C75.1925139,142.783505 75.5512088,140.767502 76.8235212,139.824583" id="Fill-2213" fill="#FEFEFE" mask="url(#mask-2)"></path>
                <path d="M81.3491843,141.695479 C81.5204836,142.114473 81.6102768,142.5427 81.6102768,142.978689 C81.6102768,147.751177 70.9698904,151.621473 57.8445618,151.621473 C44.7179745,151.621473 34.0782175,147.751177 34.0782175,142.978689 C34.0782175,142.5427 34.1680107,142.114473 34.33931,141.695479 L34.33931,132.19383 L81.3491843,132.19383 L81.3491843,141.695479 Z" id="Stroke-2214" stroke="#151616" stroke-width="1.65802671" stroke-linejoin="round" mask="url(#mask-2)"></path>
                <path d="M81.3472584,141.702999 C81.5186861,142.121823 81.608473,142.55006 81.608473,142.985992 C81.608473,147.7587 70.9680964,151.628769 57.8427416,151.628769 C44.7163007,151.628769 34.0764672,147.7587 34.0764672,142.985992 C34.0764672,142.55006 34.166254,142.121823 34.3375912,141.702999 L34.3375912,132.201484 L81.3472584,132.201484 L81.3472584,141.702999 Z" id="Fill-2215" fill="#AEAFB0" mask="url(#mask-2)"></path>
                <path d="M69.63621,150.483977 C66.1611302,151.207829 62.1358574,151.621473 57.8445618,151.621473 C50.867758,151.621473 44.5939844,150.528038 40.2458338,148.787228 L40.2458338,141.267568 C46.1233006,144.066144 59.7677722,145.72817 69.63621,142.719047 L69.63621,150.483977 Z" id="Stroke-2216" stroke="#151616" stroke-width="1.65802671" stroke-linejoin="round" mask="url(#mask-2)"></path>
                <path d="M69.634508,150.491328 C66.1593401,151.215105 62.1340467,151.628769 57.8427416,151.628769 C50.8661577,151.628769 44.5923007,150.53541 40.2443358,148.79449 L40.2443358,141.275033 C46.1217547,144.073648 59.7659182,145.735547 69.634508,142.726569 L69.634508,150.491328 Z" id="Fill-2217" fill="#F3D53E" mask="url(#mask-2)"></path>
                <path d="M57.8445618,123.812471 C70.9698904,123.812471 81.6102768,127.681824 81.6102768,132.45557 C81.6102768,137.228058 70.9698904,141.098354 57.8445618,141.098354 C44.7179745,141.098354 34.0782175,137.228058 34.0782175,132.45557 C34.0782175,127.681824 44.7179745,123.812471 57.8445618,123.812471 Z" id="Stroke-2218" stroke="#151616" stroke-width="1.65802671" stroke-linejoin="round" mask="url(#mask-2)"></path>
                <path d="M57.8427416,123.81985 C70.9680964,123.81985 81.608473,127.689376 81.608473,132.462898 C81.608473,137.235606 70.9680964,141.105675 57.8427416,141.105675 C44.7163007,141.105675 34.0764672,137.235606 34.0764672,132.462898 C34.0764672,127.689376 44.7163007,123.81985 57.8427416,123.81985" id="Fill-2219" fill="#EBEBEB" mask="url(#mask-2)"></path>
                <path d="M48.0928761,128.534394 C48.1377727,128.644441 48.1615847,128.756585 48.1615847,128.870723 C48.1615847,130.120888 45.3745346,131.134594 41.9362742,131.134594 C38.4976991,131.134594 35.7109637,130.120888 35.7109637,128.870723 C35.7109637,128.756585 35.734461,128.644441 35.7796723,128.534394 L35.7796723,126.04571 L48.0928761,126.04571 L48.0928761,128.534394 Z" id="Stroke-2220" stroke="#151616" stroke-width="1.10538127" stroke-linejoin="round" mask="url(#mask-2)"></path>
                <path d="M48.091092,128.541778 C48.1360759,128.651847 48.1598803,128.763998 48.1598803,128.87814 C48.1598803,130.128275 45.3727766,131.141979 41.9345372,131.141979 C38.4960263,131.141979 35.7091942,130.128275 35.7091942,128.87814 C35.7091942,128.763998 35.7328175,128.651847 35.7779825,128.541778 L35.7779825,126.053184 L48.091092,126.053184 L48.091092,128.541778 Z" id="Fill-2221" fill="#AEAFB0" mask="url(#mask-2)"></path>
                <path d="M41.9362742,123.849923 C45.3745346,123.849923 48.1615847,124.863944 48.1615847,126.113794 C48.1615847,127.364588 45.3745346,128.378294 41.9362742,128.378294 C38.4976991,128.378294 35.7109637,127.364588 35.7109637,126.113794 C35.7109637,124.863944 38.4976991,123.849923 41.9362742,123.849923 Z" id="Stroke-2222" stroke="#151616" stroke-width="1.10538127" stroke-linejoin="round" mask="url(#mask-2)"></path>
                <path d="M41.9345372,123.857596 C45.3727766,123.857596 48.1598803,124.871299 48.1598803,126.121434 C48.1598803,127.372022 45.3727766,128.385816 41.9345372,128.385816 C38.4960263,128.385816 35.7091942,127.372022 35.7091942,126.121434 C35.7091942,124.871299 38.4960263,123.857596 41.9345372,123.857596" id="Fill-2223" fill="#EBEBEB" mask="url(#mask-2)"></path>
                <path d="M81.4743283,131.618735 C81.5192249,131.728467 81.5430368,131.840611 81.5430368,131.954749 C81.5430368,133.205228 78.7559867,134.218935 75.3177263,134.218935 C71.8791512,134.218935 69.0924158,133.205228 69.0924158,131.954749 C69.0924158,131.840611 69.1155984,131.728467 69.1611244,131.618735 L69.1611244,129.129736 L81.4743283,129.129736 L81.4743283,131.618735 Z" id="Stroke-2224" stroke="#151616" stroke-width="1.10538127" stroke-linejoin="round" mask="url(#mask-2)"></path>
                <path d="M81.4725255,131.626156 C81.517419,131.736044 81.5412234,131.848105 81.5412234,131.962337 C81.5412234,133.212653 78.7541197,134.226448 75.3158803,134.226448 C71.8773693,134.226448 69.0906277,133.212653 69.0906277,131.962337 C69.0906277,131.848105 69.1138891,131.736044 69.1593255,131.626156 L69.1593255,129.137291 L81.4725255,129.137291 L81.4725255,131.626156 Z" id="Fill-2225" fill="#AEAFB0" mask="url(#mask-2)"></path>
                <path d="M75.3177263,126.934578 C78.7559867,126.934578 81.5430368,127.948285 81.5430368,129.198449 C81.5430368,130.448614 78.7559867,131.46232 75.3177263,131.46232 C71.8791512,131.46232 69.0924158,130.448614 69.0924158,129.198449 C69.0924158,127.948285 71.8791512,126.934578 75.3177263,126.934578 Z" id="Stroke-2226" stroke="#151616" stroke-width="1.10538127" stroke-linejoin="round" mask="url(#mask-2)"></path>
                <path d="M75.3158803,126.941974 C78.7541197,126.941974 81.5412234,127.955768 81.5412234,129.205813 C81.5412234,130.456129 78.7541197,131.469923 75.3158803,131.469923 C71.8773693,131.469923 69.0906277,130.456129 69.0906277,129.205813 C69.0906277,127.955768 71.8773693,126.941974 75.3158803,126.941974" id="Fill-2227" fill="#EBEBEB" mask="url(#mask-2)"></path>
                <path d="M58.6152516,137.242955 C58.6601482,137.353316 58.6839602,137.465355 58.6839602,137.579598 C58.6839602,138.829448 55.8969101,139.843154 52.4586497,139.843154 C49.0200746,139.843154 46.2333392,138.829448 46.2333392,137.579598 C46.2333392,137.465355 46.2568365,137.353316 46.3019429,137.242955 L46.3019429,134.754585 L58.6152516,134.754585 L58.6152516,137.242955 Z" id="Stroke-2228" stroke="#151616" stroke-width="1.10538127" stroke-linejoin="round" mask="url(#mask-2)"></path>
                <path d="M58.6134423,137.250542 C58.6583358,137.360611 58.6822307,137.472762 58.6822307,137.586904 C58.6822307,138.836949 55.895127,139.850743 52.4568876,139.850743 C49.0183766,139.850743 46.2315445,138.836949 46.2315445,137.586904 C46.2315445,137.472762 46.2551679,137.360611 46.3003328,137.250542 L46.3003328,134.761948 L58.6134423,134.761948 L58.6134423,137.250542 Z" id="Fill-2229" fill="#AEAFB0" mask="url(#mask-2)"></path>
                <path d="M52.4586497,132.558798 C55.8969101,132.558798 58.6839602,133.572504 58.6839602,134.822669 C58.6839602,136.073358 55.8969101,137.087169 52.4586497,137.087169 C49.0200746,137.087169 46.2333392,136.073358 46.2333392,134.822669 C46.2333392,133.572504 49.0200746,132.558798 52.4586497,132.558798 Z" id="Stroke-2230" stroke="#151616" stroke-width="1.10538127" stroke-linejoin="round" mask="url(#mask-2)"></path>
                <path d="M52.4568876,132.566269 C55.895127,132.566269 58.6822307,133.580063 58.6822307,134.830198 C58.6822307,136.080786 55.895127,137.09449 52.4568876,137.09449 C49.0183766,137.09449 46.2315445,136.080786 46.2315445,134.830198 C46.2315445,133.580063 49.0183766,132.566269 52.4568876,132.566269" id="Fill-2231" fill="#EBEBEB" mask="url(#mask-2)"></path>
                <path d="M74.1717095,127.313079 L74.1717095,116.774329 L41.5158407,116.774329 L41.5158407,127.313079 C41.3968858,127.604298 41.3344711,127.901916 41.3344711,128.204675 C41.3344711,131.520019 48.725939,134.208549 57.8442471,134.208549 C66.9619259,134.208549 74.3530791,131.520019 74.3530791,128.204675 C74.3530791,127.901916 74.2912938,127.604298 74.1717095,127.313079 Z" id="Stroke-2232" stroke="#151616" stroke-width="1.65802671" stroke-linejoin="round" mask="url(#mask-2)"></path>
                <path d="M74.1701022,127.320699 L74.1701022,116.781764 L41.5142949,116.781764 L41.5142949,127.320699 C41.395273,127.611621 41.3329109,127.909333 41.3329109,128.212113 C41.3329109,131.527673 48.7243066,134.215857 57.8424701,134.215857 C66.9600905,134.215857 74.3514861,131.527673 74.3514861,128.212113 C74.3514861,127.909333 74.2893956,127.611621 74.1701022,127.320699" id="Fill-2233" fill="#676766" mask="url(#mask-2)"></path>
                <path d="M58.1234871,112.101397 C71.0010453,112.101397 81.4410754,115.380758 81.4410754,119.425933 C81.4410754,123.471422 71.0010453,126.750783 58.1234871,126.750783 C46.3103347,126.750783 36.5500474,123.990602 35.0169548,120.411734 L31.8989497,120.411734 C31.2813069,120.411734 30.7758007,119.906507 30.7758007,119.288506 L30.7758007,114.331384 C30.7758007,113.713697 31.2813069,113.208155 31.8989497,113.208155 L37.5824591,113.208155 C38.2004166,113.208155 38.7059228,113.713697 38.7059228,114.331384 L38.7059228,115.370058 C42.8850818,113.400028 50.0212265,112.101397 58.1234871,112.101397 Z" id="Stroke-2234" stroke="#151616" stroke-width="1.65802671" stroke-linejoin="round" mask="url(#mask-2)"></path>
                <path d="M58.1218774,112.109078 C70.9994131,112.109078 81.439127,115.388521 81.439127,119.43356 C81.439127,123.478871 70.9994131,126.758224 58.1218774,126.758224 C46.3084788,126.758224 36.5485022,123.998169 35.0152467,120.419385 L31.8974161,120.419385 C31.2795883,120.419385 30.7741752,119.913845 30.7741752,119.295974 L30.7741752,114.339063 C30.7741752,113.721192 31.2795883,113.215743 31.8974161,113.215743 L37.5808701,113.215743 C38.1986978,113.215743 38.7041109,113.721192 38.7041109,114.339063 L38.7041109,115.37775 C42.8833635,113.40764 50.0195182,112.109078 58.1218774,112.109078" id="Fill-2235" fill="#AEAFB0" mask="url(#mask-2)"></path>
                <path d="M58.0298127,107.976809 C45.1521496,107.976809 34.7121195,111.256275 34.7121195,115.301659 C34.7121195,119.346834 45.1521496,122.626299 58.0298127,122.626299 C69.8428602,122.626299 79.6034623,119.866328 81.1362402,116.287461 L84.2542453,116.287461 C84.871888,116.287461 85.3777089,115.781604 85.3777089,115.164022 L85.3777089,110.206795 C85.3777089,109.588899 84.871888,109.083672 84.2542453,109.083672 L78.5710506,109.083672 C77.9530931,109.083672 77.4473771,109.588899 77.4473771,110.206795 L77.4473771,111.245889 C73.2681132,109.275755 66.1322831,107.976809 58.0298127,107.976809 Z" id="Stroke-2236" stroke="#151616" stroke-width="1.65802671" stroke-linejoin="round" mask="url(#mask-2)"></path>
                <path d="M58.027927,107.984474 C45.1503912,107.984474 34.7106774,111.263918 34.7106774,115.309228 C34.7106774,119.354267 45.1503912,122.633711 58.027927,122.633711 C69.8413255,122.633711 79.6015737,119.873837 81.1345577,116.294962 L84.2523883,116.294962 C84.8702161,116.294962 85.3759007,115.789242 85.3759007,115.171461 L85.3759007,110.21446 C85.3759007,109.596588 84.8702161,109.091139 84.2523883,109.091139 L78.5692058,109.091139 C77.9513781,109.091139 77.4456934,109.596588 77.4456934,110.21446 L77.4456934,111.253327 C73.2664409,109.283308 66.1305577,107.984474 58.027927,107.984474" id="Fill-2237" fill="#FEFEFE" mask="url(#mask-2)"></path>
                <path d="M23.0340765,109.123536 C23.0340765,109.123536 21.3165722,108.69468 21.4598637,106.260967 C21.6028404,103.827043 22.0322952,101.679723 22.0322952,101.679723 L27.9010554,89.2258092 L29.6185597,87.6514851 L30.1909912,83.9293161 L36.489416,82.6408608 L40.9265206,81.2095236 L60.8227371,82.2116905 L61.8251478,86.2197283 L74.9939044,89.0830321 L72.130698,110.984463 L70.4352224,113.351247 L54.4422816,114.537209 L23.0340765,109.123536 Z" id="Stroke-2238" stroke="#151616" stroke-width="1.10538127" stroke-linejoin="round" mask="url(#mask-2)"></path>
                <path d="M23.0325022,109.131148 C23.0325022,109.131148 21.3150569,108.702186 21.4582453,106.268447 C21.601162,103.834707 22.0306365,101.687364 22.0306365,101.687364 L27.8993664,89.2335353 L29.6168117,87.6591671 L30.1894745,83.937094 L36.4876788,82.6485796 L40.9249781,81.2173194 L60.8211854,82.2192559 L61.8233226,86.2273638 L74.9921226,89.0906084 L72.1290803,110.992185 L70.4334482,113.35867 L54.4406161,114.544809 L23.0325022,109.131148 Z" id="Fill-2239" fill="#D8D8D9" mask="url(#mask-2)"></path>
                <polygon id="Stroke-2240" stroke="#151616" stroke-width="1.10538127" stroke-linejoin="round" mask="url(#mask-2)" points="55.6099076 27.4267457 63.5426521 27.9577798 62.8269292 83.0707655 55.6700145 82.7844771 51.0896185 76.4855025 51.0896185 34.542833"></polygon>
                <polygon id="Fill-2241" fill="#D8D8D9" mask="url(#mask-2)" points="55.6082978 27.4346299 63.5407679 27.9657856 62.8251883 83.078356 55.6683066 82.7919591 51.087819 76.4933098 51.087819 34.5507413"></polygon>
                <path d="M41.7852203,5.9127323 C41.7852203,5.9127323 35.3440285,4.91119492 34.4853288,6.48583367 C33.6265242,8.0600528 29.0461282,19.7985074 29.0461282,19.7985074 C29.0461282,19.7985074 28.9028368,22.375208 28.9028368,24.379227 C28.9028368,26.3835606 29.7618511,84.2157094 29.7618511,84.2157094 L38.9226432,84.0726176 L51.66205,26.5262328 L50.9466417,17.3651083 C50.9466417,17.3651083 41.7852203,6.0564535 41.7852203,5.9127323 Z" id="Stroke-2242" stroke="#151616" stroke-width="1.65802671" stroke-linejoin="round" mask="url(#mask-2)"></path>
                <path d="M41.783746,5.92073939 C41.783746,5.92073939 35.3423533,4.91907447 34.4835854,6.49371417 C33.624908,8.06817283 29.0444204,19.8063713 29.0444204,19.8063713 C29.0444204,19.8063713 28.9012321,22.383219 28.9012321,24.3871825 C28.9012321,26.391327 29.7602715,84.2234909 29.7602715,84.2234909 L38.9209752,84.0802924 L51.6602102,26.5342539 L50.9449022,17.3729031 C50.9449022,17.3729031 41.783746,6.06420938 41.783746,5.92073939" id="Fill-2243" fill="#F3D53E" mask="url(#mask-2)"></path>
                <path d="M80.0678482,0.764366452 C80.0678482,0.764366452 77.0242163,0.460139111 73.0673373,0.460139111 C69.1105633,0.460139111 67.5883801,-0.756980063 65.7624108,4.11275551 C63.9363365,8.9828058 62.1097377,12.6360516 62.1097377,16.5928954 C62.1097377,20.5497391 62.7186739,34.5520647 62.7186739,34.5520647 L61.501326,41.5527555 C61.501326,41.5527555 56.0226835,46.4228057 56.631305,54.6418745 C57.2400314,62.8605237 60.8927045,68.6435707 60.8927045,68.6435707 L60.5881839,87.5159466 L70.6214174,88.7298137 L70.0237053,113.389328 C70.0237053,113.389328 73.3718579,112.780559 77.0242163,111.56281 C80.6765746,110.345376 84.0244125,107.301529 84.0244125,107.301529 L84.6334536,67.730574 C84.6334536,67.730574 87.372565,55.8589937 86.7639435,51.5979226 C86.1549024,47.3366417 85.2420751,37.9004538 85.2420751,37.9004538 C85.2420751,37.9004538 85.5465956,20.5497391 84.6334536,14.4619402 C83.7202066,8.3741413 81.8936078,5.33050412 81.2851961,3.80831835 C80.6765746,2.28665712 80.0678482,0.764366452 80.0678482,0.764366452 Z" id="Stroke-2244" stroke="#151616" stroke-width="1.65802671" stroke-linejoin="round" mask="url(#mask-2)"></path>
                <path d="M80.0659854,0.772384486 C80.0659854,0.772384486 77.0223737,0.468065179 73.0655971,0.468065179 C69.1088204,0.468065179 67.5866073,-0.749121529 65.7606394,4.12080203 C63.934581,8.9908161 62.1081606,12.6440961 62.1081606,16.6008807 C62.1081606,20.5576653 62.7169372,34.5597025 62.7169372,34.5597025 L61.499565,41.5606758 C61.499565,41.5606758 56.0208467,46.4305994 56.6296234,54.6494836 C57.238219,62.8681868 60.8909693,68.6513398 60.8909693,68.6513398 L60.5864,87.5236627 L70.6197197,88.7375907 L70.0218949,113.396868 C70.0218949,113.396868 73.3700759,112.787958 77.0223737,111.5705 C80.6748526,110.353042 84.022762,107.309124 84.022762,107.309124 L84.6316292,67.7383819 C84.6316292,67.7383819 87.3706715,55.8667608 86.7620759,51.6056569 C86.1532993,47.3442815 85.2401343,37.90812 85.2401343,37.90812 C85.2401343,37.90812 85.5447036,20.5576653 84.6316292,14.4699214 C83.7184642,8.38217749 81.8919533,5.33835081 81.2833577,3.81630169 C80.6748526,2.2944336 80.0659854,0.772384486 80.0659854,0.772384486" id="Fill-2245" fill="#FAE016" mask="url(#mask-2)"></path>
                <path d="M66.691917,2.33417953 L41.6424533,5.48366685 C41.6424533,5.48366685 41.2127888,9.63500627 41.6424533,12.3550085 C42.0715934,15.0748009 43.2169808,16.2199546 43.9327038,17.0788199 C44.6484267,17.9375802 46.7949661,18.2239735 46.7949661,18.2239735 L61.6815417,16.9354134 C61.6815417,16.9354134 66.8348937,2.19119268 66.691917,2.33417953 Z" id="Stroke-2246" stroke="#151616" stroke-width="1.65802671" stroke-linejoin="round" mask="url(#mask-2)"></path>
                <path d="M66.6901869,2.34222676 L41.6408292,5.49150615 C41.6408292,5.49150615 41.2112642,9.64308407 41.6408292,12.3628587 C42.0700321,15.0826333 43.2153577,16.2277682 43.9309372,17.0865967 C44.6466978,17.9453348 46.7934365,18.2317316 46.7934365,18.2317316 L61.6799533,16.9433983 C61.6799533,16.9433983 66.8330131,2.19902832 66.6901869,2.34222676" id="Fill-2247" fill="#EDCD52" mask="url(#mask-2)"></path>
                <path d="M41.4988472,5.34036528 C41.4988472,5.34036528 38.6365848,8.91923277 37.6341741,12.7841789 C36.6324976,16.649125 35.9167747,19.0827339 35.9167747,21.3731461 C35.9167747,23.6637682 36.3461245,31.9663421 36.3461245,31.9663421" id="Stroke-2248" stroke="#151616" stroke-width="0.663373384" stroke-linejoin="round" mask="url(#mask-2)"></path>
                <path d="M77.632628,0.156016677 C77.632628,0.156016677 73.6760637,1.98180034 72.7629217,5.33050412 C71.8496747,8.67889317 70.3275965,13.5486287 70.3275965,15.0709194 C70.3275965,16.5928954 70.0237053,31.5081128 70.0237053,31.5081128 L69.7191848,40.3353216 C69.7191848,40.3353216 66.0668264,47.9449915 66.0668264,53.1195838 C66.0668264,58.294386 67.8929007,60.7298832 68.8060427,64.0779576 C69.7191848,67.4261368 70.6323268,68.9480079 70.6323268,68.9480079 L69.8541892,112.476121" id="Stroke-2249" stroke="#151616" stroke-width="0.663373384" stroke-linejoin="round" mask="url(#mask-2)"></path>
                <polyline id="Stroke-2250" stroke="#151616" stroke-width="0.552645438" stroke-linejoin="round" mask="url(#mask-2)" points="84.9801434 32.4986351 70.1052115 31.0570171 62.5679346 31.7364931"></polyline>
                <polyline id="Stroke-2251" stroke="#151616" stroke-width="0.552645438" stroke-linejoin="round" mask="url(#mask-2)" points="85.2343126 39.0480203 69.9528988 37.3017553 62.4154121 37.9461928"></polyline>
                <polygon id="Stroke-2252" stroke="#151616" stroke-width="1.65802671" stroke-linejoin="round" mask="url(#mask-2)" points="39.3523077 27.5287143 33.6714208 34.8600687 50.6602686 34.9725279 55.5269328 27.3854127"></polygon>
                <polygon id="Fill-2253" fill="#AEAFB0" mask="url(#mask-2)" points="39.3507212 27.5364619 33.6698015 34.867914 50.6586161 34.9802461 55.5251182 27.393354"></polygon>
                <polygon id="Stroke-2254" stroke="#151616" stroke-width="1.65802671" stroke-linejoin="round" mask="url(#mask-2)" points="33.6265242 34.8291214 50.9466417 34.8291214 50.9466417 76.056437 33.6265242 76.056437"></polygon>
                <polygon id="Fill-2255" fill="#C3C3C4" mask="url(#mask-2)" points="33.624908 34.8370476 50.9449022 34.8370476 50.9449022 76.0640766 33.624908 76.0640766"></polygon>
                <polygon id="Stroke-2256" stroke="#151616" stroke-width="1.65802671" stroke-linejoin="round" mask="url(#mask-2)" points="33.4832328 75.7590286 39.9247392 82.3547822 55.9022599 82.8165784 51.0896185 76.056437"></polygon>
                <polygon id="Fill-2257" fill="#AEAFB0" mask="url(#mask-2)" points="33.4817197 75.7667271 39.9231124 82.3624543 55.9004672 82.8242738 51.087819 76.0640766"></polygon>
                <path d="M53.8092188,114.563331 L70.2271037,113.197245 C70.2271037,113.197245 66.1194855,113.704466 62.5408708,113.990859 C58.9622561,114.277252 53.9525102,114.277252 53.9525102,114.277252 L54.7518373,111.293097 L61.2191488,97.2420947 C61.2191488,97.2420947 62.378278,93.8820611 60.0484808,93.14132 C57.7193129,92.4005788 32.6244282,89.2258092 32.6244282,89.2258092 C32.6244282,89.2258092 30.7639472,89.0828223 29.7618511,90.8006577 C28.7597551,92.5182833 23.7500092,105.401892 23.7500092,105.401892 L23.463741,109.123536 L53.8092188,114.563331 Z" id="Stroke-2258" stroke="#151616" stroke-width="1.10538127" stroke-linejoin="round" mask="url(#mask-2)"></path>
                <path d="M53.8074015,114.570969 L70.2253635,113.2047 C70.2253635,113.2047 66.1177051,113.711959 62.5391737,113.998356 C58.9605518,114.284662 53.9508613,114.284662 53.9508613,114.284662 L54.750073,111.300849 L61.2173518,97.2497511 C61.2173518,97.2497511 62.3765255,93.8897474 60.0468642,93.149044 C57.7174745,92.40825 32.6227708,89.2335353 32.6227708,89.2335353 C32.6227708,89.2335353 30.7624088,89.0903368 29.7602715,90.808175 C28.7580438,92.5260131 23.7483533,105.409437 23.7483533,105.409437 L23.4620672,109.131148 L53.8074015,114.570969 Z" id="Fill-2259" fill="#EBEBEB" mask="url(#mask-2)"></path>
                <path d="M41.6190161,43.8280448 C46.9345431,43.8280448 51.2430453,48.8265935 51.2430453,54.9928159 C51.2430453,61.1590383 46.9345431,66.157587 41.6190161,66.157587 C36.3042131,66.157587 31.9957109,61.1590383 31.9957109,54.9928159 C31.9957109,48.8265935 36.3042131,43.8280448 41.6190161,43.8280448" id="Fill-2260" fill="#151616" mask="url(#mask-2)"></path>
                <path d="M41.6205295,45.6059029 C46.0858518,45.6059029 49.7054818,49.8047647 49.7054818,54.985022 C49.7054818,60.1651743 46.0858518,64.3646656 41.6205295,64.3646656 C37.1560464,64.3646656 33.5364164,60.1651743 33.5364164,54.985022 C33.5364164,49.8047647 37.1560464,45.6059029 41.6205295,45.6059029 Z" id="Stroke-2261" stroke="#FEFEFE" stroke-width="1.10538127" stroke-linejoin="round" mask="url(#mask-2)"></path>
                <path d="M41.6192876,36.8302395 C43.4480613,36.8302395 44.9302686,38.549888 44.9302686,40.671343 C44.9302686,42.7927074 43.4480613,44.5123559 41.6192876,44.5123559 C39.7906949,44.5123559 38.3084876,42.7927074 38.3084876,40.671343 C38.3084876,38.549888 39.7906949,36.8302395 41.6192876,36.8302395" id="Fill-2262" fill="#151616" mask="url(#mask-2)"></path>
                <path d="M41.6208442,38.4300192 C42.6840961,38.4300192 43.5461525,39.4297731 43.5461525,40.6635724 C43.5461525,41.8967422 42.6840961,42.8971256 41.6208442,42.8971256 C40.5581168,42.8971256 39.6957457,41.8967422 39.6957457,40.6635724 C39.6957457,39.4297731 40.5581168,38.4300192 41.6208442,38.4300192 Z" id="Stroke-2263" stroke="#FEFEFE" stroke-width="1.10538127" stroke-linejoin="round" mask="url(#mask-2)"></path>
                <path d="M41.6192876,38.437737 C42.6824292,38.437737 43.544546,39.4376821 43.544546,40.671343 C43.544546,41.9047323 42.6824292,42.9048584 41.6192876,42.9048584 C40.556327,42.9048584 39.6942102,41.9047323 39.6942102,40.671343 C39.6942102,39.4376821 40.556327,38.437737 41.6192876,38.437737" id="Fill-2264" fill="#FEFEFE" mask="url(#mask-2)"></path>
                <path d="M34.8813209,91.7031639 L54.8460362,94.70337 C55.8841125,94.8591554 56.436823,95.8107575 56.0743985,96.8182745 L54.7568725,100.479808 C54.394343,101.486696 53.2486408,102.182537 52.2108793,102.027066 L32.2459542,99.0265454 C31.2075632,98.8710747 30.6548527,97.9191579 31.0172772,96.912585 L32.3348033,93.2510516 C32.6976474,92.2435346 33.8430349,91.5473785 34.8813209,91.7031639 Z" id="Stroke-2265" stroke="#151616" stroke-width="1.10538127" stroke-linejoin="round" mask="url(#mask-2)"></path>
                <path d="M34.8797518,91.7109044 L54.8444759,94.7111017 C55.8822745,94.8668821 56.4352058,95.8183099 56.072619,96.8258584 L54.7552321,100.487375 C54.3926453,101.4942 53.2468672,102.190278 52.2092496,102.034498 L32.2443445,99.0343006 C31.2060029,98.8785202 30.6530715,97.9269114 31.0155679,96.9199965 L32.3333168,93.2585699 C32.6959036,92.2512024 33.8414102,91.5551241 34.8797518,91.7109044" id="Fill-2266" fill="#AEAFB0" mask="url(#mask-2)"></path>
                <path d="M58.3502365,95.5359863 C59.0308788,95.5359863 59.4069518,96.1759439 59.1909927,96.9651646 C58.9744,97.7547474 58.2478686,98.3946145 57.5671358,98.3946145 C56.886765,98.3946145 56.5106015,97.7547474 56.7269226,96.9651646 C56.9429723,96.1759439 57.6700467,95.5359863 58.3502365,95.5359863" id="Fill-2267" fill="#151616" mask="url(#mask-2)"></path>
                <path d="M56.8105547,100.00184 C57.4911971,100.00184 57.8673606,100.641798 57.6513109,101.431019 C57.4348088,102.220602 56.7081869,102.860469 56.0275445,102.860469 C55.3470832,102.860469 54.9709197,102.220602 55.1869693,101.431019 C55.4032905,100.641798 56.130365,100.00184 56.8105547,100.00184" id="Fill-2268" fill="#151616" mask="url(#mask-2)"></path>
                <path d="M30.8572642,91.9314952 C31.3973431,91.9314952 31.6693285,92.5288191 31.4654073,93.2649967 C31.2619387,94.0016268 30.6586832,94.5986792 30.1191474,94.5986792 C29.5790686,94.5986792 29.3066307,94.0016268 29.5103708,93.2649967 C29.714292,92.5288191 30.3177285,91.9314952 30.8572642,91.9314952" id="Fill-2269" fill="#151616" mask="url(#mask-2)"></path>
                <path d="M29.4526248,96.0984611 C29.9927036,96.0984611 30.2648701,96.6955135 30.0612204,97.431691 C29.8572088,98.1683211 29.2540438,98.7653735 28.714508,98.7653735 C28.1744292,98.7653735 27.9021723,98.1683211 28.1061839,97.431691 C28.309562,96.6955135 28.9130891,96.0984611 29.4526248,96.0984611" id="Fill-2270" fill="#151616" mask="url(#mask-2)"></path>
                <path d="M81.67416,98.3349003 C81.4710764,98.4354002 81.2593911,98.489217 81.0414119,98.489217 C79.5532159,98.489217 78.3467774,96.0070366 78.3467774,92.9450409 C78.3467774,90.0432366 79.4300649,87.6621855 80.810635,87.4216361 L80.810635,87.2473873 L84.8138791,87.2473873 L84.8138791,98.3349003 L81.67416,98.3349003 Z" id="Stroke-2271" stroke="#151616" stroke-width="1.10538127" stroke-linejoin="round" mask="url(#mask-2)"></path>
                <path d="M81.6723737,98.342567 C81.4694482,98.4431318 81.2574715,98.4967181 81.0396117,98.4967181 C79.5513401,98.4967181 78.3449197,96.0145515 78.3449197,92.9527118 C78.3449197,90.0509974 79.4284263,87.6699387 80.8087182,87.4292531 L80.8087182,87.2550072 L84.8121985,87.2550072 L84.8121985,98.342567 L81.6723737,98.342567 Z" id="Fill-2272" fill="#AEAFB0" mask="url(#mask-2)"></path>
                <path d="M85.0449707,87.4013893 C86.532852,87.4013893 87.7395002,89.8835697 87.7395002,92.9450409 C87.7395002,96.0070366 86.532852,98.489217 85.0449707,98.489217 C83.5566698,98.489217 82.3500215,96.0070366 82.3500215,92.9450409 C82.3500215,89.8835697 83.5566698,87.4013893 85.0449707,87.4013893 Z" id="Stroke-2273" stroke="#151616" stroke-width="1.10538127" stroke-linejoin="round" mask="url(#mask-2)"></path>
                <path d="M85.043092,87.4089772 C86.5311825,87.4089772 87.7376029,89.8911438 87.7376029,92.9527118 C87.7376029,96.0145515 86.5311825,98.4967181 85.043092,98.4967181 C83.5548204,98.4967181 82.3484,96.0145515 82.3484,92.9527118 C82.3484,89.8911438 83.5548204,87.4089772 85.043092,87.4089772" id="Fill-2274" fill="#FEFEFE" mask="url(#mask-2)"></path>
                <path d="M86.350853,95.6466846 C86.2477377,95.6980885 86.1401117,95.7251542 86.029129,95.7251542 C85.2727055,95.7251542 84.6595733,94.4636598 84.6595733,92.9072747 C84.6595733,91.4326114 85.2102908,90.2223111 85.9120622,90.0994662 L85.9120622,90.0111353 L87.9467798,90.0111353 L87.9467798,95.6466846 L86.350853,95.6466846 Z" id="Stroke-2275" stroke="#151616" stroke-width="0.552645438" stroke-linejoin="round" mask="url(#mask-2)"></path>
                <path d="M86.3490745,95.6542925 C86.245892,95.7056158 86.1381839,95.7328615 86.027308,95.7328615 C85.270908,95.7328615 84.6577869,94.4712308 84.6577869,92.9150566 C84.6577869,91.440167 85.208365,90.2298597 85.9100964,90.1072087 L85.9100964,90.0186827 L87.944873,90.0186827 L87.944873,95.6542925 L86.3490745,95.6542925 Z" id="Fill-2276" fill="#EBEBEB" mask="url(#mask-2)"></path>
                <path d="M88.0642662,90.0897099 C88.8206898,90.0897099 89.4338219,91.3507847 89.4338219,92.9072747 C89.4338219,94.4636598 88.8206898,95.7251542 88.0642662,95.7251542 C87.3075279,95.7251542 86.6946056,94.4636598 86.6946056,92.9072747 C86.6946056,91.3507847 87.3075279,90.0897099 88.0642662,90.0897099 Z" id="Stroke-2277" stroke="#151616" stroke-width="1.10538127" stroke-linejoin="round" mask="url(#mask-2)"></path>
                <path d="M88.0623562,90.0971612 C88.8187562,90.0971612 89.4319679,91.3586109 89.4319679,92.9150566 C89.4319679,94.4712308 88.8187562,95.7328615 88.0623562,95.7328615 C87.3057752,95.7328615 86.692835,94.4712308 86.692835,92.9150566 C86.692835,91.3586109 87.3057752,90.0971612 88.0623562,90.0971612" id="Fill-2278" fill="#EBEBEB" mask="url(#mask-2)"></path>
                <polygon id="Stroke-2279" stroke="#151616" stroke-width="1.10538127" stroke-linejoin="round" mask="url(#mask-2)" points="62.5319544 33.102369 62.6841622 34.5838512 62.3285561 36.5155899 69.9517449 35.9053519 85.3009232 37.6333632 85.351799 33.8217093 69.9011838 32.4493293"></polygon>
                <polygon id="Fill-2280" fill="#151616" mask="url(#mask-2)" points="62.5302131 33.1102483 62.682362 34.5918361 62.3267445 36.5233857 69.9501197 35.9132083 85.2991474 37.6412749 85.3500146 33.8294991 69.8992526 32.4569846"></polygon>
                <path d="M30.0367825,99.9939654 L33.0296175,100.50041 C33.4407182,100.569927 33.6517898,100.983592 33.4983737,101.419523 L32.9406453,103.005477 C32.7869577,103.44168 32.3250803,103.741112 31.9136175,103.671595 L28.9209635,103.165059 C28.5095007,103.095542 28.2983387,102.681878 28.4522073,102.245675 L29.0100263,100.65972 C29.1634423,100.223789 29.6255007,99.9243576 30.0367825,99.9939654 Z M47.537165,108.374785 L50.529819,108.881501 C50.9413723,108.951019 51.1524438,109.364683 50.9990277,109.800614 L50.4407562,111.386569 C50.2873401,111.822772 49.8255533,112.122203 49.414,112.052595 L46.421165,111.545879 C46.0101547,111.476362 45.7989927,111.062969 45.9524088,110.626766 L46.5104088,109.040812 C46.6638248,108.60488 47.1257022,108.305177 47.537165,108.374785 Z M49.3365226,103.260465 L52.3293577,103.767271 C52.7409109,103.836789 52.9515299,104.250362 52.7986569,104.686384 L52.2402949,106.272248 C52.0868788,106.708451 51.6248204,107.007883 51.2135387,106.938365 L48.2207036,106.431649 C47.8091504,106.362132 47.5985314,105.948739 47.7519474,105.512536 L48.3099474,103.926582 C48.4631825,103.49065 48.9252409,103.190947 49.3365226,103.260465 Z M41.0709723,107.28043 L44.0638073,107.786875 C44.4750891,107.856483 44.6862511,108.270057 44.532835,108.705988 L43.9747445,110.291942 C43.8213285,110.728146 43.3595416,111.027577 42.9479883,110.95806 L39.9554248,110.451525 C39.5438715,110.382007 39.3327095,109.968433 39.4861255,109.53223 L40.0442161,107.946276 C40.1979036,107.510345 40.659419,107.210913 41.0709723,107.28043 Z M42.8705109,102.166201 L45.8630745,102.672645 C46.2746277,102.742162 46.4857898,103.155827 46.3323737,103.591758 L45.7743737,105.177713 C45.6208672,105.613916 45.1588088,105.913347 44.747527,105.84383 L41.754692,105.337295 C41.3434102,105.267777 41.1322482,104.854113 41.2856642,104.418001 L41.8437547,102.832046 C41.9974423,102.396024 42.4589577,102.096593 42.8705109,102.166201 Z M34.6052321,106.185804 L37.5980672,106.692611 C38.0093489,106.762128 38.2202394,107.175702 38.0668234,107.611633 L37.5090044,109.197588 C37.3554073,109.633791 36.8935299,109.933222 36.4819766,109.863705 L33.4894131,109.356989 C33.0778599,109.287381 32.8669693,108.874079 33.0206569,108.437876 L33.5784759,106.851921 C33.731892,106.41599 34.1936788,106.116287 34.6052321,106.185804 Z M36.4047708,101.071574 L39.3973343,101.57829 C39.8088876,101.647898 40.0197781,102.061472 39.866362,102.497404 L39.308362,104.083358 C39.154946,104.519561 38.6928876,104.818992 38.2816058,104.749475 L35.2886803,104.242668 C34.8774891,104.173151 34.666508,103.759849 34.8200146,103.323646 L35.3780146,101.737692 C35.5314307,101.30176 35.9932175,101.002057 36.4047708,101.071574 Z M28.2375153,105.108195 L31.2300788,105.614368 C31.6416321,105.684157 31.8522511,106.097821 31.6991066,106.533753 L31.1411066,108.119707 C30.9876,108.55591 30.5255416,108.855342 30.1142599,108.785824 L27.1214248,108.279289 C26.7098715,108.209772 26.4992526,107.796108 26.6526686,107.359724 L27.2107591,105.774041 C27.3639036,105.338109 27.825962,105.038678 28.2375153,105.108195 Z" id="Fill-2281" fill="#151616" mask="url(#mask-2)"></path>
                <path d="M84.2129152,108.927257 C85.1793457,108.927257 85.9625185,110.539347 85.9625185,112.52784 C85.9625185,114.516018 85.1793457,116.127794 84.2129152,116.127794 C83.2462749,116.127794 82.4629973,114.516018 82.4629973,112.52784 C82.4629973,110.539347 83.2462749,108.927257 84.2129152,108.927257 Z" id="Stroke-2282" stroke="#151616" stroke-width="1.10538127" stroke-linejoin="round" mask="url(#mask-2)"></path>
                <path d="M84.2111153,108.934906 C85.1775912,108.934906 85.960873,110.54702 85.960873,112.535234 C85.960873,114.523538 85.1775912,116.13538 84.2111153,116.13538 C83.2445489,116.13538 82.4612672,114.523538 82.4612672,112.535234 C82.4612672,110.54702 83.2445489,108.934906 84.2111153,108.934906" id="Fill-2283" fill="#EBEBEB" mask="url(#mask-2)"></path>
                <path d="M60.92837,93.1880031 C60.92837,93.1880031 63.1049104,94.4577851 62.9235408,96.9978736 C62.7421711,99.5377522 62.3791172,101.533379 62.3791172,101.533379 L57.8439324,111.87543 L56.9369794,114.234136" id="Stroke-2284" stroke="#151616" stroke-width="0.552645438" stroke-linejoin="round" mask="url(#mask-2)"></path>
                <path d="M78.8005686,122.531045 C78.684341,122.589058 78.5629734,122.619376 78.4381441,122.619376 C77.5859481,122.619376 76.8955057,121.198529 76.8955057,119.445865 C76.8955057,117.784469 77.515771,116.421006 78.3057621,116.283055 L78.3057621,116.183394 L80.5981105,116.183394 L80.5981105,122.531045 L78.8005686,122.531045 Z" id="Stroke-2285" stroke="#151616" stroke-width="1.10538127" stroke-linejoin="round" mask="url(#mask-2)"></path>
                <path d="M78.7988321,122.538758 C78.6826161,122.596417 78.5612409,122.627012 78.4362453,122.627012 C77.5841752,122.627012 76.8935766,121.206071 76.8935766,119.453293 C76.8935766,117.791938 77.5139387,116.428656 78.3040993,116.290617 L78.3040993,116.190867 L80.5962891,116.190867 L80.5962891,122.538758 L78.7988321,122.538758 Z" id="Fill-2286" fill="#FEFEFE" mask="url(#mask-2)"></path>
                <path d="M80.7300729,116.27141 C81.5822689,116.27141 82.273026,117.692886 82.273026,119.445865 C82.273026,121.198529 81.5822689,122.619376 80.7300729,122.619376 C79.8781916,122.619376 79.1871199,121.198529 79.1871199,119.445865 C79.1871199,117.692886 79.8781916,116.27141 80.7300729,116.27141 Z" id="Stroke-2287" stroke="#151616" stroke-width="1.10538127" stroke-linejoin="round" mask="url(#mask-2)"></path>
                <path d="M80.728435,116.279122 C81.5805051,116.279122 82.2711942,117.700334 82.2711942,119.453293 C82.2711942,121.206071 81.5805051,122.627012 80.728435,122.627012 C79.876365,122.627012 79.1854044,121.206071 79.1854044,119.453293 C79.1854044,117.700334 79.876365,116.279122 80.728435,116.279122" id="Fill-2288" fill="#FEFEFE" mask="url(#mask-2)"></path>
                <path d="M81.4778948,120.992494 C81.418732,121.021343 81.3569468,121.037394 81.2939027,121.037394 C80.8606716,121.037394 80.5094712,120.314801 80.5094712,119.423835 C80.5094712,118.579656 80.8249012,117.886437 81.2266627,117.81657 L81.2266627,117.765691 L82.3913516,117.765691 L82.3913516,120.992494 L81.4778948,120.992494 Z" id="Stroke-2289" stroke="#151616" stroke-width="0.552645438" stroke-linejoin="round" mask="url(#mask-2)"></path>
                <path d="M82.4585915,117.810905 C82.8918226,117.810905 83.2427083,118.532973 83.2427083,119.423835 C83.2427083,120.314801 82.8918226,121.037394 82.4585915,121.037394 C82.0256751,121.037394 81.6747894,120.314801 81.6747894,119.423835 C81.6747894,118.532973 82.0256751,117.810905 82.4585915,117.810905 Z" id="Stroke-2290" stroke="#151616" stroke-width="1.10538127" stroke-linejoin="round" mask="url(#mask-2)"></path>
                <path d="M82.4569226,117.818369 C82.8900175,117.818369 83.241019,118.540335 83.241019,119.431479 C83.241019,120.32235 82.8900175,121.04486 82.4569226,121.04486 C82.0238277,121.04486 81.6728263,120.32235 81.6728263,119.431479 C81.6728263,118.540335 82.0238277,117.818369 82.4569226,117.818369" id="Fill-2291" fill="#FEFEFE" mask="url(#mask-2)"></path>
                <path d="M48.319457,118.044321 C49.8722706,118.044321 51.1315779,119.547309 51.1315779,121.400788 C51.1315779,123.254581 49.8722706,124.757255 48.319457,124.757255 C46.7664337,124.757255 45.5074411,123.254581 45.5074411,121.400788 C45.5074411,119.547309 46.7664337,118.044321 48.319457,118.044321 Z" id="Stroke-2292" stroke="#151616" stroke-width="1.10538127" stroke-linejoin="round" mask="url(#mask-2)"></path>
                <path d="M48.3176409,118.051813 C49.8707182,118.051813 51.1299066,119.554673 51.1299066,121.408196 C51.1299066,123.262082 49.8707182,124.764851 48.3176409,124.764851 C46.764654,124.764851 45.5057372,123.262082 45.5057372,121.408196 C45.5057372,119.554673 46.764654,118.051813 48.3176409,118.051813" id="Fill-2293" fill="#FEFEFE" mask="url(#mask-2)"></path>
                <path d="M48.1541369,119.560317 C49.0058084,119.560317 49.6962508,120.384039 49.6962508,121.400788 C49.6962508,122.417222 49.0058084,123.241783 48.1541369,123.241783 C47.3025703,123.241783 46.6121279,122.417222 46.6121279,121.400788 C46.6121279,120.384039 47.3025703,119.560317 48.1541369,119.560317 Z" id="Stroke-2294" stroke="#151616" stroke-width="1.10538127" stroke-linejoin="round" mask="url(#mask-2)"></path>
                <path d="M48.1524584,119.567707 C49.0039854,119.567707 49.6944029,120.391596 49.6944029,121.408196 C49.6944029,122.424797 49.0039854,123.249229 48.1524584,123.249229 C47.3009314,123.249229 46.6105139,122.424797 46.6105139,121.408196 C46.6105139,120.391596 47.3009314,119.567707 48.1524584,119.567707" id="Fill-2295" fill="#FEFEFE" mask="url(#mask-2)"></path>
                <polygon id="Stroke-2296" stroke="#151616" stroke-width="1.10538127" stroke-linejoin="round" mask="url(#mask-2)" points="40.5182553 83.5403247 39.9051232 85.8958836 59.0232022 87.4725155 59.2045718 84.3878601"></polygon>
                <polygon id="Fill-2297" fill="#818181" mask="url(#mask-2)" points="40.5165022 83.548141 39.903562 85.9035833 59.0213752 87.4800333 59.2027591 84.3956549"></polygon>
                <path d="M74.3745664,171.345257 C74.3745664,171.345257 80.6070599,188.585371 80.8723474,188.718069 C81.137635,188.850677 89.0940905,188.718069 89.0940905,188.718069 L81.8006277,168.825525 L74.3745664,171.345257 Z" id="Stroke-2298" stroke="#151616" stroke-width="1.9216948" stroke-linejoin="round" mask="url(#mask-2)"></path>
                <path d="M74.3745664,171.345257 C74.3745664,171.345257 80.6070599,188.585371 80.8723474,188.718069 C81.137635,188.850677 89.0940905,188.718069 89.0940905,188.718069 L81.8006277,168.825525 L74.3745664,171.345257 Z" id="Fill-2299" fill="#F3D53E" mask="url(#mask-2)"></path>
                <polygon id="Stroke-2300" stroke="#151616" stroke-width="1.9216948" stroke-linejoin="round" mask="url(#mask-2)" points="87.5028175 166.438583 96.3874628 188.850677 104.476517 188.850677 94.9286073 163.653545"></polygon>
                <polygon id="Fill-2301" fill="#F3D53E" mask="url(#mask-2)" points="87.5028175 166.438583 96.3874628 188.850677 104.476517 188.850677 94.9286073 163.653545"></polygon>
                <polygon id="Stroke-2302" stroke="#151616" stroke-width="1.9216948" stroke-linejoin="round" mask="url(#mask-2)" points="81.4689051 139.318591 68.7385401 142.236237 76.1646015 151.254118 88.0991036 147.540825"></polygon>
                <polygon id="Fill-2303" fill="#F3D53E" mask="url(#mask-2)" points="81.4689051 139.318591 68.7385401 142.236237 76.1646015 151.254118 88.0991036 147.540825"></polygon>
                <polygon id="Stroke-2304" stroke="#151616" stroke-width="1.9216948" stroke-linejoin="round" mask="url(#mask-2)" points="75.9660204 151.05507 82.0659153 168.427883 95.1938949 163.520937 89.0940905 147.20935"></polygon>
                <polygon id="Fill-2305" fill="#FAE016" mask="url(#mask-2)" points="75.9660204 151.05507 82.0659153 168.427883 95.1938949 163.520937 89.0940905 147.20935"></polygon>
                <path d="M75.5681343,150.657337 L68.8052467,142.567711 L68.4073606,153.972625 L75.8334219,151.05507 C75.8334219,151.05507 72.3856788,152.779244 70.5291182,153.442284 C68.6726482,154.105323 67.4790803,154.635665 67.4790803,154.635665 L73.8442628,171.345257 L82.0659153,168.427883 L75.5681343,150.657337 Z" id="Stroke-2306" stroke="#151616" stroke-width="1.9216948" stroke-linejoin="round" mask="url(#mask-2)"></path>
                <path d="M75.5681343,150.657337 L68.8052467,142.567711 L68.4073606,153.972625 L75.8334219,151.05507 C75.8334219,151.05507 72.3856788,152.779244 70.5291182,153.442284 C68.6726482,154.105323 67.4790803,154.635665 67.4790803,154.635665 L73.8442628,171.345257 L82.0659153,168.427883 L75.5681343,150.657337 Z" id="Fill-2307" fill="#F3D53E" mask="url(#mask-2)"></path>
                <polygon id="Stroke-2308" stroke="#151616" stroke-width="1.9216948" stroke-linejoin="round" mask="url(#mask-2)" points="16.1603679 162.918454 5.41925255 188.911233 13.5083066 188.911233 22.790838 166.233833"></polygon>
                <polygon id="Fill-2309" fill="#F3D53E" mask="url(#mask-2)" points="16.1603679 162.918454 5.41925255 188.911233 13.5083066 188.911233 22.790838 166.233833"></polygon>
                <polygon id="Stroke-2310" stroke="#151616" stroke-width="1.9216948" stroke-linejoin="round" mask="url(#mask-2)" points="26.9015737 168.621047 18.8125197 189.043932 27.2994599 189.043932 34.4600526 171.273386"></polygon>
                <polygon id="Fill-2311" fill="#F3D53E" mask="url(#mask-2)" points="26.9015737 168.621047 18.8125197 189.043932 27.2994599 189.043932 34.4600526 171.273386"></polygon>
                <polygon id="Stroke-2312" stroke="#151616" stroke-width="1.9216948" stroke-linejoin="round" mask="url(#mask-2)" points="40.1622423 144.352261 32.6037635 151.51354 40.9578336 154.16588 42.1514015 150.319888 40.4275299 149.789547"></polygon>
                <polygon id="Fill-2313" fill="#FAE016" mask="url(#mask-2)" points="40.1622423 144.352261 32.6037635 151.51354 40.9578336 154.16588 42.1514015 150.319888 40.4275299 149.789547"></polygon>
                <polygon id="Stroke-2314" stroke="#151616" stroke-width="1.9216948" stroke-linejoin="round" mask="url(#mask-2)" points="31.2775971 139.710622 22.9232555 147.535213 32.4710745 151.646239 40.1622423 144.086954 40.4275299 141.965228"></polygon>
                <polygon id="Fill-2315" fill="#F3D53E" mask="url(#mask-2)" points="31.2775971 139.710622 22.9232555 147.535213 32.4710745 151.646239 40.1622423 144.086954 40.4275299 141.965228"></polygon>
                <path d="M21.7299591,147.535213 L15.6300642,162.653419 L27.1668613,168.488439 L35.1232263,171.405994 L41.4884088,154.563794 L33.5320438,152.17658 C33.5320438,152.17658 21.4646715,147.535213 21.7299591,147.535213 Z" id="Stroke-2316" stroke="#151616" stroke-width="1.9216948" stroke-linejoin="round" mask="url(#mask-2)"></path>
                <path d="M21.7299591,147.535213 L15.6300642,162.653419 L27.1668613,168.488439 L35.1232263,171.405994 L41.4884088,154.563794 L33.5320438,152.17658 C33.5320438,152.17658 21.4646715,147.535213 21.7299591,147.535213" id="Fill-2317" fill="#F3D53E" mask="url(#mask-2)"></path>
                <path d="M33.3993547,152.17658 L27.1668613,168.223132" id="Stroke-2318" stroke="#151616" stroke-width="1.28109974" stroke-linejoin="round" mask="url(#mask-2)"></path>
                <path d="M44.935639,63.0384442 C44.3448503,63.0384442 44.6975192,64.290602 44.1422911,64.1514967 C40.5048283,63.2364018 37.7798782,59.4800334 37.7798782,54.985022 C37.7798782,51.0263948 39.8941089,47.6405544 42.8830887,46.2642928 C43.2163514,46.1108154 43.5610481,45.9820957 43.9142416,45.8806516" id="Stroke-2319" stroke="#FEFEFE" stroke-width="0.552645438" stroke-linejoin="round" mask="url(#mask-2)"></path>
            </g>
        </g>
    </g>
</svg>