<?xml version="1.0" encoding="UTF-8"?>
<svg width="250px" height="180px" viewBox="0 0 250 180" version="1.1" xmlns="http://www.w3.org/2000/svg" xmlns:xlink="http://www.w3.org/1999/xlink">
    <!-- Generator: Sketch 51.2 (57519) - http://www.bohemiancoding.com/sketch -->
    <title>8-2</title>
    <desc>Created with Sketch.</desc>
    <defs>
        <polygon id="path-1" points="0.780928467 0.469155002 247.588356 0.469155002 247.588356 164.629203 0.780928467 164.629203"></polygon>
    </defs>
    <g id="8-2" stroke="none" stroke-width="1" fill="none" fill-rule="evenodd">
        <g id="Group-2039" transform="translate(0.000000, 14.000000)">
            <mask id="mask-2" fill="white">
                <use xlink:href="#path-1"></use>
            </mask>
            <g id="Clip-1809"></g>
            <path d="M37.9266219,25.3678434 L39.7844496,24.9957775 L32.3532292,36.5326319 L30.4954015,48.8140714 L31.6102248,58.1182582 L47.587127,60.3512885 L57.9906365,57.7461923 L65.4218569,50.6749451 L72.4812584,44.7202582 L75.0820905,40.6264451 L74.3390861,32.8109753 L65.7933139,26.8562885 C65.7933139,26.8562885 61.7062015,25.740272 57.9906365,24.9957775 C54.2750715,24.251283 52.0455153,24.251283 48.7016788,24.251283 C45.3578423,24.251283 37.9266219,25.3678434 37.9266219,25.3678434 Z" id="Stroke-1808" stroke="#151616" stroke-width="1.28426823" mask="url(#mask-2)"></path>
            <path d="M37.9266219,25.3678434 L39.7844496,24.9957775 L32.3532292,36.5326319 L30.4954015,48.8140714 L31.6102248,58.1182582 L47.587127,60.3512885 L57.9906365,57.7461923 L65.4218569,50.6749451 L72.4812584,44.7202582 L75.0820905,40.6264451 L74.3390861,32.8109753 L65.7933139,26.8562885 C65.7933139,26.8562885 61.7062015,25.740272 57.9906365,24.9957775 C54.2750715,24.251283 52.0455153,24.251283 48.7016788,24.251283 C45.3578423,24.251283 37.9266219,25.3678434 37.9266219,25.3678434" id="Fill-1810" fill="#FEFEFE" mask="url(#mask-2)"></path>
            <path d="M37.9266219,25.74 C39.7162044,29.7009066 48.7226774,44.224261 52.7889723,42.2426291 C60.0349168,38.7119011 66.1024993,34.7486374 65.4218569,26.1120659" id="Stroke-1811" stroke="#151616" stroke-width="0.51368917" mask="url(#mask-2)"></path>
            <path d="M52.4175153,41.3709396 C59.1123387,52.7097033 47.587127,56.6940907 47.587127,60.7233544" id="Stroke-1812" stroke="#151616" stroke-width="0.51368917" mask="url(#mask-2)"></path>
            <path d="M132.673574,38.0213489 C132.673574,38.0213489 142.705264,31.6945962 145.677915,30.2058791 C148.650476,28.7171621 155.33833,26.4839505 157.567705,28.7171621 C159.79699,30.9503736 163.884102,34.6718489 163.884102,34.6718489 C163.884102,34.6718489 166.113658,33.1831319 168.714491,32.8109753 C171.315232,32.4388187 172.058508,33.1833132 172.801603,35.4163434 C173.544607,37.649283 176.145439,39.5098846 178.003177,40.2543791 C179.861004,40.9988736 182.090289,40.9988736 183.948117,39.138 C185.805854,37.2771264 185.805854,36.9047885 187.663682,36.5326319 C189.521509,36.1605659 197.324187,40.9988736 199.182015,40.9988736 C201.039752,40.9988736 210.700257,40.9988736 210.700257,40.9988736 L222.961594,29.0895 C222.961594,29.0895 225.933883,28.7171621 227.048707,32.0667527 C228.163439,35.4163434 229.27772,42.1154341 231.878823,45.4647527 C234.479927,48.8140714 237.080669,50.3025165 238.938496,50.6749451 C240.796324,51.047283 243.397156,51.7915055 243.397156,51.7915055 L257.887688,56.2574753 L246.91052,66.8502033 L148.340476,48.6924973 L31.0765723,53.7993379 L14.6483825,54.3667747 L-6.31214307,55.5016484 L-4.61261898,48.6924973 L7.28386861,48.1250604 L18.0470686,44.7208022 L23.7120584,43.0184918 L31.0765723,39.6139615 L33.3425139,34.5071209 L38.4409956,25.4282225 L57.7017255,23.1585659 L119.449562,32.8048104 C119.449562,32.8048104 132.478794,36.7767775 132.673574,38.0213489 Z" id="Stroke-1813" stroke="#151616" stroke-width="1.28426823" mask="url(#mask-2)"></path>
            <path d="M132.673574,38.0213489 C132.673574,38.0213489 142.705264,31.6945962 145.677915,30.2058791 C148.650476,28.7171621 155.33833,26.4839505 157.567705,28.7171621 C159.79699,30.9503736 163.884102,34.6718489 163.884102,34.6718489 C163.884102,34.6718489 166.113658,33.1831319 168.714491,32.8109753 C171.315232,32.4388187 172.058508,33.1833132 172.801603,35.4163434 C173.544607,37.649283 176.145439,39.5098846 178.003177,40.2543791 C179.861004,40.9988736 182.090289,40.9988736 183.948117,39.138 C185.805854,37.2771264 185.805854,36.9047885 187.663682,36.5326319 C189.521509,36.1605659 197.324187,40.9988736 199.182015,40.9988736 C201.039752,40.9988736 210.700257,40.9988736 210.700257,40.9988736 L222.961594,29.0895 C222.961594,29.0895 225.933883,28.7171621 227.048707,32.0667527 C228.163439,35.4163434 229.27772,42.1154341 231.878823,45.4647527 C234.479927,48.8140714 237.080669,50.3025165 238.938496,50.6749451 C240.796324,51.047283 243.397156,51.7915055 243.397156,51.7915055 L257.887688,56.2574753 L246.91052,66.8502033 L148.340476,48.6924973 L31.0765723,53.7993379 L14.6483825,54.3667747 L-6.31214307,55.5016484 L-4.61261898,48.6924973 L7.28386861,48.1250604 L18.0470686,44.7208022 L23.7120584,43.0184918 L31.0765723,39.6139615 L33.3425139,34.5071209 L38.4409956,25.4282225 L57.7017255,23.1585659 L119.449562,32.8048104 C119.449562,32.8048104 132.478794,36.7767775 132.673574,38.0213489" id="Fill-1814" fill="#D8D8D9" mask="url(#mask-2)"></path>
            <path d="M-7.44506861,69.1199505 L1.0523708,63.4456731 L8.41688467,64.0130192 L14.6483825,58.9061786 L31.6430803,58.3387418 L45.805238,60.0410522 L56.5687095,60.0410522 L132.478794,50.9622445 L139.2768,53.2319011 L148.906984,49.2599341 L176.098736,48.1250604 L183.463159,48.6924973 L195.359647,56.0690852 L202.723889,57.2039588 L201.024365,61.1759258 L216.319901,65.1478929 L227.649609,67.9850769 L232.748091,66.8502033 L233.881107,71.956772 L238.979588,70.8218984 L250.309296,75.3613929 L253.141746,62.3107995 L236.147048,59.4736154 L228.216117,50.9622445 L216.319901,52.0971181 L207.255863,44.1533654 L193.660123,43.0184918 L175.532228,43.5859286 L160.803472,39.6139615 L154.005466,42.4510549 L131.912286,40.7487445 L52.6032438,44.1533654 C52.6032438,44.1533654 47.5044905,41.3161813 44.1058044,37.9116511 C40.7070277,34.5071209 38.4409956,25.9956593 38.4409956,25.9956593 L31.6430803,36.7767775 L29.9435562,48.1250604 L17.4805606,49.2599341 C17.4805606,49.2599341 10.6828263,51.5296813 7.85037664,52.0971181 C5.0178365,52.6645549 -5.74563504,54.3667747 -5.74563504,54.3667747 L-7.44506861,69.1199505 Z" id="Fill-1815" fill="#AEAFB0" mask="url(#mask-2)"></path>
            <path d="M248.599273,75.2380055 C248.599273,75.2380055 243.768885,73.0050659 241.911057,71.5163489 C240.05332,70.0276319 238.938768,70.3996978 236.337664,69.6554753 C233.736651,68.9112527 234.10838,66.6780412 234.10838,66.6780412 L228.163439,67.0503791 L221.475585,64.0729451 C221.475585,64.0729451 212.186537,63.3287225 210.3288,62.9565659 C208.470972,62.5845 204.755679,61.8400055 202.897851,61.8400055 C201.040023,61.8400055 203.640855,57.0019698 203.640855,57.0019698 L195.466631,55.8853187 L184.691664,48.4419148 L172.058508,47.3256264 C172.058508,47.3256264 162.026546,48.4419148 159.797261,48.4419148 C157.567886,48.4419148 150.136756,48.8140714 150.136756,48.8140714 L145.678096,51.4194396 L137.132415,50.6749451 C137.132415,50.6749451 134.90313,49.5585659 133.045302,49.5585659 C131.187474,49.5585659 127.471909,49.1864093 123.01334,47.6976923 L118.926228,44.7202582 C118.926228,44.7202582 108.150899,45.0926868 105.921615,45.0926868 C103.69233,45.0926868 85.4860526,44.7202582 85.4860526,44.7202582 L77.3119182,47.3256264 C77.3119182,47.3256264 72.4815299,50.6749451 70.6239737,52.9081566 C68.7664175,55.1413681 66.9084088,51.047283 66.9084088,51.047283 L62.0780204,51.4194396 L59.4771883,53.2802225 L55.3900759,57.3740357 L41.2710015,58.1182582 L30.495673,56.2574753 L21.9499912,55.1410962 L14.5187708,57.0019698 L8.57410219,62.2120714 L1.5144292,62.2120714 L-6.65979562,67.0503791 L-6.38980146,167.283799 L254.84127,168.98611 L248.599273,75.2380055 Z" id="Stroke-1816" stroke="#151616" stroke-width="1.28426823" mask="url(#mask-2)"></path>
            <path d="M248.599273,75.2380055 C248.599273,75.2380055 243.768885,73.0050659 241.911057,71.5163489 C240.05332,70.0276319 238.938768,70.3996978 236.337664,69.6554753 C233.736651,68.9112527 234.10838,66.6780412 234.10838,66.6780412 L228.163439,67.0503791 L221.475585,64.0729451 C221.475585,64.0729451 212.186537,63.3287225 210.3288,62.9565659 C208.470972,62.5845 204.755679,61.8400055 202.897851,61.8400055 C201.040023,61.8400055 203.640855,57.0019698 203.640855,57.0019698 L195.466631,55.8853187 L184.691664,48.4419148 L172.058508,47.3256264 C172.058508,47.3256264 162.026546,48.4419148 159.797261,48.4419148 C157.567886,48.4419148 150.136756,48.8140714 150.136756,48.8140714 L145.678096,51.4194396 L137.132415,50.6749451 C137.132415,50.6749451 134.90313,49.5585659 133.045302,49.5585659 C131.187474,49.5585659 127.471909,49.1864093 123.01334,47.6976923 L118.926228,44.7202582 C118.926228,44.7202582 108.150899,45.0926868 105.921615,45.0926868 C103.69233,45.0926868 85.4860526,44.7202582 85.4860526,44.7202582 L77.3119182,47.3256264 C77.3119182,47.3256264 72.4815299,50.6749451 70.6239737,52.9081566 C68.7664175,55.1413681 66.9084088,51.047283 66.9084088,51.047283 L62.0780204,51.4194396 L59.4771883,53.2802225 L55.3900759,57.3740357 L41.2710015,58.1182582 L30.495673,56.2574753 L21.9499912,55.1410962 L14.5187708,57.0019698 L8.57410219,62.2120714 L1.5144292,62.2120714 L-6.65979562,67.0503791 L-6.38980146,167.283799 L254.84127,168.98611 L248.599273,75.2380055 Z" id="Fill-1817" fill="#D8D8D9" mask="url(#mask-2)"></path>
            <path d="M73.5959912,42.1151621 C73.5959912,42.1151621 89.5729839,37.649011 95.1463766,36.5326319 C100.719769,35.4163434 105.921343,35.4163434 105.921343,35.4163434 L124.499349,40.6264451 L133.045031,42.1151621" id="Stroke-1818" stroke="#151616" stroke-width="0.51368917" mask="url(#mask-2)"></path>
            <polyline id="Stroke-1819" stroke="#151616" stroke-width="0.51368917" mask="url(#mask-2)" points="105.921343 35.4163434 107.036166 29.0895 107.779171 24.251283"></polyline>
            <path d="M163.884102,34.2996923 C161.261457,38.7424533 156.824701,41.9602253 156.824701,46.9534698" id="Stroke-1820" stroke="#151616" stroke-width="0.51368917" mask="url(#mask-2)"></path>
            <path d="M173.916064,36.5326319 C173.756765,41.1568929 178.055039,41.8517967 176.517168,45.0926868" id="Stroke-1821" stroke="#151616" stroke-width="0.51368917" mask="url(#mask-2)"></path>
            <path d="M188.778505,50.6749451 C190.766578,45.383522 200.540765,47.5288846 208.566461,42.9553022 C209.95852,42.1619423 210.561956,42.8329121 211.814809,40.9988736" id="Stroke-1822" stroke="#151616" stroke-width="0.51368917" mask="url(#mask-2)"></path>
            <path d="M209.213977,62.2120714 C214.582634,55.4710962 219.926672,52.3224973 208.84252,44.7202582" id="Stroke-1823" stroke="#151616" stroke-width="0.51368917" mask="url(#mask-2)"></path>
            <path d="M230.020996,42.4873187 C224.982523,54.8411951 231.202797,48.3466319 219.957174,50.643033 C219.873542,50.6599863 215.686867,52.4553132 215.530374,52.9081566" id="Stroke-1824" stroke="#151616" stroke-width="0.51368917" mask="url(#mask-2)"></path>
            <path d="M226.677159,50.3027885 C243.79278,62.1033709 225.113401,59.0542253 251.136204,61.4360275 C252.824867,61.5904203 252.739696,61.5750082 253.429118,62.9565659" id="Stroke-1825" stroke="#151616" stroke-width="0.51368917" mask="url(#mask-2)"></path>
            <path d="M38.6698978,62.9565659 C34.4701898,62.1064533 34.2163971,65.2810714 27.151565,61.903739 C26.614654,61.6469918 21.7532204,63.7244505 20.707638,63.9772995 C17.7255737,64.6982225 18.9163358,64.1636951 16.0047796,65.5616621" id="Stroke-1826" stroke="#151616" stroke-width="0.51368917" mask="url(#mask-2)"></path>
            <path d="M93.3259367,10.4263065 C115.509734,11.3434127 131.576705,45.7889565 133.493363,47.9473749 C135.410186,50.1052133 133.379874,49.1794075 132.56717,51.9898006 L131.857119,55.4936782 L127.275454,67.2940152 L126.558455,67.8071274 C119.330477,76.9923572 107.14364,82.7179532 93.3259367,82.1470093 C71.1416426,81.2296545 53.1580972,64.4308444 53.1580972,44.6256923 C53.1580972,41.7225861 53.5472851,38.9167499 54.277023,36.2433137 L57.2454395,30.5825091 L56.6691435,30.0892818 C62.9519032,17.8643202 77.0014653,9.75154703 93.3259367,10.4263065 Z" id="Stroke-1827" stroke="#151616" stroke-width="2.10803755" mask="url(#mask-2)"></path>
            <path d="M93.3242102,10.4273654 C115.507991,11.3445659 131.574952,45.7898571 133.491521,47.9482747 C135.408272,50.106239 133.378111,49.1802445 132.565232,51.9906841 L131.855355,55.4946676 L127.273872,67.2947967 L126.556753,67.8080192 C119.32873,76.993261 107.141883,82.7188516 93.3242102,82.1478791 C71.1401577,81.2304066 53.1566277,64.4316841 53.1566277,44.6266978 C53.1566277,41.7235137 53.5459153,38.9177885 54.2755241,36.2443352 L57.2440117,30.5833846 L56.6675474,30.0902885 C62.950365,17.8653297 76.999927,9.75258791 93.3242102,10.4273654" id="Fill-1828" fill="#313130" mask="url(#mask-2)"></path>
            <path d="M95.880693,0.510870615 C118.593837,1.44999742 137.006539,18.6493138 137.006427,38.926705 C137.006421,59.204206 118.593586,74.8808597 95.8804421,73.9417329 C73.1674593,73.0027707 54.7550287,55.8034029 54.7550338,35.5259019 C54.7551998,15.2485656 73.1676566,-0.428146463 95.880693,0.510870615 Z" id="Stroke-1829" stroke="#151616" stroke-width="1.35313466" mask="url(#mask-2)"></path>
            <path d="M95.8796058,0.509233516 C118.592695,1.44828297 137.005428,18.6479011 137.005428,38.9252225 C137.005428,59.2028159 118.592695,74.8795385 95.8796058,73.940489 C73.1665168,73.0014396 54.7540555,55.8020934 54.7540555,35.5245 C54.7540555,15.2469066 73.1665168,-0.429815934 95.8796058,0.509233516" id="Fill-1830" fill="#FEFEFE" mask="url(#mask-2)"></path>
            <path d="M95.8785608,2.2213085 C117.533285,3.11664488 135.088007,19.5143018 135.087957,38.8470329 C135.08791,58.1794535 117.533503,73.1256069 95.8788828,72.2301681 C74.2243119,71.3349887 56.6695404,54.9371759 56.6694335,35.6045984 C56.6694289,16.2721256 74.2241465,1.3259754 95.8785608,2.2213085 Z" id="Stroke-1831" stroke="#151616" stroke-width="2.3864935" mask="url(#mask-2)"></path>
            <path d="M95.8796058,2.22024725 C117.53435,3.1155989 135.088858,19.5134258 135.088858,38.8460769 C135.088858,58.178728 117.53435,73.1248269 95.8796058,72.2294753 C74.2251328,71.3341236 56.6703533,54.9362967 56.6703533,35.6036456 C56.6703533,16.2709945 74.2251328,1.3248956 95.8796058,2.22024725" id="Fill-1832" fill="#D8D8D9" mask="url(#mask-2)"></path>
            <path d="M57.9259613,27.4095372 C64.2339886,15.8808161 77.7149819,8.29218956 93.3264271,8.93775135 C114.980976,9.83298105 132.535868,26.2311564 132.535868,45.5637991 C132.535868,47.5431877 132.351609,49.4767997 131.998431,51.3518567" id="Stroke-1833" stroke="#151616" stroke-width="1.43967076" stroke-linejoin="round" mask="url(#mask-2)"></path>
            <path d="M65.6948892,63.7752938 C67.9741614,66.5878092 68.2121735,70.176857 66.2259827,71.7914426 C65.9265724,72.034882 65.5936118,72.2188276 65.2364364,72.3473558 L65.3580587,72.497432 L52.4612233,82.9833706 L44.2070927,72.7981589 L57.103928,62.3122203 L57.2253976,62.4621081 C57.4244641,62.1384809 57.6725944,61.8498587 57.9718167,61.6065722 C59.9580429,59.9916453 63.4157542,60.9625626 65.6948892,63.7752938 Z" id="Stroke-1834" stroke="#151616" stroke-width="2.15941552" stroke-linejoin="round" mask="url(#mask-2)"></path>
            <path d="M65.6940234,63.7763984 C67.9733606,66.5888324 68.2112234,70.1779451 66.2251416,71.7925879 C65.9257314,72.0359176 65.5927416,72.219956 65.2355854,72.3484203 L65.3571416,72.4985522 L52.460327,82.9843929 L44.206362,72.7991786 L57.1031766,62.3133379 L57.2245518,62.4631978 C57.4235854,62.1396346 57.6717664,61.8510659 57.9711766,61.6076456 C59.9572584,59.9927308 63.4149577,60.9636923 65.6940234,63.7763984" id="Fill-1835" fill="#818181" mask="url(#mask-2)"></path>
            <path d="M53.0464613,74.059574 C55.3254555,76.872003 55.5634049,80.4611018 53.5772141,82.0756874 C51.5910506,83.6905633 48.1333393,82.719646 45.8539144,79.9069422 C43.574932,77.0943994 43.3370726,73.50554 45.3231107,71.890766 C47.3093016,70.2761804 50.7670128,71.2470977 53.0464613,74.059574 Z" id="Stroke-1836" stroke="#151616" stroke-width="2.15941552" stroke-linejoin="round" mask="url(#mask-2)"></path>
            <path d="M53.0455708,74.060522 C55.3246365,76.872956 55.5624993,80.4620687 53.5764175,82.0767115 C51.5903358,83.6916264 48.132546,82.7206648 45.8532088,79.9079588 C43.5741431,77.0955247 43.3363708,73.5066841 45.3224526,71.8917692 C47.3085343,70.2771264 50.7662336,71.2479973 53.0455708,74.060522" id="Fill-1837" fill="#AEAFB0" mask="url(#mask-2)"></path>
            <path d="M51.1443904,75.6045153 C52.6452141,77.4567108 52.8017281,79.8201455 51.4937604,80.8836081 C51.296699,81.043626 51.0774225,81.1649079 50.8423729,81.2494872 L50.9224069,81.3484986 L42.4295523,88.253397 L36.9939475,81.5463838 L45.4867583,74.641178 L45.5668388,74.7397399 C45.6980283,74.5267489 45.8613029,74.3367861 46.0584703,74.1764762 C47.366438,73.1130137 49.6434094,73.7523791 51.1443904,75.6045153 Z" id="Stroke-1838" stroke="#151616" stroke-width="3.27931047" stroke-linejoin="round" mask="url(#mask-2)"></path>
            <path d="M51.1461985,75.6047225 C52.6471416,77.4568022 52.803635,79.8203819 51.4956613,80.8837253 C51.298619,81.0438297 51.0792204,81.1651319 50.844254,81.249717 L50.9242657,81.3486264 L42.4314423,88.2536044 L36.9958073,81.5465357 L45.4886307,74.6412857 L45.5687328,74.7399231 C45.6997927,74.5268736 45.8632555,74.337033 46.0602978,74.1766566 C47.3682715,73.1132225 49.6452555,73.7526429 51.1461985,75.6047225" id="Fill-1839" fill="#818181" mask="url(#mask-2)"></path>
            <path d="M42.8149362,82.3769016 C44.3158838,84.2289964 44.4723152,86.5924983 43.1643475,87.6559608 C41.8567101,88.7191548 39.5796795,88.0796318 38.0788325,86.2276611 C36.5778514,84.3755249 36.4213141,82.0123149 37.7290574,80.948829 C39.0369838,79.8854 41.3137643,80.5247835 42.8149362,82.3769016 Z" id="Stroke-1840" stroke="#151616" stroke-width="1.28426823" stroke-linejoin="round" mask="url(#mask-2)"></path>
            <path d="M42.8167474,82.3770659 C44.3176905,84.2292363 44.4741839,86.5927253 43.1662102,87.6561593 C41.858508,88.7193214 39.5814336,88.0799011 38.080581,86.2278214 C36.579638,84.3756511 36.4231445,82.0124341 37.7308467,80.949 C39.0388204,79.8856566 41.3156234,80.5249863 42.8167474,82.3770659" id="Fill-1841" fill="#FEFEFE" mask="url(#mask-2)"></path>
            <path d="M42.8778309,82.3269978 C45.1571031,85.1395133 45.3947745,88.7285256 43.4089244,90.3431467 C43.1095141,90.5865861 42.7765535,90.7705317 42.4193781,90.8990599 L42.5410003,91.0491361 L-12.5178955,135.815483 L-20.7720615,125.630612 L34.2866816,80.8640773 L34.4083393,81.0138122 C34.6074058,80.6901849 34.8555361,80.4015628 35.1547583,80.1582763 C37.1409846,78.5433494 40.5986959,79.5142667 42.8778309,82.3269978 Z" id="Stroke-1842" stroke="#151616" stroke-width="2.15941552" stroke-linejoin="round" mask="url(#mask-2)"></path>
            <path d="M42.8771182,82.3280192 C45.1564555,85.1404533 45.3939562,88.7295659 43.408146,90.3442088 C43.1087358,90.5876291 42.775746,90.7715769 42.4185898,90.9000412 L42.5402365,91.0501731 L-12.5186599,135.816305 L-20.7727153,125.631363 L34.2859095,80.8649588 L34.4075562,81.0148187 C34.6066803,80.6912555 34.8547708,80.4026868 35.154181,80.1592665 C37.1402628,78.5444423 40.597962,79.5153132 42.8771182,82.3280192" id="Fill-1843" fill="#EB560A" mask="url(#mask-2)"></path>
            <path d="M222.551308,147.99131 L220.285366,154.800462 C220.285366,154.800462 211.787836,155.367898 208.955387,154.233025 C206.122847,153.098151 193.660123,153.098151 193.660123,153.098151 L179.497693,154.800462 L139.2768,154.800462 L121.148815,155.367898 L95.0901693,155.935335 L76.9624555,153.665588 L58.8347416,153.098151 L53.1697518,151.963277 L52.0367358,147.423874 L62.2336993,147.423874 L70.7309577,148.558747 L77.5289635,147.423874 L94.5236613,147.99131 L103.587609,145.721563 L144.94179,144.019615 L182.896651,147.99131 L212.354345,147.423874 L222.551308,147.99131 Z" id="Fill-1844" fill="#AEAFB0" mask="url(#mask-2)"></path>
            <path d="M197.330342,90.3889038 L192.602321,89.2409753 L192.459133,77.4737555 L196.757136,71.4466319 C196.757136,71.4466319 197.616899,70.0114038 199.192785,70.8725769 C200.768581,71.73375 201.198599,72.5949231 200.625393,73.8862747 C200.052277,75.1776264 197.330342,78.0479011 197.330342,78.0479011 L197.330342,90.3889038 Z" id="Fill-1845" fill="#D5B153" mask="url(#mask-2)"></path>
            <path d="M197.330342,90.3889038 L192.602321,89.2409753 L192.459133,77.4737555 L196.757136,71.4466319 C196.757136,71.4466319 197.616899,70.0114038 199.192785,70.8725769 C200.768581,71.73375 201.198599,72.5949231 200.625393,73.8862747 C200.052277,75.1776264 197.330342,78.0479011 197.330342,78.0479011 L197.330342,90.3889038 Z" id="Stroke-1846" stroke="#151616" stroke-width="0.51368917" mask="url(#mask-2)"></path>
            <path d="M206.069536,91.8239505 L202.344648,86.658 L202.344648,77.3301511 C202.344648,77.3301511 201.628345,76.0387995 203.490788,75.7516813 C205.353142,75.4646538 206.499282,76.3258269 206.499282,76.3258269 L206.069536,91.8239505 Z" id="Fill-1847" fill="#FCCE00" mask="url(#mask-2)"></path>
            <path d="M206.069536,91.8239505 L202.344648,86.658 L202.344648,77.3301511 C202.344648,77.3301511 201.628345,76.0387995 203.490788,75.7516813 C205.353142,75.4646538 206.499282,76.3258269 206.499282,76.3258269 L206.069536,91.8239505 Z" id="Stroke-1848" stroke="#151616" stroke-width="0.51368917" mask="url(#mask-2)"></path>
            <path d="M210.367539,98.5685522 L206.212634,98.4249478 L206.212634,76.8997005 C206.212634,76.8997005 206.212634,75.4646538 206.785839,74.6037527 C207.359045,73.7428516 209.221399,74.3167253 209.221399,74.3167253 C209.221399,74.3167253 210.797285,75.1776264 210.797285,77.904206 C210.797285,80.6308764 210.367539,98.5685522 210.367539,98.5685522 Z" id="Fill-1849" fill="#FFD84C" mask="url(#mask-2)"></path>
            <path d="M210.367539,98.5685522 L206.212634,98.4249478 L206.212634,76.8997005 C206.212634,76.8997005 206.212634,75.4646538 206.785839,74.6037527 C207.359045,73.7428516 209.221399,74.3167253 209.221399,74.3167253 C209.221399,74.3167253 210.797285,75.1776264 210.797285,77.904206 C210.797285,80.6308764 210.367539,98.5685522 210.367539,98.5685522 Z" id="Stroke-1850" stroke="#151616" stroke-width="0.51368917" mask="url(#mask-2)"></path>
            <path d="M239.383086,129.993981 L226.830847,134.087522 L215.446289,133.795055 L191.217413,135.549495 L181.292164,116.8365 L182.168038,96.0765989 L180.124482,95.4916648 L180.124482,67.7144588 L146.262616,68.2991209 L146.846231,93.1525632 L143.635355,92.8600962 L144.802946,65.6675522 L182.459755,64.7904231 L184.503311,62.1588544 C184.503311,62.1588544 187.714458,64.205761 187.130572,68.0069258 C186.546596,71.808 187.130572,87.3048544 187.130572,87.3048544 C187.130572,87.3048544 210.775743,92.2754341 215.738187,93.1525632 C220.700721,94.0296923 226.831118,93.4450302 228.582415,96.0765989 C230.333801,98.7080769 230.917507,102.801709 231.209404,106.310316 C231.501393,109.818923 231.793381,120.929769 231.793381,120.929769 L241.426642,120.929769 C241.426642,120.929769 243.761734,125.607973 242.886041,127.362412 C242.010347,129.116852 239.383086,129.993981 239.383086,129.993981" id="Fill-1851" fill="#FDC534" mask="url(#mask-2)"></path>
            <path d="M169.485915,114.102668 C176.025603,115.125758 181.106345,122.751569 181.106345,132.009247 C181.106345,141.090412 176.217215,148.601901 169.857734,149.850371 L169.859545,150.033865 L167.985063,150.033865 L156.737901,150.033865 L156.73772,150.033865 C149.490961,150.033865 143.616347,141.963915 143.616347,132.009247 C143.616347,122.054398 149.490961,113.984448 156.73772,113.984448 L156.737901,113.984448 L167.985063,113.984448 L169.484648,113.984448 L169.485915,114.102668 Z" id="Stroke-1852" stroke="#151616" stroke-width="1.15179097" mask="url(#mask-2)"></path>
            <path d="M169.485915,114.102668 C176.025603,115.125758 181.106345,122.751569 181.106345,132.009247 C181.106345,141.090412 176.217215,148.601901 169.857734,149.850371 L169.859545,150.033865 L167.985063,150.033865 L156.737901,150.033865 L156.73772,150.033865 C149.490961,150.033865 143.616347,141.963915 143.616347,132.009247 C143.616347,122.054398 149.490961,113.984448 156.73772,113.984448 L156.737901,113.984448 L167.985063,113.984448 L169.484648,113.984448 L169.485915,114.102668 Z" id="Fill-1853" fill="#818181" mask="url(#mask-2)"></path>
            <path d="M158.814855,107.479821 L170.199504,107.479821 L176.037641,107.772288 L175.745924,114.497126 L182.459755,115.374527 L186.546596,139.350659 L182.168038,137.888596 L180.124482,131.455953 L168.156128,127.654879 L166.112663,119.760264 L158.814855,111.573453 C158.814855,111.573453 158.522867,108.064484 158.814855,107.479821" id="Fill-1854" fill="#FDC534" mask="url(#mask-2)"></path>
            <polygon id="Fill-1855" fill="#FDC534" mask="url(#mask-2)" points="175.76828 107.92931 176.063799 114.441099 182.564928 115.329016 186.406485 139.00833 189.952523 139.600154 187.202166 121.738541 185.213731 111.236019 180.513226 108.338728 178.163019 106.346761"></polygon>
            <polygon id="Stroke-1856" stroke="#151616" stroke-width="0.51368917" mask="url(#mask-2)" points="175.76828 107.92931 176.063799 114.441099 182.564928 115.329016 186.406485 139.00833 189.952523 139.600154 187.202166 121.738541 185.213731 111.236019 180.513226 108.338728 178.163019 106.346761"></polygon>
            <path d="M225.298406,121.503371 L241.634727,121.083709 C241.634727,121.083709 242.891381,123.181747 242.891381,125.279514 C242.891381,127.377371 242.472677,129.474865 239.959369,130.31419 C237.446061,131.153514 226.136356,134.090332 226.136356,134.090332" id="Stroke-1857" stroke="#151616" stroke-width="0.51368917" mask="url(#mask-2)"></path>
            <polygon id="Stroke-1858" stroke="#151616" stroke-width="3.11212816" mask="url(#mask-2)" points="181.944846 65.9106398 171.054104 65.9106398 171.054104 96.5389171 181.944846 96.5389171"></polygon>
            <polygon id="Fill-1859" fill="#FDC534" mask="url(#mask-2)" points="181.944023 65.9106099 171.053293 65.9106099 171.053293 96.5388709 181.944023 96.5388709"></polygon>
            <polygon id="Stroke-1860" stroke="#151616" stroke-width="1.28426823" mask="url(#mask-2)" points="144.66365 65.9106099 171.053293 65.9106099 171.053293 96.5388709 144.66365 96.5388709"></polygon>
            <polygon id="Fill-1861" fill="#FDC534" mask="url(#mask-2)" points="144.66365 65.9106099 171.053293 65.9106099 171.053293 96.5388709 144.66365 96.5388709"></polygon>
            <polygon id="Stroke-1862" stroke="#151616" stroke-width="3.11212816" mask="url(#mask-2)" points="180.274769 68.4304472 172.73472 68.4304472 172.73472 96.1210955 180.274769 96.1210955"></polygon>
            <polygon id="Fill-1863" fill="#D8D8D9" mask="url(#mask-2)" points="180.268666 68.4284011 172.728742 68.4284011 172.728742 96.1192088 180.268666 96.1192088"></polygon>
            <polygon id="Stroke-1864" stroke="#151616" stroke-width="3.11212816" mask="url(#mask-2)" points="167.281561 68.4304472 147.175223 68.4304472 147.175223 96.1210955 167.281561 96.1210955"></polygon>
            <polygon id="Fill-1865" fill="#D8D8D9" mask="url(#mask-2)" points="167.283331 68.4284011 147.176958 68.4284011 147.176958 96.1192088 167.283331 96.1192088"></polygon>
            <path d="M141.731638,105.769624 L169.377664,107.86739 L182.781974,106.189014 L185.714076,104.091247 L185.714076,97.3781951 L169.377664,93.1823901 L141.731638,91.9236758 C141.731638,91.9236758 140.893959,106.608676 141.731638,105.769624 Z" id="Stroke-1866" stroke="#151616" stroke-width="1.28426823" mask="url(#mask-2)"></path>
            <path d="M141.731638,105.769624 L169.377664,107.86739 L182.781974,106.189014 L185.714076,104.091247 L185.714076,97.3781951 L169.377664,93.1823901 L141.731638,91.9236758 C141.731638,91.9236758 140.893959,106.608676 141.731638,105.769624" id="Fill-1867" fill="#FDC534" mask="url(#mask-2)"></path>
            <path d="M94.1883182,109.755462 L94.1885898,109.755462 L108.430578,109.755462 L108.849282,150.033865 L94.1885898,150.033865 L94.1883182,150.033865 C86.0912993,150.033865 79.5276263,141.017159 79.5276263,129.894799 C79.5276263,118.772168 86.0912993,109.755462 94.1883182,109.755462 Z" id="Stroke-1868" stroke="#151616" stroke-width="1.28426823" mask="url(#mask-2)"></path>
            <path d="M94.1883182,109.755462 L94.1885898,109.755462 L108.430578,109.755462 L108.849282,150.033865 L94.1885898,150.033865 L94.1883182,150.033865 C86.0912993,150.033865 79.5276263,141.017159 79.5276263,129.894799 C79.5276263,118.772168 86.0912993,109.755462 94.1883182,109.755462" id="Fill-1869" fill="#818181" mask="url(#mask-2)"></path>
            <path d="M106.753449,109.756014 C114.85037,109.756014 121.414163,118.772833 121.414163,129.895329 C121.414163,141.01765 114.85037,150.034205 106.753449,150.034205 C98.6564394,150.034205 92.0926466,141.01765 92.0926466,129.895329 C92.0926466,118.772833 98.6564394,109.756014 106.753449,109.756014 Z" id="Stroke-1870" stroke="#151616" stroke-width="1.32431949" mask="url(#mask-2)"></path>
            <path d="M106.754949,109.755462 C114.851968,109.755462 121.415641,118.772168 121.415641,129.894799 C121.415641,141.017159 114.851968,150.033865 106.754949,150.033865 C98.6579299,150.033865 92.0942569,141.017159 92.0942569,129.894799 C92.0942569,118.772168 98.6579299,109.755462 106.754949,109.755462" id="Fill-1871" fill="#818181" mask="url(#mask-2)"></path>
            <path d="M107.38021,119.973297 C111.19735,119.973297 114.291762,124.414354 114.291762,129.892789 C114.291762,135.371396 111.19735,139.81267 107.38021,139.81267 C103.562941,139.81267 100.468572,135.371396 100.468572,129.892789 C100.468572,124.414354 103.562941,119.973297 107.38021,119.973297 Z" id="Stroke-1872" stroke="#151616" stroke-width="2.68878087" mask="url(#mask-2)"></path>
            <path d="M107.383276,119.975126 C111.200485,119.975126 114.294873,124.416074 114.294873,129.894527 C114.294873,135.372981 111.200485,139.814201 107.383276,139.814201 C103.566067,139.814201 100.471588,135.372981 100.471588,129.894527 C100.471588,124.416074 103.566067,119.975126 107.383276,119.975126" id="Fill-1873" fill="#818181" mask="url(#mask-2)"></path>
            <path d="M107.589598,123.0286 C109.671892,123.0286 111.359813,126.103424 111.359813,129.896226 C111.359813,133.689125 109.671892,136.763949 107.589598,136.763949 C105.507303,136.763949 103.819357,133.689125 103.819357,129.896226 C103.819357,126.103424 105.507303,123.0286 107.589598,123.0286 Z" id="Stroke-1874" stroke="#151616" stroke-width="4.77987365" mask="url(#mask-2)"></path>
            <path d="M107.592628,123.02681 C109.674923,123.02681 111.362861,126.101703 111.362861,129.894527 C111.362861,133.687442 109.674923,136.762245 107.592628,136.762245 C105.510333,136.762245 103.822394,133.687442 103.822394,129.894527 C103.822394,126.101703 105.510333,123.02681 107.592628,123.02681" id="Fill-1875" fill="#818181" mask="url(#mask-2)"></path>
            <path d="M132.725618,100.524981 L140.265632,98.0075522 L151.156362,91.7139808 L145.710952,105.559657 L136.49558,113.531695 C136.49558,113.531695 132.725618,101.783786 132.725618,100.524981 Z" id="Stroke-1876" stroke="#151616" stroke-width="1.28426823" mask="url(#mask-2)"></path>
            <path d="M132.725618,100.524981 L140.265632,98.0075522 L151.156362,91.7139808 L145.710952,105.559657 L136.49558,113.531695 C136.49558,113.531695 132.725618,101.783786 132.725618,100.524981" id="Fill-1877" fill="#FDC534" mask="url(#mask-2)"></path>
            <path d="M49.3687445,111.014176 C49.3687445,111.014176 56.9083971,101.364305 64.0294365,98.4272143 C71.1504759,95.4901236 77.0147708,93.3920852 79.5280788,92.9726951 C82.0414774,92.5533049 95.0265401,90.8746566 98.7965022,91.7139808 C102.566464,92.5533049 111.781836,94.6510714 111.781836,94.6510714 L128.118248,103.46189 L111.362861,114.370747 L64.8673869,113.531695 L49.3687445,111.014176 Z" id="Stroke-1878" stroke="#151616" stroke-width="1.28426823" stroke-linejoin="round" mask="url(#mask-2)"></path>
            <path d="M49.3687445,111.014176 C49.3687445,111.014176 56.9083971,101.364305 64.0294365,98.4272143 C71.1504759,95.4901236 77.0147708,93.3920852 79.5280788,92.9726951 C82.0414774,92.5533049 95.0265401,90.8746566 98.7965022,91.7139808 C102.566464,92.5533049 111.781836,94.6510714 111.781836,94.6510714 L128.118248,103.46189 L111.362861,114.370747 L64.8673869,113.531695 L49.3687445,111.014176 Z" id="Fill-1879" fill="#F0D398" mask="url(#mask-2)"></path>
            <path d="M49.7877197,109.755462 C49.7877197,109.755462 46.0176672,108.916409 48.5310657,112.27289 C51.0443737,115.629462 53.9763854,119.405332 53.9763854,119.405332 C53.9763854,119.405332 61.0974248,129.475137 64.4484117,130.31419 C67.7993985,131.153242 72.8261051,130.733852 72.8261051,130.733852 L119.740555,131.153242 C119.740555,131.153242 125.60485,131.992566 128.118248,126.957709 C130.631556,121.922761 136.914555,112.692371 136.914555,112.692371 L136.076876,105.559657 C136.076876,105.559657 133.982543,103.0425 129.374902,106.398981 C124.767171,109.755462 110.106479,117.307566 110.106479,117.307566 L105.917542,109.335799 C105.917542,109.335799 95.864219,108.496747 89.5811299,109.335799 C83.2981314,110.174852 49.7877197,109.755462 49.7877197,109.755462 Z" id="Stroke-1880" stroke="#151616" stroke-width="1.28426823" stroke-linejoin="round" mask="url(#mask-2)"></path>
            <path d="M49.7877197,109.755462 C49.7877197,109.755462 46.0176672,108.916409 48.5310657,112.27289 C51.0443737,115.629462 53.9763854,119.405332 53.9763854,119.405332 C53.9763854,119.405332 61.0974248,129.475137 64.4484117,130.31419 C67.7993985,131.153242 72.8261051,130.733852 72.8261051,130.733852 L119.740555,131.153242 C119.740555,131.153242 125.60485,131.992566 128.118248,126.957709 C130.631556,121.922761 136.914555,112.692371 136.914555,112.692371 L136.076876,105.559657 C136.076876,105.559657 133.982543,103.0425 129.374902,106.398981 C124.767171,109.755462 110.106479,117.307566 110.106479,117.307566 L105.917542,109.335799 C105.917542,109.335799 95.864219,108.496747 89.5811299,109.335799 C83.2981314,110.174852 49.7877197,109.755462 49.7877197,109.755462" id="Fill-1881" fill="#FDC534" mask="url(#mask-2)"></path>
            <polyline id="Stroke-1882" stroke="#151616" stroke-width="0.642179422" stroke-linejoin="round" mask="url(#mask-2)" points="53.9763854 119.405332 64.0294365 118.985942 63.6107328 116.468514 95.4455153 116.468514 95.8644905 118.56628 110.944158 117.727228"></polyline>
            <path d="M109.687504,115.629462 C109.687504,115.629462 113.457466,123.181475 116.808543,126.538047 C120.15953,129.894527 120.159801,131.992566 122.672838,131.992566 C125.185874,131.992566 126.442528,129.894527 126.442528,129.894527" id="Stroke-1883" stroke="#151616" stroke-width="0.642179422" stroke-linejoin="round" mask="url(#mask-2)"></path>
            <path d="M83.716835,128.636085 L78.6904,128.216423 L74.5014628,128.216423 C74.5014628,128.216423 73.2448088,129.894799 74.920438,131.992566 C76.5960672,134.090332 78.6904,136.18819 78.6904,136.18819 L86.6491182,136.18819 L93.3511825,132.831618 C93.3511825,132.831618 82.8791562,129.055475 83.716835,128.636085 Z" id="Stroke-1884" stroke="#151616" stroke-width="1.28426823" stroke-linejoin="round" mask="url(#mask-2)"></path>
            <path d="M83.716835,128.636085 L78.6904,128.216423 L74.5014628,128.216423 C74.5014628,128.216423 73.2448088,129.894799 74.920438,131.992566 C76.5960672,134.090332 78.6904,136.18819 78.6904,136.18819 L86.6491182,136.18819 L93.3511825,132.831618 C93.3511825,132.831618 82.8791562,129.055475 83.716835,128.636085" id="Fill-1885" fill="#FDC534" mask="url(#mask-2)"></path>
            <path d="M83.716835,128.636085 L86.2301431,136.18819" id="Stroke-1886" stroke="#151616" stroke-width="0.51368917" mask="url(#mask-2)"></path>
            <path d="M105.917542,128.636085 L100.891107,128.216423 L96.7021693,128.216423 C96.7021693,128.216423 95.4455153,129.894799 97.1211445,131.992566 C98.7967737,134.090332 100.891107,136.18819 100.891107,136.18819 L108.849825,136.18819 L115.551799,132.831618 C115.551799,132.831618 105.079863,129.055475 105.917542,128.636085 Z" id="Stroke-1887" stroke="#151616" stroke-width="1.28426823" stroke-linejoin="round" mask="url(#mask-2)"></path>
            <path d="M105.917542,128.636085 L100.891107,128.216423 L96.7021693,128.216423 C96.7021693,128.216423 95.4455153,129.894799 97.1211445,131.992566 C98.7967737,134.090332 100.891107,136.18819 100.891107,136.18819 L108.849825,136.18819 L115.551799,132.831618 C115.551799,132.831618 105.079863,129.055475 105.917542,128.636085" id="Fill-1888" fill="#FDC534" mask="url(#mask-2)"></path>
            <path d="M105.917542,128.636085 L108.43085,136.18819" id="Stroke-1889" stroke="#151616" stroke-width="0.51368917" mask="url(#mask-2)"></path>
            <path d="M106.75522,109.335799 C106.75522,109.335799 108.849825,105.979319 115.132823,105.140266 C121.415912,104.301214 123.510517,103.462162 127.699273,103.0425 C131.887939,102.622838 134.400975,100.944643 135.238926,103.0425 C136.076876,105.140266 133.144864,103.88128 126.861504,108.077085 C120.578234,112.27289 113.876169,115.209799 113.876169,115.209799 L110.106207,117.307566 C110.106207,117.307566 106.336245,109.755462 106.75522,109.335799 Z" id="Stroke-1890" stroke="#151616" stroke-width="1.28426823" stroke-linejoin="round" mask="url(#mask-2)"></path>
            <path d="M106.75522,109.335799 C106.75522,109.335799 108.849825,105.979319 115.132823,105.140266 C121.415912,104.301214 123.510517,103.462162 127.699273,103.0425 C131.887939,102.622838 134.400975,100.944643 135.238926,103.0425 C136.076876,105.140266 133.144864,103.88128 126.861504,108.077085 C120.578234,112.27289 113.876169,115.209799 113.876169,115.209799 L110.106207,117.307566 C110.106207,117.307566 106.336245,109.755462 106.75522,109.335799" id="Fill-1891" fill="#FDC534" mask="url(#mask-2)"></path>
            <path d="M204.761769,115.274467 L204.761993,115.274467 L216.490982,115.274467 L216.835806,150.924238 L204.761993,150.924238 L204.761769,150.924238 C198.093544,150.924238 192.687956,142.943571 192.687956,133.099633 C192.687956,123.255134 198.093544,115.274467 204.761769,115.274467 Z" id="Stroke-1892" stroke="#151616" stroke-width="1.28426823" mask="url(#mask-2)"></path>
            <path d="M204.760023,115.275527 L204.760295,115.275527 L216.489156,115.275527 L216.834003,150.925047 L204.760295,150.925047 L204.760023,150.925047 C198.09181,150.925047 192.686225,142.944577 192.686225,133.100423 C192.686225,123.255997 198.09181,115.275527 204.760023,115.275527" id="Fill-1893" fill="#818181" mask="url(#mask-2)"></path>
            <path d="M215.106058,115.275682 C221.774243,115.275682 227.179899,123.256036 227.179899,133.100544 C227.179899,142.944664 221.774243,150.925095 215.106058,150.925095 C208.43809,150.925095 203.032434,142.944664 203.032434,133.100544 C203.032434,123.256036 208.43809,115.275682 215.106058,115.275682 Z" id="Stroke-1894" stroke="#151616" stroke-width="1.32431949" mask="url(#mask-2)"></path>
            <path d="M215.109407,115.275527 C221.77753,115.275527 227.183115,123.255997 227.183115,133.100423 C227.183115,142.944577 221.77753,150.925047 215.109407,150.925047 C208.441194,150.925047 203.035609,142.944577 203.035609,133.100423 C203.035609,123.255997 208.441194,115.275527 215.109407,115.275527" id="Fill-1895" fill="#818181" mask="url(#mask-2)"></path>
            <path d="M215.628914,124.318466 C218.772432,124.318466 221.320816,128.249111 221.320816,133.097994 C221.320816,137.946876 218.772432,141.877752 215.628914,141.877752 C212.485182,141.877752 209.936762,137.946876 209.936762,133.097994 C209.936762,128.249111 212.485182,124.318466 215.628914,124.318466 Z" id="Stroke-1896" stroke="#151616" stroke-width="2.68878087" mask="url(#mask-2)"></path>
            <path d="M215.626858,124.320701 C218.770304,124.320701 221.31882,128.251327 221.31882,133.100151 C221.31882,137.949066 218.770304,141.879874 215.626858,141.879874 C212.483142,141.879874 209.934715,137.949066 209.934715,133.100151 C209.934715,128.251327 212.483142,124.320701 215.626858,124.320701" id="Fill-1897" fill="#818181" mask="url(#mask-2)"></path>
            <path d="M215.793379,127.021238 C217.508001,127.021238 218.89832,129.742718 218.89832,133.099756 C218.89832,136.456773 217.508001,139.178318 215.793379,139.178318 C214.078496,139.178318 212.688478,136.456773 212.688478,133.099756 C212.688478,129.742718 214.078496,127.021238 215.793379,127.021238 Z" id="Stroke-1898" stroke="#151616" stroke-width="4.77987365" mask="url(#mask-2)"></path>
            <path d="M215.799282,127.021714 C217.513921,127.021714 218.90426,129.743126 218.90426,133.100151 C218.90426,136.457176 217.513921,139.178679 215.799282,139.178679 C214.084371,139.178679 212.694304,136.457176 212.694304,133.100151 C212.694304,129.743126 214.084371,127.021714 215.799282,127.021714" id="Fill-1899" fill="#818181" mask="url(#mask-2)"></path>
            <polyline id="Stroke-1900" stroke="#151616" stroke-width="0.51368917" mask="url(#mask-2)" points="207.983401 117.813285 205.515893 116.587367 196.783871 119.448031"></polyline>
            <polyline id="Stroke-1901" stroke="#151616" stroke-width="0.51368917" mask="url(#mask-2)" points="204.566772 122.921734 202.668454 121.491683 194.125988 123.943921"></polyline>
            <polyline id="Stroke-1902" stroke="#151616" stroke-width="0.51368917" mask="url(#mask-2)" points="203.237718 127.621837 199.82109 126.600131 192.607676 129.052289"></polyline>
            <polyline id="Stroke-1903" stroke="#151616" stroke-width="0.51368917" mask="url(#mask-2)" points="202.668454 132.526153 199.061897 131.70874 192.417673 134.365191"></polyline>
            <polyline id="Stroke-1904" stroke="#151616" stroke-width="0.51368917" mask="url(#mask-2)" points="202.858234 138.656307 199.251378 136.613056 193.176866 138.860519"></polyline>
            <polyline id="Stroke-1905" stroke="#151616" stroke-width="0.51368917" mask="url(#mask-2)" points="205.136185 144.582168 201.529628 142.538917 195.265112 144.377875"></polyline>
            <polyline id="Stroke-1906" stroke="#151616" stroke-width="0.51368917" mask="url(#mask-2)" points="198.871744 149.078058 202.288746 146.830113 208.363109 148.464778"></polyline>
            <polyline id="Stroke-1907" stroke="#151616" stroke-width="0.51368917" mask="url(#mask-2)" points="203.997135 151.325762 207.603916 150.099523 212.539378 151.121229"></polyline>
            <path d="M205.325965,116.382833 L202.858234,121.491683" id="Stroke-1908" stroke="#151616" stroke-width="0.51368917" mask="url(#mask-2)"></path>
            <path d="M211.020992,115.156915 L204.946256,116.382833" id="Stroke-1909" stroke="#151616" stroke-width="0.51368917" mask="url(#mask-2)"></path>
            <polyline id="Stroke-1910" stroke="#151616" stroke-width="0.51368917" mask="url(#mask-2)" points="202.668454 121.695976 199.82109 126.600131 199.441381 131.912953 199.061897 136.613056 201.529628 142.334704 202.288746 146.62582 207.603916 149.691017"></polyline>
            <path d="M200.390279,116.17862 L200.200723,118.221791" id="Stroke-1911" stroke="#151616" stroke-width="0.51368917" mask="url(#mask-2)"></path>
            <path d="M197.163579,119.448031 L196.214457,123.739146" id="Stroke-1912" stroke="#151616" stroke-width="0.51368917" mask="url(#mask-2)"></path>
            <path d="M194.505696,123.739146 L194.505696,128.43933" id="Stroke-1913" stroke="#151616" stroke-width="0.51368917" mask="url(#mask-2)"></path>
            <path d="M192.987161,129.256742 L194.316214,133.547698" id="Stroke-1914" stroke="#151616" stroke-width="0.51368917" mask="url(#mask-2)"></path>
            <path d="M192.417673,134.160898 L194.885404,138.043508" id="Stroke-1915" stroke="#151616" stroke-width="0.51368917" mask="url(#mask-2)"></path>
            <path d="M193.176866,138.860519 L197.163579,143.764915" id="Stroke-1916" stroke="#151616" stroke-width="0.51368917" mask="url(#mask-2)"></path>
            <path d="M195.455041,144.582168 L200.580208,147.851818" id="Stroke-1917" stroke="#151616" stroke-width="0.51368917" mask="url(#mask-2)"></path>
            <path d="M199.061897,148.873765 L205.705598,150.712723" id="Stroke-1918" stroke="#151616" stroke-width="0.51368917" mask="url(#mask-2)"></path>
            <path d="M135.867253,110.384819 L142.569317,105.349962 L155.973626,105.349962 L168.958961,120.03469 C168.958961,120.03469 170.215343,120.454352 169.377664,125.90869 C168.539985,131.362937 166.026677,131.362937 166.026677,131.362937 L155.973626,115.839157 L135.867253,110.384819 Z" id="Stroke-1919" stroke="#151616" stroke-width="1.28426823" mask="url(#mask-2)"></path>
            <path d="M135.867253,110.384819 L142.569317,105.349962 L155.973626,105.349962 L168.958961,120.03469 C168.958961,120.03469 170.215343,120.454352 169.377664,125.90869 C168.539985,131.362937 166.026677,131.362937 166.026677,131.362937 L155.973626,115.839157 L135.867253,110.384819 Z" id="Fill-1920" fill="#FDC534" mask="url(#mask-2)"></path>
            <path d="M139.846385,110.594514 L139.846657,110.594514 L154.088645,110.594514 L154.507349,150.872918 L139.846657,150.872918 L139.846385,150.872918 C131.749366,150.872918 125.185693,141.856212 125.185693,130.733852 C125.185693,119.61122 131.749366,110.594514 139.846385,110.594514 Z" id="Stroke-1921" stroke="#151616" stroke-width="1.28426823" mask="url(#mask-2)"></path>
            <path d="M139.846385,110.594514 L139.846657,110.594514 L154.088645,110.594514 L154.507349,150.872918 L139.846657,150.872918 L139.846385,150.872918 C131.749366,150.872918 125.185693,141.856212 125.185693,130.733852 C125.185693,119.61122 131.749366,110.594514 139.846385,110.594514" id="Fill-1922" fill="#818181" mask="url(#mask-2)"></path>
            <path d="M152.411454,110.595049 C160.508375,110.595049 167.072168,119.611869 167.072168,130.734453 C167.072168,141.856685 160.508375,150.873329 152.411454,150.873329 C144.314444,150.873329 137.750651,141.856685 137.750651,130.734453 C137.750651,119.611869 144.314444,110.595049 152.411454,110.595049 Z" id="Stroke-1923" stroke="#151616" stroke-width="1.32431949" mask="url(#mask-2)"></path>
            <path d="M152.413016,110.594514 C160.509945,110.594514 167.073708,119.61122 167.073708,130.733852 C167.073708,141.856212 160.509945,150.872918 152.413016,150.872918 C144.315997,150.872918 137.752234,141.856212 137.752234,130.733852 C137.752234,119.61122 144.315997,110.594514 152.413016,110.594514" id="Fill-1924" fill="#818181" mask="url(#mask-2)"></path>
            <path d="M153.037993,120.812395 C156.855132,120.812395 159.949501,125.25341 159.949501,130.731887 C159.949501,136.210452 156.855132,140.651726 153.037993,140.651726 C149.220723,140.651726 146.126311,136.210452 146.126311,130.731887 C146.126311,125.25341 149.220723,120.812395 153.037993,120.812395 Z" id="Stroke-1925" stroke="#151616" stroke-width="2.68878087" mask="url(#mask-2)"></path>
            <path d="M153.041343,120.814179 C156.858552,120.814179 159.95294,125.255126 159.95294,130.73358 C159.95294,136.212033 156.858552,140.653343 153.041343,140.653343 C149.224134,140.653343 146.129655,136.212033 146.129655,130.73358 C146.129655,125.255126 149.224134,120.814179 153.041343,120.814179" id="Fill-1926" fill="#818181" mask="url(#mask-2)"></path>
            <path d="M153.247377,123.867605 C155.329671,123.867605 157.017617,126.942502 157.017617,130.735329 C157.017617,134.528155 155.329671,137.602955 153.247377,137.602955 C151.165083,137.602955 149.477161,134.528155 149.477161,130.735329 C149.477161,126.942502 151.165083,123.867605 153.247377,123.867605 Z" id="Stroke-1927" stroke="#151616" stroke-width="4.77987365" mask="url(#mask-2)"></path>
            <path d="M153.250695,123.865863 C155.33299,123.865863 157.020928,126.940755 157.020928,130.73358 C157.020928,134.526495 155.33299,137.601297 153.250695,137.601297 C151.1684,137.601297 149.480461,134.526495 149.480461,130.73358 C149.480461,126.940755 151.1684,123.865863 153.250695,123.865863" id="Fill-1928" fill="#818181" mask="url(#mask-2)"></path>
            <polyline id="Stroke-1929" stroke="#151616" stroke-width="0.51368917" mask="url(#mask-2)" points="143.758269 113.462794 140.761813 112.07761 130.158908 115.309978"></polyline>
            <polyline id="Stroke-1930" stroke="#151616" stroke-width="0.51368917" mask="url(#mask-2)" points="139.609337 119.234712 137.304295 117.618799 126.931831 120.389349"></polyline>
            <polyline id="Stroke-1931" stroke="#151616" stroke-width="0.51368917" mask="url(#mask-2)" points="137.995799 124.54481 133.846777 123.390445 125.087942 126.160995"></polyline>
            <polyline id="Stroke-1932" stroke="#151616" stroke-width="0.51368917" mask="url(#mask-2)" points="137.304295 130.086 132.925013 129.162363 124.857501 132.164003"></polyline>
            <polyline id="Stroke-1933" stroke="#151616" stroke-width="0.51368917" mask="url(#mask-2)" points="137.535007 137.012283 133.155364 134.703552 125.779355 137.243102"></polyline>
            <polyline id="Stroke-1934" stroke="#151616" stroke-width="0.51368917" mask="url(#mask-2)" points="140.30075 143.707566 135.921378 141.398835 128.315019 143.476838"></polyline>
            <polyline id="Stroke-1935" stroke="#151616" stroke-width="0.51368917" mask="url(#mask-2)" points="132.694301 148.786937 136.843232 146.247387 144.219331 148.09439"></polyline>
            <polyline id="Stroke-1936" stroke="#151616" stroke-width="0.51368917" mask="url(#mask-2)" points="138.917834 151.326486 143.297477 149.941302 149.290298 151.095668"></polyline>
            <path d="M140.531372,111.846882 L137.535007,117.618799" id="Stroke-1937" stroke="#151616" stroke-width="0.51368917" mask="url(#mask-2)"></path>
            <path d="M147.446409,110.461426 L140.070309,111.846882" id="Stroke-1938" stroke="#151616" stroke-width="0.51368917" mask="url(#mask-2)"></path>
            <polyline id="Stroke-1939" stroke="#151616" stroke-width="0.51368917" mask="url(#mask-2)" points="137.304295 117.849527 133.846777 123.390445 133.385804 129.393453 132.925013 134.703552 135.921378 141.168016 136.843232 146.016387 143.297477 149.479484"></polyline>
            <path d="M134.53828,111.615791 L134.307839,113.924613" id="Stroke-1940" stroke="#151616" stroke-width="0.51368917" mask="url(#mask-2)"></path>
            <path d="M130.619971,115.309978 L129.467495,120.158349" id="Stroke-1941" stroke="#151616" stroke-width="0.51368917" mask="url(#mask-2)"></path>
            <path d="M127.392893,120.158349 L127.392893,125.468448" id="Stroke-1942" stroke="#151616" stroke-width="0.51368917" mask="url(#mask-2)"></path>
            <path d="M125.548914,126.392085 L127.162453,131.240365" id="Stroke-1943" stroke="#151616" stroke-width="0.51368917" mask="url(#mask-2)"></path>
            <path d="M124.857501,131.932912 L127.853956,136.319736" id="Stroke-1944" stroke="#151616" stroke-width="0.51368917" mask="url(#mask-2)"></path>
            <path d="M125.779355,137.243102 L130.619971,142.784201" id="Stroke-1945" stroke="#151616" stroke-width="0.51368917" mask="url(#mask-2)"></path>
            <path d="M128.545369,143.707566 L134.768902,147.401753" id="Stroke-1946" stroke="#151616" stroke-width="0.51368917" mask="url(#mask-2)"></path>
            <path d="M132.925013,148.556209 L140.992435,150.63394" id="Stroke-1947" stroke="#151616" stroke-width="0.51368917" mask="url(#mask-2)"></path>
            <polygon id="Fill-1948" fill="#FDC534" mask="url(#mask-2)" points="171.472269 66.330272 144.244946 65.4910385 141.389597 63.0285495 168.958961 62.5541291"></polygon>
            <polygon id="Stroke-1949" stroke="#151616" stroke-width="0.51368917" mask="url(#mask-2)" points="171.472269 66.330272 144.244946 65.4910385 141.389597 63.0285495 168.958961 62.5541291"></polygon>
            <polygon id="Fill-1950" fill="#FDC534" mask="url(#mask-2)" points="182.362999 65.9106099 171.296315 65.9767005 168.981317 62.5094341 184.038628 62.852217"></polygon>
            <polygon id="Stroke-1951" stroke="#151616" stroke-width="0.51368917" mask="url(#mask-2)" points="182.362999 65.9106099 171.296315 65.9767005 168.981317 62.5094341 184.038628 62.852217"></polygon>
            <polygon id="Fill-1952" fill="#FDC534" mask="url(#mask-2)" points="184.036093 62.8694423 141.202873 62.769989 141.004473 61.4789093 169.064406 61.1810934 184.135384 61.5783626"></polygon>
            <polygon id="Stroke-1953" stroke="#151616" stroke-width="0.51368917" mask="url(#mask-2)" points="184.036093 62.8694423 141.202873 62.769989 141.004473 61.4789093 169.064406 61.1810934 184.135384 61.5783626"></polygon>
            <path d="M168.866096,61.1810934 L168.766806,62.769989" id="Stroke-1954" stroke="#151616" stroke-width="0.51368917" mask="url(#mask-2)"></path>
            <path d="M156.601953,80.3857335 C160.997436,80.3857335 164.560672,84.1425659 164.560672,88.7770714 C164.560672,90.1088571 164.265877,91.3677527 163.742181,92.486217 L149.221328,91.9208654 C148.848785,90.9499038 148.643235,89.8888269 148.643235,88.7770714 C148.643235,84.1425659 152.20647,80.3857335 156.601953,80.3857335 Z" id="Stroke-1955" stroke="#151616" stroke-width="0.51368917" stroke-linejoin="round" mask="url(#mask-2)"></path>
            <path d="M156.601953,80.3857335 C160.997436,80.3857335 164.560672,84.1425659 164.560672,88.7770714 C164.560672,90.1088571 164.265877,91.3677527 163.742181,92.486217 L149.221328,91.9208654 C148.848785,90.9499038 148.643235,89.8888269 148.643235,88.7770714 C148.643235,84.1425659 152.20647,80.3857335 156.601953,80.3857335" id="Fill-1956" fill="#818181" mask="url(#mask-2)"></path>
            <path d="M156.601953,83.0357967 C159.609451,83.0357967 162.047364,85.6061703 162.047364,88.7770714 C162.047364,90.1385934 161.597524,91.3891484 160.846374,92.3733462 L152.117136,92.0336456 C151.511708,91.1081951 151.156634,89.986467 151.156634,88.7770714 C151.156634,85.6061703 153.594455,83.0357967 156.601953,83.0357967 Z" id="Stroke-1957" stroke="#151616" stroke-width="0.51368917" stroke-linejoin="round" mask="url(#mask-2)"></path>
            <path d="M156.601953,83.0357967 C159.609451,83.0357967 162.047364,85.6061703 162.047364,88.7770714 C162.047364,90.1385934 161.597524,91.3891484 160.846374,92.3733462 L152.117136,92.0336456 C151.511708,91.1081951 151.156634,89.986467 151.156634,88.7770714 C151.156634,85.6061703 153.594455,83.0357967 156.601953,83.0357967" id="Fill-1958" fill="#D8D8D9" mask="url(#mask-2)"></path>
            <path d="M140.335145,76.9610769 L139.076409,76.7318901 C139.076409,76.7318901 138.847597,77.5339533 139.305311,78.5657473 C139.763025,79.5975412 144.111804,80.8583407 144.111804,80.8583407 L144.111804,78.7949341 C144.111804,78.7949341 142.624257,78.5657473 141.708558,77.9926896 C140.792858,77.4195412 140.335145,76.9610769 140.335145,76.9610769 Z" id="Stroke-1959" stroke="#151616" stroke-width="1.28426823" mask="url(#mask-2)"></path>
            <path d="M140.335145,76.9610769 L139.076409,76.7318901 C139.076409,76.7318901 138.847597,77.5339533 139.305311,78.5657473 C139.763025,79.5975412 144.111804,80.8583407 144.111804,80.8583407 L144.111804,78.7949341 C144.111804,78.7949341 142.624257,78.5657473 141.708558,77.9926896 C140.792858,77.4195412 140.335145,76.9610769 140.335145,76.9610769" id="Fill-1960" fill="#818181" mask="url(#mask-2)"></path>
            <path d="M167.457022,76.9610769 L166.198286,76.7318901 C166.198286,76.7318901 165.969474,77.5339533 166.427188,78.5657473 C166.884902,79.5975412 171.233682,80.8583407 171.233682,80.8583407 L171.233682,78.7949341 C171.233682,78.7949341 169.746134,78.5657473 168.830435,77.9926896 C167.914736,77.4195412 167.457022,76.9610769 167.457022,76.9610769 Z" id="Stroke-1961" stroke="#151616" stroke-width="1.28426823" mask="url(#mask-2)"></path>
            <path d="M167.457022,76.9610769 L166.198286,76.7318901 C166.198286,76.7318901 165.969474,77.5339533 166.427188,78.5657473 C166.884902,79.5975412 171.233682,80.8583407 171.233682,80.8583407 L171.233682,78.7949341 C171.233682,78.7949341 169.746134,78.5657473 168.830435,77.9926896 C167.914736,77.4195412 167.457022,76.9610769 167.457022,76.9610769" id="Fill-1962" fill="#818181" mask="url(#mask-2)"></path>
            <path d="M163.986344,64.5825935 L167.837585,64.5825935 C168.32182,64.5825935 168.717656,64.9790734 168.717656,65.4638663 L168.717656,75.9214873 C168.717656,76.4066714 168.32182,76.8030535 167.837585,76.8030535 L163.986344,76.8030535 C163.502403,76.8030535 163.106567,76.4066714 163.106567,75.9214873 L163.106567,65.4638663 C163.106567,64.9790734 163.502403,64.5825935 163.986344,64.5825935 Z" id="Stroke-1963" stroke="#151616" stroke-width="1.19057365" mask="url(#mask-2)"></path>
            <path d="M163.988552,64.581544 L167.839612,64.581544 C168.323755,64.581544 168.719559,64.9780879 168.719559,65.4630247 L168.719559,75.9205797 C168.719559,76.4055165 168.323755,76.8020604 167.839612,76.8020604 L163.988552,76.8020604 C163.504409,76.8020604 163.108514,76.4055165 163.108514,75.9205797 L163.108514,65.4630247 C163.108514,64.9780879 163.504409,64.581544 163.988552,64.581544" id="Fill-1964" fill="#FDC534" mask="url(#mask-2)"></path>
            <path d="M137.359507,65.4738132 L140.809241,65.4738132 C141.24315,65.4738132 141.597682,65.8289258 141.597682,66.263456 L141.597682,76.0123269 C141.597682,76.4468571 141.24315,76.8020604 140.809241,76.8020604 L137.359507,76.8020604 C136.925597,76.8020604 136.571066,76.4468571 136.571066,76.0123269 L136.571066,66.263456 C136.571066,65.8289258 136.925597,65.4738132 137.359507,65.4738132 Z" id="Stroke-1965" stroke="#151616" stroke-width="1.28426823" mask="url(#mask-2)"></path>
            <path d="M137.359507,65.4738132 L140.809241,65.4738132 C141.24315,65.4738132 141.597682,65.8289258 141.597682,66.263456 L141.597682,76.0123269 C141.597682,76.4468571 141.24315,76.8020604 140.809241,76.8020604 L137.359507,76.8020604 C136.925597,76.8020604 136.571066,76.4468571 136.571066,76.0123269 L136.571066,66.263456 C136.571066,65.8289258 136.925597,65.4738132 137.359507,65.4738132" id="Fill-1966" fill="#FDC534" mask="url(#mask-2)"></path>
            <path d="M169.168312,93.3923571 L169.587288,108.077357" id="Stroke-1967" stroke="#151616" stroke-width="0.51368917" mask="url(#mask-2)"></path>
            <path d="M171.139279,95.7286484 L171.139279,105.703805 L181.844733,105.080341 C181.844733,105.080341 183.214345,104.581261 183.463159,103.459261 C183.712064,102.337261 183.338707,99.0951016 183.338707,99.0951016 C183.338707,99.0951016 183.712064,97.8485357 180.475483,97.2250714 C177.238902,96.6016071 171.139279,95.8532143 171.139279,95.7286484 Z" id="Stroke-1968" stroke="#151616" stroke-width="0.51368917" mask="url(#mask-2)"></path>
            <path d="M226.843156,127.55597 L239.020861,127.55597" id="Stroke-1969" stroke="#151616" stroke-width="0.51368917" mask="url(#mask-2)"></path>
            <polyline id="Stroke-1970" stroke="#151616" stroke-width="0.51368917" mask="url(#mask-2)" points="239.737165 120.954701 238.734304 127.412275 238.734304 130.712819"></polyline>
            <path d="M231.857553,120.667673 C231.857553,120.667673 231.427807,103.160448 231.141159,102.012429 C230.854601,100.8645 229.135618,94.5503489 224.551057,94.4069258 C219.966406,94.2635027 203.633886,91.5369231 203.633886,91.5369231 L186.951994,87.3394863" id="Stroke-1971" stroke="#151616" stroke-width="0.51368917" mask="url(#mask-2)"></path>
            <path d="M229.995109,98.7119753 L225.840295,103.304052" id="Stroke-1972" stroke="#151616" stroke-width="0.51368917" mask="url(#mask-2)"></path>
            <path d="M225.410549,99.4294533 L225.410549,121.241819" id="Stroke-1973" stroke="#151616" stroke-width="0.51368917" mask="url(#mask-2)"></path>
            <path d="M221.82885,97.7073791 L221.82885,116.936769" id="Stroke-1974" stroke="#151616" stroke-width="0.51368917" mask="url(#mask-2)"></path>
            <path d="M214.952099,93.1155742 L214.952099,113.636225" id="Stroke-1975" stroke="#151616" stroke-width="0.51368917" mask="url(#mask-2)"></path>
            <path d="M187.355311,98.9990027 C187.355311,98.9990027 211.657048,98.1381016 211.657048,98.9990027 C211.657048,99.8599038 211.227031,100.8645 211.227031,100.8645 L204.35028,100.721077 L196.900324,117.510824" id="Stroke-1976" stroke="#151616" stroke-width="0.51368917" mask="url(#mask-2)"></path>
            <polyline id="Stroke-1977" stroke="#151616" stroke-width="0.51368917" mask="url(#mask-2)" points="204.923396 100.721077 199.479343 101.294951 193.175527 116.219201"></polyline>
            <path d="M205.926347,91.9673736 L198.763039,89.9584533 C198.763039,89.9584533 198.046645,87.6623242 199.909089,86.9447555 C201.771533,86.2272775 202.201007,85.6534038 203.347328,86.0838544 C204.49365,86.5143049 205.066312,86.9450275 205.49633,87.8059286 C205.926347,88.6668297 205.926347,91.9673736 205.926347,91.9673736 Z" id="Fill-1978" fill="#FFD84C" mask="url(#mask-2)"></path>
            <path d="M205.926347,91.9673736 L198.763039,89.9584533 C198.763039,89.9584533 198.046645,87.6623242 199.909089,86.9447555 C201.771533,86.2272775 202.201007,85.6534038 203.347328,86.0838544 C204.49365,86.5143049 205.066312,86.9450275 205.49633,87.8059286 C205.926347,88.6668297 205.926347,91.9673736 205.926347,91.9673736 Z" id="Stroke-1979" stroke="#151616" stroke-width="0.51368917" mask="url(#mask-2)"></path>
            <path d="M205.926347,87.375478 L210.797285,87.375478" id="Stroke-1980" stroke="#151616" stroke-width="0.51368917" mask="url(#mask-2)"></path>
            <polygon id="Stroke-1981" stroke="#151616" stroke-width="1.28426823" mask="url(#mask-2)" points="185.152636 111.770819 192.172575 111.770819 192.172575 116.649651 185.152636 116.649651"></polygon>
            <polygon id="Fill-1982" fill="#FDC534" mask="url(#mask-2)" points="185.152636 111.770819 192.172575 111.770819 192.172575 116.649651 185.152636 116.649651"></polygon>
            <polygon id="Stroke-1983" stroke="#151616" stroke-width="1.28426823" mask="url(#mask-2)" points="177.989328 107.322346 185.009267 107.322346 185.009267 111.770819 177.989328 111.770819"></polygon>
            <polygon id="Fill-1984" fill="#FDC534" mask="url(#mask-2)" points="177.989328 107.322346 185.009267 107.322346 185.009267 111.770819 177.989328 111.770819"></polygon>
            <polygon id="Stroke-1985" stroke="#151616" stroke-width="1.28426823" mask="url(#mask-2)" points="185.152636 117.941275 192.172575 117.941275 192.172575 116.649651 185.152636 116.649651"></polygon>
            <polygon id="Fill-1986" fill="#FDC534" mask="url(#mask-2)" points="185.152636 117.941275 192.172575 117.941275 192.172575 116.649651 185.152636 116.649651"></polygon>
            <polygon id="Stroke-1987" stroke="#151616" stroke-width="1.28426823" mask="url(#mask-2)" points="186.155588 117.941275 193.175527 117.941275 193.175527 124.399393 186.155588 124.399393"></polygon>
            <polygon id="Fill-1988" fill="#FDC534" mask="url(#mask-2)" points="186.155588 117.941275 193.175527 117.941275 193.175527 124.399393 186.155588 124.399393"></polygon>
            <polygon id="Stroke-1989" stroke="#151616" stroke-width="1.28426823" mask="url(#mask-2)" points="186.155588 125.690201 193.175527 125.690201 193.175527 124.399393 186.155588 124.399393"></polygon>
            <polygon id="Fill-1990" fill="#FDC534" mask="url(#mask-2)" points="186.155588 125.690201 193.175527 125.690201 193.175527 124.399393 186.155588 124.399393"></polygon>
            <polygon id="Stroke-1991" stroke="#151616" stroke-width="1.28426823" mask="url(#mask-2)" points="187.731384 125.690201 194.751323 125.690201 194.751323 132.14442 187.731384 132.14442"></polygon>
            <polygon id="Fill-1992" fill="#FDC534" mask="url(#mask-2)" points="187.731384 125.690201 194.751323 125.690201 194.751323 132.14442 187.731384 132.14442"></polygon>
            <polygon id="Stroke-1993" stroke="#151616" stroke-width="1.28426823" mask="url(#mask-2)" points="187.731384 133.152371 194.751323 133.152371 194.751323 132.14442 187.731384 132.14442"></polygon>
            <polygon id="Fill-1994" fill="#FDC534" mask="url(#mask-2)" points="187.731384 133.152371 194.751323 133.152371 194.751323 132.14442 187.731384 132.14442"></polygon>
            <polygon id="Stroke-1995" stroke="#151616" stroke-width="1.28426823" mask="url(#mask-2)" points="189.450639 133.152371 196.470578 133.152371 196.470578 139.199802 189.450639 139.199802"></polygon>
            <polygon id="Fill-1996" fill="#FDC534" mask="url(#mask-2)" points="189.450639 133.152371 196.470578 133.152371 196.470578 139.199802 189.450639 139.199802"></polygon>
            <path d="M183.746911,61.4588736 C183.746911,61.4588736 186.406304,63.5307115 186.701822,65.306728 C186.997431,67.0827445 186.701822,89.8739588 186.701822,89.8739588 L201.477191,93.4257198" id="Stroke-1997" stroke="#151616" stroke-width="0.51368917" mask="url(#mask-2)"></path>
            <path d="M57.5662307,105.857473 C58.4111504,105.460475 58.5270949,105.213519 59.3391591,105.265376" id="Stroke-1998" stroke="#151616" stroke-width="0.51368917" mask="url(#mask-2)"></path>
            <path d="M61.7031241,107.041484 L62.2942511,102.601442" id="Stroke-1999" stroke="#151616" stroke-width="0.51368917" mask="url(#mask-2)"></path>
            <path d="" id="Stroke-2000" stroke="#151616" stroke-width="0.51368917" mask="url(#mask-2)"></path>
            <path d="M67.0222715,104.969374 C67.241127,107.014195 68.6979007,106.179766 68.795381,105.56147" id="Stroke-2001" stroke="#151616" stroke-width="0.51368917" mask="url(#mask-2)"></path>
            <path d="M70.568581,101.417522 C71.9629927,102.724558 71.4416496,102.600173 72.932546,101.713615" id="Stroke-2002" stroke="#151616" stroke-width="0.51368917" mask="url(#mask-2)"></path>
            <path d="M73.6875883,98.7535879 C75.0145693,98.3760824 76.4801226,97.9034753 76.6424993,99.6417775" id="Stroke-2003" stroke="#151616" stroke-width="0.51368917" mask="url(#mask-2)"></path>
            <path d="M75.0009927,103.785453 C74.5684409,105.174898 74.8039504,106.001168 76.4785839,105.857473" id="Stroke-2004" stroke="#151616" stroke-width="0.51368917" mask="url(#mask-2)"></path>
            <path d="M80.7631912,105.709516 C79.9301285,106.619192 79.9822628,106.586555 80.9743533,106.41131 L80.7631912,105.709516 Z" id="Stroke-2005" stroke="#151616" stroke-width="0.51368917" mask="url(#mask-2)"></path>
            <path d="M81.2066044,97.865761 C81.3425518,95.9609176 83.8288876,95.786217 84.1616964,97.2735742" id="Stroke-2006" stroke="#151616" stroke-width="0.51368917" mask="url(#mask-2)"></path>
            <path d="M82.0929781,100.529604 C82.6841051,100.529604 83.2749606,100.529604 83.8661781,100.529604" id="Stroke-2007" stroke="#151616" stroke-width="0.51368917" mask="url(#mask-2)"></path>
            <path d="M85.9345343,102.897536 L87.7077343,102.897536" id="Stroke-2008" stroke="#151616" stroke-width="0.51368917" mask="url(#mask-2)"></path>
            <path d="M89.776181,98.4578571 C91.6255007,99.4071511 90.7162277,99.0453297 92.1404175,98.7535879" id="Stroke-2009" stroke="#151616" stroke-width="0.51368917" mask="url(#mask-2)"></path>
            <path d="" id="Stroke-2010" stroke="#151616" stroke-width="0.51368917" mask="url(#mask-2)"></path>
            <path d="" id="Stroke-2011" stroke="#151616" stroke-width="0.51368917" mask="url(#mask-2)"></path>
            <path d="" id="Stroke-2012" stroke="#151616" stroke-width="0.51368917" mask="url(#mask-2)"></path>
            <path d="" id="Stroke-2013" stroke="#151616" stroke-width="0.51368917" mask="url(#mask-2)"></path>
            <path d="" id="Stroke-2014" stroke="#151616" stroke-width="0.51368917" mask="url(#mask-2)"></path>
            <path d="M82.4896876,104.147728 C83.3345168,103.750731 83.4504613,103.503775 84.2625255,103.555632" id="Stroke-2015" stroke="#151616" stroke-width="0.51368917" mask="url(#mask-2)"></path>
            <path d="M86.5867562,106.712481 C87.4316759,106.315484 87.5476204,106.068527 88.3595942,106.120385" id="Stroke-2016" stroke="#151616" stroke-width="0.51368917" mask="url(#mask-2)"></path>
            <path d="M98.4509314,98.0777225 C99.2957606,97.6807253 99.4117956,97.4336786 100.223769,97.4856264" id="Stroke-2017" stroke="#151616" stroke-width="0.51368917" mask="url(#mask-2)"></path>
            <path d="M76.0775299,96.7870962 C77.4045109,96.4095907 78.8699737,95.9369835 79.0324409,97.6752857" id="Stroke-2018" stroke="#151616" stroke-width="0.51368917" mask="url(#mask-2)"></path>
            <path d="M89.3928672,104.909176 C90.7197577,104.53167 92.1853109,104.059063 92.3476876,105.797365" id="Stroke-2019" stroke="#151616" stroke-width="0.51368917" mask="url(#mask-2)"></path>
            <path d="M92.5508847,94.3933269 C93.8778657,94.0158214 95.343419,93.5432143 95.5057956,95.2814258" id="Stroke-2020" stroke="#151616" stroke-width="0.51368917" mask="url(#mask-2)"></path>
            <path d="M106.463775,102.258931 C107.790666,101.881426 109.256219,101.408819 109.418596,103.14703" id="Stroke-2021" stroke="#151616" stroke-width="0.51368917" mask="url(#mask-2)"></path>
            <path d="M63.740254,106.376135 C65.1347562,107.68317 64.6134131,107.558786 66.1043095,106.672137" id="Stroke-2022" stroke="#151616" stroke-width="0.51368917" mask="url(#mask-2)"></path>
            <path d="M96.3455562,99.8786703 C97.7399679,101.185706 97.2186248,101.061321 98.7095212,100.174764" id="Stroke-2023" stroke="#151616" stroke-width="0.51368917" mask="url(#mask-2)"></path>
            <path d="M100.186569,94.6636731 C101.580981,95.9707088 101.059638,95.8463242 102.550625,94.9596758" id="Stroke-2024" stroke="#151616" stroke-width="0.51368917" mask="url(#mask-2)"></path>
            <path d="M102.405626,102.785481 C103.800038,104.092516 103.278695,103.968132 104.769591,103.081484" id="Stroke-2025" stroke="#151616" stroke-width="0.51368917" mask="url(#mask-2)"></path>
            <path d="M98.0526832,105.093758 C99.4471854,106.400794 98.9258423,106.276409 100.416739,105.389761" id="Stroke-2026" stroke="#151616" stroke-width="0.51368917" mask="url(#mask-2)"></path>
            <path d="" id="Stroke-2027" stroke="#151616" stroke-width="0.51368917" mask="url(#mask-2)"></path>
            <path d="" id="Stroke-2028" stroke="#151616" stroke-width="0.51368917" mask="url(#mask-2)"></path>
            <path d="M95.4634365,98.1633049 C96.3083562,97.766217 96.4243007,97.519261 97.236365,97.5712088" id="Stroke-2029" stroke="#151616" stroke-width="0.51368917" mask="url(#mask-2)"></path>
            <path d="M111.936791,98.9327308 C112.781711,98.5356429 112.897655,98.2886868 113.70972,98.3406346" id="Stroke-2030" stroke="#151616" stroke-width="0.51368917" mask="url(#mask-2)"></path>
            <path d="M101.939947,98.5824231 C103.266928,98.2049176 104.732391,97.7323104 104.894858,99.4706126" id="Stroke-2031" stroke="#151616" stroke-width="0.51368917" mask="url(#mask-2)"></path>
            <path d="M102.40798,106.530799 L104.181089,106.530799" id="Stroke-2032" stroke="#151616" stroke-width="0.51368917" mask="url(#mask-2)"></path>
            <path d="M112.650289,101.65786 L114.423489,101.65786" id="Stroke-2033" stroke="#151616" stroke-width="0.51368917" mask="url(#mask-2)"></path>
            <path d="M167.317997,129.549931 L166.751489,137.493865 L182.613171,137.493865 C182.613171,137.493865 183.746187,135.791646 183.746187,131.819588 C183.746187,127.847621 182.046663,126.14531 182.046663,126.14531 L167.317997,126.14531 L167.317997,129.549931 Z" id="Stroke-2034" stroke="#151616" stroke-width="1.28426823" mask="url(#mask-2)"></path>
            <path d="M167.317997,129.549931 L166.751489,137.493865 L182.613171,137.493865 C182.613171,137.493865 183.746187,135.791646 183.746187,131.819588 C183.746187,127.847621 182.046663,126.14531 182.046663,126.14531 L167.317997,126.14531 L167.317997,129.549931 Z" id="Fill-2035" fill="#FDC534" mask="url(#mask-2)"></path>
            <path d="M182.459755,126.485374 C182.459755,126.485374 180.124482,128.532008 176.621618,129.993981 C173.118663,131.455953 167.280254,131.74842 167.280254,131.74842" id="Stroke-2036" stroke="#151616" stroke-width="0.642179422" mask="url(#mask-2)"></path>
            <path d="M31.6430803,56.636522 L31.6915036,55.5016484 C28.6196526,30.4881016 28.9983504,45.0816264 37.8745781,25.4282225 C41.1316146,33.0825907 41.6855416,43.0271951 53.1697518,45.8554038" id="Stroke-2037" stroke="#151616" stroke-width="0.642179422" mask="url(#mask-2)"></path>
            <path d="M64.537158,27.8947971 C69.7263432,18.4107693 80.8162395,12.1682553 93.6587138,12.6993151 C111.472306,13.4358262 125.913654,26.9254234 125.913654,42.8290738 C125.913654,44.457249 125.761877,46.0480332 125.471209,47.590382" id="Stroke-2038" stroke="#FEFEFE" stroke-width="3.49995487" stroke-linejoin="round" mask="url(#mask-2)"></path>
        </g>
    </g>
</svg>