<?xml version="1.0" encoding="UTF-8"?>
<svg width="250px" height="180px" viewBox="0 0 250 180" version="1.1" xmlns="http://www.w3.org/2000/svg" xmlns:xlink="http://www.w3.org/1999/xlink">
    <!-- Generator: Sketch 51.2 (57519) - http://www.bohemiancoding.com/sketch -->
    <title>7-2</title>
    <desc>Created with Sketch.</desc>
    <defs>
        <polygon id="path-1" points="0.17552381 0.906291892 246.888171 0.906291892 246.888171 167.265613 0.17552381 167.265613"></polygon>
    </defs>
    <g id="7-2" stroke="none" stroke-width="1" fill="none" fill-rule="evenodd">
        <g id="Group-1805" transform="translate(0.000000, 12.000000)">
            <mask id="mask-2" fill="white">
                <use xlink:href="#path-1"></use>
            </mask>
            <g id="Clip-1642"></g>
            <path d="M-6.15129524,42.5710184 L0.828490476,166.827996 L253.202143,174.202197 L253.9369,51.0515676 L204.344005,24.5039351 L131.239876,18.6045016 L49.3195667,26.3475762 C49.3195667,26.3475762 -6.88614286,41.4648519 -6.15129524,42.5710184 Z" id="Fill-1641" fill="#D8D8D9" mask="url(#mask-2)"></path>
            <path d="M-6.15129524,42.5710184 L0.828490476,166.827996 L253.202143,174.202197 L253.9369,51.0515676 L204.344005,24.5039351 L131.239876,18.6045016 L49.3195667,26.3475762 C49.3195667,26.3475762 -6.88614286,41.4648519 -6.15129524,42.5710184 Z" id="Stroke-1643" stroke="#151616" stroke-width="0.51368917" mask="url(#mask-2)"></path>
            <polygon id="Fill-1644" fill="#BEBFBF" mask="url(#mask-2)" points="34.9474238 100.090404 31.274 102.302919 25.3963048 103.409085 22.0898524 106.727403 22.0898524 112.258236 31.6412429 117.051321 38.6210286 123.319719 45.2335714 132.906162 59.1931429 138.805596 68.0094143 136.22448 66.5401714 125.531961 66.5401714 121.844679 72.7851095 123.319719 79.0301381 118.526361 83.4385905 118.894962 91.887619 126.269436 105.112433 128.481678 112.092219 129.956445 112.459733 136.962045 123.8477 143.23008 132.297 144.336519 146.256571 140.280363 149.195419 128.850279 135.235848 126.638037 114.663824 126.638037 90.4183762 101.196843 42.6619667 96.0346119"></polygon>
            <polygon id="Fill-1645" fill="#BEBFBF" mask="url(#mask-2)" points="154.569162 79.0739676 159.344586 83.12976 164.855129 84.6045276 166.691886 86.8167697 171.834824 85.7106032 174.773762 85.3420022 178.81461 85.7106032 182.12079 84.6045276 183.957548 89.7664865 187.263729 89.0290119 199.01921 94.1912432 202.692814 97.14096 201.958057 102.302919 202.3253 107.83357 212.243933 107.464878 214.815538 101.565444 220.32581 101.196843 223.264657 98.6157276 222.897414 95.2973189 217.019629 93.8223697 220.32581 84.2359265 219.591233 75.0180843 212.243933 73.9117362 200.488724 77.9675286 193.508938 77.5989276 193.141424 72.4369686 183.22279 72.8055697 179.181852 78.7050941 169.263219 76.4928519 161.548948 70.9619286"></polygon>
            <path d="M72.0852762,70.2247265 L88.2488476,62.1130508 L94.861119,56.9510919 L99.6368143,58.4257686 L116.16799,53.2638097 L125.71911,54.3699762 L135.2705,53.2638097 L142.617529,56.5821276 L145.189133,63.9566011 L147.760467,69.855853 L145.189133,76.12416 L145.556376,81.6548108 L136.005257,101.934045 L126.82111,101.196843 L121.678171,100.82797 L114.331143,100.82797 L102.208419,98.9843286 L83.1059095,98.9843286 C83.1059095,98.9843286 76.4934571,97.8784346 75.3913667,95.2973189 C74.2893667,92.7162032 72.0852762,70.2247265 72.0852762,70.2247265" id="Fill-1646" fill="#BEBFBF" mask="url(#mask-2)"></path>
            <path d="M-9.04580952,37.0403676 L-4.63735714,45.8896086 L2.70967143,44.7832605 L14.8323952,41.833453 L35.0369048,35.5654184 L51.568081,39.2526097 L64.0580476,34.4592519 L73.6094381,30.7720605 L91.2423429,25.2415005 L122.83509,26.3475762 L137.529419,27.0850508 L150.019476,31.1409341 L183.081467,27.0850508 L195.571705,33.3531762 L206.592429,39.2526097 L231.572633,46.2582097 L254.348567,54.3699762 L262.430624,33.7217773 L249.940386,30.4034595 C249.940386,30.4034595 244.429933,28.5600908 242.225843,27.8226162 C240.021752,27.0850508 234.511481,22.6603849 233.776724,19.3419762 C233.041967,16.0236584 231.939876,10.4928259 230.837876,8.28058378 C229.735876,6.06834162 226.429695,6.06834162 226.429695,6.06834162 L215.409062,18.6045016 L202.918733,18.2359005 L192.265343,13.8114162 C192.265343,13.8114162 190.061252,14.9177643 187.857162,16.761133 C185.653071,18.6045016 183.816314,17.8672086 183.816314,17.8672086 L178.673286,16.0236584 C178.673286,16.0236584 178.305771,9.38693189 174.264924,9.75553297 C170.223986,10.1241341 166.550562,11.5989016 166.550562,11.5989016 C166.550562,11.5989016 162.876957,4.59330162 158.101262,5.33077622 C153.325567,6.06834162 142.304843,11.9677751 142.304843,11.9677751 L137.896752,15.286093 L121.365848,8.64918486 L115.120548,4.96217514 C115.120548,4.96217514 112.916729,0.537418378 109.610367,1.27498378 C106.304005,2.01245838 91.6098571,7.1744173 91.6098571,7.1744173 L78.3851333,9.38665946 L69.5685,4.22470054 C69.5685,4.22470054 64.7928048,1.64358486 55.609019,1.64358486 C46.4251429,1.64358486 42.3842048,2.74993297 42.3842048,2.74993297 L36.1389952,13.4425427 L35.0369048,22.291693 L21.4448476,23.0292584 L-9.04580952,37.0403676 Z" id="Fill-1647" fill="#979898" mask="url(#mask-2)"></path>
            <path d="M-6.40037619,25.9869665 L4.74936667,24.012013 L13.2755714,23.3538162 L21.8018667,17.4291373 L28.3605762,12.1629276 L39.5102286,14.1377903 L38.1986857,26.6451632 L27.7047143,23.3538162 L15.899019,31.2531762 L6.06118095,32.5698422 L-2.46511429,35.8611892 L-7.71191905,37.1778551 C-7.71191905,37.1778551 -7.05614762,25.9869665 -6.40037619,25.9869665 Z" id="Stroke-1648" stroke="#151616" stroke-width="0.770579061" stroke-linejoin="round" mask="url(#mask-2)"></path>
            <path d="M-6.40037619,25.9869665 L4.74936667,24.012013 L13.2755714,23.3538162 L21.8018667,17.4291373 L28.3605762,12.1629276 L39.5102286,14.1377903 L38.1986857,26.6451632 L27.7047143,23.3538162 L15.899019,31.2531762 L6.06118095,32.5698422 L-2.46511429,35.8611892 L-7.71191905,37.1778551 C-7.71191905,37.1778551 -7.05614762,25.9869665 -6.40037619,25.9869665" id="Fill-1649" fill="#D8D8D9" mask="url(#mask-2)"></path>
            <path d="M4.63880476,24.079213 L-1.1248,35.6493276" id="Stroke-1650" stroke="#151616" stroke-width="0.770579061" stroke-linejoin="round" mask="url(#mask-2)"></path>
            <path d="M13.284619,23.0274422 L15.6423381,31.4418811" id="Stroke-1651" stroke="#151616" stroke-width="0.770579061" stroke-linejoin="round" mask="url(#mask-2)"></path>
            <path d="M28.2177143,11.4573276 L28.2177143,24.079213" id="Stroke-1652" stroke="#151616" stroke-width="0.770579061" stroke-linejoin="round" mask="url(#mask-2)"></path>
            <path d="M127.037348,58.0679741 C127.037348,58.0679741 128.820543,62.9254443 125.763986,65.7376735 C122.707429,68.5499935 116.339533,71.6178551 116.339533,71.6178551 L110.990671,71.6178551 L109.462348,67.2716497 L112.264033,60.3690292 C112.264033,60.3690292 126.782657,57.8123416 127.037348,58.0679741 Z" id="Stroke-1653" stroke="#151616" stroke-width="1.28426823" stroke-linejoin="round" mask="url(#mask-2)"></path>
            <path d="M127.037348,58.0679741 C127.037348,58.0679741 128.820543,62.9254443 125.763986,65.7376735 C122.707429,68.5499935 116.339533,71.6178551 116.339533,71.6178551 L110.990671,71.6178551 L109.462348,67.2716497 L112.264033,60.3690292 C112.264033,60.3690292 126.782657,57.8123416 127.037348,58.0679741" id="Fill-1654" fill="#FEFEFE" mask="url(#mask-2)"></path>
            <path d="M57.6494381,137.839278 L67.7176286,137.839278 C67.7176286,137.839278 70.2933048,133.139092 68.8883905,128.203888 C67.4834762,123.268774 58.3518952,106.347996 58.3518952,106.347996 L39.6202476,96.0075503 L57.6494381,123.973829 C57.6494381,123.973829 57.1811333,137.604532 57.6494381,137.839278 Z" id="Stroke-1655" stroke="#151616" stroke-width="1.92644765" stroke-linejoin="round" mask="url(#mask-2)"></path>
            <path d="M57.6494381,137.839278 L67.7176286,137.839278 C67.7176286,137.839278 70.2933048,133.139092 68.8883905,128.203888 C67.4834762,123.268774 58.3518952,106.347996 58.3518952,106.347996 L39.6202476,96.0075503 L57.6494381,123.973829 C57.6494381,123.973829 57.1811333,137.604532 57.6494381,137.839278" id="Fill-1656" fill="#818181" mask="url(#mask-2)"></path>
            <path d="M60.3977429,135.549846 L68.320019,135.549846 L68.320019,135.787408 L68.1758905,136.064653 L60.2733381,136.064653 L60.3805524,135.976657 L60.3977429,135.549846 Z M59.2485143,136.906106 L67.7568048,136.906106 C67.672481,137.086093 67.5960286,137.257998 67.5308857,137.421003 L59.1980286,137.421003 L59.1980286,136.947606 L59.2485143,136.906106 Z M60.4572762,134.023589 L69.2176333,134.023589 C69.1369286,134.194768 69.0527857,134.366763 68.9665619,134.538396 L60.4377333,134.538396 L60.4572762,134.023589 Z M60.5116524,132.473449 L69.5536619,132.473449 C69.553119,132.652891 69.5448857,132.825068 69.5275143,132.988255 L60.4944619,132.988255 L60.5116524,132.473449 Z M60.5492905,130.923308 L69.412881,130.923308 C69.4408381,131.09603 69.4654476,131.268208 69.4859857,131.438115 L60.5413286,131.438115 C60.5462143,131.230884 60.5488381,131.055075 60.5492905,130.923308 Z M60.2025857,129.372895 L69.0891571,129.372895 C69.1309571,129.54144 69.1720333,129.713163 69.2110286,129.887702 L60.3528667,129.887702 C60.3085333,129.726058 60.2576857,129.553336 60.2025857,129.372895 Z M59.6894048,127.822664 L68.6534238,127.822664 C68.7027333,127.980765 68.7550286,128.15376 68.8085905,128.337561 L59.8668286,128.337561 C59.8086524,128.16611 59.749119,127.993842 59.6894048,127.822664 Z M59.1277286,126.272523 L68.0745571,126.272523 L68.3054524,126.78733 L59.3182714,126.78733 L59.1277286,126.272523 Z M58.455219,124.722383 L67.3796095,124.722383 L67.6104143,125.237189 L58.7347905,125.237189 L58.691181,125.124947 L58.455219,124.722383 Z M57.5465667,123.17197 L66.6845714,123.17197 L66.9153762,123.686776 L57.8482143,123.686776 L57.5465667,123.17197 Z M56.6379143,121.621829 L65.9895333,121.621829 L66.2203381,122.136636 L56.9397429,122.136636 L56.6379143,121.621829 Z M55.7295333,120.071598 L65.2944952,120.071598 L65.5253,120.586495 L56.0310905,120.586495 L55.7295333,120.071598 Z M54.820881,118.521457 L64.5994571,118.521457 L64.8302619,119.036264 L55.1227095,119.036264 L54.820881,118.521457 Z M53.9121381,116.971044 L63.9041476,116.971044 L64.1349524,117.485851 L54.2140571,117.485851 L53.9121381,116.971044 Z M52.9520048,115.420904 L63.2160762,115.420904 L63.4440762,115.93571 L53.2789857,115.93571 L52.9520048,115.420904 Z M51.9676238,113.870763 L62.5295429,113.870763 L62.7575429,114.38557 L52.2946048,114.38557 L51.9676238,113.870763 Z M50.9833333,112.320532 L61.8431905,112.320532 L62.0711905,112.835429 L51.3103143,112.835429 L50.9833333,112.320532 Z M49.9987714,110.770119 L61.1566571,110.770119 L61.3846571,111.285016 L50.3257524,111.285016 L49.9987714,110.770119 Z M49.0143905,109.219978 L60.4700333,109.219978 L60.6980333,109.734785 L49.3413714,109.734785 L49.0143905,109.219978 Z M48.0301,107.669838 L59.7837714,107.669838 L60.0117714,108.184644 L48.357081,108.184644 L48.0301,107.669838 Z M47.0458095,106.119697 L59.097419,106.119697 L59.325419,106.634504 L47.3727905,106.634504 L47.0458095,106.119697 Z M46.0611571,104.569194 L58.4108857,104.569194 L58.6388857,105.084091 L46.3881381,105.084091 L46.0611571,104.569194 Z M45.0768667,103.019053 L57.7243524,103.019053 L57.9523524,103.53395 L45.4038476,103.53395 L45.0768667,103.019053 Z M44.0925762,101.468912 L57.038,101.468912 L57.266,101.983719 L44.4195571,101.983719 L44.0925762,101.468912 Z" id="Fill-1657" fill="#151616" mask="url(#mask-2)"></path>
            <path d="M37.0448429,95.0674768 C37.0448429,95.0674768 34.7032286,93.8926573 34.4690762,97.8876973 C34.2349238,101.882828 32.3619762,101.648082 37.9814524,109.638253 C43.6009286,117.628515 53.4351476,132.669328 54.8397905,135.254348 C56.2445238,137.839278 60.2251143,138.309315 60.4592667,134.549202 C60.693419,130.789181 60.4589952,127.733851 57.4152857,122.563719 C54.3714857,117.393496 42.898381,100.708009 41.4934667,98.1227157 C40.0885524,95.5375135 36.5764476,95.0674768 37.0448429,95.0674768 Z" id="Stroke-1658" stroke="#151616" stroke-width="1.92644765" stroke-linejoin="round" mask="url(#mask-2)"></path>
            <path d="M37.0448429,95.0674768 C37.0448429,95.0674768 34.7032286,93.8926573 34.4690762,97.8876973 C34.2349238,101.882828 32.3619762,101.648082 37.9814524,109.638253 C43.6009286,117.628515 53.4351476,132.669328 54.8397905,135.254348 C56.2445238,137.839278 60.2251143,138.309315 60.4592667,134.549202 C60.693419,130.789181 60.4589952,127.733851 57.4152857,122.563719 C54.3714857,117.393496 42.898381,100.708009 41.4934667,98.1227157 C40.0885524,95.5375135 36.5764476,95.0674768 37.0448429,95.0674768" id="Fill-1659" fill="#676766" mask="url(#mask-2)"></path>
            <path d="M37.4108743,97.6234921 C37.4108743,97.6234921 35.618228,96.7240973 35.4391781,99.7826097 C35.2601282,102.840913 35.8530362,105.035417 40.1550824,111.152442 C44.4571286,117.269397 51.9856748,128.783903 53.0610132,130.762822 C54.1364208,132.74181 57.1840095,133.10179 57.3632672,130.22306 C57.5425249,127.344677 57.3628516,125.005499 55.0327093,121.047384 C52.7027056,117.089476 41.8919703,101.941449 40.8165627,99.9625303 C39.7412243,97.9833334 37.0522896,97.6234921 37.4108743,97.6234921 Z" id="Stroke-1660" stroke="#151616" stroke-width="2.51643357" stroke-linejoin="round" mask="url(#mask-2)"></path>
            <path d="M37.4112714,97.6230746 C37.4112714,97.6230746 35.6185762,96.7236843 35.4395238,99.7821016 C35.2605619,102.840428 35.8535429,105.034871 40.1555048,111.151888 C44.4574667,117.268904 51.986081,128.783351 53.061481,130.762391 C54.136881,132.741431 57.184481,133.101315 57.3637143,130.222612 C57.5430381,127.344182 57.3631714,125.004986 55.0332286,121.046997 C52.7031952,117.088917 41.8922857,101.941038 40.8168857,99.9619978 C39.7415762,97.9829578 37.0527143,97.6230746 37.4112714,97.6230746" id="Fill-1661" fill="#4E4E4D" mask="url(#mask-2)"></path>
            <path d="M22.7472524,68.9814357 C22.7472524,68.9814357 20.8739429,68.9817081 20.8739429,70.3915459 C20.8739429,71.8013838 20.8739429,83.7869578 20.8739429,83.7869578 L64.1906857,105.407922 L65.1272952,89.4272173 C65.1272952,89.4272173 22.7472524,68.7464173 22.7472524,68.9814357 Z" id="Stroke-1662" stroke="#151616" stroke-width="1.92644765" stroke-linejoin="round" mask="url(#mask-2)"></path>
            <path d="M22.7472524,68.9814357 C22.7472524,68.9814357 20.8739429,68.9817081 20.8739429,70.3915459 C20.8739429,71.8013838 20.8739429,83.7869578 20.8739429,83.7869578 L64.1906857,105.407922 L65.1272952,89.4272173 C65.1272952,89.4272173 22.7472524,68.7464173 22.7472524,68.9814357" id="Fill-1663" fill="#FDC534" mask="url(#mask-2)"></path>
            <path d="M22.2789476,68.5113989 L22.5131,66.1613968 C22.5131,66.1613968 26.7275714,62.6363935 31.8787429,60.5211373 C37.0299143,58.4059719 46.3956476,55.8207697 48.503019,55.5857514 C50.6103905,55.350733 53.4200381,55.1158962 53.4200381,55.1158962 L71.2150762,61.6960476 L70.0443143,71.8013838 L45.2250667,80.496973 L22.2789476,68.5113989 Z" id="Stroke-1664" stroke="#151616" stroke-width="1.92644765" stroke-linejoin="round" mask="url(#mask-2)"></path>
            <path d="M22.2789476,68.5113989 L22.5131,66.1613968 C22.5131,66.1613968 26.7275714,62.6363935 31.8787429,60.5211373 C37.0299143,58.4059719 46.3956476,55.8207697 48.503019,55.5857514 C50.6103905,55.350733 53.4200381,55.1158962 53.4200381,55.1158962 L71.2150762,61.6960476 L70.0443143,71.8013838 L45.2250667,80.496973 L22.2789476,68.5113989 Z" id="Fill-1665" fill="#FDC534" mask="url(#mask-2)"></path>
            <polyline id="Stroke-1666" stroke="#151616" stroke-width="1.28426823" mask="url(#mask-2)" points="23.2155571 65.4563416 39.1372857 72.7414573 70.2784667 61.4610292"></polyline>
            <path d="M38.9031333,72.5064389 L38.9031333,76.9718789" id="Stroke-1667" stroke="#151616" stroke-width="1.28426823" mask="url(#mask-2)"></path>
            <path d="M37.498219,75.796787 C37.498219,75.796787 36.5616095,77.4416432 36.7957619,78.6167351 C37.0299143,79.791827 36.3274571,91.5423827 36.3274571,91.5423827" id="Stroke-1668" stroke="#151616" stroke-width="1.28426823" mask="url(#mask-2)"></path>
            <polygon id="Stroke-1669" stroke="#151616" stroke-width="1.92644765" stroke-linejoin="round" mask="url(#mask-2)" points="20.8739429 83.7869578 16.425319 86.1371416 59.9761238 108.463161 64.4248381 105.642941"></polygon>
            <polygon id="Fill-1670" fill="#FDC534" mask="url(#mask-2)" points="20.8739429 83.7869578 16.425319 86.1371416 59.9761238 108.463161 64.4248381 105.642941"></polygon>
            <polygon id="Stroke-1671" stroke="#151616" stroke-width="1.92644765" stroke-linejoin="round" mask="url(#mask-2)" points="54.8249524 77.91168 74.4929381 87.5473427 65.3614476 90.3672908 45.9275238 80.2619546"></polygon>
            <polygon id="Fill-1672" fill="#FDC534" mask="url(#mask-2)" points="54.8249524 77.91168 74.4929381 87.5473427 65.3614476 90.3672908 45.9275238 80.2619546"></polygon>
            <path d="M103.33331,128.892506 L113.4015,128.892506 C113.4015,128.892506 115.977176,124.19232 114.572262,119.257206 C113.256286,114.634755 105.162648,99.4986811 104.141714,97.5983741 L101.882162,96.2125103 L85.304119,87.0607784 L103.33331,115.027057 C103.33331,115.027057 102.865005,128.65776 103.33331,128.892506 Z" id="Stroke-1673" stroke="#151616" stroke-width="1.92644765" stroke-linejoin="round" mask="url(#mask-2)"></path>
            <path d="M103.33331,128.892506 L113.4015,128.892506 C113.4015,128.892506 115.977176,124.19232 114.572262,119.257206 C113.256286,114.634755 105.162648,99.4986811 104.141714,97.5983741 L101.882162,96.2125103 L85.304119,87.0607784 L103.33331,115.027057 C103.33331,115.027057 102.865005,128.65776 103.33331,128.892506" id="Fill-1674" fill="#818181" mask="url(#mask-2)"></path>
            <path d="M106.081614,126.603075 L114.00389,126.603075 L114.00389,126.840636 L113.859762,127.117881 L105.95721,127.117881 L106.064424,127.029885 L106.081614,126.603075 Z M104.932386,127.959425 L113.440676,127.959425 C113.356352,128.139321 113.2799,128.311226 113.214757,128.474231 L104.88181,128.474231 L104.88181,128.000835 L104.932386,127.959425 Z M106.141148,125.076817 L114.901505,125.076817 C114.82071,125.247996 114.736657,125.419991 114.650433,125.591624 L106.121605,125.591624 L106.141148,125.076817 Z M106.195524,123.526677 L115.237533,123.526677 C115.23699,123.706119 115.228757,123.878296 115.211386,124.041483 L106.178333,124.041483 L106.195524,123.526677 Z M106.233162,121.976536 L115.096752,121.976536 C115.12471,122.149258 115.149319,122.321436 115.169767,122.491343 L106.2252,122.491343 C106.230086,122.284112 106.23271,122.108303 106.233162,121.976536 Z M105.886457,120.426123 L114.773029,120.426123 C114.814829,120.594668 114.855905,120.766391 114.8949,120.94093 L106.036738,120.94093 C105.992314,120.779286 105.941557,120.606564 105.886457,120.426123 Z M105.373276,118.875892 L114.337295,118.875892 C114.386514,119.033994 114.4389,119.206988 114.492462,119.390789 L105.5507,119.390789 C105.492524,119.219338 105.43299,119.04707 105.373276,118.875892 Z M104.8116,117.325751 L113.758429,117.325751 L113.989324,117.840558 L105.002143,117.840558 L104.8116,117.325751 Z M104.13909,115.775611 L113.063481,115.775611 L113.294286,116.290417 L104.418662,116.290417 L104.375052,116.178175 L104.13909,115.775611 Z M103.230438,114.225198 L112.368443,114.225198 L112.599248,114.740004 L103.532086,114.740004 L103.230438,114.225198 Z M102.321786,112.675057 L111.673405,112.675057 L111.90421,113.189864 L102.623614,113.189864 L102.321786,112.675057 Z M101.413405,111.124826 L110.978367,111.124826 L111.209171,111.639723 L101.714962,111.639723 L101.413405,111.124826 Z M100.504752,109.574685 L110.283329,109.574685 L110.514133,110.089492 L100.806581,110.089492 L100.504752,109.574685 Z M99.5960095,108.024272 L109.588019,108.024272 L109.818824,108.539079 L99.8979286,108.539079 L99.5960095,108.024272 Z M98.6358762,106.474132 L108.899948,106.474132 L109.127948,106.988938 L98.9628571,106.988938 L98.6358762,106.474132 Z M97.6514952,104.923991 L108.213414,104.923991 L108.441414,105.438798 L97.9784762,105.438798 L97.6514952,104.923991 Z M96.6672048,103.37376 L107.527062,103.37376 L107.755062,103.888657 L96.9941857,103.888657 L96.6672048,103.37376 Z M95.6826429,101.823347 L106.840529,101.823347 L107.068529,102.338244 L96.0096238,102.338244 L95.6826429,101.823347 Z M94.6982619,100.273206 L106.153905,100.273206 L106.381905,100.788013 L95.0252429,100.788013 L94.6982619,100.273206 Z M93.7139714,98.7230659 L105.467643,98.7230659 L105.695643,99.2378724 L94.0409524,99.2378724 L93.7139714,98.7230659 Z M92.7295905,97.1729254 L103.448214,97.1729254 L104.287381,97.6877319 L93.0566619,97.6877319 L92.7295905,97.1729254 Z M91.7450286,95.6225124 L100.92049,95.6225124 L101.759838,96.1373189 L92.0720095,96.1373189 L91.7450286,95.6225124 Z M90.7607381,94.0722811 L98.393219,94.0722811 L99.2326571,94.5871784 L91.087719,94.5871784 L90.7607381,94.0722811 Z M89.7764476,92.5221405 L96.3386857,92.5221405 L95.9626667,92.5813492 L96.7053857,93.036947 L90.1034286,93.036947 L89.7764476,92.5221405 Z" id="Fill-1675" fill="#151616" mask="url(#mask-2)"></path>
            <path d="M82.7286238,86.1207049 C82.7286238,86.1207049 80.3871,84.9458854 80.1529476,88.9409254 C79.9187952,92.9360562 78.0458476,92.7013103 83.6653238,100.691481 C89.2847095,108.681743 99.119019,123.722556 100.523662,126.307576 C101.928395,128.892506 105.908986,129.362543 106.143138,125.602521 C106.37729,121.842409 106.142867,118.787079 103.099157,113.616947 C100.055357,108.446724 88.5822524,91.7612368 87.1773381,89.1759438 C85.7724238,86.5907416 82.260319,86.1207049 82.7286238,86.1207049 Z" id="Stroke-1676" stroke="#151616" stroke-width="1.28426823" stroke-linejoin="round" mask="url(#mask-2)"></path>
            <path d="M82.7286238,86.1207049 C82.7286238,86.1207049 80.3871,84.9458854 80.1529476,88.9409254 C79.9187952,92.9360562 78.0458476,92.7013103 83.6653238,100.691481 C89.2847095,108.681743 99.119019,123.722556 100.523662,126.307576 C101.928395,128.892506 105.908986,129.362543 106.143138,125.602521 C106.37729,121.842409 106.142867,118.787079 103.099157,113.616947 C100.055357,108.446724 88.5822524,91.7612368 87.1773381,89.1759438 C85.7724238,86.5907416 82.260319,86.1207049 82.7286238,86.1207049" id="Fill-1677" fill="#676766" mask="url(#mask-2)"></path>
            <path d="M83.0951429,88.6763027 C83.0951429,88.6763027 81.3024476,87.7769124 81.1233952,90.8353297 C80.9444333,93.8936562 81.5374143,96.0880995 85.8393762,102.205116 C90.1413381,108.322132 97.6699524,119.836579 98.7453524,121.815619 C99.8207524,123.794659 102.868352,124.154543 103.047586,121.27584 C103.22691,118.39741 103.047043,116.058214 100.7171,112.100225 C98.3870667,108.142145 87.5761571,92.9942659 86.5007571,91.0152259 C85.4254476,89.0361859 82.7365857,88.6763027 83.0951429,88.6763027 Z" id="Stroke-1678" stroke="#151616" stroke-width="1.92644765" stroke-linejoin="round" mask="url(#mask-2)"></path>
            <path d="M83.0951429,88.6763027 C83.0951429,88.6763027 81.3024476,87.7769124 81.1233952,90.8353297 C80.9444333,93.8936562 81.5374143,96.0880995 85.8393762,102.205116 C90.1413381,108.322132 97.6699524,119.836579 98.7453524,121.815619 C99.8207524,123.794659 102.868352,124.154543 103.047586,121.27584 C103.22691,118.39741 103.047043,116.058214 100.7171,112.100225 C98.3870667,108.142145 87.5761571,92.9942659 86.5007571,91.0152259 C85.4254476,89.0361859 82.7365857,88.6763027 83.0951429,88.6763027" id="Fill-1679" fill="#4E4E4D" mask="url(#mask-2)"></path>
            <path d="M34.3221429,61.7537124 L34.3221429,56.8962422 C34.3221429,55.911853 33.5198905,55.1066335 32.5391286,55.1066335 C31.5584571,55.1066335 30.7562048,55.911853 30.7562048,56.8962422 L30.7562048,61.7537124 L34.3221429,61.7537124 Z" id="Stroke-1680" stroke="#151616" stroke-width="1.92644765" mask="url(#mask-2)"></path>
            <path d="M34.3221429,61.7537124 L34.3221429,56.8962422 C34.3221429,55.911853 33.5198905,55.1066335 32.5391286,55.1066335 C31.5584571,55.1066335 30.7562048,55.911853 30.7562048,56.8962422 L30.7562048,61.7537124 L34.3221429,61.7537124 Z" id="Fill-1681" fill="#818181" mask="url(#mask-2)"></path>
            <path d="M59.4874859,76.4753254 C59.4874859,76.4753254 60.058191,74.8834119 61.3557822,73.52016 L59.8473195,71.3619503 L68.0059033,71.6178551 L68.4338679,72.0354032 C72.2654257,73.2490897 75.551499,76.8387503 76.6731473,80.5656259 C77.302779,82.6577254 77.2360413,85.0318832 77.1605208,86.1111697 L77.8793007,84.4006573 L70.747095,86.9570724 L66.2829839,80.5698032 C62.7085191,78.5173881 59.6004275,76.6894573 59.4874859,76.4753254 Z" id="Stroke-1682" stroke="#151616" stroke-width="1.89844801" stroke-linejoin="round" mask="url(#mask-2)"></path>
            <path d="M59.4862857,76.4753254 C59.4862857,76.4753254 60.056919,74.8834119 61.354619,73.52016 L59.8461095,71.3619503 L68.004619,71.6178551 L68.4326619,72.0354032 C72.2642381,73.2490897 75.5504238,76.8387503 76.6718762,80.5656259 C77.3015905,82.6577254 77.2349095,85.0318832 77.159181,86.1111697 L77.8781048,84.4006573 L70.7459571,86.9570724 L66.2818619,80.5698032 C62.7072381,78.5173881 59.599381,76.6894573 59.4862857,76.4753254" id="Fill-1683" fill="#FDC534" mask="url(#mask-2)"></path>
            <path d="M74.7270905,86.3722508 C74.7270905,86.3722508 75.6639714,87.3123243 79.1760762,86.3722508 C82.688181,85.4320865 105.6343,75.3267503 105.6343,75.3267503 C105.6343,75.3267503 108.912252,73.9168216 108.443948,71.5666378 C107.975643,69.2164541 103.526929,62.1660843 103.526929,62.1660843 L98.6099095,60.5211373 C98.6099095,60.5211373 74.2587857,86.3722508 74.7270905,86.3722508 Z" id="Fill-1684" fill="#FEFEFE" mask="url(#mask-2)"></path>
            <path d="M74.7270905,86.3722508 C74.7270905,86.3722508 75.6639714,87.3123243 79.1760762,86.3722508 C82.688181,85.4320865 105.6343,75.3267503 105.6343,75.3267503 C105.6343,75.3267503 108.912252,73.9168216 108.443948,71.5666378 C107.975643,69.2164541 103.526929,62.1660843 103.526929,62.1660843 L98.6099095,60.5211373 C98.6099095,60.5211373 74.2587857,86.3722508 74.7270905,86.3722508 Z" id="Stroke-1685" stroke="#151616" stroke-width="0.51368917" mask="url(#mask-2)"></path>
            <path d="M101.185676,61.22592 C101.185676,61.22592 100.014643,58.1706811 96.2683857,60.7558832 C92.5221286,63.3411762 72.3858381,78.6167351 72.3858381,78.6167351 C72.3858381,78.6167351 70.7467714,80.7317189 70.7467714,82.8468843 C70.7467714,84.9620497 71.9172619,87.0773059 75.1953952,86.3722508 C78.473619,85.6671049 103.995233,73.6815308 103.995233,73.6815308 C103.995233,73.6815308 107.975914,72.5067114 106.805062,69.4514724 C105.6343,66.3961427 101.185676,60.9909016 101.185676,61.22592 Z" id="Stroke-1686" stroke="#151616" stroke-width="1.92644765" stroke-linejoin="round" mask="url(#mask-2)"></path>
            <path d="M101.185676,61.22592 C101.185676,61.22592 100.014643,58.1706811 96.2683857,60.7558832 C92.5221286,63.3411762 72.3858381,78.6167351 72.3858381,78.6167351 C72.3858381,78.6167351 70.7467714,80.7317189 70.7467714,82.8468843 C70.7467714,84.9620497 71.9172619,87.0773059 75.1953952,86.3722508 C78.473619,85.6671049 103.995233,73.6815308 103.995233,73.6815308 C103.995233,73.6815308 107.975914,72.5067114 106.805062,69.4514724 C105.6343,66.3961427 101.185676,60.9909016 101.185676,61.22592" id="Fill-1687" fill="#FDC534" mask="url(#mask-2)"></path>
            <path d="M83.9910381,70.3395114 C83.9910381,70.3395114 87.0473238,74.1745427 89.3399,74.9413492 C91.6324762,75.7082465 93.924781,75.4523416 95.7077048,74.6855351 C97.490719,73.9186378 98.5096619,73.1515589 98.5096619,73.1515589 C98.5096619,73.1515589 98.7646238,72.1288476 97.7455905,68.0384562 C96.7266476,63.9481557 96.4720476,60.6246616 96.4720476,60.6246616" id="Stroke-1688" stroke="#151616" stroke-width="1.28426823" mask="url(#mask-2)"></path>
            <polygon id="Stroke-1689" stroke="#151616" stroke-width="1.92644765" mask="url(#mask-2)" points="108.188714 72.3847524 106.915171 74.9413492 123.216719 122.493159 124.999733 121.214815"></polygon>
            <polygon id="Fill-1690" fill="#FEFEFE" mask="url(#mask-2)" points="108.188714 72.3847524 106.915171 74.9413492 123.216719 122.493159 124.999733 121.214815"></polygon>
            <polygon id="Stroke-1691" stroke="#151616" stroke-width="1.92644765" mask="url(#mask-2)" points="108.852267 73.0503957 116.748395 72.2835892 129.839305 114.312195 124.745043 120.703369"></polygon>
            <polygon id="Fill-1692" fill="#818181" mask="url(#mask-2)" points="108.852267 73.0503957 116.748395 72.2835892 129.839305 114.312195 124.745043 120.703369"></polygon>
            <path d="M100.547276,60.3690292 L106.915171,70.8507762 C106.915171,70.8507762 108.964819,71.7962984 112.530757,70.2623222 C116.096695,68.7283459 120.415124,64.4591481 120.669724,62.9254443 C120.924414,61.3917405 120.924143,59.3463178 118.886529,59.3463178 C116.848914,59.3463178 100.547276,60.1133968 100.547276,60.3690292 Z" id="Stroke-1693" stroke="#151616" stroke-width="1.92644765" mask="url(#mask-2)"></path>
            <path d="M100.547276,60.3690292 L106.915171,70.8507762 C106.915171,70.8507762 108.964819,71.7962984 112.530757,70.2623222 C116.096695,68.7283459 120.415124,64.4591481 120.669724,62.9254443 C120.924414,61.3917405 120.924143,59.3463178 118.886529,59.3463178 C116.848914,59.3463178 100.547276,60.1133968 100.547276,60.3690292" id="Fill-1694" fill="#FDC534" mask="url(#mask-2)"></path>
            <path d="M126.527967,59.3463178 C126.527967,59.3463178 125.254424,58.3238789 123.216719,59.0906854 C121.179105,59.8575827 120.924414,60.8802941 120.924414,60.8802941 C120.924414,60.8802941 133.914533,78.7761081 135.188167,82.610867 C136.4618,86.4455351 136.20711,90.5361989 136.4618,95.3936692 C136.71649,100.251049 138.244724,109.965989 138.244724,109.965989 L142.829605,105.108519 C142.829605,105.108519 140.282157,92.3254443 140.537029,87.9795114 C140.79199,83.6335784 137.226052,70.8505038 132.895862,66.7602032 C128.565671,62.6698119 126.527967,59.3463178 126.527967,59.3463178 Z" id="Stroke-1695" stroke="#151616" stroke-width="1.92644765" mask="url(#mask-2)"></path>
            <path d="M126.527967,59.3463178 C126.527967,59.3463178 125.254424,58.3238789 123.216719,59.0906854 C121.179105,59.8575827 120.924414,60.8802941 120.924414,60.8802941 C120.924414,60.8802941 133.914533,78.7761081 135.188167,82.610867 C136.4618,86.4455351 136.20711,90.5361989 136.4618,95.3936692 C136.71649,100.251049 138.244724,109.965989 138.244724,109.965989 L142.829605,105.108519 C142.829605,105.108519 140.282157,92.3254443 140.537029,87.9795114 C140.79199,83.6335784 137.226052,70.8505038 132.895862,66.7602032 C128.565671,62.6698119 126.527967,59.3463178 126.527967,59.3463178" id="Fill-1696" fill="#FED418" mask="url(#mask-2)"></path>
            <path d="M119.650781,59.6019503 L100.801967,59.8575827 L109.462348,58.0679741 L126.273367,57.5567092 C126.273367,57.5567092 127.54691,57.8123416 127.8016,59.0906854 C128.05629,60.3690292 128.056562,57.8120692 125.763986,58.3236065 C123.47141,58.835053 119.650781,59.6019503 119.650781,59.6019503 Z" id="Stroke-1697" stroke="#151616" stroke-width="1.92644765" stroke-linejoin="round" mask="url(#mask-2)"></path>
            <path d="M119.650781,59.6019503 L100.801967,59.8575827 L109.462348,58.0679741 L126.273367,57.5567092 C126.273367,57.5567092 127.54691,57.8123416 127.8016,59.0906854 C128.05629,60.3690292 128.056562,57.8120692 125.763986,58.3236065 C123.47141,58.835053 119.650781,59.6019503 119.650781,59.6019503" id="Fill-1698" fill="#FED418" mask="url(#mask-2)"></path>
            <polygon id="Stroke-1699" stroke="#151616" stroke-width="1.92644765" stroke-linejoin="round" mask="url(#mask-2)" points="154.037252 98.2058984 130.094176 110.732796 131.6225 119.680839 134.679057 140.133159 157.093629 118.91376"></polygon>
            <polygon id="Fill-1700" fill="#FED418" mask="url(#mask-2)" points="154.037252 98.2058984 130.094176 110.732796 131.6225 119.680839 134.679057 140.133159 157.093629 118.91376"></polygon>
            <path d="M133.150552,108.943278 L131.876919,120.192104" id="Stroke-1701" stroke="#151616" stroke-width="0.51368917" mask="url(#mask-2)"></path>
            <path d="M134.440019,108.240221 C134.015324,111.990071 133.5909,115.739559 133.166386,119.489137" id="Stroke-1702" stroke="#151616" stroke-width="0.51368917" mask="url(#mask-2)"></path>
            <path d="M135.729576,107.537254 C135.304881,111.287014 134.880367,115.036592 134.455943,118.78608" id="Stroke-1703" stroke="#151616" stroke-width="0.51368917" mask="url(#mask-2)"></path>
            <path d="M137.018862,106.834015 C136.594076,110.583775 136.169652,114.333263 135.745229,118.082841" id="Stroke-1704" stroke="#151616" stroke-width="0.51368917" mask="url(#mask-2)"></path>
            <path d="M138.308329,106.130958 C137.883633,109.880809 137.45921,113.630296 137.034695,117.379784" id="Stroke-1705" stroke="#151616" stroke-width="0.51368917" mask="url(#mask-2)"></path>
            <path d="M139.597886,105.427991 C139.17319,109.177751 138.748676,112.92733 138.324252,116.676817" id="Stroke-1706" stroke="#151616" stroke-width="0.51368917" mask="url(#mask-2)"></path>
            <path d="M140.887352,104.724934 C140.462657,108.474785 140.038233,112.224272 139.61381,115.973851" id="Stroke-1707" stroke="#151616" stroke-width="0.51368917" mask="url(#mask-2)"></path>
            <path d="M142.17691,104.021968 C141.752214,107.771728 141.3277,111.521306 140.903276,115.270794" id="Stroke-1708" stroke="#151616" stroke-width="0.51368917" mask="url(#mask-2)"></path>
            <path d="M143.466467,103.318729 C143.041681,107.068489 142.617257,110.817976 142.192833,114.567555" id="Stroke-1709" stroke="#151616" stroke-width="0.51368917" mask="url(#mask-2)"></path>
            <path d="M144.755662,102.615671 C144.330967,106.365522 143.906543,110.11501 143.482029,113.864588" id="Stroke-1710" stroke="#151616" stroke-width="0.51368917" mask="url(#mask-2)"></path>
            <path d="M146.045219,101.912705 C145.620524,105.662465 145.19601,109.412043 144.771586,113.161531" id="Stroke-1711" stroke="#151616" stroke-width="0.51368917" mask="url(#mask-2)"></path>
            <path d="M147.334776,101.209648 C146.90999,104.959498 146.485567,108.708986 146.061143,112.458564" id="Stroke-1712" stroke="#151616" stroke-width="0.51368917" mask="url(#mask-2)"></path>
            <path d="M148.624243,100.506681 C148.199548,104.256441 147.775124,108.006019 147.35061,111.755507" id="Stroke-1713" stroke="#151616" stroke-width="0.51368917" mask="url(#mask-2)"></path>
            <path d="M149.9138,99.8037146 C149.489105,103.553475 149.06459,107.302962 148.640167,111.052541" id="Stroke-1714" stroke="#151616" stroke-width="0.51368917" mask="url(#mask-2)"></path>
            <path d="M151.202995,99.1003849 C150.7783,102.850236 150.353876,106.599723 149.929452,110.349302" id="Stroke-1715" stroke="#151616" stroke-width="0.51368917" mask="url(#mask-2)"></path>
            <path d="M152.492552,98.3974184 C152.067857,102.147178 151.643433,105.896757 151.218919,109.646244" id="Stroke-1716" stroke="#151616" stroke-width="0.51368917" mask="url(#mask-2)"></path>
            <path d="M153.78211,97.6944519 L152.508476,108.943278" id="Stroke-1717" stroke="#151616" stroke-width="0.51368917" mask="url(#mask-2)"></path>
            <path d="M130.603557,110.732796 L119.905743,124.793942 C119.905743,124.793942 118.63211,127.606171 118.63211,129.906954 C118.63211,132.207827 118.63211,136.042768 118.63211,136.042768 L130.858248,144.479364 L134.933748,140.900238 L137.735614,133.997345 L134.679057,120.959183 C134.679057,120.959183 130.348867,110.988428 130.603557,110.732796 Z" id="Stroke-1718" stroke="#151616" stroke-width="1.92644765" stroke-linejoin="round" mask="url(#mask-2)"></path>
            <path d="M130.603557,110.732796 L119.905743,124.793942 C119.905743,124.793942 118.63211,127.606171 118.63211,129.906954 C118.63211,132.207827 118.63211,136.042768 118.63211,136.042768 L130.858248,144.479364 L134.933748,140.900238 L137.735614,133.997345 L134.679057,120.959183 C134.679057,120.959183 130.348867,110.988428 130.603557,110.732796" id="Fill-1719" fill="#FDC534" mask="url(#mask-2)"></path>
            <polyline id="Stroke-1720" stroke="#151616" stroke-width="1.28426823" mask="url(#mask-2)" points="134.933476 120.703369 127.037348 128.117436 122.197776 138.854815"></polyline>
            <path d="M85.7739619,95.6492108 C85.7739619,95.6492108 89.3399,100.762314 91.1228238,100.506681 C92.9058381,100.251049 96.9810667,96.6719222 96.9810667,96.6719222 L98.2547,92.0700843 L95.7075238,79.7988195 L85.7739619,84.1447524 L83.2266952,93.859693 C83.2266952,93.859693 86.2833429,96.9275546 85.7739619,95.6492108 Z" id="Stroke-1721" stroke="#151616" stroke-width="1.28426823" mask="url(#mask-2)"></path>
            <path d="M85.7739619,95.6492108 C85.7739619,95.6492108 89.3399,100.762314 91.1228238,100.506681 C92.9058381,100.251049 96.9810667,96.6719222 96.9810667,96.6719222 L98.2547,92.0700843 L95.7075238,79.7988195 L85.7739619,84.1447524 L83.2266952,93.859693 C83.2266952,93.859693 86.2833429,96.9275546 85.7739619,95.6492108" id="Fill-1722" fill="#FDC534" mask="url(#mask-2)"></path>
            <path d="M53.1196811,76.4753254 C53.1196811,76.4753254 54.7681347,71.87376 58.8361414,71.6178551 C63.9401843,71.2968389 68.8771032,75.8202162 70.3053426,80.5656259 C71.1516731,83.3779459 70.7396097,86.70144 70.7396097,86.70144 C70.7396097,86.70144 53.3892518,76.9865903 53.1196811,76.4753254 Z" id="Stroke-1723" stroke="#151616" stroke-width="1.89844801" stroke-linejoin="round" mask="url(#mask-2)"></path>
            <path d="M53.1183905,76.4753254 C53.1183905,76.4753254 54.7669571,71.87376 58.8348571,71.6178551 C63.9390714,71.2968389 68.8758143,75.8202162 70.3040714,80.5656259 C71.1503857,83.3779459 70.7385381,86.70144 70.7385381,86.70144 C70.7385381,86.70144 53.3881905,76.9865903 53.1183905,76.4753254" id="Fill-1724" fill="#676766" mask="url(#mask-2)"></path>
            <path d="M90.911019,100.857574 L105.89641,96.4163805 C105.89641,96.4163805 106.660481,94.3711395 106.40579,93.0927957 C106.1511,91.8145427 96.9813381,96.6719222 96.9813381,96.6719222 C96.9813381,96.6719222 90.6563286,101.113206 90.911019,100.857574 Z" id="Stroke-1725" stroke="#151616" stroke-width="1.28426823" mask="url(#mask-2)"></path>
            <path d="M90.911019,100.857574 L105.89641,96.4163805 C105.89641,96.4163805 106.660481,94.3711395 106.40579,93.0927957 C106.1511,91.8145427 96.9813381,96.6719222 96.9813381,96.6719222 C96.9813381,96.6719222 90.6563286,101.113206 90.911019,100.857574" id="Fill-1726" fill="#FEFEFE" mask="url(#mask-2)"></path>
            <path d="M98.7643524,91.8145427 L107.158733,88.7465903 L106.40579,93.0927957 L97.1932333,96.4479827 C97.1932333,96.4479827 98.7643524,91.5589103 98.7643524,91.8145427 Z" id="Stroke-1727" stroke="#151616" stroke-width="1.28426823" mask="url(#mask-2)"></path>
            <path d="M98.7643524,91.8145427 L107.158733,88.7465903 L106.40579,93.0927957 L97.1932333,96.4479827 C97.1932333,96.4479827 98.7643524,91.5589103 98.7643524,91.8145427" id="Fill-1728" fill="#FDC534" mask="url(#mask-2)"></path>
            <polygon id="Stroke-1729" stroke="#151616" stroke-width="1.28426823" mask="url(#mask-2)" points="107.424462 88.4909578 104.697238 75.601907 95.4531048 79.7782054 98.2549714 91.8145427"></polygon>
            <polygon id="Fill-1730" fill="#FDC534" mask="url(#mask-2)" points="107.424462 88.4909578 104.697238 75.601907 95.4531048 79.7782054 98.2549714 91.8145427"></polygon>
            <polygon id="Stroke-1731" stroke="#151616" stroke-width="1.92644765" mask="url(#mask-2)" points="101.984261 74.7571691 105.605293 72.8328438 84.2916246 102.73939 82.5522128 101.461224"></polygon>
            <polygon id="Fill-1732" fill="#FDC534" mask="url(#mask-2)" points="101.9825 74.7565492 105.603538 72.8323589 84.2900619 102.738992 82.5506571 101.460649"></polygon>
            <polygon id="Stroke-1733" stroke="#151616" stroke-width="1.92644765" stroke-linejoin="round" mask="url(#mask-2)" points="64.8931429 90.6023092 63.9565333 105.877959 75.6637 100.707736 74.7270905 86.8422876"></polygon>
            <polygon id="Fill-1734" fill="#FDC534" mask="url(#mask-2)" points="64.8931429 90.6023092 63.9565333 105.877959 75.6637 100.707736 74.7270905 86.8422876"></polygon>
            <path d="M80.6797,72.6402941 C80.6797,72.6402941 82.7176762,71.3617686 84.5006,73.1515589 C86.2835238,74.9413492 87.8118476,77.7533968 87.8118476,77.7533968 C87.8118476,77.7533968 89.849281,80.0541795 87.5568857,81.3325232" id="Stroke-1735" stroke="#151616" stroke-width="1.28426823" mask="url(#mask-2)"></path>
            <path d="M84.575109,79.9403299 C85.6351001,81.4783612 87.7025637,82.7299552 89.620134,82.9227136 L79.5789572,100.034751 C77.4312749,100.053151 75.7045206,99.1569309 74.5337468,97.0522577 L84.575109,79.9403299 Z" id="Stroke-1736" stroke="#151616" stroke-width="2.43035054" stroke-linejoin="round" mask="url(#mask-2)"></path>
            <path d="M84.5765095,79.9381232 C85.6362571,81.4761859 87.7039095,82.7277405 89.6214619,82.9205319 L79.5802333,100.032558 C77.4326,100.051083 75.7057714,99.1547805 74.5350095,97.0500584 L84.5765095,79.9381232 Z" id="Fill-1737" fill="#FDC534" mask="url(#mask-2)"></path>
            <path d="M87.8121933,80.1972277 C89.1871674,81.0101622 90.0721823,82.059932 89.7893776,82.5420601 C89.5064664,83.0241949 88.1625943,82.7562308 86.7876202,81.9432963 C85.4127834,81.1306518 84.5276469,80.0809145 84.8108013,79.5987146 C85.0936822,79.1166315 86.4373565,79.3845832 87.8121933,80.1972277 Z" id="Stroke-1738" stroke="#151616" stroke-width="3.88886895" stroke-linejoin="round" mask="url(#mask-2)"></path>
            <path d="M87.8161905,80.2068324 C89.1911571,81.0197708 90.0761952,82.069453 89.7933667,82.5516584 C89.5104476,83.033773 88.1665143,82.7657903 86.7916381,81.9528519 C85.4166714,81.1401859 84.5316333,80.0905038 84.8147333,79.6082984 C85.0976524,79.1261838 86.4413143,79.3941665 87.8161905,80.2068324" id="Fill-1739" fill="#FEFEFE" mask="url(#mask-2)"></path>
            <polygon id="Stroke-1740" stroke="#151616" stroke-width="2.74532383" stroke-linejoin="round" mask="url(#mask-2)" points="90.0450058 74.0023882 92.132659 75.2365152 88.4438864 81.5223213 86.3565697 80.2885413"></polygon>
            <polygon id="Fill-1741" fill="#FDC534" mask="url(#mask-2)" points="90.0513143 74.0022746 92.1389619 75.2363935 88.4502476 81.522227 86.362781 80.2884714"></polygon>
            <path d="M92.8357759,71.6530929 C93.9406637,72.3064182 94.2858476,73.7738399 93.6066645,74.9312657 C92.927627,76.0884434 91.4813195,76.4970696 90.3766534,75.8437918 C89.2715835,75.1907767 88.9266181,73.7229828 89.6055464,72.5659912 C90.2847295,71.4085653 91.7307424,71.0000157 92.8357759,71.6530929 Z" id="Stroke-1742" stroke="#151616" stroke-width="1.6202639" stroke-linejoin="round" mask="url(#mask-2)"></path>
            <path d="M92.8370762,71.6508195 C93.9419714,72.3041124 94.2871381,73.7717059 93.6080238,74.9289989 C92.9289095,76.0861103 91.4826476,76.4948497 90.3778429,75.8415568 C89.2729476,75.1885362 88.927781,73.7206703 89.6068952,72.5636497 C90.2860095,71.4062659 91.732,70.9977081 92.8370762,71.6508195" id="Fill-1743" fill="#FDC534" mask="url(#mask-2)"></path>
            <path d="M80.6797,102.040657 C80.6797,102.040657 81.6989143,100.250776 84.5006,101.017946 C84.9209524,101.133003 85.2948905,101.241885 85.6277524,101.352584 L100.417262,81.0768908 L101.662938,81.9919914 L87.0608952,102.010508 C87.8126619,102.539209 88.0665381,103.271053 88.0665381,104.597254 C88.0665381,106.898037 87.3022857,107.153942 85.5192714,108.176381 C83.7363476,109.19891 80.9343905,108.432013 80.9343905,108.432013 C80.9343905,108.432013 80.4251,102.29629 80.6797,102.040657 Z" id="Stroke-1744" stroke="#151616" stroke-width="1.28426823" stroke-linejoin="round" mask="url(#mask-2)"></path>
            <path d="M80.6797,102.040657 C80.6797,102.040657 81.6989143,100.250776 84.5006,101.017946 C84.9209524,101.133003 85.2948905,101.241885 85.6277524,101.352584 L100.417262,81.0768908 L101.662938,81.9919914 L87.0608952,102.010508 C87.8126619,102.539209 88.0665381,103.271053 88.0665381,104.597254 C88.0665381,106.898037 87.3022857,107.153942 85.5192714,108.176381 C83.7363476,109.19891 80.9343905,108.432013 80.9343905,108.432013 C80.9343905,108.432013 80.4251,102.29629 80.6797,102.040657" id="Fill-1745" fill="#FDC534" mask="url(#mask-2)"></path>
            <path d="M67.2346667,89.6622357 L67.2346667,104.46803" id="Stroke-1746" stroke="#151616" stroke-width="0.51368917" mask="url(#mask-2)"></path>
            <polygon id="Stroke-1747" stroke="#151616" stroke-width="1.92644765" stroke-linejoin="round" mask="url(#mask-2)" points="71.5102095 96.1604757 81.1893524 100.251049 81.1893524 108.687645 69.7272857 114.05629 60.3028333 109.19891 60.5575238 99.4839697"></polygon>
            <polygon id="Fill-1748" fill="#FDC534" mask="url(#mask-2)" points="71.5102095 96.1604757 81.1893524 100.251049 81.1893524 108.687645 69.7272857 114.05629 60.3028333 109.19891 60.5575238 99.4839697"></polygon>
            <polyline id="Stroke-1749" stroke="#151616" stroke-width="0.51368917" mask="url(#mask-2)" points="81.4440429 100.506681 69.7272857 104.597254 59.7932714 99.4839697"></polyline>
            <path d="M69.4723238,104.34144 L69.7272857,114.567827" id="Stroke-1750" stroke="#151616" stroke-width="0.51368917" mask="url(#mask-2)"></path>
            <path d="M59.7932714,106.386863 L69.7272857,110.477163" id="Stroke-1751" stroke="#151616" stroke-width="1.28426823" mask="url(#mask-2)"></path>
            <path d="M67.180019,97.6944519 L76.349781,102.29629" id="Stroke-1752" stroke="#151616" stroke-width="1.28426823" mask="url(#mask-2)"></path>
            <polygon id="Fill-1753" fill="#151616" mask="url(#mask-2)" points="66.9253286 103.574543 68.9630333 103.574543 68.9630333 92.5813492 66.9253286 92.5813492"></polygon>
            <polygon id="Stroke-1754" stroke="#151616" stroke-width="1.92644765" stroke-linejoin="round" mask="url(#mask-2)" points="134.022471 116.565574 138.108014 113.583438 141.450838 116.565574 143.307952 113.956216 147.02209 114.328904 148.507529 108.737319 157.05029 107.991581 161.878552 110.228251 163.364262 105.75491 167.821119 105.009444 171.906662 101.654257 184.16329 107.246115 183.420571 112.465012 181.934862 114.701955 184.534605 116.565574 182.306176 121.039278 179.335029 122.53021 176.36361 124.767152 171.906662 122.157431 166.33541 127.749289 162.992857 132.595498 154.078781 133.341146 150.364643 135.950595 147.02209 140.424026 141.450838 139.305782 144.421986 134.832441 139.965129 132.22272 137.7367 123.648726 135.508271 121.039278"></polygon>
            <polygon id="Fill-1755" fill="#D8D8D9" mask="url(#mask-2)" points="134.022471 116.565574 138.108014 113.583438 141.450838 116.565574 143.307952 113.956216 147.02209 114.328904 148.507529 108.737319 157.05029 107.991581 161.878552 110.228251 163.364262 105.75491 167.821119 105.009444 171.906662 101.654257 184.16329 107.246115 183.420571 112.465012 181.934862 114.701955 184.534605 116.565574 182.306176 121.039278 179.335029 122.53021 176.36361 124.767152 171.906662 122.157431 166.33541 127.749289 162.992857 132.595498 154.078781 133.341146 150.364643 135.950595 147.02209 140.424026 141.450838 139.305782 144.421986 134.832441 139.965129 132.22272 137.7367 123.648726 135.508271 121.039278"></polygon>
            <polyline id="Stroke-1756" stroke="#151616" stroke-width="0.51368917" stroke-linejoin="round" mask="url(#mask-2)" points="141.3239 116.223762 140.012357 121.050357 137.826452 123.683144"></polyline>
            <polyline id="Stroke-1757" stroke="#151616" stroke-width="0.51368917" stroke-linejoin="round" mask="url(#mask-2)" points="139.793767 121.050357 136.73359 119.295256 138.263724 117.101267"></polyline>
            <polyline id="Stroke-1758" stroke="#151616" stroke-width="0.51368917" stroke-linejoin="round" mask="url(#mask-2)" points="147.007252 114.468662 149.630157 116.662378 148.974295 120.392069 148.318524 124.121851 154.439148 122.805639 155.313419 118.856368 148.755795 120.61165"></polyline>
            <polyline id="Stroke-1759" stroke="#151616" stroke-width="0.51368917" stroke-linejoin="round" mask="url(#mask-2)" points="148.318524 124.341431 152.690333 128.948627 155.531919 126.974037 154.220376 122.586058"></polyline>
            <polyline id="Stroke-1760" stroke="#151616" stroke-width="0.51368917" stroke-linejoin="round" mask="url(#mask-2)" points="148.318524 108.983689 152.690333 109.203269 155.969281 110.958279 156.406281 107.886785"></polyline>
            <path d="M167.554124,104.59571 L166.898352,110.080774 L172.363205,109.203269 L173.455976,105.692886 C173.455976,105.692886 167.117124,104.157094 167.554124,104.59571 Z" id="Stroke-1761" stroke="#151616" stroke-width="0.51368917" stroke-linejoin="round" mask="url(#mask-2)"></path>
            <polyline id="Stroke-1762" stroke="#151616" stroke-width="0.51368917" stroke-linejoin="round" mask="url(#mask-2)" points="148.100024 124.341431 145.914119 123.463836 145.258348 127.193345 142.416671 127.632234"></polyline>
            <polyline id="Stroke-1763" stroke="#151616" stroke-width="0.51368917" stroke-linejoin="round" mask="url(#mask-2)" points="154.439148 116.662378 156.624781 114.249081 158.154824 116.662378 160.5595 115.784874 162.089633 114.029773 164.712448 116.223762 165.14981 117.759555 168.209986 115.346257"></polyline>
            <path d="M158.154824,116.662378 L159.466457,112.055183" id="Stroke-1764" stroke="#151616" stroke-width="0.51368917" stroke-linejoin="round" mask="url(#mask-2)"></path>
            <polyline id="Stroke-1765" stroke="#151616" stroke-width="0.51368917" stroke-linejoin="round" mask="url(#mask-2)" points="164.931219 117.978863 164.493948 123.024947 160.9965 124.999628 161.433771 127.851542"></polyline>
            <path d="M164.275448,123.024947 L171.925933,122.147442" id="Stroke-1766" stroke="#151616" stroke-width="0.51368917" stroke-linejoin="round" mask="url(#mask-2)"></path>
            <polyline id="Stroke-1767" stroke="#151616" stroke-width="0.51368917" stroke-linejoin="round" mask="url(#mask-2)" points="184.38541 107.00928 177.827786 107.228588 177.390424 113.152268 181.980733 114.468662"></polyline>
            <path d="M176.734652,113.810465 L171.707433,113.152268 L173.018705,118.856368 L178.920557,117.978863 C178.920557,117.978863 176.079152,114.029773 176.734652,113.810465 Z" id="Stroke-1768" stroke="#151616" stroke-width="0.51368917" stroke-linejoin="round" mask="url(#mask-2)"></path>
            <polyline id="Stroke-1769" stroke="#151616" stroke-width="0.51368917" stroke-linejoin="round" mask="url(#mask-2)" points="152.253243 129.167935 149.411567 128.948627 149.192886 131.800813 146.13271 131.800813 146.13271 135.96912"></polyline>
            <path d="M2.3031619,152.643075 C4.05170476,152.204368 14.9808667,151.32659 16.0739095,151.765479 C17.1669524,152.204368 26.7848429,157.25027 28.5333857,157.030962 C30.282019,156.811654 40.5555905,156.592346 40.5555905,156.592346 L46.0204429,155.275862 L51.7035238,158.786335 L61.1027333,157.25027 L65.2557714,154.836973 L76.1851143,155.714569 L93.0161286,155.056554 L96.9508476,152.423766 L112.689,149.352272 L123.181071,144.964294 L131.487329,148.474677 L140.667857,141.015295 L154.438876,140.576406 L161.215,139.040614 L164.712448,134.21411 L167.553852,134.433418 L169.302757,132.458737 L175.42311,132.897626 L187.445314,132.020121 L189.412629,124.780048 L194.65871,120.61165 L201.216062,121.269937 L208.648048,115.346257" id="Stroke-1770" stroke="#151616" stroke-width="0.770579061" mask="url(#mask-2)"></path>
            <path d="M64.8341524,142.107749 C60.4380048,136.574828 60.0697667,142.98371 54.5604905,142.765764 C53.7031381,142.73171 53.6283143,143.789747 53.249219,144.521046 L64.8341524,142.107749 Z M92.1376952,141.234603 C92.2669857,145.125211 90.1075,141.725981 92.649881,146.500086 C94.1668952,149.348368 88.3427619,149.068852 97.6587333,149.552783 L98.2580476,149.791161 L92.1376952,141.234603 Z M85.7988429,143.647901 C87.2886238,140.486776 90.5597,138.180091 93.5929143,141.748683 C94.0319952,142.265306 100.653948,140.562512 99.1325905,146.500086 L85.7988429,143.647901 Z M80.3339905,134.872307 C80.3339905,130.49568 74.1103143,134.433418 77.9296762,134.433418 L80.3339905,134.872307 Z M82.5198952,137.285604 C86.0904476,132.079057 88.8174905,137.768536 87.1102048,138.163109 L82.5198952,137.285604 Z M84.726519,143.134365 C83.6491286,139.265371 81.2698762,140.695096 78.006581,142.990158 C77.2320143,143.534841 76.7375619,146.67072 80.7920714,145.108956 L84.726519,143.134365 Z M72.0278238,141.015295 C68.7104238,141.122634 67.5088095,135.241725 78.5854476,136.60861 C79.4689476,136.717764 80.2312095,138.982223 80.3714476,139.661306 C81.6425476,139.955533 81.6456238,139.954262 81.6456238,141.015295 L72.0278238,141.015295 Z M105.034171,137.724221 C100.110819,139.323036 99.6635048,141.584406 101.355952,133.37411 C102.462295,132.861665 117.436738,138.225133 107.819662,140.833583 C107.650652,140.879351 106.770952,141.350478 106.564576,141.453911 L105.034171,137.724221 Z M97.6025476,126.315749 C96.820019,124.580536 95.3035476,125.430525 95.4166429,126.754638 L97.6025476,126.315749 Z M90.8261524,123.902543 C91.4688048,123.055823 92.8539952,122.327611 92.7934667,123.683144 L90.8261524,123.902543 Z M91.9191952,120.172761 C90.7361286,119.062054 89.5147905,119.008476 89.5147905,121.050357 L91.9191952,120.172761 Z M81.2086238,122.586058 C84.8255905,122.234711 83.3321,122.429319 86.4546143,122.586058 L81.2086238,122.586058 Z M44.7241905,134.872307 C45.030181,134.872307 52.1061429,130.931754 50.7884476,134.652726 C50.4032,135.740549 48.9392952,135.530504 48.0031381,135.530504 L44.7241905,134.872307 Z M60.8542857,143.601587 C44.0902238,143.601587 57.0726524,148.52208 36.4046333,143.133094 C35.9996619,143.027299 29.7126524,145.060554 21.4525381,143.697574 C18.3067714,143.178318 16.8125571,143.681591 14.0562905,145.092791 L60.8542857,143.601587 Z M42.3198762,119.843844 C40.166,117.496476 32.0136429,121.918599 42.7571476,120.592852 C43.217219,120.536004 42.3890905,119.919217 42.3198762,119.843844 Z M92.9027619,134.543027 C91.9776429,130.078949 87.7767429,138.088463 92.6029238,134.938236 L92.9027619,134.543027 Z M75.3067714,123.024947 L74.2136381,123.902543 C75.8486333,119.963533 79.5767048,125.999455 75.5814571,123.626841 C75.3023381,123.461021 75.2846952,123.306097 75.3067714,123.024947 Z M83.0664619,125.548125 C75.6683143,126.547226 84.5562429,129.337842 83.5847095,124.990093 L83.0664619,125.548125 Z M90.6076524,128.619619 C90.1477619,127.039875 86.3409762,128.520545 86.9290714,130.227516 C90.8514857,131.591494 93.8632571,126.858889 90.6824762,128.165021 L90.6076524,128.619619 Z M32.2647143,107.447896 C27.0946333,109.555888 36.656519,109.732787 33.4139429,107.153397 C33.1811476,106.968324 32.5964,107.31277 32.2647143,107.447896 Z M34.013619,125.438517 C33.537081,125.459585 28.8765619,124.919079 30.3351286,126.917643 C31.3894476,128.362262 36.0340429,126.588363 34.1572048,125.018426 L34.013619,125.438517 Z" id="Stroke-1771" stroke="#151616" stroke-width="0.770579061" stroke-linejoin="round" mask="url(#mask-2)"></path>
            <path d="M129.802571,34.1414141 C127.824943,39.0003373 129.596919,43.7610032 128.419462,45.0545124 L127.7085,45.7362292 L129.802571,34.1414141 Z M184.163562,108.364359 C192.318452,105.120143 186.112962,104.458041 192.334557,106.777349 C195.768943,108.057782 197.395252,104.727023 204.188024,109.173937 C214.870186,104.941699 208.216657,111.648441 211.276562,102.772683 C212.461438,99.3354032 217.13019,100.163053 219.447648,100.163053 L184.163562,108.364359 Z M190.477533,115.447421 C193.180419,112.045375 195.515338,115.974577 203.381429,113.679243 C204.113924,113.465565 205.302419,113.583438 206.076895,113.583438 L190.477533,115.447421 Z M153.579986,84.4117362 C167.362043,80.1260108 159.840124,85.5085492 165.60219,85.5085492 L153.579986,84.4117362 Z M165.60219,53.9158314 C159.361324,59.6273773 166.982495,56.7741924 162.323514,63.6443935 C160.529462,66.2898941 159.847814,63.7885103 154.891529,63.7885103 L165.60219,53.9158314 Z M176.968624,77.3909708 C180.689457,77.2158876 182.472381,74.8620714 185.712062,76.0181838 C186.666676,76.3587243 189.158481,75.5901016 189.865281,74.9776735 L176.968624,77.3909708 Z M205.452429,81.2699546 C203.703343,80.1746854 202.611024,80.373107 200.575943,80.373107 L205.452429,81.2699546 Z M213.876667,81.5237708 C198.09409,81.5237708 211.891348,79.8719222 200.97241,89.4481038 C200.420233,89.9325795 200.505643,90.6069405 200.505643,91.2162811 L213.876667,81.5237708 Z M168.881138,94.9426119 C173.317729,96.1058984 171.779995,93.7888605 173.071543,97.5376216 C174.625471,98.076947 176.968624,96.4232822 176.968624,98.0141059 L168.881138,94.9426119 Z M86.0216857,61.5946119 L91.9235381,57.2066335 L98.4811619,57.8649211 L102.852971,55.8905124 L119.028395,50.8443373 L130.613238,50.8443373 L139.138267,47.5532627 L146.351481,51.0636454 L156.843552,52.3801297 L160.778271,55.4516238 L169.521529,53.2576346 L175.423381,55.8905124 L183.074048,60.9364151 L194.22171,62.4721168 L202.309376,61.3753038 L208.429729,65.7631914 L214.987352,65.5436108 L217.173257,73.4418811 L225.698286,86.3861449 L223.730881,92.3097341 L223.949381,97.1363286 L219.796433,100.208095 L221.326476,107.00928 L217.173257,109.861194 L213.02031,116.662378 L209.304271,117.320575 L205.806824,119.953453 L86.0216857,61.5946119 Z M181.996114,60.9364151 C177.391781,65.7117016 176.279738,64.5613103 182.214614,69.3296951 C183.135571,70.0698032 180.376229,71.6819676 180.466071,73.0029924 L181.996114,60.9364151 Z M161.011881,64.6661059 C171.580405,64.6661059 164.972567,70.1307373 169.75541,69.7309881 C172.00899,69.5425557 175.264867,68.6465254 175.657262,65.7631914 L161.011881,64.6661059 Z M156.421662,53.6965232 C146.897686,56.4570811 158.658324,58.9524714 153.817214,59.8959049 C145.89521,61.4398703 150.473395,60.8575914 150.082538,70.8090941 C149.99559,73.0215178 155.777652,70.0311178 152.487214,78.0491676 L156.421662,53.6965232 Z M128.442533,51.2829535 C131.398843,55.5931978 139.965671,49.558547 141.757552,58.1217341 C141.763524,58.1506119 141.689333,55.6250724 147.459633,54.1351395 C148.141552,53.9590573 150.0164,52.5515805 150.957081,52.1608216 L128.442533,51.2829535 Z M164.072057,68.1764886 C158.257967,77.2048086 161.650281,69.6288259 161.886243,75.6358703 C161.903886,76.0835676 156.718424,81.4414054 157.55189,83.0198789 L157.951705,82.6563632 L164.072057,68.1764886 Z M173.252586,68.3957968 C168.934248,74.4141924 176.960843,72.4915459 173.852262,75.7987849 C171.77891,78.0043978 170.848271,74.1925232 170.848271,79.8042681 L173.252586,68.3957968 Z M141.776281,56.7680173 C141.395195,62.3382616 140.42909,62.0113427 146.004414,66.7849038 C146.521757,67.2276065 145.693357,73.4720303 145.711,74.3194768 L141.776281,56.7680173 Z M150.30131,71.0286746 C158.78119,68.8571157 152.596962,69.2213578 157.077433,66.4213881 L150.30131,71.0286746 Z M160.764429,38.6533492 C160.764429,40.1445535 160.764429,41.6355762 160.764429,43.1267805 L160.764429,38.6533492 Z M144.809586,37.9460238 C142.301314,46.8026205 147.750243,36.9961427 141.323629,44.1492195 C140.630129,44.9212022 141.225914,46.1616778 141.822243,46.8546551 L144.809586,37.9460238 Z M91.3101095,38.2803892 C91.6096762,47.9075157 84.8460381,40.3471524 94.0370619,48.2177254 C94.5341381,48.6434465 94.2812571,54.8348368 94.2812571,55.801427 L91.3101095,38.2803892 Z M101.709624,36.8213319 C98.5345429,45.3768 102.097133,41.4059157 102.792171,50.2095697 L103.195333,50.9553081 L101.709624,36.8213319 Z M108.971514,35.291987 C105.486643,40.9016432 109.1379,42.1851632 109.1379,49.8367914 L108.971514,35.291987 Z M119.063771,34.1573059 C119.063771,43.7226811 121.29781,38.6863135 115.696067,43.7445665 C114.556881,44.773453 114.708971,49.1505341 114.708971,50.5825297 L119.063771,34.1573059 Z M8.11345238,77.7958962 C9.39522857,73.672813 2.4126381,65.5304432 8.4850381,64.7803459 C12.5665095,64.2763459 21.0609571,53.7245838 30.8016238,51.7327395 C37.4369667,50.3758443 27.2997429,45.6910962 43.0264048,47.6320865 C44.6931571,47.837773 54.7216286,45.4396411 61.6287619,45.7362292 C70.9662667,46.1369773 117.840443,28.5919654 132.908438,34.8296692 C135.649776,35.9644411 145.867976,38.0646227 145.780576,38.1524368 C142.675252,41.2697903 172.574014,36.8550227 165.221286,40.0164195 C160.419986,42.0809124 178.241714,38.527213 179.027229,41.9444238 C188.279052,45.1587632 191.51439,37.7606789 201.619767,46.8866205 C201.692329,46.9521859 205.472424,47.9471092 210.066805,51.7327395 C214.997667,55.7957968 216.803933,44.4222876 231.428233,57.1969168 C233.636667,59.1257384 251.432519,60.4397708 252.195505,66.5804886 C252.273948,67.2121686 251.395876,67.5323676 251.017776,67.7306076 L8.11345238,77.7958962 Z M80.2702048,41.9763892 C83.2726571,48.1453492 83.8817429,46.3493838 83.8817429,54.3102227 L80.2702048,41.9763892 Z M51.0630429,46.8222357 C53.3269381,49.6716065 53.0545143,49.4226032 53.0545143,53.1919784 L51.0630429,46.8222357 Z M62.576681,45.6880086 C62.8857476,48.8923589 72.6541,54.8974054 73.1108238,55.0559611 L62.576681,45.6880086 Z M13.6847048,61.3932843 C13.6847048,65.7505686 13.5410286,74.0679308 19.2559571,74.0679308 L13.6847048,61.3932843 Z M156.188776,39.0804324 C155.66691,40.0830746 154.412186,47.3888043 154.450186,49.4641038 L156.188776,39.0804324 Z M175.992476,89.1659546 C181.882748,84.962867 182.45519,94.7304778 175.652648,90.1457124 L175.992476,89.1659546 Z M185.463343,88.2338724 C194.963433,82.6062357 182.340829,83.4070054 199.7945,80.8101795 C203.484029,80.2614097 198.10151,74.4407092 214.247981,74.4407092 C214.247981,95.1794465 213.722495,89.0076714 201.587919,90.8116281 C199.119457,91.1786854 202.535114,98.7967135 187.474267,89.8527568 C187.453729,89.8406789 185.541514,88.1874681 185.463343,88.2338724 Z M152.377648,88.6900151 C149.457257,93.0725449 162.577662,88.1327092 154.310671,87.9218465 C153.519186,87.9017773 152.829033,88.0124757 152.377648,88.6900151 Z M159.044567,92.6390141 C150.956357,94.4782962 163.217057,95.6922551 160.212524,92.6735222 C159.980181,92.4397751 159.400048,92.5581924 159.044567,92.6390141 Z" id="Stroke-1772" stroke="#151616" stroke-width="0.770579061" stroke-linejoin="round" mask="url(#mask-2)"></path>
            <path d="M166.960148,40.6905989 C164.12951,49.7961989 169.633357,41.7645276 162.249867,47.6959265 C160.954429,48.7363459 161.507148,53.7523719 161.507148,55.4286486" id="Stroke-1773" stroke="#151616" stroke-width="0.51368917" mask="url(#mask-2)"></path>
            <path d="M179.335029,41.6355762 C179.748414,55.7450335 172.368271,41.407187 172.649381,51.9456 C172.687833,53.3969384 171.812838,53.3963935 171.906662,54.6831827" id="Stroke-1774" stroke="#151616" stroke-width="0.770579061" stroke-linejoin="round" mask="url(#mask-2)"></path>
            <path d="M235.04701,58.7838357 C229.119824,68.3196065 238.993852,64.3154854 225.729771,68.4760735 C223.623667,69.1366314 226.815214,79.8744649 225.390214,81.8965492 M192.705962,42.7540022 C190.047138,51.0299546 192.322252,48.5932281 182.306176,52.0735524 C182.306176,55.219693 182.22339,56.9121341 181.192052,59.90208 M199.391338,44.9906724 C195.209076,64.2084195 188.620148,47.639533 188.620148,62.1387503 M208.558024,50.3992735 C206.577771,58.1974703 209.97271,53.7750746 205.5781,57.5377297 C205.178738,57.8798141 205.840481,59.7885665 205.333905,61.7660627 M216.476138,51.7007741 C210.157824,56.7595719 213.623514,53.3085795 212.358838,63.6299546 C212.3573,63.6423049 212.762271,66.5094746 212.762271,66.6123632" id="Stroke-1775" stroke="#151616" stroke-width="0.770579061" stroke-linejoin="round" mask="url(#mask-2)"></path>
            <path d="M-4.88562381,44.6179849 L3.28537143,39.7715935 L10.3424238,39.7715935 L16.284719,34.5526962 L23.7130857,32.6888043 L32.2554857,33.8069578 L43.0266762,35.6709405 L57.1403286,34.9254746 L61.2258714,30.8248216 L63.8257048,28.9608389 L68.6542381,28.5881514 C68.6542381,28.5881514 70.5115333,32.6890768 72.3683762,30.4520432 C74.225219,28.2151005 79.0537524,24.8601859 79.0537524,24.8601859 L87.2248381,22.2505557 C87.2248381,22.2505557 105.424033,22.6235157 107.652462,22.6235157 C109.88089,22.6235157 120.652081,22.2505557 120.652081,22.2505557 L124.737624,25.2329643 C129.194481,26.7241686 132.90871,27.096947 134.765733,27.096947 C136.622848,27.096947 138.851276,28.2151005 138.851276,28.2151005 L147.393767,28.9608389 L151.850624,26.3512086 C151.850624,26.3512086 159.27899,25.9784303 161.507419,25.9784303 C163.735848,25.9784303 173.764048,24.8601859 173.764048,24.8601859 L186.392262,25.9784303 L197.16309,33.4342703 L205.334176,34.5526962 C205.334176,34.5526962 202.734343,39.3988151 204.591457,39.3988151 C206.448571,39.3988151 210.162438,40.1445535 212.019552,40.5173319 C213.876667,40.8900195 223.162057,41.6355762 223.162057,41.6355762 L229.847433,44.6179849 L235.79,44.2449341 C235.79,44.2449341 235.418414,46.4818768 238.018429,47.2274335 C240.618533,47.9728995 241.732657,47.6001211 243.589681,49.0913254 C245.446795,50.5825297 250.275329,52.8192908 250.275329,52.8192908" id="Stroke-1776" stroke="#151616" stroke-width="0.770579061" stroke-linejoin="round" mask="url(#mask-2)"></path>
            <path d="M39.683581,2.86580757 L41.5406952,2.49302919 L34.1123286,14.0492497 L32.2553048,26.3512086 L33.3696095,35.6709405 L49.3403762,37.9076108 L59.7398905,35.2981622 L67.1682571,28.2151005 L74.2249476,22.2505557 L76.824781,18.1499027 L76.0820619,10.3213751 L67.5395714,4.35673946 C67.5395714,4.35673946 63.4540286,3.23876757 59.7398905,2.49302919 C56.0257524,1.74729081 53.7970524,1.74729081 50.4545,1.74729081 C47.1119476,1.74729081 39.683581,2.86580757 39.683581,2.86580757 Z" id="Stroke-1777" stroke="#151616" stroke-width="1.28426823" stroke-linejoin="round" mask="url(#mask-2)"></path>
            <path d="M39.683581,2.86580757 L41.5406952,2.49302919 L34.1123286,14.0492497 L32.2553048,26.3512086 L33.3696095,35.6709405 L49.3403762,37.9076108 L59.7398905,35.2981622 L67.1682571,28.2151005 L74.2249476,22.2505557 L76.824781,18.1499027 L76.0820619,10.3213751 L67.5395714,4.35673946 C67.5395714,4.35673946 63.4540286,3.23876757 59.7398905,2.49302919 C56.0257524,1.74729081 53.7970524,1.74729081 50.4545,1.74729081 C47.1119476,1.74729081 39.683581,2.86580757 39.683581,2.86580757" id="Fill-1778" fill="#979898" mask="url(#mask-2)"></path>
            <path d="M54.5243905,19.9656649 C61.2166429,31.3234638 49.3403762,34.2443027 49.3403762,38.2803892" id="Stroke-1779" stroke="#151616" stroke-width="0.770579061" stroke-linejoin="round" mask="url(#mask-2)"></path>
            <path d="M76.4536476,9.20313081 C78.3107619,9.20313081 97.6243524,4.72969946 102.08121,3.23849514 C106.538157,1.74729081 110.623881,-0.489107027 112.10941,2.86580757 C113.594848,6.22072216 116.194952,8.08461405 121.023214,9.94859676 C125.851476,11.8125795 135.136867,15.5404541 135.136867,15.5404541 L141.079524,20.0138854 L134.394148,27.4696346" id="Stroke-1780" stroke="#151616" stroke-width="0.770579061" stroke-linejoin="round" mask="url(#mask-2)"></path>
            <path d="M75.3393429,19.641107 C75.3393429,19.641107 91.3101095,15.1674941 96.8813619,14.0492497 C102.452614,12.9310054 107.65219,12.9310054 107.65219,12.9310054 L126.223062,18.1499027 L134.765462,19.641107" id="Stroke-1781" stroke="#151616" stroke-width="0.770579061" stroke-linejoin="round" mask="url(#mask-2)"></path>
            <polyline id="Stroke-1782" stroke="#151616" stroke-width="0.770579061" stroke-linejoin="round" mask="url(#mask-2)" points="107.65219 12.9310054 108.766586 6.59368216 109.509305 1.74729081"></polyline>
            <path d="M134.394148,15.5404541 C134.394148,15.5404541 144.421986,9.20313081 147.393495,7.71192649 C150.364914,6.22072216 157.05029,3.98377946 159.278719,6.22072216 C161.507148,8.45766486 165.59269,12.185267 165.59269,12.185267 C165.59269,12.185267 167.82139,10.6940627 170.421224,10.3213751 C173.021057,9.94859676 173.764048,10.6943351 174.506767,12.9310054 C175.249486,15.1677665 177.849319,17.0313859 179.706343,17.7771243 C181.563457,18.5228627 183.791886,18.5228627 185.649,16.6589708 C187.506114,14.7949881 187.506114,14.4220281 189.363138,14.0492497 C191.220252,13.6764714 199.019933,18.5228627 200.877048,18.5228627 C202.734162,18.5228627 212.390867,18.5228627 212.390867,18.5228627 L224.647495,6.59368216 C224.647495,6.59368216 227.618733,6.22072216 228.733038,9.57590919 C229.847433,12.9310054 230.961195,19.6413795 233.5613,22.9962941 C236.161405,26.3512086 238.761238,27.8421405 240.618262,28.2151005 C242.475376,28.5881514 245.07521,29.3336173 245.07521,29.3336173 L259.560267,33.8069578" id="Stroke-1783" stroke="#151616" stroke-width="0.770579061" stroke-linejoin="round" mask="url(#mask-2)"></path>
            <path d="M165.59269,11.8125795 C162.971052,16.2627632 158.536,19.4859114 158.536,24.4874984" id="Stroke-1784" stroke="#151616" stroke-width="0.770579061" stroke-linejoin="round" mask="url(#mask-2)"></path>
            <path d="M190.477533,28.2151005 C192.464843,22.9149276 202.235276,25.0638746 210.25789,20.48256 C211.649414,19.6879654 212.25271,20.3600562 213.50499,18.5228627" id="Stroke-1785" stroke="#151616" stroke-width="0.770579061" stroke-linejoin="round" mask="url(#mask-2)"></path>
            <path d="M210.905157,39.7715935 C216.271752,33.0192649 221.613738,29.8654054 210.533843,22.2505557" id="Stroke-1786" stroke="#151616" stroke-width="0.770579061" stroke-linejoin="round" mask="url(#mask-2)"></path>
            <path d="M231.704186,20.0138854 C226.667738,32.3884022 232.885533,25.8828973 221.644229,28.1832259 C221.560629,28.2002076 217.375652,29.9985341 217.219129,30.4520432" id="Stroke-1787" stroke="#151616" stroke-width="0.770579061" stroke-linejoin="round" mask="url(#mask-2)"></path>
            <path d="M228.361633,27.842413 C245.470681,39.6627114 226.798476,36.6084714 252.811286,38.9941622 C254.49939,39.1489038 254.414162,39.1334659 255.103319,40.5173319" id="Stroke-1788" stroke="#151616" stroke-width="0.770579061" stroke-linejoin="round" mask="url(#mask-2)"></path>
            <path d="M164.107252,30.8248216 C161.962605,30.8248216 160.171448,31.1976 158.907314,31.1976" id="Stroke-1789" stroke="#151616" stroke-width="0.770579061" stroke-linejoin="round" mask="url(#mask-2)"></path>
            <path d="M171.906933,31.9430659 C173.021057,31.9430659 174.135362,31.9430659 175.249486,31.9430659" id="Stroke-1790" stroke="#151616" stroke-width="0.770579061" stroke-linejoin="round" mask="url(#mask-2)"></path>
            <path d="M171.163943,34.9254746 C172.075129,35.4956757 172.388086,35.933747 173.392371,35.2981622" id="Stroke-1791" stroke="#151616" stroke-width="0.770579061" stroke-linejoin="round" mask="url(#mask-2)"></path>
            <path d="" id="Stroke-1792" stroke="#151616" stroke-width="0.770579061" stroke-linejoin="round" mask="url(#mask-2)"></path>
            <path d="" id="Stroke-1793" stroke="#151616" stroke-width="0.770579061" stroke-linejoin="round" mask="url(#mask-2)"></path>
            <path d="M40.4265714,40.5173319 C36.2284762,39.6657989 35.974781,42.8456303 28.9127524,39.4626551 C28.3759571,39.2055697 23.5163905,41.2864995 22.4713,41.5397708 C19.490381,42.2618076 20.6805952,41.726387 17.7702476,43.1267805" id="Stroke-1794" stroke="#151616" stroke-width="0.770579061" stroke-linejoin="round" mask="url(#mask-2)"></path>
            <path d="M57.5114619,39.7715935 C59.5739571,39.8323459 64.9590095,37.5349232 68.6539667,37.5349232" id="Stroke-1795" stroke="#151616" stroke-width="0.770579061" stroke-linejoin="round" mask="url(#mask-2)"></path>
            <path d="M121.0927,60.9278789 L119.577224,65.4905773 L117.758833,67.6199092 L134.124348,108.380251 L137.457852,105.642668 C137.457852,105.642668 135.639552,96.8212151 135.639552,92.2585168 C135.639552,87.6958184 135.639824,83.4371546 132.305957,78.2662054 C128.972181,73.0951654 121.0927,60.9278789 121.0927,60.9278789 Z" id="Stroke-1796" stroke="#151616" stroke-width="1.92644765" mask="url(#mask-2)"></path>
            <path d="M121.0927,60.9278789 L119.577224,65.4905773 L117.758833,67.6199092 L134.124348,108.380251 L137.457852,105.642668 C137.457852,105.642668 135.639552,96.8212151 135.639552,92.2585168 C135.639552,87.6958184 135.639824,83.4371546 132.305957,78.2662054 C128.972181,73.0951654 121.0927,60.9278789 121.0927,60.9278789" id="Fill-1797" fill="#FDC534" mask="url(#mask-2)"></path>
            <path d="M67.8670952,3.61127351 C58.7052952,1.08346378 49.5437667,0.849989189 40.3825095,3.23849514 C42.1713143,7.20611027 51.174419,21.7537297 55.2391524,19.768787 C62.4823143,16.23216 68.5475667,12.2622746 67.8670952,3.61127351 Z" id="Stroke-1798" stroke="#151616" stroke-width="1.28426823" mask="url(#mask-2)"></path>
            <path d="M67.8670952,3.61127351 C58.7052952,1.08346378 49.5437667,0.849989189 40.3825095,3.23849514 C42.1713143,7.20611027 51.174419,21.7537297 55.2391524,19.768787 C62.4823143,16.23216 68.5475667,12.2622746 67.8670952,3.61127351" id="Fill-1799" fill="#D9D9D9" mask="url(#mask-2)"></path>
            <polyline id="Stroke-1800" stroke="#151616" stroke-width="1.28426823" stroke-linejoin="round" mask="url(#mask-2)" points="107.754519 12.9310054 108.868914 6.59368216 109.611633 1.74729081"></polyline>
            <path d="M109.06,0.906291892 L107.223152,12.7049773 C107.223152,12.7049773 98.4063381,13.4428151 92.8960667,14.9174919 C87.3858857,16.3922595 76.7324048,19.3419762 76.7324048,19.3419762 L76.3651619,8.64918486 C76.3651619,8.64918486 93.9983381,5.69964973 97.304519,4.96217514 C100.61061,4.22470054 108.692486,0.906291892 109.06,0.906291892 Z" id="Stroke-1801" stroke="#151616" stroke-width="1.28426823" stroke-linejoin="round" mask="url(#mask-2)"></path>
            <path d="M109.06,0.906291892 L107.223152,12.7049773 C107.223152,12.7049773 98.4063381,13.4428151 92.8960667,14.9174919 C87.3858857,16.3922595 76.7324048,19.3419762 76.7324048,19.3419762 L76.3651619,8.64918486 C76.3651619,8.64918486 93.9983381,5.69964973 97.304519,4.96217514 C100.61061,4.22470054 108.692486,0.906291892 109.06,0.906291892" id="Fill-1802" fill="#C3C3C4" mask="url(#mask-2)"></path>
            <path d="M174.954262,14.9174919 L177.525867,21.5542184 C177.525867,21.5542184 183.771167,23.0289859 187.4445,22.6603849 C191.117924,22.291693 198.832467,24.5039351 198.832467,24.5039351 C198.832467,24.5039351 204.342919,23.3978595 206.54701,22.291693 C208.7511,21.1856173 213.159281,18.6045016 213.159281,18.6045016 C213.159281,18.6045016 204.342648,18.2359005 202.138557,18.2359005 C199.934557,18.2359005 199.199438,17.8672086 197.362952,17.1297341 C195.526376,16.3922595 190.750952,12.7052497 188.54659,13.8114162 C186.342229,14.9174919 184.872895,17.1297341 184.872895,17.1297341 C184.872895,17.1297341 182.668805,19.3419762 180.832048,18.2359005 C178.9952,17.1297341 174.954262,14.9174919 174.954262,14.9174919 Z" id="Stroke-1803" stroke="#151616" stroke-width="1.28426823" stroke-linejoin="round" mask="url(#mask-2)"></path>
            <path d="M174.954262,14.9174919 L177.525867,21.5542184 C177.525867,21.5542184 183.771167,23.0289859 187.4445,22.6603849 C191.117924,22.291693 198.832467,24.5039351 198.832467,24.5039351 C198.832467,24.5039351 204.342919,23.3978595 206.54701,22.291693 C208.7511,21.1856173 213.159281,18.6045016 213.159281,18.6045016 C213.159281,18.6045016 204.342648,18.2359005 202.138557,18.2359005 C199.934557,18.2359005 199.199438,17.8672086 197.362952,17.1297341 C195.526376,16.3922595 190.750952,12.7052497 188.54659,13.8114162 C186.342229,14.9174919 184.872895,17.1297341 184.872895,17.1297341 C184.872895,17.1297341 182.668805,19.3419762 180.832048,18.2359005 C178.9952,17.1297341 174.954262,14.9174919 174.954262,14.9174919" id="Fill-1804" fill="#D9D9D9" mask="url(#mask-2)"></path>
        </g>
    </g>
</svg>