<?xml version="1.0" encoding="UTF-8"?>
<svg width="250px" height="180px" viewBox="0 0 250 180" version="1.1" xmlns="http://www.w3.org/2000/svg" xmlns:xlink="http://www.w3.org/1999/xlink">
    <!-- Generator: Sketch 51.2 (57519) - http://www.bohemiancoding.com/sketch -->
    <title>3</title>
    <desc>Created with Sketch.</desc>
    <defs>
        <polygon id="path-1" points="0.151594096 0.691462823 245.097697 0.691462823 245.097697 176.744394 0.151594096 176.744394"></polygon>
    </defs>
    <g id="3" stroke="none" stroke-width="1" fill="none" fill-rule="evenodd">
        <g id="Group-203" transform="translate(2.000000, 2.000000)">
            <mask id="mask-2" fill="white">
                <use xlink:href="#path-1"></use>
            </mask>
            <g id="Clip-141"></g>
            <path d="M77.5080642,92.8547446 C77.5080642,92.8547446 76.6703026,90.2377769 72.3780111,89.9235338 C68.0857196,89.6093815 33.4323985,90.8658092 33.4323985,90.8658092 C33.4323985,90.8658092 19.5083446,91.5985892 18.4612561,93.9016769 C17.4142583,96.2047646 18.1473565,98.0889523 22.0209941,98.2983569 C25.8946317,98.5078523 46.3097269,98.0889523 46.3097269,98.0889523 C46.3097269,98.0889523 49.3457845,101.543448 54.0569114,103.532655 C58.7681292,105.521772 61.4900148,104.47484 64.0026642,102.2765 C66.5153137,100.07816 69.0280539,97.7750723 69.0280539,97.7750723 C69.0280539,97.7750723 77.6130908,98.0889523 78.555062,97.46092 C79.497124,96.8327969 79.182952,95.2624892 78.8690524,94.5297092 C78.555062,93.7969292 77.5080642,92.8547446 77.5080642,92.8547446 Z" id="Stroke-140" stroke="#151616" stroke-width="1.28892138" stroke-linejoin="round" mask="url(#mask-2)"></path>
            <path d="M77.5080642,92.8547446 C77.5080642,92.8547446 76.6703026,90.2377769 72.3780111,89.9235338 C68.0857196,89.6093815 33.4323985,90.8658092 33.4323985,90.8658092 C33.4323985,90.8658092 19.5083446,91.5985892 18.4612561,93.9016769 C17.4142583,96.2047646 18.1473565,98.0889523 22.0209941,98.2983569 C25.8946317,98.5078523 46.3097269,98.0889523 46.3097269,98.0889523 C46.3097269,98.0889523 49.3457845,101.543448 54.0569114,103.532655 C58.7681292,105.521772 61.4900148,104.47484 64.0026642,102.2765 C66.5153137,100.07816 69.0280539,97.7750723 69.0280539,97.7750723 C69.0280539,97.7750723 77.6130908,98.0889523 78.555062,97.46092 C79.497124,96.8327969 79.182952,95.2624892 78.8690524,94.5297092 C78.555062,93.7969292 77.5080642,92.8547446 77.5080642,92.8547446" id="Fill-142" fill="#FEFEFE" mask="url(#mask-2)"></path>
            <path d="M73.3318738,105.414755 L116.524663,45.5475462 L36.9815159,141.335226" id="Stroke-143" stroke="#151616" stroke-width="1.28892138" stroke-linejoin="round" stroke-dasharray="2.573659350906593,1.291376772566118" mask="url(#mask-2)"></path>
            <path d="M135.769034,51.1064354 L196.067628,148.177229" id="Stroke-144" stroke="#151616" stroke-width="1.28892138" stroke-linejoin="round" stroke-dasharray="2.573659350906593,1.291376772566118" mask="url(#mask-2)"></path>
            <path d="M150.309086,54.9551415 L211.890965,109.263462" id="Stroke-145" stroke="#151616" stroke-width="1.28892138" stroke-linejoin="round" stroke-dasharray="2.573659350906593,1.291376772566118" mask="url(#mask-2)"></path>
            <path d="M6.19075793,68.6390569 L4.4801048,76.3363785 L0.631157934,82.7508585 L2.34181107,88.3098385 L8.75669225,90.0202938 L16.4542229,89.59268 L29.7113535,85.7439738 L42.1133845,85.31636 L49.3833653,85.7439738 L54.5152339,81.8956308 L60.5023838,85.7439738 L65.6340708,86.1716785 L80.1743956,83.6060862 L72.4765018,72.9153769 L61.3577557,71.6324446 L52.8045808,67.3562154 L45.5346908,72.4877631 L36.9815159,66.9285108 L25.4350384,74.1982185 L16.4542229,67.7838292 L12.6053668,71.2048308 C12.6053668,71.2048308 6.61839852,68.6390569 6.19075793,68.6390569 Z" id="Stroke-146" stroke="#151616" stroke-width="1.28892138" stroke-linejoin="round" mask="url(#mask-2)"></path>
            <path d="M6.19075793,68.6390569 L4.4801048,76.3363785 L0.631157934,82.7508585 L2.34181107,88.3098385 L8.75669225,90.0202938 L16.4542229,89.59268 L29.7113535,85.7439738 L42.1133845,85.31636 L49.3833653,85.7439738 L54.5152339,81.8956308 L60.5023838,85.7439738 L65.6340708,86.1716785 L80.1743956,83.6060862 L72.4765018,72.9153769 L61.3577557,71.6324446 L52.8045808,67.3562154 L45.5346908,72.4877631 L36.9815159,66.9285108 L25.4350384,74.1982185 L16.4542229,67.7838292 L12.6053668,71.2048308 C12.6053668,71.2048308 6.61839852,68.6390569 6.19075793,68.6390569" id="Fill-147" fill="#FEFEFE" mask="url(#mask-2)"></path>
            <polyline id="Stroke-148" stroke="#151616" stroke-width="0.644506159" stroke-linejoin="round" mask="url(#mask-2)" points="8.30608561 89.7141292 8.30608561 78.5129338 12.5986494 71.1847708 22.125476 83.4329892"></polyline>
            <path d="M8.20142214,78.6173185 L16.9956044,83.3282415" id="Stroke-149" stroke="#151616" stroke-width="0.644506159" stroke-linejoin="round" mask="url(#mask-2)"></path>
            <polyline id="Stroke-150" stroke="#151616" stroke-width="0.644506159" stroke-linejoin="round" mask="url(#mask-2)" points="16.576769 89.7141292 16.6814325 83.2234938 21.6020679 83.2234938 22.125476 77.6754062 25.1362982 73.5454969 35.1074679 79.6643415 30.082169 85.9886877"></polyline>
            <polyline id="Stroke-151" stroke="#151616" stroke-width="0.644506159" stroke-linejoin="round" mask="url(#mask-2)" points="40.5515114 69.1958354 37.3060362 76.9426262 35.1074679 79.7689985 43.3425675 85.7830954"></polyline>
            <polyline id="Stroke-152" stroke="#151616" stroke-width="0.644506159" stroke-linejoin="round" mask="url(#mask-2)" points="37.4106996 77.0471015 42.5405712 77.3612538 54.1616657 78.1986908 60.2337808 79.5595938 69.8655432 79.8737462 80.1254679 83.6423938"></polyline>
            <polyline id="Stroke-153" stroke="#151616" stroke-width="0.644506159" stroke-linejoin="round" mask="url(#mask-2)" points="72.5874288 72.3361785 69.4467077 79.5595938 65.4683159 86.0502292"></polyline>
            <path d="M61.6994325,71.6033985 L56.4648974,76.7331308" id="Stroke-154" stroke="#151616" stroke-width="0.644506159" stroke-linejoin="round" mask="url(#mask-2)"></path>
            <polyline id="Stroke-155" stroke="#151616" stroke-width="0.644506159" stroke-linejoin="round" mask="url(#mask-2)" points="52.8004959 67.3113754 52.1723336 72.0222985 56.3601432 76.6284738"></polyline>
            <path d="M45.6812923,72.2317031 L42.2266716,77.1517585" id="Stroke-156" stroke="#151616" stroke-width="0.644506159" stroke-linejoin="round" mask="url(#mask-2)"></path>
            <path d="M22.1113151,83.2962908 L27.425369,86.8912969" id="Stroke-157" stroke="#151616" stroke-width="0.644506159" stroke-linejoin="round" mask="url(#mask-2)"></path>
            <polygon id="Stroke-158" stroke="#151616" stroke-width="1.28892138" stroke-linejoin="round" mask="url(#mask-2)" points="5.76311734 129.78938 16.8818635 127.651311 23.7243852 134.493314 11.3223542 137.059178"></polygon>
            <polygon id="Fill-159" fill="#FEFEFE" mask="url(#mask-2)" points="5.76311734 129.78938 16.8818635 127.651311 23.7243852 134.493314 11.3223542 137.059178"></polygon>
            <polygon id="Stroke-160" stroke="#151616" stroke-width="1.28892138" stroke-linejoin="round" mask="url(#mask-2)" points="1.0588893 143.473295 18.5925166 142.190454 23.7243852 150.743094 3.62482362 153.736482"></polygon>
            <polygon id="Fill-161" fill="#FEFEFE" mask="url(#mask-2)" points="1.0588893 143.473295 18.5925166 142.190454 23.7243852 150.743094 3.62482362 153.736482"></polygon>
            <path d="M78.891383,81.8956308 C78.891383,81.8956308 103.267623,85.31636 119.090688,89.59268 C134.913662,93.869 169.553185,101.566049 177.250988,104.559528 C184.948791,107.552915 187.514725,110.546303 191.363672,110.973917 C195.212528,111.401622 199.488844,111.829235 199.488844,111.829235 C199.488844,111.829235 200.344215,117.388397 202.91015,117.388397 C205.476084,117.388397 216.594921,124.657832 216.594921,124.657832 L238.405136,136.631474 C238.405136,136.631474 237.549855,139.197066 242.254083,141.335226 C246.958311,143.473295 249.951886,146.03916 249.951886,146.03916 L252.517548,150.743094" id="Stroke-162" stroke="#151616" stroke-width="0.644506159" stroke-linejoin="round" mask="url(#mask-2)"></path>
            <path d="M181.527576,106.697688 C181.527576,106.697688 196.067628,106.269983 198.633562,106.269983 C201.199497,106.269983 202.482509,109.263462 204.620803,108.835757 C206.759006,108.408143 206.331365,106.697688 209.325031,106.697688 C212.318606,106.697688 212.318334,110.973917 214.456627,109.263462 C216.594921,107.552915 221.72679,105.842369 221.72679,105.842369 L222.15443,110.546303 L230.707605,111.829235 L231.562886,116.533169 L238.405136,116.533169 L241.398711,119.954171 L246.102939,118.671329 L249.524245,122.092058" id="Stroke-163" stroke="#151616" stroke-width="0.644506159" stroke-linejoin="round" mask="url(#mask-2)"></path>
            <path d="M78.4637424,84.0335185 C78.4637424,84.0335185 78.4634701,91.73084 85.3059919,92.5860677 C92.1485137,93.4413862 107.116207,93.8692723 111.820435,98.5729338 C116.524663,103.276595 122.939272,104.987142 128.498872,107.552915 C134.058381,110.118689 139.189977,111.829235 139.617708,114.395009 C140.045349,116.960783 141.328543,119.954171 135.769034,119.526557 C130.209434,119.098943 127.215859,117.388669 129.354153,120.809398 C131.492446,124.230218 131.492446,123.802605 134.486021,127.651311 C137.479596,131.499926 147.743152,134.0657 151.592099,136.20386 C155.440955,138.34202 155.868414,143.045682 161.427923,143.473295 C166.987432,143.901 168.698358,144.328614 173.829954,144.756228 C178.961641,145.183842 202.482509,148.177229 201.199497,151.598322 C199.916575,155.019323 194.357247,157.157211 190.08066,159.295371 C185.804072,161.433531 181.527303,164.426918 178.106269,166.565078 C174.685326,168.703238 174.685326,172.551945 169.981098,172.124331 C165.27687,171.696717 166.131879,171.696717 160.572642,172.551945 C155.013314,173.407172 153.302661,175.972946 153.302661,175.972946 L152.019739,182.814768" id="Stroke-164" stroke="#151616" stroke-width="0.644506159" stroke-linejoin="round" mask="url(#mask-2)"></path>
            <path d="M178.961641,104.987142 C178.961641,104.987142 170.836379,105.414755 166.132151,104.987142 C161.427923,104.559528 154.585674,104.131823 155.440955,107.125302 C156.296327,110.118689 159.71727,111.829235 159.71727,115.250237 C159.71727,118.671329 155.013042,118.671057 161.000283,123.374991 C166.987432,128.078925 169.553639,130.217085 174.257595,132.355245 C178.961641,134.493314 181.527576,135.348632 184.948791,134.921018 C188.370097,134.493314 196.495269,137.914134 199.488844,140.479908 C202.482509,143.045682 212.745974,147.749615 214.884268,150.743094 C217.022562,153.736482 218.305756,157.584915 211.890965,158.440143 C205.476084,159.295371 195.639987,158.867757 199.916575,163.144077 C204.193072,167.420397 205.048716,169.986171 211.890965,170.841398 C218.733215,171.696717 222.15443,173.407172 224.292724,174.690105 C226.431018,175.972946 228.141943,180.249266 231.990527,175.545332 C235.839201,170.841398 234.55628,168.275625 239.688148,169.558557 C244.820017,170.841398 250.807167,171.696717 250.807167,171.696717" id="Stroke-165" stroke="#151616" stroke-width="0.644506159" stroke-linejoin="round" mask="url(#mask-2)"></path>
            <path d="M95.5697292,93.869 C95.5697292,93.869 87.4442856,98.5726615 90.4378605,102.848982 C93.4315262,107.125302 99.418676,106.269983 100.273957,108.835757 C101.129329,111.401622 95.1420886,112.256849 97.7080229,114.395009 C100.273957,116.533169 105.405917,117.816283 101.129329,120.381785 C96.8527417,122.947377 83.5953387,126.368378 88.7272982,130.644698 C93.8591668,134.921018 104.122632,135.348632 104.122632,135.348632 C104.122632,135.348632 100.701689,137.914406 98.1357542,138.34202 C95.5697292,138.769634 91.7208731,138.769362 93.4315262,141.76284 C95.1420886,144.756228 100.701689,149.887775 96.8527417,151.170708 C93.0037948,152.453549 87.8719262,150.315389 88.7272982,152.881163 C89.5825793,155.446937 94.2868074,156.301983 91.7208731,158.440143 C89.1549387,160.578303 84.0230701,160.578303 84.4507107,163.571691 C84.8783513,166.565078 90.8655011,169.986171 87.8719262,171.269012 C84.8783513,172.551945 74.6147956,169.986171 73.7595144,173.407172 C72.9042332,176.828265 83.5953387,175.972946 91.7208731,174.262491 C99.8463166,172.551945 107.543938,174.262218 107.543938,177.68322 C107.543938,181.104312 107.116207,183.242472 107.116207,183.242472" id="Stroke-166" stroke="#151616" stroke-width="0.644506159" stroke-linejoin="round" mask="url(#mask-2)"></path>
            <path d="M116.524663,125.085446 C116.524663,125.085446 110.964881,122.947377 105.833285,123.374991 C100.701689,123.802605 95.5697292,124.657832 95.1420886,126.795992 C94.714448,128.934152 95.1423609,129.78938 99.8463166,130.644698 C104.550272,131.499926 108.82686,131.499926 110.109872,134.0657 C111.392794,136.631474 111.392794,140.052294 107.543938,142.618068 C103.694991,145.183842 101.55697,147.322002 101.55697,151.170708 C101.55697,155.019323 98.9910354,155.019051 97.2803823,158.440143 C95.5697292,161.861145 92.148786,164.854623 97.2803823,166.565078 C102.411979,168.275625 110.537513,168.703238 114.38646,166.565078 C118.235316,164.426918 119.945697,163.571691 122.939272,164.426918 C125.932937,165.282237 130.209434,169.130671 131.492446,162.288849 C132.775459,155.446937 132.347728,153.736482 131.492446,149.032548 C130.637165,144.328614 127.6435,144.328342 128.926512,140.907522 C130.209434,137.486792 135.769034,137.914406 129.354153,134.921018 C122.939272,131.92754 119.090688,133.638086 116.952394,131.92754 C114.8141,130.217085 110.965154,128.934152 113.103447,128.506538 C115.241741,128.078925 115.241741,124.657832 116.524663,125.085446 Z" id="Stroke-167" stroke="#151616" stroke-width="1.28892138" stroke-linejoin="round" mask="url(#mask-2)"></path>
            <path d="M116.524663,125.085446 C116.524663,125.085446 110.964881,122.947377 105.833285,123.374991 C100.701689,123.802605 95.5697292,124.657832 95.1420886,126.795992 C94.714448,128.934152 95.1423609,129.78938 99.8463166,130.644698 C104.550272,131.499926 108.82686,131.499926 110.109872,134.0657 C111.392794,136.631474 111.392794,140.052294 107.543938,142.618068 C103.694991,145.183842 101.55697,147.322002 101.55697,151.170708 C101.55697,155.019323 98.9910354,155.019051 97.2803823,158.440143 C95.5697292,161.861145 92.148786,164.854623 97.2803823,166.565078 C102.411979,168.275625 110.537513,168.703238 114.38646,166.565078 C118.235316,164.426918 119.945697,163.571691 122.939272,164.426918 C125.932937,165.282237 130.209434,169.130671 131.492446,162.288849 C132.775459,155.446937 132.347728,153.736482 131.492446,149.032548 C130.637165,144.328614 127.6435,144.328342 128.926512,140.907522 C130.209434,137.486792 135.769034,137.914406 129.354153,134.921018 C122.939272,131.92754 119.090688,133.638086 116.952394,131.92754 C114.8141,130.217085 110.965154,128.934152 113.103447,128.506538 C115.241741,128.078925 115.241741,124.657832 116.524663,125.085446" id="Fill-168" fill="#FEFEFE" mask="url(#mask-2)"></path>
            <path d="M8.36636015,78.6538985 L0.151594096,82.9508231" id="Stroke-169" stroke="#151616" stroke-width="0.644506159" mask="url(#mask-2)"></path>
            <polyline id="Stroke-170" stroke="#151616" stroke-width="0.644506159" mask="url(#mask-2)" points="56.391279 76.6320138 54.7483439 78.2749369 54.3690863 82.3188877"></polyline>
            <path d="M42.2363845,77.2639492 L42.8683594,85.6045523" id="Stroke-171" stroke="#151616" stroke-width="0.644506159" mask="url(#mask-2)"></path>
            <path d="M73.3318738,104.559528 L36.9815159,141.335226 L196.922909,148.604934 L211.890965,109.263462 C211.890965,109.263462 73.3318738,104.987142 73.3318738,104.559528 Z" id="Stroke-172" stroke="#151616" stroke-width="1.28892138" stroke-linejoin="round" stroke-dasharray="2.573659350906593,1.291376772566118" mask="url(#mask-2)"></path>
            <path d="M117.533722,21.515961 C117.533722,21.515961 122.136317,20.7572226 123.350313,20.6560598 C124.564034,20.555 126.030935,20.352743 127.345859,20.6560598 C128.660921,20.9594796 130.178287,21.3641653 130.633531,21.6675507 C131.088672,21.9708675 131.341646,22.3756562 130.279456,22.8815047 C129.217266,23.3870441 125.8287,25.2583676 125.8287,25.2583676 L119.101517,23.69067 C119.101517,23.69067 118.798182,23.4377114 118.444107,22.9318629 C118.090032,22.4262892 117.533722,21.5663879 117.533722,21.515961 Z" id="Stroke-173" stroke="#151616" stroke-width="3.40586993" stroke-linejoin="round" mask="url(#mask-2)"></path>
            <path d="M117.535714,21.50196 C117.535714,21.50196 122.138274,20.74322 123.352297,20.6421031 C124.566049,20.5409862 126.032971,20.3387523 127.347846,20.6421031 C128.662993,20.9454538 130.180386,21.3501938 130.635622,21.6535446 C131.090768,21.9568954 131.343757,22.3616354 130.281509,22.8674015 C129.219352,23.3730769 125.830725,25.2443754 125.830725,25.2443754 L119.103487,23.6766092 C119.103487,23.6766092 118.800117,23.4237262 118.446095,22.9178692 C118.091982,22.4122846 117.535714,21.5524277 117.535714,21.50196" id="Fill-174" fill="#FEFEFE" mask="url(#mask-2)"></path>
            <polyline id="Stroke-175" stroke="#151616" stroke-width="1.15023478" stroke-linejoin="round" mask="url(#mask-2)" points="123.729809 26.3292509 129.141895 23.6991546 129.5464 23.1935809"></polyline>
            <path d="M117.963957,24.7612785 C117.963957,24.7612785 120.442412,23.8509504 121.757199,23.7498563 C123.072398,23.6486934 123.729809,23.5980605 123.578004,23.2946407 C123.426473,22.9913239 121.302058,22.3843126 121.302058,22.3843126" id="Stroke-176" stroke="#151616" stroke-width="1.15023478" stroke-linejoin="round" mask="url(#mask-2)"></path>
            <polygon id="Stroke-177" stroke="#151616" stroke-width="1.93342754" stroke-linejoin="round" mask="url(#mask-2)" points="56.3717624 29.4527092 62.2884708 36.3231231 67.4416716 46.0564892 64.0060229 45.8656015 57.8985963 40.1401508 57.1351793 35.17816 56.180772 32.31548"></polygon>
            <polygon id="Fill-178" fill="#FEFEFE" mask="url(#mask-2)" points="56.3717624 29.4527092 62.2884708 36.3231231 67.4416716 46.0564892 64.0060229 45.8656015 57.8985963 40.1401508 57.1351793 35.17816 56.180772 32.31548"></polygon>
            <path d="M61.3340635,35.3687754 C61.3340635,35.3687754 94.7345092,33.0785769 102.178142,33.2695554 C103.050671,33.2918846 103.880807,33.2983292 104.667372,33.2927015 C101.35318,30.7677738 97.7453314,27.5536354 96.8565542,26.7636708 C94.6794996,24.8282892 95.6019542,19.8151046 98.1730627,18.2978062 C99.046862,17.7822369 100.951773,18.7843292 103.584064,19.2487954 C106.216446,19.7132615 133.533248,25.9251446 136.049256,26.4971723 L156.76409,13.6121169 L157.718497,7.88675692 L168.788134,17.0476415 C168.788134,17.0476415 171.460366,20.2919154 169.170024,22.0096323 C166.879683,23.7273492 150.274864,37.0864923 150.274864,37.0864923 C150.274864,37.0864923 154.664376,41.0944985 156.3822,44.7205477 C158.100024,48.3466877 159.054432,53.3084062 153.901231,55.0261231 C148.747939,56.7439308 142.449432,55.0261231 138.250548,52.9269031 C134.051663,50.8275923 124.699579,45.1021415 124.699579,45.1021415 L67.4416716,45.8656015 C67.4416716,45.8656015 61.1431638,35.3687754 61.3340635,35.3687754 Z" id="Stroke-179" stroke="#151616" stroke-width="1.93342754" stroke-linejoin="round" mask="url(#mask-2)"></path>
            <path d="M61.3340635,35.3687754 C61.3340635,35.3687754 94.7345092,33.0785769 102.178142,33.2695554 C103.050671,33.2918846 103.880807,33.2983292 104.667372,33.2927015 C101.35318,30.7677738 97.7453314,27.5536354 96.8565542,26.7636708 C94.6794996,24.8282892 95.6019542,19.8151046 98.1730627,18.2978062 C99.046862,17.7822369 100.951773,18.7843292 103.584064,19.2487954 C106.216446,19.7132615 133.533248,25.9251446 136.049256,26.4971723 L156.76409,13.6121169 L157.718497,7.88675692 L168.788134,17.0476415 C168.788134,17.0476415 171.460366,20.2919154 169.170024,22.0096323 C166.879683,23.7273492 150.274864,37.0864923 150.274864,37.0864923 C150.274864,37.0864923 154.664376,41.0944985 156.3822,44.7205477 C158.100024,48.3466877 159.054432,53.3084062 153.901231,55.0261231 C148.747939,56.7439308 142.449432,55.0261231 138.250548,52.9269031 C134.051663,50.8275923 124.699579,45.1021415 124.699579,45.1021415 L67.4416716,45.8656015 C67.4416716,45.8656015 61.1431638,35.3687754 61.3340635,35.3687754" id="Fill-180" fill="#FEFEFE" mask="url(#mask-2)"></path>
            <path d="M155.92297,14.13522 L156.76409,13.6121169 L157.718497,7.88675692 L168.788134,17.0476415 C168.788134,17.0476415 170.912812,19.6273031 169.748987,21.4039292 C167.297792,19.9257523 157.455976,14.0680508 155.92297,14.37476 L155.92297,14.13522 Z" id="Stroke-181" stroke="#151616" stroke-width="1.93342754" stroke-linejoin="round" mask="url(#mask-2)"></path>
            <path d="M155.92297,14.13522 L156.76409,13.6121169 L157.718497,7.88675692 L168.788134,17.0476415 C168.788134,17.0476415 170.912812,19.6273031 169.748987,21.4039292 C167.297792,19.9257523 157.455976,14.0680508 155.92297,14.37476 L155.92297,14.13522 Z" id="Fill-182" fill="#FEFEFE" mask="url(#mask-2)"></path>
            <path d="M157.67547,48.8214108 C158.019507,51.4219492 157.251188,53.90948 153.901231,55.0261231 C148.747939,56.7439308 142.449432,55.0261231 138.250548,52.9269031 C134.051663,50.8275923 124.699579,45.1021415 124.699579,45.1021415 L67.4416716,45.8656015 C67.4416716,45.8656015 67.0307336,45.1809292 66.4227232,44.1622262 L120.50251,42.4288062 L115.592677,35.7660723 C115.592677,35.7660723 124.009508,43.13018 131.374076,46.6369585 C138.738644,50.1436462 146.804721,53.6506062 151.3638,52.2478585 C155.872227,50.8607231 157.636891,51.1880369 157.67547,48.8214108" id="Fill-183" fill="#FEFEFE" mask="url(#mask-2)"></path>
            <path d="M143.403839,32.8879615 C143.403839,32.8879615 139.586573,31.3611323 135.578588,31.9336138 C131.570694,32.5060954 127.180911,35.5597538 127.180911,35.5597538 L127.180911,38.04084 L140.159272,46.4380831 C140.159272,46.4380831 140.540889,44.3387723 144.167256,43.0028308 C149.57036,41.0123523 149.974036,42.1455154 154.473748,41.0785231 C154.473748,41.0785231 143.213121,33.0788492 143.403839,32.8879615 Z" id="Stroke-184" stroke="#151616" stroke-width="1.93342754" stroke-linejoin="round" mask="url(#mask-2)"></path>
            <path d="M143.403839,32.8879615 C143.403839,32.8879615 139.586573,31.3611323 135.578588,31.9336138 C131.570694,32.5060954 127.180911,35.5597538 127.180911,35.5597538 L127.180911,38.04084 L140.159272,46.4380831 C140.159272,46.4380831 140.540889,44.3387723 144.167256,43.0028308 C149.57036,41.0123523 149.974036,42.1455154 154.473748,41.0785231 C154.473748,41.0785231 143.213121,33.0788492 143.403839,32.8879615" id="Fill-185" fill="#FEFEFE" mask="url(#mask-2)"></path>
            <path d="M121.83672,25.0632 C121.83672,25.0632 119.737277,24.8723123 118.78287,25.4447938 C117.828554,26.0172754 116.874146,27.3533985 117.828554,27.9259708 C118.78287,28.4984523 120.882312,28.8802277 121.83672,29.4527092 C122.791127,30.0251908 126.035604,31.9338862 127.371538,32.31548 C128.707563,32.6969831 130.807187,33.2695554 130.807187,33.2695554 L133.479146,31.9336138 L134.815171,31.1702446 L133.097347,28.68934" id="Stroke-186" stroke="#151616" stroke-width="0.644506159" stroke-linejoin="round" mask="url(#mask-2)"></path>
            <path d="M124.699579,22.9638892 C125.859046,22.9638892 126.799021,24.1601369 126.799021,25.6356815 C126.799021,27.1113169 125.859046,28.3074738 124.699579,28.3074738 C123.540111,28.3074738 122.600137,27.1113169 122.600137,25.6356815 C122.600137,24.1601369 123.540111,22.9638892 124.699579,22.9638892 Z" id="Stroke-187" stroke="#151616" stroke-width="1.28892138" stroke-linejoin="round" mask="url(#mask-2)"></path>
            <path d="M124.699579,22.9638892 C125.859046,22.9638892 126.799021,24.1601369 126.799021,25.6356815 C126.799021,27.1113169 125.859046,28.3074738 124.699579,28.3074738 C123.540111,28.3074738 122.600137,27.1113169 122.600137,25.6356815 C122.600137,24.1601369 123.540111,22.9638892 124.699579,22.9638892" id="Fill-188" fill="#FEFEFE" mask="url(#mask-2)"></path>
            <path d="M130.616287,18.1926046 L131.761322,18.1926046 C132.181246,18.1926046 132.52483,18.5360754 132.52483,18.9559738 L132.52483,29.8343031 C132.52483,30.2542015 132.181246,30.5977631 131.761322,30.5977631 L130.616287,30.5977631 C130.196362,30.5977631 129.85287,30.2542015 129.85287,29.8343031 L129.85287,18.9559738 C129.85287,18.5360754 130.196362,18.1926046 130.616287,18.1926046 Z" id="Stroke-189" stroke="#151616" stroke-width="1.93342754" stroke-linejoin="round" mask="url(#mask-2)"></path>
            <path d="M130.616287,18.1926046 L131.761322,18.1926046 C132.181246,18.1926046 132.52483,18.5360754 132.52483,18.9559738 L132.52483,29.8343031 C132.52483,30.2542015 132.181246,30.5977631 131.761322,30.5977631 L130.616287,30.5977631 C130.196362,30.5977631 129.85287,30.2542015 129.85287,29.8343031 L129.85287,18.9559738 C129.85287,18.5360754 130.196362,18.1926046 130.616287,18.1926046" id="Fill-190" fill="#FEFEFE" mask="url(#mask-2)"></path>
            <path d="M96.6572125,33.2836246 L97.5973683,35.9415292 L99.506183,37.0864923 L99.6968103,39.3767815 C99.6968103,39.3767815 98.5515033,39.1858031 98.1699764,40.1401508 C97.7883587,41.0944985 99.0218989,45.8233938 99.0218989,45.8233938 L108.036392,45.6324154 L103.132459,39.9492631 L100.842117,39.3767815 L99.8878007,35.9415292 C99.5303292,34.6543308 99.1685911,32.9160092 99.1685911,32.9160092" id="Stroke-191" stroke="#151616" stroke-width="0.644506159" stroke-linejoin="round" mask="url(#mask-2)"></path>
            <path d="M141.7402,22.8740801 L145.078338,24.9212788 L146.833593,25.0808328 L149.302301,26.4703538 C149.302301,26.4703538 148.433981,26.9886438 149.012532,27.9853411 C149.590984,28.9821558 155.670304,33.032124 155.670304,33.032124 L161.710206,28.0796237 L151.907775,24.9164259 L150.008091,25.7979069 L146.489674,23.5760768 C145.16165,22.7369968 143.563462,21.4186211 143.563462,21.4186211" id="Stroke-192" stroke="#151616" stroke-width="0.758911232" stroke-linejoin="round" mask="url(#mask-2)"></path>
            <path d="M127.080241,25.0285262 C127.080241,25.0285262 126.063835,24.3654569 125.179959,24.4981615 C124.296084,24.6309569 124.031112,25.0730031 123.721751,25.4705723 C123.412481,25.8680508 122.307569,25.7355277 122.307569,25.7355277" id="Stroke-193" stroke="#151616" stroke-width="0.644506159" mask="url(#mask-2)"></path>
            <path d="M124.517121,24.76348 C124.517121,24.76348 124.208123,25.2934815 124.428888,25.8238462 C124.649652,26.35412 125.003221,26.2658015 125.48932,26.2658015 C125.975329,26.2658015 126.947528,26.1333692 126.947528,26.1333692" id="Stroke-194" stroke="#151616" stroke-width="0.644506159" mask="url(#mask-2)"></path>
            <path d="M100.202156,0.792556956 C100.202156,0.792556956 99.2917712,14.346934 99.0895359,16.9767555 C98.8870602,19.606577 99.0895359,21.2250106 99.0895359,21.2250106 L110.722718,24.2595177 C110.722718,24.2595177 112.94789,25.068786 114.465256,25.2712148 C115.982896,25.4734374 116.994141,25.3721028 116.083756,24.4617403 C115.173371,23.5514122 111.32939,17.4823292 110.520174,12.6271658 C109.71113,7.77200245 109.407519,3.52374737 107.788984,2.81564189 C106.170587,2.10757075 101.921757,0.893925894 101.921757,0.893925894 L100.202156,0.792556956 Z" id="Stroke-195" stroke="#151616" stroke-width="3.40586993" stroke-linejoin="round" mask="url(#mask-2)"></path>
            <path d="M100.20397,0.778346154 C100.20397,0.778346154 99.2935882,14.3328246 99.0913417,16.9626815 C98.8889137,19.5925385 99.0913417,21.2109538 99.0913417,21.2109538 L110.7246,24.2455508 C110.7246,24.2455508 112.949856,25.0547585 114.467249,25.2572646 C115.984824,25.4594985 116.996148,25.3581092 116.085766,24.4477846 C115.175385,23.53746 111.331339,17.4682662 110.522081,12.61302 C109.713095,7.75786462 109.409453,3.50959231 107.790937,2.80150154 C106.17242,2.09341077 101.92361,0.879735385 101.92361,0.879735385 L100.20397,0.778346154 Z" id="Fill-196" fill="#FEFEFE" mask="url(#mask-2)"></path>
            <path d="M100.10109,0.691462823 C100.10109,0.691462823 103.540292,1.804254 104.653118,2.51232514 C105.765773,3.22012147 106.575092,3.42265324 107.182038,6.76058021 C107.788984,10.0985072 109.20525,17.9884525 109.71113,20.2135196 C110.216838,22.4389646 110.924851,24.2595177 110.924851,24.2595177" id="Stroke-197" stroke="#151616" stroke-width="1.15023478" stroke-linejoin="round" mask="url(#mask-2)"></path>
            <path d="M76.5692463,27.3995846 L95.2834112,24.769557 C95.2834112,24.769557 98.4192774,24.9717109 102.060714,26.1856306 C105.702461,27.3995846 107.219826,28.4107664 107.927942,28.8154521 C108.636092,29.2202408 108.433822,29.928312 108.433822,29.928312 C108.433822,29.928312 97.5343821,30.711989 91.363716,30.7626906 C85.1931529,30.8134266 81.8043124,30.8134266 81.8043124,30.8134266 L76.5692463,27.3995846 Z" id="Stroke-198" stroke="#151616" stroke-width="3.40586993" stroke-linejoin="round" mask="url(#mask-2)"></path>
            <path d="M76.5709041,27.3856215 L95.2851498,24.7554923 C95.2851498,24.7554923 98.4210598,24.9577262 102.062586,26.1716738 C105.704385,27.3856215 107.221778,28.3967908 107.929913,28.8015308 C108.638048,29.2062708 108.435801,29.9143615 108.435801,29.9143615 C108.435801,29.9143615 97.536186,30.6980631 91.3654893,30.7487123 C85.1948834,30.7994523 81.8059838,30.7994523 81.8059838,30.7994523 L76.5709041,27.3856215 Z" id="Fill-199" fill="#FEFEFE" mask="url(#mask-2)"></path>
            <path d="M77.5557916,27.2730023 L81.9561177,29.9535254 C81.9561177,29.9535254 96.168753,29.6501399 100.518443,29.4983442 C104.86803,29.346514 108.206372,29.0431973 108.206372,29.0431973" id="Stroke-200" stroke="#151616" stroke-width="1.15023478" stroke-linejoin="round" mask="url(#mask-2)"></path>
            <path d="M87.3638412,32.9546437 L87.3133769,33.8649718" id="Stroke-201" stroke="#151616" stroke-width="1.15023478" stroke-linejoin="round" mask="url(#mask-2)"></path>
            <path d="M80.5398525,26.9189495 L82.8665027,27.7788508 C82.8665027,27.7788508 89.1382349,27.424798 92.4256315,27.1211721 C95.7133372,26.8178554 96.3203866,26.7166925 96.3203866,26.7166925 L92.7292764,25.1994561" id="Stroke-202" stroke="#151616" stroke-width="1.15023478" stroke-linejoin="round" mask="url(#mask-2)"></path>
        </g>
    </g>
</svg>