<?xml version="1.0" encoding="UTF-8"?>
<svg width="250px" height="180px" viewBox="0 0 250 180" version="1.1" xmlns="http://www.w3.org/2000/svg" xmlns:xlink="http://www.w3.org/1999/xlink">
    <!-- Generator: Sketch 51.2 (57519) - http://www.bohemiancoding.com/sketch -->
    <title>5</title>
    <desc>Created with Sketch.</desc>
    <defs>
        <polygon id="path-1" points="0.710831387 178.821091 248.51345 178.821091 248.51345 0.202624365 0.710831387 0.202624365"></polygon>
    </defs>
    <g id="5" stroke="none" stroke-width="1" fill="none" fill-rule="evenodd">
        <g id="Group-576">
            <polygon id="Stroke-382" stroke="#151616" stroke-width="3.48453478" points="116.634885 69.8928294 120.97877 69.8928294 120.97877 73.7904746 116.634885 73.7904746"></polygon>
            <mask id="mask-2" fill="white">
                <use xlink:href="#path-1"></use>
            </mask>
            <g id="Clip-385"></g>
            <polygon id="Fill-384" fill="#FEFEFE" mask="url(#mask-2)" points="116.633054 73.793068 120.977014 73.793068 120.977014 69.8954112 116.633054 69.8954112"></polygon>
            <polygon id="Stroke-386" stroke="#151616" stroke-width="5.16141486" mask="url(#mask-2)" points="130.446253 74.1193576 133.230954 74.1193576 133.230954 66.992065 130.446253 66.992065"></polygon>
            <polygon id="Fill-387" fill="#FEFEFE" mask="url(#mask-2)" points="130.444375 74.1271711 133.228995 74.1271711 133.228995 66.9998817 130.444375 66.9998817"></polygon>
            <path d="M131.883677,64.4299412 C133.210354,64.4299412 134.285602,65.505308 134.285602,66.8315232 C134.285602,66.9587633 134.275461,67.0834005 134.256693,67.2052533 L129.510873,67.2052533 C129.491832,67.0834005 129.481782,66.9587633 129.481782,66.8315232 C129.481782,65.505308 130.55703,64.4299412 131.883677,64.4299412 Z" id="Stroke-388" stroke="#151616" stroke-width="5.804375" mask="url(#mask-2)"></path>
            <path d="M131.881759,64.4383645 C133.208366,64.4383645 134.28361,65.5137274 134.28361,66.8398721 C134.28361,66.9671711 134.273614,67.091835 134.254802,67.2135914 L129.508989,67.2135914 C129.489905,67.091835 129.479909,66.9671711 129.479909,66.8398721 C129.479909,65.5137274 130.555153,64.4383645 131.881759,64.4383645" id="Fill-389" fill="#FEFEFE" mask="url(#mask-2)"></path>
            <polygon id="Stroke-390" stroke="#151616" stroke-width="1.93342754" mask="url(#mask-2)" points="114.850977 68.5589081 122.75909 68.5589081 122.75909 69.8954112 114.850977 69.8954112"></polygon>
            <polygon id="Fill-391" fill="#FEFEFE" mask="url(#mask-2)" points="114.850977 68.5589081 122.75909 68.5589081 122.75909 69.8954112 114.850977 69.8954112"></polygon>
            <path d="M113.163412,82.3069259 L107.378251,74.1122695 L142.893921,74.7548523 C142.893921,74.7548523 144.822308,75.0760528 144.983067,75.8796447 C145.143827,76.6832365 144.50088,81.6642523 144.50088,81.6642523 L143.697446,82.1461893 L113.163412,82.3069259 Z" id="Stroke-392" stroke="#151616" stroke-width="1.28892138" mask="url(#mask-2)"></path>
            <path d="M113.163412,82.3069259 L107.378251,74.1122695 L142.893921,74.7548523 C142.893921,74.7548523 144.822308,75.0760528 144.983067,75.8796447 C145.143827,76.6832365 144.50088,81.6642523 144.50088,81.6642523 L143.697446,82.1461893 L113.163412,82.3069259 Z" id="Fill-393" fill="#FEFEFE" mask="url(#mask-2)"></path>
            <path d="M140.209992,84.4779142 L144.37647,81.5939244 L149.183534,71.0193858 L154.952518,69.737764 L164.246489,65.5718797 L174.18168,55.6381975 L195.333775,61.0856127 L207.832848,60.4448472 L212.960612,55.6381975 L218.408896,54.9973411 C218.408896,54.9973411 228.02384,48.5885959 229.946593,48.5885959 C231.869345,48.5885959 239.240563,47.6274477 240.84316,48.5885959 C242.445666,49.549835 251.419208,60.7652299 251.419208,60.7652299" id="Stroke-394" stroke="#151616" stroke-width="0.644506159" stroke-linejoin="round" mask="url(#mask-2)"></path>
            <polyline id="Stroke-395" stroke="#151616" stroke-width="0.644506159" stroke-linejoin="round" mask="url(#mask-2)" points="139.889563 88.0029421 153.990869 88.3233249 177.06599 76.1465091 208.473796 82.555436 216.806663 88.3233249 230.587541 98.8978635 248.214378 103.063748"></polyline>
            <path d="M174.822536,55.9585802 L179.309444,77.1079299" id="Stroke-396" stroke="#151616" stroke-width="0.644506159" stroke-linejoin="round" mask="url(#mask-2)"></path>
            <path d="M212.640184,55.3177239 C214.563209,56.2792355 216.165442,63.9696025 216.165442,63.9696025 L215.845014,70.0581467 L224.498309,73.9033756 L232.190046,74.5444137" id="Stroke-397" stroke="#151616" stroke-width="0.644506159" stroke-linejoin="round" mask="url(#mask-2)"></path>
            <path d="M240.202212,47.9475579 C239.881784,49.549835 237.958758,59.8039909 237.958758,59.8039909 L235.715305,68.1354868 L232.510475,71.9808975 L231.869345,75.1852701 L229.946593,82.2350533 L234.753928,90.5664584 L241.484017,101.140997" id="Stroke-398" stroke="#151616" stroke-width="0.644506159" stroke-linejoin="round" mask="url(#mask-2)"></path>
            <path d="M158.798205,96.0139645 C160.400802,95.6934909 175.143056,93.1299746 175.143056,93.1299746 L187.962557,93.1299746 L204.948447,98.8978635 L214.563209,97.9366244 L220.65235,104.34537 L226.100633,102.102236 L236.676681,104.986226 L247.252729,108.19078" id="Stroke-399" stroke="#151616" stroke-width="0.644506159" stroke-linejoin="round" mask="url(#mask-2)"></path>
            <polyline id="Stroke-400" stroke="#151616" stroke-width="0.644506159" stroke-linejoin="round" mask="url(#mask-2)" points="247.57343 113.958669 239.561082 110.433641 233.151423 111.07477 227.703139 112.676775 222.575375 112.997248"></polyline>
            <path d="M-25.8024887,124.329311 C-25.8024887,124.329311 49.5117416,118.56115 78.9967949,121.765704 C108.481757,124.970349 91.3737307,118.046502 122.903583,123.047598 C154.433435,128.048786 187.57688,119.806972 202.384565,120.163699 C217.192249,120.520427 226.741763,124.329493 237.317811,124.970349 C247.893949,125.611206 255.906115,126.892827 255.906115,126.892827" id="Stroke-401" stroke="#151616" stroke-width="0.644506159" stroke-linejoin="round" mask="url(#mask-2)"></path>
            <path d="M-24.8944566,134.63644 C-24.6273723,134.63644 42.8883416,129.402553 69.4889934,132.126533 C95.0746522,134.823709 84.4769759,129.000484 114.510647,133.087954 C144.544682,137.175242 176.023462,130.20042 189.778622,130.417583 C204.949537,130.554604 218.19561,133.835665 230.854625,134.957186 C243.513912,136.078617 255.906115,136.612527 255.906115,136.612527" id="Stroke-402" stroke="#151616" stroke-width="0.644506159" stroke-linejoin="round" mask="url(#mask-2)"></path>
            <path d="M-23.9864245,144.944205 C-23.4524376,144.944205 36.2649416,140.244138 59.981192,142.487271 C81.6675471,144.677341 77.5799485,139.954648 106.118075,143.1284 C134.655838,146.302334 164.470043,140.59396 177.172951,140.671739 C192.706553,140.589053 209.649185,143.34211 224.391439,144.944205 C239.133966,146.546482 255.906115,146.332682 255.906115,146.332682" id="Stroke-403" stroke="#151616" stroke-width="0.644506159" stroke-linejoin="round" mask="url(#mask-2)"></path>
            <path d="M-23.0783923,155.251697 C-22.2772303,155.251697 29.6417234,151.085541 50.4733905,152.848373 C68.2605328,154.5307 70.6831938,150.90863 97.7251391,153.169028 C131.20637,158.940733 161.469048,149.475994 170.015201,147.720977 C185.912033,147.418857 201.103032,152.848554 217.928526,154.931224 C234.753928,157.014166 255.906115,156.052654 255.906115,156.052654" id="Stroke-404" stroke="#151616" stroke-width="0.644506159" stroke-linejoin="round" mask="url(#mask-2)"></path>
            <path d="M-22.1703602,165.559372 C-21.1021139,165.559372 23.0183234,161.927489 40.9655891,163.209656 C54.8534277,164.384605 64.7478153,165.387822 90.2938522,166.734684 C115.45921,165.41281 143.453171,162.55308 154.524856,165.666045 C170.78492,165.144219 193.197464,165.880299 212.106197,168.443816 C231.014657,171.00715 255.906115,165.773172 255.906115,165.773172" id="Stroke-405" stroke="#151616" stroke-width="0.644506159" stroke-linejoin="round" mask="url(#mask-2)"></path>
            <path d="M-21.2623281,175.867137 C-19.9271792,175.867137 16.3948325,172.769164 31.4577876,173.570394 C41.4463226,174.238237 56.8895026,172.817322 80.939631,173.250284 C104.989759,173.683246 129.809607,171.775215 139.355304,171.434206 C155.978053,170.692674 184.010455,171.861716 205.002064,174.905897 C225.993672,177.949988 255.906115,175.493145 255.906115,175.493145" id="Stroke-406" stroke="#151616" stroke-width="0.644506159" stroke-linejoin="round" mask="url(#mask-2)"></path>
            <polygon id="Fill-407" fill="#151616" mask="url(#mask-2)" points="217.264859 98.2779056 214.854285 98.2779056 214.854285 118.041595 217.264859 118.041595"></polygon>
            <polygon id="Fill-408" fill="#151616" mask="url(#mask-2)" points="205.051227 98.2779056 202.640653 98.2779056 202.640653 118.041595 205.051227 118.041595"></polygon>
            <polygon id="Fill-409" fill="#151616" mask="url(#mask-2)" points="216.300666 100.366754 216.300666 98.7598426 204.890741 98.7598426 204.890741 100.366754"></polygon>
            <polygon id="Fill-410" fill="#151616" mask="url(#mask-2)" points="216.300666 104.223068 216.300666 102.616066 204.890741 102.616066 204.890741 104.223068"></polygon>
            <polygon id="Fill-411" fill="#151616" mask="url(#mask-2)" points="216.300666 108.882883 216.300666 107.275972 204.890741 107.275972 204.890741 108.882883"></polygon>
            <polygon id="Fill-412" fill="#151616" mask="url(#mask-2)" points="216.300666 113.382053 216.300666 111.775051 204.890741 111.775051 204.890741 113.382053"></polygon>
            <polygon id="Fill-413" fill="#151616" mask="url(#mask-2)" points="216.300666 117.559749 216.300666 115.952747 204.890741 115.952747 204.890741 117.559749"></polygon>
            <path d="M177.546068,72.8935339 L159.885589,101.378831 L163.185064,101.122175 L178.803096,76.2294382 C178.803096,76.2294382 177.36463,73.4066607 177.546068,72.8935339 Z" id="Stroke-414" stroke="#151616" stroke-width="2.37167717" stroke-linejoin="round" mask="url(#mask-2)"></path>
            <path d="M177.551813,72.8908898 L159.891261,101.37615 L163.190601,101.119644 L178.808718,76.226832 C178.808718,76.226832 177.370243,73.403902 177.551813,72.8908898" id="Fill-415" fill="#FEFEFE" mask="url(#mask-2)"></path>
            <polygon id="Stroke-416" stroke="#151616" stroke-width="0.762276087" stroke-linejoin="round" mask="url(#mask-2)" points="180.430953 26.6407512 182.994542 26.6407512 182.994542 86.3181124 180.430953 86.3181124"></polygon>
            <polygon id="Fill-417" fill="#FEFEFE" mask="url(#mask-2)" points="180.431034 26.6384711 182.994916 26.6384711 182.994916 86.3158898 180.431034 86.3158898"></polygon>
            <polygon id="Fill-418" fill="#151616" mask="url(#mask-2)" points="166.466496 54.6532431 168.159696 54.6532431 168.159696 81.4004772 166.466496 81.4004772"></polygon>
            <path d="M177.979475,63.7946914 L149.196711,101.37615 L153.598831,101.037777 L178.995468,68.1960015 C178.995468,68.1960015 177.640962,64.4718929 177.979475,63.7946914 Z" id="Stroke-419" stroke="#151616" stroke-width="1.93342754" stroke-linejoin="round" mask="url(#mask-2)"></path>
            <path d="M177.979475,63.7946914 L149.196711,101.37615 L153.598831,101.037777 L178.995468,68.1960015 C178.995468,68.1960015 177.640962,64.4718929 177.979475,63.7946914" id="Fill-420" fill="#FEFEFE" mask="url(#mask-2)"></path>
            <polygon id="Stroke-421" stroke="#151616" stroke-width="0.762276087" stroke-linejoin="round" mask="url(#mask-2)" points="178.187247 26.6407512 180.751353 26.6407512 180.751353 86.3181124 178.187247 86.3181124"></polygon>
            <polygon id="Fill-422" fill="#FEFEFE" mask="url(#mask-2)" points="178.187581 26.6384711 180.751463 26.6384711 180.751463 86.3158898 178.187581 86.3158898"></polygon>
            <polygon id="Stroke-423" stroke="#151616" stroke-width="2.0582" stroke-linejoin="round" mask="url(#mask-2)" points="190.709608 37.5193278 179.989603 27.1163577 179.989645 28.8217272 190.709554 39.2247576"></polygon>
            <polygon id="Fill-424" fill="#151616" mask="url(#mask-2)" points="190.704465 37.5233975 179.984379 27.1204081 179.984379 28.8257239 190.704465 39.2287132"></polygon>
            <polygon id="Stroke-425" stroke="#151616" stroke-width="2.0582" stroke-linejoin="round" mask="url(#mask-2)" points="190.709488 62.6105436 179.989482 52.2075736 179.989572 53.9129128 190.709433 64.3159734"></polygon>
            <polygon id="Fill-426" fill="#151616" mask="url(#mask-2)" points="190.704465 62.6145635 179.984379 52.2115741 179.984379 53.9168898 190.704465 64.3198792"></polygon>
            <polygon id="Stroke-427" stroke="#151616" stroke-width="2.0582" stroke-linejoin="round" mask="url(#mask-2)" points="190.709425 75.2781005 179.989371 64.8751607 179.989461 66.5804999 190.709515 76.9834397"></polygon>
            <polygon id="Fill-428" fill="#151616" mask="url(#mask-2)" points="190.704465 75.2820391 179.984379 64.8790497 179.984379 66.5843655 190.704465 76.9874457"></polygon>
            <polygon id="Fill-429" fill="#151616" mask="url(#mask-2)" points="169.322817 95.9649893 166.74703 95.9649893 166.74703 106.730704 169.322817 106.730704"></polygon>
            <polyline id="Stroke-430" stroke="#151616" stroke-width="0.773371014" stroke-linejoin="round" mask="url(#mask-2)" points="107.546462 96.9290452 111.403236 97.0897817 116.545722 97.5717188 117.028001 103.19559 108.992662 103.356326"></polyline>
            <polygon id="Stroke-431" stroke="#151616" stroke-width="1.28892138" mask="url(#mask-2)" points="200.99589 105.364852 104.573184 105.364852 104.573184 101.829738 200.99589 101.829738"></polygon>
            <polygon id="Fill-432" fill="#FEFEFE" mask="url(#mask-2)" points="200.99589 105.364852 104.573184 105.364852 104.573184 101.829738 200.99589 101.829738"></polygon>
            <polygon id="Stroke-433" stroke="#151616" stroke-width="3.43215217" stroke-linejoin="round" mask="url(#mask-2)" points="96.3800941 105.427951 104.487309 105.427951 104.487309 98.8592133 96.3800941 98.8592133"></polygon>
            <polygon id="Fill-434" fill="#FEFEFE" mask="url(#mask-2)" points="96.3781763 105.434907 104.485398 105.434907 104.485398 98.8662431 96.3781763 98.8662431"></polygon>
            <polyline id="Stroke-435" stroke="#151616" stroke-width="0.644506159" stroke-linejoin="round" mask="url(#mask-2)" points="91.3461953 95.6517848 93.5823788 95.6517848 93.5823788 100.12415 95.8189259 100.12415"></polyline>
            <path d="M46.0586387,111.025068 C46.0586387,111.025068 46.6178891,113.540972 48.5746292,114.379274 C50.5313693,115.217666 52.3487058,114.798334 53.1872179,114.099597 C54.0257299,113.400861 55.7032084,111.025068 55.7032084,111.025068 L46.0586387,111.025068 Z" id="Stroke-436" stroke="#151616" stroke-width="1.28892138" stroke-linejoin="round" mask="url(#mask-2)"></path>
            <path d="M46.0586387,111.025068 C46.0586387,111.025068 46.6178891,113.540972 48.5746292,114.379274 C50.5313693,115.217666 52.3487058,114.798334 53.1872179,114.099597 C54.0257299,113.400861 55.7032084,111.025068 55.7032084,111.025068 L46.0586387,111.025068 Z" id="Fill-437" fill="#151616" mask="url(#mask-2)"></path>
            <path d="M46.6176164,102.919276 L47.0370088,102.919276 C47.728938,102.919276 48.2948223,103.485079 48.2948223,104.17691 L48.2948223,105.155413 C48.2948223,105.847243 47.728938,106.413138 47.0370088,106.413138 L46.6176164,106.413138 C45.9256872,106.413138 45.3598029,105.847243 45.3598029,105.155413 L45.3598029,104.17691 C45.3598029,103.485079 45.9256872,102.919276 46.6176164,102.919276 Z" id="Stroke-438" stroke="#151616" stroke-width="1.28892138" stroke-linejoin="round" mask="url(#mask-2)"></path>
            <path d="M46.6176164,102.919276 L47.0370088,102.919276 C47.728938,102.919276 48.2948223,103.485079 48.2948223,104.17691 L48.2948223,105.155413 C48.2948223,105.847243 47.728938,106.413138 47.0370088,106.413138 L46.6176164,106.413138 C45.9256872,106.413138 45.3598029,105.847243 45.3598029,105.155413 L45.3598029,104.17691 C45.3598029,103.485079 45.9256872,102.919276 46.6176164,102.919276" id="Fill-439" fill="#151616" mask="url(#mask-2)"></path>
            <path d="M92.9533358,68.6088827 L62.7617223,68.6088827 L63.4281153,71.0956198 L58.5682533,84.8207401 C58.5682533,84.8207401 50.1820423,84.8204675 49.9023263,89.572236 C49.6225193,94.3240954 49.9023263,106.622486 49.9023263,106.622486 L57.1704909,106.902253 L92.114642,105.784093 L91.5555734,89.8517305 L93.2328701,88.4541675 L92.9533358,68.6088827 Z" id="Stroke-440" stroke="#151616" stroke-width="1.93342754" stroke-linejoin="round" mask="url(#mask-2)"></path>
            <path d="M92.9533358,68.6088827 L62.7617223,68.6088827 L63.4281153,71.0956198 L58.5682533,84.8207401 C58.5682533,84.8207401 50.1820423,84.8204675 49.9023263,89.572236 C49.6225193,94.3240954 49.9023263,106.622486 49.9023263,106.622486 L57.1704909,106.902253 L92.114642,105.784093 L91.5555734,89.8517305 L93.2328701,88.4541675 L92.9533358,68.6088827 Z" id="Fill-441" fill="#FEFEFE" mask="url(#mask-2)"></path>
            <path d="M84.0776672,68.6789381 L84.0776672,98.7265868" id="Stroke-442" stroke="#151616" stroke-width="0.644506159" stroke-linejoin="round" mask="url(#mask-2)"></path>
            <polyline id="Stroke-443" stroke="#151616" stroke-width="0.644506159" stroke-linejoin="round" mask="url(#mask-2)" points="70.3794865 68.5390091 64.3691354 82.7942239 64.3691354 98.5867487 84.3572015 98.8662431"></polyline>
            <path d="M49.8324427,89.2229589 L64.3691354,89.2229589" id="Stroke-444" stroke="#151616" stroke-width="1.28892138" stroke-linejoin="round" mask="url(#mask-2)"></path>
            <path d="M49.8324427,94.9530487 L64.22955,94.9530487" id="Stroke-445" stroke="#151616" stroke-width="1.28892138" stroke-linejoin="round" mask="url(#mask-2)"></path>
            <path d="M61.4340252,68.9583416 L94.5610215,68.9583416 C94.5610215,68.9583416 94.8402832,66.5825482 92.4641507,65.1850761 C90.0880182,63.7875132 88.9697901,64.0669168 88.9697901,64.0669168 L68.0034449,64.0669168 C68.0034449,64.0669168 64.6486697,64.4862492 63.2509073,65.8838122 C61.8531449,67.2813751 61.4340252,68.9583416 61.4340252,68.9583416 Z" id="Stroke-446" stroke="#151616" stroke-width="1.93342754" stroke-linejoin="round" mask="url(#mask-2)"></path>
            <path d="M61.4340252,68.9583416 L94.5610215,68.9583416 C94.5610215,68.9583416 94.8402832,66.5825482 92.4641507,65.1850761 C90.0880182,63.7875132 88.9697901,64.0669168 88.9697901,64.0669168 L68.0034449,64.0669168 C68.0034449,64.0669168 64.6486697,64.4862492 63.2509073,65.8838122 C61.8531449,67.2813751 61.4340252,68.9583416 61.4340252,68.9583416" id="Fill-447" fill="#FEFEFE" mask="url(#mask-2)"></path>
            <path d="M54.305446,106.692541 C54.305446,106.692541 58.9178529,102.359832 60.7349168,101.241946 C62.5520715,100.12415 63.9498339,99.0058086 66.4658245,98.8662431 C68.981815,98.7265868 78.3468504,98.8662431 78.3468504,98.8662431 C78.3468504,98.8662431 83.7979511,98.4469107 85.0560372,99.8444736 C86.3142142,101.241946 91.0663883,106.972036 91.0663883,106.972036 C91.0663883,106.972036 53.8860536,106.832379 54.305446,106.692541 Z" id="Stroke-448" stroke="#151616" stroke-width="1.93342754" stroke-linejoin="round" mask="url(#mask-2)"></path>
            <path d="M54.305446,106.692541 C54.305446,106.692541 58.9178529,102.359832 60.7349168,101.241946 C62.5520715,100.12415 63.9498339,99.0058086 66.4658245,98.8662431 C68.981815,98.7265868 78.3468504,98.8662431 78.3468504,98.8662431 C78.3468504,98.8662431 83.7979511,98.4469107 85.0560372,99.8444736 C86.3142142,101.241946 91.0663883,106.972036 91.0663883,106.972036 C91.0663883,106.972036 53.8860536,106.832379 54.305446,106.692541" id="Fill-449" fill="#FEFEFE" mask="url(#mask-2)"></path>
            <path d="M44.5210702,105.574473 L200.115472,105.574473 C200.423332,105.574473 200.674795,105.82589 200.674795,106.133371 L200.674795,110.745574 C200.674795,111.053145 200.423332,111.304472 200.115472,111.304472 L44.5210702,111.304472 C44.2132098,111.304472 43.9623532,111.053145 43.9623532,110.745574 L43.9623532,106.133371 C43.9623532,105.82589 44.2132098,105.574473 44.5210702,105.574473 Z" id="Stroke-450" stroke="#151616" stroke-width="1.74008478" stroke-linejoin="round" mask="url(#mask-2)"></path>
            <path d="M44.5210182,105.574473 L200.115393,105.574473 C200.42319,105.574473 200.674371,105.82589 200.674371,106.133371 L200.674371,110.745574 C200.674371,111.053145 200.42319,111.304472 200.115393,111.304472 L44.5210182,111.304472 C44.2132215,111.304472 43.9620405,111.053145 43.9620405,110.745574 L43.9620405,106.133371 C43.9620405,105.82589 44.2132215,105.574473 44.5210182,105.574473" id="Fill-451" fill="#FEFEFE" mask="url(#mask-2)"></path>
            <polygon id="Stroke-452" stroke="#151616" stroke-width="2.09785072" stroke-linejoin="round" mask="url(#mask-2)" points="64.2294664 88.8086463 49.6925847 88.8086463 49.6925847 95.3772648 64.2294664 95.3772648"></polygon>
            <polygon id="Fill-453" fill="#FEFEFE" mask="url(#mask-2)" points="64.22955 88.8037173 49.6925847 88.8037173 49.6925847 95.3723812 64.22955 95.3723812"></polygon>
            <polygon id="Stroke-454" stroke="#151616" stroke-width="1.35858297" stroke-linejoin="round" mask="url(#mask-2)" points="64.2298308 84.6110775 84.9168047 84.6110775 84.9168047 98.8661886 64.2298308 98.8661886"></polygon>
            <polygon id="Fill-455" fill="#FEFEFE" mask="url(#mask-2)" points="64.22955 84.6110284 84.9164518 84.6110284 84.9164518 98.8662431 64.22955 98.8662431"></polygon>
            <path d="M92.6040088,84.7509574 L84.9164518,84.7509574" id="Stroke-456" stroke="#151616" stroke-width="0.644506159" stroke-linejoin="round" mask="url(#mask-2)"></path>
            <path d="M73.5246109,101.10238 C81.5915748,101.10238 88.1310964,107.640878 88.1310964,115.706781 C88.1310964,123.772685 81.5915748,130.311182 73.5246109,130.311182 C65.4575562,130.311182 58.9180347,123.772685 58.9180347,115.706781 C58.9180347,107.640878 65.4575562,101.10238 73.5246109,101.10238 Z" id="Stroke-457" stroke="#151616" stroke-width="1.93342754" stroke-linejoin="round" mask="url(#mask-2)"></path>
            <path d="M73.5246109,101.10238 C81.5915748,101.10238 88.1310964,107.640878 88.1310964,115.706781 C88.1310964,123.772685 81.5915748,130.311182 73.5246109,130.311182 C65.4575562,130.311182 58.9180347,123.772685 58.9180347,115.706781 C58.9180347,107.640878 65.4575562,101.10238 73.5246109,101.10238" id="Fill-458" fill="#FEFEFE" mask="url(#mask-2)"></path>
            <path d="M73.5260415,107.103559 C78.2736646,107.103559 82.1222503,110.951596 82.1222503,115.698541 C82.1222503,120.445487 78.2736646,124.293523 73.5260415,124.293523 C68.7784184,124.293523 64.9298327,120.445487 64.9298327,115.698541 C64.9298327,110.951596 68.7784184,107.103559 73.5260415,107.103559 Z" id="Stroke-459" stroke="#151616" stroke-width="3.2852808" stroke-linejoin="round" mask="url(#mask-2)"></path>
            <path d="M73.5246109,107.111874 C78.2721504,107.111874 82.1207453,110.959919 82.1207453,115.706781 C82.1207453,120.453734 78.2721504,124.301689 73.5246109,124.301689 C68.7769807,124.301689 64.9283858,120.453734 64.9283858,115.706781 C64.9283858,110.959919 68.7769807,107.111874 73.5246109,107.111874" id="Fill-460" fill="#FEFEFE" mask="url(#mask-2)"></path>
            <polygon id="Stroke-461" stroke="#151616" stroke-width="5.36221486" stroke-linejoin="round" mask="url(#mask-2)" points="95.6812487 87.838724 100.922744 87.838724 100.922744 98.8793006 95.6812487 98.8793006"></polygon>
            <polygon id="Fill-462" fill="#FEFEFE" mask="url(#mask-2)" points="95.6792496 87.8254868 100.9207 87.8254868 100.9207 98.8662431 95.6792496 98.8662431"></polygon>
            <polygon id="Stroke-463" stroke="#151616" stroke-width="5.36221486" stroke-linejoin="round" mask="url(#mask-2)" points="106.164403 87.838724 100.923006 87.838724 100.923006 98.8793006 106.164403 98.8793006"></polygon>
            <polygon id="Fill-464" fill="#FEFEFE" mask="url(#mask-2)" points="106.162331 87.8254868 100.920972 87.8254868 100.920972 98.8662431 106.162331 98.8662431"></polygon>
            <polygon id="Stroke-465" stroke="#151616" stroke-width="1.93342754" stroke-linejoin="round" mask="url(#mask-2)" points="101.409885 88.1048904 101.409885 83.632798 95.8189259 88.5242228"></polygon>
            <polygon id="Fill-466" fill="#FEFEFE" mask="url(#mask-2)" points="101.409885 88.1048904 101.409885 83.632798 95.8189259 88.5242228"></polygon>
            <polyline id="Stroke-467" stroke="#151616" stroke-width="0.773371014" stroke-linejoin="round" mask="url(#mask-2)" points="114.135148 74.4336518 113.813901 82.7890447 111.081808 86.3241584 107.867709 87.4488599"></polyline>
            <polyline id="Stroke-468" stroke="#151616" stroke-width="0.773371014" stroke-linejoin="round" mask="url(#mask-2)" points="118.152954 82.4675716 117.670675 87.1274777 116.706482 89.2163259 116.545722 96.1254533 110.439043 95.8042528 108.671415 91.9477569"></polyline>
            <polyline id="Stroke-469" stroke="#151616" stroke-width="0.773371014" stroke-linejoin="round" mask="url(#mask-2)" points="116.867241 98.2143015 121.206293 98.3750381 122.973921 97.4109822 123.616868 92.7513487 122.813161 88.4130066 121.527722 87.1274777 117.670675 87.1274777"></polyline>
            <path d="M117.831435,87.2882142 L140.008792,87.2882142" id="Stroke-470" stroke="#151616" stroke-width="0.644506159" stroke-linejoin="round" mask="url(#mask-2)"></path>
            <polygon id="Stroke-471" stroke="#151616" stroke-width="0.773371014" stroke-linejoin="round" mask="url(#mask-2)" points="139.687364 81.9857254 139.687364 101.370789 142.419185 101.370789 142.419185 91.3051741 145.151278 88.5734706 145.151278 82.1461893"></polygon>
            <path d="M144.82985,85.5204756 L148.043859,85.5204756" id="Stroke-472" stroke="#151616" stroke-width="0.644506159" stroke-linejoin="round" mask="url(#mask-2)"></path>
            <polygon id="Fill-473" fill="#151616" mask="url(#mask-2)" points="152.907628 95.9649893 150.331932 95.9649893 150.331932 106.730704 152.907628 106.730704"></polygon>
            <polygon id="Stroke-474" stroke="#151616" stroke-width="1.93342754" stroke-linejoin="round" mask="url(#mask-2)" points="120.563528 83.5941921 135.026793 83.5941921 135.026793 88.2347383 120.563528 88.2347383"></polygon>
            <polygon id="Fill-475" fill="#FEFEFE" mask="url(#mask-2)" points="120.563528 83.592364 135.026793 83.592364 135.026793 88.2329162 120.563528 88.2329162"></polygon>
            <path d="M121.043816,88.2501747 L135.830178,88.2501747 C136.536835,88.2501747 137.115137,88.8285233 137.115137,89.5354301 L137.115137,92.1073583 C137.115137,92.8142652 136.536835,93.3921776 135.830178,93.3921776 L121.043816,93.3921776 C120.337159,93.3921776 119.759075,92.8142652 119.759075,92.1073583 L119.759075,89.5354301 C119.759075,88.8285233 120.337159,88.2501747 121.043816,88.2501747 Z" id="Stroke-476" stroke="#151616" stroke-width="1.61121993" stroke-linejoin="round" mask="url(#mask-2)"></path>
            <path d="M121.044716,88.2519975 L135.831045,88.2519975 C136.537605,88.2519975 137.115939,88.8302492 137.115939,89.5369812 L137.115939,92.1090386 C137.115939,92.8157706 136.537605,93.3940223 135.831045,93.3940223 L121.044716,93.3940223 C120.338156,93.3940223 119.759822,92.8157706 119.759822,92.1090386 L119.759822,89.5369812 C119.759822,88.8302492 120.338156,88.2519975 121.044716,88.2519975" id="Fill-477" fill="#FEFEFE" mask="url(#mask-2)"></path>
            <path d="M108.429776,115.957654 L132.535793,115.957654 C133.419653,115.957654 134.142752,116.68065 134.142752,117.564383 L134.142752,117.564565 C134.142752,118.448298 133.419653,119.171294 132.535793,119.171294 L108.429776,119.171294 C107.545917,119.171294 106.822818,118.448298 106.822818,117.564565 L106.822818,117.564383 C106.822818,116.68065 107.545917,115.957654 108.429776,115.957654 Z" id="Stroke-478" stroke="#151616" stroke-width="1.28892138" stroke-linejoin="round" mask="url(#mask-2)"></path>
            <path d="M108.429776,115.957654 L132.535793,115.957654 C133.419653,115.957654 134.142752,116.68065 134.142752,117.564383 L134.142752,117.564565 C134.142752,118.448298 133.419653,119.171294 132.535793,119.171294 L108.429776,119.171294 C107.545917,119.171294 106.822818,118.448298 106.822818,117.564565 L106.822818,117.564383 C106.822818,116.68065 107.545917,115.957654 108.429776,115.957654" id="Fill-479" fill="#FEFEFE" mask="url(#mask-2)"></path>
            <path d="M98.7874785,107.293236 L121.286355,107.293236 C122.87732,107.293236 124.178935,108.594666 124.178935,110.185404 L124.178935,115.005955 C124.178935,116.596693 122.87732,117.898123 121.286355,117.898123 L98.7874785,117.898123 C97.1965139,117.898123 95.8948982,116.596693 95.8948982,115.005955 L95.8948982,110.185404 C95.8948982,108.594666 97.1965139,107.293236 98.7874785,107.293236 Z" id="Stroke-480" stroke="#151616" stroke-width="1.93342754" mask="url(#mask-2)"></path>
            <path d="M98.7874785,107.293236 L121.286355,107.293236 C122.87732,107.293236 124.178935,108.594666 124.178935,110.185404 L124.178935,115.005955 C124.178935,116.596693 122.87732,117.898123 121.286355,117.898123 L98.7874785,117.898123 C97.1965139,117.898123 95.8948982,116.596693 95.8948982,115.005955 L95.8948982,110.185404 C95.8948982,108.594666 97.1965139,107.293236 98.7874785,107.293236" id="Fill-481" fill="#FEFEFE" mask="url(#mask-2)"></path>
            <path d="M131.5716,108.436292 C134.056693,108.436292 136.071412,110.450632 136.071412,112.935371 C136.071412,115.420109 134.056693,117.43454 131.5716,117.43454 C129.086507,117.43454 127.071788,115.420109 127.071788,112.935371 C127.071788,110.450632 129.086507,108.436292 131.5716,108.436292 Z" id="Stroke-482" stroke="#151616" stroke-width="1.93342754" mask="url(#mask-2)"></path>
            <path d="M131.5716,108.436292 C134.056693,108.436292 136.071412,110.450632 136.071412,112.935371 C136.071412,115.420109 134.056693,117.43454 131.5716,117.43454 C129.086507,117.43454 127.071788,115.420109 127.071788,112.935371 C127.071788,110.450632 129.086507,108.436292 131.5716,108.436292" id="Fill-483" fill="#FEFEFE" mask="url(#mask-2)"></path>
            <path d="M95.5733498,112.434988 L136.392122,112.434988" id="Stroke-484" stroke="#151616" stroke-width="0.644506159" mask="url(#mask-2)"></path>
            <polygon id="Fill-485" fill="#151616" mask="url(#mask-2)" points="136.036606 95.9649893 133.460819 95.9649893 133.460819 106.730704 136.036606 106.730704"></polygon>
            <polygon id="Fill-486" fill="#FEFEFE" mask="url(#mask-2)" points="104.733944 103.838263 158.958419 103.838263 158.565381 106.730704 104.537379 106.730704"></polygon>
            <polygon id="Stroke-487" stroke="#151616" stroke-width="0.515550362" mask="url(#mask-2)" points="104.733944 103.838263 158.958419 103.838263 158.565381 106.730704 104.537379 106.730704"></polygon>
            <path d="M168.013386,101.10238 C176.080441,101.10238 182.619872,107.640878 182.619872,115.706781 C182.619872,123.772685 176.080441,130.311182 168.013386,130.311182 C159.946331,130.311182 153.406901,123.772685 153.406901,115.706781 C153.406901,107.640878 159.946331,101.10238 168.013386,101.10238 Z" id="Stroke-488" stroke="#151616" stroke-width="1.93342754" stroke-linejoin="round" mask="url(#mask-2)"></path>
            <path d="M168.013386,101.10238 C176.080441,101.10238 182.619872,107.640878 182.619872,115.706781 C182.619872,123.772685 176.080441,130.311182 168.013386,130.311182 C159.946331,130.311182 153.406901,123.772685 153.406901,115.706781 C153.406901,107.640878 159.946331,101.10238 168.013386,101.10238" id="Fill-489" fill="#FEFEFE" mask="url(#mask-2)"></path>
            <path d="M168.01556,107.103559 C172.763343,107.103559 176.611769,110.951596 176.611769,115.698541 C176.611769,120.445487 172.763343,124.293523 168.01556,124.293523 C163.267937,124.293523 159.419351,120.445487 159.419351,115.698541 C159.419351,110.951596 163.267937,107.103559 168.01556,107.103559 Z" id="Stroke-490" stroke="#151616" stroke-width="3.2852808" stroke-linejoin="round" mask="url(#mask-2)"></path>
            <path d="M168.013386,107.111874 C172.761016,107.111874 176.60952,110.959919 176.60952,115.706781 C176.60952,120.453734 172.761016,124.301689 168.013386,124.301689 C163.265847,124.301689 159.417252,120.453734 159.417252,115.706781 C159.417252,110.959919 163.265847,107.111874 168.013386,107.111874" id="Fill-491" fill="#FEFEFE" mask="url(#mask-2)"></path>
            <polygon id="Stroke-492" stroke="#151616" stroke-width="1.44752428" mask="url(#mask-2)" points="200.216953 97.7589118 200.216953 95.1835523 131.730395 95.1835523 131.730395 97.7589118"></polygon>
            <polygon id="Fill-493" fill="#FEFEFE" mask="url(#mask-2)" points="200.217901 97.7563523 200.217901 95.1810239 131.731087 95.1810239 131.731087 97.7563523"></polygon>
            <polyline id="Stroke-494" stroke="#151616" stroke-width="0.644506159" stroke-linejoin="round" mask="url(#mask-2)" points="64.4688263 83.620168 66.7789828 80.9255365 67.5489745 81.6954183 65.4314748 84.1013782"></polyline>
            <polyline id="Stroke-495" stroke="#151616" stroke-width="0.644506159" stroke-linejoin="round" mask="url(#mask-2)" points="65.8163343 79.4821787 70.3401372 84.293735 71.3025131 84.293735 66.3939416 78.4236254"></polyline>
            <path d="M83.2881262,71.8665124 C83.2881262,71.8665124 82.5523718,71.0132827 81.7027917,70.7578591 C80.8531672,70.5025148 79.7413716,70.3213183 79.2912165,70.7311385 C78.8408966,71.1401373 77.8263546,72.5575648 77.8263546,72.5575648 L77.8124849,73.7631565 L77.567098,74.39777 C77.567098,74.39777 80.3989674,74.6602404 81.5408584,74.1969357 C82.6829873,73.7337642 83.2072214,73.5860332 83.2072214,73.5860332 C83.2072214,73.5860332 83.2040883,71.8194366 83.2881262,71.8665124 Z" id="Stroke-496" stroke="#151616" stroke-width="0.644506159" stroke-linejoin="round" mask="url(#mask-2)"></path>
            <polyline id="Stroke-497" stroke="#151616" stroke-width="0.644506159" stroke-linejoin="round" mask="url(#mask-2)" points="78.8470391 74.6733654 79.1893879 75.6375249 79.0379977 76.1042007 79.7263778 77.0416053 80.8650019 77.5690311 81.6144325 77.2164566 82.8235964 76.239356 82.860968 73.6131845"></polyline>
            <polyline id="Stroke-498" stroke="#151616" stroke-width="0.644506159" stroke-linejoin="round" mask="url(#mask-2)" points="84.1034759 77.7500584 82.8522964 76.2101132 81.0236004 77.4612959 79.8684766 78.0385482 78.2322558 79.0010594 74.9599051 82.1765376 70.62885 83.3314964"></polyline>
            <path d="M79.8684766,82.1765376 L81.2159847,83.2351817" id="Stroke-499" stroke="#151616" stroke-width="0.644506159" stroke-linejoin="round" mask="url(#mask-2)"></path>
            <polyline id="Stroke-500" stroke="#151616" stroke-width="0.644506159" stroke-linejoin="round" mask="url(#mask-2)" points="79.1949044 71.2061091 79.8684766 71.3985569 81.0236004 71.5909137 81.8896478 71.8796761 83.1411 73.0345442"></polyline>
            <polygon id="Stroke-501" stroke="#151616" stroke-width="0.762276087" stroke-linejoin="round" mask="url(#mask-2)" points="199.658496 3.86843153 201.342818 3.86843153 201.342818 91.0679884 199.658496 91.0679884"></polygon>
            <polygon id="Fill-502" fill="#151616" mask="url(#mask-2)" points="199.660196 3.86721777 201.344399 3.86721777 201.344399 91.0669315 199.660196 91.0669315"></polygon>
            <polygon id="Stroke-503" stroke="#151616" stroke-width="1.28892138" stroke-linejoin="round" mask="url(#mask-2)" points="200.937638 3.73455787 180.715658 27.8511279 178.279274 27.3640117 199.719447 1.29852234"></polygon>
            <polygon id="Fill-504" fill="#FEFEFE" mask="url(#mask-2)" points="200.937638 3.73455787 180.715658 27.8511279 178.279274 27.3640117 199.719447 1.29852234"></polygon>
            <polygon id="Stroke-505" stroke="#151616" stroke-width="1.28892138" stroke-linejoin="round" mask="url(#mask-2)" points="185.344786 0.567620812 178.766642 27.1204081 180.959387 27.3640117 187.781169 0.0805045685"></polygon>
            <polygon id="Fill-506" fill="#FEFEFE" mask="url(#mask-2)" points="185.344786 0.567620812 178.766642 27.1204081 180.959387 27.3640117 187.781169 0.0805045685"></polygon>
            <polygon id="Stroke-507" stroke="#151616" stroke-width="1.27291558" stroke-linejoin="round" mask="url(#mask-2)" points="190.500333 12.2600217 193.547737 12.2600217 193.547737 86.3158252 190.500333 86.3158252"></polygon>
            <polygon id="Fill-508" fill="#FEFEFE" mask="url(#mask-2)" points="190.500449 12.2605005 193.547791 12.2605005 193.547791 86.3158898 190.500449 86.3158898"></polygon>
            <path d="M201.772283,79.9906635 L189.851772,79.9906635 C189.24947,79.9906635 188.7572,80.4830469 188.7572,81.0850529 L188.7572,82.909988 C188.7572,83.5117899 189.24947,84.0042413 189.851772,84.0042413 L201.772283,84.0042413 C202.374196,84.0042413 202.866855,83.5117899 202.866855,82.909988 L202.866855,81.0850529 C202.866855,80.4830469 202.374196,79.9906635 201.772283,79.9906635 Z" id="Stroke-509" stroke="#151616" stroke-width="1.80710906" stroke-linejoin="round" mask="url(#mask-2)"></path>
            <path d="M201.770698,79.9839239 L189.850232,79.9839239 C189.248179,79.9839239 188.755722,80.476401 188.755722,81.0782772 L188.755722,82.9031685 C188.755722,83.5050447 189.248179,83.9975218 189.850232,83.9975218 L201.770698,83.9975218 C202.372751,83.9975218 202.865298,83.5050447 202.865298,82.9031685 L202.865298,81.0782772 C202.865298,80.476401 202.372751,79.9839239 201.770698,79.9839239" id="Fill-510" fill="#FEFEFE" mask="url(#mask-2)"></path>
            <polygon id="Stroke-511" stroke="#151616" stroke-width="1.28892138" stroke-linejoin="round" mask="url(#mask-2)" points="192.166568 76.8153513 181.446482 76.8153513 181.446482 78.520667 192.166568 78.520667"></polygon>
            <polygon id="Fill-512" fill="#FEFEFE" mask="url(#mask-2)" points="192.166568 76.8153513 181.446482 76.8153513 181.446482 78.520667 192.166568 78.520667"></polygon>
            <polygon id="Stroke-513" stroke="#151616" stroke-width="1.28892138" stroke-linejoin="round" mask="url(#mask-2)" points="201.181095 22.4914057 190.461009 22.4914057 190.461009 27.1199266 201.181095 27.1199266"></polygon>
            <polygon id="Fill-514" fill="#151616" mask="url(#mask-2)" points="201.181095 22.491668 190.461009 22.491668 190.461009 27.1204081 201.181095 27.1204081"></polygon>
            <polygon id="Stroke-515" stroke="#151616" stroke-width="1.28892138" stroke-linejoin="round" mask="url(#mask-2)" points="201.181095 11.5306034 190.461009 11.5306034 190.461009 14.4538702 201.181095 14.4538702"></polygon>
            <polygon id="Fill-516" fill="#151616" mask="url(#mask-2)" points="201.181095 11.5297807 190.461009 11.5297807 190.461009 14.4531142 201.181095 14.4531142"></polygon>
            <polygon id="Stroke-517" stroke="#151616" stroke-width="2.0582" stroke-linejoin="round" mask="url(#mask-2)" points="190.709593 50.9176053 179.989588 40.5146353 179.989629 42.2200047 190.709538 52.6230351"></polygon>
            <polygon id="Fill-518" fill="#151616" mask="url(#mask-2)" points="190.704465 50.9216838 179.984379 40.5186036 179.984379 42.2240102 190.704465 52.6269995"></polygon>
            <polygon id="Stroke-519" stroke="#151616" stroke-width="1.28892138" stroke-linejoin="round" mask="url(#mask-2)" points="192.165472 40.0313056 178.827433 40.0313056 178.827433 41.7366213 192.165472 41.7366213"></polygon>
            <polygon id="Fill-520" fill="#FEFEFE" mask="url(#mask-2)" points="192.166568 40.0313056 178.828528 40.0313056 178.828528 41.7366213 192.166568 41.7366213"></polygon>
            <polygon id="Stroke-521" stroke="#151616" stroke-width="1.28892138" stroke-linejoin="round" mask="url(#mask-2)" points="192.165472 51.7241853 178.827433 51.7241853 178.827433 53.4295919 192.165472 53.4295919"></polygon>
            <polygon id="Fill-522" fill="#FEFEFE" mask="url(#mask-2)" points="192.166568 51.7241853 178.828528 51.7241853 178.828528 53.4295919 192.166568 53.4295919"></polygon>
            <polygon id="Stroke-523" stroke="#151616" stroke-width="1.28892138" stroke-linejoin="round" mask="url(#mask-2)" points="192.165472 63.6607594 178.827433 63.6607594 178.827433 65.3660751 192.165472 65.3660751"></polygon>
            <polygon id="Fill-524" fill="#FEFEFE" mask="url(#mask-2)" points="192.166568 63.6607594 178.828528 63.6607594 178.828528 65.3660751 192.166568 65.3660751"></polygon>
            <polygon id="Stroke-525" stroke="#151616" stroke-width="1.28892138" stroke-linejoin="round" mask="url(#mask-2)" points="192.165472 25.9023904 178.827433 25.9023904 178.827433 27.6077061 192.165472 27.6077061"></polygon>
            <polygon id="Fill-526" fill="#FEFEFE" mask="url(#mask-2)" points="192.166568 25.9023904 178.828528 25.9023904 178.828528 27.6077061 192.166568 27.6077061"></polygon>
            <polygon id="Stroke-527" stroke="#151616" stroke-width="1.28892138" stroke-linejoin="round" mask="url(#mask-2)" points="196.776075 8.05968388 181.713068 8.05968388 181.713068 10.6142953 196.776075 10.6142953"></polygon>
            <polygon id="Fill-528" fill="#FEFEFE" mask="url(#mask-2)" points="196.775794 8.05291015 181.712839 8.05291015 181.712839 10.6077036 196.775794 10.6077036"></polygon>
            <polygon id="Stroke-529" stroke="#151616" stroke-width="1.28892138" stroke-linejoin="round" mask="url(#mask-2)" points="185.413766 0.323926396 198.783603 0.323926396 200.205915 3.00365635 197.361291 3.49095431 184.275916 3.9779797"></polygon>
            <polygon id="Fill-530" fill="#FEFEFE" mask="url(#mask-2)" points="185.414578 0.323926396 198.784606 0.323926396 200.206814 3.00365635 197.362126 3.49095431 184.276812 3.9779797"></polygon>
            <path d="M183.315265,8.21465205 C183.866044,8.21465205 184.312184,8.66068763 184.312184,9.2113886 C184.312184,9.76176752 183.866044,10.2079239 183.315265,10.2079239 C182.764727,10.2079239 182.318587,9.76176752 182.318587,9.2113886 C182.318587,8.66068763 182.764727,8.21465205 183.315265,8.21465205 Z" id="Stroke-531" stroke="#151616" stroke-width="1.50363551" mask="url(#mask-2)"></path>
            <path d="M183.314345,8.21800812 C183.865144,8.21800812 184.311254,8.66414518 184.311254,9.21477462 C184.311254,9.76522234 183.865144,10.2112685 183.314345,10.2112685 C182.76391,10.2112685 182.317709,9.76522234 182.317709,9.21477462 C182.317709,8.66414518 182.76391,8.21800812 183.314345,8.21800812" id="Fill-532" fill="#EBEBEB" mask="url(#mask-2)"></path>
            <path d="M195.490513,8.21465205 C196.041292,8.21465205 196.487432,8.66068763 196.487432,9.2113886 C196.487432,9.76176752 196.041292,10.2079239 195.490513,10.2079239 C194.940095,10.2079239 194.493835,9.76176752 194.493835,9.2113886 C194.493835,8.66068763 194.940095,8.21465205 195.490513,8.21465205 Z" id="Stroke-533" stroke="#151616" stroke-width="1.50363551" mask="url(#mask-2)"></path>
            <path d="M195.489627,8.21800812 C196.040335,8.21800812 196.486536,8.66414518 196.486536,9.21477462 C196.486536,9.76522234 196.040335,10.2112685 195.489627,10.2112685 C194.939101,10.2112685 194.492991,9.76522234 194.492991,9.21477462 C194.492991,8.66414518 194.939101,8.21800812 195.489627,8.21800812" id="Fill-534" fill="#EBEBEB" mask="url(#mask-2)"></path>
            <path d="M191.917652,29.1212012 C192.468432,29.1212012 192.914531,29.5672367 192.914531,30.1179377 C192.914531,30.6683166 192.468432,31.114473 191.917652,31.114473 C191.367114,31.114473 190.920975,30.6683166 190.920975,30.1179377 C190.920975,29.5672367 191.367114,29.1212012 191.917652,29.1212012 Z" id="Stroke-535" stroke="#151616" stroke-width="1.50363551" mask="url(#mask-2)"></path>
            <path d="M191.916659,29.1244812 C192.467458,29.1244812 192.913659,29.5706183 192.913659,30.1212477 C192.913659,30.6716954 192.467458,31.1178325 191.916659,31.1178325 C191.366224,31.1178325 190.920023,30.6716954 190.920023,30.1212477 C190.920023,29.5706183 191.366224,29.1244812 191.916659,29.1244812" id="Fill-536" fill="#EBEBEB" mask="url(#mask-2)"></path>
            <path d="M191.917652,43.1470476 C192.468432,43.1470476 192.914531,43.5932442 192.914531,44.1438244 C192.914531,44.6942839 192.468432,45.1403597 191.917652,45.1403597 C191.367114,45.1403597 190.920975,44.6942839 190.920975,44.1438244 C190.920975,43.5932442 191.367114,43.1470476 191.917652,43.1470476 Z" id="Stroke-537" stroke="#151616" stroke-width="1.50363551" mask="url(#mask-2)"></path>
            <path d="M191.916659,43.1504487 C192.467458,43.1504487 192.913659,43.5964949 192.913659,44.1472152 C192.913659,44.6975721 192.467458,45.1437091 191.916659,45.1437091 C191.366224,45.1437091 190.920023,44.6975721 190.920023,44.1472152 C190.920023,43.5964949 191.366224,43.1504487 191.916659,43.1504487" id="Fill-538" fill="#EBEBEB" mask="url(#mask-2)"></path>
            <path d="M191.917652,55.0558353 C192.468432,55.0558353 192.914531,55.5019917 192.914531,56.0526926 C192.914531,56.6030715 192.468432,57.0491071 191.917652,57.0491071 C191.367114,57.0491071 190.920975,56.6030715 190.920975,56.0526926 C190.920975,55.5019917 191.367114,55.0558353 191.917652,55.0558353 Z" id="Stroke-539" stroke="#151616" stroke-width="1.50363551" mask="url(#mask-2)"></path>
            <path d="M191.916659,55.0591279 C192.467458,55.0591279 192.913659,55.505265 192.913659,56.0559853 C192.913659,56.6063421 192.467458,57.0524792 191.916659,57.0524792 C191.366224,57.0524792 190.920023,56.6063421 190.920023,56.0559853 C190.920023,55.505265 191.366224,55.0591279 191.916659,55.0591279" id="Fill-540" fill="#EBEBEB" mask="url(#mask-2)"></path>
            <path d="M191.917652,67.0020207 C192.468432,67.0020207 192.914531,67.4480966 192.914531,67.9987975 C192.914531,68.5491362 192.468432,68.9953328 191.917652,68.9953328 C191.367114,68.9953328 190.920975,68.5491362 190.920975,67.9987975 C190.920975,67.4480966 191.367114,67.0020207 191.917652,67.0020207 Z" id="Stroke-541" stroke="#151616" stroke-width="1.50363551" mask="url(#mask-2)"></path>
            <path d="M191.916659,67.0052426 C192.467458,67.0052426 192.913659,67.4513797 192.913659,68.0020091 C192.913659,68.5524569 192.467458,68.998503 191.916659,68.998503 C191.366224,68.998503 190.920023,68.5524569 190.920023,68.0020091 C190.920023,67.4513797 191.366224,67.0052426 191.916659,67.0052426" id="Fill-542" fill="#EBEBEB" mask="url(#mask-2)"></path>
            <path d="M191.917652,15.8889599 C192.468432,15.8889599 192.914531,16.3351565 192.914531,16.8857367 C192.914531,17.4361961 192.468432,17.882272 191.917652,17.882272 C191.367114,17.882272 190.920975,17.4361961 190.920975,16.8857367 C190.920975,16.3351565 191.367114,15.8889599 191.917652,15.8889599 Z" id="Stroke-543" stroke="#151616" stroke-width="1.50363551" mask="url(#mask-2)"></path>
            <path d="M191.916659,15.8923832 C192.467458,15.8923832 192.913659,16.3385203 192.913659,16.8891497 C192.913659,17.4395975 192.467458,17.8857345 191.916659,17.8857345 C191.366224,17.8857345 190.920023,17.4395975 190.920023,16.8891497 C190.920023,16.3385203 191.366224,15.8923832 191.916659,15.8923832" id="Fill-544" fill="#EBEBEB" mask="url(#mask-2)"></path>
            <polygon id="Stroke-545" stroke="#151616" stroke-width="1.93342754" mask="url(#mask-2)" points="172.154329 76.0969888 174.055635 76.0969888 174.055635 94.6311213 172.154329 94.6311213"></polygon>
            <polygon id="Fill-546" fill="#FEFEFE" mask="url(#mask-2)" points="172.154329 76.0969888 174.055635 76.0969888 174.055635 94.6311213 172.154329 94.6311213"></polygon>
            <polygon id="Stroke-547" stroke="#151616" stroke-width="1.93342754" mask="url(#mask-2)" points="182.610875 76.0969888 184.512181 76.0969888 184.512181 94.6311213 182.610875 94.6311213"></polygon>
            <polygon id="Fill-548" fill="#FEFEFE" mask="url(#mask-2)" points="182.610875 76.0969888 184.512181 76.0969888 184.512181 94.6311213 182.610875 94.6311213"></polygon>
            <polygon id="Stroke-549" stroke="#151616" stroke-width="1.93342754" mask="url(#mask-2)" points="175.857817 76.0969888 177.046188 76.0969888 177.046188 94.6311213 175.857817 94.6311213"></polygon>
            <polygon id="Fill-550" fill="#FEFEFE" mask="url(#mask-2)" points="175.859431 76.0969888 177.047724 76.0969888 177.047724 94.6311213 175.859431 94.6311213"></polygon>
            <polygon id="Stroke-551" stroke="#151616" stroke-width="1.93342754" mask="url(#mask-2)" points="180.135561 76.0969888 181.323763 76.0969888 181.323763 94.6311213 180.135561 94.6311213"></polygon>
            <polygon id="Fill-552" fill="#FEFEFE" mask="url(#mask-2)" points="180.137142 76.0969888 181.325435 76.0969888 181.325435 94.6311213 180.137142 94.6311213"></polygon>
            <path d="M180.072459,72.8953691 L203.199235,92.5886682 L199.89989,92.332152 L179.528387,75.0432303 C179.528387,75.0432303 180.254103,73.408391 180.072459,72.8953691 Z" id="Stroke-553" stroke="#151616" stroke-width="2.37167717" stroke-linejoin="round" mask="url(#mask-2)"></path>
            <path d="M180.065531,72.8908898 L203.192179,92.5842518 L199.892838,92.3276548 L179.521457,75.0387081 C179.521457,75.0387081 180.247101,73.403902 180.065531,72.8908898" id="Fill-554" fill="#FEFEFE" mask="url(#mask-2)"></path>
            <path d="M178.347613,67.6550944 C182.330068,67.6550944 185.558344,70.8829096 185.558344,74.8647964 C185.558344,75.2462391 185.528446,75.6210487 185.471285,75.9864995 L171.22385,75.9864995 C171.166689,75.6210487 171.136791,75.2462391 171.136791,74.8647964 C171.136791,70.8829096 174.365067,67.6550944 178.347613,67.6550944 Z" id="Stroke-555" stroke="#151616" stroke-width="1.93342754" mask="url(#mask-2)"></path>
            <path d="M178.347613,67.6550944 C182.330068,67.6550944 185.558344,70.8829096 185.558344,74.8647964 C185.558344,75.2462391 185.528446,75.6210487 185.471285,75.9864995 L171.22385,75.9864995 C171.166689,75.6210487 171.136791,75.2462391 171.136791,74.8647964 C171.136791,70.8829096 174.365067,67.6550944 178.347613,67.6550944" id="Fill-556" fill="#FEFEFE" mask="url(#mask-2)"></path>
            <polygon id="Stroke-557" stroke="#151616" stroke-width="1.93342754" mask="url(#mask-2)" points="203.048958 92.4924802 199.959541 92.4924802 199.959541 123.620489 203.048958 123.620489"></polygon>
            <polygon id="Fill-558" fill="#FEFEFE" mask="url(#mask-2)" points="203.048958 92.4924802 199.959541 92.4924802 199.959541 123.620489 203.048958 123.620489"></polygon>
            <polygon id="Stroke-559" stroke="#151616" stroke-width="1.93342754" mask="url(#mask-2)" points="196.753592 124.095703 206.734918 124.095703 206.734918 131.699477 196.753592 131.699477"></polygon>
            <polygon id="Fill-560" fill="#FEFEFE" mask="url(#mask-2)" points="196.752348 124.095703 206.733613 124.095703 206.733613 131.699477 196.752348 131.699477"></polygon>
            <polygon id="Stroke-561" stroke="#151616" stroke-width="6.87439891" mask="url(#mask-2)" points="196.749752 124.087769 206.730925 124.087769 206.730925 126.226331 196.749752 126.226331"></polygon>
            <polygon id="Fill-562" fill="#FEFEFE" mask="url(#mask-2)" points="196.752348 124.095703 206.733613 124.095703 206.733613 126.234253 196.752348 126.234253"></polygon>
            <polygon id="Fill-563" fill="#151616" mask="url(#mask-2)" points="192.166568 51.7241853 203.048958 51.7241853 203.048958 53.4295919 192.166568 53.4295919"></polygon>
            <polygon id="Fill-564" fill="#151616" mask="url(#mask-2)" points="192.166568 50.8986954 203.048958 50.8986954 203.048958 51.567901 192.166568 51.567901"></polygon>
            <polygon id="Fill-565" fill="#151616" mask="url(#mask-2)" points="192.166568 53.5916005 203.048958 53.5916005 203.048958 54.2607152 192.166568 54.2607152"></polygon>
            <polygon id="Fill-566" fill="#151616" mask="url(#mask-2)" points="192.166568 63.6486746 203.048958 63.6486746 203.048958 65.3539904 192.166568 65.3539904"></polygon>
            <polygon id="Fill-567" fill="#151616" mask="url(#mask-2)" points="192.166568 62.8231848 203.048958 62.8231848 203.048958 63.4922995 192.166568 63.4922995"></polygon>
            <polygon id="Fill-568" fill="#151616" mask="url(#mask-2)" points="192.166568 65.515999 203.048958 65.515999 203.048958 66.1852046 192.166568 66.1852046"></polygon>
            <polygon id="Fill-569" fill="#151616" mask="url(#mask-2)" points="190.254902 20.7363777 203.048958 20.7363777 203.048958 21.4055832 190.254902 21.4055832"></polygon>
            <polygon id="Stroke-570" stroke="#151616" stroke-width="1.81738551" mask="url(#mask-2)" points="106.581996 74.1151549 108.028377 74.1151549 108.028377 104.796377 106.581996 104.796377"></polygon>
            <polygon id="Fill-571" fill="#EBEBEB" mask="url(#mask-2)" points="106.581996 74.1122695 108.028377 74.1122695 108.028377 104.793506 106.581996 104.793506"></polygon>
            <path d="M107.225685,71.0558255 C108.290914,71.0558255 109.154237,71.9192585 109.154237,72.9843357 C109.154237,74.0491014 108.290914,74.9123786 107.225685,74.9123786 C106.160767,74.9123786 105.297211,74.0491014 105.297211,72.9843357 C105.297211,71.9192585 106.160767,71.0558255 107.225685,71.0558255 Z" id="Stroke-572" stroke="#151616" stroke-width="2.25563514" mask="url(#mask-2)"></path>
            <path d="M107.224943,71.0592746 C108.2901,71.0592746 109.153603,71.9226543 109.153603,72.9876589 C109.153603,74.0524817 108.2901,74.9158614 107.224943,74.9158614 C106.160059,74.9158614 105.296557,74.0524817 105.296557,72.9876589 C105.296557,71.9226543 106.160059,71.0592746 107.224943,71.0592746" id="Fill-573" fill="#EBEBEB" mask="url(#mask-2)"></path>
            <polygon id="Stroke-574" stroke="#151616" stroke-width="1.28892138" stroke-linejoin="round" mask="url(#mask-2)" points="145.239701 81.2583675 145.589482 76.8156239 149.80458 76.6832365 148.358199 81.5035157"></polygon>
            <polygon id="Fill-575" fill="#FEFEFE" mask="url(#mask-2)" points="145.239701 81.2583675 145.589482 76.8156239 149.80458 76.6832365 148.358199 81.5035157"></polygon>
        </g>
    </g>
</svg>