<?xml version="1.0" encoding="UTF-8"?>
<svg width="14px" height="19px" viewBox="0 0 14 19" version="1.1" xmlns="http://www.w3.org/2000/svg" xmlns:xlink="http://www.w3.org/1999/xlink">
    <!-- Generator: Sketch 51.2 (57519) - http://www.bohemiancoding.com/sketch -->
    <title>Combined Shape</title>
    <desc>Created with Sketch.</desc>
    <defs></defs>
    <g id="margeo" stroke="none" stroke-width="1" fill-rule="evenodd">
        <g id="margeo-company" transform="translate(-489.000000, -1352.000000)" fill-rule="nonzero">
            <g id="Group-2" transform="translate(472.000000, 1338.000000)">
                <path d="M24,14 C24.4324377,14 24.7829978,14.3534105 24.7829978,14.7893644 L24.7829978,27.0047777 L29.6610738,22.083091 C29.9670235,21.7746536 30.463066,21.7746536 30.7690157,22.083091 C31.0749653,22.3915284 31.0749653,22.8916042 30.7690157,23.2000415 L24.5559284,29.4675945 L24.4345638,29.5662651 L24.4032438,29.5662651 L24.3014541,29.6215206 L24.2544743,29.6215206 C24.222967,29.6343617 24.1901401,29.6436279 24.1565996,29.6491483 C24.10456,29.654981 24.0520395,29.654981 24,29.6491483 C23.9492798,29.65516 23.8980356,29.65516 23.8473154,29.6491483 C23.8123992,29.6441373 23.7782179,29.6348598 23.7455257,29.6215206 L23.6985459,29.6215206 L23.5967562,29.5662651 L23.5654362,29.5662651 C23.5237746,29.5365383 23.484503,29.5035458 23.4479866,29.4675945 L17.2309843,23.2000415 C17.0330696,23.0005175 16.9557751,22.709705 17.0282169,22.4371501 C17.1006587,22.1645953 17.3118313,21.9517057 17.5821878,21.8786748 C17.8525444,21.805644 18.1410114,21.883567 18.3389262,22.083091 L23.2170022,27.0245118 L23.2170022,14.7893644 C23.2170022,14.3534105 23.5675623,14 24,14 Z M17.7829978,33 C17.35056,33 17,32.6465895 17,32.2106356 C17,31.7746818 17.35056,31.4212713 17.7829978,31.4212713 L30.2170022,31.4212713 C30.64944,31.4212713 31,31.7746818 31,32.2106356 C31,32.6465895 30.64944,33 30.2170022,33 L17.7829978,33 Z" id="Combined-Shape"></path>
            </g>
        </g>
    </g>
</svg>
