<?xml version="1.0" encoding="UTF-8"?><!DOCTYPE svg PUBLIC "-//W3C//DTD SVG 1.1//EN" "http://www.w3.org/Graphics/SVG/1.1/DTD/svg11.dtd"><svg xmlns="http://www.w3.org/2000/svg"><defs><filter x="-.2%" y="-3%" width="100.5%" height="108.5%" filterUnits="objectBoundingBox" id="logo-a"><feOffset dy="1" in="SourceAlpha" result="shadowOffsetOuter1"/><feGaussianBlur stdDeviation="1" in="shadowOffsetOuter1" result="shadowBlurOuter1"/><feColorMatrix values="0 0 0 0 0 0 0 0 0 0 0 0 0 0 0 0 0 0 0.1 0" in="shadowBlurOuter1" result="shadowMatrixOuter1"/><feMerge><feMergeNode in="shadowMatrixOuter1"/><feMergeNode in="SourceGraphic"/></feMerge></filter></defs><symbol id="logo" viewBox="0 0 144 44"><title>Group</title><g filter="url(#logo-a)" transform="translate(-118 -20)" fill="none" fill-rule="evenodd"><path d="M169.57 32.04h3.132l3.954 12 3.987-12h3.14l2.855 17.208h-3.124l-1.827-10.864-3.615 10.864h-2.863l-3.575-10.864-1.867 10.864h-3.156l2.958-17.208zm28.585 4.48h3.164v12.728h-3.164v-1.344a6.144 6.144 0 0 1-1.851 1.28 5.122 5.122 0 0 1-2.017.392 5.572 5.572 0 0 1-4.216-1.912 6.7 6.7 0 0 1-1.78-4.752 6.879 6.879 0 0 1 1.725-4.8 5.454 5.454 0 0 1 4.184-1.88 5.287 5.287 0 0 1 2.128.432 5.845 5.845 0 0 1 1.835 1.296v-1.44h-.008zm-3.314 2.632a3.147 3.147 0 0 0-2.429 1.048 3.794 3.794 0 0 0-.965 2.68c-.037 1 .315 1.973.981 2.712a3.147 3.147 0 0 0 2.42 1.056 3.233 3.233 0 0 0 2.46-1.048 3.842 3.842 0 0 0 .981-2.736 3.745 3.745 0 0 0-.98-2.688 3.272 3.272 0 0 0-2.476-1.024h.008zm8.922-2.632h2.697v1.6a3.424 3.424 0 0 1 1.17-1.44 2.801 2.801 0 0 1 1.582-.488c.45.01.89.121 1.29.328l-.981 2.752a2.15 2.15 0 0 0-.918-.28 1.45 1.45 0 0 0-1.234.92 8.4 8.4 0 0 0-.506 3.576v5.76H203.7V36.52h.064zm24.385-1.664l-2.278 2.28a6.722 6.722 0 0 0-5.054-2.312 5.731 5.731 0 0 0-4.208 1.68 5.527 5.527 0 0 0-1.693 4.08 5.68 5.68 0 0 0 1.756 4.216 5.951 5.951 0 0 0 4.343 1.728 5.276 5.276 0 0 0 2.831-.712 4.978 4.978 0 0 0 1.859-2.224h-4.928v-3.064h8.566v.72a8.457 8.457 0 0 1-1.154 4.272 8.1 8.1 0 0 1-2.998 3.08 8.465 8.465 0 0 1-4.319 1.064 9.53 9.53 0 0 1-4.746-1.16 8.475 8.475 0 0 1-3.219-3.312 9.306 9.306 0 0 1-1.21-4.64 8.665 8.665 0 0 1 2.199-5.904 8.758 8.758 0 0 1 6.92-3.032c1.424-.02 2.837.252 4.153.8a9.58 9.58 0 0 1 3.164 2.4l.016.04zm16.397 8.944H234.42a3.45 3.45 0 0 0 1.179 2.168 3.658 3.658 0 0 0 2.436.8 4.184 4.184 0 0 0 3.045-1.256l2.674 1.264a6.35 6.35 0 0 1-2.373 2.112 7.418 7.418 0 0 1-3.299.68 6.485 6.485 0 0 1-4.832-1.888 6.439 6.439 0 0 1-1.867-4.728 6.673 6.673 0 0 1 1.859-4.8 6.205 6.205 0 0 1 4.659-1.92 6.439 6.439 0 0 1 4.84 1.92 6.974 6.974 0 0 1 1.867 5.072v.608l-.063-.032zm-3.164-2.512a3.199 3.199 0 0 0-1.234-1.728 3.57 3.57 0 0 0-2.144-.664 3.775 3.775 0 0 0-2.317.744 4.167 4.167 0 0 0-1.163 1.648h6.858zm11.674-5.088a6.602 6.602 0 0 1 3.354.896 6.458 6.458 0 0 1 2.444 2.44 6.626 6.626 0 0 1 .878 3.336 6.747 6.747 0 0 1-.886 3.368 6.406 6.406 0 0 1-2.373 2.448 6.586 6.586 0 0 1-3.361.88 6.245 6.245 0 0 1-4.62-1.944 6.786 6.786 0 0 1-1.91-4.9 6.778 6.778 0 0 1 2.156-4.796 6.289 6.289 0 0 1 4.358-1.728h-.04zm.056 3.008a3.225 3.225 0 0 0-2.452 1.04 3.712 3.712 0 0 0-.973 2.648c-.041.99.306 1.956.965 2.688a3.201 3.201 0 0 0 2.444 1.024 3.24 3.24 0 0 0 2.46-1.04 4.148 4.148 0 0 0 0-5.336 3.232 3.232 0 0 0-2.468-1.024h.024zm-132.32-6.08V21h11.99c-5.514 2.143-9.872 6.55-11.99 12.128zM147.644 21h11.991v12.128c-2.118-5.578-6.476-9.985-11.99-12.128zm0 39.288v-.04c5.507-2.133 9.864-6.525 11.991-12.088v12.128h-11.99zM120.751 48.16h.04c2.126 5.561 6.48 9.952 11.983 12.088h-12.023V48.16zm26.213-.288h8.25a17.26 17.26 0 0 1-3.56 5 16.677 16.677 0 0 1-4.746 3.2 16.255 16.255 0 0 1-6.604 1.424 16.473 16.473 0 0 1-8.867-2.616 16.097 16.097 0 0 1-5.964-6.488 16.795 16.795 0 0 1-1.819-7.736 16.3 16.3 0 0 1 4.62-11.744 16.445 16.445 0 0 1 5.473-3.76 16.566 16.566 0 0 1 6.51-1.336 15.98 15.98 0 0 1 11.95 5.232l-4.95 4.72a9.99 9.99 0 0 0-7.024-3.04 9.735 9.735 0 0 0-6.965 2.878 9.961 9.961 0 0 0-2.89 7.026 10.018 10.018 0 0 0 2.875 7.05 9.792 9.792 0 0 0 6.964 2.926 9.247 9.247 0 0 0 6.747-2.736z" fill="#231F20"/><path d="M140.304 43.912V37.2h15.068a18.91 18.91 0 0 1 .324 3.344 19.332 19.332 0 0 1-.324 3.368h-15.068z" fill="#5CA446"/></g></symbol></svg>